<svg width="78" height="32" fill="none" xmlns="http://www.w3.org/2000/svg">
  <rect width="78" height="32" rx="5" fill="#fff"/>
  <path d="M21 16a4 4 0 1 0-8 0 8 8 0 0 0 16 0 12 12 0 0 0-4-9" stroke="#2D3748" stroke-width="2" stroke-linecap="round" stroke-linejoin="round"/>
  <path d="M17 16a4 4 0 1 0 8 0 8 8 0 0 0-16 0 12 12 0 0 0 4 9" stroke="#F56565" stroke-width="2" stroke-linecap="round" stroke-linejoin="round"/>
  <path d="M68.4 15H61l-6.5 6.5 3.7 3.7 10.2-10.1ZM52.7 19.7 49 16 61 4h7.4L52.7 19.7Z" fill="#54C5F8"/>
  <path d="M58.2 25.2 61 28h7.4l-6.5-6.5-3.7 3.7Z" fill="#01579B"/>
  <path d="m58.2 17.8-3.7 3.7 3.7 3.7 3.7-3.7-3.7-3.7Z" fill="#29B6F6"/>
  <circle cx="39" cy="16" r="2" fill="#DDD"/>
</svg>
