<svg width="78" height="32" fill="none" xmlns="http://www.w3.org/2000/svg">
  <rect width="78" height="32" rx="5" fill="#fff"/>
  <path d="M21 16a4 4 0 1 0-8 0 8 8 0 0 0 16 0 12 12 0 0 0-4-9" stroke="#2D3748" stroke-width="2" stroke-linecap="round" stroke-linejoin="round"/>
  <path d="M17 16a4 4 0 1 0 8 0 8 8 0 0 0-16 0 12 12 0 0 0 4 9" stroke="#F56565" stroke-width="2" stroke-linecap="round" stroke-linejoin="round"/>
  <circle cx="39" cy="16" r="2" fill="#DDD"/>
  <path d="m61.2 6-2.7 4.6L56 6H47l11.5 20L70.1 6h-8.9Z" fill="#41B883"/>
  <path d="m61.2 6-2.7 4.6L56 6h-4.3l7 12 6.9-12h-4.3Z" fill="#34495E"/>
</svg>
