<svg width="78" height="32" viewBox="0 0 78 32" fill="none" xmlns="http://www.w3.org/2000/svg">
<rect width="78" height="32" rx="5" fill="#fff"/>
<path d="M58.5 18.2818C59.6321 18.2818 60.55 17.3639 60.55 16.2318C60.55 15.0996 59.6321 14.1818 58.5 14.1818C57.3678 14.1818 56.45 15.0996 56.45 16.2318C56.45 17.3639 57.3678 18.2818 58.5 18.2818Z" fill="#61DAFB"/>
<path d="M58.5 20.4317C64.5751 20.4317 69.5 18.5513 69.5 16.2317C69.5 13.9121 64.5751 12.0317 58.5 12.0317C52.4249 12.0317 47.5 13.9121 47.5 16.2317C47.5 18.5513 52.4249 20.4317 58.5 20.4317Z" stroke="#61DAFB"/>
<path d="M54.8626 18.3317C57.9002 23.593 61.9911 26.9178 63.9999 25.758C66.0087 24.5982 65.1748 19.393 62.1372 14.1317C59.0996 8.87053 55.0087 5.54567 52.9999 6.70547C50.9911 7.86527 51.825 13.0705 54.8626 18.3317Z" stroke="#61DAFB"/>
<path d="M54.8626 14.1317C51.825 19.3929 50.9911 24.5982 52.9999 25.758C55.0087 26.9178 59.0996 23.5929 62.1372 18.3317C65.1748 13.0705 66.0087 7.86522 63.9999 6.70542C61.9911 5.54562 57.9002 8.87048 54.8626 14.1317Z" stroke="#61DAFB"/>
<path d="M21 16C21 14.9392 20.5786 13.9217 19.8284 13.1716C19.0783 12.4215 18.0609 12 17 12C15.9391 12 14.9217 12.4215 14.1716 13.1716C13.4214 13.9217 13 14.9392 13 16C13 18.1218 13.8429 20.1566 15.3431 21.6569C16.8434 23.1572 18.8783 24 21 24C23.1217 24 25.1566 23.1572 26.6569 21.6569C28.1571 20.1566 29 18.1218 29 16C29.0019 14.3114 28.6464 12.6415 27.957 11.1C27.2676 9.55854 26.2599 8.18036 25 7.05603" stroke="#2D3748" stroke-width="2" stroke-linecap="round" stroke-linejoin="round"/>
<path d="M17 16C17 17.0609 17.4214 18.0783 18.1716 18.8284C18.9217 19.5786 19.9391 20 21 20C22.0609 20 23.0783 19.5786 23.8284 18.8284C24.5786 18.0783 25 17.0609 25 16C25 13.8783 24.1571 11.8434 22.6569 10.3431C21.1566 8.84285 19.1217 8 17 8C14.8783 8 12.8434 8.84285 11.3431 10.3431C9.84285 11.8434 9 13.8783 9 16C9 19.584 10.571 22.801 13.063 25" stroke="#F56565" stroke-width="2" stroke-linecap="round" stroke-linejoin="round"/>
<circle cx="39" cy="16" r="2" fill="#DDD"/>
</svg>
