<svg width="78" height="32" fill="none" xmlns="http://www.w3.org/2000/svg">
  <rect width="78" height="32" rx="5" fill="#fff"/>
  <path d="M21 16a4 4 0 1 0-8 0 8 8 0 0 0 16 0 12 12 0 0 0-4-9" stroke="#2D3748" stroke-width="2" stroke-linecap="round" stroke-linejoin="round"/>
  <path d="M17 16a4 4 0 1 0 8 0 8 8 0 0 0-16 0 12 12 0 0 0 4 9" stroke="#F56565" stroke-width="2" stroke-linecap="round" stroke-linejoin="round"/>
  <circle cx="39" cy="16" r="2" fill="#DDD"/>
  <path d="M67.7 7.2A7.3 7.3 0 0 0 58 5l-5.6 3.5a6.4 6.4 0 0 0-2.9 4.3c-.3 1.5 0 3 .7 4.4a6.4 6.4 0 0 0-1 5c.3 1 .6 1.8 1.2 2.5A7.3 7.3 0 0 0 60 27l5.6-3.6a6.4 6.4 0 0 0 2.9-4.3c.3-1.5 0-3-.7-4.3a6.5 6.5 0 0 0 1-5.1c-.3-1-.6-1.8-1.2-2.5" fill="#FF3E00"/>
  <path d="M57.4 25.2a4.4 4.4 0 0 1-5.5-3.3 4.1 4.1 0 0 1 .1-2.1l.1-.4.3.2c.7.5 1.4.9 2.2 1.1l.2.1v.2c0 .3 0 .6.2.8a1.3 1.3 0 0 0 1.5.6l.3-.2 5.6-3.5a1.2 1.2 0 0 0 .5-1.3l-.2-.5a1.3 1.3 0 0 0-1.4-.5c-.2 0-.3 0-.4.2l-2.1 1.3-1.2.5a4.4 4.4 0 0 1-5.4-3.2 4.1 4.1 0 0 1 .6-3.1c.3-.5.7-.9 1.1-1.2l5.6-3.5a4 4 0 0 1 1.1-.5 4.4 4.4 0 0 1 5.5 3.2 4.1 4.1 0 0 1-.1 2.2l-.1.3-.3-.2c-.7-.5-1.4-.9-2.2-1.1h-.2V11c0-.3 0-.6-.2-.8a1.3 1.3 0 0 0-1.8-.4l-5.6 3.6a1.2 1.2 0 0 0-.5 1.3l.2.4a1.3 1.3 0 0 0 1.4.5l.4-.1 2.1-1.4a4 4 0 0 1 1.2-.5 4.4 4.4 0 0 1 5.4 3.3c.1.5.1 1 0 1.6a3.9 3.9 0 0 1-1.7 2.6l-5.6 3.6-1.1.5Z" fill="#fff"/>
</svg>
