<svg width="78" height="32" fill="none" xmlns="http://www.w3.org/2000/svg">
  <rect width="78" height="32" rx="5" fill="#fff"/>
  <path d="M21 16a4 4 0 1 0-8 0 8 8 0 0 0 16 0 11.97 11.97 0 0 0-4-8.94" stroke="#2D3748" stroke-width="2" stroke-linecap="round" stroke-linejoin="round"/>
  <path d="M17 16a4 4 0 1 0 8 0 8 8 0 0 0-16 0c0 3.58 1.57 6.8 4.06 9" stroke="#F56565" stroke-width="2" stroke-linecap="round" stroke-linejoin="round"/>
  <circle cx="39" cy="16" r="2" fill="#DDD"/>
  <path d="M47.68 16h22.64v8A3.26 3.26 0 0 1 67 27.32H51A3.26 3.26 0 0 1 47.68 24v-8Z" fill="#000"/>
  <path d="M60.27 8.87a1.8 1.8 0 1 0-2.54 0v3.66l-2.59-2.59a1.8 1.8 0 1 0-1.8 1.8l2.59 2.59h-3.66a1.8 1.8 0 1 0 0 2.54h3.66l-2.58 2.58a1.8 1.8 0 1 0 1.8 1.8l2.58-2.58v3.65a1.8 1.8 0 1 0 2.54 0v-3.65l2.58 2.58a1.8 1.8 0 1 0 1.8-1.8l-2.58-2.58h3.65a1.8 1.8 0 1 0 0-2.54h-3.65l2.59-2.59a1.8 1.8 0 1 0-1.8-1.8l-2.59 2.59V8.87Z" fill="#FFB13B"/>
  <path fill-rule="evenodd" clip-rule="evenodd" d="M57.73 8.87a1.8 1.8 0 1 1 2.54 0v3.66l2.59-2.59a1.8 1.8 0 1 1 1.8 1.8l-2.59 2.59h3.65a1.8 1.8 0 1 1 0 2.54h-3.65l2.58 2.58a1.8 1.8 0 1 1-1.8 1.8l-2.58-2.58v3.65a1.8 1.8 0 1 1-2.54 0v-3.65l-2.58 2.58a1.8 1.8 0 1 1-1.8-1.8l2.58-2.58h-3.66a1.8 1.8 0 1 1 0-2.54h3.66l-2.59-2.59a1.8 1.8 0 1 1 1.8-1.8l2.59 2.59V8.87ZM55.69 7.6A3.31 3.31 0 0 0 51 12.3a3.31 3.31 0 0 0 0 6.62 3.31 3.31 0 0 0 4.69 4.69 3.31 3.31 0 0 0 6.62 0A3.31 3.31 0 0 0 67 18.9a3.31 3.31 0 0 0 0-6.62A3.31 3.31 0 0 0 62.3 7.6a3.31 3.31 0 0 0-6.62 0Z" fill="#000"/>
  <path opacity=".8" d="M47.68 16h22.64v8A3.26 3.26 0 0 1 67 27.32H51A3.26 3.26 0 0 1 47.68 24v-8Z" fill="#000"/>
  <path d="M51.08 21.65a2.93 2.93 0 0 1 2.08-5.01c1.6 0 2.93 1.31 2.93 2.94h-1.73a1.22 1.22 0 1 0-2.08.85c.22.23.42.29.86.37a3.3 3.3 0 0 1 2.08.85 2.93 2.93 0 1 1-4.15 4.15 2.93 2.93 0 0 1-.85-2.07h1.74a1.22 1.22 0 1 0 2.08-.87c-.24-.22-.54-.28-.88-.35-.78-.13-1.54-.32-2.08-.86Zm10.88-5.01-2.08 10.02h-1.73l-2.08-10.02h1.73l1.22 5.87 1.21-5.87h1.73Zm2.93 4.16h2.91v2.93a2.93 2.93 0 1 1-5.86 0v-4.16a2.93 2.93 0 1 1 5.86 0h-1.7a1.22 1.22 0 0 0-2.43 0v4.16a1.22 1.22 0 0 0 2.43 0V22.5H64.9V20.8Z" fill="#fff"/>
</svg>
