<svg xmlns="http://www.w3.org/2000/svg" fill="none" viewBox="12 8 180 48">
  <rect width="180" height="48" fill="#fff" rx="5" x="12" y="8"/>
  <path fill="#0069FF" d="M73.81 33.54a9.36 9.36 0 0 0-5.29-1.45H64v13.9h4.52c2.08 0 3.86-.51 5.3-1.54.78-.53 1.4-1.3 1.82-2.22.42-.94.65-2.04.65-3.28a7.9 7.9 0 0 0-.65-3.25 5.11 5.11 0 0 0-1.83-2.16Zm-7.17.91h1.44c1.58 0 2.9.31 3.88.89 1.09.64 1.66 1.86 1.66 3.61 0 1.82-.57 3.09-1.66 3.78-.94.6-2.25.9-3.86.9h-1.46v-9.18ZM79.45 31.94c-.45 0-.82.15-1.11.43a1.45 1.45 0 0 0 0 2.13c.3.29.66.46 1.1.46.45 0 .83-.15 1.12-.46.3-.29.47-.67.47-1.08 0-.43-.15-.78-.47-1.05-.3-.28-.69-.43-1.11-.43ZM80.69 36.22h-2.55v9.8h2.55v-9.8ZM89.95 37.04a3.87 3.87 0 0 0-2.54-1.06c-1.41 0-2.57.48-3.49 1.4-.91.9-1.36 2.1-1.36 3.5s.45 2.57 1.36 3.52c.92.91 2.08 1.39 3.49 1.39.99 0 1.83-.26 2.52-.79v.22c0 .8-.22 1.43-.67 1.89-.44.43-1.06.64-1.83.64-1.18 0-1.9-.45-2.81-1.62l-1.73 1.6.04.07c.38.5.94 1 1.71 1.48s1.7.72 2.84.72c1.51 0 2.75-.45 3.64-1.34a4.73 4.73 0 0 0 1.36-3.56v-8.88h-2.5v.82h-.03Zm-.66 5.78c-.45.48-1.02.72-1.76.72s-1.3-.24-1.73-.72a2.71 2.71 0 0 1-.67-1.9c0-.8.23-1.47.67-1.95a2.26 2.26 0 0 1 1.73-.74c.74 0 1.31.24 1.76.74.44.48.66 1.15.66 1.94s-.24 1.44-.66 1.91ZM97.17 36.22h-2.54v9.8h2.54v-9.8ZM95.94 31.94c-.45 0-.82.15-1.12.43a1.45 1.45 0 0 0 0 2.13c.3.29.67.46 1.12.46.44 0 .81-.15 1.1-.46.3-.29.48-.67.48-1.08 0-.43-.15-.78-.47-1.05-.3-.28-.7-.43-1.11-.43ZM102.76 33.57h-2.5v2.65H98.8v2.25h1.46v4.07c0 1.27.27 2.17.8 2.7.51.53 1.43.79 2.74.79.42 0 .84-.02 1.23-.05h.13v-2.25l-.87.05c-.62 0-1.01-.1-1.2-.31-.2-.21-.3-.65-.3-1.3v-3.7h2.37v-2.25h-2.38v-2.65h-.02ZM119.62 32.1h-2.55V46h2.55V32.1ZM145.35 42.51a6 6 0 0 1-1.28 1.15c-.35.22-.8.34-1.31.34-.75 0-1.36-.27-1.86-.82a3 3 0 0 1-.74-2.08 3 3 0 0 1 .72-2.05c.49-.55 1.08-.82 1.83-.82.81 0 1.68.5 2.42 1.34l1.68-1.55a5.05 5.05 0 0 0-4.18-2.04 5.03 5.03 0 0 0-5.1 5.12c0 1.46.5 2.68 1.5 3.66.98.98 2.2 1.46 3.6 1.46 1.86 0 3.34-.76 4.33-2.18l-1.61-1.53ZM155.8 37.59a4.1 4.1 0 0 0-1.45-1.18 4.9 4.9 0 0 0-2.1-.43c-1.44 0-2.6.5-3.46 1.51a5.55 5.55 0 0 0-1.29 3.68 5 5 0 0 0 1.41 3.66 4.98 4.98 0 0 0 3.68 1.41c1.7 0 3.14-.66 4.18-2l.05-.08-1.66-1.55c-.15.2-.37.38-.56.57a2.8 2.8 0 0 1-2.03.79c-.72 0-1.29-.19-1.73-.6a2.1 2.1 0 0 1-.72-1.48h6.75l.02-.9c0-.65-.1-1.25-.27-1.83a5.08 5.08 0 0 0-.81-1.57Zm-5.56 2.3c.13-.49.35-.87.67-1.18.35-.33.8-.5 1.34-.5.62 0 1.08.17 1.4.5.3.31.47.7.53 1.15h-3.94v.02ZM165.6 36.94a4.77 4.77 0 0 0-3.17-.96c-.84 0-1.63.2-2.35.53-.67.33-1.3.86-1.73 1.58l.03.02 1.63 1.5c.67-1.02 1.4-1.38 2.4-1.38.54 0 .96.15 1.3.4.35.27.5.63.5 1.06v.48a6.53 6.53 0 0 0-1.88-.29c-1.26 0-2.3.29-3.06.86a2.9 2.9 0 0 0-1.17 2.44c0 .91.33 1.68 1 2.23.66.52 1.48.81 2.44.81.97 0 1.88-.38 2.7-1.03v.82h2.5v-6.3a3.22 3.22 0 0 0-1.15-2.77Zm-4.53 5.33c.3-.19.7-.28 1.21-.28.62 0 1.26.12 1.93.36v.95c-.54.5-1.28.74-2.2.74-.44 0-.79-.1-1.01-.28a.89.89 0 0 1-.35-.72c0-.34.15-.57.42-.77ZM176.57 37.13a3.87 3.87 0 0 0-2.97-1.15c-1.01 0-1.82.3-2.44.84v-.6h-2.5v9.8h2.55V40.6c0-.74.17-1.34.54-1.75.37-.43.84-.62 1.5-.62.58 0 1.02.2 1.34.55.32.38.5.89.5 1.53v5.67h2.54v-5.64c0-1.37-.34-2.44-1.06-3.2ZM113.88 36.94a4.77 4.77 0 0 0-3.16-.96c-.84 0-1.63.2-2.35.53-.67.33-1.31.86-1.73 1.58l.03.02 1.63 1.5c.66-1.02 1.4-1.38 2.4-1.38.54 0 .96.15 1.3.4.35.27.5.63.5 1.06v.48a6.53 6.53 0 0 0-1.88-.29c-1.26 0-2.3.29-3.06.86a2.9 2.9 0 0 0-1.17 2.44c0 .91.32 1.68 1 2.23.66.52 1.47.81 2.44.81.96 0 1.88-.38 2.7-1.03v.82h2.49v-6.3a3.35 3.35 0 0 0-1.14-2.77Zm-4.52 5.33c.3-.19.7-.28 1.21-.28.62 0 1.26.12 1.93.36v.95c-.55.5-1.29.74-2.2.74-.45 0-.8-.1-1.02-.28a.89.89 0 0 1-.34-.72c0-.34.12-.57.42-.77ZM128.86 46.22a7.3 7.3 0 0 1-7.41-7.17 7.29 7.29 0 0 1 7.41-7.18c4.1 0 7.42 3.2 7.42 7.18a7.3 7.3 0 0 1-7.42 7.17Zm0-11.81a4.72 4.72 0 0 0-4.8 4.64 4.72 4.72 0 0 0 4.8 4.64c2.65 0 4.8-2.09 4.8-4.64a4.72 4.72 0 0 0-4.8-4.64ZM64 26v-8.24h2.78c.65 0 1.18.11 1.59.35.41.23.72.54.92.94.2.39.3.83.3 1.32 0 .48-.1.92-.3 1.32-.2.4-.5.71-.91.95-.41.23-.94.35-1.58.35h-2v-.89h1.97c.44 0 .8-.07 1.06-.22.27-.16.47-.36.59-.62.12-.27.18-.56.18-.9 0-.32-.06-.62-.18-.88a1.32 1.32 0 0 0-.6-.61 2.22 2.22 0 0 0-1.07-.23H65V26h-1Zm9.5.13a2.7 2.7 0 0 1-1.46-.4 2.7 2.7 0 0 1-.98-1.11 3.77 3.77 0 0 1-.35-1.68c0-.64.11-1.2.35-1.68.23-.48.56-.86.98-1.12.42-.27.9-.4 1.47-.4.56 0 1.04.13 1.46.4.42.26.75.64.98 1.12.24.48.36 1.04.36 1.68 0 .64-.12 1.2-.36 1.68-.23.47-.56.84-.98 1.11-.42.27-.9.4-1.46.4Zm0-.85c.43 0 .78-.11 1.05-.33.28-.22.48-.5.61-.86a3.31 3.31 0 0 0 0-2.3 1.95 1.95 0 0 0-.6-.87 1.62 1.62 0 0 0-1.05-.33c-.43 0-.78.11-1.05.33-.27.22-.47.51-.6.87-.14.35-.2.74-.2 1.15 0 .41.06.8.2 1.15.13.36.33.64.6.86.27.22.62.33 1.05.33Zm5.45.72-1.89-6.18h1l1.34 4.73h.06l1.32-4.73h1.02l1.3 4.72h.07l1.33-4.72h1L83.62 26h-.94l-1.35-4.75h-.1L79.88 26h-.93Zm10.19.13a2.65 2.65 0 0 1-2.54-1.5 3.79 3.79 0 0 1-.34-1.67c0-.64.11-1.2.34-1.68a2.62 2.62 0 0 1 2.44-1.55c.32 0 .64.06.95.17a2.36 2.36 0 0 1 1.48 1.47c.15.4.23.88.23 1.46v.4h-4.77v-.82h3.8c0-.35-.07-.66-.2-.93a1.58 1.58 0 0 0-1.49-.89c-.38 0-.7.1-.98.28-.28.19-.49.43-.63.73-.15.3-.22.61-.22.96v.54c0 .47.08.86.24 1.19.16.32.39.57.68.74a2 2 0 0 0 1 .25c.26 0 .48-.04.68-.1.2-.08.38-.19.53-.33.15-.15.26-.33.34-.54l.92.26c-.1.3-.26.58-.49.82-.23.23-.5.41-.84.55-.34.12-.71.19-1.13.19Zm4-.13v-6.18h.92v.93h.06c.12-.3.32-.55.61-.74.3-.2.63-.29 1-.29a10.49 10.49 0 0 1 .5.02v.96a2.8 2.8 0 0 0-.58-.06c-.3 0-.57.06-.8.19-.24.12-.42.3-.56.51-.13.22-.2.47-.2.75V26h-.95Zm6.62.13a2.65 2.65 0 0 1-2.54-1.5 3.79 3.79 0 0 1-.34-1.67c0-.64.12-1.2.35-1.68a2.62 2.62 0 0 1 2.44-1.55c.32 0 .64.06.95.17a2.37 2.37 0 0 1 1.47 1.47c.15.4.23.88.23 1.46v.4h-4.76v-.82h3.8c0-.35-.08-.66-.21-.93a1.58 1.58 0 0 0-1.49-.89c-.37 0-.7.1-.98.28-.27.19-.48.43-.63.73-.15.3-.22.61-.22.96v.54c0 .47.08.86.24 1.19.16.32.4.57.68.74a2 2 0 0 0 1.01.25c.25 0 .48-.04.68-.1.2-.08.38-.19.53-.33.14-.15.26-.33.34-.54l.91.26c-.1.3-.25.58-.48.82-.23.23-.51.41-.85.55-.33.12-.71.19-1.13.19Zm6.34 0a2.42 2.42 0 0 1-2.29-1.5 4.01 4.01 0 0 1-.33-1.7c0-.65.1-1.22.33-1.7a2.45 2.45 0 0 1 2.3-1.5c.4 0 .73.08.96.2.24.14.42.3.54.46l.3.41h.07v-3.04h.95V26h-.92v-.95h-.1l-.3.43c-.13.17-.32.32-.56.45-.23.13-.55.2-.95.2Zm.13-.85c.38 0 .7-.1.96-.3.27-.2.47-.48.6-.84.14-.35.2-.76.2-1.23 0-.46-.06-.87-.2-1.21a1.58 1.58 0 0 0-1.57-1.1c-.4 0-.73.1-1 .3-.26.2-.46.48-.6.83-.13.35-.2.74-.2 1.18 0 .44.07.84.2 1.2.14.36.34.64.61.85.27.21.6.32 1 .32Zm7.89.72v-8.24h.95v3.04h.08l.29-.41c.13-.17.3-.32.54-.45.23-.13.55-.2.96-.2a2.45 2.45 0 0 1 2.3 1.5c.23.47.34 1.04.34 1.69 0 .65-.11 1.22-.34 1.7a2.42 2.42 0 0 1-2.29 1.5c-.4 0-.71-.07-.95-.2a1.78 1.78 0 0 1-.55-.45 6.13 6.13 0 0 1-.3-.43h-.11V26h-.92Zm.93-3.1c0 .48.07.89.2 1.24.15.36.35.64.6.84.27.2.6.3.97.3.4 0 .73-.1 1-.32.27-.21.47-.5.6-.85.14-.36.2-.76.2-1.2 0-.44-.06-.83-.2-1.18a1.8 1.8 0 0 0-.6-.83c-.26-.2-.6-.3-1-.3a1.58 1.58 0 0 0-1.56 1.1c-.14.34-.2.75-.2 1.2Zm6.37 5.42a2.08 2.08 0 0 1-.7-.11l.25-.84c.23.06.43.08.61.06.18-.01.34-.1.47-.23.14-.14.27-.37.38-.68l.18-.49-2.28-6.21h1.03l1.7 4.92h.07l1.7-4.92h1.03l-2.62 7.08c-.12.32-.27.59-.44.8-.17.2-.38.36-.6.47-.23.1-.5.15-.78.15Z"/>
  <path fill="#0069FF" fill-rule="evenodd" d="M39.1 48v-6.2c6.61 0 11.7-6.5 9.17-13.42a9.22 9.22 0 0 0-5.54-5.5A9.9 9.9 0 0 0 29.23 32H23a16.12 16.12 0 0 1 21.18-15.21A15.58 15.58 0 0 1 54.35 26.9 16.06 16.06 0 0 1 39.1 48Z" clip-rule="evenodd"/>
  <path fill="#0069FF" fill-rule="evenodd" d="M39.1 41.84h-6.2v-6.16h6.2v6.16ZM32.9 46.6h-4.78v-4.76h4.78v4.75Z" clip-rule="evenodd"/>
  <path fill="#0069FF" fill-rule="evenodd" d="M28.13 41.84H24.1V37.9h3.98v3.95h.04Z" clip-rule="evenodd"/>
</svg>
