<svg viewBox="0 -2 120 26" fill="none" xmlns="http://www.w3.org/2000/svg" class="package-lucide-logo">
  <path
    d="M74.2 17.17C73.4081 17.1897 72.6251 16.9999 71.93 16.62C71.302 16.2576 70.7943 15.7186 70.47 15.07C70.1179 14.3272 69.9466 13.5117 69.97 12.69C69.97 11.79 70.13 11 70.47 10.32C70.8 9.64858 71.3176 9.08722 71.9601 8.70386C72.6026 8.32051 73.3424 8.1316 74.09 8.16C74.63 8.16 75.14 8.25 75.62 8.42C76.1 8.59 76.52 8.86 76.89 9.22C77.26 9.58 77.55 10.03 77.76 10.59C77.98 11.14 78.08 11.8 78.08 12.57V13.2H70.93V11.8H76.11C76.11 11.4 76.02 11.06 75.86 10.75C75.69 10.45 75.46 10.2 75.16 10.02C74.86 9.84 74.52 9.75 74.12 9.75C73.732 9.74115 73.3498 9.84539 73.02 10.05C72.7 10.25 72.45 10.52 72.27 10.85C72.1 11.18 72.01 11.54 72 11.93V13.13C72 13.65 72.1 14.08 72.28 14.44C72.47 14.8 72.73 15.08 73.06 15.27C73.39 15.47 73.78 15.56 74.23 15.56C74.53 15.56 74.8 15.52 75.04 15.43C75.29 15.35 75.5 15.22 75.67 15.05C75.85 14.89 75.99 14.68 76.07 14.43L78 14.65C77.8833 15.1455 77.6424 15.6032 77.3 15.98C76.97 16.35 76.54 16.65 76 16.85C75.48 17.05 74.88 17.16 74.2 17.16V17.17Z"
    fill="currentColor" />
  <path
    d="M63.5 17.15C62.8309 17.1645 62.1733 16.9752 61.6143 16.6073C61.0553 16.2394 60.6213 15.7102 60.37 15.09C60.0367 14.3208 59.8763 13.4879 59.9 12.65C59.9 11.68 60.06 10.86 60.38 10.19C60.5513 9.78493 60.8009 9.41767 61.1145 9.10931C61.428 8.80095 61.7994 8.55755 62.2073 8.3931C62.6152 8.22864 63.0516 8.14636 63.4913 8.15098C63.9311 8.15559 64.3656 8.24702 64.77 8.42C65.1 8.59 65.36 8.8 65.55 9.04C65.75 9.28 65.89 9.5 66 9.72H66.08V5.36H68.15V17H66.12V15.62H66C65.9 15.84 65.74 16.06 65.54 16.3C65.2864 16.5868 64.9711 16.8123 64.6177 16.9595C64.2644 17.1068 63.8822 17.1719 63.5 17.15ZM64.07 15.47C64.51 15.47 64.87 15.35 65.19 15.11C65.49 14.88 65.73 14.54 65.89 14.11C66.04 13.7 66.12 13.21 66.12 12.64C66.12 12.07 66.04 11.58 65.88 11.16C65.7484 10.7769 65.5087 10.44 65.19 10.19C64.865 9.95506 64.4708 9.8354 64.07 9.85C63.61 9.85 63.23 9.97 62.92 10.2C62.62 10.44 62.39 10.77 62.23 11.2C62.08 11.61 62 12.1 62 12.64C62 13.18 62.08 13.67 62.23 14.1C62.39 14.52 62.63 14.86 62.93 15.1C63.24 15.34 63.63 15.47 64.07 15.47Z"
    fill="currentColor" />
  <path
    d="M56.09 17V8.27H58.14V17H56.1H56.09ZM57.12 7.03C56.8 7.03 56.52 6.93 56.28 6.71C56.1684 6.6111 56.0795 6.48938 56.0191 6.35307C55.9587 6.21677 55.9283 6.06907 55.93 5.92C55.93 5.61 56.05 5.35 56.28 5.13C56.52 4.91 56.8 4.8 57.12 4.8C57.45 4.8 57.73 4.91 57.96 5.13C58.2 5.35 58.32 5.61 58.32 5.92C58.32 6.22 58.2 6.49 57.96 6.71C57.73 6.93 57.46 7.03 57.12 7.03Z"
    fill="currentColor" />
  <path
    d="M50.66 17.17C49.9015 17.2156 49.1466 17.0346 48.4913 16.65C47.836 16.2653 47.3099 15.6945 46.98 15.01C46.6351 14.279 46.464 13.4781 46.48 12.67C46.48 11.78 46.65 11 46.99 10.32C47.33 9.64 47.81 9.12 48.43 8.73C49.102 8.33587 49.8712 8.13837 50.65 8.16C51.35 8.16 51.98 8.29 52.53 8.56C53.0617 8.80313 53.5168 9.18684 53.8464 9.66971C54.1759 10.1526 54.3674 10.7163 54.4 11.3H52.43C52.364 10.895 52.1673 10.5228 51.87 10.24C51.57 9.96 51.17 9.82 50.67 9.82C50.26 9.82 49.89 9.93 49.57 10.16C49.25 10.38 49 10.7 48.83 11.12C48.65 11.55 48.56 12.05 48.56 12.64C48.56 13.24 48.66 13.74 48.83 14.17C49 14.59 49.24 14.92 49.56 15.15C49.88 15.38 50.25 15.49 50.68 15.49C50.98 15.49 51.25 15.44 51.49 15.32C51.73 15.21 51.94 15.04 52.09 14.82C52.26 14.6 52.37 14.33 52.43 14.02H54.4C54.3725 14.6024 54.1878 15.1664 53.8656 15.6524C53.5434 16.1383 53.0957 16.5279 52.57 16.78C51.9746 17.053 51.3248 17.1864 50.67 17.17H50.66Z"
    fill="currentColor" />
  <path
    d="M42.68 13.33V8.27H44.74V17H42.74V15.45H42.65C42.45 15.94 42.13 16.34 41.68 16.65C41.23 16.95 40.68 17.11 40.03 17.11C39.5054 17.1412 38.9835 17.0151 38.531 16.7479C38.0785 16.4806 37.716 16.0844 37.49 15.61C37.2299 15.0535 37.1033 14.444 37.12 13.83V8.27H39.18V13.51C39.18 14.06 39.33 14.51 39.63 14.83C39.93 15.16 40.33 15.32 40.83 15.32C41.1442 15.3154 41.4523 15.2325 41.7265 15.0789C42.0006 14.9252 42.2321 14.7056 42.4 14.44C42.59 14.14 42.68 13.77 42.68 13.33Z"
    fill="currentColor" />
  <path d="M28.15 17V5.36H30.25V15.23H35.38V17H28.15Z" fill="currentColor" />
  <path
    d="M14 11C14 9.93913 13.5786 8.92172 12.8284 8.17157C12.0783 7.42142 11.0609 7 10 7C8.93913 7 7.92172 7.42142 7.17157 8.17157C6.42143 8.92172 6 9.93913 6 11C6 13.1217 6.84285 15.1566 8.34315 16.6569C9.84344 18.1571 11.8783 19 14 19C16.1217 19 18.1566 18.1571 19.6569 16.6569C21.1571 15.1566 22 13.1217 22 11C22 7.45 20.45 4.25 18 2.06"
    stroke="currentColor" stroke-width="2" stroke-linecap="round" stroke-linejoin="round" />
  <path
    d="M10 11C10 12.0609 10.4214 13.0783 11.1716 13.8284C11.9217 14.5786 12.9391 15 14 15C15.0609 15 16.0783 14.5786 16.8284 13.8284C17.5786 13.0783 18 12.0609 18 11C18 8.87827 17.1571 6.84344 15.6569 5.34315C14.1566 3.84285 12.1217 3 10 3C7.87827 3 5.84344 3.84285 4.34315 5.34315C2.84285 6.84344 2 8.87827 2 11C2 14.58 3.57 17.8 6.06 20"
    stroke="#F56565" stroke-width="2" stroke-linecap="round" stroke-linejoin="round" />
  <path
    d="M88 13C89.1046 13 90 12.1046 90 11C90 9.89543 89.1046 9 88 9C86.8954 9 86 9.89543 86 11C86 12.1046 86.8954 13 88 13Z"
    fill="#737374" />
  <g clip-path="url(#clip0_2_7)">
    <path
      d="M105.193 18.0349C104.283 17.2089 104.018 15.4736 104.397 14.2163C105.054 15.009 105.965 15.2601 106.908 15.4018C108.365 15.6205 109.795 15.5387 111.148 14.8777C111.303 14.8021 111.446 14.7014 111.615 14.5995C111.742 14.9652 111.775 15.3344 111.73 15.7102C111.623 16.6254 111.164 17.3323 110.434 17.8682C110.143 18.0825 109.834 18.2742 109.533 18.4762C108.607 19.0974 108.357 19.8258 108.705 20.8852C108.713 20.9112 108.72 20.937 108.739 21C108.266 20.7899 107.921 20.4841 107.658 20.0821C107.38 19.6578 107.248 19.1884 107.241 18.6805C107.238 18.4334 107.238 18.184 107.204 17.9404C107.123 17.3463 106.842 17.0803 106.313 17.065C105.77 17.0493 105.34 17.3826 105.226 17.9076C105.218 17.9478 105.205 17.9876 105.192 18.0344L105.193 18.0349Z"
      fill="currentColor" />
    <path
      d="M105.193 18.0349C104.283 17.2089 104.018 15.4736 104.397 14.2163C105.054 15.009 105.965 15.2601 106.908 15.4018C108.365 15.6205 109.795 15.5387 111.148 14.8777C111.303 14.8021 111.446 14.7014 111.615 14.5995C111.742 14.9652 111.775 15.3344 111.73 15.7102C111.623 16.6254 111.164 17.3323 110.434 17.8682C110.143 18.0825 109.834 18.2742 109.533 18.4762C108.607 19.0974 108.357 19.8258 108.705 20.8852C108.713 20.9112 108.72 20.937 108.739 21C108.266 20.7899 107.921 20.4841 107.658 20.0821C107.38 19.6578 107.248 19.1884 107.241 18.6805C107.238 18.4334 107.238 18.184 107.204 17.9404C107.123 17.3463 106.842 17.0803 106.313 17.065C105.77 17.0493 105.34 17.3826 105.226 17.9076C105.218 17.9478 105.205 17.9876 105.192 18.0344L105.193 18.0349Z"
      fill="url(#paint0_linear_2_7)" />
    <path
      d="M100 14.0068C100 14.0068 102.694 12.7035 105.396 12.7035L107.433 6.44306C107.51 6.14032 107.732 5.93456 107.984 5.93456C108.235 5.93456 108.458 6.14032 108.534 6.44306L110.571 12.7035C113.771 12.7035 115.968 14.0068 115.968 14.0068C115.968 14.0068 111.391 1.6266 111.382 1.60176C111.251 1.23574 111.029 1 110.73 1H105.238C104.939 1 104.726 1.23574 104.586 1.60176C104.576 1.62614 100 14.0068 100 14.0068Z"
      fill="currentColor" />
  </g>
  <defs>
    <linearGradient id="paint0_linear_2_7" x1="104.23" y1="21" x2="112.993" y2="16.8303" gradientUnits="userSpaceOnUse">
      <stop stop-color="#D83333" />
      <stop offset="1" stop-color="#F041FF" />
    </linearGradient>
    <clipPath id="clip0_2_7">
      <rect width="16" height="20" fill="currentColor" transform="translate(100 1)" />
    </clipPath>
  </defs>
</svg>
