<svg xmlns="http://www.w3.org/2000/svg" fill="none" viewBox="0 0 119 26" class="package-logo">
  <g clip-path="url(#a)">
    <path fill="currentColor"
      d="M74.2 19.17a4.5 4.5 0 0 1-2.27-.55 3.7 3.7 0 0 1-1.46-1.55 5.21 5.21 0 0 1-.5-2.38c0-.9.16-1.69.5-2.37a3.87 3.87 0 0 1 3.62-2.16c.54 0 1.05.09 1.53.26s.9.44 1.27.8c.37.36.66.81.87 1.37.22.55.32 1.21.32 1.98v.63h-7.15V13.8h5.18c0-.4-.09-.74-.25-1.05-.17-.3-.4-.55-.7-.73-.3-.18-.64-.27-1.04-.27a2 2 0 0 0-1.1.3c-.32.2-.57.47-.75.8-.17.33-.26.69-.27 1.08v1.2c0 .52.1.95.28 1.31.19.36.45.64.78.83.33.2.72.29 1.17.29.3 0 .57-.04.81-.13.25-.08.46-.21.63-.38.18-.16.32-.37.4-.62l1.93.22a3 3 0 0 1-.7 1.33c-.33.37-.76.67-1.3.87-.52.2-1.12.31-1.8.31Z" />
    <path fill="currentColor"
      d="M63.5 19.15a3.3 3.3 0 0 1-3.13-2.06 5.73 5.73 0 0 1-.47-2.44c0-.97.16-1.79.48-2.46a3.34 3.34 0 0 1 4.39-1.77c.33.17.59.38.78.62.2.24.34.46.45.68h.08V7.36h2.07V19h-2.03v-1.38H66c-.1.22-.26.44-.46.68a2.53 2.53 0 0 1-2.04.85Zm.57-1.68c.44 0 .8-.12 1.12-.36.3-.23.54-.57.7-1 .15-.41.23-.9.23-1.47s-.08-1.06-.24-1.48a2.1 2.1 0 0 0-.69-.97 1.8 1.8 0 0 0-1.12-.34c-.46 0-.84.12-1.15.35-.3.24-.53.57-.69 1-.15.41-.23.9-.23 1.44 0 .54.08 1.03.23 1.46.16.42.4.76.7 1 .31.24.7.37 1.14.37Z" />
    <path fill="currentColor"
      d="M56.09 19v-8.73h2.05V19H56.1Zm1.03-9.97c-.32 0-.6-.1-.84-.32a1.04 1.04 0 0 1-.35-.79c0-.31.12-.57.35-.79.24-.22.52-.33.84-.33.33 0 .61.11.84.33.24.22.36.48.36.79 0 .3-.12.57-.36.79-.23.22-.5.32-.84.32Z" />
    <path fill="currentColor"
      d="M50.66 19.17a3.83 3.83 0 0 1-3.68-2.16 5.24 5.24 0 0 1-.5-2.34c0-.89.17-1.67.51-2.35.34-.68.82-1.2 1.44-1.59a4.16 4.16 0 0 1 2.22-.57c.7 0 1.33.13 1.88.4a3.21 3.21 0 0 1 1.87 2.74h-1.97a1.88 1.88 0 0 0-.56-1.06c-.3-.28-.7-.42-1.2-.42-.41 0-.78.11-1.1.34-.32.22-.57.54-.74.96-.18.43-.27.93-.27 1.52 0 .6.1 1.1.27 1.53.17.42.41.75.73.98.32.23.69.34 1.12.34.3 0 .57-.05.81-.17.24-.11.45-.28.6-.5.17-.22.28-.49.34-.8h1.97a3.23 3.23 0 0 1-1.83 2.76 4.3 4.3 0 0 1-1.9.39Z" />
    <path fill="currentColor"
      d="M42.68 15.33v-5.06h2.06V19h-2v-1.55h-.09c-.2.49-.52.89-.97 1.2-.45.3-1 .46-1.65.46a2.64 2.64 0 0 1-2.54-1.5 3.95 3.95 0 0 1-.37-1.78v-5.56h2.06v5.24c0 .55.15 1 .45 1.32.3.33.7.49 1.2.49a1.89 1.89 0 0 0 1.57-.88c.19-.3.28-.67.28-1.11Z" />
    <path fill="currentColor" d="M28.15 19V7.36h2.1v9.87h5.13V19h-7.23Z" />
    <path stroke="#fff" stroke-linecap="round" stroke-linejoin="round" stroke-width="2"
      d="M14 13a4 4 0 1 0-8 0 8 8 0 0 0 16 0c0-3.55-1.55-6.75-4-8.94" />
    <path stroke="#F56565" stroke-linecap="round" stroke-linejoin="round" stroke-width="2"
      d="M10 13a4 4 0 0 0 8 0 8 8 0 1 0-16 0c0 3.58 1.57 6.8 4.06 9" />
  </g>
  <path fill="#54C1DE"
    d="m112.75 6.34-.63-.2.1-.42c.47-2.3.17-4.14-.89-4.75-1.01-.58-2.67.02-4.34 1.48l-.48.44-.32-.3c-1.75-1.55-3.51-2.2-4.56-1.6-1.02.6-1.31 2.33-.89 4.5l.14.65c-.25.07-.49.15-.71.23-2.06.71-3.37 1.84-3.37 3 0 1.2 1.4 2.4 3.55 3.14l.52.16c-.06.23-.1.46-.15.7-.4 2.13-.09 3.83.92 4.41 1.04.6 2.79-.02 4.5-1.5l.4-.38c.17.17.34.33.52.48 1.65 1.42 3.28 2 4.28 1.41 1.05-.6 1.38-2.42.94-4.64l-.11-.52.36-.11c2.22-.75 3.67-1.94 3.67-3.16 0-1.17-1.35-2.3-3.45-3.02Zm-5.21-3.27c1.43-1.25 2.77-1.73 3.37-1.38.65.37.9 1.88.5 3.86a12 12 0 0 1-.09.39c-.85-.2-1.72-.33-2.59-.41-.5-.72-1.05-1.4-1.64-2.05l.45-.4Zm-5.01 7.29c.36.68.74 1.35 1.16 2-.6-.07-1.2-.17-1.79-.3.18-.57.4-1.14.63-1.7Zm0-1.95c-.23-.55-.44-1.11-.62-1.68.56-.13 1.15-.23 1.76-.3-.41.64-.8 1.3-1.14 1.98Zm.44.97c.51-1.06 1.1-2.09 1.77-3.06 1.17-.1 2.35-.1 3.53 0 .66.97 1.25 2 1.77 3.05a26.12 26.12 0 0 1-1.76 3.07c-1.18.09-2.36.09-3.53.01-.67-.98-1.26-2-1.78-3.07Zm6.95 1.97c.2-.33.39-.68.57-1.02.25.55.46 1.12.65 1.7-.6.14-1.2.24-1.81.31l.6-.99Zm.56-2.94a29.97 29.97 0 0 0-1.15-1.98c.62.08 1.21.18 1.77.3-.18.58-.38 1.13-.62 1.68Zm-3.97-4.33c.4.43.78.9 1.14 1.37-.76-.03-1.53-.03-2.3 0 .37-.47.76-.93 1.16-1.37Zm-4.47-2.37c.65-.37 2.08.16 3.6 1.5l.29.27c-.6.64-1.15 1.33-1.65 2.05-.87.08-1.74.21-2.6.4l-.13-.6c-.36-1.86-.12-3.27.5-3.62Zm-.94 10.16-.48-.15a7.1 7.1 0 0 1-2.27-1.2c-.47-.42-.72-.83-.72-1.16 0-.7 1.05-1.61 2.8-2.22.23-.08.45-.15.68-.2.26.83.57 1.65.94 2.44-.37.8-.69 1.64-.95 2.49Zm4.49 3.77a6.9 6.9 0 0 1-2.17 1.36c-.6.21-1.08.22-1.36.05-.62-.35-.87-1.71-.53-3.54l.15-.64c.86.18 1.73.3 2.61.37.51.72 1.07 1.41 1.67 2.06l-.37.34Zm.94-.93c-.4-.45-.8-.92-1.17-1.4.77.03 1.54.03 2.31 0-.35.48-.73.95-1.14 1.4Zm5.03 1.15c-.11.63-.34 1.04-.63 1.2-.61.36-1.92-.1-3.33-1.31a9.83 9.83 0 0 1-.49-.45c.6-.65 1.13-1.34 1.63-2.07.88-.07 1.76-.2 2.62-.4a6.93 6.93 0 0 1 .2 3.03Zm.7-4.14-.32.1c-.27-.84-.6-1.66-.98-2.45.37-.79.69-1.6.95-2.43l.57.19c1.8.62 2.9 1.53 2.9 2.23 0 .75-1.2 1.73-3.11 2.36Z" />
  <path fill="#54C1DE" d="M106.5 11.1a1.73 1.73 0 1 0 0-3.47 1.73 1.73 0 0 0 0 3.47Z" />
  <path fill="#54C1DE" d="M100.25 19.75v4.62h-.71l-2.56-3.13v3.14h-.86v-4.63h.71l2.56 3.13v-3.13h.86Z" />
  <path fill="#54C1DE"
    d="M104.38 22.25v2.08h-.8v-.43c-.2.3-.58.48-1.12.48-.82 0-1.33-.46-1.33-1.07 0-.6.4-1.05 1.48-1.05h.92v-.05c0-.49-.3-.77-.89-.77-.39 0-.77.12-1.08.35l-.33-.6c.45-.3.98-.46 1.52-.44 1.03 0 1.63.48 1.63 1.5Zm-.84.97v-.41h-.87c-.56 0-.72.21-.72.47 0 .3.26.49.7.49a.91.91 0 0 0 .89-.55Z" />
  <path fill="#54C1DE"
    d="M107.5 24.15c-.24.16-.52.24-.8.22-.79 0-1.24-.4-1.24-1.2v-1.7h-.58v-.66h.58V20h.84v.81h.95v.66h-.95v1.69c0 .34.17.53.5.53.16 0 .32-.05.45-.14l.25.6Z" />
  <path fill="#54C1DE"
    d="M108 19.75a.5.5 0 0 1 .17-.36.53.53 0 0 1 .4-.14c.14 0 .28.04.38.13a.48.48 0 0 1 .17.35c0 .14-.06.26-.17.36a.58.58 0 0 1-.77.01.52.52 0 0 1-.18-.35Zm.12 1.08h.88v3.55h-.88v-3.55Z" />
  <path fill="#54C1DE" d="m113.38 20.88-1.52 3.5h-.85l-1.51-3.5h.86l1.1 2.59 1.13-2.6h.78Z" />
  <path fill="#54C1DE"
    d="M117 22.82h-2.69c.1.52.51.85 1.1.85a1.2 1.2 0 0 0 .93-.38l.43.5a1.73 1.73 0 0 1-1.38.58c-1.14 0-1.89-.76-1.89-1.81a1.8 1.8 0 0 1 .5-1.3 1.67 1.67 0 0 1 1.26-.51c1 0 1.73.72 1.73 1.82v.25Zm-2.7-.54h1.95a.97.97 0 0 0-.32-.63.92.92 0 0 0-.65-.23.93.93 0 0 0-.65.23.99.99 0 0 0-.32.63Z" />
  <circle cx="88" cy="13" r="2" fill="#737374" />
  <defs>
    <clipPath id="a">
      <path fill="currentColor" d="M0 2h82v22H0z" />
    </clipPath>
  </defs>
</svg>