<svg xmlns="http://www.w3.org/2000/svg" fill="none" viewBox="0 -1 120 26" class="package-lucide-logo">
  <path fill="currentColor"
    d="M74.2 18.17a4.5 4.5 0 0 1-2.27-.55 3.7 3.7 0 0 1-1.46-1.55 5.21 5.21 0 0 1-.5-2.38c0-.9.16-1.69.5-2.37a3.87 3.87 0 0 1 3.62-2.16c.54 0 1.05.09 1.53.26s.9.44 1.27.8c.37.36.66.81.87 1.37.22.55.32 1.21.32 1.98v.63h-7.15V12.8h5.18c0-.4-.09-.74-.25-1.05-.17-.3-.4-.55-.7-.73-.3-.18-.64-.27-1.04-.27a2 2 0 0 0-1.1.3c-.32.2-.57.47-.75.8-.17.33-.26.69-.27 1.08v1.2c0 .52.1.95.28 1.31.19.36.45.64.78.83.33.2.72.29 1.17.29.3 0 .57-.04.81-.13.25-.08.46-.21.63-.38.18-.16.32-.37.4-.62l1.93.22a3 3 0 0 1-.7 1.33c-.33.37-.76.67-1.3.87-.52.2-1.12.31-1.8.31Z" />
  <path fill="currentColor"
    d="M63.5 18.15a3.3 3.3 0 0 1-3.13-2.06 5.73 5.73 0 0 1-.47-2.44c0-.97.16-1.79.48-2.46a3.34 3.34 0 0 1 4.39-1.77c.33.17.59.38.78.62.2.24.34.46.45.68h.08V6.36h2.07V18h-2.03v-1.38H66c-.1.22-.26.44-.46.68a2.53 2.53 0 0 1-2.04.85Zm.57-1.68c.44 0 .8-.12 1.12-.36.3-.23.54-.57.7-1 .15-.41.23-.9.23-1.47s-.08-1.06-.24-1.48a2.1 2.1 0 0 0-.69-.97 1.8 1.8 0 0 0-1.12-.34c-.46 0-.84.12-1.15.35-.3.24-.53.57-.69 1-.15.41-.23.9-.23 1.44 0 .54.08 1.03.23 1.46.16.42.4.76.7 1 .31.24.7.37 1.14.37Z" />
  <path fill="currentColor"
    d="M56.09 18V9.27h2.05V18H56.1Zm1.03-9.97c-.32 0-.6-.1-.84-.32a1.04 1.04 0 0 1-.35-.79c0-.31.12-.57.35-.79.24-.22.52-.33.84-.33.33 0 .61.11.84.33.24.22.36.48.36.79 0 .3-.12.57-.36.79-.23.22-.5.32-.84.32Z" />
  <path fill="currentColor"
    d="M50.66 18.17a3.83 3.83 0 0 1-3.68-2.16 5.24 5.24 0 0 1-.5-2.34c0-.89.17-1.67.51-2.35.34-.68.82-1.2 1.44-1.59a4.16 4.16 0 0 1 2.22-.57c.7 0 1.33.13 1.88.4a3.21 3.21 0 0 1 1.87 2.74h-1.97a1.88 1.88 0 0 0-.56-1.06c-.3-.28-.7-.42-1.2-.42-.41 0-.78.11-1.1.34-.32.22-.57.54-.74.96-.18.43-.27.93-.27 1.52 0 .6.1 1.1.27 1.53.17.42.41.75.73.98.32.23.69.34 1.12.34.3 0 .57-.05.81-.17.24-.11.45-.28.6-.5.17-.22.28-.49.34-.8h1.97a3.23 3.23 0 0 1-1.83 2.76 4.3 4.3 0 0 1-1.9.39Z" />
  <path fill="currentColor"
    d="M42.68 14.33V9.27h2.06V18h-2v-1.55h-.09c-.2.49-.52.89-.97 1.2-.45.3-1 .46-1.65.46a2.64 2.64 0 0 1-2.54-1.5 3.95 3.95 0 0 1-.37-1.78V9.27h2.06v5.24c0 .55.15 1 .45 1.32.3.33.7.49 1.2.49a1.89 1.89 0 0 0 1.57-.88c.19-.3.28-.67.28-1.11Z" />
  <path fill="currentColor" d="M28.15 18V6.36h2.1v9.87h5.13V18h-7.23Z" />
  <path stroke="currentColor" stroke-linecap="round" stroke-linejoin="round" stroke-width="2"
    d="M14 12a4 4 0 0 0-8 0 8 8 0 0 0 16 0c0-3.55-1.55-6.75-4-8.94" />
  <path stroke="#F56565" stroke-linecap="round" stroke-linejoin="round" stroke-width="2"
    d="M10 12a4 4 0 0 0 8 0 8 8 0 1 0-16 0c0 3.58 1.57 6.8 4.06 9" />
  <circle cx="88" cy="12" r="2" fill="#737374" />
  <path fill="#FF3E00"
    d="M116.72 3.18a7.34 7.34 0 0 0-9.82-2.11l-5.6 3.57a6.42 6.42 0 0 0-2.9 4.29 6.77 6.77 0 0 0 .67 4.34c-.48.73-.81 1.54-.96 2.4a6.84 6.84 0 0 0 1.17 5.18 7.34 7.34 0 0 0 9.82 2.1l5.6-3.54a6.44 6.44 0 0 0 2.9-4.3c.27-1.48.03-3-.67-4.34a6.45 6.45 0 0 0 .9-5.1 6.84 6.84 0 0 0-1.1-2.47" />
  <path fill="#fff"
    d="M106.35 21.16a4.45 4.45 0 0 1-5.44-3.26 4.1 4.1 0 0 1 .1-2.14l.1-.33.3.22c.65.48 1.4.85 2.17 1.09l.22.06-.02.21c-.02.3.06.59.23.83a1.34 1.34 0 0 0 1.78.38l5.6-3.57a1.16 1.16 0 0 0 .5-1.27 1.35 1.35 0 0 0-1.64-.98c-.11.03-.23.09-.34.15l-2.14 1.37c-.35.22-.74.39-1.14.5a4.45 4.45 0 0 1-5.42-3.26 4.12 4.12 0 0 1-.04-1.63 3.86 3.86 0 0 1 1.75-2.58l5.6-3.57c.35-.22.73-.4 1.13-.5a4.45 4.45 0 0 1 5.44 3.26 4.1 4.1 0 0 1-.1 2.14l-.1.33-.3-.22a7.24 7.24 0 0 0-2.18-1.1l-.22-.06.02-.21c.03-.3-.05-.59-.22-.83a1.33 1.33 0 0 0-1.78-.37l-5.6 3.56a1.17 1.17 0 0 0-.5 1.27 1.34 1.34 0 0 0 1.97.83l2.14-1.36a4 4 0 0 1 1.14-.5 4.44 4.44 0 0 1 5.43 3.25 3.87 3.87 0 0 1-1.7 4.22l-5.6 3.57c-.35.22-.74.39-1.14.5Z" />
</svg>
