<svg xmlns="http://www.w3.org/2000/svg" fill="none" viewBox="0 0 120 26" class="package-lucide-logo">
  <path fill="currentColor"
    d="M74.2 18.17a4.5 4.5 0 0 1-2.27-.55 3.7 3.7 0 0 1-1.46-1.55 5.21 5.21 0 0 1-.5-2.38c0-.9.16-1.69.5-2.37a3.87 3.87 0 0 1 3.62-2.16c.54 0 1.05.09 1.53.26s.9.44 1.27.8c.37.36.66.81.87 1.37.22.55.32 1.21.32 1.98v.63h-7.15V12.8h5.18c0-.4-.09-.74-.25-1.05-.17-.3-.4-.55-.7-.73-.3-.18-.64-.27-1.04-.27a2 2 0 0 0-1.1.3c-.32.2-.57.47-.75.8-.17.33-.26.69-.27 1.08v1.2c0 .52.1.95.28 1.31.19.36.45.64.78.83.33.2.72.29 1.17.29.3 0 .57-.04.81-.13.25-.08.46-.21.63-.38.18-.16.32-.37.4-.62l1.93.22a3 3 0 0 1-.7 1.33c-.33.37-.76.67-1.3.87-.52.2-1.12.31-1.8.31Z" />
  <path fill="currentColor"
    d="M63.5 18.15a3.3 3.3 0 0 1-3.13-2.06 5.73 5.73 0 0 1-.47-2.44c0-.97.16-1.79.48-2.46a3.34 3.34 0 0 1 4.39-1.77c.33.17.59.38.78.62.2.24.34.46.45.68h.08V6.36h2.07V18h-2.03v-1.38H66c-.1.22-.26.44-.46.68a2.53 2.53 0 0 1-2.04.85Zm.57-1.68c.44 0 .8-.12 1.12-.36.3-.23.54-.57.7-1 .15-.41.23-.9.23-1.47s-.08-1.06-.24-1.48a2.1 2.1 0 0 0-.69-.97 1.8 1.8 0 0 0-1.12-.34c-.46 0-.84.12-1.15.35-.3.24-.53.57-.69 1-.15.41-.23.9-.23 1.44 0 .54.08 1.03.23 1.46.16.42.4.76.7 1 .31.24.7.37 1.14.37Z" />
  <path fill="currentColor"
    d="M56.09 18V9.27h2.05V18H56.1Zm1.03-9.97c-.32 0-.6-.1-.84-.32a1.04 1.04 0 0 1-.35-.79c0-.31.12-.57.35-.79.24-.22.52-.33.84-.33.33 0 .61.11.84.33.24.22.36.48.36.79 0 .3-.12.57-.36.79-.23.22-.5.32-.84.32Z" />
  <path fill="currentColor"
    d="M50.66 18.17a3.83 3.83 0 0 1-3.68-2.16 5.24 5.24 0 0 1-.5-2.34c0-.89.17-1.67.51-2.35.34-.68.82-1.2 1.44-1.59a4.16 4.16 0 0 1 2.22-.57c.7 0 1.33.13 1.88.4a3.21 3.21 0 0 1 1.87 2.74h-1.97a1.88 1.88 0 0 0-.56-1.06c-.3-.28-.7-.42-1.2-.42-.41 0-.78.11-1.1.34-.32.22-.57.54-.74.96-.18.43-.27.93-.27 1.52 0 .6.1 1.1.27 1.53.17.42.41.75.73.98.32.23.69.34 1.12.34.3 0 .57-.05.81-.17.24-.11.45-.28.6-.5.17-.22.28-.49.34-.8h1.97a3.23 3.23 0 0 1-1.83 2.76 4.3 4.3 0 0 1-1.9.39Z" />
  <path fill="currentColor"
    d="M42.68 14.33V9.27h2.06V18h-2v-1.55h-.09c-.2.49-.52.89-.97 1.2-.45.3-1 .46-1.65.46a2.64 2.64 0 0 1-2.54-1.5 3.95 3.95 0 0 1-.37-1.78V9.27h2.06v5.24c0 .55.15 1 .45 1.32.3.33.7.49 1.2.49a1.89 1.89 0 0 0 1.57-.88c.19-.3.28-.67.28-1.11Z" />
  <path fill="currentColor" d="M28.15 18V6.36h2.1v9.87h5.13V18h-7.23Z" />
  <path stroke="#fff" stroke-linecap="round" stroke-linejoin="round" stroke-width="2"
    d="M14 12a4 4 0 0 0-8 0 8 8 0 0 0 16 0c0-3.55-1.55-6.75-4-8.94" />
  <path stroke="#F56565" stroke-linecap="round" stroke-linejoin="round" stroke-width="2"
    d="M10 12a4 4 0 0 0 8 0 8 8 0 1 0-16 0c0 3.58 1.57 6.8 4.06 9" />
  <circle cx="88" cy="12" r="2" fill="#737374" />
  <path fill="#000" d="M96.68 12h22.64v8a3.26 3.26 0 0 1-3.32 3.32h-16A3.26 3.26 0 0 1 96.68 20v-8Z" />
  <path fill="#FFB13B"
    d="M109.27 4.87a1.8 1.8 0 1 0-2.54 0v3.66l-2.59-2.59A1.78 1.78 0 0 0 102 4.2a1.8 1.8 0 0 0 .34 3.55l2.59 2.59h-3.66a1.79 1.79 0 1 0 0 2.54h3.66l-2.58 2.58a1.8 1.8 0 1 0 1.8 1.8l2.58-2.58v3.65a1.8 1.8 0 1 0 2.54 0v-3.65l2.58 2.58A1.8 1.8 0 0 0 114 19a1.79 1.79 0 0 0-.35-3.55l-2.58-2.58h3.65a1.8 1.8 0 1 0 0-2.54h-3.65l2.59-2.59a1.8 1.8 0 1 0-1.8-1.8l-2.59 2.59V4.87Z" />
  <path fill="#000" fill-rule="evenodd"
    d="M106.73 4.87a1.8 1.8 0 1 1 2.54 0v3.66l2.59-2.59A1.78 1.78 0 0 1 114 4.2a1.8 1.8 0 0 1-.34 3.55l-2.59 2.59h3.65a1.79 1.79 0 1 1 0 2.54h-3.65l2.58 2.58a1.79 1.79 0 1 1-1.8 1.8l-2.58-2.58v3.65a1.8 1.8 0 1 1-2.54 0v-3.65l-2.58 2.58A1.8 1.8 0 0 1 102 19a1.79 1.79 0 0 1 .35-3.55l2.58-2.58h-3.66a1.79 1.79 0 1 1 0-2.54h3.66l-2.59-2.59a1.8 1.8 0 1 1 1.8-1.8l2.59 2.59V4.87Zm-2.04-1.27A3.32 3.32 0 0 0 100 8.3a3.31 3.31 0 0 0 0 6.62 3.31 3.31 0 0 0 4.69 4.69 3.3 3.3 0 0 0 3.31 3.3 3.31 3.31 0 0 0 3.31-3.3A3.31 3.31 0 0 0 116 14.9a3.32 3.32 0 0 0 0-6.62 3.3 3.3 0 0 0 0-4.68 3.31 3.31 0 0 0-4.69 0 3.3 3.3 0 0 0-5.15-2.76 3.31 3.31 0 0 0-1.47 2.75Z"
    clip-rule="evenodd" />
  <path fill="#000" d="M96.68 12h22.64v8a3.26 3.26 0 0 1-3.32 3.32h-16A3.26 3.26 0 0 1 96.68 20v-8Z" opacity=".8" />
  <path fill="currentColor"
    d="M100.08 17.65a2.93 2.93 0 0 1 2.08-5.01c1.6 0 2.93 1.31 2.93 2.94h-1.73a1.22 1.22 0 0 0-1.09-1.21 1.21 1.21 0 0 0-.99 2.06c.22.23.42.29.86.37a3.3 3.3 0 0 1 2.08.85 2.93 2.93 0 1 1-5 2.08h1.74a1.21 1.21 0 0 0 1.68 1.11 1.22 1.22 0 0 0 .7-1.47c-.06-.19-.16-.36-.3-.5-.24-.23-.54-.3-.88-.36-.78-.13-1.54-.32-2.08-.86Zm10.88-5.01-2.08 10.02h-1.73l-2.08-10.02h1.73l1.22 5.87 1.21-5.87h1.73Zm2.93 4.16h2.91v2.93a2.93 2.93 0 0 1-5.86 0v-4.16a2.92 2.92 0 1 1 5.86 0h-1.7a1.22 1.22 0 1 0-2.43 0v4.16a1.22 1.22 0 1 0 2.43 0V18.5h-1.21V16.8Z" />
</svg>
