<svg width="480" height="368" viewBox="0 0 480 368" fill="none" class="a11y-example">
  <rect width="480" height="184" rx="8" style="fill: var(--vp-code-block-bg)"/>
  <rect x="174.5" y="32" width="131" height="56" rx="28" fill="#712CF8"/>
  <path d="M218.5 54L207.5 65L202.5 60" stroke="white" stroke-width="2" stroke-linecap="round" stroke-linejoin="round"/>
  <path d="M244.708 56.0909C244.623 55.3712 244.277 54.8125 243.671 54.4148C243.065 54.017 242.322 53.8182 241.441 53.8182C240.797 53.8182 240.234 53.9223 239.751 54.1307C239.272 54.339 238.898 54.6255 238.629 54.9901C238.363 55.3546 238.231 55.7689 238.231 56.233C238.231 56.6212 238.323 56.955 238.508 57.2344C238.697 57.509 238.939 57.7386 239.232 57.9233C239.526 58.1032 239.834 58.2524 240.156 58.3707C240.478 58.4844 240.773 58.5767 241.043 58.6477L242.521 59.0455C242.899 59.1449 243.321 59.2822 243.785 59.4574C244.254 59.6326 244.701 59.8717 245.127 60.1747C245.558 60.473 245.913 60.8565 246.192 61.3253C246.472 61.794 246.612 62.3693 246.612 63.0511C246.612 63.8371 246.406 64.5473 245.994 65.1818C245.586 65.8163 244.99 66.3205 244.204 66.6946C243.423 67.0687 242.473 67.2557 241.356 67.2557C240.314 67.2557 239.412 67.0876 238.65 66.7514C237.892 66.4152 237.296 65.9465 236.86 65.3452C236.429 64.7438 236.185 64.0455 236.129 63.25H237.947C237.994 63.7992 238.179 64.2538 238.501 64.6136C238.827 64.9687 239.239 65.2339 239.737 65.4091C240.238 65.5795 240.778 65.6648 241.356 65.6648C242.028 65.6648 242.632 65.5559 243.167 65.3381C243.702 65.1155 244.126 64.8078 244.438 64.4148C244.751 64.017 244.907 63.553 244.907 63.0227C244.907 62.5398 244.772 62.1468 244.502 61.8438C244.232 61.5407 243.877 61.2945 243.437 61.1051C242.996 60.9157 242.521 60.75 242.009 60.608L240.219 60.0966C239.083 59.7699 238.183 59.3035 237.521 58.6974C236.858 58.0914 236.526 57.2983 236.526 56.3182C236.526 55.5038 236.746 54.7936 237.187 54.1875C237.632 53.5767 238.228 53.1032 238.977 52.767C239.729 52.4261 240.57 52.2557 241.498 52.2557C242.435 52.2557 243.269 52.4238 243.998 52.7599C244.727 53.0914 245.305 53.5459 245.731 54.1236C246.162 54.7012 246.389 55.357 246.413 56.0909H244.708ZM252.49 67.2557C251.799 67.2557 251.172 67.1255 250.608 66.8651C250.045 66.5999 249.597 66.2188 249.266 65.7216C248.935 65.2197 248.769 64.6136 248.769 63.9034C248.769 63.2784 248.892 62.7718 249.138 62.3835C249.384 61.9905 249.713 61.6828 250.125 61.4602C250.537 61.2377 250.992 61.072 251.489 60.9631C251.991 60.8494 252.495 60.7595 253.002 60.6932C253.665 60.608 254.202 60.544 254.614 60.5014C255.031 60.4541 255.334 60.3759 255.523 60.267C255.717 60.1581 255.814 59.9687 255.814 59.6989V59.642C255.814 58.9413 255.623 58.3968 255.239 58.0085C254.86 57.6203 254.285 57.4261 253.513 57.4261C252.713 57.4261 252.086 57.6013 251.631 57.9517C251.176 58.3021 250.857 58.6761 250.672 59.0739L249.081 58.5057C249.365 57.8428 249.744 57.3267 250.218 56.9574C250.696 56.5833 251.217 56.3229 251.78 56.1761C252.348 56.0246 252.907 55.9489 253.456 55.9489C253.807 55.9489 254.209 55.9915 254.664 56.0767C255.123 56.1572 255.566 56.3253 255.992 56.581C256.423 56.8366 256.78 57.2225 257.064 57.7386C257.348 58.2547 257.49 58.946 257.49 59.8125V67H255.814V65.5227H255.729C255.615 65.7595 255.426 66.0128 255.161 66.2827C254.896 66.5526 254.543 66.7822 254.103 66.9716C253.662 67.161 253.125 67.2557 252.49 67.2557ZM252.746 65.75C253.409 65.75 253.968 65.6198 254.422 65.3594C254.882 65.099 255.227 64.7628 255.459 64.3509C255.696 63.9389 255.814 63.5057 255.814 63.0511V61.517C255.743 61.6023 255.587 61.6804 255.346 61.7514C255.109 61.8177 254.834 61.8769 254.522 61.929C254.214 61.9763 253.913 62.0189 253.62 62.0568C253.331 62.09 253.096 62.1184 252.917 62.142C252.481 62.1989 252.074 62.2912 251.695 62.419C251.321 62.5421 251.018 62.7292 250.786 62.9801C250.559 63.2263 250.445 63.5625 250.445 63.9886C250.445 64.571 250.66 65.0114 251.091 65.3097C251.527 65.6032 252.078 65.75 252.746 65.75ZM269.08 56.0909L265.045 67H263.341L259.307 56.0909H261.125L264.136 64.7841H264.25L267.261 56.0909H269.08ZM275.475 67.2273C274.424 67.2273 273.517 66.9953 272.755 66.5312C271.997 66.0625 271.413 65.4091 271.001 64.571C270.594 63.7282 270.39 62.7481 270.39 61.6307C270.39 60.5133 270.594 59.5284 271.001 58.6761C271.413 57.8191 271.986 57.1515 272.719 56.6733C273.458 56.1903 274.32 55.9489 275.305 55.9489C275.873 55.9489 276.434 56.0436 276.988 56.233C277.542 56.4223 278.046 56.7301 278.501 57.1562C278.955 57.5777 279.317 58.1364 279.587 58.8324C279.857 59.5284 279.992 60.3854 279.992 61.4034V62.1136H271.583V60.6648H278.288C278.288 60.0492 278.165 59.5 277.918 59.017C277.677 58.5341 277.331 58.1529 276.881 57.8736C276.436 57.5942 275.911 57.4545 275.305 57.4545C274.637 57.4545 274.059 57.6203 273.572 57.9517C273.089 58.2784 272.717 58.7045 272.457 59.2301C272.196 59.7557 272.066 60.3191 272.066 60.9205V61.8864C272.066 62.7102 272.208 63.4086 272.492 63.9815C272.781 64.5497 273.181 64.983 273.692 65.2812C274.204 65.5748 274.798 65.7216 275.475 65.7216C275.915 65.7216 276.313 65.66 276.668 65.5369C277.028 65.4091 277.338 65.2197 277.599 64.9688C277.859 64.7131 278.06 64.3958 278.202 64.017L279.822 64.4716C279.651 65.0208 279.365 65.5038 278.962 65.9205C278.56 66.3324 278.063 66.6544 277.471 66.8864C276.879 67.1136 276.214 67.2273 275.475 67.2273Z" fill="white"/>
  <path d="M42 118L30 130" style="stroke: var(--vp-a11y-danger)" stroke-width="3" stroke-linecap="round" stroke-linejoin="round"/>
  <path d="M30 118L42 130" style="stroke: var(--vp-a11y-danger)" stroke-width="3" stroke-linecap="round" stroke-linejoin="round"/>
  <text x="57" y="130"  style="fill: var(--vp-a11y-danger)" font-size="18" font-weight="800">
    <tspan>Don't provide accessible labels to</tspan>
    <tspan x="56" y="155">decorative icons.</tspan>
  </text>
  <g filter="url(#filter0_b_1780_14037)">
    <rect x="196.5" y="16" width="121" height="29" fill="#0D1016" fill-opacity="0.5"/>
    <rect x="197" y="16.5" width="120" height="28" stroke="#00D7E4" stroke-dasharray="2 2"/>
    <path d="M207.347 29V28.233C207.347 28 207.388 27.7528 207.471 27.4915C207.556 27.2273 207.678 26.973 207.837 26.7287C207.999 26.4815 208.194 26.267 208.421 26.0852L208.966 26.5284C208.787 26.7841 208.631 27.0511 208.498 27.3295C208.367 27.6051 208.302 27.9006 208.302 28.2159V29H207.347ZM209.529 29V28.233C209.529 28 209.57 27.7528 209.653 27.4915C209.738 27.2273 209.86 26.973 210.019 26.7287C210.181 26.4815 210.376 26.267 210.603 26.0852L211.148 26.5284C210.969 26.7841 210.813 27.0511 210.68 27.3295C210.549 27.6051 210.483 27.9006 210.483 28.2159V29H209.529ZM219.417 29H218.361C218.298 28.696 218.189 28.429 218.032 28.1989C217.879 27.9688 217.692 27.7756 217.47 27.6193C217.251 27.4602 217.008 27.3409 216.741 27.2614C216.474 27.1818 216.196 27.142 215.906 27.142C215.378 27.142 214.899 27.2756 214.47 27.5426C214.044 27.8097 213.704 28.2031 213.452 28.723C213.202 29.2429 213.077 29.8807 213.077 30.6364C213.077 31.392 213.202 32.0298 213.452 32.5497C213.704 33.0696 214.044 33.4631 214.47 33.7301C214.899 33.9972 215.378 34.1307 215.906 34.1307C216.196 34.1307 216.474 34.0909 216.741 34.0114C217.008 33.9318 217.251 33.8139 217.47 33.6577C217.692 33.4986 217.879 33.304 218.032 33.0739C218.189 32.8409 218.298 32.5739 218.361 32.2727H219.417C219.338 32.7187 219.193 33.1179 218.983 33.4702C218.773 33.8224 218.511 34.1222 218.199 34.3693C217.886 34.6136 217.535 34.7997 217.146 34.9276C216.76 35.0554 216.346 35.1193 215.906 35.1193C215.162 35.1193 214.5 34.9375 213.92 34.5739C213.341 34.2102 212.885 33.6932 212.552 33.0227C212.22 32.3523 212.054 31.5568 212.054 30.6364C212.054 29.7159 212.22 28.9205 212.552 28.25C212.885 27.5795 213.341 27.0625 213.92 26.6989C214.5 26.3352 215.162 26.1534 215.906 26.1534C216.346 26.1534 216.76 26.2173 217.146 26.3452C217.535 26.473 217.886 26.6605 218.199 26.9077C218.511 27.152 218.773 27.4503 218.983 27.8026C219.193 28.152 219.338 28.5511 219.417 29ZM221.994 31.0625V35H220.989V26.2727H221.994V29.4773H222.08C222.233 29.1392 222.463 28.8707 222.77 28.6719C223.08 28.4702 223.492 28.3693 224.006 28.3693C224.452 28.3693 224.843 28.4588 225.178 28.6378C225.513 28.8139 225.773 29.0852 225.958 29.4517C226.145 29.8153 226.239 30.2784 226.239 30.8409V35H225.233V30.9091C225.233 30.3892 225.098 29.9872 224.828 29.7031C224.561 29.4162 224.191 29.2727 223.716 29.2727C223.387 29.2727 223.091 29.3423 222.83 29.4815C222.571 29.6207 222.367 29.8239 222.216 30.0909C222.068 30.358 221.994 30.6818 221.994 31.0625ZM230.823 35.1364C230.192 35.1364 229.648 34.9972 229.191 34.7188C228.736 34.4375 228.385 34.0455 228.138 33.5426C227.894 33.0369 227.772 32.4489 227.772 31.7784C227.772 31.108 227.894 30.517 228.138 30.0057C228.385 29.4915 228.729 29.0909 229.17 28.804C229.613 28.5142 230.13 28.3693 230.721 28.3693C231.062 28.3693 231.398 28.4261 231.731 28.5398C232.063 28.6534 232.366 28.8381 232.638 29.0938C232.911 29.3466 233.128 29.6818 233.29 30.0994C233.452 30.517 233.533 31.0312 233.533 31.642V32.0682H228.488V31.1989H232.51C232.51 30.8295 232.437 30.5 232.289 30.2102C232.144 29.9205 231.937 29.6918 231.667 29.5241C231.4 29.3565 231.084 29.2727 230.721 29.2727C230.32 29.2727 229.974 29.3722 229.681 29.571C229.391 29.767 229.168 30.0227 229.012 30.3381C228.856 30.6534 228.778 30.9915 228.778 31.3523V31.9318C228.778 32.4261 228.863 32.8452 229.033 33.1889C229.206 33.5298 229.447 33.7898 229.753 33.9688C230.06 34.1449 230.417 34.233 230.823 34.233C231.087 34.233 231.326 34.196 231.539 34.1222C231.755 34.0455 231.941 33.9318 232.097 33.7812C232.253 33.6278 232.374 33.4375 232.459 33.2102L233.431 33.483C233.329 33.8125 233.157 34.1023 232.915 34.3523C232.674 34.5994 232.376 34.7926 232.02 34.9318C231.665 35.0682 231.266 35.1364 230.823 35.1364ZM237.722 35.1364C237.108 35.1364 236.58 34.9915 236.137 34.7017C235.694 34.4119 235.353 34.0128 235.114 33.5043C234.876 32.9957 234.756 32.4148 234.756 31.7614C234.756 31.0966 234.878 30.5099 235.123 30.0014C235.37 29.4901 235.714 29.0909 236.154 28.804C236.597 28.5142 237.114 28.3693 237.705 28.3693C238.165 28.3693 238.58 28.4545 238.949 28.625C239.319 28.7955 239.621 29.0341 239.857 29.3409C240.093 29.6477 240.239 30.0057 240.296 30.4148H239.29C239.214 30.1165 239.043 29.8523 238.779 29.6222C238.518 29.3892 238.165 29.2727 237.722 29.2727C237.33 29.2727 236.986 29.375 236.691 29.5795C236.398 29.7812 236.17 30.0668 236.005 30.4361C235.843 30.8026 235.762 31.233 235.762 31.7273C235.762 32.233 235.841 32.6733 236.001 33.0483C236.162 33.4233 236.39 33.7145 236.682 33.9219C236.978 34.1293 237.324 34.233 237.722 34.233C237.983 34.233 238.221 34.1875 238.434 34.0966C238.647 34.0057 238.827 33.875 238.975 33.7045C239.123 33.5341 239.228 33.3295 239.29 33.0909H240.296C240.239 33.4773 240.099 33.8253 239.874 34.1349C239.653 34.4418 239.358 34.6861 238.992 34.8679C238.628 35.0469 238.205 35.1364 237.722 35.1364ZM242.704 32.6136L242.687 31.3693H242.891L245.755 28.4545H246.999L243.948 31.5398H243.863L242.704 32.6136ZM241.766 35V26.2727H242.772V35H241.766ZM245.925 35L243.368 31.7614L244.084 31.0625L247.204 35H245.925ZM248.294 35V28.4545H249.265V29.4773H249.35C249.487 29.1278 249.707 28.8565 250.011 28.6634C250.315 28.4673 250.68 28.3693 251.106 28.3693C251.538 28.3693 251.897 28.4673 252.184 28.6634C252.474 28.8565 252.7 29.1278 252.862 29.4773H252.93C253.097 29.1392 253.349 28.8707 253.684 28.6719C254.019 28.4702 254.421 28.3693 254.89 28.3693C255.475 28.3693 255.954 28.5526 256.326 28.919C256.698 29.2827 256.884 29.8494 256.884 30.6193V35H255.879V30.6193C255.879 30.1364 255.747 29.7912 255.482 29.5838C255.218 29.3764 254.907 29.2727 254.549 29.2727C254.089 29.2727 253.732 29.4119 253.48 29.6903C253.227 29.9659 253.1 30.3153 253.1 30.7386V35H252.078V30.517C252.078 30.1449 251.957 29.8452 251.715 29.6179C251.474 29.3878 251.163 29.2727 250.782 29.2727C250.521 29.2727 250.276 29.3423 250.049 29.4815C249.825 29.6207 249.643 29.8139 249.504 30.0611C249.367 30.3054 249.299 30.5881 249.299 30.9091V35H248.294ZM260.649 35.1534C260.235 35.1534 259.858 35.0753 259.52 34.919C259.182 34.7599 258.914 34.5312 258.715 34.233C258.516 33.9318 258.416 33.5682 258.416 33.142C258.416 32.767 258.49 32.4631 258.638 32.2301C258.786 31.9943 258.983 31.8097 259.23 31.6761C259.477 31.5426 259.75 31.4432 260.048 31.3778C260.35 31.3097 260.652 31.2557 260.956 31.2159C261.354 31.1648 261.676 31.1264 261.923 31.1009C262.173 31.0724 262.355 31.0256 262.469 30.9602C262.585 30.8949 262.644 30.7812 262.644 30.6193V30.5852C262.644 30.1648 262.529 29.8381 262.298 29.6051C262.071 29.3722 261.726 29.2557 261.263 29.2557C260.783 29.2557 260.406 29.3608 260.134 29.571C259.861 29.7812 259.669 30.0057 259.558 30.2443L258.604 29.9034C258.774 29.5057 259.002 29.196 259.286 28.9744C259.573 28.75 259.885 28.5937 260.223 28.5057C260.564 28.4148 260.899 28.3693 261.229 28.3693C261.439 28.3693 261.681 28.3949 261.953 28.446C262.229 28.4943 262.494 28.5952 262.75 28.7486C263.009 28.902 263.223 29.1335 263.394 29.4432C263.564 29.7528 263.649 30.1676 263.649 30.6875V35H262.644V34.1136H262.593C262.524 34.2557 262.411 34.4077 262.252 34.5696C262.093 34.7315 261.881 34.8693 261.617 34.983C261.352 35.0966 261.03 35.1534 260.649 35.1534ZM260.803 34.25C261.2 34.25 261.536 34.1719 261.808 34.0156C262.084 33.8594 262.291 33.6577 262.431 33.4105C262.573 33.1634 262.644 32.9034 262.644 32.6307V31.7102C262.601 31.7614 262.507 31.8082 262.362 31.8509C262.22 31.8906 262.056 31.9261 261.868 31.9574C261.683 31.9858 261.503 32.0114 261.327 32.0341C261.154 32.054 261.013 32.071 260.905 32.0852C260.644 32.1193 260.399 32.1747 260.172 32.2514C259.948 32.3253 259.766 32.4375 259.627 32.5881C259.49 32.7358 259.422 32.9375 259.422 33.1932C259.422 33.5426 259.551 33.8068 259.81 33.9858C260.071 34.1619 260.402 34.25 260.803 34.25ZM265.485 35V28.4545H266.456V29.4432H266.525C266.644 29.1193 266.86 28.8565 267.172 28.6548C267.485 28.4531 267.837 28.3523 268.229 28.3523C268.303 28.3523 268.395 28.3537 268.506 28.3565C268.617 28.3594 268.701 28.3636 268.758 28.3693V29.392C268.724 29.3835 268.645 29.3707 268.523 29.3537C268.404 29.3338 268.278 29.3239 268.144 29.3239C267.826 29.3239 267.542 29.3906 267.292 29.5241C267.045 29.6548 266.849 29.8366 266.704 30.0696C266.562 30.2997 266.491 30.5625 266.491 30.858V35H265.485ZM270.887 32.6136L270.87 31.3693H271.075L273.938 28.4545H275.183L272.132 31.5398H272.046L270.887 32.6136ZM269.95 35V26.2727H270.955V35H269.95ZM274.109 35L271.552 31.7614L272.268 31.0625L275.387 35H274.109ZM279.852 35V28.4545H280.858V35H279.852ZM280.363 27.3636C280.167 27.3636 279.998 27.2969 279.856 27.1634C279.717 27.0298 279.648 26.8693 279.648 26.6818C279.648 26.4943 279.717 26.3338 279.856 26.2003C279.998 26.0668 280.167 26 280.363 26C280.559 26 280.727 26.0668 280.866 26.2003C281.008 26.3338 281.079 26.4943 281.079 26.6818C281.079 26.8693 281.008 27.0298 280.866 27.1634C280.727 27.2969 280.559 27.3636 280.363 27.3636ZM285.359 35.1364C284.745 35.1364 284.217 34.9915 283.774 34.7017C283.33 34.4119 282.99 34.0128 282.751 33.5043C282.512 32.9957 282.393 32.4148 282.393 31.7614C282.393 31.0966 282.515 30.5099 282.759 30.0014C283.007 29.4901 283.35 29.0909 283.791 28.804C284.234 28.5142 284.751 28.3693 285.342 28.3693C285.802 28.3693 286.217 28.4545 286.586 28.625C286.955 28.7955 287.258 29.0341 287.494 29.3409C287.73 29.6477 287.876 30.0057 287.933 30.4148H286.927C286.85 30.1165 286.68 29.8523 286.416 29.6222C286.154 29.3892 285.802 29.2727 285.359 29.2727C284.967 29.2727 284.623 29.375 284.328 29.5795C284.035 29.7812 283.806 30.0668 283.642 30.4361C283.48 30.8026 283.399 31.233 283.399 31.7273C283.399 32.233 283.478 32.6733 283.637 33.0483C283.799 33.4233 284.026 33.7145 284.319 33.9219C284.615 34.1293 284.961 34.233 285.359 34.233C285.62 34.233 285.857 34.1875 286.07 34.0966C286.284 34.0057 286.464 33.875 286.612 33.7045C286.759 33.5341 286.865 33.3295 286.927 33.0909H287.933C287.876 33.4773 287.735 33.8253 287.511 34.1349C287.289 34.4418 286.995 34.6861 286.629 34.8679C286.265 35.0469 285.842 35.1364 285.359 35.1364ZM292.062 35.1364C291.471 35.1364 290.953 34.9957 290.507 34.7145C290.063 34.4332 289.717 34.0398 289.467 33.5341C289.22 33.0284 289.096 32.4375 289.096 31.7614C289.096 31.0795 289.22 30.4844 289.467 29.9759C289.717 29.4673 290.063 29.0724 290.507 28.7912C290.953 28.5099 291.471 28.3693 292.062 28.3693C292.653 28.3693 293.17 28.5099 293.613 28.7912C294.059 29.0724 294.406 29.4673 294.653 29.9759C294.903 30.4844 295.028 31.0795 295.028 31.7614C295.028 32.4375 294.903 33.0284 294.653 33.5341C294.406 34.0398 294.059 34.4332 293.613 34.7145C293.17 34.9957 292.653 35.1364 292.062 35.1364ZM292.062 34.233C292.511 34.233 292.88 34.1179 293.17 33.8878C293.46 33.6577 293.674 33.3551 293.813 32.9801C293.953 32.6051 294.022 32.1989 294.022 31.7614C294.022 31.3239 293.953 30.9162 293.813 30.5384C293.674 30.1605 293.46 29.8551 293.17 29.6222C292.88 29.3892 292.511 29.2727 292.062 29.2727C291.613 29.2727 291.244 29.3892 290.954 29.6222C290.664 29.8551 290.45 30.1605 290.311 30.5384C290.171 30.9162 290.102 31.3239 290.102 31.7614C290.102 32.1989 290.171 32.6051 290.311 32.9801C290.45 33.3551 290.664 33.6577 290.954 33.8878C291.244 34.1179 291.613 34.233 292.062 34.233ZM297.569 31.0625V35H296.563V28.4545H297.535V29.4773H297.62C297.773 29.1449 298.006 28.8778 298.319 28.6761C298.631 28.4716 299.035 28.3693 299.529 28.3693C299.972 28.3693 300.36 28.4602 300.692 28.642C301.025 28.821 301.283 29.0938 301.468 29.4602C301.653 29.8239 301.745 30.2841 301.745 30.8409V35H300.739V30.9091C300.739 30.3949 300.606 29.9943 300.339 29.7074C300.072 29.4176 299.705 29.2727 299.239 29.2727C298.918 29.2727 298.631 29.3423 298.378 29.4815C298.128 29.6207 297.931 29.8239 297.786 30.0909C297.641 30.358 297.569 30.6818 297.569 31.0625ZM304.469 26.2727V27.0398C304.469 27.2727 304.426 27.5213 304.341 27.7855C304.259 28.0469 304.137 28.3011 303.975 28.5483C303.816 28.7926 303.622 29.0057 303.395 29.1875L302.85 28.7443C303.029 28.4886 303.183 28.223 303.314 27.9474C303.448 27.669 303.514 27.3722 303.514 27.0568V26.2727H304.469ZM306.651 26.2727V27.0398C306.651 27.2727 306.608 27.5213 306.523 27.7855C306.441 28.0469 306.318 28.3011 306.156 28.5483C305.997 28.7926 305.804 29.0057 305.577 29.1875L305.031 28.7443C305.21 28.4886 305.365 28.223 305.496 27.9474C305.629 27.669 305.696 27.3722 305.696 27.0568V26.2727H306.651Z" fill="#00D7E4"/>
  </g>
  <rect x="197" y="45.5" width="27" height="27" stroke="#00D7E4"/>
  <rect y="208" width="480" height="160" rx="8" style="fill: var(--vp-code-block-bg)"/>
  <rect x="174.5" y="240" width="131" height="56" rx="28" fill="#712CF8"/>
  <path d="M218.5 262L207.5 273L202.5 268" stroke="white" stroke-width="2" stroke-linecap="round" stroke-linejoin="round"/>
  <path d="M244.708 264.091C244.623 263.371 244.277 262.812 243.671 262.415C243.065 262.017 242.322 261.818 241.441 261.818C240.797 261.818 240.234 261.922 239.751 262.131C239.272 262.339 238.898 262.625 238.629 262.99C238.363 263.355 238.231 263.769 238.231 264.233C238.231 264.621 238.323 264.955 238.508 265.234C238.697 265.509 238.939 265.739 239.232 265.923C239.526 266.103 239.834 266.252 240.156 266.371C240.478 266.484 240.773 266.577 241.043 266.648L242.521 267.045C242.899 267.145 243.321 267.282 243.785 267.457C244.254 267.633 244.701 267.872 245.127 268.175C245.558 268.473 245.913 268.857 246.192 269.325C246.472 269.794 246.612 270.369 246.612 271.051C246.612 271.837 246.406 272.547 245.994 273.182C245.586 273.816 244.99 274.321 244.204 274.695C243.423 275.069 242.473 275.256 241.356 275.256C240.314 275.256 239.412 275.088 238.65 274.751C237.892 274.415 237.296 273.946 236.86 273.345C236.429 272.744 236.185 272.045 236.129 271.25H237.947C237.994 271.799 238.179 272.254 238.501 272.614C238.827 272.969 239.239 273.234 239.737 273.409C240.238 273.58 240.778 273.665 241.356 273.665C242.028 273.665 242.632 273.556 243.167 273.338C243.702 273.116 244.126 272.808 244.438 272.415C244.751 272.017 244.907 271.553 244.907 271.023C244.907 270.54 244.772 270.147 244.502 269.844C244.232 269.541 243.877 269.295 243.437 269.105C242.996 268.916 242.521 268.75 242.009 268.608L240.219 268.097C239.083 267.77 238.183 267.304 237.521 266.697C236.858 266.091 236.526 265.298 236.526 264.318C236.526 263.504 236.746 262.794 237.187 262.188C237.632 261.577 238.228 261.103 238.977 260.767C239.729 260.426 240.57 260.256 241.498 260.256C242.435 260.256 243.269 260.424 243.998 260.76C244.727 261.091 245.305 261.546 245.731 262.124C246.162 262.701 246.389 263.357 246.413 264.091H244.708ZM252.49 275.256C251.799 275.256 251.172 275.125 250.608 274.865C250.045 274.6 249.597 274.219 249.266 273.722C248.935 273.22 248.769 272.614 248.769 271.903C248.769 271.278 248.892 270.772 249.138 270.384C249.384 269.991 249.713 269.683 250.125 269.46C250.537 269.238 250.992 269.072 251.489 268.963C251.991 268.849 252.495 268.759 253.002 268.693C253.665 268.608 254.202 268.544 254.614 268.501C255.031 268.454 255.334 268.376 255.523 268.267C255.717 268.158 255.814 267.969 255.814 267.699V267.642C255.814 266.941 255.623 266.397 255.239 266.009C254.86 265.62 254.285 265.426 253.513 265.426C252.713 265.426 252.086 265.601 251.631 265.952C251.176 266.302 250.857 266.676 250.672 267.074L249.081 266.506C249.365 265.843 249.744 265.327 250.218 264.957C250.696 264.583 251.217 264.323 251.78 264.176C252.348 264.025 252.907 263.949 253.456 263.949C253.807 263.949 254.209 263.991 254.664 264.077C255.123 264.157 255.566 264.325 255.992 264.581C256.423 264.837 256.78 265.223 257.064 265.739C257.348 266.255 257.49 266.946 257.49 267.812V275H255.814V273.523H255.729C255.615 273.759 255.426 274.013 255.161 274.283C254.896 274.553 254.543 274.782 254.103 274.972C253.662 275.161 253.125 275.256 252.49 275.256ZM252.746 273.75C253.409 273.75 253.968 273.62 254.422 273.359C254.882 273.099 255.227 272.763 255.459 272.351C255.696 271.939 255.814 271.506 255.814 271.051V269.517C255.743 269.602 255.587 269.68 255.346 269.751C255.109 269.818 254.834 269.877 254.522 269.929C254.214 269.976 253.913 270.019 253.62 270.057C253.331 270.09 253.096 270.118 252.917 270.142C252.481 270.199 252.074 270.291 251.695 270.419C251.321 270.542 251.018 270.729 250.786 270.98C250.559 271.226 250.445 271.562 250.445 271.989C250.445 272.571 250.66 273.011 251.091 273.31C251.527 273.603 252.078 273.75 252.746 273.75ZM269.08 264.091L265.045 275H263.341L259.307 264.091H261.125L264.136 272.784H264.25L267.261 264.091H269.08ZM275.475 275.227C274.424 275.227 273.517 274.995 272.755 274.531C271.997 274.062 271.413 273.409 271.001 272.571C270.594 271.728 270.39 270.748 270.39 269.631C270.39 268.513 270.594 267.528 271.001 266.676C271.413 265.819 271.986 265.152 272.719 264.673C273.458 264.19 274.32 263.949 275.305 263.949C275.873 263.949 276.434 264.044 276.988 264.233C277.542 264.422 278.046 264.73 278.501 265.156C278.955 265.578 279.317 266.136 279.587 266.832C279.857 267.528 279.992 268.385 279.992 269.403V270.114H271.583V268.665H278.288C278.288 268.049 278.165 267.5 277.918 267.017C277.677 266.534 277.331 266.153 276.881 265.874C276.436 265.594 275.911 265.455 275.305 265.455C274.637 265.455 274.059 265.62 273.572 265.952C273.089 266.278 272.717 266.705 272.457 267.23C272.196 267.756 272.066 268.319 272.066 268.92V269.886C272.066 270.71 272.208 271.409 272.492 271.982C272.781 272.55 273.181 272.983 273.692 273.281C274.204 273.575 274.798 273.722 275.475 273.722C275.915 273.722 276.313 273.66 276.668 273.537C277.028 273.409 277.338 273.22 277.599 272.969C277.859 272.713 278.06 272.396 278.202 272.017L279.822 272.472C279.651 273.021 279.365 273.504 278.962 273.92C278.56 274.332 278.063 274.654 277.471 274.886C276.879 275.114 276.214 275.227 275.475 275.227Z" fill="white"/>
  <path d="M44 326L33 337L28 332" style="stroke: var(--vp-a11y-success)"stroke-width="3" stroke-linecap="round" stroke-linejoin="round"/>

  <text x="57" y="339"  style="fill: var(--vp-a11y-success)"font-size="18" font-weight="800">
    <tspan>Do omit aria-label on decorative icons.</tspan>
  </text>
  <g filter="url(#filter1_b_1780_14037)">
    <rect x="196.5" y="224" width="128" height="29" fill="#0D1016" fill-opacity="0.5"/>
    <rect x="197" y="224.5" width="127" height="28" stroke="#00D7E4" stroke-dasharray="2 2"/>
    <path d="M208.602 239.062V243H207.596V236.455H208.568V237.477H208.653C208.806 237.145 209.039 236.878 209.352 236.676C209.664 236.472 210.068 236.369 210.562 236.369C211.005 236.369 211.393 236.46 211.725 236.642C212.058 236.821 212.316 237.094 212.501 237.46C212.686 237.824 212.778 238.284 212.778 238.841V243H211.772V238.909C211.772 238.395 211.639 237.994 211.372 237.707C211.105 237.418 210.738 237.273 210.272 237.273C209.951 237.273 209.664 237.342 209.412 237.482C209.162 237.621 208.964 237.824 208.819 238.091C208.674 238.358 208.602 238.682 208.602 239.062ZM217.275 243.136C216.684 243.136 216.165 242.996 215.719 242.714C215.276 242.433 214.93 242.04 214.68 241.534C214.433 241.028 214.309 240.437 214.309 239.761C214.309 239.08 214.433 238.484 214.68 237.976C214.93 237.467 215.276 237.072 215.719 236.791C216.165 236.51 216.684 236.369 217.275 236.369C217.866 236.369 218.383 236.51 218.826 236.791C219.272 237.072 219.619 237.467 219.866 237.976C220.116 238.484 220.241 239.08 220.241 239.761C220.241 240.437 220.116 241.028 219.866 241.534C219.619 242.04 219.272 242.433 218.826 242.714C218.383 242.996 217.866 243.136 217.275 243.136ZM217.275 242.233C217.724 242.233 218.093 242.118 218.383 241.888C218.673 241.658 218.887 241.355 219.026 240.98C219.165 240.605 219.235 240.199 219.235 239.761C219.235 239.324 219.165 238.916 219.026 238.538C218.887 238.161 218.673 237.855 218.383 237.622C218.093 237.389 217.724 237.273 217.275 237.273C216.826 237.273 216.457 237.389 216.167 237.622C215.877 237.855 215.663 238.161 215.523 238.538C215.384 238.916 215.315 239.324 215.315 239.761C215.315 240.199 215.384 240.605 215.523 240.98C215.663 241.355 215.877 241.658 216.167 241.888C216.457 242.118 216.826 242.233 217.275 242.233ZM227.077 243.153C226.662 243.153 226.286 243.075 225.948 242.919C225.61 242.76 225.341 242.531 225.142 242.233C224.944 241.932 224.844 241.568 224.844 241.142C224.844 240.767 224.918 240.463 225.066 240.23C225.213 239.994 225.411 239.81 225.658 239.676C225.905 239.543 226.178 239.443 226.476 239.378C226.777 239.31 227.08 239.256 227.384 239.216C227.782 239.165 228.104 239.126 228.351 239.101C228.601 239.072 228.783 239.026 228.897 238.96C229.013 238.895 229.071 238.781 229.071 238.619V238.585C229.071 238.165 228.956 237.838 228.726 237.605C228.499 237.372 228.154 237.256 227.691 237.256C227.211 237.256 226.834 237.361 226.561 237.571C226.289 237.781 226.097 238.006 225.986 238.244L225.032 237.903C225.202 237.506 225.429 237.196 225.713 236.974C226 236.75 226.313 236.594 226.651 236.506C226.992 236.415 227.327 236.369 227.657 236.369C227.867 236.369 228.108 236.395 228.381 236.446C228.657 236.494 228.922 236.595 229.178 236.749C229.436 236.902 229.651 237.134 229.821 237.443C229.992 237.753 230.077 238.168 230.077 238.688V243H229.071V242.114H229.02C228.952 242.256 228.838 242.408 228.679 242.57C228.52 242.732 228.309 242.869 228.044 242.983C227.78 243.097 227.458 243.153 227.077 243.153ZM227.23 242.25C227.628 242.25 227.963 242.172 228.236 242.016C228.512 241.859 228.719 241.658 228.858 241.411C229 241.163 229.071 240.903 229.071 240.631V239.71C229.029 239.761 228.935 239.808 228.79 239.851C228.648 239.891 228.483 239.926 228.296 239.957C228.111 239.986 227.931 240.011 227.755 240.034C227.581 240.054 227.441 240.071 227.333 240.085C227.071 240.119 226.827 240.175 226.6 240.251C226.375 240.325 226.194 240.437 226.054 240.588C225.918 240.736 225.85 240.937 225.85 241.193C225.85 241.543 225.979 241.807 226.238 241.986C226.499 242.162 226.83 242.25 227.23 242.25ZM234.572 243.136C233.958 243.136 233.43 242.991 232.987 242.702C232.543 242.412 232.202 242.013 231.964 241.504C231.725 240.996 231.606 240.415 231.606 239.761C231.606 239.097 231.728 238.51 231.972 238.001C232.219 237.49 232.563 237.091 233.004 236.804C233.447 236.514 233.964 236.369 234.555 236.369C235.015 236.369 235.43 236.455 235.799 236.625C236.168 236.795 236.471 237.034 236.707 237.341C236.942 237.648 237.089 238.006 237.146 238.415H236.14C236.063 238.116 235.893 237.852 235.629 237.622C235.367 237.389 235.015 237.273 234.572 237.273C234.18 237.273 233.836 237.375 233.54 237.58C233.248 237.781 233.019 238.067 232.854 238.436C232.692 238.803 232.612 239.233 232.612 239.727C232.612 240.233 232.691 240.673 232.85 241.048C233.012 241.423 233.239 241.714 233.532 241.922C233.827 242.129 234.174 242.233 234.572 242.233C234.833 242.233 235.07 242.188 235.283 242.097C235.496 242.006 235.677 241.875 235.825 241.705C235.972 241.534 236.077 241.33 236.14 241.091H237.146C237.089 241.477 236.948 241.825 236.724 242.135C236.502 242.442 236.208 242.686 235.842 242.868C235.478 243.047 235.055 243.136 234.572 243.136ZM241.275 243.136C240.661 243.136 240.133 242.991 239.69 242.702C239.246 242.412 238.906 242.013 238.667 241.504C238.428 240.996 238.309 240.415 238.309 239.761C238.309 239.097 238.431 238.51 238.675 238.001C238.923 237.49 239.266 237.091 239.707 236.804C240.15 236.514 240.667 236.369 241.258 236.369C241.718 236.369 242.133 236.455 242.502 236.625C242.871 236.795 243.174 237.034 243.41 237.341C243.646 237.648 243.792 238.006 243.849 238.415H242.843C242.766 238.116 242.596 237.852 242.332 237.622C242.07 237.389 241.718 237.273 241.275 237.273C240.883 237.273 240.539 237.375 240.244 237.58C239.951 237.781 239.722 238.067 239.558 238.436C239.396 238.803 239.315 239.233 239.315 239.727C239.315 240.233 239.394 240.673 239.553 241.048C239.715 241.423 239.942 241.714 240.235 241.922C240.531 242.129 240.877 242.233 241.275 242.233C241.536 242.233 241.773 242.188 241.987 242.097C242.2 242.006 242.38 241.875 242.528 241.705C242.675 241.534 242.781 241.33 242.843 241.091H243.849C243.792 241.477 243.651 241.825 243.427 242.135C243.205 242.442 242.911 242.686 242.545 242.868C242.181 243.047 241.758 243.136 241.275 243.136ZM248.063 243.136C247.433 243.136 246.888 242.997 246.431 242.719C245.977 242.438 245.626 242.045 245.379 241.543C245.134 241.037 245.012 240.449 245.012 239.778C245.012 239.108 245.134 238.517 245.379 238.006C245.626 237.491 245.969 237.091 246.41 236.804C246.853 236.514 247.37 236.369 247.961 236.369C248.302 236.369 248.638 236.426 248.971 236.54C249.303 236.653 249.606 236.838 249.879 237.094C250.151 237.347 250.369 237.682 250.531 238.099C250.692 238.517 250.773 239.031 250.773 239.642V240.068H245.728V239.199H249.751C249.751 238.83 249.677 238.5 249.529 238.21C249.384 237.92 249.177 237.692 248.907 237.524C248.64 237.357 248.325 237.273 247.961 237.273C247.56 237.273 247.214 237.372 246.921 237.571C246.631 237.767 246.408 238.023 246.252 238.338C246.096 238.653 246.018 238.991 246.018 239.352V239.932C246.018 240.426 246.103 240.845 246.273 241.189C246.447 241.53 246.687 241.79 246.994 241.969C247.3 242.145 247.657 242.233 248.063 242.233C248.327 242.233 248.566 242.196 248.779 242.122C248.995 242.045 249.181 241.932 249.337 241.781C249.494 241.628 249.614 241.437 249.7 241.21L250.671 241.483C250.569 241.812 250.397 242.102 250.156 242.352C249.914 242.599 249.616 242.793 249.261 242.932C248.906 243.068 248.506 243.136 248.063 243.136ZM256.94 237.92L256.036 238.176C255.979 238.026 255.896 237.879 255.785 237.737C255.677 237.592 255.529 237.473 255.342 237.379C255.154 237.286 254.914 237.239 254.621 237.239C254.221 237.239 253.887 237.331 253.62 237.516C253.356 237.697 253.224 237.929 253.224 238.21C253.224 238.46 253.315 238.658 253.496 238.803C253.678 238.947 253.962 239.068 254.349 239.165L255.32 239.403C255.906 239.545 256.342 239.763 256.629 240.055C256.915 240.345 257.059 240.719 257.059 241.176C257.059 241.551 256.951 241.886 256.735 242.182C256.522 242.477 256.224 242.71 255.84 242.881C255.457 243.051 255.011 243.136 254.502 243.136C253.835 243.136 253.282 242.991 252.844 242.702C252.407 242.412 252.13 241.989 252.013 241.432L252.968 241.193C253.059 241.545 253.231 241.81 253.484 241.986C253.739 242.162 254.073 242.25 254.485 242.25C254.954 242.25 255.326 242.151 255.602 241.952C255.88 241.75 256.019 241.509 256.019 241.227C256.019 241 255.94 240.81 255.781 240.656C255.621 240.5 255.377 240.384 255.048 240.307L253.957 240.051C253.357 239.909 252.917 239.689 252.636 239.391C252.357 239.089 252.218 238.713 252.218 238.261C252.218 237.892 252.322 237.565 252.529 237.281C252.739 236.997 253.025 236.774 253.386 236.612C253.749 236.45 254.161 236.369 254.621 236.369C255.269 236.369 255.778 236.511 256.147 236.795C256.519 237.08 256.783 237.455 256.94 237.92ZM263.209 237.92L262.306 238.176C262.249 238.026 262.165 237.879 262.054 237.737C261.946 237.592 261.799 237.473 261.611 237.379C261.424 237.286 261.184 237.239 260.891 237.239C260.49 237.239 260.157 237.331 259.89 237.516C259.625 237.697 259.493 237.929 259.493 238.21C259.493 238.46 259.584 238.658 259.766 238.803C259.948 238.947 260.232 239.068 260.618 239.165L261.59 239.403C262.175 239.545 262.611 239.763 262.898 240.055C263.185 240.345 263.328 240.719 263.328 241.176C263.328 241.551 263.221 241.886 263.005 242.182C262.792 242.477 262.493 242.71 262.11 242.881C261.726 243.051 261.28 243.136 260.772 243.136C260.104 243.136 259.551 242.991 259.114 242.702C258.676 242.412 258.4 241.989 258.283 241.432L259.238 241.193C259.328 241.545 259.5 241.81 259.753 241.986C260.009 242.162 260.343 242.25 260.755 242.25C261.223 242.25 261.596 242.151 261.871 241.952C262.15 241.75 262.289 241.509 262.289 241.227C262.289 241 262.209 240.81 262.05 240.656C261.891 240.5 261.647 240.384 261.317 240.307L260.226 240.051C259.627 239.909 259.186 239.689 258.905 239.391C258.627 239.089 258.488 238.713 258.488 238.261C258.488 237.892 258.591 237.565 258.799 237.281C259.009 236.997 259.294 236.774 259.655 236.612C260.019 236.45 260.431 236.369 260.891 236.369C261.539 236.369 262.047 236.511 262.417 236.795C262.789 237.08 263.053 237.455 263.209 237.92ZM264.842 243V236.455H265.848V243H264.842ZM265.354 235.364C265.158 235.364 264.989 235.297 264.847 235.163C264.707 235.03 264.638 234.869 264.638 234.682C264.638 234.494 264.707 234.334 264.847 234.2C264.989 234.067 265.158 234 265.354 234C265.55 234 265.717 234.067 265.857 234.2C265.999 234.334 266.07 234.494 266.07 234.682C266.07 234.869 265.999 235.03 265.857 235.163C265.717 235.297 265.55 235.364 265.354 235.364ZM267.826 243V234.273H268.832V237.494H268.917C268.991 237.381 269.093 237.236 269.224 237.06C269.358 236.881 269.548 236.722 269.795 236.582C270.045 236.44 270.383 236.369 270.809 236.369C271.36 236.369 271.846 236.507 272.267 236.783C272.687 237.058 273.015 237.449 273.251 237.955C273.487 238.46 273.605 239.057 273.605 239.744C273.605 240.438 273.487 241.038 273.251 241.547C273.015 242.053 272.689 242.445 272.271 242.723C271.853 242.999 271.372 243.136 270.826 243.136C270.406 243.136 270.069 243.067 269.816 242.928C269.564 242.786 269.369 242.625 269.233 242.446C269.096 242.264 268.991 242.114 268.917 241.994H268.798V243H267.826ZM268.815 239.727C268.815 240.222 268.887 240.658 269.032 241.036C269.177 241.411 269.389 241.705 269.667 241.918C269.946 242.128 270.287 242.233 270.69 242.233C271.11 242.233 271.461 242.122 271.743 241.901C272.027 241.676 272.24 241.375 272.382 240.997C272.527 240.616 272.599 240.193 272.599 239.727C272.599 239.267 272.528 238.852 272.386 238.483C272.247 238.111 272.035 237.817 271.751 237.601C271.47 237.382 271.116 237.273 270.69 237.273C270.281 237.273 269.937 237.376 269.659 237.584C269.38 237.788 269.17 238.075 269.028 238.445C268.886 238.811 268.815 239.239 268.815 239.727ZM276.149 234.273V243H275.143V234.273H276.149ZM280.735 243.136C280.104 243.136 279.56 242.997 279.103 242.719C278.648 242.438 278.298 242.045 278.05 241.543C277.806 241.037 277.684 240.449 277.684 239.778C277.684 239.108 277.806 238.517 278.05 238.006C278.298 237.491 278.641 237.091 279.082 236.804C279.525 236.514 280.042 236.369 280.633 236.369C280.974 236.369 281.31 236.426 281.643 236.54C281.975 236.653 282.278 236.838 282.55 237.094C282.823 237.347 283.04 237.682 283.202 238.099C283.364 238.517 283.445 239.031 283.445 239.642V240.068H278.4V239.199H282.423C282.423 238.83 282.349 238.5 282.201 238.21C282.056 237.92 281.849 237.692 281.579 237.524C281.312 237.357 280.996 237.273 280.633 237.273C280.232 237.273 279.886 237.372 279.593 237.571C279.303 237.767 279.08 238.023 278.924 238.338C278.768 238.653 278.69 238.991 278.69 239.352V239.932C278.69 240.426 278.775 240.845 278.945 241.189C279.119 241.53 279.359 241.79 279.665 241.969C279.972 242.145 280.329 242.233 280.735 242.233C280.999 242.233 281.238 242.196 281.451 242.122C281.667 242.045 281.853 241.932 282.009 241.781C282.165 241.628 282.286 241.437 282.371 241.21L283.343 241.483C283.241 241.812 283.069 242.102 282.827 242.352C282.586 242.599 282.288 242.793 281.933 242.932C281.577 243.068 281.178 243.136 280.735 243.136ZM289.356 234.273V243H288.35V234.273H289.356ZM293.124 243.153C292.709 243.153 292.333 243.075 291.995 242.919C291.657 242.76 291.388 242.531 291.189 242.233C290.99 241.932 290.891 241.568 290.891 241.142C290.891 240.767 290.965 240.463 291.113 240.23C291.26 239.994 291.458 239.81 291.705 239.676C291.952 239.543 292.225 239.443 292.523 239.378C292.824 239.31 293.127 239.256 293.431 239.216C293.828 239.165 294.151 239.126 294.398 239.101C294.648 239.072 294.83 239.026 294.944 238.96C295.06 238.895 295.118 238.781 295.118 238.619V238.585C295.118 238.165 295.003 237.838 294.773 237.605C294.546 237.372 294.201 237.256 293.738 237.256C293.257 237.256 292.881 237.361 292.608 237.571C292.336 237.781 292.144 238.006 292.033 238.244L291.078 237.903C291.249 237.506 291.476 237.196 291.76 236.974C292.047 236.75 292.36 236.594 292.698 236.506C293.039 236.415 293.374 236.369 293.703 236.369C293.914 236.369 294.155 236.395 294.428 236.446C294.703 236.494 294.969 236.595 295.225 236.749C295.483 236.902 295.698 237.134 295.868 237.443C296.039 237.753 296.124 238.168 296.124 238.688V243H295.118V242.114H295.067C294.999 242.256 294.885 242.408 294.726 242.57C294.567 242.732 294.355 242.869 294.091 242.983C293.827 243.097 293.505 243.153 293.124 243.153ZM293.277 242.25C293.675 242.25 294.01 242.172 294.283 242.016C294.559 241.859 294.766 241.658 294.905 241.411C295.047 241.163 295.118 240.903 295.118 240.631V239.71C295.076 239.761 294.982 239.808 294.837 239.851C294.695 239.891 294.53 239.926 294.343 239.957C294.158 239.986 293.978 240.011 293.801 240.034C293.628 240.054 293.488 240.071 293.38 240.085C293.118 240.119 292.874 240.175 292.647 240.251C292.422 240.325 292.24 240.437 292.101 240.588C291.965 240.736 291.897 240.937 291.897 241.193C291.897 241.543 292.026 241.807 292.284 241.986C292.546 242.162 292.877 242.25 293.277 242.25ZM298.096 243V234.273H299.102V237.494H299.187C299.261 237.381 299.363 237.236 299.494 237.06C299.627 236.881 299.817 236.722 300.065 236.582C300.315 236.44 300.653 236.369 301.079 236.369C301.63 236.369 302.116 236.507 302.536 236.783C302.957 237.058 303.285 237.449 303.521 237.955C303.756 238.46 303.874 239.057 303.874 239.744C303.874 240.438 303.756 241.038 303.521 241.547C303.285 242.053 302.958 242.445 302.54 242.723C302.123 242.999 301.641 243.136 301.096 243.136C300.675 243.136 300.339 243.067 300.086 242.928C299.833 242.786 299.638 242.625 299.502 242.446C299.366 242.264 299.261 242.114 299.187 241.994H299.067V243H298.096ZM299.085 239.727C299.085 240.222 299.157 240.658 299.302 241.036C299.447 241.411 299.658 241.705 299.937 241.918C300.215 242.128 300.556 242.233 300.96 242.233C301.38 242.233 301.731 242.122 302.012 241.901C302.296 241.676 302.509 241.375 302.651 240.997C302.796 240.616 302.869 240.193 302.869 239.727C302.869 239.267 302.798 238.852 302.656 238.483C302.516 238.111 302.305 237.817 302.021 237.601C301.739 237.382 301.386 237.273 300.96 237.273C300.55 237.273 300.207 237.376 299.928 237.584C299.65 237.788 299.44 238.075 299.298 238.445C299.156 238.811 299.085 239.239 299.085 239.727ZM308.157 243.136C307.526 243.136 306.982 242.997 306.525 242.719C306.07 242.438 305.719 242.045 305.472 241.543C305.228 241.037 305.106 240.449 305.106 239.778C305.106 239.108 305.228 238.517 305.472 238.006C305.719 237.491 306.063 237.091 306.504 236.804C306.947 236.514 307.464 236.369 308.055 236.369C308.396 236.369 308.732 236.426 309.065 236.54C309.397 236.653 309.7 236.838 309.972 237.094C310.245 237.347 310.462 237.682 310.624 238.099C310.786 238.517 310.867 239.031 310.867 239.642V240.068H305.822V239.199H309.844C309.844 238.83 309.771 238.5 309.623 238.21C309.478 237.92 309.271 237.692 309.001 237.524C308.734 237.357 308.418 237.273 308.055 237.273C307.654 237.273 307.308 237.372 307.015 237.571C306.725 237.767 306.502 238.023 306.346 238.338C306.19 238.653 306.112 238.991 306.112 239.352V239.932C306.112 240.426 306.197 240.845 306.367 241.189C306.54 241.53 306.781 241.79 307.087 241.969C307.394 242.145 307.751 242.233 308.157 242.233C308.421 242.233 308.66 242.196 308.873 242.122C309.089 242.045 309.275 241.932 309.431 241.781C309.587 241.628 309.708 241.437 309.793 241.21L310.765 241.483C310.663 241.812 310.491 242.102 310.249 242.352C310.008 242.599 309.71 242.793 309.354 242.932C308.999 243.068 308.6 243.136 308.157 243.136ZM313.403 234.273V243H312.397V234.273H313.403Z" fill="#00D7E4"/>
  </g>
  <rect x="197" y="253.5" width="27" height="27" stroke="#00D7E4"/>
</svg>
