<svg width="480" height="376" viewBox="0 0 480 376" fill="none" class="a11y-example">
  <rect width="480" height="176" rx="8" style="fill: var(--vp-code-block-bg)"/>
  <rect x="212" y="24" width="56" height="56" rx="28" fill="currentColor" fill-opacity="0.05"/>
  <path d="M243 61V53C243 52.7348 242.895 52.4804 242.707 52.2929C242.52 52.1054 242.265 52 242 52H238C237.735 52 237.48 52.1054 237.293 52.2929C237.105 52.4804 237 52.7348 237 53V61" stroke="currentColor" stroke-width="2" stroke-linecap="round" stroke-linejoin="round"/>
  <path d="M231 50C231 49.709 231.063 49.4216 231.186 49.1577C231.308 48.8938 231.487 48.6598 231.709 48.472L238.709 42.473C239.07 42.1679 239.527 42.0005 240 42.0005C240.473 42.0005 240.93 42.1679 241.291 42.473L248.291 48.472C248.513 48.6598 248.692 48.8938 248.814 49.1577C248.937 49.4216 249 49.709 249 50V59C249 59.5304 248.789 60.0391 248.414 60.4142C248.039 60.7893 247.53 61 247 61H233C232.47 61 231.961 60.7893 231.586 60.4142C231.211 60.0391 231 59.5304 231 59V50Z" stroke="currentColor" stroke-width="2" stroke-linecap="round" stroke-linejoin="round"/>
  <path d="M42 110L30 122" style="stroke: var(--vp-a11y-danger)" stroke-width="3" stroke-linecap="round" stroke-linejoin="round"/>
  <path d="M30 110L42 122" style="stroke: var(--vp-a11y-danger)" stroke-width="3" stroke-linecap="round" stroke-linejoin="round"/>
  <text x="57" y="123"  style="fill: var(--vp-a11y-danger)" font-size="18" font-weight="800">
    <tspan>Don't provide accessible labels for</tspan>
    <tspan x="56" y="148">icons on icon buttons.</tspan>
  </text>
  <rect x="227" y="37.5" width="27" height="27" stroke="#00D7E4"/>
  <g filter="url(#filter0_b_1780_14084)">
    <rect x="254.5" y="37" width="90" height="29" fill="#0D1016" fill-opacity="0.5"/>
    <rect x="255" y="37.5" width="89" height="28" stroke="#00D7E4" stroke-dasharray="2 2"/>
    <path d="M265.228 50V49.233C265.228 49 265.269 48.7528 265.352 48.4915C265.437 48.2273 265.559 47.973 265.718 47.7287C265.88 47.4815 266.075 47.267 266.302 47.0852L266.847 47.5284C266.668 47.7841 266.512 48.0511 266.379 48.3295C266.248 48.6051 266.183 48.9006 266.183 49.2159V50H265.228ZM267.41 50V49.233C267.41 49 267.451 48.7528 267.533 48.4915C267.619 48.2273 267.741 47.973 267.9 47.7287C268.062 47.4815 268.256 47.267 268.484 47.0852L269.029 47.5284C268.85 47.7841 268.694 48.0511 268.56 48.3295C268.43 48.6051 268.364 48.9006 268.364 49.2159V50H267.41ZM270.276 56V47.2727H271.332V51.1591H275.986V47.2727H277.043V56H275.986V52.0966H271.332V56H270.276ZM281.681 56.1364C281.09 56.1364 280.572 55.9957 280.126 55.7145C279.683 55.4332 279.336 55.0398 279.086 54.5341C278.839 54.0284 278.715 53.4375 278.715 52.7614C278.715 52.0795 278.839 51.4844 279.086 50.9759C279.336 50.4673 279.683 50.0724 280.126 49.7912C280.572 49.5099 281.09 49.3693 281.681 49.3693C282.272 49.3693 282.789 49.5099 283.232 49.7912C283.678 50.0724 284.025 50.4673 284.272 50.9759C284.522 51.4844 284.647 52.0795 284.647 52.7614C284.647 53.4375 284.522 54.0284 284.272 54.5341C284.025 55.0398 283.678 55.4332 283.232 55.7145C282.789 55.9957 282.272 56.1364 281.681 56.1364ZM281.681 55.233C282.13 55.233 282.499 55.1179 282.789 54.8878C283.079 54.6577 283.293 54.3551 283.433 53.9801C283.572 53.6051 283.641 53.1989 283.641 52.7614C283.641 52.3239 283.572 51.9162 283.433 51.5384C283.293 51.1605 283.079 50.8551 282.789 50.6222C282.499 50.3892 282.13 50.2727 281.681 50.2727C281.232 50.2727 280.863 50.3892 280.573 50.6222C280.283 50.8551 280.069 51.1605 279.93 51.5384C279.79 51.9162 279.721 52.3239 279.721 52.7614C279.721 53.1989 279.79 53.6051 279.93 53.9801C280.069 54.3551 280.283 54.6577 280.573 54.8878C280.863 55.1179 281.232 55.233 281.681 55.233ZM286.182 56V49.4545H287.154V50.4773H287.239C287.375 50.1278 287.596 49.8565 287.9 49.6634C288.203 49.4673 288.569 49.3693 288.995 49.3693C289.426 49.3693 289.786 49.4673 290.073 49.6634C290.363 49.8565 290.588 50.1278 290.75 50.4773H290.819C290.986 50.1392 291.238 49.8707 291.573 49.6719C291.908 49.4702 292.31 49.3693 292.779 49.3693C293.364 49.3693 293.843 49.5526 294.215 49.919C294.587 50.2827 294.773 50.8494 294.773 51.6193V56H293.767V51.6193C293.767 51.1364 293.635 50.7912 293.371 50.5838C293.107 50.3764 292.796 50.2727 292.438 50.2727C291.978 50.2727 291.621 50.4119 291.368 50.6903C291.115 50.9659 290.989 51.3153 290.989 51.7386V56H289.966V51.517C289.966 51.1449 289.846 50.8452 289.604 50.6179C289.363 50.3878 289.051 50.2727 288.671 50.2727C288.409 50.2727 288.165 50.3423 287.938 50.4815C287.713 50.6207 287.532 50.8139 287.392 51.0611C287.256 51.3054 287.188 51.5881 287.188 51.9091V56H286.182ZM299.356 56.1364C298.725 56.1364 298.181 55.9972 297.724 55.7188C297.27 55.4375 296.919 55.0455 296.672 54.5426C296.427 54.0369 296.305 53.4489 296.305 52.7784C296.305 52.108 296.427 51.517 296.672 51.0057C296.919 50.4915 297.262 50.0909 297.703 49.804C298.146 49.5142 298.663 49.3693 299.254 49.3693C299.595 49.3693 299.931 49.4261 300.264 49.5398C300.596 49.6534 300.899 49.8381 301.172 50.0938C301.444 50.3466 301.662 50.6818 301.824 51.0994C301.985 51.517 302.066 52.0312 302.066 52.642V53.0682H297.021V52.1989H301.044C301.044 51.8295 300.97 51.5 300.822 51.2102C300.677 50.9205 300.47 50.6918 300.2 50.5241C299.933 50.3565 299.618 50.2727 299.254 50.2727C298.853 50.2727 298.507 50.3722 298.214 50.571C297.924 50.767 297.701 51.0227 297.545 51.3381C297.389 51.6534 297.311 51.9915 297.311 52.3523V52.9318C297.311 53.4261 297.396 53.8452 297.566 54.1889C297.74 54.5298 297.98 54.7898 298.287 54.9688C298.593 55.1449 298.95 55.233 299.356 55.233C299.62 55.233 299.859 55.196 300.072 55.1222C300.288 55.0455 300.474 54.9318 300.63 54.7812C300.787 54.6278 300.907 54.4375 300.993 54.2102L301.964 54.483C301.862 54.8125 301.69 55.1023 301.449 55.3523C301.207 55.5994 300.909 55.7926 300.554 55.9318C300.199 56.0682 299.799 56.1364 299.356 56.1364ZM306.971 56V49.4545H307.977V56H306.971ZM307.483 48.3636C307.287 48.3636 307.118 48.2969 306.975 48.1634C306.836 48.0298 306.767 47.8693 306.767 47.6818C306.767 47.4943 306.836 47.3338 306.975 47.2003C307.118 47.0668 307.287 47 307.483 47C307.679 47 307.846 47.0668 307.985 47.2003C308.127 47.3338 308.199 47.4943 308.199 47.6818C308.199 47.8693 308.127 48.0298 307.985 48.1634C307.846 48.2969 307.679 48.3636 307.483 48.3636ZM312.478 56.1364C311.864 56.1364 311.336 55.9915 310.893 55.7017C310.45 55.4119 310.109 55.0128 309.87 54.5043C309.631 53.9957 309.512 53.4148 309.512 52.7614C309.512 52.0966 309.634 51.5099 309.879 51.0014C310.126 50.4901 310.469 50.0909 310.91 49.804C311.353 49.5142 311.87 49.3693 312.461 49.3693C312.921 49.3693 313.336 49.4545 313.705 49.625C314.075 49.7955 314.377 50.0341 314.613 50.3409C314.849 50.6477 314.995 51.0057 315.052 51.4148H314.046C313.969 51.1165 313.799 50.8523 313.535 50.6222C313.273 50.3892 312.921 50.2727 312.478 50.2727C312.086 50.2727 311.742 50.375 311.447 50.5795C311.154 50.7812 310.925 51.0668 310.761 51.4361C310.599 51.8026 310.518 52.233 310.518 52.7273C310.518 53.233 310.597 53.6733 310.756 54.0483C310.918 54.4233 311.146 54.7145 311.438 54.9219C311.734 55.1293 312.08 55.233 312.478 55.233C312.739 55.233 312.977 55.1875 313.19 55.0966C313.403 55.0057 313.583 54.875 313.731 54.7045C313.879 54.5341 313.984 54.3295 314.046 54.0909H315.052C314.995 54.4773 314.854 54.8253 314.63 55.1349C314.408 55.4418 314.114 55.6861 313.748 55.8679C313.384 56.0469 312.961 56.1364 312.478 56.1364ZM319.181 56.1364C318.59 56.1364 318.072 55.9957 317.626 55.7145C317.183 55.4332 316.836 55.0398 316.586 54.5341C316.339 54.0284 316.215 53.4375 316.215 52.7614C316.215 52.0795 316.339 51.4844 316.586 50.9759C316.836 50.4673 317.183 50.0724 317.626 49.7912C318.072 49.5099 318.59 49.3693 319.181 49.3693C319.772 49.3693 320.289 49.5099 320.732 49.7912C321.178 50.0724 321.525 50.4673 321.772 50.9759C322.022 51.4844 322.147 52.0795 322.147 52.7614C322.147 53.4375 322.022 54.0284 321.772 54.5341C321.525 55.0398 321.178 55.4332 320.732 55.7145C320.289 55.9957 319.772 56.1364 319.181 56.1364ZM319.181 55.233C319.63 55.233 319.999 55.1179 320.289 54.8878C320.579 54.6577 320.793 54.3551 320.933 53.9801C321.072 53.6051 321.141 53.1989 321.141 52.7614C321.141 52.3239 321.072 51.9162 320.933 51.5384C320.793 51.1605 320.579 50.8551 320.289 50.6222C319.999 50.3892 319.63 50.2727 319.181 50.2727C318.732 50.2727 318.363 50.3892 318.073 50.6222C317.783 50.8551 317.569 51.1605 317.43 51.5384C317.29 51.9162 317.221 52.3239 317.221 52.7614C317.221 53.1989 317.29 53.6051 317.43 53.9801C317.569 54.3551 317.783 54.6577 318.073 54.8878C318.363 55.1179 318.732 55.233 319.181 55.233ZM324.688 52.0625V56H323.682V49.4545H324.654V50.4773H324.739C324.892 50.1449 325.125 49.8778 325.438 49.6761C325.75 49.4716 326.154 49.3693 326.648 49.3693C327.091 49.3693 327.479 49.4602 327.811 49.642C328.144 49.821 328.402 50.0938 328.587 50.4602C328.772 50.8239 328.864 51.2841 328.864 51.8409V56H327.858V51.9091C327.858 51.3949 327.725 50.9943 327.458 50.7074C327.191 50.4176 326.824 50.2727 326.358 50.2727C326.037 50.2727 325.75 50.3423 325.498 50.4815C325.248 50.6207 325.05 50.8239 324.905 51.0909C324.76 51.358 324.688 51.6818 324.688 52.0625ZM331.588 47.2727V48.0398C331.588 48.2727 331.545 48.5213 331.46 48.7855C331.378 49.0469 331.256 49.3011 331.094 49.5483C330.935 49.7926 330.741 50.0057 330.514 50.1875L329.969 49.7443C330.148 49.4886 330.303 49.223 330.433 48.9474C330.567 48.669 330.634 48.3722 330.634 48.0568V47.2727H331.588ZM333.77 47.2727V48.0398C333.77 48.2727 333.727 48.5213 333.642 48.7855C333.56 49.0469 333.438 49.3011 333.276 49.5483C333.116 49.7926 332.923 50.0057 332.696 50.1875L332.151 49.7443C332.33 49.4886 332.484 49.223 332.615 48.9474C332.749 48.669 332.815 48.3722 332.815 48.0568V47.2727H333.77Z" fill="#00D7E4"/>
  </g>
  <rect y="200" width="480" height="176" rx="8" style="fill: var(--vp-code-block-bg)"/>
  <rect x="212" y="224" width="56" height="56" rx="28" fill="currentColor" fill-opacity="0.05"/>
  <path d="M243 261V253C243 252.735 242.895 252.48 242.707 252.293C242.52 252.105 242.265 252 242 252H238C237.735 252 237.48 252.105 237.293 252.293C237.105 252.48 237 252.735 237 253V261" stroke="currentColor" stroke-width="2" stroke-linecap="round" stroke-linejoin="round"/>
  <path d="M231 250C231 249.709 231.063 249.422 231.186 249.158C231.308 248.894 231.487 248.66 231.709 248.472L238.709 242.473C239.07 242.168 239.527 242 240 242C240.473 242 240.93 242.168 241.291 242.473L248.291 248.472C248.513 248.66 248.692 248.894 248.814 249.158C248.937 249.422 249 249.709 249 250V259C249 259.53 248.789 260.039 248.414 260.414C248.039 260.789 247.53 261 247 261H233C232.47 261 231.961 260.789 231.586 260.414C231.211 260.039 231 259.53 231 259V250Z" stroke="currentColor" stroke-width="2" stroke-linecap="round" stroke-linejoin="round"/>
  <path d="M44 310L33 321L28 316" style="stroke: var(--vp-a11y-success)" stroke-width="3" stroke-linecap="round" stroke-linejoin="round"/>
  <path d="M70.4205 323H65.2642V308.455H70.4631C71.9261 308.455 73.1856 308.746 74.2415 309.328C75.2973 309.906 76.1094 310.737 76.6776 311.821C77.2505 312.905 77.5369 314.203 77.5369 315.713C77.5369 317.228 77.2505 318.53 76.6776 319.619C76.1094 320.708 75.2926 321.544 74.2273 322.126C73.1667 322.709 71.8977 323 70.4205 323ZM68.3395 320.365H70.2926C71.2017 320.365 71.9664 320.204 72.5866 319.882C73.2116 319.555 73.6804 319.051 73.9929 318.369C74.3101 317.683 74.4688 316.797 74.4688 315.713C74.4688 314.638 74.3101 313.76 73.9929 313.078C73.6804 312.396 73.214 311.894 72.5938 311.572C71.9735 311.25 71.2088 311.089 70.2997 311.089H68.3395V320.365ZM84.6871 323.213C83.5839 323.213 82.6299 322.979 81.8249 322.51C81.0247 322.036 80.4068 321.378 79.9712 320.536C79.5356 319.688 79.3178 318.705 79.3178 317.588C79.3178 316.461 79.5356 315.476 79.9712 314.634C80.4068 313.786 81.0247 313.128 81.8249 312.659C82.6299 312.186 83.5839 311.949 84.6871 311.949C85.7904 311.949 86.7421 312.186 87.5423 312.659C88.3472 313.128 88.9674 313.786 89.4031 314.634C89.8387 315.476 90.0565 316.461 90.0565 317.588C90.0565 318.705 89.8387 319.688 89.4031 320.536C88.9674 321.378 88.3472 322.036 87.5423 322.51C86.7421 322.979 85.7904 323.213 84.6871 323.213ZM84.7013 320.869C85.2032 320.869 85.6223 320.727 85.9585 320.443C86.2946 320.154 86.5479 319.761 86.7184 319.264C86.8936 318.767 86.9812 318.201 86.9812 317.567C86.9812 316.932 86.8936 316.366 86.7184 315.869C86.5479 315.372 86.2946 314.979 85.9585 314.69C85.6223 314.402 85.2032 314.257 84.7013 314.257C84.1947 314.257 83.7686 314.402 83.4229 314.69C83.082 314.979 82.824 315.372 82.6488 315.869C82.4783 316.366 82.3931 316.932 82.3931 317.567C82.3931 318.201 82.4783 318.767 82.6488 319.264C82.824 319.761 83.082 320.154 83.4229 320.443C83.7686 320.727 84.1947 320.869 84.7013 320.869ZM96.6527 327.091V312.091H99.6357V313.923H99.7706C99.9032 313.63 100.095 313.331 100.346 313.028C100.602 312.721 100.933 312.465 101.34 312.261C101.752 312.053 102.263 311.949 102.874 311.949C103.67 311.949 104.404 312.157 105.076 312.574C105.748 312.986 106.286 313.608 106.688 314.442C107.091 315.27 107.292 316.31 107.292 317.56C107.292 318.777 107.095 319.804 106.702 320.642C106.314 321.475 105.784 322.107 105.112 322.538C104.444 322.964 103.696 323.178 102.867 323.178C102.28 323.178 101.781 323.08 101.369 322.886C100.961 322.692 100.628 322.448 100.367 322.155C100.107 321.857 99.9079 321.556 99.7706 321.253H99.6783V327.091H96.6527ZM99.6143 317.545C99.6143 318.194 99.7043 318.76 99.8842 319.243C100.064 319.726 100.325 320.102 100.665 320.372C101.006 320.637 101.421 320.77 101.908 320.77C102.401 320.77 102.817 320.635 103.158 320.365C103.499 320.09 103.757 319.712 103.933 319.229C104.112 318.741 104.202 318.18 104.202 317.545C104.202 316.916 104.115 316.362 103.94 315.884C103.764 315.405 103.506 315.031 103.165 314.761C102.825 314.491 102.406 314.357 101.908 314.357C101.416 314.357 100.999 314.487 100.658 314.747C100.322 315.008 100.064 315.377 99.8842 315.855C99.7043 316.333 99.6143 316.897 99.6143 317.545ZM109.309 323V312.091H112.242V313.994H112.356C112.555 313.317 112.888 312.806 113.357 312.46C113.826 312.11 114.366 311.935 114.977 311.935C115.128 311.935 115.291 311.944 115.467 311.963C115.642 311.982 115.796 312.008 115.928 312.041V314.726C115.786 314.683 115.59 314.645 115.339 314.612C115.088 314.579 114.858 314.562 114.65 314.562C114.205 314.562 113.807 314.66 113.457 314.854C113.111 315.043 112.836 315.308 112.633 315.649C112.434 315.99 112.335 316.383 112.335 316.828V323H109.309ZM121.914 323.213C120.81 323.213 119.856 322.979 119.051 322.51C118.251 322.036 117.633 321.378 117.198 320.536C116.762 319.688 116.544 318.705 116.544 317.588C116.544 316.461 116.762 315.476 117.198 314.634C117.633 313.786 118.251 313.128 119.051 312.659C119.856 312.186 120.81 311.949 121.914 311.949C123.017 311.949 123.969 312.186 124.769 312.659C125.574 313.128 126.194 313.786 126.63 314.634C127.065 315.476 127.283 316.461 127.283 317.588C127.283 318.705 127.065 319.688 126.63 320.536C126.194 321.378 125.574 322.036 124.769 322.51C123.969 322.979 123.017 323.213 121.914 323.213ZM121.928 320.869C122.43 320.869 122.849 320.727 123.185 320.443C123.521 320.154 123.775 319.761 123.945 319.264C124.12 318.767 124.208 318.201 124.208 317.567C124.208 316.932 124.12 316.366 123.945 315.869C123.775 315.372 123.521 314.979 123.185 314.69C122.849 314.402 122.43 314.257 121.928 314.257C121.421 314.257 120.995 314.402 120.65 314.69C120.309 314.979 120.051 315.372 119.875 315.869C119.705 316.366 119.62 316.932 119.62 317.567C119.62 318.201 119.705 318.767 119.875 319.264C120.051 319.761 120.309 320.154 120.65 320.443C120.995 320.727 121.421 320.869 121.928 320.869ZM139.069 312.091L135.255 323H131.846L128.032 312.091H131.228L133.494 319.896H133.608L135.866 312.091H139.069ZM140.618 323V312.091H143.643V323H140.618ZM142.137 310.685C141.688 310.685 141.302 310.536 140.98 310.237C140.663 309.934 140.504 309.572 140.504 309.151C140.504 308.734 140.663 308.376 140.98 308.078C141.302 307.775 141.688 307.624 142.137 307.624C142.587 307.624 142.971 307.775 143.288 308.078C143.61 308.376 143.771 308.734 143.771 309.151C143.771 309.572 143.61 309.934 143.288 310.237C142.971 310.536 142.587 310.685 142.137 310.685ZM150.087 323.178C149.258 323.178 148.508 322.964 147.835 322.538C147.168 322.107 146.637 321.475 146.244 320.642C145.856 319.804 145.662 318.777 145.662 317.56C145.662 316.31 145.863 315.27 146.266 314.442C146.668 313.608 147.203 312.986 147.871 312.574C148.543 312.157 149.279 311.949 150.08 311.949C150.69 311.949 151.199 312.053 151.607 312.261C152.018 312.465 152.35 312.721 152.601 313.028C152.857 313.331 153.051 313.63 153.183 313.923H153.276V308.455H156.294V323H153.311V321.253H153.183C153.041 321.556 152.84 321.857 152.58 322.155C152.324 322.448 151.99 322.692 151.578 322.886C151.171 323.08 150.674 323.178 150.087 323.178ZM151.045 320.77C151.533 320.77 151.945 320.637 152.281 320.372C152.622 320.102 152.883 319.726 153.062 319.243C153.247 318.76 153.339 318.194 153.339 317.545C153.339 316.897 153.25 316.333 153.07 315.855C152.89 315.377 152.629 315.008 152.288 314.747C151.947 314.487 151.533 314.357 151.045 314.357C150.548 314.357 150.129 314.491 149.788 314.761C149.447 315.031 149.189 315.405 149.014 315.884C148.839 316.362 148.751 316.916 148.751 317.545C148.751 318.18 148.839 318.741 149.014 319.229C149.194 319.712 149.452 320.09 149.788 320.365C150.129 320.635 150.548 320.77 151.045 320.77ZM163.753 323.213C162.631 323.213 161.665 322.986 160.855 322.531C160.051 322.072 159.43 321.423 158.995 320.585C158.559 319.742 158.341 318.746 158.341 317.595C158.341 316.473 158.559 315.488 158.995 314.641C159.43 313.793 160.043 313.133 160.834 312.659C161.63 312.186 162.562 311.949 163.632 311.949C164.352 311.949 165.022 312.065 165.642 312.297C166.267 312.524 166.812 312.867 167.276 313.327C167.745 313.786 168.109 314.364 168.37 315.06C168.63 315.751 168.76 316.561 168.76 317.489V318.32H159.549V316.445H165.912C165.912 316.009 165.818 315.623 165.628 315.287C165.439 314.951 165.176 314.688 164.84 314.499C164.508 314.304 164.123 314.207 163.682 314.207C163.223 314.207 162.816 314.314 162.461 314.527C162.11 314.735 161.836 315.017 161.637 315.372C161.438 315.723 161.336 316.113 161.331 316.544V318.327C161.331 318.866 161.431 319.333 161.63 319.726C161.833 320.119 162.12 320.422 162.489 320.635C162.858 320.848 163.296 320.955 163.803 320.955C164.139 320.955 164.447 320.907 164.726 320.812C165.006 320.718 165.245 320.576 165.444 320.386C165.642 320.197 165.794 319.965 165.898 319.69L168.696 319.875C168.554 320.547 168.263 321.134 167.823 321.636C167.387 322.134 166.824 322.522 166.132 322.801C165.446 323.076 164.653 323.213 163.753 323.213ZM178.474 323.206C177.778 323.206 177.158 323.085 176.614 322.844C176.069 322.598 175.638 322.235 175.321 321.757C175.009 321.274 174.852 320.673 174.852 319.953C174.852 319.347 174.964 318.838 175.186 318.426C175.409 318.014 175.712 317.683 176.095 317.432C176.479 317.181 176.914 316.991 177.402 316.864C177.894 316.736 178.411 316.646 178.95 316.594C179.585 316.527 180.096 316.466 180.484 316.409C180.873 316.348 181.154 316.258 181.33 316.139C181.505 316.021 181.592 315.846 181.592 315.614V315.571C181.592 315.121 181.45 314.773 181.166 314.527C180.887 314.281 180.489 314.158 179.973 314.158C179.429 314.158 178.995 314.278 178.673 314.52C178.351 314.757 178.138 315.055 178.034 315.415L175.236 315.188C175.378 314.525 175.657 313.952 176.074 313.469C176.491 312.981 177.028 312.607 177.686 312.347C178.349 312.081 179.116 311.949 179.987 311.949C180.593 311.949 181.173 312.02 181.727 312.162C182.286 312.304 182.781 312.524 183.212 312.822C183.647 313.121 183.991 313.504 184.241 313.973C184.492 314.437 184.618 314.993 184.618 315.642V323H181.749V321.487H181.663C181.488 321.828 181.254 322.129 180.96 322.389C180.667 322.645 180.314 322.846 179.902 322.993C179.49 323.135 179.014 323.206 178.474 323.206ZM179.341 321.118C179.786 321.118 180.179 321.03 180.52 320.855C180.861 320.675 181.128 320.434 181.322 320.131C181.517 319.828 181.614 319.484 181.614 319.101V317.943C181.519 318.005 181.389 318.062 181.223 318.114C181.062 318.161 180.88 318.206 180.676 318.249C180.473 318.286 180.269 318.322 180.065 318.355C179.862 318.384 179.677 318.41 179.511 318.433C179.156 318.485 178.846 318.568 178.581 318.682C178.316 318.795 178.11 318.949 177.963 319.143C177.816 319.333 177.743 319.57 177.743 319.854C177.743 320.266 177.892 320.58 178.19 320.798C178.493 321.011 178.877 321.118 179.341 321.118ZM191.894 323.213C190.777 323.213 189.816 322.976 189.011 322.503C188.21 322.025 187.595 321.362 187.164 320.514C186.738 319.667 186.525 318.691 186.525 317.588C186.525 316.471 186.74 315.491 187.171 314.648C187.607 313.8 188.225 313.14 189.025 312.666C189.825 312.188 190.777 311.949 191.88 311.949C192.832 311.949 193.665 312.122 194.38 312.467C195.095 312.813 195.661 313.298 196.077 313.923C196.494 314.548 196.724 315.282 196.766 316.125H193.911C193.831 315.58 193.618 315.143 193.272 314.811C192.931 314.475 192.484 314.307 191.93 314.307C191.461 314.307 191.051 314.435 190.701 314.69C190.355 314.941 190.085 315.308 189.891 315.791C189.697 316.274 189.6 316.859 189.6 317.545C189.6 318.241 189.695 318.833 189.884 319.321C190.078 319.809 190.351 320.18 190.701 320.436C191.051 320.692 191.461 320.82 191.93 320.82C192.275 320.82 192.585 320.749 192.86 320.607C193.139 320.464 193.369 320.259 193.549 319.989C193.734 319.714 193.854 319.385 193.911 319.001H196.766C196.719 319.835 196.492 320.569 196.085 321.203C195.682 321.833 195.126 322.325 194.415 322.68C193.705 323.036 192.865 323.213 191.894 323.213ZM203.632 323.213C202.515 323.213 201.554 322.976 200.749 322.503C199.949 322.025 199.333 321.362 198.902 320.514C198.476 319.667 198.263 318.691 198.263 317.588C198.263 316.471 198.479 315.491 198.909 314.648C199.345 313.8 199.963 313.14 200.763 312.666C201.563 312.188 202.515 311.949 203.618 311.949C204.57 311.949 205.403 312.122 206.118 312.467C206.833 312.813 207.399 313.298 207.816 313.923C208.232 314.548 208.462 315.282 208.505 316.125H205.65C205.569 315.58 205.356 315.143 205.01 314.811C204.669 314.475 204.222 314.307 203.668 314.307C203.199 314.307 202.79 314.435 202.439 314.69C202.094 314.941 201.824 315.308 201.63 315.791C201.435 316.274 201.338 316.859 201.338 317.545C201.338 318.241 201.433 318.833 201.623 319.321C201.817 319.809 202.089 320.18 202.439 320.436C202.79 320.692 203.199 320.82 203.668 320.82C204.014 320.82 204.324 320.749 204.598 320.607C204.878 320.464 205.107 320.259 205.287 319.989C205.472 319.714 205.593 319.385 205.65 319.001H208.505C208.457 319.835 208.23 320.569 207.823 321.203C207.42 321.833 206.864 322.325 206.154 322.68C205.444 323.036 204.603 323.213 203.632 323.213ZM215.413 323.213C214.291 323.213 213.325 322.986 212.516 322.531C211.711 322.072 211.09 321.423 210.655 320.585C210.219 319.742 210.001 318.746 210.001 317.595C210.001 316.473 210.219 315.488 210.655 314.641C211.09 313.793 211.704 313.133 212.494 312.659C213.29 312.186 214.223 311.949 215.293 311.949C216.012 311.949 216.682 312.065 217.303 312.297C217.928 312.524 218.472 312.867 218.936 313.327C219.405 313.786 219.769 314.364 220.03 315.06C220.29 315.751 220.42 316.561 220.42 317.489V318.32H211.209V316.445H217.572C217.572 316.009 217.478 315.623 217.288 315.287C217.099 314.951 216.836 314.688 216.5 314.499C216.169 314.304 215.783 314.207 215.342 314.207C214.883 314.207 214.476 314.314 214.121 314.527C213.77 314.735 213.496 315.017 213.297 315.372C213.098 315.723 212.996 316.113 212.991 316.544V318.327C212.991 318.866 213.091 319.333 213.29 319.726C213.493 320.119 213.78 320.422 214.149 320.635C214.518 320.848 214.956 320.955 215.463 320.955C215.799 320.955 216.107 320.907 216.386 320.812C216.666 320.718 216.905 320.576 217.104 320.386C217.303 320.197 217.454 319.965 217.558 319.69L220.357 319.875C220.214 320.547 219.923 321.134 219.483 321.636C219.047 322.134 218.484 322.522 217.793 322.801C217.106 323.076 216.313 323.213 215.413 323.213ZM231.472 315.202L228.702 315.372C228.654 315.135 228.553 314.922 228.396 314.733C228.24 314.539 228.034 314.385 227.778 314.271C227.527 314.153 227.227 314.094 226.876 314.094C226.408 314.094 226.012 314.193 225.69 314.392C225.368 314.586 225.207 314.847 225.207 315.173C225.207 315.434 225.312 315.654 225.52 315.834C225.728 316.014 226.086 316.158 226.592 316.267L228.567 316.665C229.627 316.883 230.418 317.233 230.939 317.716C231.46 318.199 231.72 318.833 231.72 319.619C231.72 320.334 231.509 320.962 231.088 321.501C230.671 322.041 230.098 322.463 229.369 322.766C228.645 323.064 227.809 323.213 226.862 323.213C225.418 323.213 224.268 322.912 223.411 322.311C222.558 321.705 222.059 320.881 221.912 319.839L224.888 319.683C224.978 320.124 225.196 320.46 225.541 320.692C225.887 320.919 226.33 321.033 226.869 321.033C227.4 321.033 227.826 320.931 228.148 320.727C228.474 320.519 228.64 320.251 228.645 319.925C228.64 319.65 228.524 319.425 228.297 319.25C228.07 319.07 227.719 318.933 227.246 318.838L225.357 318.462C224.291 318.249 223.498 317.879 222.977 317.354C222.461 316.828 222.203 316.158 222.203 315.344C222.203 314.643 222.393 314.039 222.771 313.533C223.155 313.026 223.692 312.635 224.384 312.361C225.08 312.086 225.894 311.949 226.827 311.949C228.205 311.949 229.289 312.24 230.08 312.822C230.875 313.405 231.339 314.198 231.472 315.202ZM242.702 315.202L239.932 315.372C239.885 315.135 239.783 314.922 239.627 314.733C239.471 314.539 239.265 314.385 239.009 314.271C238.758 314.153 238.457 314.094 238.107 314.094C237.638 314.094 237.243 314.193 236.921 314.392C236.599 314.586 236.438 314.847 236.438 315.173C236.438 315.434 236.542 315.654 236.75 315.834C236.959 316.014 237.316 316.158 237.823 316.267L239.797 316.665C240.858 316.883 241.649 317.233 242.169 317.716C242.69 318.199 242.951 318.833 242.951 319.619C242.951 320.334 242.74 320.962 242.319 321.501C241.902 322.041 241.329 322.463 240.6 322.766C239.875 323.064 239.04 323.213 238.093 323.213C236.649 323.213 235.498 322.912 234.641 322.311C233.789 321.705 233.289 320.881 233.142 319.839L236.118 319.683C236.208 320.124 236.426 320.46 236.772 320.692C237.117 320.919 237.56 321.033 238.1 321.033C238.63 321.033 239.056 320.931 239.378 320.727C239.705 320.519 239.871 320.251 239.875 319.925C239.871 319.65 239.755 319.425 239.527 319.25C239.3 319.07 238.95 318.933 238.476 318.838L236.587 318.462C235.522 318.249 234.729 317.879 234.208 317.354C233.692 316.828 233.434 316.158 233.434 315.344C233.434 314.643 233.623 314.039 234.002 313.533C234.385 313.026 234.923 312.635 235.614 312.361C236.31 312.086 237.124 311.949 238.057 311.949C239.435 311.949 240.519 312.24 241.31 312.822C242.105 313.405 242.569 314.198 242.702 315.202ZM244.856 323V312.091H247.881V323H244.856ZM246.376 310.685C245.926 310.685 245.54 310.536 245.218 310.237C244.901 309.934 244.742 309.572 244.742 309.151C244.742 308.734 244.901 308.376 245.218 308.078C245.54 307.775 245.926 307.624 246.376 307.624C246.826 307.624 247.209 307.775 247.526 308.078C247.848 308.376 248.009 308.734 248.009 309.151C248.009 309.572 247.848 309.934 247.526 310.237C247.209 310.536 246.826 310.685 246.376 310.685ZM250.362 323V308.455H253.387V313.923H253.48C253.612 313.63 253.804 313.331 254.055 313.028C254.311 312.721 254.642 312.465 255.049 312.261C255.461 312.053 255.973 311.949 256.583 311.949C257.379 311.949 258.113 312.157 258.785 312.574C259.458 312.986 259.995 313.608 260.397 314.442C260.8 315.27 261.001 316.31 261.001 317.56C261.001 318.777 260.805 319.804 260.412 320.642C260.023 321.475 259.493 322.107 258.821 322.538C258.153 322.964 257.405 323.178 256.576 323.178C255.989 323.178 255.49 323.08 255.078 322.886C254.671 322.692 254.337 322.448 254.076 322.155C253.816 321.857 253.617 321.556 253.48 321.253H253.345V323H250.362ZM253.324 317.545C253.324 318.194 253.413 318.76 253.593 319.243C253.773 319.726 254.034 320.102 254.375 320.372C254.716 320.637 255.13 320.77 255.618 320.77C256.11 320.77 256.527 320.635 256.868 320.365C257.208 320.09 257.467 319.712 257.642 319.229C257.822 318.741 257.912 318.18 257.912 317.545C257.912 316.916 257.824 316.362 257.649 315.884C257.474 315.405 257.216 315.031 256.875 314.761C256.534 314.491 256.115 314.357 255.618 314.357C255.125 314.357 254.708 314.487 254.368 314.747C254.031 315.008 253.773 315.377 253.593 315.855C253.413 316.333 253.324 316.897 253.324 317.545ZM266.045 308.455V323H263.02V308.455H266.045ZM273.441 323.213C272.319 323.213 271.353 322.986 270.543 322.531C269.738 322.072 269.118 321.423 268.682 320.585C268.247 319.742 268.029 318.746 268.029 317.595C268.029 316.473 268.247 315.488 268.682 314.641C269.118 313.793 269.731 313.133 270.522 312.659C271.317 312.186 272.25 311.949 273.32 311.949C274.04 311.949 274.71 312.065 275.33 312.297C275.955 312.524 276.499 312.867 276.963 313.327C277.432 313.786 277.797 314.364 278.057 315.06C278.318 315.751 278.448 316.561 278.448 317.489V318.32H269.236V316.445H275.6C275.6 316.009 275.505 315.623 275.316 315.287C275.126 314.951 274.864 314.688 274.527 314.499C274.196 314.304 273.81 314.207 273.37 314.207C272.91 314.207 272.503 314.314 272.148 314.527C271.798 314.735 271.523 315.017 271.324 315.372C271.125 315.723 271.024 316.113 271.019 316.544V318.327C271.019 318.866 271.118 319.333 271.317 319.726C271.521 320.119 271.807 320.422 272.176 320.635C272.546 320.848 272.984 320.955 273.49 320.955C273.827 320.955 274.134 320.907 274.414 320.812C274.693 320.718 274.932 320.576 275.131 320.386C275.33 320.197 275.481 319.965 275.586 319.69L278.384 319.875C278.242 320.547 277.951 321.134 277.51 321.636C277.075 322.134 276.511 322.522 275.82 322.801C275.133 323.076 274.34 323.213 273.441 323.213ZM288.077 308.455V323H285.051V308.455H288.077ZM293.611 323.206C292.915 323.206 292.295 323.085 291.75 322.844C291.206 322.598 290.775 322.235 290.458 321.757C290.145 321.274 289.989 320.673 289.989 319.953C289.989 319.347 290.1 318.838 290.323 318.426C290.545 318.014 290.848 317.683 291.232 317.432C291.615 317.181 292.051 316.991 292.539 316.864C293.031 316.736 293.547 316.646 294.087 316.594C294.721 316.527 295.233 316.466 295.621 316.409C296.009 316.348 296.291 316.258 296.466 316.139C296.641 316.021 296.729 315.846 296.729 315.614V315.571C296.729 315.121 296.587 314.773 296.303 314.527C296.024 314.281 295.626 314.158 295.11 314.158C294.565 314.158 294.132 314.278 293.81 314.52C293.488 314.757 293.275 315.055 293.171 315.415L290.373 315.188C290.515 314.525 290.794 313.952 291.211 313.469C291.627 312.981 292.165 312.607 292.823 312.347C293.486 312.081 294.253 311.949 295.124 311.949C295.73 311.949 296.31 312.02 296.864 312.162C297.423 312.304 297.917 312.524 298.348 312.822C298.784 313.121 299.127 313.504 299.378 313.973C299.629 314.437 299.755 314.993 299.755 315.642V323H296.885V321.487H296.8C296.625 321.828 296.391 322.129 296.097 322.389C295.803 322.645 295.451 322.846 295.039 322.993C294.627 323.135 294.151 323.206 293.611 323.206ZM294.478 321.118C294.923 321.118 295.316 321.03 295.657 320.855C295.998 320.675 296.265 320.434 296.459 320.131C296.653 319.828 296.75 319.484 296.75 319.101V317.943C296.656 318.005 296.525 318.062 296.36 318.114C296.199 318.161 296.016 318.206 295.813 318.249C295.609 318.286 295.406 318.322 295.202 318.355C294.998 318.384 294.814 318.41 294.648 318.433C294.293 318.485 293.983 318.568 293.718 318.682C293.453 318.795 293.247 318.949 293.1 319.143C292.953 319.333 292.88 319.57 292.88 319.854C292.88 320.266 293.029 320.58 293.327 320.798C293.63 321.011 294.014 321.118 294.478 321.118ZM302.159 323V308.455H305.184V313.923H305.277C305.409 313.63 305.601 313.331 305.852 313.028C306.108 312.721 306.439 312.465 306.846 312.261C307.258 312.053 307.77 311.949 308.38 311.949C309.176 311.949 309.91 312.157 310.582 312.574C311.254 312.986 311.792 313.608 312.194 314.442C312.597 315.27 312.798 316.31 312.798 317.56C312.798 318.777 312.601 319.804 312.208 320.642C311.82 321.475 311.29 322.107 310.618 322.538C309.95 322.964 309.202 323.178 308.373 323.178C307.786 323.178 307.287 323.08 306.875 322.886C306.467 322.692 306.134 322.448 305.873 322.155C305.613 321.857 305.414 321.556 305.277 321.253H305.142V323H302.159ZM305.12 317.545C305.12 318.194 305.21 318.76 305.39 319.243C305.57 319.726 305.831 320.102 306.172 320.372C306.512 320.637 306.927 320.77 307.414 320.77C307.907 320.77 308.324 320.635 308.664 320.365C309.005 320.09 309.263 319.712 309.439 319.229C309.618 318.741 309.708 318.18 309.708 317.545C309.708 316.916 309.621 316.362 309.446 315.884C309.27 315.405 309.012 315.031 308.672 314.761C308.331 314.491 307.912 314.357 307.414 314.357C306.922 314.357 306.505 314.487 306.164 314.747C305.828 315.008 305.57 315.377 305.39 315.855C305.21 316.333 305.12 316.897 305.12 317.545ZM319.788 323.213C318.666 323.213 317.7 322.986 316.891 322.531C316.086 322.072 315.465 321.423 315.03 320.585C314.594 319.742 314.376 318.746 314.376 317.595C314.376 316.473 314.594 315.488 315.03 314.641C315.465 313.793 316.079 313.133 316.869 312.659C317.665 312.186 318.598 311.949 319.668 311.949C320.387 311.949 321.057 312.065 321.678 312.297C322.303 312.524 322.847 312.867 323.311 313.327C323.78 313.786 324.144 314.364 324.405 315.06C324.665 315.751 324.795 316.561 324.795 317.489V318.32H315.584V316.445H321.947C321.947 316.009 321.853 315.623 321.663 315.287C321.474 314.951 321.211 314.688 320.875 314.499C320.544 314.304 320.158 314.207 319.717 314.207C319.258 314.207 318.851 314.314 318.496 314.527C318.145 314.735 317.871 315.017 317.672 315.372C317.473 315.723 317.371 316.113 317.366 316.544V318.327C317.366 318.866 317.466 319.333 317.665 319.726C317.868 320.119 318.155 320.422 318.524 320.635C318.893 320.848 319.331 320.955 319.838 320.955C320.174 320.955 320.482 320.907 320.761 320.812C321.041 320.718 321.28 320.576 321.479 320.386C321.678 320.197 321.829 319.965 321.933 319.69L324.732 319.875C324.589 320.547 324.298 321.134 323.858 321.636C323.422 322.134 322.859 322.522 322.168 322.801C321.481 323.076 320.688 323.213 319.788 323.213ZM329.795 308.455V323H326.77V308.455H329.795ZM342.714 312.091V314.364H335.982V312.091H342.714ZM337.523 323V311.303C337.523 310.512 337.677 309.856 337.984 309.335C338.297 308.814 338.723 308.424 339.263 308.163C339.803 307.903 340.416 307.773 341.102 307.773C341.566 307.773 341.99 307.808 342.374 307.879C342.762 307.95 343.051 308.014 343.24 308.071L342.7 310.344C342.582 310.306 342.435 310.27 342.26 310.237C342.089 310.204 341.914 310.188 341.734 310.188C341.289 310.188 340.979 310.292 340.804 310.5C340.629 310.704 340.541 310.99 340.541 311.359V323H337.523ZM349.101 323.213C347.998 323.213 347.044 322.979 346.239 322.51C345.439 322.036 344.821 321.378 344.385 320.536C343.95 319.688 343.732 318.705 343.732 317.588C343.732 316.461 343.95 315.476 344.385 314.634C344.821 313.786 345.439 313.128 346.239 312.659C347.044 312.186 347.998 311.949 349.101 311.949C350.204 311.949 351.156 312.186 351.956 312.659C352.761 313.128 353.382 313.786 353.817 314.634C354.253 315.476 354.471 316.461 354.471 317.588C354.471 318.705 354.253 319.688 353.817 320.536C353.382 321.378 352.761 322.036 351.956 322.51C351.156 322.979 350.204 323.213 349.101 323.213ZM349.115 320.869C349.617 320.869 350.036 320.727 350.373 320.443C350.709 320.154 350.962 319.761 351.132 319.264C351.308 318.767 351.395 318.201 351.395 317.567C351.395 316.932 351.308 316.366 351.132 315.869C350.962 315.372 350.709 314.979 350.373 314.69C350.036 314.402 349.617 314.257 349.115 314.257C348.609 314.257 348.183 314.402 347.837 314.69C347.496 314.979 347.238 315.372 347.063 315.869C346.892 316.366 346.807 316.932 346.807 317.567C346.807 318.201 346.892 318.767 347.063 319.264C347.238 319.761 347.496 320.154 347.837 320.443C348.183 320.727 348.609 320.869 349.115 320.869ZM356.438 323V312.091H359.371V313.994H359.485C359.684 313.317 360.017 312.806 360.486 312.46C360.955 312.11 361.495 311.935 362.105 311.935C362.257 311.935 362.42 311.944 362.596 311.963C362.771 311.982 362.925 312.008 363.057 312.041V314.726C362.915 314.683 362.719 314.645 362.468 314.612C362.217 314.579 361.987 314.562 361.779 314.562C361.334 314.562 360.936 314.66 360.586 314.854C360.24 315.043 359.965 315.308 359.762 315.649C359.563 315.99 359.463 316.383 359.463 316.828V323H356.438ZM65.2074 347V336.091H68.233V347H65.2074ZM66.7273 334.685C66.2775 334.685 65.8916 334.536 65.5696 334.237C65.2524 333.934 65.0938 333.572 65.0938 333.151C65.0938 332.734 65.2524 332.376 65.5696 332.078C65.8916 331.775 66.2775 331.624 66.7273 331.624C67.1771 331.624 67.5606 331.775 67.8778 332.078C68.1998 332.376 68.3608 332.734 68.3608 333.151C68.3608 333.572 68.1998 333.934 67.8778 334.237C67.5606 334.536 67.1771 334.685 66.7273 334.685ZM75.5856 347.213C74.4682 347.213 73.507 346.976 72.7021 346.503C71.9019 346.025 71.2863 345.362 70.8555 344.514C70.4293 343.667 70.2163 342.691 70.2163 341.588C70.2163 340.471 70.4317 339.491 70.8626 338.648C71.2982 337.8 71.9161 337.14 72.7163 336.666C73.5165 336.188 74.4682 335.949 75.5714 335.949C76.5231 335.949 77.3564 336.122 78.0714 336.467C78.7863 336.813 79.3522 337.298 79.7688 337.923C80.1855 338.548 80.4151 339.282 80.4577 340.125H77.6026C77.5221 339.58 77.3091 339.143 76.9634 338.811C76.6225 338.475 76.1751 338.307 75.6211 338.307C75.1523 338.307 74.7428 338.435 74.3924 338.69C74.0468 338.941 73.7769 339.308 73.5827 339.791C73.3886 340.274 73.2915 340.859 73.2915 341.545C73.2915 342.241 73.3862 342.833 73.5756 343.321C73.7698 343.809 74.042 344.18 74.3924 344.436C74.7428 344.692 75.1523 344.82 75.6211 344.82C75.9667 344.82 76.2769 344.749 76.5515 344.607C76.8308 344.464 77.0605 344.259 77.2404 343.989C77.4251 343.714 77.5458 343.385 77.6026 343.001H80.4577C80.4104 343.835 80.1831 344.569 79.7759 345.203C79.3735 345.833 78.8171 346.325 78.1069 346.68C77.3967 347.036 76.5562 347.213 75.5856 347.213ZM87.3239 347.213C86.2206 347.213 85.2666 346.979 84.4616 346.51C83.6615 346.036 83.0436 345.378 82.608 344.536C82.1723 343.688 81.9545 342.705 81.9545 341.588C81.9545 340.461 82.1723 339.476 82.608 338.634C83.0436 337.786 83.6615 337.128 84.4616 336.659C85.2666 336.186 86.2206 335.949 87.3239 335.949C88.4271 335.949 89.3788 336.186 90.179 336.659C90.9839 337.128 91.6042 337.786 92.0398 338.634C92.4754 339.476 92.6932 340.461 92.6932 341.588C92.6932 342.705 92.4754 343.688 92.0398 344.536C91.6042 345.378 90.9839 346.036 90.179 346.51C89.3788 346.979 88.4271 347.213 87.3239 347.213ZM87.3381 344.869C87.84 344.869 88.259 344.727 88.5952 344.443C88.9313 344.154 89.1847 343.761 89.3551 343.264C89.5303 342.767 89.6179 342.201 89.6179 341.567C89.6179 340.932 89.5303 340.366 89.3551 339.869C89.1847 339.372 88.9313 338.979 88.5952 338.69C88.259 338.402 87.84 338.257 87.3381 338.257C86.8314 338.257 86.4053 338.402 86.0597 338.69C85.7188 338.979 85.4607 339.372 85.2855 339.869C85.1151 340.366 85.0298 340.932 85.0298 341.567C85.0298 342.201 85.1151 342.767 85.2855 343.264C85.4607 343.761 85.7188 344.154 86.0597 344.443C86.4053 344.727 86.8314 344.869 87.3381 344.869ZM97.6861 340.693V347H94.6605V336.091H97.544V338.016H97.6719C97.9134 337.381 98.3182 336.879 98.8864 336.51C99.4545 336.136 100.143 335.949 100.953 335.949C101.711 335.949 102.371 336.115 102.935 336.446C103.498 336.777 103.936 337.251 104.249 337.866C104.561 338.477 104.717 339.206 104.717 340.054V347H101.692V340.594C101.696 339.926 101.526 339.405 101.18 339.031C100.835 338.652 100.359 338.463 99.7528 338.463C99.3456 338.463 98.9858 338.551 98.6733 338.726C98.3655 338.901 98.1241 339.157 97.9489 339.493C97.7784 339.824 97.6908 340.224 97.6861 340.693ZM111.788 347V332.455H114.813V337.923H114.906C115.038 337.63 115.23 337.331 115.481 337.028C115.737 336.721 116.068 336.465 116.475 336.261C116.887 336.053 117.398 335.949 118.009 335.949C118.805 335.949 119.539 336.157 120.211 336.574C120.883 336.986 121.421 337.608 121.823 338.442C122.226 339.27 122.427 340.31 122.427 341.56C122.427 342.777 122.23 343.804 121.837 344.642C121.449 345.475 120.919 346.107 120.246 346.538C119.579 346.964 118.831 347.178 118.002 347.178C117.415 347.178 116.915 347.08 116.504 346.886C116.096 346.692 115.763 346.448 115.502 346.155C115.242 345.857 115.043 345.556 114.906 345.253H114.771V347H111.788ZM114.749 341.545C114.749 342.194 114.839 342.76 115.019 343.243C115.199 343.726 115.46 344.102 115.8 344.372C116.141 344.637 116.556 344.77 117.043 344.77C117.536 344.77 117.952 344.635 118.293 344.365C118.634 344.09 118.892 343.712 119.067 343.229C119.247 342.741 119.337 342.18 119.337 341.545C119.337 340.916 119.25 340.362 119.075 339.884C118.899 339.405 118.641 339.031 118.3 338.761C117.96 338.491 117.54 338.357 117.043 338.357C116.551 338.357 116.134 338.487 115.793 338.747C115.457 339.008 115.199 339.377 115.019 339.855C114.839 340.333 114.749 340.897 114.749 341.545ZM131.441 342.355V336.091H134.467V347H131.562V345.018H131.449C131.202 345.658 130.793 346.171 130.22 346.56C129.652 346.948 128.958 347.142 128.139 347.142C127.41 347.142 126.768 346.976 126.214 346.645C125.66 346.313 125.227 345.842 124.914 345.232C124.607 344.621 124.45 343.889 124.446 343.037V336.091H127.471V342.497C127.476 343.141 127.649 343.65 127.99 344.024C128.331 344.398 128.788 344.585 129.36 344.585C129.725 344.585 130.066 344.502 130.383 344.337C130.7 344.166 130.956 343.915 131.15 343.584C131.349 343.252 131.446 342.843 131.441 342.355ZM142.69 336.091V338.364H136.12V336.091H142.69ZM137.612 333.477H140.637V343.648C140.637 343.927 140.68 344.145 140.765 344.301C140.85 344.453 140.969 344.559 141.12 344.621C141.276 344.682 141.456 344.713 141.66 344.713C141.802 344.713 141.944 344.701 142.086 344.678C142.228 344.649 142.337 344.628 142.413 344.614L142.888 346.865C142.737 346.912 142.524 346.967 142.249 347.028C141.975 347.095 141.641 347.135 141.248 347.149C140.519 347.178 139.879 347.08 139.33 346.858C138.786 346.635 138.362 346.29 138.059 345.821C137.756 345.352 137.607 344.76 137.612 344.045V333.477ZM150.463 336.091V338.364H143.893V336.091H150.463ZM145.385 333.477H148.411V343.648C148.411 343.927 148.453 344.145 148.538 344.301C148.624 344.453 148.742 344.559 148.893 344.621C149.05 344.682 149.23 344.713 149.433 344.713C149.575 344.713 149.717 344.701 149.859 344.678C150.001 344.649 150.11 344.628 150.186 344.614L150.662 346.865C150.51 346.912 150.297 346.967 150.023 347.028C149.748 347.095 149.414 347.135 149.021 347.149C148.292 347.178 147.653 347.08 147.104 346.858C146.559 346.635 146.135 346.29 145.832 345.821C145.529 345.352 145.38 344.76 145.385 344.045V333.477ZM157.246 347.213C156.143 347.213 155.188 346.979 154.384 346.51C153.583 346.036 152.965 345.378 152.53 344.536C152.094 343.688 151.876 342.705 151.876 341.588C151.876 340.461 152.094 339.476 152.53 338.634C152.965 337.786 153.583 337.128 154.384 336.659C155.188 336.186 156.143 335.949 157.246 335.949C158.349 335.949 159.301 336.186 160.101 336.659C160.906 337.128 161.526 337.786 161.962 338.634C162.397 339.476 162.615 340.461 162.615 341.588C162.615 342.705 162.397 343.688 161.962 344.536C161.526 345.378 160.906 346.036 160.101 346.51C159.301 346.979 158.349 347.213 157.246 347.213ZM157.26 344.869C157.762 344.869 158.181 344.727 158.517 344.443C158.853 344.154 159.107 343.761 159.277 343.264C159.452 342.767 159.54 342.201 159.54 341.567C159.54 340.932 159.452 340.366 159.277 339.869C159.107 339.372 158.853 338.979 158.517 338.69C158.181 338.402 157.762 338.257 157.26 338.257C156.753 338.257 156.327 338.402 155.982 338.69C155.641 338.979 155.383 339.372 155.207 339.869C155.037 340.366 154.952 340.932 154.952 341.567C154.952 342.201 155.037 342.767 155.207 343.264C155.383 343.761 155.641 344.154 155.982 344.443C156.327 344.727 156.753 344.869 157.26 344.869ZM167.608 340.693V347H164.582V336.091H167.466V338.016H167.594C167.835 337.381 168.24 336.879 168.808 336.51C169.376 336.136 170.065 335.949 170.875 335.949C171.633 335.949 172.293 336.115 172.857 336.446C173.42 336.777 173.858 337.251 174.17 337.866C174.483 338.477 174.639 339.206 174.639 340.054V347H171.614V340.594C171.618 339.926 171.448 339.405 171.102 339.031C170.757 338.652 170.281 338.463 169.675 338.463C169.268 338.463 168.908 338.551 168.595 338.726C168.287 338.901 168.046 339.157 167.871 339.493C167.7 339.824 167.613 340.224 167.608 340.693ZM186.1 339.202L183.331 339.372C183.283 339.135 183.181 338.922 183.025 338.733C182.869 338.539 182.663 338.385 182.407 338.271C182.156 338.153 181.856 338.094 181.505 338.094C181.037 338.094 180.641 338.193 180.319 338.392C179.997 338.586 179.836 338.847 179.836 339.173C179.836 339.434 179.94 339.654 180.149 339.834C180.357 340.014 180.715 340.158 181.221 340.267L183.196 340.665C184.256 340.883 185.047 341.233 185.568 341.716C186.089 342.199 186.349 342.833 186.349 343.619C186.349 344.334 186.138 344.962 185.717 345.501C185.3 346.041 184.727 346.463 183.998 346.766C183.274 347.064 182.438 347.213 181.491 347.213C180.047 347.213 178.896 346.912 178.039 346.311C177.187 345.705 176.688 344.881 176.541 343.839L179.517 343.683C179.607 344.124 179.824 344.46 180.17 344.692C180.516 344.919 180.958 345.033 181.498 345.033C182.029 345.033 182.455 344.931 182.777 344.727C183.103 344.519 183.269 344.251 183.274 343.925C183.269 343.65 183.153 343.425 182.926 343.25C182.699 343.07 182.348 342.933 181.875 342.838L179.985 342.462C178.92 342.249 178.127 341.879 177.606 341.354C177.09 340.828 176.832 340.158 176.832 339.344C176.832 338.643 177.021 338.039 177.4 337.533C177.784 337.026 178.321 336.635 179.012 336.361C179.708 336.086 180.523 335.949 181.456 335.949C182.833 335.949 183.918 336.24 184.708 336.822C185.504 337.405 185.968 338.198 186.1 339.202ZM198.686 336.091V338.364H192.116V336.091H198.686ZM193.608 333.477H196.633V343.648C196.633 343.927 196.676 344.145 196.761 344.301C196.846 344.453 196.965 344.559 197.116 344.621C197.272 344.682 197.452 344.713 197.656 344.713C197.798 344.713 197.94 344.701 198.082 344.678C198.224 344.649 198.333 344.628 198.409 344.614L198.885 346.865C198.733 346.912 198.52 346.967 198.245 347.028C197.971 347.095 197.637 347.135 197.244 347.149C196.515 347.178 195.876 347.08 195.326 346.858C194.782 346.635 194.358 346.29 194.055 345.821C193.752 345.352 193.603 344.76 193.608 344.045V333.477ZM203.917 340.693V347H200.891V332.455H203.831V338.016H203.959C204.205 337.372 204.603 336.867 205.152 336.503C205.702 336.134 206.391 335.949 207.219 335.949C207.977 335.949 208.637 336.115 209.201 336.446C209.769 336.773 210.209 337.244 210.522 337.859C210.839 338.47 210.995 339.202 210.99 340.054V347H207.965V340.594C207.97 339.921 207.799 339.398 207.453 339.024C207.113 338.65 206.634 338.463 206.019 338.463C205.607 338.463 205.242 338.551 204.925 338.726C204.613 338.901 204.366 339.157 204.186 339.493C204.011 339.824 203.921 340.224 203.917 340.693ZM218.343 347.213C217.221 347.213 216.255 346.986 215.445 346.531C214.64 346.072 214.02 345.423 213.585 344.585C213.149 343.742 212.931 342.746 212.931 341.595C212.931 340.473 213.149 339.488 213.585 338.641C214.02 337.793 214.633 337.133 215.424 336.659C216.219 336.186 217.152 335.949 218.222 335.949C218.942 335.949 219.612 336.065 220.232 336.297C220.857 336.524 221.402 336.867 221.866 337.327C222.335 337.786 222.699 338.364 222.96 339.06C223.22 339.751 223.35 340.561 223.35 341.489V342.32H214.138V340.445H220.502C220.502 340.009 220.407 339.623 220.218 339.287C220.029 338.951 219.766 338.688 219.43 338.499C219.098 338.304 218.712 338.207 218.272 338.207C217.813 338.207 217.406 338.314 217.05 338.527C216.7 338.735 216.425 339.017 216.227 339.372C216.028 339.723 215.926 340.113 215.921 340.544V342.327C215.921 342.866 216.021 343.333 216.219 343.726C216.423 344.119 216.71 344.422 217.079 344.635C217.448 344.848 217.886 344.955 218.393 344.955C218.729 344.955 219.037 344.907 219.316 344.812C219.595 344.718 219.835 344.576 220.033 344.386C220.232 344.197 220.384 343.965 220.488 343.69L223.286 343.875C223.144 344.547 222.853 345.134 222.413 345.636C221.977 346.134 221.414 346.522 220.722 346.801C220.036 347.076 219.243 347.213 218.343 347.213ZM225.325 347V336.091H228.208V338.016H228.336C228.563 337.376 228.942 336.872 229.472 336.503C230.003 336.134 230.637 335.949 231.376 335.949C232.124 335.949 232.761 336.136 233.286 336.51C233.812 336.879 234.162 337.381 234.337 338.016H234.451C234.674 337.391 235.076 336.891 235.658 336.517C236.246 336.138 236.939 335.949 237.739 335.949C238.757 335.949 239.584 336.273 240.218 336.922C240.857 337.566 241.177 338.48 241.177 339.663V347H238.158V340.26C238.158 339.654 237.997 339.199 237.675 338.896C237.353 338.593 236.951 338.442 236.468 338.442C235.919 338.442 235.49 338.617 235.183 338.967C234.875 339.313 234.721 339.77 234.721 340.338V347H231.788V340.196C231.788 339.661 231.634 339.235 231.326 338.918C231.023 338.6 230.623 338.442 230.126 338.442C229.79 338.442 229.487 338.527 229.217 338.697C228.951 338.863 228.741 339.098 228.585 339.401C228.428 339.699 228.35 340.049 228.35 340.452V347H225.325ZM252.643 339.202L249.874 339.372C249.826 339.135 249.724 338.922 249.568 338.733C249.412 338.539 249.206 338.385 248.95 338.271C248.699 338.153 248.399 338.094 248.048 338.094C247.58 338.094 247.184 338.193 246.862 338.392C246.54 338.586 246.379 338.847 246.379 339.173C246.379 339.434 246.483 339.654 246.692 339.834C246.9 340.014 247.258 340.158 247.764 340.267L249.739 340.665C250.799 340.883 251.59 341.233 252.111 341.716C252.632 342.199 252.892 342.833 252.892 343.619C252.892 344.334 252.681 344.962 252.26 345.501C251.843 346.041 251.27 346.463 250.541 346.766C249.817 347.064 248.981 347.213 248.034 347.213C246.59 347.213 245.439 346.912 244.582 346.311C243.73 345.705 243.231 344.881 243.084 343.839L246.06 343.683C246.15 344.124 246.367 344.46 246.713 344.692C247.059 344.919 247.501 345.033 248.041 345.033C248.571 345.033 248.998 344.931 249.32 344.727C249.646 344.519 249.812 344.251 249.817 343.925C249.812 343.65 249.696 343.425 249.469 343.25C249.241 343.07 248.891 342.933 248.418 342.838L246.528 342.462C245.463 342.249 244.67 341.879 244.149 341.354C243.633 340.828 243.375 340.158 243.375 339.344C243.375 338.643 243.564 338.039 243.943 337.533C244.327 337.026 244.864 336.635 245.555 336.361C246.251 336.086 247.066 335.949 247.999 335.949C249.376 335.949 250.461 336.24 251.251 336.822C252.047 337.405 252.511 338.198 252.643 339.202ZM259.769 347.213C258.647 347.213 257.681 346.986 256.871 346.531C256.066 346.072 255.446 345.423 255.01 344.585C254.575 343.742 254.357 342.746 254.357 341.595C254.357 340.473 254.575 339.488 255.01 338.641C255.446 337.793 256.059 337.133 256.85 336.659C257.645 336.186 258.578 335.949 259.648 335.949C260.368 335.949 261.038 336.065 261.658 336.297C262.283 336.524 262.828 336.867 263.292 337.327C263.76 337.786 264.125 338.364 264.385 339.06C264.646 339.751 264.776 340.561 264.776 341.489V342.32H255.564V340.445H261.928C261.928 340.009 261.833 339.623 261.644 339.287C261.454 338.951 261.192 338.688 260.855 338.499C260.524 338.304 260.138 338.207 259.698 338.207C259.239 338.207 258.831 338.314 258.476 338.527C258.126 338.735 257.851 339.017 257.652 339.372C257.453 339.723 257.352 340.113 257.347 340.544V342.327C257.347 342.866 257.446 343.333 257.645 343.726C257.849 344.119 258.135 344.422 258.505 344.635C258.874 344.848 259.312 344.955 259.819 344.955C260.155 344.955 260.462 344.907 260.742 344.812C261.021 344.718 261.26 344.576 261.459 344.386C261.658 344.197 261.81 343.965 261.914 343.69L264.712 343.875C264.57 344.547 264.279 345.134 263.838 345.636C263.403 346.134 262.839 346.522 262.148 346.801C261.462 347.076 260.668 347.213 259.769 347.213ZM269.776 332.455V347H266.75V332.455H269.776ZM282.37 336.091L278.556 347H275.147L271.333 336.091H274.529L276.795 343.896H276.908L279.167 336.091H282.37ZM288.538 347.213C287.416 347.213 286.45 346.986 285.641 346.531C284.836 346.072 284.215 345.423 283.78 344.585C283.344 343.742 283.126 342.746 283.126 341.595C283.126 340.473 283.344 339.488 283.78 338.641C284.215 337.793 284.829 337.133 285.619 336.659C286.415 336.186 287.348 335.949 288.418 335.949C289.137 335.949 289.807 336.065 290.428 336.297C291.053 336.524 291.597 336.867 292.061 337.327C292.53 337.786 292.894 338.364 293.155 339.06C293.415 339.751 293.545 340.561 293.545 341.489V342.32H284.334V340.445H290.697C290.697 340.009 290.603 339.623 290.413 339.287C290.224 338.951 289.961 338.688 289.625 338.499C289.294 338.304 288.908 338.207 288.467 338.207C288.008 338.207 287.601 338.314 287.246 338.527C286.895 338.735 286.621 339.017 286.422 339.372C286.223 339.723 286.121 340.113 286.116 340.544V342.327C286.116 342.866 286.216 343.333 286.415 343.726C286.618 344.119 286.905 344.422 287.274 344.635C287.643 344.848 288.081 344.955 288.588 344.955C288.924 344.955 289.232 344.907 289.511 344.812C289.791 344.718 290.03 344.576 290.229 344.386C290.428 344.197 290.579 343.965 290.683 343.69L293.482 343.875C293.339 344.547 293.048 345.134 292.608 345.636C292.172 346.134 291.609 346.522 290.918 346.801C290.231 347.076 289.438 347.213 288.538 347.213ZM304.597 339.202L301.827 339.372C301.779 339.135 301.678 338.922 301.521 338.733C301.365 338.539 301.159 338.385 300.903 338.271C300.652 338.153 300.352 338.094 300.001 338.094C299.533 338.094 299.137 338.193 298.815 338.392C298.493 338.586 298.332 338.847 298.332 339.173C298.332 339.434 298.437 339.654 298.645 339.834C298.853 340.014 299.211 340.158 299.717 340.267L301.692 340.665C302.752 340.883 303.543 341.233 304.064 341.716C304.585 342.199 304.845 342.833 304.845 343.619C304.845 344.334 304.634 344.962 304.213 345.501C303.796 346.041 303.223 346.463 302.494 346.766C301.77 347.064 300.934 347.213 299.987 347.213C298.543 347.213 297.393 346.912 296.536 346.311C295.683 345.705 295.184 344.881 295.037 343.839L298.013 343.683C298.103 344.124 298.321 344.46 298.666 344.692C299.012 344.919 299.455 345.033 299.994 345.033C300.525 345.033 300.951 344.931 301.273 344.727C301.599 344.519 301.765 344.251 301.77 343.925C301.765 343.65 301.649 343.425 301.422 343.25C301.195 343.07 300.844 342.933 300.371 342.838L298.482 342.462C297.416 342.249 296.623 341.879 296.102 341.354C295.586 340.828 295.328 340.158 295.328 339.344C295.328 338.643 295.518 338.039 295.896 337.533C296.28 337.026 296.817 336.635 297.509 336.361C298.205 336.086 299.019 335.949 299.952 335.949C301.33 335.949 302.414 336.24 303.205 336.822C304 337.405 304.464 338.198 304.597 339.202ZM308.519 347.185C308.05 347.185 307.648 347.019 307.311 346.688C306.98 346.351 306.814 345.949 306.814 345.48C306.814 345.016 306.98 344.618 307.311 344.287C307.648 343.955 308.05 343.79 308.519 343.79C308.973 343.79 309.371 343.955 309.712 344.287C310.053 344.618 310.223 345.016 310.223 345.48C310.223 345.793 310.143 346.079 309.982 346.339C309.826 346.595 309.62 346.801 309.364 346.957C309.108 347.109 308.827 347.185 308.519 347.185Z" style="fill: var(--vp-a11y-success)"/>
  <rect x="213" y="223.5" width="56" height="56" stroke="#00D7E4"/>
  <g filter="url(#filter1_b_1780_14084)">
    <rect x="269.5" y="223" width="63" height="29" fill="#0D1016" fill-opacity="0.5"/>
    <rect x="270" y="223.5" width="62" height="28" stroke="#00D7E4" stroke-dasharray="2 2"/>
    <path d="M280.281 236V235.233C280.281 235 280.322 234.753 280.404 234.491C280.49 234.227 280.612 233.973 280.771 233.729C280.933 233.482 281.127 233.267 281.355 233.085L281.9 233.528C281.721 233.784 281.565 234.051 281.431 234.33C281.301 234.605 281.235 234.901 281.235 235.216V236H280.281ZM282.463 236V235.233C282.463 235 282.504 234.753 282.586 234.491C282.671 234.227 282.794 233.973 282.953 233.729C283.115 233.482 283.309 233.267 283.536 233.085L284.082 233.528C283.903 233.784 283.747 234.051 283.613 234.33C283.482 234.605 283.417 234.901 283.417 235.216V236H282.463ZM285.328 242V233.273H286.385V237.159H291.039V233.273H292.095V242H291.039V238.097H286.385V242H285.328ZM296.734 242.136C296.143 242.136 295.624 241.996 295.178 241.714C294.735 241.433 294.389 241.04 294.139 240.534C293.892 240.028 293.768 239.437 293.768 238.761C293.768 238.08 293.892 237.484 294.139 236.976C294.389 236.467 294.735 236.072 295.178 235.791C295.624 235.51 296.143 235.369 296.734 235.369C297.325 235.369 297.842 235.51 298.285 235.791C298.731 236.072 299.078 236.467 299.325 236.976C299.575 237.484 299.7 238.08 299.7 238.761C299.7 239.437 299.575 240.028 299.325 240.534C299.078 241.04 298.731 241.433 298.285 241.714C297.842 241.996 297.325 242.136 296.734 242.136ZM296.734 241.233C297.183 241.233 297.552 241.118 297.842 240.888C298.132 240.658 298.346 240.355 298.485 239.98C298.624 239.605 298.694 239.199 298.694 238.761C298.694 238.324 298.624 237.916 298.485 237.538C298.346 237.161 298.132 236.855 297.842 236.622C297.552 236.389 297.183 236.273 296.734 236.273C296.285 236.273 295.916 236.389 295.626 236.622C295.336 236.855 295.122 237.161 294.982 237.538C294.843 237.916 294.774 238.324 294.774 238.761C294.774 239.199 294.843 239.605 294.982 239.98C295.122 240.355 295.336 240.658 295.626 240.888C295.916 241.118 296.285 241.233 296.734 241.233ZM301.235 242V235.455H302.206V236.477H302.292C302.428 236.128 302.648 235.857 302.952 235.663C303.256 235.467 303.621 235.369 304.047 235.369C304.479 235.369 304.839 235.467 305.126 235.663C305.415 235.857 305.641 236.128 305.803 236.477H305.871C306.039 236.139 306.29 235.871 306.626 235.672C306.961 235.47 307.363 235.369 307.831 235.369C308.417 235.369 308.895 235.553 309.268 235.919C309.64 236.283 309.826 236.849 309.826 237.619V242H308.82V237.619C308.82 237.136 308.688 236.791 308.424 236.584C308.16 236.376 307.849 236.273 307.491 236.273C307.03 236.273 306.674 236.412 306.421 236.69C306.168 236.966 306.042 237.315 306.042 237.739V242H305.019V237.517C305.019 237.145 304.898 236.845 304.657 236.618C304.415 236.388 304.104 236.273 303.724 236.273C303.462 236.273 303.218 236.342 302.991 236.482C302.766 236.621 302.584 236.814 302.445 237.061C302.309 237.305 302.241 237.588 302.241 237.909V242H301.235ZM314.409 242.136C313.778 242.136 313.234 241.997 312.777 241.719C312.322 241.438 311.971 241.045 311.724 240.543C311.48 240.037 311.358 239.449 311.358 238.778C311.358 238.108 311.48 237.517 311.724 237.006C311.971 236.491 312.315 236.091 312.756 235.804C313.199 235.514 313.716 235.369 314.307 235.369C314.648 235.369 314.984 235.426 315.317 235.54C315.649 235.653 315.952 235.838 316.224 236.094C316.497 236.347 316.714 236.682 316.876 237.099C317.038 237.517 317.119 238.031 317.119 238.642V239.068H312.074V238.199H316.096C316.096 237.83 316.023 237.5 315.875 237.21C315.73 236.92 315.523 236.692 315.253 236.524C314.986 236.357 314.67 236.273 314.307 236.273C313.906 236.273 313.559 236.372 313.267 236.571C312.977 236.767 312.754 237.023 312.598 237.338C312.442 237.653 312.363 237.991 312.363 238.352V238.932C312.363 239.426 312.449 239.845 312.619 240.189C312.792 240.53 313.032 240.79 313.339 240.969C313.646 241.145 314.003 241.233 314.409 241.233C314.673 241.233 314.912 241.196 315.125 241.122C315.341 241.045 315.527 240.932 315.683 240.781C315.839 240.628 315.96 240.437 316.045 240.21L317.017 240.483C316.915 240.812 316.743 241.102 316.501 241.352C316.26 241.599 315.961 241.793 315.606 241.932C315.251 242.068 314.852 242.136 314.409 242.136ZM319.535 233.273V234.04C319.535 234.273 319.493 234.521 319.407 234.786C319.325 235.047 319.203 235.301 319.041 235.548C318.882 235.793 318.689 236.006 318.461 236.188L317.916 235.744C318.095 235.489 318.25 235.223 318.381 234.947C318.514 234.669 318.581 234.372 318.581 234.057V233.273H319.535ZM321.717 233.273V234.04C321.717 234.273 321.675 234.521 321.589 234.786C321.507 235.047 321.385 235.301 321.223 235.548C321.064 235.793 320.871 236.006 320.643 236.188L320.098 235.744C320.277 235.489 320.432 235.223 320.562 234.947C320.696 234.669 320.763 234.372 320.763 234.057V233.273H321.717Z" fill="#00D7E4"/>
  </g>
  <defs>
    <filter id="filter0_b_1780_14084" x="246.5" y="29" width="106" height="45" filterUnits="userSpaceOnUse" color-interpolation-filters="sRGB">
      <feFlood flood-opacity="0" result="BackgroundImageFix"/>
      <feGaussianBlur in="BackgroundImageFix" stdDeviation="4"/>
      <feComposite in2="SourceAlpha" operator="in" result="effect1_backgroundBlur_1780_14084"/>
      <feBlend mode="normal" in="SourceGraphic" in2="effect1_backgroundBlur_1780_14084" result="shape"/>
    </filter>
    <filter id="filter1_b_1780_14084" x="261.5" y="215" width="79" height="45" filterUnits="userSpaceOnUse" color-interpolation-filters="sRGB">
      <feFlood flood-opacity="0" result="BackgroundImageFix"/>
      <feGaussianBlur in="BackgroundImageFix" stdDeviation="4"/>
      <feComposite in2="SourceAlpha" operator="in" result="effect1_backgroundBlur_1780_14084"/>
      <feBlend mode="normal" in="SourceGraphic" in2="effect1_backgroundBlur_1780_14084" result="shape"/>
    </filter>
  </defs>
</svg>
