<svg width="480" height="328" viewBox="0 0 480 328" fill="none" class="a11y-example">
  <title>In short: use a contrast ratio of at least 4.5:1</title>
  <rect width="480" height="152" rx="8" style="fill: var(--vp-code-block-bg)" />
  <rect x="183.5" y="24" width="113" height="56" rx="28" fill="#712CF8"/>
  <path d="M227.5 46L216.5 57L211.5 52" stroke="black" stroke-width="2" stroke-linecap="round" stroke-linejoin="round"/>
  <path d="M257.893 51.7273C257.893 53.2614 257.616 54.5871 257.062 55.7045C256.509 56.822 255.749 57.6837 254.783 58.2898C253.817 58.8958 252.714 59.1989 251.473 59.1989C250.232 59.1989 249.129 58.8958 248.163 58.2898C247.197 57.6837 246.438 56.822 245.884 55.7045C245.33 54.5871 245.053 53.2614 245.053 51.7273C245.053 50.1932 245.33 48.8674 245.884 47.75C246.438 46.6326 247.197 45.7708 248.163 45.1648C249.129 44.5587 250.232 44.2557 251.473 44.2557C252.714 44.2557 253.817 44.5587 254.783 45.1648C255.749 45.7708 256.509 46.6326 257.062 47.75C257.616 48.8674 257.893 50.1932 257.893 51.7273ZM256.189 51.7273C256.189 50.4678 255.978 49.4048 255.557 48.5384C255.14 47.6719 254.574 47.0161 253.859 46.571C253.149 46.1259 252.354 45.9034 251.473 45.9034C250.592 45.9034 249.795 46.1259 249.08 46.571C248.369 47.0161 247.804 47.6719 247.382 48.5384C246.965 49.4048 246.757 50.4678 246.757 51.7273C246.757 52.9867 246.965 54.0497 247.382 54.9162C247.804 55.7827 248.369 56.4384 249.08 56.8835C249.795 57.3286 250.592 57.5511 251.473 57.5511C252.354 57.5511 253.149 57.3286 253.859 56.8835C254.574 56.4384 255.14 55.7827 255.557 54.9162C255.978 54.0497 256.189 52.9867 256.189 51.7273ZM260.855 59V44.4545H262.616V51.6705H262.787L269.321 44.4545H271.622L265.514 51.017L271.622 59H269.491L264.435 52.2386L262.616 54.2841V59H260.855Z" fill="black"/>
  <path d="M42 110L30 122" style="stroke: var(--vp-a11y-danger)" stroke-width="3" stroke-linecap="round" stroke-linejoin="round"/>
  <path d="M30 110L42 122" style="stroke: var(--vp-a11y-danger)" stroke-width="3" stroke-linecap="round" stroke-linejoin="round"/>
  <text x="58" y="122" style="fill: var(--vp-a11y-danger)" font-size="18" font-weight="800">
    <tspan>Don't use low contrast.</tspan>
  </text>
  <rect y="176" width="480" height="152" rx="8" style="fill: var(--vp-code-block-bg)" />
  <rect x="183.5" y="200" width="113" height="56" rx="28" fill="#712CF8"/>
  <path d="M227.5 222L216.5 233L211.5 228" stroke="white" stroke-width="2" stroke-linecap="round" stroke-linejoin="round"/>
  <path d="M257.893 227.727C257.893 229.261 257.616 230.587 257.062 231.705C256.509 232.822 255.749 233.684 254.783 234.29C253.817 234.896 252.714 235.199 251.473 235.199C250.232 235.199 249.129 234.896 248.163 234.29C247.197 233.684 246.438 232.822 245.884 231.705C245.33 230.587 245.053 229.261 245.053 227.727C245.053 226.193 245.33 224.867 245.884 223.75C246.438 222.633 247.197 221.771 248.163 221.165C249.129 220.559 250.232 220.256 251.473 220.256C252.714 220.256 253.817 220.559 254.783 221.165C255.749 221.771 256.509 222.633 257.062 223.75C257.616 224.867 257.893 226.193 257.893 227.727ZM256.189 227.727C256.189 226.468 255.978 225.405 255.557 224.538C255.14 223.672 254.574 223.016 253.859 222.571C253.149 222.126 252.354 221.903 251.473 221.903C250.592 221.903 249.795 222.126 249.08 222.571C248.369 223.016 247.804 223.672 247.382 224.538C246.965 225.405 246.757 226.468 246.757 227.727C246.757 228.987 246.965 230.05 247.382 230.916C247.804 231.783 248.369 232.438 249.08 232.884C249.795 233.329 250.592 233.551 251.473 233.551C252.354 233.551 253.149 233.329 253.859 232.884C254.574 232.438 255.14 231.783 255.557 230.916C255.978 230.05 256.189 228.987 256.189 227.727ZM260.855 235V220.455H262.616V227.67H262.787L269.321 220.455H271.622L265.514 227.017L271.622 235H269.491L264.435 228.239L262.616 230.284V235H260.855Z" fill="white"/>
  <path d="M44 286L33 297L28 292" style="stroke: var(--vp-c-success-2)" stroke-width="3" stroke-linecap="round" stroke-linejoin="round"/>
  <text x="58" y="299" style="fill: var(--vp-a11y-success)" font-size="18" font-weight="800">
    Do use a contrast ratio of at least 4.5:1.
  </text>
</svg>
