<svg width="480" height="328" viewBox="0 0 480 328" fill="none" xmlns="http://www.w3.org/2000/svg">
  <rect width="480" height="152" rx="24" fill="#3C3C43"/>
  <rect x="183.5" y="24" width="113" height="56" rx="28" fill="#712CF8"/>
  <path d="M227.5 46L216.5 57L211.5 52" stroke="black" stroke-width="2" stroke-linecap="round" stroke-linejoin="round"/>
  <path d="M257.893 51.7273C257.893 53.2614 257.616 54.5871 257.062 55.7045C256.509 56.822 255.749 57.6837 254.783 58.2898C253.817 58.8958 252.714 59.1989 251.473 59.1989C250.232 59.1989 249.129 58.8958 248.163 58.2898C247.197 57.6837 246.438 56.822 245.884 55.7045C245.33 54.5871 245.053 53.2614 245.053 51.7273C245.053 50.1932 245.33 48.8674 245.884 47.75C246.438 46.6326 247.197 45.7708 248.163 45.1648C249.129 44.5587 250.232 44.2557 251.473 44.2557C252.714 44.2557 253.817 44.5587 254.783 45.1648C255.749 45.7708 256.509 46.6326 257.062 47.75C257.616 48.8674 257.893 50.1932 257.893 51.7273ZM256.189 51.7273C256.189 50.4678 255.978 49.4048 255.557 48.5384C255.14 47.6719 254.574 47.0161 253.859 46.571C253.149 46.1259 252.354 45.9034 251.473 45.9034C250.592 45.9034 249.795 46.1259 249.08 46.571C248.369 47.0161 247.804 47.6719 247.382 48.5384C246.965 49.4048 246.757 50.4678 246.757 51.7273C246.757 52.9867 246.965 54.0497 247.382 54.9162C247.804 55.7827 248.369 56.4384 249.08 56.8835C249.795 57.3286 250.592 57.5511 251.473 57.5511C252.354 57.5511 253.149 57.3286 253.859 56.8835C254.574 56.4384 255.14 55.7827 255.557 54.9162C255.978 54.0497 256.189 52.9867 256.189 51.7273ZM260.855 59V44.4545H262.616V51.6705H262.787L269.321 44.4545H271.622L265.514 51.017L271.622 59H269.491L264.435 52.2386L262.616 54.2841V59H260.855Z" fill="black"/>
  <path d="M42 110L30 122" stroke="#F45F7A" stroke-width="3" stroke-linecap="round" stroke-linejoin="round"/>
  <path d="M30 110L42 122" stroke="#F45F7A" stroke-width="3" stroke-linecap="round" stroke-linejoin="round"/>
  <path d="M62.4205 123H57.2642V108.455H62.4631C63.9261 108.455 65.1856 108.746 66.2415 109.328C67.2973 109.906 68.1094 110.737 68.6776 111.821C69.2505 112.905 69.5369 114.203 69.5369 115.713C69.5369 117.228 69.2505 118.53 68.6776 119.619C68.1094 120.708 67.2926 121.544 66.2273 122.126C65.1667 122.709 63.8977 123 62.4205 123ZM60.3395 120.365H62.2926C63.2017 120.365 63.9664 120.204 64.5866 119.882C65.2116 119.555 65.6804 119.051 65.9929 118.369C66.3101 117.683 66.4688 116.797 66.4688 115.713C66.4688 114.638 66.3101 113.76 65.9929 113.078C65.6804 112.396 65.214 111.894 64.5938 111.572C63.9735 111.25 63.2088 111.089 62.2997 111.089H60.3395V120.365ZM76.6871 123.213C75.5839 123.213 74.6299 122.979 73.8249 122.51C73.0247 122.036 72.4068 121.378 71.9712 120.536C71.5356 119.688 71.3178 118.705 71.3178 117.588C71.3178 116.461 71.5356 115.476 71.9712 114.634C72.4068 113.786 73.0247 113.128 73.8249 112.659C74.6299 112.186 75.5839 111.949 76.6871 111.949C77.7904 111.949 78.7421 112.186 79.5423 112.659C80.3472 113.128 80.9674 113.786 81.4031 114.634C81.8387 115.476 82.0565 116.461 82.0565 117.588C82.0565 118.705 81.8387 119.688 81.4031 120.536C80.9674 121.378 80.3472 122.036 79.5423 122.51C78.7421 122.979 77.7904 123.213 76.6871 123.213ZM76.7013 120.869C77.2032 120.869 77.6223 120.727 77.9585 120.443C78.2946 120.154 78.5479 119.761 78.7184 119.264C78.8936 118.767 78.9812 118.201 78.9812 117.567C78.9812 116.932 78.8936 116.366 78.7184 115.869C78.5479 115.372 78.2946 114.979 77.9585 114.69C77.6223 114.402 77.2032 114.257 76.7013 114.257C76.1947 114.257 75.7686 114.402 75.4229 114.69C75.082 114.979 74.824 115.372 74.6488 115.869C74.4783 116.366 74.3931 116.932 74.3931 117.567C74.3931 118.201 74.4783 118.767 74.6488 119.264C74.824 119.761 75.082 120.154 75.4229 120.443C75.7686 120.727 76.1947 120.869 76.7013 120.869ZM87.0494 116.693V123H84.0238V112.091H86.9073V114.016H87.0352C87.2766 113.381 87.6815 112.879 88.2496 112.51C88.8178 112.136 89.5067 111.949 90.3164 111.949C91.074 111.949 91.7345 112.115 92.2979 112.446C92.8614 112.777 93.2994 113.251 93.6119 113.866C93.9244 114.477 94.0806 115.206 94.0806 116.054V123H91.055V116.594C91.0598 115.926 90.8893 115.405 90.5437 115.031C90.198 114.652 89.7222 114.463 89.1161 114.463C88.7089 114.463 88.3491 114.551 88.0366 114.726C87.7288 114.901 87.4873 115.157 87.3121 115.493C87.1417 115.824 87.0541 116.224 87.0494 116.693ZM99.0007 108.455V109.989C99.0007 110.424 98.9155 110.869 98.745 111.324C98.5793 111.774 98.3568 112.2 98.0774 112.602C97.7981 113 97.4927 113.339 97.1612 113.618L95.826 112.83C96.0627 112.455 96.2711 112.041 96.451 111.587C96.6357 111.132 96.728 110.604 96.728 110.003V108.455H99.0007ZM107.19 112.091V114.364H100.62V112.091H107.19ZM102.112 109.477H105.137V119.648C105.137 119.927 105.18 120.145 105.265 120.301C105.35 120.453 105.469 120.559 105.62 120.621C105.776 120.682 105.956 120.713 106.16 120.713C106.302 120.713 106.444 120.701 106.586 120.678C106.728 120.649 106.837 120.628 106.913 120.614L107.388 122.865C107.237 122.912 107.024 122.967 106.749 123.028C106.475 123.095 106.141 123.135 105.748 123.149C105.019 123.178 104.379 123.08 103.83 122.858C103.286 122.635 102.862 122.29 102.559 121.821C102.256 121.352 102.107 120.76 102.112 120.045V109.477ZM120.785 118.355V112.091H123.811V123H120.906V121.018H120.792C120.546 121.658 120.136 122.171 119.564 122.56C118.995 122.948 118.302 123.142 117.483 123.142C116.753 123.142 116.112 122.976 115.558 122.645C115.004 122.313 114.571 121.842 114.258 121.232C113.95 120.621 113.794 119.889 113.789 119.037V112.091H116.815V118.497C116.82 119.141 116.993 119.65 117.333 120.024C117.674 120.398 118.131 120.585 118.704 120.585C119.069 120.585 119.41 120.502 119.727 120.337C120.044 120.166 120.3 119.915 120.494 119.584C120.693 119.252 120.79 118.843 120.785 118.355ZM135.308 115.202L132.538 115.372C132.49 115.135 132.388 114.922 132.232 114.733C132.076 114.539 131.87 114.385 131.614 114.271C131.363 114.153 131.063 114.094 130.712 114.094C130.244 114.094 129.848 114.193 129.526 114.392C129.204 114.586 129.043 114.847 129.043 115.173C129.043 115.434 129.147 115.654 129.356 115.834C129.564 116.014 129.922 116.158 130.428 116.267L132.403 116.665C133.463 116.883 134.254 117.233 134.775 117.716C135.296 118.199 135.556 118.833 135.556 119.619C135.556 120.334 135.345 120.962 134.924 121.501C134.507 122.041 133.934 122.463 133.205 122.766C132.481 123.064 131.645 123.213 130.698 123.213C129.254 123.213 128.103 122.912 127.246 122.311C126.394 121.705 125.895 120.881 125.748 119.839L128.724 119.683C128.814 120.124 129.031 120.46 129.377 120.692C129.723 120.919 130.165 121.033 130.705 121.033C131.236 121.033 131.662 120.931 131.984 120.727C132.31 120.519 132.476 120.251 132.481 119.925C132.476 119.65 132.36 119.425 132.133 119.25C131.906 119.07 131.555 118.933 131.082 118.838L129.192 118.462C128.127 118.249 127.334 117.879 126.813 117.354C126.297 116.828 126.039 116.158 126.039 115.344C126.039 114.643 126.228 114.039 126.607 113.533C126.991 113.026 127.528 112.635 128.219 112.361C128.915 112.086 129.73 111.949 130.663 111.949C132.04 111.949 133.125 112.24 133.915 112.822C134.711 113.405 135.175 114.198 135.308 115.202ZM142.433 123.213C141.311 123.213 140.345 122.986 139.535 122.531C138.73 122.072 138.11 121.423 137.674 120.585C137.239 119.742 137.021 118.746 137.021 117.595C137.021 116.473 137.239 115.488 137.674 114.641C138.11 113.793 138.723 113.133 139.514 112.659C140.309 112.186 141.242 111.949 142.312 111.949C143.032 111.949 143.702 112.065 144.322 112.297C144.947 112.524 145.492 112.867 145.956 113.327C146.424 113.786 146.789 114.364 147.049 115.06C147.31 115.751 147.44 116.561 147.44 117.489V118.32H138.228V116.445H144.592C144.592 116.009 144.497 115.623 144.308 115.287C144.118 114.951 143.856 114.688 143.52 114.499C143.188 114.304 142.802 114.207 142.362 114.207C141.903 114.207 141.495 114.314 141.14 114.527C140.79 114.735 140.515 115.017 140.316 115.372C140.118 115.723 140.016 116.113 140.011 116.544V118.327C140.011 118.866 140.11 119.333 140.309 119.726C140.513 120.119 140.799 120.422 141.169 120.635C141.538 120.848 141.976 120.955 142.483 120.955C142.819 120.955 143.127 120.907 143.406 120.812C143.685 120.718 143.924 120.576 144.123 120.386C144.322 120.197 144.474 119.965 144.578 119.69L147.376 119.875C147.234 120.547 146.943 121.134 146.502 121.636C146.067 122.134 145.503 122.522 144.812 122.801C144.126 123.076 143.333 123.213 142.433 123.213ZM157.069 108.455V123H154.043V108.455H157.069ZM164.422 123.213C163.318 123.213 162.364 122.979 161.559 122.51C160.759 122.036 160.141 121.378 159.706 120.536C159.27 119.688 159.052 118.705 159.052 117.588C159.052 116.461 159.27 115.476 159.706 114.634C160.141 113.786 160.759 113.128 161.559 112.659C162.364 112.186 163.318 111.949 164.422 111.949C165.525 111.949 166.476 112.186 167.277 112.659C168.082 113.128 168.702 113.786 169.137 114.634C169.573 115.476 169.791 116.461 169.791 117.588C169.791 118.705 169.573 119.688 169.137 120.536C168.702 121.378 168.082 122.036 167.277 122.51C166.476 122.979 165.525 123.213 164.422 123.213ZM164.436 120.869C164.938 120.869 165.357 120.727 165.693 120.443C166.029 120.154 166.282 119.761 166.453 119.264C166.628 118.767 166.716 118.201 166.716 117.567C166.716 116.932 166.628 116.366 166.453 115.869C166.282 115.372 166.029 114.979 165.693 114.69C165.357 114.402 164.938 114.257 164.436 114.257C163.929 114.257 163.503 114.402 163.157 114.69C162.816 114.979 162.558 115.372 162.383 115.869C162.213 116.366 162.127 116.932 162.127 117.567C162.127 118.201 162.213 118.767 162.383 119.264C162.558 119.761 162.816 120.154 163.157 120.443C163.503 120.727 163.929 120.869 164.436 120.869ZM173.637 123L170.668 112.091H173.729L175.419 119.42H175.519L177.28 112.091H180.284L182.074 119.378H182.167L183.828 112.091H186.882L183.921 123H180.718L178.843 116.139H178.708L176.833 123H173.637ZM198.054 123.213C196.937 123.213 195.976 122.976 195.171 122.503C194.371 122.025 193.755 121.362 193.324 120.514C192.898 119.667 192.685 118.691 192.685 117.588C192.685 116.471 192.9 115.491 193.331 114.648C193.767 113.8 194.385 113.14 195.185 112.666C195.985 112.188 196.937 111.949 198.04 111.949C198.992 111.949 199.825 112.122 200.54 112.467C201.255 112.813 201.821 113.298 202.238 113.923C202.654 114.548 202.884 115.282 202.926 116.125H200.071C199.991 115.58 199.778 115.143 199.432 114.811C199.091 114.475 198.644 114.307 198.09 114.307C197.621 114.307 197.212 114.435 196.861 114.69C196.516 114.941 196.246 115.308 196.051 115.791C195.857 116.274 195.76 116.859 195.76 117.545C195.76 118.241 195.855 118.833 196.044 119.321C196.239 119.809 196.511 120.18 196.861 120.436C197.212 120.692 197.621 120.82 198.09 120.82C198.435 120.82 198.746 120.749 199.02 120.607C199.3 120.464 199.529 120.259 199.709 119.989C199.894 119.714 200.015 119.385 200.071 119.001H202.926C202.879 119.835 202.652 120.569 202.245 121.203C201.842 121.833 201.286 122.325 200.576 122.68C199.865 123.036 199.025 123.213 198.054 123.213ZM209.793 123.213C208.689 123.213 207.735 122.979 206.93 122.51C206.13 122.036 205.512 121.378 205.077 120.536C204.641 119.688 204.423 118.705 204.423 117.588C204.423 116.461 204.641 115.476 205.077 114.634C205.512 113.786 206.13 113.128 206.93 112.659C207.735 112.186 208.689 111.949 209.793 111.949C210.896 111.949 211.848 112.186 212.648 112.659C213.453 113.128 214.073 113.786 214.509 114.634C214.944 115.476 215.162 116.461 215.162 117.588C215.162 118.705 214.944 119.688 214.509 120.536C214.073 121.378 213.453 122.036 212.648 122.51C211.848 122.979 210.896 123.213 209.793 123.213ZM209.807 120.869C210.309 120.869 210.728 120.727 211.064 120.443C211.4 120.154 211.653 119.761 211.824 119.264C211.999 118.767 212.087 118.201 212.087 117.567C212.087 116.932 211.999 116.366 211.824 115.869C211.653 115.372 211.4 114.979 211.064 114.69C210.728 114.402 210.309 114.257 209.807 114.257C209.3 114.257 208.874 114.402 208.528 114.69C208.188 114.979 207.929 115.372 207.754 115.869C207.584 116.366 207.499 116.932 207.499 117.567C207.499 118.201 207.584 118.767 207.754 119.264C207.929 119.761 208.188 120.154 208.528 120.443C208.874 120.727 209.3 120.869 209.807 120.869ZM220.155 116.693V123H217.129V112.091H220.013V114.016H220.141C220.382 113.381 220.787 112.879 221.355 112.51C221.923 112.136 222.612 111.949 223.422 111.949C224.179 111.949 224.84 112.115 225.403 112.446C225.967 112.777 226.405 113.251 226.717 113.866C227.03 114.477 227.186 115.206 227.186 116.054V123H224.161V116.594C224.165 115.926 223.995 115.405 223.649 115.031C223.304 114.652 222.828 114.463 222.222 114.463C221.814 114.463 221.455 114.551 221.142 114.726C220.834 114.901 220.593 115.157 220.418 115.493C220.247 115.824 220.16 116.224 220.155 116.693ZM235.373 112.091V114.364H228.804V112.091H235.373ZM230.295 109.477H233.321V119.648C233.321 119.927 233.363 120.145 233.449 120.301C233.534 120.453 233.652 120.559 233.804 120.621C233.96 120.682 234.14 120.713 234.343 120.713C234.485 120.713 234.627 120.701 234.77 120.678C234.912 120.649 235.02 120.628 235.096 120.614L235.572 122.865C235.421 122.912 235.208 122.967 234.933 123.028C234.658 123.095 234.324 123.135 233.931 123.149C233.202 123.178 232.563 123.08 232.014 122.858C231.469 122.635 231.046 122.29 230.743 121.821C230.44 121.352 230.29 120.76 230.295 120.045V109.477ZM237.344 123V112.091H240.277V113.994H240.391C240.59 113.317 240.924 112.806 241.392 112.46C241.861 112.11 242.401 111.935 243.012 111.935C243.163 111.935 243.327 111.944 243.502 111.963C243.677 111.982 243.831 112.008 243.963 112.041V114.726C243.821 114.683 243.625 114.645 243.374 114.612C243.123 114.579 242.893 114.562 242.685 114.562C242.24 114.562 241.842 114.66 241.492 114.854C241.146 115.043 240.872 115.308 240.668 115.649C240.469 115.99 240.37 116.383 240.37 116.828V123H237.344ZM248.326 123.206C247.63 123.206 247.01 123.085 246.465 122.844C245.921 122.598 245.49 122.235 245.173 121.757C244.86 121.274 244.704 120.673 244.704 119.953C244.704 119.347 244.815 118.838 245.038 118.426C245.26 118.014 245.563 117.683 245.947 117.432C246.33 117.181 246.766 116.991 247.254 116.864C247.746 116.736 248.262 116.646 248.802 116.594C249.436 116.527 249.948 116.466 250.336 116.409C250.724 116.348 251.006 116.258 251.181 116.139C251.356 116.021 251.444 115.846 251.444 115.614V115.571C251.444 115.121 251.302 114.773 251.018 114.527C250.738 114.281 250.341 114.158 249.825 114.158C249.28 114.158 248.847 114.278 248.525 114.52C248.203 114.757 247.99 115.055 247.886 115.415L245.087 115.188C245.229 114.525 245.509 113.952 245.925 113.469C246.342 112.981 246.879 112.607 247.538 112.347C248.201 112.081 248.968 111.949 249.839 111.949C250.445 111.949 251.025 112.02 251.579 112.162C252.138 112.304 252.632 112.524 253.063 112.822C253.499 113.121 253.842 113.504 254.093 113.973C254.344 114.437 254.469 114.993 254.469 115.642V123H251.6V121.487H251.515C251.34 121.828 251.105 122.129 250.812 122.389C250.518 122.645 250.165 122.846 249.754 122.993C249.342 123.135 248.866 123.206 248.326 123.206ZM249.192 121.118C249.638 121.118 250.031 121.03 250.371 120.855C250.712 120.675 250.98 120.434 251.174 120.131C251.368 119.828 251.465 119.484 251.465 119.101V117.943C251.371 118.005 251.24 118.062 251.075 118.114C250.914 118.161 250.731 118.206 250.528 118.249C250.324 118.286 250.121 118.322 249.917 118.355C249.713 118.384 249.529 118.41 249.363 118.433C249.008 118.485 248.698 118.568 248.433 118.682C248.167 118.795 247.961 118.949 247.815 119.143C247.668 119.333 247.594 119.57 247.594 119.854C247.594 120.266 247.744 120.58 248.042 120.798C248.345 121.011 248.728 121.118 249.192 121.118ZM265.893 115.202L263.124 115.372C263.076 115.135 262.974 114.922 262.818 114.733C262.662 114.539 262.456 114.385 262.2 114.271C261.949 114.153 261.649 114.094 261.298 114.094C260.83 114.094 260.434 114.193 260.112 114.392C259.79 114.586 259.629 114.847 259.629 115.173C259.629 115.434 259.733 115.654 259.942 115.834C260.15 116.014 260.508 116.158 261.014 116.267L262.989 116.665C264.049 116.883 264.84 117.233 265.361 117.716C265.882 118.199 266.142 118.833 266.142 119.619C266.142 120.334 265.931 120.962 265.51 121.501C265.093 122.041 264.52 122.463 263.791 122.766C263.067 123.064 262.231 123.213 261.284 123.213C259.84 123.213 258.689 122.912 257.832 122.311C256.98 121.705 256.481 120.881 256.334 119.839L259.31 119.683C259.4 120.124 259.617 120.46 259.963 120.692C260.309 120.919 260.751 121.033 261.291 121.033C261.821 121.033 262.248 120.931 262.57 120.727C262.896 120.519 263.062 120.251 263.067 119.925C263.062 119.65 262.946 119.425 262.719 119.25C262.491 119.07 262.141 118.933 261.668 118.838L259.778 118.462C258.713 118.249 257.92 117.879 257.399 117.354C256.883 116.828 256.625 116.158 256.625 115.344C256.625 114.643 256.814 114.039 257.193 113.533C257.577 113.026 258.114 112.635 258.805 112.361C259.501 112.086 260.316 111.949 261.249 111.949C262.626 111.949 263.711 112.24 264.501 112.822C265.297 113.405 265.761 114.198 265.893 115.202ZM273.85 112.091V114.364H267.28V112.091H273.85ZM268.772 109.477H271.797V119.648C271.797 119.927 271.84 120.145 271.925 120.301C272.01 120.453 272.129 120.559 272.28 120.621C272.436 120.682 272.616 120.713 272.82 120.713C272.962 120.713 273.104 120.701 273.246 120.678C273.388 120.649 273.497 120.628 273.573 120.614L274.049 122.865C273.897 122.912 273.684 122.967 273.409 123.028C273.135 123.095 272.801 123.135 272.408 123.149C271.679 123.178 271.04 123.08 270.49 122.858C269.946 122.635 269.522 122.29 269.219 121.821C268.916 121.352 268.767 120.76 268.772 120.045V109.477ZM277.589 123.185C277.12 123.185 276.718 123.019 276.382 122.688C276.05 122.351 275.885 121.949 275.885 121.48C275.885 121.016 276.05 120.618 276.382 120.287C276.718 119.955 277.12 119.79 277.589 119.79C278.044 119.79 278.441 119.955 278.782 120.287C279.123 120.618 279.294 121.016 279.294 121.48C279.294 121.793 279.213 122.079 279.052 122.339C278.896 122.595 278.69 122.801 278.434 122.957C278.179 123.109 277.897 123.185 277.589 123.185Z" fill="#F45F7A"/>
  <rect y="176" width="480" height="152" rx="24" fill="#3C3C43"/>
  <rect x="183.5" y="200" width="113" height="56" rx="28" fill="#712CF8"/>
  <path d="M227.5 222L216.5 233L211.5 228" stroke="white" stroke-width="2" stroke-linecap="round" stroke-linejoin="round"/>
  <path d="M257.893 227.727C257.893 229.261 257.616 230.587 257.062 231.705C256.509 232.822 255.749 233.684 254.783 234.29C253.817 234.896 252.714 235.199 251.473 235.199C250.232 235.199 249.129 234.896 248.163 234.29C247.197 233.684 246.438 232.822 245.884 231.705C245.33 230.587 245.053 229.261 245.053 227.727C245.053 226.193 245.33 224.867 245.884 223.75C246.438 222.633 247.197 221.771 248.163 221.165C249.129 220.559 250.232 220.256 251.473 220.256C252.714 220.256 253.817 220.559 254.783 221.165C255.749 221.771 256.509 222.633 257.062 223.75C257.616 224.867 257.893 226.193 257.893 227.727ZM256.189 227.727C256.189 226.468 255.978 225.405 255.557 224.538C255.14 223.672 254.574 223.016 253.859 222.571C253.149 222.126 252.354 221.903 251.473 221.903C250.592 221.903 249.795 222.126 249.08 222.571C248.369 223.016 247.804 223.672 247.382 224.538C246.965 225.405 246.757 226.468 246.757 227.727C246.757 228.987 246.965 230.05 247.382 230.916C247.804 231.783 248.369 232.438 249.08 232.884C249.795 233.329 250.592 233.551 251.473 233.551C252.354 233.551 253.149 233.329 253.859 232.884C254.574 232.438 255.14 231.783 255.557 230.916C255.978 230.05 256.189 228.987 256.189 227.727ZM260.855 235V220.455H262.616V227.67H262.787L269.321 220.455H271.622L265.514 227.017L271.622 235H269.491L264.435 228.239L262.616 230.284V235H260.855Z" fill="white"/>
  <path d="M44 286L33 297L28 292" stroke="#36EA83" stroke-width="3" stroke-linecap="round" stroke-linejoin="round"/>
  <path d="M70.4205 299H65.2642V284.455H70.4631C71.9261 284.455 73.1856 284.746 74.2415 285.328C75.2973 285.906 76.1094 286.737 76.6776 287.821C77.2505 288.905 77.5369 290.203 77.5369 291.713C77.5369 293.228 77.2505 294.53 76.6776 295.619C76.1094 296.708 75.2926 297.544 74.2273 298.126C73.1667 298.709 71.8977 299 70.4205 299ZM68.3395 296.365H70.2926C71.2017 296.365 71.9664 296.204 72.5866 295.882C73.2116 295.555 73.6804 295.051 73.9929 294.369C74.3101 293.683 74.4688 292.797 74.4688 291.713C74.4688 290.638 74.3101 289.76 73.9929 289.078C73.6804 288.396 73.214 287.894 72.5938 287.572C71.9735 287.25 71.2088 287.089 70.2997 287.089H68.3395V296.365ZM84.6871 299.213C83.5839 299.213 82.6299 298.979 81.8249 298.51C81.0247 298.036 80.4068 297.378 79.9712 296.536C79.5356 295.688 79.3178 294.705 79.3178 293.588C79.3178 292.461 79.5356 291.476 79.9712 290.634C80.4068 289.786 81.0247 289.128 81.8249 288.659C82.6299 288.186 83.5839 287.949 84.6871 287.949C85.7904 287.949 86.7421 288.186 87.5423 288.659C88.3472 289.128 88.9674 289.786 89.4031 290.634C89.8387 291.476 90.0565 292.461 90.0565 293.588C90.0565 294.705 89.8387 295.688 89.4031 296.536C88.9674 297.378 88.3472 298.036 87.5423 298.51C86.7421 298.979 85.7904 299.213 84.6871 299.213ZM84.7013 296.869C85.2032 296.869 85.6223 296.727 85.9585 296.443C86.2946 296.154 86.5479 295.761 86.7184 295.264C86.8936 294.767 86.9812 294.201 86.9812 293.567C86.9812 292.932 86.8936 292.366 86.7184 291.869C86.5479 291.372 86.2946 290.979 85.9585 290.69C85.6223 290.402 85.2032 290.257 84.7013 290.257C84.1947 290.257 83.7686 290.402 83.4229 290.69C83.082 290.979 82.824 291.372 82.6488 291.869C82.4783 292.366 82.3931 292.932 82.3931 293.567C82.3931 294.201 82.4783 294.767 82.6488 295.264C82.824 295.761 83.082 296.154 83.4229 296.443C83.7686 296.727 84.1947 296.869 84.7013 296.869ZM103.648 294.355V288.091H106.674V299H103.769V297.018H103.656C103.409 297.658 103 298.171 102.427 298.56C101.859 298.948 101.165 299.142 100.346 299.142C99.6167 299.142 98.9751 298.976 98.4212 298.645C97.8672 298.313 97.4339 297.842 97.1214 297.232C96.8137 296.621 96.6574 295.889 96.6527 295.037V288.091H99.6783V294.497C99.683 295.141 99.8558 295.65 100.197 296.024C100.538 296.398 100.995 296.585 101.567 296.585C101.932 296.585 102.273 296.502 102.59 296.337C102.907 296.166 103.163 295.915 103.357 295.584C103.556 295.252 103.653 294.843 103.648 294.355ZM118.171 291.202L115.401 291.372C115.354 291.135 115.252 290.922 115.096 290.733C114.939 290.539 114.733 290.385 114.478 290.271C114.227 290.153 113.926 290.094 113.576 290.094C113.107 290.094 112.712 290.193 112.39 290.392C112.068 290.586 111.907 290.847 111.907 291.173C111.907 291.434 112.011 291.654 112.219 291.834C112.427 292.014 112.785 292.158 113.292 292.267L115.266 292.665C116.327 292.883 117.117 293.233 117.638 293.716C118.159 294.199 118.419 294.833 118.419 295.619C118.419 296.334 118.209 296.962 117.787 297.501C117.371 298.041 116.798 298.463 116.069 298.766C115.344 299.064 114.508 299.213 113.561 299.213C112.117 299.213 110.967 298.912 110.11 298.311C109.257 297.705 108.758 296.881 108.611 295.839L111.587 295.683C111.677 296.124 111.895 296.46 112.24 296.692C112.586 296.919 113.029 297.033 113.569 297.033C114.099 297.033 114.525 296.931 114.847 296.727C115.174 296.519 115.339 296.251 115.344 295.925C115.339 295.65 115.223 295.425 114.996 295.25C114.769 295.07 114.418 294.933 113.945 294.838L112.056 294.462C110.99 294.249 110.197 293.879 109.676 293.354C109.16 292.828 108.902 292.158 108.902 291.344C108.902 290.643 109.092 290.039 109.471 289.533C109.854 289.026 110.391 288.635 111.083 288.361C111.779 288.086 112.593 287.949 113.526 287.949C114.904 287.949 115.988 288.24 116.779 288.822C117.574 289.405 118.038 290.198 118.171 291.202ZM125.296 299.213C124.174 299.213 123.208 298.986 122.398 298.531C121.594 298.072 120.973 297.423 120.538 296.585C120.102 295.742 119.884 294.746 119.884 293.595C119.884 292.473 120.102 291.488 120.538 290.641C120.973 289.793 121.586 289.133 122.377 288.659C123.173 288.186 124.105 287.949 125.175 287.949C125.895 287.949 126.565 288.065 127.185 288.297C127.81 288.524 128.355 288.867 128.819 289.327C129.288 289.786 129.652 290.364 129.913 291.06C130.173 291.751 130.303 292.561 130.303 293.489V294.32H121.092V292.445H127.455C127.455 292.009 127.361 291.623 127.171 291.287C126.982 290.951 126.719 290.688 126.383 290.499C126.051 290.304 125.665 290.207 125.225 290.207C124.766 290.207 124.359 290.314 124.004 290.527C123.653 290.735 123.379 291.017 123.18 291.372C122.981 291.723 122.879 292.113 122.874 292.544V294.327C122.874 294.866 122.974 295.333 123.173 295.726C123.376 296.119 123.663 296.422 124.032 296.635C124.401 296.848 124.839 296.955 125.346 296.955C125.682 296.955 125.99 296.907 126.269 296.812C126.549 296.718 126.788 296.576 126.987 296.386C127.185 296.197 127.337 295.965 127.441 295.69L130.239 295.875C130.097 296.547 129.806 297.134 129.366 297.636C128.93 298.134 128.367 298.522 127.675 298.801C126.989 299.076 126.196 299.213 125.296 299.213ZM140.017 299.206C139.321 299.206 138.701 299.085 138.157 298.844C137.612 298.598 137.181 298.235 136.864 297.757C136.551 297.274 136.395 296.673 136.395 295.953C136.395 295.347 136.507 294.838 136.729 294.426C136.952 294.014 137.255 293.683 137.638 293.432C138.022 293.181 138.457 292.991 138.945 292.864C139.437 292.736 139.953 292.646 140.493 292.594C141.128 292.527 141.639 292.466 142.027 292.409C142.416 292.348 142.697 292.258 142.873 292.139C143.048 292.021 143.135 291.846 143.135 291.614V291.571C143.135 291.121 142.993 290.773 142.709 290.527C142.43 290.281 142.032 290.158 141.516 290.158C140.971 290.158 140.538 290.278 140.216 290.52C139.894 290.757 139.681 291.055 139.577 291.415L136.779 291.188C136.921 290.525 137.2 289.952 137.617 289.469C138.033 288.981 138.571 288.607 139.229 288.347C139.892 288.081 140.659 287.949 141.53 287.949C142.136 287.949 142.716 288.02 143.27 288.162C143.829 288.304 144.324 288.524 144.755 288.822C145.19 289.121 145.533 289.504 145.784 289.973C146.035 290.437 146.161 290.993 146.161 291.642V299H143.292V297.487H143.206C143.031 297.828 142.797 298.129 142.503 298.389C142.21 298.645 141.857 298.846 141.445 298.993C141.033 299.135 140.557 299.206 140.017 299.206ZM140.884 297.118C141.329 297.118 141.722 297.03 142.063 296.855C142.404 296.675 142.671 296.434 142.865 296.131C143.06 295.828 143.157 295.484 143.157 295.101V293.943C143.062 294.005 142.932 294.062 142.766 294.114C142.605 294.161 142.423 294.206 142.219 294.249C142.016 294.286 141.812 294.322 141.608 294.355C141.405 294.384 141.22 294.41 141.054 294.433C140.699 294.485 140.389 294.568 140.124 294.682C139.859 294.795 139.653 294.949 139.506 295.143C139.359 295.333 139.286 295.57 139.286 295.854C139.286 296.266 139.435 296.58 139.733 296.798C140.036 297.011 140.42 297.118 140.884 297.118ZM158.066 299.213C156.949 299.213 155.987 298.976 155.183 298.503C154.382 298.025 153.767 297.362 153.336 296.514C152.91 295.667 152.697 294.691 152.697 293.588C152.697 292.471 152.912 291.491 153.343 290.648C153.779 289.8 154.397 289.14 155.197 288.666C155.997 288.188 156.949 287.949 158.052 287.949C159.004 287.949 159.837 288.122 160.552 288.467C161.267 288.813 161.833 289.298 162.249 289.923C162.666 290.548 162.896 291.282 162.938 292.125H160.083C160.003 291.58 159.79 291.143 159.444 290.811C159.103 290.475 158.656 290.307 158.102 290.307C157.633 290.307 157.223 290.435 156.873 290.69C156.527 290.941 156.257 291.308 156.063 291.791C155.869 292.274 155.772 292.859 155.772 293.545C155.772 294.241 155.867 294.833 156.056 295.321C156.25 295.809 156.522 296.18 156.873 296.436C157.223 296.692 157.633 296.82 158.102 296.82C158.447 296.82 158.757 296.749 159.032 296.607C159.311 296.464 159.541 296.259 159.721 295.989C159.906 295.714 160.026 295.385 160.083 295.001H162.938C162.891 295.835 162.664 296.569 162.256 297.203C161.854 297.833 161.298 298.325 160.587 298.68C159.877 299.036 159.037 299.213 158.066 299.213ZM169.804 299.213C168.701 299.213 167.747 298.979 166.942 298.51C166.142 298.036 165.524 297.378 165.088 296.536C164.653 295.688 164.435 294.705 164.435 293.588C164.435 292.461 164.653 291.476 165.088 290.634C165.524 289.786 166.142 289.128 166.942 288.659C167.747 288.186 168.701 287.949 169.804 287.949C170.908 287.949 171.859 288.186 172.659 288.659C173.464 289.128 174.085 289.786 174.52 290.634C174.956 291.476 175.174 292.461 175.174 293.588C175.174 294.705 174.956 295.688 174.52 296.536C174.085 297.378 173.464 298.036 172.659 298.51C171.859 298.979 170.908 299.213 169.804 299.213ZM169.819 296.869C170.32 296.869 170.739 296.727 171.076 296.443C171.412 296.154 171.665 295.761 171.836 295.264C172.011 294.767 172.098 294.201 172.098 293.567C172.098 292.932 172.011 292.366 171.836 291.869C171.665 291.372 171.412 290.979 171.076 290.69C170.739 290.402 170.32 290.257 169.819 290.257C169.312 290.257 168.886 290.402 168.54 290.69C168.199 290.979 167.941 291.372 167.766 291.869C167.596 292.366 167.51 292.932 167.51 293.567C167.51 294.201 167.596 294.767 167.766 295.264C167.941 295.761 168.199 296.154 168.54 296.443C168.886 296.727 169.312 296.869 169.819 296.869ZM180.167 292.693V299H177.141V288.091H180.025V290.016H180.152C180.394 289.381 180.799 288.879 181.367 288.51C181.935 288.136 182.624 287.949 183.434 287.949C184.191 287.949 184.852 288.115 185.415 288.446C185.979 288.777 186.417 289.251 186.729 289.866C187.042 290.477 187.198 291.206 187.198 292.054V299H184.172V292.594C184.177 291.926 184.007 291.405 183.661 291.031C183.315 290.652 182.839 290.463 182.233 290.463C181.826 290.463 181.466 290.551 181.154 290.726C180.846 290.901 180.605 291.157 180.429 291.493C180.259 291.824 180.171 292.224 180.167 292.693ZM195.385 288.091V290.364H188.815V288.091H195.385ZM190.307 285.477H193.332V295.648C193.332 295.927 193.375 296.145 193.46 296.301C193.545 296.453 193.664 296.559 193.815 296.621C193.972 296.682 194.152 296.713 194.355 296.713C194.497 296.713 194.639 296.701 194.781 296.678C194.923 296.649 195.032 296.628 195.108 296.614L195.584 298.865C195.432 298.912 195.219 298.967 194.945 299.028C194.67 299.095 194.336 299.135 193.943 299.149C193.214 299.178 192.575 299.08 192.026 298.858C191.481 298.635 191.057 298.29 190.754 297.821C190.451 297.352 190.302 296.76 190.307 296.045V285.477ZM197.356 299V288.091H200.289V289.994H200.403C200.602 289.317 200.935 288.806 201.404 288.46C201.873 288.11 202.413 287.935 203.023 287.935C203.175 287.935 203.338 287.944 203.513 287.963C203.689 287.982 203.843 288.008 203.975 288.041V290.726C203.833 290.683 203.637 290.645 203.386 290.612C203.135 290.579 202.905 290.562 202.697 290.562C202.252 290.562 201.854 290.66 201.504 290.854C201.158 291.043 200.883 291.308 200.68 291.649C200.481 291.99 200.381 292.383 200.381 292.828V299H197.356ZM208.338 299.206C207.642 299.206 207.021 299.085 206.477 298.844C205.932 298.598 205.502 298.235 205.184 297.757C204.872 297.274 204.716 296.673 204.716 295.953C204.716 295.347 204.827 294.838 205.049 294.426C205.272 294.014 205.575 293.683 205.958 293.432C206.342 293.181 206.778 292.991 207.265 292.864C207.758 292.736 208.274 292.646 208.814 292.594C209.448 292.527 209.959 292.466 210.348 292.409C210.736 292.348 211.018 292.258 211.193 292.139C211.368 292.021 211.456 291.846 211.456 291.614V291.571C211.456 291.121 211.314 290.773 211.029 290.527C210.75 290.281 210.352 290.158 209.836 290.158C209.292 290.158 208.859 290.278 208.537 290.52C208.215 290.757 208.002 291.055 207.897 291.415L205.099 291.188C205.241 290.525 205.52 289.952 205.937 289.469C206.354 288.981 206.891 288.607 207.549 288.347C208.212 288.081 208.979 287.949 209.85 287.949C210.457 287.949 211.037 288.02 211.591 288.162C212.149 288.304 212.644 288.524 213.075 288.822C213.511 289.121 213.854 289.504 214.105 289.973C214.356 290.437 214.481 290.993 214.481 291.642V299H211.612V297.487H211.527C211.351 297.828 211.117 298.129 210.824 298.389C210.53 298.645 210.177 298.846 209.765 298.993C209.353 299.135 208.877 299.206 208.338 299.206ZM209.204 297.118C209.649 297.118 210.042 297.03 210.383 296.855C210.724 296.675 210.992 296.434 211.186 296.131C211.38 295.828 211.477 295.484 211.477 295.101V293.943C211.382 294.005 211.252 294.062 211.086 294.114C210.925 294.161 210.743 294.206 210.539 294.249C210.336 294.286 210.132 294.322 209.929 294.355C209.725 294.384 209.54 294.41 209.375 294.433C209.02 294.485 208.709 294.568 208.444 294.682C208.179 294.795 207.973 294.949 207.826 295.143C207.68 295.333 207.606 295.57 207.606 295.854C207.606 296.266 207.755 296.58 208.054 296.798C208.357 297.011 208.74 297.118 209.204 297.118ZM225.905 291.202L223.135 291.372C223.088 291.135 222.986 290.922 222.83 290.733C222.674 290.539 222.468 290.385 222.212 290.271C221.961 290.153 221.66 290.094 221.31 290.094C220.841 290.094 220.446 290.193 220.124 290.392C219.802 290.586 219.641 290.847 219.641 291.173C219.641 291.434 219.745 291.654 219.953 291.834C220.162 292.014 220.519 292.158 221.026 292.267L223 292.665C224.061 292.883 224.852 293.233 225.373 293.716C225.893 294.199 226.154 294.833 226.154 295.619C226.154 296.334 225.943 296.962 225.522 297.501C225.105 298.041 224.532 298.463 223.803 298.766C223.078 299.064 222.243 299.213 221.296 299.213C219.852 299.213 218.701 298.912 217.844 298.311C216.992 297.705 216.492 296.881 216.346 295.839L219.321 295.683C219.411 296.124 219.629 296.46 219.975 296.692C220.32 296.919 220.763 297.033 221.303 297.033C221.833 297.033 222.259 296.931 222.581 296.727C222.908 296.519 223.074 296.251 223.078 295.925C223.074 295.65 222.958 295.425 222.73 295.25C222.503 295.07 222.153 294.933 221.679 294.838L219.79 294.462C218.725 294.249 217.932 293.879 217.411 293.354C216.895 292.828 216.637 292.158 216.637 291.344C216.637 290.643 216.826 290.039 217.205 289.533C217.588 289.026 218.126 288.635 218.817 288.361C219.513 288.086 220.328 287.949 221.26 287.949C222.638 287.949 223.722 288.24 224.513 288.822C225.309 289.405 225.773 290.198 225.905 291.202ZM233.862 288.091V290.364H227.292V288.091H233.862ZM228.783 285.477H231.809V295.648C231.809 295.927 231.852 296.145 231.937 296.301C232.022 296.453 232.14 296.559 232.292 296.621C232.448 296.682 232.628 296.713 232.832 296.713C232.974 296.713 233.116 296.701 233.258 296.678C233.4 296.649 233.509 296.628 233.585 296.614L234.06 298.865C233.909 298.912 233.696 298.967 233.421 299.028C233.147 299.095 232.813 299.135 232.42 299.149C231.691 299.178 231.051 299.08 230.502 298.858C229.958 298.635 229.534 298.29 229.231 297.821C228.928 297.352 228.779 296.76 228.783 296.045V285.477ZM240.461 299V288.091H243.395V289.994H243.508C243.707 289.317 244.041 288.806 244.51 288.46C244.978 288.11 245.518 287.935 246.129 287.935C246.28 287.935 246.444 287.944 246.619 287.963C246.794 287.982 246.948 288.008 247.081 288.041V290.726C246.939 290.683 246.742 290.645 246.491 290.612C246.24 290.579 246.011 290.562 245.802 290.562C245.357 290.562 244.959 290.66 244.609 290.854C244.263 291.043 243.989 291.308 243.785 291.649C243.586 291.99 243.487 292.383 243.487 292.828V299H240.461ZM251.443 299.206C250.747 299.206 250.127 299.085 249.582 298.844C249.038 298.598 248.607 298.235 248.29 297.757C247.977 297.274 247.821 296.673 247.821 295.953C247.821 295.347 247.932 294.838 248.155 294.426C248.377 294.014 248.68 293.683 249.064 293.432C249.447 293.181 249.883 292.991 250.371 292.864C250.863 292.736 251.379 292.646 251.919 292.594C252.554 292.527 253.065 292.466 253.453 292.409C253.841 292.348 254.123 292.258 254.298 292.139C254.473 292.021 254.561 291.846 254.561 291.614V291.571C254.561 291.121 254.419 290.773 254.135 290.527C253.856 290.281 253.458 290.158 252.942 290.158C252.397 290.158 251.964 290.278 251.642 290.52C251.32 290.757 251.107 291.055 251.003 291.415L248.205 291.188C248.347 290.525 248.626 289.952 249.043 289.469C249.459 288.981 249.997 288.607 250.655 288.347C251.318 288.081 252.085 287.949 252.956 287.949C253.562 287.949 254.142 288.02 254.696 288.162C255.255 288.304 255.75 288.524 256.18 288.822C256.616 289.121 256.959 289.504 257.21 289.973C257.461 290.437 257.587 290.993 257.587 291.642V299H254.717V297.487H254.632C254.457 297.828 254.223 298.129 253.929 298.389C253.635 298.645 253.283 298.846 252.871 298.993C252.459 299.135 251.983 299.206 251.443 299.206ZM252.31 297.118C252.755 297.118 253.148 297.03 253.489 296.855C253.83 296.675 254.097 296.434 254.291 296.131C254.485 295.828 254.582 295.484 254.582 295.101V293.943C254.488 294.005 254.357 294.062 254.192 294.114C254.031 294.161 253.848 294.206 253.645 294.249C253.441 294.286 253.238 294.322 253.034 294.355C252.83 294.384 252.646 294.41 252.48 294.433C252.125 294.485 251.815 294.568 251.55 294.682C251.285 294.795 251.079 294.949 250.932 295.143C250.785 295.333 250.712 295.57 250.712 295.854C250.712 296.266 250.861 296.58 251.159 296.798C251.462 297.011 251.846 297.118 252.31 297.118ZM265.737 288.091V290.364H259.167V288.091H265.737ZM260.658 285.477H263.684V295.648C263.684 295.927 263.727 296.145 263.812 296.301C263.897 296.453 264.015 296.559 264.167 296.621C264.323 296.682 264.503 296.713 264.707 296.713C264.849 296.713 264.991 296.701 265.133 296.678C265.275 296.649 265.384 296.628 265.46 296.614L265.935 298.865C265.784 298.912 265.571 298.967 265.296 299.028C265.022 299.095 264.688 299.135 264.295 299.149C263.566 299.178 262.926 299.08 262.377 298.858C261.833 298.635 261.409 298.29 261.106 297.821C260.803 297.352 260.654 296.76 260.658 296.045V285.477ZM267.707 299V288.091H270.733V299H267.707ZM269.227 286.685C268.777 286.685 268.392 286.536 268.07 286.237C267.752 285.934 267.594 285.572 267.594 285.151C267.594 284.734 267.752 284.376 268.07 284.078C268.392 283.775 268.777 283.624 269.227 283.624C269.677 283.624 270.061 283.775 270.378 284.078C270.7 284.376 270.861 284.734 270.861 285.151C270.861 285.572 270.7 285.934 270.378 286.237C270.061 286.536 269.677 286.685 269.227 286.685ZM278.086 299.213C276.982 299.213 276.028 298.979 275.223 298.51C274.423 298.036 273.805 297.378 273.37 296.536C272.934 295.688 272.716 294.705 272.716 293.588C272.716 292.461 272.934 291.476 273.37 290.634C273.805 289.786 274.423 289.128 275.223 288.659C276.028 288.186 276.982 287.949 278.086 287.949C279.189 287.949 280.141 288.186 280.941 288.659C281.746 289.128 282.366 289.786 282.801 290.634C283.237 291.476 283.455 292.461 283.455 293.588C283.455 294.705 283.237 295.688 282.801 296.536C282.366 297.378 281.746 298.036 280.941 298.51C280.141 298.979 279.189 299.213 278.086 299.213ZM278.1 296.869C278.602 296.869 279.021 296.727 279.357 296.443C279.693 296.154 279.946 295.761 280.117 295.264C280.292 294.767 280.38 294.201 280.38 293.567C280.38 292.932 280.292 292.366 280.117 291.869C279.946 291.372 279.693 290.979 279.357 290.69C279.021 290.402 278.602 290.257 278.1 290.257C277.593 290.257 277.167 290.402 276.821 290.69C276.48 290.979 276.222 291.372 276.047 291.869C275.877 292.366 275.792 292.932 275.792 293.567C275.792 294.201 275.877 294.767 276.047 295.264C276.222 295.761 276.48 296.154 276.821 296.443C277.167 296.727 277.593 296.869 278.1 296.869ZM294.98 299.213C293.877 299.213 292.923 298.979 292.118 298.51C291.318 298.036 290.7 297.378 290.264 296.536C289.829 295.688 289.611 294.705 289.611 293.588C289.611 292.461 289.829 291.476 290.264 290.634C290.7 289.786 291.318 289.128 292.118 288.659C292.923 288.186 293.877 287.949 294.98 287.949C296.083 287.949 297.035 288.186 297.835 288.659C298.64 289.128 299.26 289.786 299.696 290.634C300.132 291.476 300.349 292.461 300.349 293.588C300.349 294.705 300.132 295.688 299.696 296.536C299.26 297.378 298.64 298.036 297.835 298.51C297.035 298.979 296.083 299.213 294.98 299.213ZM294.994 296.869C295.496 296.869 295.915 296.727 296.251 296.443C296.588 296.154 296.841 295.761 297.011 295.264C297.187 294.767 297.274 294.201 297.274 293.567C297.274 292.932 297.187 292.366 297.011 291.869C296.841 291.372 296.588 290.979 296.251 290.69C295.915 290.402 295.496 290.257 294.994 290.257C294.488 290.257 294.062 290.402 293.716 290.69C293.375 290.979 293.117 291.372 292.942 291.869C292.771 292.366 292.686 292.932 292.686 293.567C292.686 294.201 292.771 294.767 292.942 295.264C293.117 295.761 293.375 296.154 293.716 296.443C294.062 296.727 294.488 296.869 294.994 296.869ZM308.183 288.091V290.364H301.45V288.091H308.183ZM302.991 299V287.303C302.991 286.512 303.145 285.856 303.453 285.335C303.766 284.814 304.192 284.424 304.732 284.163C305.271 283.903 305.884 283.773 306.571 283.773C307.035 283.773 307.459 283.808 307.842 283.879C308.231 283.95 308.519 284.014 308.709 284.071L308.169 286.344C308.051 286.306 307.904 286.27 307.729 286.237C307.558 286.204 307.383 286.188 307.203 286.188C306.758 286.188 306.448 286.292 306.273 286.5C306.098 286.704 306.01 286.99 306.01 287.359V299H302.991ZM317.771 299.206C317.075 299.206 316.455 299.085 315.911 298.844C315.366 298.598 314.935 298.235 314.618 297.757C314.305 297.274 314.149 296.673 314.149 295.953C314.149 295.347 314.26 294.838 314.483 294.426C314.705 294.014 315.009 293.683 315.392 293.432C315.776 293.181 316.211 292.991 316.699 292.864C317.191 292.736 317.707 292.646 318.247 292.594C318.882 292.527 319.393 292.466 319.781 292.409C320.17 292.348 320.451 292.258 320.626 292.139C320.802 292.021 320.889 291.846 320.889 291.614V291.571C320.889 291.121 320.747 290.773 320.463 290.527C320.184 290.281 319.786 290.158 319.27 290.158C318.725 290.158 318.292 290.278 317.97 290.52C317.648 290.757 317.435 291.055 317.331 291.415L314.533 291.188C314.675 290.525 314.954 289.952 315.371 289.469C315.787 288.981 316.325 288.607 316.983 288.347C317.646 288.081 318.413 287.949 319.284 287.949C319.89 287.949 320.47 288.02 321.024 288.162C321.583 288.304 322.078 288.524 322.509 288.822C322.944 289.121 323.287 289.504 323.538 289.973C323.789 290.437 323.915 290.993 323.915 291.642V299H321.045V297.487H320.96C320.785 297.828 320.551 298.129 320.257 298.389C319.964 298.645 319.611 298.846 319.199 298.993C318.787 299.135 318.311 299.206 317.771 299.206ZM318.638 297.118C319.083 297.118 319.476 297.03 319.817 296.855C320.158 296.675 320.425 296.434 320.619 296.131C320.813 295.828 320.911 295.484 320.911 295.101V293.943C320.816 294.005 320.686 294.062 320.52 294.114C320.359 294.161 320.177 294.206 319.973 294.249C319.769 294.286 319.566 294.322 319.362 294.355C319.159 294.384 318.974 294.41 318.808 294.433C318.453 294.485 318.143 294.568 317.878 294.682C317.613 294.795 317.407 294.949 317.26 295.143C317.113 295.333 317.04 295.57 317.04 295.854C317.04 296.266 317.189 296.58 317.487 296.798C317.79 297.011 318.174 297.118 318.638 297.118ZM332.065 288.091V290.364H325.495V288.091H332.065ZM326.987 285.477H330.012V295.648C330.012 295.927 330.055 296.145 330.14 296.301C330.225 296.453 330.344 296.559 330.495 296.621C330.651 296.682 330.831 296.713 331.035 296.713C331.177 296.713 331.319 296.701 331.461 296.678C331.603 296.649 331.712 296.628 331.788 296.614L332.263 298.865C332.112 298.912 331.899 298.967 331.624 299.028C331.35 299.095 331.016 299.135 330.623 299.149C329.894 299.178 329.254 299.08 328.705 298.858C328.161 298.635 327.737 298.29 327.434 297.821C327.131 297.352 326.982 296.76 326.987 296.045V285.477ZM341.69 284.455V299H338.664V284.455H341.69ZM349.085 299.213C347.963 299.213 346.997 298.986 346.188 298.531C345.383 298.072 344.762 297.423 344.327 296.585C343.891 295.742 343.673 294.746 343.673 293.595C343.673 292.473 343.891 291.488 344.327 290.641C344.762 289.793 345.375 289.133 346.166 288.659C346.962 288.186 347.894 287.949 348.964 287.949C349.684 287.949 350.354 288.065 350.974 288.297C351.599 288.524 352.144 288.867 352.608 289.327C353.077 289.786 353.441 290.364 353.702 291.06C353.962 291.751 354.092 292.561 354.092 293.489V294.32H344.881V292.445H351.244C351.244 292.009 351.15 291.623 350.96 291.287C350.771 290.951 350.508 290.688 350.172 290.499C349.84 290.304 349.455 290.207 349.014 290.207C348.555 290.207 348.148 290.314 347.793 290.527C347.442 290.735 347.168 291.017 346.969 291.372C346.77 291.723 346.668 292.113 346.663 292.544V294.327C346.663 294.866 346.763 295.333 346.962 295.726C347.165 296.119 347.452 296.422 347.821 296.635C348.19 296.848 348.628 296.955 349.135 296.955C349.471 296.955 349.779 296.907 350.058 296.812C350.338 296.718 350.577 296.576 350.776 296.386C350.974 296.197 351.126 295.965 351.23 295.69L354.028 295.875C353.886 296.547 353.595 297.134 353.155 297.636C352.719 298.134 352.156 298.522 351.464 298.801C350.778 299.076 349.985 299.213 349.085 299.213ZM359.178 299.206C358.482 299.206 357.861 299.085 357.317 298.844C356.772 298.598 356.341 298.235 356.024 297.757C355.712 297.274 355.555 296.673 355.555 295.953C355.555 295.347 355.667 294.838 355.889 294.426C356.112 294.014 356.415 293.683 356.798 293.432C357.182 293.181 357.617 292.991 358.105 292.864C358.598 292.736 359.114 292.646 359.653 292.594C360.288 292.527 360.799 292.466 361.188 292.409C361.576 292.348 361.857 292.258 362.033 292.139C362.208 292.021 362.295 291.846 362.295 291.614V291.571C362.295 291.121 362.153 290.773 361.869 290.527C361.59 290.281 361.192 290.158 360.676 290.158C360.132 290.158 359.698 290.278 359.376 290.52C359.054 290.757 358.841 291.055 358.737 291.415L355.939 291.188C356.081 290.525 356.36 289.952 356.777 289.469C357.194 288.981 357.731 288.607 358.389 288.347C359.052 288.081 359.819 287.949 360.69 287.949C361.296 287.949 361.876 288.02 362.43 288.162C362.989 288.304 363.484 288.524 363.915 288.822C364.35 289.121 364.694 289.504 364.945 289.973C365.196 290.437 365.321 290.993 365.321 291.642V299H362.452V297.487H362.366C362.191 297.828 361.957 298.129 361.663 298.389C361.37 298.645 361.017 298.846 360.605 298.993C360.193 299.135 359.717 299.206 359.178 299.206ZM360.044 297.118C360.489 297.118 360.882 297.03 361.223 296.855C361.564 296.675 361.831 296.434 362.026 296.131C362.22 295.828 362.317 295.484 362.317 295.101V293.943C362.222 294.005 362.092 294.062 361.926 294.114C361.765 294.161 361.583 294.206 361.379 294.249C361.176 294.286 360.972 294.322 360.768 294.355C360.565 294.384 360.38 294.41 360.214 294.433C359.859 294.485 359.549 294.568 359.284 294.682C359.019 294.795 358.813 294.949 358.666 295.143C358.519 295.333 358.446 295.57 358.446 295.854C358.446 296.266 358.595 296.58 358.893 296.798C359.196 297.011 359.58 297.118 360.044 297.118ZM376.745 291.202L373.975 291.372C373.928 291.135 373.826 290.922 373.67 290.733C373.513 290.539 373.308 290.385 373.052 290.271C372.801 290.153 372.5 290.094 372.15 290.094C371.681 290.094 371.286 290.193 370.964 290.392C370.642 290.586 370.481 290.847 370.481 291.173C370.481 291.434 370.585 291.654 370.793 291.834C371.002 292.014 371.359 292.158 371.866 292.267L373.84 292.665C374.901 292.883 375.692 293.233 376.212 293.716C376.733 294.199 376.994 294.833 376.994 295.619C376.994 296.334 376.783 296.962 376.362 297.501C375.945 298.041 375.372 298.463 374.643 298.766C373.918 299.064 373.083 299.213 372.136 299.213C370.692 299.213 369.541 298.912 368.684 298.311C367.832 297.705 367.332 296.881 367.185 295.839L370.161 295.683C370.251 296.124 370.469 296.46 370.815 296.692C371.16 296.919 371.603 297.033 372.143 297.033C372.673 297.033 373.099 296.931 373.421 296.727C373.748 296.519 373.914 296.251 373.918 295.925C373.914 295.65 373.798 295.425 373.57 295.25C373.343 295.07 372.993 294.933 372.519 294.838L370.63 294.462C369.565 294.249 368.772 293.879 368.251 293.354C367.735 292.828 367.477 292.158 367.477 291.344C367.477 290.643 367.666 290.039 368.045 289.533C368.428 289.026 368.966 288.635 369.657 288.361C370.353 288.086 371.167 287.949 372.1 287.949C373.478 287.949 374.562 288.24 375.353 288.822C376.148 289.405 376.612 290.198 376.745 291.202ZM384.701 288.091V290.364H378.132V288.091H384.701ZM379.623 285.477H382.649V295.648C382.649 295.927 382.691 296.145 382.777 296.301C382.862 296.453 382.98 296.559 383.132 296.621C383.288 296.682 383.468 296.713 383.672 296.713C383.814 296.713 383.956 296.701 384.098 296.678C384.24 296.649 384.349 296.628 384.424 296.614L384.9 298.865C384.749 298.912 384.536 298.967 384.261 299.028C383.986 299.095 383.653 299.135 383.26 299.149C382.53 299.178 381.891 299.08 381.342 298.858C380.797 298.635 380.374 298.29 380.071 297.821C379.768 297.352 379.618 296.76 379.623 296.045V285.477ZM391.053 296.443V294.021L397.125 284.455H399.213V287.807H397.977L394.149 293.865V293.979H402.778V296.443H391.053ZM398.034 299V295.705L398.091 294.632V284.455H400.974V299H398.034ZM406.351 299.185C405.882 299.185 405.48 299.019 405.143 298.688C404.812 298.351 404.646 297.949 404.646 297.48C404.646 297.016 404.812 296.618 405.143 296.287C405.48 295.955 405.882 295.79 406.351 295.79C406.805 295.79 407.203 295.955 407.544 296.287C407.885 296.618 408.055 297.016 408.055 297.48C408.055 297.793 407.975 298.079 407.814 298.339C407.658 298.595 407.452 298.801 407.196 298.957C406.94 299.109 406.659 299.185 406.351 299.185ZM415.706 299.199C414.703 299.199 413.808 299.014 413.022 298.645C412.24 298.276 411.62 297.767 411.161 297.118C410.702 296.469 410.462 295.726 410.444 294.888H413.426C413.46 295.451 413.696 295.908 414.137 296.259C414.577 296.609 415.1 296.784 415.706 296.784C416.189 296.784 416.615 296.678 416.985 296.464C417.359 296.247 417.65 295.946 417.858 295.562C418.071 295.174 418.178 294.729 418.178 294.227C418.178 293.716 418.069 293.266 417.851 292.878C417.638 292.49 417.342 292.187 416.963 291.969C416.585 291.751 416.151 291.64 415.664 291.635C415.238 291.635 414.823 291.723 414.421 291.898C414.023 292.073 413.713 292.312 413.49 292.615L410.756 292.125L411.445 284.455H420.337V286.969H413.98L413.604 290.612H413.689C413.945 290.252 414.331 289.954 414.847 289.717C415.363 289.481 415.941 289.362 416.58 289.362C417.456 289.362 418.237 289.568 418.924 289.98C419.61 290.392 420.152 290.958 420.55 291.678C420.948 292.393 421.144 293.216 421.14 294.149C421.144 295.129 420.917 296 420.458 296.763C420.003 297.52 419.366 298.117 418.547 298.553C417.733 298.983 416.786 299.199 415.706 299.199ZM425.081 297.31C424.613 297.31 424.21 297.144 423.874 296.812C423.542 296.481 423.377 296.079 423.377 295.605C423.377 295.141 423.542 294.743 423.874 294.412C424.21 294.08 424.613 293.915 425.081 293.915C425.536 293.915 425.934 294.08 426.275 294.412C426.615 294.743 426.786 295.141 426.786 295.605C426.786 295.918 426.705 296.204 426.544 296.464C426.388 296.72 426.182 296.926 425.926 297.082C425.671 297.234 425.389 297.31 425.081 297.31ZM425.081 290.172C424.613 290.172 424.21 290.006 423.874 289.675C423.542 289.343 423.377 288.941 423.377 288.467C423.377 288.003 423.542 287.608 423.874 287.281C424.21 286.95 424.613 286.784 425.081 286.784C425.536 286.784 425.934 286.95 426.275 287.281C426.615 287.608 426.786 288.003 426.786 288.467C426.786 288.785 426.705 289.073 426.544 289.334C426.388 289.589 426.182 289.793 425.926 289.945C425.671 290.096 425.389 290.172 425.081 290.172ZM435.57 284.455V299H432.494V287.374H432.409L429.078 289.462V286.734L432.679 284.455H435.57ZM440.042 299.185C439.574 299.185 439.171 299.019 438.835 298.688C438.503 298.351 438.338 297.949 438.338 297.48C438.338 297.016 438.503 296.618 438.835 296.287C439.171 295.955 439.574 295.79 440.042 295.79C440.497 295.79 440.895 295.955 441.235 296.287C441.576 296.618 441.747 297.016 441.747 297.48C441.747 297.793 441.666 298.079 441.505 298.339C441.349 298.595 441.143 298.801 440.887 298.957C440.632 299.109 440.35 299.185 440.042 299.185Z" fill="#36EA83"/>
</svg>
