<svg width="480" height="336" viewBox="0 0 480 336" fill="none" class="a11y-example">
  <title>Example of using target size correctly</title>

  <rect width="480" height="148" rx="8" style="fill: var(--vp-code-block-bg)"/>
  <rect x="226" y="24" width="28" height="28" rx="14" fill="currentColor" fill-opacity="0.1"/>
  <path d="M240 39C240.552 39 241 38.5523 241 38C241 37.4477 240.552 37 240 37C239.448 37 239 37.4477 239 38C239 38.5523 239.448 39 240 39Z" stroke="currentColor" stroke-width="2" stroke-linecap="round" stroke-linejoin="round"/>
  <path d="M240 32C240.552 32 241 31.5523 241 31C241 30.4477 240.552 30 240 30C239.448 30 239 30.4477 239 31C239 31.5523 239.448 32 240 32Z" stroke="currentColor" stroke-width="2" stroke-linecap="round" stroke-linejoin="round"/>
  <path d="M240 46C240.552 46 241 45.5523 241 45C241 44.4477 240.552 44 240 44C239.448 44 239 44.4477 239 45C239 45.5523 239.448 46 240 46Z" stroke="currentColor" stroke-width="2" stroke-linecap="round" stroke-linejoin="round"/>
  <path d="M42 82L30 94" style="stroke: var(--vp-a11y-danger)" stroke-width="3" stroke-linecap="round" stroke-linejoin="round"/>
  <path d="M30 82L42 94" style="stroke: var(--vp-a11y-danger)" stroke-width="3" stroke-linecap="round" stroke-linejoin="round"/>
  <path d="M62.4205 95H57.2642V80.4545H62.4631C63.9261 80.4545 65.1856 80.7457 66.2415 81.3281C67.2973 81.9058 68.1094 82.7367 68.6776 83.821C69.2505 84.9053 69.5369 86.2027 69.5369 87.7131C69.5369 89.2282 69.2505 90.5303 68.6776 91.6193C68.1094 92.7083 67.2926 93.544 66.2273 94.1264C65.1667 94.7088 63.8977 95 62.4205 95ZM60.3395 92.3651H62.2926C63.2017 92.3651 63.9664 92.2041 64.5866 91.8821C65.2116 91.5554 65.6804 91.0511 65.9929 90.3693C66.3101 89.6828 66.4688 88.7973 66.4688 87.7131C66.4688 86.6383 66.3101 85.7599 65.9929 85.0781C65.6804 84.3963 65.214 83.8944 64.5938 83.5724C63.9735 83.2505 63.2088 83.0895 62.2997 83.0895H60.3395V92.3651ZM76.6871 95.2131C75.5839 95.2131 74.6299 94.9787 73.8249 94.5099C73.0247 94.0365 72.4068 93.3783 71.9712 92.5355C71.5356 91.688 71.3178 90.7055 71.3178 89.5881C71.3178 88.4612 71.5356 87.4763 71.9712 86.6335C72.4068 85.786 73.0247 85.1278 73.8249 84.6591C74.6299 84.1856 75.5839 83.9489 76.6871 83.9489C77.7904 83.9489 78.7421 84.1856 79.5423 84.6591C80.3472 85.1278 80.9674 85.786 81.4031 86.6335C81.8387 87.4763 82.0565 88.4612 82.0565 89.5881C82.0565 90.7055 81.8387 91.688 81.4031 92.5355C80.9674 93.3783 80.3472 94.0365 79.5423 94.5099C78.7421 94.9787 77.7904 95.2131 76.6871 95.2131ZM76.7013 92.8693C77.2032 92.8693 77.6223 92.7273 77.9585 92.4432C78.2946 92.1544 78.5479 91.7614 78.7184 91.2642C78.8936 90.767 78.9812 90.2012 78.9812 89.5668C78.9812 88.9323 78.8936 88.3665 78.7184 87.8693C78.5479 87.3722 78.2946 86.9792 77.9585 86.6903C77.6223 86.4015 77.2032 86.2571 76.7013 86.2571C76.1947 86.2571 75.7686 86.4015 75.4229 86.6903C75.082 86.9792 74.824 87.3722 74.6488 87.8693C74.4783 88.3665 74.3931 88.9323 74.3931 89.5668C74.3931 90.2012 74.4783 90.767 74.6488 91.2642C74.824 91.7614 75.082 92.1544 75.4229 92.4432C75.7686 92.7273 76.1947 92.8693 76.7013 92.8693ZM87.0494 88.6932V95H84.0238V84.0909H86.9073V86.0156H87.0352C87.2766 85.3812 87.6815 84.8793 88.2496 84.5099C88.8178 84.1359 89.5067 83.9489 90.3164 83.9489C91.074 83.9489 91.7345 84.1146 92.2979 84.446C92.8614 84.7775 93.2994 85.2509 93.6119 85.8665C93.9244 86.4773 94.0806 87.2064 94.0806 88.054V95H91.055V88.5938C91.0598 87.9261 90.8893 87.4053 90.5437 87.0312C90.198 86.6525 89.7222 86.4631 89.1161 86.4631C88.7089 86.4631 88.3491 86.5507 88.0366 86.7259C87.7288 86.901 87.4873 87.1567 87.3121 87.4929C87.1417 87.8243 87.0541 88.2244 87.0494 88.6932ZM99.0007 80.4545V81.9886C99.0007 82.4242 98.9155 82.8693 98.745 83.3239C98.5793 83.7737 98.3568 84.1998 98.0774 84.6023C97.7981 85 97.4927 85.3385 97.1612 85.6179L95.826 84.8295C96.0627 84.4555 96.2711 84.0412 96.451 83.5866C96.6357 83.1321 96.728 82.6042 96.728 82.0028V80.4545H99.0007ZM107.19 84.0909V86.3636H100.62V84.0909H107.19ZM102.112 81.4773H105.137V91.6477C105.137 91.9271 105.18 92.1449 105.265 92.3011C105.35 92.4527 105.469 92.5592 105.62 92.6207C105.776 92.6823 105.956 92.7131 106.16 92.7131C106.302 92.7131 106.444 92.7012 106.586 92.6776C106.728 92.6491 106.837 92.6278 106.913 92.6136L107.388 94.8651C107.237 94.9124 107.024 94.9669 106.749 95.0284C106.475 95.0947 106.141 95.1349 105.748 95.1491C105.019 95.1776 104.379 95.0805 103.83 94.858C103.286 94.6354 102.862 94.2898 102.559 93.821C102.256 93.3523 102.107 92.7604 102.112 92.0455V81.4773ZM113.789 95V84.0909H116.673V86.0156H116.801C117.028 85.3764 117.407 84.8722 117.937 84.5028C118.467 84.1335 119.102 83.9489 119.841 83.9489C120.589 83.9489 121.225 84.1359 121.751 84.5099C122.277 84.8793 122.627 85.3812 122.802 86.0156H122.916C123.138 85.3906 123.541 84.8911 124.123 84.517C124.71 84.1383 125.404 83.9489 126.204 83.9489C127.222 83.9489 128.048 84.2732 128.683 84.9219C129.322 85.5658 129.642 86.4796 129.642 87.6634V95H126.623V88.2599C126.623 87.6539 126.462 87.1993 126.14 86.8963C125.818 86.5933 125.416 86.4418 124.933 86.4418C124.384 86.4418 123.955 86.617 123.647 86.9673C123.34 87.313 123.186 87.7699 123.186 88.3381V95H120.252V88.196C120.252 87.661 120.099 87.2348 119.791 86.9176C119.488 86.6004 119.088 86.4418 118.591 86.4418C118.254 86.4418 117.951 86.527 117.681 86.6974C117.416 86.8632 117.206 87.0975 117.049 87.4006C116.893 87.6989 116.815 88.0492 116.815 88.4517V95H113.789ZM135.142 95.206C134.446 95.206 133.826 95.0852 133.282 94.8438C132.737 94.5975 132.306 94.2353 131.989 93.7571C131.676 93.2741 131.52 92.6728 131.52 91.9531C131.52 91.3471 131.632 90.8381 131.854 90.4261C132.077 90.0142 132.38 89.6828 132.763 89.4318C133.147 89.1809 133.582 88.9915 134.07 88.8636C134.562 88.7358 135.078 88.6458 135.618 88.5938C136.253 88.5275 136.764 88.4659 137.152 88.4091C137.541 88.3475 137.822 88.2576 137.998 88.1392C138.173 88.0208 138.26 87.8456 138.26 87.6136V87.571C138.26 87.1212 138.118 86.7732 137.834 86.527C137.555 86.2808 137.157 86.1577 136.641 86.1577C136.096 86.1577 135.663 86.2784 135.341 86.5199C135.019 86.7566 134.806 87.0549 134.702 87.4148L131.904 87.1875C132.046 86.5246 132.325 85.9517 132.742 85.4688C133.158 84.9811 133.696 84.607 134.354 84.3466C135.017 84.0814 135.784 83.9489 136.655 83.9489C137.261 83.9489 137.841 84.0199 138.395 84.1619C138.954 84.304 139.449 84.5241 139.88 84.8224C140.315 85.1207 140.658 85.5043 140.909 85.973C141.16 86.437 141.286 86.9934 141.286 87.642V95H138.417V93.4872H138.331C138.156 93.8281 137.922 94.1288 137.628 94.3892C137.335 94.6449 136.982 94.8461 136.57 94.9929C136.158 95.1349 135.682 95.206 135.142 95.206ZM136.009 93.1179C136.454 93.1179 136.847 93.0303 137.188 92.8551C137.529 92.6752 137.796 92.4337 137.99 92.1307C138.185 91.8277 138.282 91.4844 138.282 91.1009V89.9432C138.187 90.0047 138.057 90.0616 137.891 90.1136C137.73 90.161 137.548 90.206 137.344 90.2486C137.141 90.2865 136.937 90.322 136.733 90.3551C136.53 90.3835 136.345 90.4096 136.179 90.4332C135.824 90.4853 135.514 90.5682 135.249 90.6818C134.984 90.7955 134.778 90.9493 134.631 91.1435C134.484 91.3329 134.411 91.5696 134.411 91.8537C134.411 92.2656 134.56 92.5805 134.858 92.7983C135.161 93.0114 135.545 93.1179 136.009 93.1179ZM146.375 91.8608L146.382 88.2315H146.822L150.316 84.0909H153.789L149.095 89.5739H148.377L146.375 91.8608ZM143.633 95V80.4545H146.659V95H143.633ZM150.451 95L147.241 90.2486L149.258 88.1108L153.995 95H150.451ZM159.796 95.2131C158.674 95.2131 157.708 94.9858 156.898 94.5312C156.094 94.072 155.473 93.4233 155.038 92.5852C154.602 91.7424 154.384 90.7457 154.384 89.5952C154.384 88.473 154.602 87.4882 155.038 86.6406C155.473 85.7931 156.086 85.1326 156.877 84.6591C157.673 84.1856 158.605 83.9489 159.675 83.9489C160.395 83.9489 161.065 84.0649 161.685 84.2969C162.31 84.5241 162.855 84.8674 163.319 85.3267C163.788 85.786 164.152 86.3636 164.413 87.0597C164.673 87.7509 164.803 88.5606 164.803 89.4886V90.3196H155.592V88.4446H161.955C161.955 88.009 161.861 87.6231 161.671 87.2869C161.482 86.9508 161.219 86.688 160.883 86.4986C160.551 86.3045 160.165 86.2074 159.725 86.2074C159.266 86.2074 158.859 86.3139 158.504 86.527C158.153 86.7353 157.879 87.017 157.68 87.3722C157.481 87.7225 157.379 88.1132 157.374 88.544V90.3267C157.374 90.8665 157.474 91.3329 157.673 91.7259C157.876 92.1188 158.163 92.4219 158.532 92.6349C158.901 92.848 159.339 92.9545 159.846 92.9545C160.182 92.9545 160.49 92.9072 160.769 92.8125C161.049 92.7178 161.288 92.5758 161.487 92.3864C161.685 92.197 161.837 91.965 161.941 91.6903L164.739 91.875C164.597 92.5473 164.306 93.1345 163.866 93.6364C163.43 94.1335 162.867 94.5218 162.175 94.8011C161.489 95.0758 160.696 95.2131 159.796 95.2131ZM177.209 84.0909V86.3636H170.64V84.0909H177.209ZM172.131 81.4773H175.157V91.6477C175.157 91.9271 175.199 92.1449 175.284 92.3011C175.37 92.4527 175.488 92.5592 175.64 92.6207C175.796 92.6823 175.976 92.7131 176.179 92.7131C176.321 92.7131 176.463 92.7012 176.605 92.6776C176.748 92.6491 176.856 92.6278 176.932 92.6136L177.408 94.8651C177.257 94.9124 177.043 94.9669 176.769 95.0284C176.494 95.0947 176.16 95.1349 175.767 95.1491C175.038 95.1776 174.399 95.0805 173.85 94.858C173.305 94.6354 172.882 94.2898 172.578 93.821C172.275 93.3523 172.126 92.7604 172.131 92.0455V81.4773ZM182.44 88.6932V95H179.414V80.4545H182.355V86.0156H182.483C182.729 85.3717 183.127 84.8674 183.676 84.5028C184.225 84.1335 184.914 83.9489 185.743 83.9489C186.5 83.9489 187.161 84.1146 187.724 84.446C188.292 84.7727 188.733 85.2438 189.045 85.8594C189.362 86.4702 189.519 87.2017 189.514 88.054V95H186.488V88.5938C186.493 87.9214 186.323 87.3982 185.977 87.0241C185.636 86.6501 185.158 86.4631 184.542 86.4631C184.13 86.4631 183.766 86.5507 183.449 86.7259C183.136 86.901 182.89 87.1567 182.71 87.4929C182.535 87.8243 182.445 88.2244 182.44 88.6932ZM196.866 95.2131C195.744 95.2131 194.778 94.9858 193.969 94.5312C193.164 94.072 192.544 93.4233 192.108 92.5852C191.672 91.7424 191.455 90.7457 191.455 89.5952C191.455 88.473 191.672 87.4882 192.108 86.6406C192.544 85.7931 193.157 85.1326 193.947 84.6591C194.743 84.1856 195.676 83.9489 196.746 83.9489C197.465 83.9489 198.135 84.0649 198.756 84.2969C199.381 84.5241 199.925 84.8674 200.389 85.3267C200.858 85.786 201.223 86.3636 201.483 87.0597C201.743 87.7509 201.874 88.5606 201.874 89.4886V90.3196H192.662V88.4446H199.026C199.026 88.009 198.931 87.6231 198.741 87.2869C198.552 86.9508 198.289 86.688 197.953 86.4986C197.622 86.3045 197.236 86.2074 196.795 86.2074C196.336 86.2074 195.929 86.3139 195.574 86.527C195.223 86.7353 194.949 87.017 194.75 87.3722C194.551 87.7225 194.449 88.1132 194.445 88.544V90.3267C194.445 90.8665 194.544 91.3329 194.743 91.7259C194.946 92.1188 195.233 92.4219 195.602 92.6349C195.972 92.848 196.41 92.9545 196.916 92.9545C197.252 92.9545 197.56 92.9072 197.839 92.8125C198.119 92.7178 198.358 92.5758 198.557 92.3864C198.756 92.197 198.907 91.965 199.011 91.6903L201.81 91.875C201.668 92.5473 201.376 93.1345 200.936 93.6364C200.5 94.1335 199.937 94.5218 199.246 94.8011C198.559 95.0758 197.766 95.2131 196.866 95.2131ZM214.279 84.0909V86.3636H207.71V84.0909H214.279ZM209.201 81.4773H212.227V91.6477C212.227 91.9271 212.27 92.1449 212.355 92.3011C212.44 92.4527 212.558 92.5592 212.71 92.6207C212.866 92.6823 213.046 92.7131 213.25 92.7131C213.392 92.7131 213.534 92.7012 213.676 92.6776C213.818 92.6491 213.927 92.6278 214.002 92.6136L214.478 94.8651C214.327 94.9124 214.114 94.9669 213.839 95.0284C213.565 95.0947 213.231 95.1349 212.838 95.1491C212.109 95.1776 211.469 95.0805 210.92 94.858C210.376 94.6354 209.952 94.2898 209.649 93.821C209.346 93.3523 209.197 92.7604 209.201 92.0455V81.4773ZM219.361 95.206C218.665 95.206 218.045 95.0852 217.5 94.8438C216.956 94.5975 216.525 94.2353 216.208 93.7571C215.895 93.2741 215.739 92.6728 215.739 91.9531C215.739 91.3471 215.85 90.8381 216.073 90.4261C216.295 90.0142 216.598 89.6828 216.982 89.4318C217.365 89.1809 217.801 88.9915 218.289 88.8636C218.781 88.7358 219.297 88.6458 219.837 88.5938C220.471 88.5275 220.983 88.4659 221.371 88.4091C221.759 88.3475 222.041 88.2576 222.216 88.1392C222.391 88.0208 222.479 87.8456 222.479 87.6136V87.571C222.479 87.1212 222.337 86.7732 222.053 86.527C221.774 86.2808 221.376 86.1577 220.86 86.1577C220.315 86.1577 219.882 86.2784 219.56 86.5199C219.238 86.7566 219.025 87.0549 218.921 87.4148L216.123 87.1875C216.265 86.5246 216.544 85.9517 216.961 85.4688C217.377 84.9811 217.915 84.607 218.573 84.3466C219.236 84.0814 220.003 83.9489 220.874 83.9489C221.48 83.9489 222.06 84.0199 222.614 84.1619C223.173 84.304 223.667 84.5241 224.098 84.8224C224.534 85.1207 224.877 85.5043 225.128 85.973C225.379 86.437 225.505 86.9934 225.505 87.642V95H222.635V93.4872H222.55C222.375 93.8281 222.141 94.1288 221.847 94.3892C221.553 94.6449 221.201 94.8461 220.789 94.9929C220.377 95.1349 219.901 95.206 219.361 95.206ZM220.228 93.1179C220.673 93.1179 221.066 93.0303 221.407 92.8551C221.748 92.6752 222.015 92.4337 222.209 92.1307C222.403 91.8277 222.5 91.4844 222.5 91.1009V89.9432C222.406 90.0047 222.275 90.0616 222.11 90.1136C221.949 90.161 221.766 90.206 221.563 90.2486C221.359 90.2865 221.156 90.322 220.952 90.3551C220.748 90.3835 220.564 90.4096 220.398 90.4332C220.043 90.4853 219.733 90.5682 219.468 90.6818C219.203 90.7955 218.997 90.9493 218.85 91.1435C218.703 91.3329 218.63 91.5696 218.63 91.8537C218.63 92.2656 218.779 92.5805 219.077 92.7983C219.38 93.0114 219.764 93.1179 220.228 93.1179ZM227.852 95V84.0909H230.785V85.9943H230.899C231.098 85.3172 231.431 84.8059 231.9 84.4602C232.369 84.1098 232.909 83.9347 233.52 83.9347C233.671 83.9347 233.834 83.9441 234.01 83.9631C234.185 83.982 234.339 84.008 234.471 84.0412V86.7259C234.329 86.6832 234.133 86.6454 233.882 86.6122C233.631 86.5791 233.401 86.5625 233.193 86.5625C232.748 86.5625 232.35 86.6596 232 86.8537C231.654 87.0431 231.379 87.3082 231.176 87.6491C230.977 87.9901 230.877 88.383 230.877 88.8281V95H227.852ZM240.442 99.3182C239.462 99.3182 238.622 99.1832 237.921 98.9134C237.225 98.6482 236.671 98.286 236.259 97.8267C235.847 97.3674 235.58 96.8513 235.457 96.2784L238.255 95.902C238.34 96.1198 238.475 96.3234 238.66 96.5128C238.844 96.7022 239.088 96.8537 239.391 96.9673C239.699 97.0857 240.073 97.1449 240.513 97.1449C241.172 97.1449 241.714 96.9839 242.14 96.6619C242.571 96.3447 242.786 95.812 242.786 95.0639V93.0682H242.658C242.526 93.3712 242.327 93.6577 242.062 93.9276C241.797 94.1974 241.456 94.4176 241.039 94.5881C240.622 94.7585 240.125 94.8438 239.548 94.8438C238.728 94.8438 237.983 94.6544 237.31 94.2756C236.643 93.892 236.11 93.3073 235.712 92.5213C235.319 91.7306 235.123 90.7315 235.123 89.5241C235.123 88.2884 235.324 87.2562 235.727 86.4276C236.129 85.599 236.664 84.9787 237.332 84.5668C238.004 84.1548 238.74 83.9489 239.54 83.9489C240.151 83.9489 240.663 84.053 241.075 84.2614C241.487 84.465 241.818 84.7206 242.069 85.0284C242.325 85.3314 242.521 85.6297 242.658 85.9233H242.772V84.0909H245.776V95.1065C245.776 96.0346 245.549 96.8111 245.094 97.4361C244.64 98.0611 244.01 98.5298 243.205 98.8423C242.405 99.1596 241.484 99.3182 240.442 99.3182ZM240.506 92.571C240.994 92.571 241.406 92.4503 241.742 92.2088C242.083 91.9626 242.344 91.6122 242.523 91.1577C242.708 90.6984 242.8 90.1491 242.8 89.5099C242.8 88.8707 242.71 88.3168 242.531 87.848C242.351 87.3745 242.09 87.0076 241.749 86.7472C241.408 86.4867 240.994 86.3565 240.506 86.3565C240.009 86.3565 239.59 86.4915 239.249 86.7614C238.908 87.0265 238.65 87.3958 238.475 87.8693C238.3 88.3428 238.212 88.8897 238.212 89.5099C238.212 90.1397 238.3 90.6842 238.475 91.1435C238.655 91.598 238.913 91.9508 239.249 92.2017C239.59 92.4479 240.009 92.571 240.506 92.571ZM253.156 95.2131C252.033 95.2131 251.067 94.9858 250.258 94.5312C249.453 94.072 248.833 93.4233 248.397 92.5852C247.961 91.7424 247.744 90.7457 247.744 89.5952C247.744 88.473 247.961 87.4882 248.397 86.6406C248.833 85.7931 249.446 85.1326 250.237 84.6591C251.032 84.1856 251.965 83.9489 253.035 83.9489C253.754 83.9489 254.424 84.0649 255.045 84.2969C255.67 84.5241 256.214 84.8674 256.678 85.3267C257.147 85.786 257.512 86.3636 257.772 87.0597C258.032 87.7509 258.163 88.5606 258.163 89.4886V90.3196H248.951V88.4446H255.315C255.315 88.009 255.22 87.6231 255.031 87.2869C254.841 86.9508 254.578 86.688 254.242 86.4986C253.911 86.3045 253.525 86.2074 253.085 86.2074C252.625 86.2074 252.218 86.3139 251.863 86.527C251.513 86.7353 251.238 87.017 251.039 87.3722C250.84 87.7225 250.738 88.1132 250.734 88.544V90.3267C250.734 90.8665 250.833 91.3329 251.032 91.7259C251.236 92.1188 251.522 92.4219 251.891 92.6349C252.261 92.848 252.699 92.9545 253.205 92.9545C253.541 92.9545 253.849 92.9072 254.129 92.8125C254.408 92.7178 254.647 92.5758 254.846 92.3864C255.045 92.197 255.196 91.965 255.3 91.6903L258.099 91.875C257.957 92.5473 257.665 93.1345 257.225 93.6364C256.79 94.1335 256.226 94.5218 255.535 94.8011C254.848 95.0758 254.055 95.2131 253.156 95.2131ZM265.94 84.0909V86.3636H259.37V84.0909H265.94ZM260.862 81.4773H263.887V91.6477C263.887 91.9271 263.93 92.1449 264.015 92.3011C264.1 92.4527 264.219 92.5592 264.37 92.6207C264.526 92.6823 264.706 92.7131 264.91 92.7131C265.052 92.7131 265.194 92.7012 265.336 92.6776C265.478 92.6491 265.587 92.6278 265.663 92.6136L266.138 94.8651C265.987 94.9124 265.774 94.9669 265.499 95.0284C265.225 95.0947 264.891 95.1349 264.498 95.1491C263.769 95.1776 263.129 95.0805 262.58 94.858C262.036 94.6354 261.612 94.2898 261.309 93.821C261.006 93.3523 260.857 92.7604 260.862 92.0455V81.4773ZM281.616 87.2017L278.846 87.3722C278.799 87.1354 278.697 86.9223 278.541 86.733C278.385 86.5388 278.179 86.3849 277.923 86.2713C277.672 86.1529 277.371 86.0938 277.021 86.0938C276.552 86.0938 276.157 86.1932 275.835 86.392C275.513 86.5862 275.352 86.8466 275.352 87.1733C275.352 87.4337 275.456 87.6539 275.664 87.8338C275.873 88.0137 276.23 88.1581 276.737 88.267L278.711 88.6648C279.772 88.8826 280.563 89.233 281.083 89.7159C281.604 90.1989 281.865 90.8333 281.865 91.6193C281.865 92.3343 281.654 92.9616 281.233 93.5014C280.816 94.0412 280.243 94.4626 279.514 94.7656C278.789 95.0639 277.954 95.2131 277.007 95.2131C275.563 95.2131 274.412 94.9124 273.555 94.3111C272.703 93.705 272.203 92.8812 272.056 91.8395L275.032 91.6832C275.122 92.1236 275.34 92.4598 275.686 92.6918C276.031 92.919 276.474 93.0327 277.014 93.0327C277.544 93.0327 277.97 92.9309 278.292 92.7273C278.619 92.5189 278.785 92.2514 278.789 91.9247C278.785 91.6501 278.669 91.4252 278.441 91.25C278.214 91.0701 277.864 90.9328 277.39 90.8381L275.501 90.4616C274.436 90.2486 273.643 89.8793 273.122 89.3537C272.606 88.8281 272.348 88.1581 272.348 87.3438C272.348 86.643 272.537 86.0393 272.916 85.5327C273.299 85.026 273.837 84.6354 274.528 84.3608C275.224 84.0862 276.038 83.9489 276.971 83.9489C278.349 83.9489 279.433 84.2401 280.224 84.8224C281.02 85.4048 281.484 86.1979 281.616 87.2017ZM283.77 95V84.0909H286.795V95H283.77ZM285.29 82.6847C284.84 82.6847 284.454 82.5355 284.132 82.2372C283.815 81.9342 283.656 81.572 283.656 81.1506C283.656 80.7339 283.815 80.3764 284.132 80.0781C284.454 79.7751 284.84 79.6236 285.29 79.6236C285.74 79.6236 286.123 79.7751 286.44 80.0781C286.762 80.3764 286.923 80.7339 286.923 81.1506C286.923 81.572 286.762 81.9342 286.44 82.2372C286.123 82.5355 285.74 82.6847 285.29 82.6847ZM289.162 95V93.196L294.503 86.5838V86.5057H289.347V84.0909H298.147V86.0582L293.132 92.5071V92.5852H298.331V95H289.162ZM305.304 95.2131C304.182 95.2131 303.216 94.9858 302.406 94.5312C301.601 94.072 300.981 93.4233 300.545 92.5852C300.11 91.7424 299.892 90.7457 299.892 89.5952C299.892 88.473 300.11 87.4882 300.545 86.6406C300.981 85.7931 301.594 85.1326 302.385 84.6591C303.18 84.1856 304.113 83.9489 305.183 83.9489C305.903 83.9489 306.573 84.0649 307.193 84.2969C307.818 84.5241 308.363 84.8674 308.827 85.3267C309.295 85.786 309.66 86.3636 309.92 87.0597C310.181 87.7509 310.311 88.5606 310.311 89.4886V90.3196H301.099V88.4446H307.463C307.463 88.009 307.368 87.6231 307.179 87.2869C306.99 86.9508 306.727 86.688 306.391 86.4986C306.059 86.3045 305.673 86.2074 305.233 86.2074C304.774 86.2074 304.366 86.3139 304.011 86.527C303.661 86.7353 303.386 87.017 303.188 87.3722C302.989 87.7225 302.887 88.1132 302.882 88.544V90.3267C302.882 90.8665 302.982 91.3329 303.18 91.7259C303.384 92.1188 303.67 92.4219 304.04 92.6349C304.409 92.848 304.847 92.9545 305.354 92.9545C305.69 92.9545 305.998 92.9072 306.277 92.8125C306.556 92.7178 306.795 92.5758 306.994 92.3864C307.193 92.197 307.345 91.965 307.449 91.6903L310.247 91.875C310.105 92.5473 309.814 93.1345 309.374 93.6364C308.938 94.1335 308.375 94.5218 307.683 94.8011C306.997 95.0758 306.204 95.2131 305.304 95.2131ZM66.2841 111.202L63.5142 111.372C63.4669 111.135 63.3651 110.922 63.2088 110.733C63.0526 110.539 62.8466 110.385 62.5909 110.271C62.34 110.153 62.0393 110.094 61.6889 110.094C61.2202 110.094 60.8248 110.193 60.5028 110.392C60.1809 110.586 60.0199 110.847 60.0199 111.173C60.0199 111.434 60.1241 111.654 60.3324 111.834C60.5407 112.014 60.8982 112.158 61.4048 112.267L63.3793 112.665C64.4399 112.883 65.2306 113.233 65.7514 113.716C66.2723 114.199 66.5327 114.833 66.5327 115.619C66.5327 116.334 66.322 116.962 65.9006 117.501C65.4839 118.041 64.911 118.463 64.1818 118.766C63.4574 119.064 62.6217 119.213 61.6747 119.213C60.2306 119.213 59.08 118.912 58.223 118.311C57.3707 117.705 56.8712 116.881 56.7244 115.839L59.7003 115.683C59.7902 116.124 60.008 116.46 60.3537 116.692C60.6993 116.919 61.142 117.033 61.6818 117.033C62.2121 117.033 62.6383 116.931 62.9602 116.727C63.2869 116.519 63.4527 116.251 63.4574 115.925C63.4527 115.65 63.3366 115.425 63.1094 115.25C62.8821 115.07 62.5317 114.933 62.0582 114.838L60.169 114.462C59.1037 114.249 58.3106 113.879 57.7898 113.354C57.2737 112.828 57.0156 112.158 57.0156 111.344C57.0156 110.643 57.205 110.039 57.5838 109.533C57.9673 109.026 58.5047 108.635 59.196 108.361C59.892 108.086 60.7064 107.949 61.6392 107.949C63.017 107.949 64.1013 108.24 64.892 108.822C65.6875 109.405 66.1515 110.198 66.2841 111.202ZM68.4379 119V108.091H71.3214V110.016H71.4492C71.6765 109.376 72.0553 108.872 72.5856 108.503C73.1159 108.134 73.7504 107.949 74.489 107.949C75.2371 107.949 75.8739 108.136 76.3995 108.51C76.9251 108.879 77.2755 109.381 77.4506 110.016H77.5643C77.7868 109.391 78.1893 108.891 78.7717 108.517C79.3588 108.138 80.0524 107.949 80.8526 107.949C81.8706 107.949 82.6969 108.273 83.3313 108.922C83.9705 109.566 84.2901 110.48 84.2901 111.663V119H81.2717V112.26C81.2717 111.654 81.1107 111.199 80.7887 110.896C80.4667 110.593 80.0643 110.442 79.5813 110.442C79.0321 110.442 78.6036 110.617 78.2958 110.967C77.988 111.313 77.8342 111.77 77.8342 112.338V119H74.9009V112.196C74.9009 111.661 74.747 111.235 74.4393 110.918C74.1362 110.6 73.7362 110.442 73.239 110.442C72.9028 110.442 72.5998 110.527 72.3299 110.697C72.0647 110.863 71.854 111.098 71.6978 111.401C71.5415 111.699 71.4634 112.049 71.4634 112.452V119H68.4379ZM89.7908 119.206C89.0948 119.206 88.4746 119.085 87.93 118.844C87.3855 118.598 86.9547 118.235 86.6374 117.757C86.3249 117.274 86.1687 116.673 86.1687 115.953C86.1687 115.347 86.2799 114.838 86.5025 114.426C86.725 114.014 87.0281 113.683 87.4116 113.432C87.7951 113.181 88.2307 112.991 88.7184 112.864C89.2108 112.736 89.7269 112.646 90.2667 112.594C90.9012 112.527 91.4125 112.466 91.8008 112.409C92.189 112.348 92.4708 112.258 92.646 112.139C92.8211 112.021 92.9087 111.846 92.9087 111.614V111.571C92.9087 111.121 92.7667 110.773 92.4826 110.527C92.2032 110.281 91.8055 110.158 91.2894 110.158C90.7449 110.158 90.3117 110.278 89.9897 110.52C89.6677 110.757 89.4547 111.055 89.3505 111.415L86.5522 111.188C86.6942 110.525 86.9736 109.952 87.3903 109.469C87.8069 108.981 88.3443 108.607 89.0025 108.347C89.6654 108.081 90.4324 107.949 91.3036 107.949C91.9097 107.949 92.4897 108.02 93.0437 108.162C93.6024 108.304 94.0972 108.524 94.5281 108.822C94.9637 109.121 95.3069 109.504 95.5579 109.973C95.8088 110.437 95.9343 110.993 95.9343 111.642V119H93.065V117.487H92.9798C92.8046 117.828 92.5702 118.129 92.2766 118.389C91.9831 118.645 91.6303 118.846 91.2184 118.993C90.8065 119.135 90.3306 119.206 89.7908 119.206ZM90.6573 117.118C91.1024 117.118 91.4954 117.03 91.8363 116.855C92.1772 116.675 92.4447 116.434 92.6388 116.131C92.833 115.828 92.93 115.484 92.93 115.101V113.943C92.8353 114.005 92.7051 114.062 92.5394 114.114C92.3784 114.161 92.1961 114.206 91.9925 114.249C91.7889 114.286 91.5853 114.322 91.3817 114.355C91.1781 114.384 90.9935 114.41 90.8278 114.433C90.4727 114.485 90.1625 114.568 89.8974 114.682C89.6322 114.795 89.4263 114.949 89.2795 115.143C89.1327 115.333 89.0593 115.57 89.0593 115.854C89.0593 116.266 89.2085 116.58 89.5067 116.798C89.8098 117.011 90.1933 117.118 90.6573 117.118ZM101.307 104.455V119H98.2816V104.455H101.307ZM106.756 104.455V119H103.731V104.455H106.756ZM114.152 119.213C113.029 119.213 112.064 118.986 111.254 118.531C110.449 118.072 109.829 117.423 109.393 116.585C108.958 115.742 108.74 114.746 108.74 113.595C108.74 112.473 108.958 111.488 109.393 110.641C109.829 109.793 110.442 109.133 111.233 108.659C112.028 108.186 112.961 107.949 114.031 107.949C114.751 107.949 115.421 108.065 116.041 108.297C116.666 108.524 117.21 108.867 117.674 109.327C118.143 109.786 118.508 110.364 118.768 111.06C119.029 111.751 119.159 112.561 119.159 113.489V114.32H109.947V112.445H116.311C116.311 112.009 116.216 111.623 116.027 111.287C115.837 110.951 115.574 110.688 115.238 110.499C114.907 110.304 114.521 110.207 114.081 110.207C113.621 110.207 113.214 110.314 112.859 110.527C112.509 110.735 112.234 111.017 112.035 111.372C111.836 111.723 111.734 112.113 111.73 112.544V114.327C111.73 114.866 111.829 115.333 112.028 115.726C112.232 116.119 112.518 116.422 112.887 116.635C113.257 116.848 113.695 116.955 114.201 116.955C114.538 116.955 114.845 116.907 115.125 116.812C115.404 116.718 115.643 116.576 115.842 116.386C116.041 116.197 116.192 115.965 116.297 115.69L119.095 115.875C118.953 116.547 118.662 117.134 118.221 117.636C117.786 118.134 117.222 118.522 116.531 118.801C115.844 119.076 115.051 119.213 114.152 119.213ZM121.133 119V108.091H124.066V109.994H124.18C124.379 109.317 124.713 108.806 125.181 108.46C125.65 108.11 126.19 107.935 126.801 107.935C126.952 107.935 127.116 107.944 127.291 107.963C127.466 107.982 127.62 108.008 127.752 108.041V110.726C127.61 110.683 127.414 110.645 127.163 110.612C126.912 110.579 126.682 110.562 126.474 110.562C126.029 110.562 125.631 110.66 125.281 110.854C124.935 111.043 124.661 111.308 124.457 111.649C124.258 111.99 124.159 112.383 124.159 112.828V119H121.133ZM139.748 108.091V110.364H133.179V108.091H139.748ZM134.67 105.477H137.696V115.648C137.696 115.927 137.738 116.145 137.824 116.301C137.909 116.453 138.027 116.559 138.179 116.621C138.335 116.682 138.515 116.713 138.718 116.713C138.86 116.713 139.002 116.701 139.145 116.678C139.287 116.649 139.395 116.628 139.471 116.614L139.947 118.865C139.796 118.912 139.583 118.967 139.308 119.028C139.033 119.095 138.699 119.135 138.306 119.149C137.577 119.178 136.938 119.08 136.389 118.858C135.844 118.635 135.421 118.29 135.118 117.821C134.815 117.352 134.665 116.76 134.67 116.045V105.477ZM144.979 112.693V119H141.953V104.455H144.894V110.016H145.022C145.268 109.372 145.666 108.867 146.215 108.503C146.764 108.134 147.453 107.949 148.282 107.949C149.039 107.949 149.7 108.115 150.263 108.446C150.831 108.773 151.272 109.244 151.584 109.859C151.901 110.47 152.058 111.202 152.053 112.054V119H149.027V112.594C149.032 111.921 148.862 111.398 148.516 111.024C148.175 110.65 147.697 110.463 147.081 110.463C146.669 110.463 146.305 110.551 145.988 110.726C145.675 110.901 145.429 111.157 145.249 111.493C145.074 111.824 144.984 112.224 144.979 112.693ZM157.545 119.206C156.849 119.206 156.228 119.085 155.684 118.844C155.139 118.598 154.709 118.235 154.391 117.757C154.079 117.274 153.923 116.673 153.923 115.953C153.923 115.347 154.034 114.838 154.256 114.426C154.479 114.014 154.782 113.683 155.165 113.432C155.549 113.181 155.985 112.991 156.472 112.864C156.965 112.736 157.481 112.646 158.021 112.594C158.655 112.527 159.166 112.466 159.555 112.409C159.943 112.348 160.225 112.258 160.4 112.139C160.575 112.021 160.663 111.846 160.663 111.614V111.571C160.663 111.121 160.521 110.773 160.237 110.527C159.957 110.281 159.559 110.158 159.043 110.158C158.499 110.158 158.066 110.278 157.744 110.52C157.422 110.757 157.209 111.055 157.104 111.415L154.306 111.188C154.448 110.525 154.728 109.952 155.144 109.469C155.561 108.981 156.098 108.607 156.756 108.347C157.419 108.081 158.186 107.949 159.058 107.949C159.664 107.949 160.244 108.02 160.798 108.162C161.356 108.304 161.851 108.524 162.282 108.822C162.718 109.121 163.061 109.504 163.312 109.973C163.563 110.437 163.688 110.993 163.688 111.642V119H160.819V117.487H160.734C160.558 117.828 160.324 118.129 160.031 118.389C159.737 118.645 159.384 118.846 158.972 118.993C158.56 119.135 158.085 119.206 157.545 119.206ZM158.411 117.118C158.856 117.118 159.249 117.03 159.59 116.855C159.931 116.675 160.199 116.434 160.393 116.131C160.587 115.828 160.684 115.484 160.684 115.101V113.943C160.589 114.005 160.459 114.062 160.293 114.114C160.132 114.161 159.95 114.206 159.746 114.249C159.543 114.286 159.339 114.322 159.136 114.355C158.932 114.384 158.747 114.41 158.582 114.433C158.227 114.485 157.916 114.568 157.651 114.682C157.386 114.795 157.18 114.949 157.033 115.143C156.887 115.333 156.813 115.57 156.813 115.854C156.813 116.266 156.962 116.58 157.261 116.798C157.564 117.011 157.947 117.118 158.411 117.118ZM169.061 112.693V119H166.036V108.091H168.919V110.016H169.047C169.288 109.381 169.693 108.879 170.261 108.51C170.83 108.136 171.518 107.949 172.328 107.949C173.086 107.949 173.746 108.115 174.31 108.446C174.873 108.777 175.311 109.251 175.624 109.866C175.936 110.477 176.092 111.206 176.092 112.054V119H173.067V112.594C173.071 111.926 172.901 111.405 172.555 111.031C172.21 110.652 171.734 110.463 171.128 110.463C170.721 110.463 170.361 110.551 170.048 110.726C169.741 110.901 169.499 111.157 169.324 111.493C169.153 111.824 169.066 112.224 169.061 112.693ZM182.857 116.443V114.021L188.93 104.455H191.018V107.807H189.782L185.954 113.865V113.979H194.583V116.443H182.857ZM189.839 119V115.705L189.896 114.632V104.455H192.779V119H189.839ZM196.412 116.443V114.021L202.484 104.455H204.572V107.807H203.337L199.509 113.865V113.979H208.138V116.443H196.412ZM203.393 119V115.705L203.45 114.632V104.455H206.334V119H203.393ZM219.114 116.983L210.627 108.51L212.488 106.628L220.982 115.122L219.114 116.983ZM212.488 116.983L210.627 115.122L219.114 106.628L220.982 108.51L212.488 116.983ZM223.56 116.443V114.021L229.633 104.455H231.721V107.807H230.485L226.657 113.865V113.979H235.286V116.443H223.56ZM230.542 119V115.705L230.599 114.632V104.455H233.482V119H230.542ZM237.115 116.443V114.021L243.188 104.455H245.276V107.807H244.04L240.212 113.865V113.979H248.841V116.443H237.115ZM244.097 119V115.705L244.153 114.632V104.455H247.037V119H244.097ZM255.547 123.091V108.091H258.53V109.923H258.665C258.798 109.63 258.989 109.331 259.24 109.028C259.496 108.721 259.828 108.465 260.235 108.261C260.647 108.053 261.158 107.949 261.769 107.949C262.564 107.949 263.298 108.157 263.971 108.574C264.643 108.986 265.18 109.608 265.583 110.442C265.985 111.27 266.186 112.31 266.186 113.56C266.186 114.777 265.99 115.804 265.597 116.642C265.209 117.475 264.678 118.107 264.006 118.538C263.338 118.964 262.59 119.178 261.762 119.178C261.175 119.178 260.675 119.08 260.263 118.886C259.856 118.692 259.522 118.448 259.262 118.155C259.001 117.857 258.802 117.556 258.665 117.253H258.573V123.091H255.547ZM258.509 113.545C258.509 114.194 258.599 114.76 258.779 115.243C258.959 115.726 259.219 116.102 259.56 116.372C259.901 116.637 260.315 116.77 260.803 116.77C261.295 116.77 261.712 116.635 262.053 116.365C262.394 116.09 262.652 115.712 262.827 115.229C263.007 114.741 263.097 114.18 263.097 113.545C263.097 112.916 263.009 112.362 262.834 111.884C262.659 111.405 262.401 111.031 262.06 110.761C261.719 110.491 261.3 110.357 260.803 110.357C260.31 110.357 259.894 110.487 259.553 110.747C259.217 111.008 258.959 111.377 258.779 111.855C258.599 112.333 258.509 112.897 258.509 113.545ZM268.203 119V108.091H271.229V119H268.203ZM269.723 106.685C269.274 106.685 268.888 106.536 268.566 106.237C268.248 105.934 268.09 105.572 268.09 105.151C268.09 104.734 268.248 104.376 268.566 104.078C268.888 103.775 269.274 103.624 269.723 103.624C270.173 103.624 270.557 103.775 270.874 104.078C271.196 104.376 271.357 104.734 271.357 105.151C271.357 105.572 271.196 105.934 270.874 106.237C270.557 106.536 270.173 106.685 269.723 106.685ZM276.181 108.091L278.184 111.905L280.237 108.091H283.34L280.18 113.545L283.425 119H280.336L278.184 115.229L276.067 119H272.942L276.181 113.545L273.056 108.091H276.181ZM289.718 119.213C288.596 119.213 287.63 118.986 286.82 118.531C286.015 118.072 285.395 117.423 284.96 116.585C284.524 115.742 284.306 114.746 284.306 113.595C284.306 112.473 284.524 111.488 284.96 110.641C285.395 109.793 286.008 109.133 286.799 108.659C287.594 108.186 288.527 107.949 289.597 107.949C290.317 107.949 290.987 108.065 291.607 108.297C292.232 108.524 292.777 108.867 293.241 109.327C293.71 109.786 294.074 110.364 294.335 111.06C294.595 111.751 294.725 112.561 294.725 113.489V114.32H285.513V112.445H291.877C291.877 112.009 291.782 111.623 291.593 111.287C291.404 110.951 291.141 110.688 290.805 110.499C290.473 110.304 290.087 110.207 289.647 110.207C289.188 110.207 288.781 110.314 288.425 110.527C288.075 110.735 287.8 111.017 287.602 111.372C287.403 111.723 287.301 112.113 287.296 112.544V114.327C287.296 114.866 287.396 115.333 287.594 115.726C287.798 116.119 288.085 116.422 288.454 116.635C288.823 116.848 289.261 116.955 289.768 116.955C290.104 116.955 290.412 116.907 290.691 116.812C290.97 116.718 291.21 116.576 291.408 116.386C291.607 116.197 291.759 115.965 291.863 115.69L294.661 115.875C294.519 116.547 294.228 117.134 293.788 117.636C293.352 118.134 292.789 118.522 292.097 118.801C291.411 119.076 290.618 119.213 289.718 119.213ZM299.725 104.455V119H296.7V104.455H299.725ZM311.225 111.202L308.456 111.372C308.408 111.135 308.306 110.922 308.15 110.733C307.994 110.539 307.788 110.385 307.532 110.271C307.281 110.153 306.981 110.094 306.63 110.094C306.162 110.094 305.766 110.193 305.444 110.392C305.122 110.586 304.961 110.847 304.961 111.173C304.961 111.434 305.065 111.654 305.274 111.834C305.482 112.014 305.84 112.158 306.346 112.267L308.321 112.665C309.381 112.883 310.172 113.233 310.693 113.716C311.214 114.199 311.474 114.833 311.474 115.619C311.474 116.334 311.263 116.962 310.842 117.501C310.425 118.041 309.852 118.463 309.123 118.766C308.399 119.064 307.563 119.213 306.616 119.213C305.172 119.213 304.021 118.912 303.164 118.311C302.312 117.705 301.813 116.881 301.666 115.839L304.642 115.683C304.732 116.124 304.949 116.46 305.295 116.692C305.641 116.919 306.083 117.033 306.623 117.033C307.154 117.033 307.58 116.931 307.902 116.727C308.228 116.519 308.394 116.251 308.399 115.925C308.394 115.65 308.278 115.425 308.051 115.25C307.824 115.07 307.473 114.933 307 114.838L305.11 114.462C304.045 114.249 303.252 113.879 302.731 113.354C302.215 112.828 301.957 112.158 301.957 111.344C301.957 110.643 302.146 110.039 302.525 109.533C302.909 109.026 303.446 108.635 304.137 108.361C304.833 108.086 305.648 107.949 306.581 107.949C307.958 107.949 309.043 108.24 309.833 108.822C310.629 109.405 311.093 110.198 311.225 111.202ZM315.148 119.185C314.679 119.185 314.277 119.019 313.94 118.688C313.609 118.351 313.443 117.949 313.443 117.48C313.443 117.016 313.609 116.618 313.94 116.287C314.277 115.955 314.679 115.79 315.148 115.79C315.602 115.79 316 115.955 316.341 116.287C316.682 116.618 316.852 117.016 316.852 117.48C316.852 117.793 316.772 118.079 316.611 118.339C316.455 118.595 316.249 118.801 315.993 118.957C315.737 119.109 315.455 119.185 315.148 119.185Z" style="fill: var(--vp-a11y-danger)"/>
  <g filter="url(#filter0_d_1780_14209)">
    <path d="M277.262 39.3576C279.655 41.7726 281 45.048 281 48.4633C281 51.8786 279.655 55.1541 277.262 57.5691L275.006 59.8455C271.848 63.0325 268.96 63.9886 265.61 64L257.489 64C256.671 63.9579 255.9 63.6 255.336 63.0004C254.773 62.4009 254.459 61.6055 254.461 60.7791C254.462 59.9527 254.778 59.1585 255.344 58.5609C255.91 57.9634 256.682 57.6083 257.5 57.5691L259.214 57.5691L247.934 46.1869C247.336 45.5831 247 44.7643 247 43.9105C247 43.0566 247.336 42.2378 247.934 41.634C248.533 41.0303 249.344 40.6911 250.19 40.6911C251.037 40.6911 251.848 41.0303 252.446 41.634L258.085 47.3237C257.488 46.7201 257.152 45.9018 257.152 45.0487C257.152 44.1948 257.488 43.376 258.086 42.7722C258.685 42.1685 259.496 41.8293 260.342 41.8293C261.188 41.8293 262 42.1685 262.598 42.7722L263.726 43.9105C263.128 43.3067 262.792 42.4878 262.792 41.634C262.792 40.7802 263.128 39.9613 263.726 39.3576C264.325 38.7538 265.136 38.4147 265.982 38.4147C266.828 38.4147 267.64 38.7538 268.238 39.3576L269.366 40.4958C268.768 39.8921 268.432 39.0732 268.432 38.2194C268.432 37.3655 268.768 36.5467 269.366 35.9429C269.965 35.3392 270.776 35 271.622 35C272.468 35 273.28 35.3392 273.878 35.9429L277.262 39.3576Z" fill="white"/>
    <path d="M259.214 48.4633L258.086 47.3251L258.085 47.3237M258.65 47.8942L258.085 47.3237M257.5 57.5691C256.682 57.6083 255.91 57.9634 255.344 58.5609C254.778 59.1585 254.462 59.9527 254.461 60.7791C254.459 61.6055 254.773 62.4009 255.336 63.0004C255.9 63.6 256.671 63.9579 257.489 64L265.61 64C268.96 63.9886 271.848 63.0325 275.006 59.8455L277.262 57.5691C279.655 55.1541 281 51.8786 281 48.4633C281 45.048 279.655 41.7726 277.262 39.3576L273.878 35.9429C273.28 35.3392 272.468 35 271.622 35C270.776 35 269.965 35.3392 269.366 35.9429C268.768 36.5467 268.432 37.3655 268.432 38.2194C268.432 39.0732 268.768 39.8921 269.366 40.4958L268.238 39.3576C267.64 38.7538 266.828 38.4147 265.982 38.4147C265.136 38.4147 264.325 38.7538 263.726 39.3576C263.128 39.9613 262.792 40.7802 262.792 41.634C262.792 42.4878 263.128 43.3067 263.726 43.9105L262.598 42.7722C262 42.1685 261.188 41.8293 260.342 41.8293C259.496 41.8293 258.685 42.1685 258.086 42.7722C257.488 43.376 257.152 44.1948 257.152 45.0487C257.152 45.9018 257.488 46.7201 258.085 47.3237M257.5 57.5691L261.47 57.5691M257.5 57.5691L259.214 57.5691L247.934 46.1869C247.336 45.5831 247 44.7643 247 43.9105C247 43.0566 247.336 42.2378 247.934 41.634C248.533 41.0303 249.344 40.6911 250.19 40.6911C251.037 40.6911 251.848 41.0303 252.446 41.634L258.085 47.3237" stroke="#1E1E1E" stroke-width="3" stroke-linecap="round" stroke-linejoin="round"/>
  </g>
  <rect x="0.5" y="172.5" width="479" height="163" rx="8" style="fill: var(--vp-code-block-bg)"/>
  <rect x="218" y="196" width="44" height="44" rx="22" fill="currentColor" fill-opacity="0.05"/>
  <path d="M240 219C240.552 219 241 218.552 241 218C241 217.448 240.552 217 240 217C239.448 217 239 217.448 239 218C239 218.552 239.448 219 240 219Z" stroke="currentColor" stroke-width="2" stroke-linecap="round" stroke-linejoin="round"/>
  <path d="M240 212C240.552 212 241 211.552 241 211C241 210.448 240.552 210 240 210C239.448 210 239 210.448 239 211C239 211.552 239.448 212 240 212Z" stroke="currentColor" stroke-width="2" stroke-linecap="round" stroke-linejoin="round"/>
  <path d="M240 226C240.552 226 241 225.552 241 225C241 224.448 240.552 224 240 224C239.448 224 239 224.448 239 225C239 225.552 239.448 226 240 226Z" stroke="currentColor" stroke-width="2" stroke-linecap="round" stroke-linejoin="round"/>
  <path d="M44 270L33 281L28 276" style="stroke: var(--vp-a11y-success)" stroke-width="3" stroke-linecap="round" stroke-linejoin="round"/>
  <path d="M70.4205 283H65.2642V268.455H70.4631C71.9261 268.455 73.1856 268.746 74.2415 269.328C75.2973 269.906 76.1094 270.737 76.6776 271.821C77.2505 272.905 77.5369 274.203 77.5369 275.713C77.5369 277.228 77.2505 278.53 76.6776 279.619C76.1094 280.708 75.2926 281.544 74.2273 282.126C73.1667 282.709 71.8977 283 70.4205 283ZM68.3395 280.365H70.2926C71.2017 280.365 71.9664 280.204 72.5866 279.882C73.2116 279.555 73.6804 279.051 73.9929 278.369C74.3101 277.683 74.4688 276.797 74.4688 275.713C74.4688 274.638 74.3101 273.76 73.9929 273.078C73.6804 272.396 73.214 271.894 72.5938 271.572C71.9735 271.25 71.2088 271.089 70.2997 271.089H68.3395V280.365ZM84.6871 283.213C83.5839 283.213 82.6299 282.979 81.8249 282.51C81.0247 282.036 80.4068 281.378 79.9712 280.536C79.5356 279.688 79.3178 278.705 79.3178 277.588C79.3178 276.461 79.5356 275.476 79.9712 274.634C80.4068 273.786 81.0247 273.128 81.8249 272.659C82.6299 272.186 83.5839 271.949 84.6871 271.949C85.7904 271.949 86.7421 272.186 87.5423 272.659C88.3472 273.128 88.9674 273.786 89.4031 274.634C89.8387 275.476 90.0565 276.461 90.0565 277.588C90.0565 278.705 89.8387 279.688 89.4031 280.536C88.9674 281.378 88.3472 282.036 87.5423 282.51C86.7421 282.979 85.7904 283.213 84.6871 283.213ZM84.7013 280.869C85.2032 280.869 85.6223 280.727 85.9585 280.443C86.2946 280.154 86.5479 279.761 86.7184 279.264C86.8936 278.767 86.9812 278.201 86.9812 277.567C86.9812 276.932 86.8936 276.366 86.7184 275.869C86.5479 275.372 86.2946 274.979 85.9585 274.69C85.6223 274.402 85.2032 274.257 84.7013 274.257C84.1947 274.257 83.7686 274.402 83.4229 274.69C83.082 274.979 82.824 275.372 82.6488 275.869C82.4783 276.366 82.3931 276.932 82.3931 277.567C82.3931 278.201 82.4783 278.767 82.6488 279.264C82.824 279.761 83.082 280.154 83.4229 280.443C83.7686 280.727 84.1947 280.869 84.7013 280.869ZM99.3942 279.861L99.4013 276.232H99.8416L103.336 272.091H106.809L102.114 277.574H101.397L99.3942 279.861ZM96.6527 283V268.455H99.6783V283H96.6527ZM103.471 283L100.261 278.249L102.278 276.111L107.015 283H103.471ZM112.816 283.213C111.694 283.213 110.728 282.986 109.918 282.531C109.113 282.072 108.493 281.423 108.057 280.585C107.622 279.742 107.404 278.746 107.404 277.595C107.404 276.473 107.622 275.488 108.057 274.641C108.493 273.793 109.106 273.133 109.897 272.659C110.692 272.186 111.625 271.949 112.695 271.949C113.415 271.949 114.085 272.065 114.705 272.297C115.33 272.524 115.874 272.867 116.338 273.327C116.807 273.786 117.172 274.364 117.432 275.06C117.693 275.751 117.823 276.561 117.823 277.489V278.32H108.611V276.445H114.975C114.975 276.009 114.88 275.623 114.691 275.287C114.501 274.951 114.239 274.688 113.902 274.499C113.571 274.304 113.185 274.207 112.745 274.207C112.285 274.207 111.878 274.314 111.523 274.527C111.173 274.735 110.898 275.017 110.699 275.372C110.5 275.723 110.399 276.113 110.394 276.544V278.327C110.394 278.866 110.493 279.333 110.692 279.726C110.896 280.119 111.182 280.422 111.551 280.635C111.921 280.848 112.359 280.955 112.865 280.955C113.202 280.955 113.509 280.907 113.789 280.812C114.068 280.718 114.307 280.576 114.506 280.386C114.705 280.197 114.856 279.965 114.961 279.69L117.759 279.875C117.617 280.547 117.326 281.134 116.885 281.636C116.45 282.134 115.886 282.522 115.195 282.801C114.508 283.076 113.715 283.213 112.816 283.213ZM124.769 283.213C123.647 283.213 122.681 282.986 121.871 282.531C121.066 282.072 120.446 281.423 120.01 280.585C119.575 279.742 119.357 278.746 119.357 277.595C119.357 276.473 119.575 275.488 120.01 274.641C120.446 273.793 121.059 273.133 121.85 272.659C122.645 272.186 123.578 271.949 124.648 271.949C125.368 271.949 126.038 272.065 126.658 272.297C127.283 272.524 127.828 272.867 128.292 273.327C128.76 273.786 129.125 274.364 129.385 275.06C129.646 275.751 129.776 276.561 129.776 277.489V278.32H120.564V276.445H126.928C126.928 276.009 126.833 275.623 126.644 275.287C126.454 274.951 126.192 274.688 125.855 274.499C125.524 274.304 125.138 274.207 124.698 274.207C124.239 274.207 123.831 274.314 123.476 274.527C123.126 274.735 122.851 275.017 122.652 275.372C122.453 275.723 122.352 276.113 122.347 276.544V278.327C122.347 278.866 122.446 279.333 122.645 279.726C122.849 280.119 123.135 280.422 123.505 280.635C123.874 280.848 124.312 280.955 124.819 280.955C125.155 280.955 125.462 280.907 125.742 280.812C126.021 280.718 126.26 280.576 126.459 280.386C126.658 280.197 126.81 279.965 126.914 279.69L129.712 279.875C129.57 280.547 129.279 281.134 128.838 281.636C128.403 282.134 127.839 282.522 127.148 282.801C126.462 283.076 125.668 283.213 124.769 283.213ZM131.75 287.091V272.091H134.733V273.923H134.868C135.001 273.63 135.193 273.331 135.444 273.028C135.699 272.721 136.031 272.465 136.438 272.261C136.85 272.053 137.361 271.949 137.972 271.949C138.767 271.949 139.501 272.157 140.174 272.574C140.846 272.986 141.383 273.608 141.786 274.442C142.188 275.27 142.39 276.31 142.39 277.56C142.39 278.777 142.193 279.804 141.8 280.642C141.412 281.475 140.882 282.107 140.209 282.538C139.542 282.964 138.793 283.178 137.965 283.178C137.378 283.178 136.878 283.08 136.466 282.886C136.059 282.692 135.725 282.448 135.465 282.155C135.204 281.857 135.006 281.556 134.868 281.253H134.776V287.091H131.75ZM134.712 277.545C134.712 278.194 134.802 278.76 134.982 279.243C135.162 279.726 135.422 280.102 135.763 280.372C136.104 280.637 136.518 280.77 137.006 280.77C137.498 280.77 137.915 280.635 138.256 280.365C138.597 280.09 138.855 279.712 139.03 279.229C139.21 278.741 139.3 278.18 139.3 277.545C139.3 276.916 139.212 276.362 139.037 275.884C138.862 275.405 138.604 275.031 138.263 274.761C137.922 274.491 137.503 274.357 137.006 274.357C136.514 274.357 136.097 274.487 135.756 274.747C135.42 275.008 135.162 275.377 134.982 275.855C134.802 276.333 134.712 276.897 134.712 277.545ZM154.838 272.091V274.364H148.268V272.091H154.838ZM149.76 269.477H152.786V279.648C152.786 279.927 152.828 280.145 152.913 280.301C152.999 280.453 153.117 280.559 153.268 280.621C153.425 280.682 153.605 280.713 153.808 280.713C153.95 280.713 154.092 280.701 154.234 280.678C154.376 280.649 154.485 280.628 154.561 280.614L155.037 282.865C154.885 282.912 154.672 282.967 154.398 283.028C154.123 283.095 153.789 283.135 153.396 283.149C152.667 283.178 152.028 283.08 151.479 282.858C150.934 282.635 150.51 282.29 150.207 281.821C149.904 281.352 149.755 280.76 149.76 280.045V269.477ZM160.069 276.693V283H157.043V268.455H159.984V274.016H160.112C160.358 273.372 160.755 272.867 161.305 272.503C161.854 272.134 162.543 271.949 163.371 271.949C164.129 271.949 164.79 272.115 165.353 272.446C165.921 272.773 166.362 273.244 166.674 273.859C166.991 274.47 167.147 275.202 167.143 276.054V283H164.117V276.594C164.122 275.921 163.951 275.398 163.606 275.024C163.265 274.65 162.787 274.463 162.171 274.463C161.759 274.463 161.395 274.551 161.077 274.726C160.765 274.901 160.519 275.157 160.339 275.493C160.164 275.824 160.074 276.224 160.069 276.693ZM174.495 283.213C173.373 283.213 172.407 282.986 171.598 282.531C170.793 282.072 170.172 281.423 169.737 280.585C169.301 279.742 169.083 278.746 169.083 277.595C169.083 276.473 169.301 275.488 169.737 274.641C170.172 273.793 170.786 273.133 171.576 272.659C172.372 272.186 173.305 271.949 174.375 271.949C175.094 271.949 175.764 272.065 176.385 272.297C177.01 272.524 177.554 272.867 178.018 273.327C178.487 273.786 178.851 274.364 179.112 275.06C179.372 275.751 179.502 276.561 179.502 277.489V278.32H170.291V276.445H176.654C176.654 276.009 176.56 275.623 176.37 275.287C176.181 274.951 175.918 274.688 175.582 274.499C175.251 274.304 174.865 274.207 174.424 274.207C173.965 274.207 173.558 274.314 173.203 274.527C172.852 274.735 172.578 275.017 172.379 275.372C172.18 275.723 172.078 276.113 172.074 276.544V278.327C172.074 278.866 172.173 279.333 172.372 279.726C172.575 280.119 172.862 280.422 173.231 280.635C173.6 280.848 174.038 280.955 174.545 280.955C174.881 280.955 175.189 280.907 175.468 280.812C175.748 280.718 175.987 280.576 176.186 280.386C176.385 280.197 176.536 279.965 176.64 279.69L179.439 279.875C179.297 280.547 179.005 281.134 178.565 281.636C178.129 282.134 177.566 282.522 176.875 282.801C176.188 283.076 175.395 283.213 174.495 283.213ZM191.908 272.091V274.364H185.339V272.091H191.908ZM186.83 269.477H189.856V279.648C189.856 279.927 189.898 280.145 189.984 280.301C190.069 280.453 190.187 280.559 190.339 280.621C190.495 280.682 190.675 280.713 190.879 280.713C191.021 280.713 191.163 280.701 191.305 280.678C191.447 280.649 191.556 280.628 191.631 280.614L192.107 282.865C191.956 282.912 191.743 282.967 191.468 283.028C191.193 283.095 190.86 283.135 190.467 283.149C189.737 283.178 189.098 283.08 188.549 282.858C188.004 282.635 187.581 282.29 187.278 281.821C186.975 281.352 186.826 280.76 186.83 280.045V269.477ZM196.99 283.206C196.294 283.206 195.674 283.085 195.129 282.844C194.585 282.598 194.154 282.235 193.837 281.757C193.524 281.274 193.368 280.673 193.368 279.953C193.368 279.347 193.479 278.838 193.702 278.426C193.924 278.014 194.227 277.683 194.611 277.432C194.994 277.181 195.43 276.991 195.918 276.864C196.41 276.736 196.926 276.646 197.466 276.594C198.1 276.527 198.612 276.466 199 276.409C199.388 276.348 199.67 276.258 199.845 276.139C200.02 276.021 200.108 275.846 200.108 275.614V275.571C200.108 275.121 199.966 274.773 199.682 274.527C199.402 274.281 199.005 274.158 198.489 274.158C197.944 274.158 197.511 274.278 197.189 274.52C196.867 274.757 196.654 275.055 196.55 275.415L193.751 275.188C193.893 274.525 194.173 273.952 194.589 273.469C195.006 272.981 195.544 272.607 196.202 272.347C196.865 272.081 197.632 271.949 198.503 271.949C199.109 271.949 199.689 272.02 200.243 272.162C200.802 272.304 201.296 272.524 201.727 272.822C202.163 273.121 202.506 273.504 202.757 273.973C203.008 274.437 203.134 274.993 203.134 275.642V283H200.264V281.487H200.179C200.004 281.828 199.769 282.129 199.476 282.389C199.182 282.645 198.83 282.846 198.418 282.993C198.006 283.135 197.53 283.206 196.99 283.206ZM197.857 281.118C198.302 281.118 198.695 281.03 199.036 280.855C199.376 280.675 199.644 280.434 199.838 280.131C200.032 279.828 200.129 279.484 200.129 279.101V277.943C200.035 278.005 199.904 278.062 199.739 278.114C199.578 278.161 199.395 278.206 199.192 278.249C198.988 278.286 198.785 278.322 198.581 278.355C198.377 278.384 198.193 278.41 198.027 278.433C197.672 278.485 197.362 278.568 197.097 278.682C196.831 278.795 196.625 278.949 196.479 279.143C196.332 279.333 196.259 279.57 196.259 279.854C196.259 280.266 196.408 280.58 196.706 280.798C197.009 281.011 197.393 281.118 197.857 281.118ZM205.481 283V272.091H208.414V273.994H208.528C208.727 273.317 209.06 272.806 209.529 272.46C209.998 272.11 210.538 271.935 211.148 271.935C211.3 271.935 211.463 271.944 211.638 271.963C211.814 271.982 211.968 272.008 212.1 272.041V274.726C211.958 274.683 211.762 274.645 211.511 274.612C211.26 274.579 211.03 274.562 210.822 274.562C210.377 274.562 209.979 274.66 209.629 274.854C209.283 275.043 209.008 275.308 208.805 275.649C208.606 275.99 208.506 276.383 208.506 276.828V283H205.481ZM218.071 287.318C217.091 287.318 216.251 287.183 215.55 286.913C214.854 286.648 214.3 286.286 213.888 285.827C213.476 285.367 213.209 284.851 213.086 284.278L215.884 283.902C215.969 284.12 216.104 284.323 216.289 284.513C216.473 284.702 216.717 284.854 217.02 284.967C217.328 285.086 217.702 285.145 218.142 285.145C218.801 285.145 219.343 284.984 219.769 284.662C220.2 284.345 220.415 283.812 220.415 283.064V281.068H220.287C220.155 281.371 219.956 281.658 219.691 281.928C219.426 282.197 219.085 282.418 218.668 282.588C218.251 282.759 217.754 282.844 217.176 282.844C216.357 282.844 215.612 282.654 214.939 282.276C214.272 281.892 213.739 281.307 213.341 280.521C212.948 279.731 212.752 278.732 212.752 277.524C212.752 276.288 212.953 275.256 213.355 274.428C213.758 273.599 214.293 272.979 214.961 272.567C215.633 272.155 216.369 271.949 217.169 271.949C217.78 271.949 218.292 272.053 218.703 272.261C219.115 272.465 219.447 272.721 219.698 273.028C219.953 273.331 220.15 273.63 220.287 273.923H220.401V272.091H223.405V283.107C223.405 284.035 223.178 284.811 222.723 285.436C222.269 286.061 221.639 286.53 220.834 286.842C220.034 287.16 219.113 287.318 218.071 287.318ZM218.135 280.571C218.623 280.571 219.035 280.45 219.371 280.209C219.712 279.963 219.972 279.612 220.152 279.158C220.337 278.698 220.429 278.149 220.429 277.51C220.429 276.871 220.339 276.317 220.159 275.848C219.98 275.375 219.719 275.008 219.378 274.747C219.037 274.487 218.623 274.357 218.135 274.357C217.638 274.357 217.219 274.491 216.878 274.761C216.537 275.027 216.279 275.396 216.104 275.869C215.929 276.343 215.841 276.89 215.841 277.51C215.841 278.14 215.929 278.684 216.104 279.143C216.284 279.598 216.542 279.951 216.878 280.202C217.219 280.448 217.638 280.571 218.135 280.571ZM230.784 283.213C229.662 283.213 228.696 282.986 227.887 282.531C227.082 282.072 226.462 281.423 226.026 280.585C225.59 279.742 225.373 278.746 225.373 277.595C225.373 276.473 225.59 275.488 226.026 274.641C226.462 273.793 227.075 273.133 227.865 272.659C228.661 272.186 229.594 271.949 230.664 271.949C231.383 271.949 232.053 272.065 232.674 272.297C233.299 272.524 233.843 272.867 234.307 273.327C234.776 273.786 235.141 274.364 235.401 275.06C235.661 275.751 235.792 276.561 235.792 277.489V278.32H226.58V276.445H232.944C232.944 276.009 232.849 275.623 232.659 275.287C232.47 274.951 232.207 274.688 231.871 274.499C231.54 274.304 231.154 274.207 230.713 274.207C230.254 274.207 229.847 274.314 229.492 274.527C229.141 274.735 228.867 275.017 228.668 275.372C228.469 275.723 228.367 276.113 228.363 276.544V278.327C228.363 278.866 228.462 279.333 228.661 279.726C228.864 280.119 229.151 280.422 229.52 280.635C229.89 280.848 230.328 280.955 230.834 280.955C231.17 280.955 231.478 280.907 231.757 280.812C232.037 280.718 232.276 280.576 232.475 280.386C232.674 280.197 232.825 279.965 232.929 279.69L235.728 279.875C235.586 280.547 235.294 281.134 234.854 281.636C234.418 282.134 233.855 282.522 233.164 282.801C232.477 283.076 231.684 283.213 230.784 283.213ZM243.569 272.091V274.364H236.999V272.091H243.569ZM238.49 269.477H241.516V279.648C241.516 279.927 241.559 280.145 241.644 280.301C241.729 280.453 241.847 280.559 241.999 280.621C242.155 280.682 242.335 280.713 242.539 280.713C242.681 280.713 242.823 280.701 242.965 280.678C243.107 280.649 243.216 280.628 243.292 280.614L243.767 282.865C243.616 282.912 243.403 282.967 243.128 283.028C242.854 283.095 242.52 283.135 242.127 283.149C241.398 283.178 240.758 283.08 240.209 282.858C239.665 282.635 239.241 282.29 238.938 281.821C238.635 281.352 238.486 280.76 238.49 280.045V269.477ZM259.245 275.202L256.475 275.372C256.428 275.135 256.326 274.922 256.17 274.733C256.013 274.539 255.808 274.385 255.552 274.271C255.301 274.153 255 274.094 254.65 274.094C254.181 274.094 253.786 274.193 253.464 274.392C253.142 274.586 252.981 274.847 252.981 275.173C252.981 275.434 253.085 275.654 253.293 275.834C253.502 276.014 253.859 276.158 254.366 276.267L256.34 276.665C257.401 276.883 258.192 277.233 258.712 277.716C259.233 278.199 259.494 278.833 259.494 279.619C259.494 280.334 259.283 280.962 258.862 281.501C258.445 282.041 257.872 282.463 257.143 282.766C256.418 283.064 255.583 283.213 254.636 283.213C253.192 283.213 252.041 282.912 251.184 282.311C250.332 281.705 249.832 280.881 249.685 279.839L252.661 279.683C252.751 280.124 252.969 280.46 253.315 280.692C253.66 280.919 254.103 281.033 254.643 281.033C255.173 281.033 255.599 280.931 255.921 280.727C256.248 280.519 256.414 280.251 256.418 279.925C256.414 279.65 256.298 279.425 256.07 279.25C255.843 279.07 255.493 278.933 255.019 278.838L253.13 278.462C252.065 278.249 251.272 277.879 250.751 277.354C250.235 276.828 249.977 276.158 249.977 275.344C249.977 274.643 250.166 274.039 250.545 273.533C250.928 273.026 251.466 272.635 252.157 272.361C252.853 272.086 253.667 271.949 254.6 271.949C255.978 271.949 257.062 272.24 257.853 272.822C258.648 273.405 259.112 274.198 259.245 275.202ZM261.399 283V272.091H264.424V283H261.399ZM262.919 270.685C262.469 270.685 262.083 270.536 261.761 270.237C261.444 269.934 261.285 269.572 261.285 269.151C261.285 268.734 261.444 268.376 261.761 268.078C262.083 267.775 262.469 267.624 262.919 267.624C263.368 267.624 263.752 267.775 264.069 268.078C264.391 268.376 264.552 268.734 264.552 269.151C264.552 269.572 264.391 269.934 264.069 270.237C263.752 270.536 263.368 270.685 262.919 270.685ZM266.791 283V281.196L272.132 274.584V274.506H266.976V272.091H275.776V274.058L270.761 280.507V280.585H275.96V283H266.791ZM282.933 283.213C281.811 283.213 280.845 282.986 280.035 282.531C279.23 282.072 278.61 281.423 278.174 280.585C277.739 279.742 277.521 278.746 277.521 277.595C277.521 276.473 277.739 275.488 278.174 274.641C278.61 273.793 279.223 273.133 280.014 272.659C280.809 272.186 281.742 271.949 282.812 271.949C283.532 271.949 284.202 272.065 284.822 272.297C285.447 272.524 285.992 272.867 286.456 273.327C286.924 273.786 287.289 274.364 287.549 275.06C287.81 275.751 287.94 276.561 287.94 277.489V278.32H278.728V276.445H285.092C285.092 276.009 284.997 275.623 284.808 275.287C284.618 274.951 284.356 274.688 284.02 274.499C283.688 274.304 283.302 274.207 282.862 274.207C282.403 274.207 281.995 274.314 281.64 274.527C281.29 274.735 281.015 275.017 280.816 275.372C280.618 275.723 280.516 276.113 280.511 276.544V278.327C280.511 278.866 280.61 279.333 280.809 279.726C281.013 280.119 281.299 280.422 281.669 280.635C282.038 280.848 282.476 280.955 282.983 280.955C283.319 280.955 283.627 280.907 283.906 280.812C284.185 280.718 284.424 280.576 284.623 280.386C284.822 280.197 284.974 279.965 285.078 279.69L287.876 279.875C287.734 280.547 287.443 281.134 287.002 281.636C286.567 282.134 286.003 282.522 285.312 282.801C284.626 283.076 283.833 283.213 282.933 283.213ZM297.654 283.206C296.958 283.206 296.338 283.085 295.793 282.844C295.249 282.598 294.818 282.235 294.501 281.757C294.188 281.274 294.032 280.673 294.032 279.953C294.032 279.347 294.143 278.838 294.366 278.426C294.588 278.014 294.891 277.683 295.275 277.432C295.658 277.181 296.094 276.991 296.582 276.864C297.074 276.736 297.59 276.646 298.13 276.594C298.764 276.527 299.276 276.466 299.664 276.409C300.052 276.348 300.334 276.258 300.509 276.139C300.684 276.021 300.772 275.846 300.772 275.614V275.571C300.772 275.121 300.63 274.773 300.346 274.527C300.067 274.281 299.669 274.158 299.153 274.158C298.608 274.158 298.175 274.278 297.853 274.52C297.531 274.757 297.318 275.055 297.214 275.415L294.415 275.188C294.558 274.525 294.837 273.952 295.254 273.469C295.67 272.981 296.208 272.607 296.866 272.347C297.529 272.081 298.296 271.949 299.167 271.949C299.773 271.949 300.353 272.02 300.907 272.162C301.466 272.304 301.96 272.524 302.391 272.822C302.827 273.121 303.17 273.504 303.421 273.973C303.672 274.437 303.798 274.993 303.798 275.642V283H300.928V281.487H300.843C300.668 281.828 300.433 282.129 300.14 282.389C299.846 282.645 299.494 282.846 299.082 282.993C298.67 283.135 298.194 283.206 297.654 283.206ZM298.521 281.118C298.966 281.118 299.359 281.03 299.7 280.855C300.04 280.675 300.308 280.434 300.502 280.131C300.696 279.828 300.793 279.484 300.793 279.101V277.943C300.699 278.005 300.568 278.062 300.403 278.114C300.242 278.161 300.059 278.206 299.856 278.249C299.652 278.286 299.449 278.322 299.245 278.355C299.041 278.384 298.857 278.41 298.691 278.433C298.336 278.485 298.026 278.568 297.761 278.682C297.496 278.795 297.29 278.949 297.143 279.143C296.996 279.333 296.923 279.57 296.923 279.854C296.923 280.266 297.072 280.58 297.37 280.798C297.673 281.011 298.057 281.118 298.521 281.118ZM311.947 272.091V274.364H305.378V272.091H311.947ZM306.869 269.477H309.895V279.648C309.895 279.927 309.938 280.145 310.023 280.301C310.108 280.453 310.226 280.559 310.378 280.621C310.534 280.682 310.714 280.713 310.918 280.713C311.06 280.713 311.202 280.701 311.344 280.678C311.486 280.649 311.595 280.628 311.67 280.614L312.146 282.865C311.995 282.912 311.782 282.967 311.507 283.028C311.232 283.095 310.899 283.135 310.506 283.149C309.777 283.178 309.137 283.08 308.588 282.858C308.044 282.635 307.62 282.29 307.317 281.821C307.014 281.352 306.865 280.76 306.869 280.045V269.477ZM68.3182 307.206C67.6222 307.206 67.0019 307.085 66.4574 306.844C65.9129 306.598 65.482 306.235 65.1648 305.757C64.8523 305.274 64.696 304.673 64.696 303.953C64.696 303.347 64.8073 302.838 65.0298 302.426C65.2524 302.014 65.5554 301.683 65.9389 301.432C66.3224 301.181 66.758 300.991 67.2457 300.864C67.7382 300.736 68.2543 300.646 68.794 300.594C69.4285 300.527 69.9399 300.466 70.3281 300.409C70.7164 300.348 70.9981 300.258 71.1733 300.139C71.3485 300.021 71.4361 299.846 71.4361 299.614V299.571C71.4361 299.121 71.294 298.773 71.0099 298.527C70.7306 298.281 70.3329 298.158 69.8168 298.158C69.2723 298.158 68.839 298.278 68.517 298.52C68.1951 298.757 67.982 299.055 67.8778 299.415L65.0795 299.188C65.2216 298.525 65.5009 297.952 65.9176 297.469C66.3343 296.981 66.8717 296.607 67.5298 296.347C68.1927 296.081 68.9598 295.949 69.831 295.949C70.437 295.949 71.017 296.02 71.571 296.162C72.1297 296.304 72.6245 296.524 73.0554 296.822C73.491 297.121 73.8343 297.504 74.0852 297.973C74.3362 298.437 74.4616 298.993 74.4616 299.642V307H71.5923V305.487H71.5071C71.3319 305.828 71.0975 306.129 70.804 306.389C70.5104 306.645 70.1577 306.846 69.7457 306.993C69.3338 307.135 68.858 307.206 68.3182 307.206ZM69.1847 305.118C69.6297 305.118 70.0227 305.03 70.3636 304.855C70.7045 304.675 70.9721 304.434 71.1662 304.131C71.3603 303.828 71.4574 303.484 71.4574 303.101V301.943C71.3627 302.005 71.2325 302.062 71.0668 302.114C70.9058 302.161 70.7235 302.206 70.5199 302.249C70.3163 302.286 70.1127 302.322 69.9091 302.355C69.7055 302.384 69.5208 302.41 69.3551 302.433C69 302.485 68.6899 302.568 68.4247 302.682C68.1596 302.795 67.9536 302.949 67.8068 303.143C67.66 303.333 67.5866 303.57 67.5866 303.854C67.5866 304.266 67.7358 304.58 68.0341 304.798C68.3371 305.011 68.7206 305.118 69.1847 305.118ZM81.4379 307V296.091H84.3214V298.016H84.4492C84.6765 297.376 85.0553 296.872 85.5856 296.503C86.1159 296.134 86.7504 295.949 87.489 295.949C88.2371 295.949 88.8739 296.136 89.3995 296.51C89.9251 296.879 90.2755 297.381 90.4506 298.016H90.5643C90.7868 297.391 91.1893 296.891 91.7717 296.517C92.3588 296.138 93.0524 295.949 93.8526 295.949C94.8706 295.949 95.6969 296.273 96.3313 296.922C96.9705 297.566 97.2901 298.48 97.2901 299.663V307H94.2717V300.26C94.2717 299.654 94.1107 299.199 93.7887 298.896C93.4667 298.593 93.0643 298.442 92.5813 298.442C92.0321 298.442 91.6036 298.617 91.2958 298.967C90.988 299.313 90.8342 299.77 90.8342 300.338V307H87.9009V300.196C87.9009 299.661 87.747 299.235 87.4393 298.918C87.1362 298.6 86.7362 298.442 86.239 298.442C85.9028 298.442 85.5998 298.527 85.3299 298.697C85.0647 298.863 84.854 299.098 84.6978 299.401C84.5415 299.699 84.4634 300.049 84.4634 300.452V307H81.4379ZM99.68 307V296.091H102.706V307H99.68ZM101.2 294.685C100.75 294.685 100.364 294.536 100.042 294.237C99.725 293.934 99.5664 293.572 99.5664 293.151C99.5664 292.734 99.725 292.376 100.042 292.078C100.364 291.775 100.75 291.624 101.2 291.624C101.65 291.624 102.033 291.775 102.35 292.078C102.672 292.376 102.833 292.734 102.833 293.151C102.833 293.572 102.672 293.934 102.35 294.237C102.033 294.536 101.65 294.685 101.2 294.685ZM108.155 300.693V307H105.129V296.091H108.013V298.016H108.141C108.382 297.381 108.787 296.879 109.355 296.51C109.923 296.136 110.612 295.949 111.422 295.949C112.179 295.949 112.84 296.115 113.403 296.446C113.967 296.777 114.405 297.251 114.717 297.866C115.03 298.477 115.186 299.206 115.186 300.054V307H112.161V300.594C112.165 299.926 111.995 299.405 111.649 299.031C111.304 298.652 110.828 298.463 110.222 298.463C109.814 298.463 109.455 298.551 109.142 298.726C108.834 298.901 108.593 299.157 108.418 299.493C108.247 299.824 108.16 300.224 108.155 300.693ZM117.571 307V296.091H120.596V307H117.571ZM119.091 294.685C118.641 294.685 118.255 294.536 117.933 294.237C117.616 293.934 117.457 293.572 117.457 293.151C117.457 292.734 117.616 292.376 117.933 292.078C118.255 291.775 118.641 291.624 119.091 291.624C119.54 291.624 119.924 291.775 120.241 292.078C120.563 292.376 120.724 292.734 120.724 293.151C120.724 293.572 120.563 293.934 120.241 294.237C119.924 294.536 119.54 294.685 119.091 294.685ZM123.02 307V296.091H125.903V298.016H126.031C126.259 297.376 126.637 296.872 127.168 296.503C127.698 296.134 128.332 295.949 129.071 295.949C129.819 295.949 130.456 296.136 130.982 296.51C131.507 296.879 131.857 297.381 132.033 298.016H132.146C132.369 297.391 132.771 296.891 133.354 296.517C133.941 296.138 134.634 295.949 135.435 295.949C136.453 295.949 137.279 296.273 137.913 296.922C138.553 297.566 138.872 298.48 138.872 299.663V307H135.854V300.26C135.854 299.654 135.693 299.199 135.371 298.896C135.049 298.593 134.646 298.442 134.163 298.442C133.614 298.442 133.186 298.617 132.878 298.967C132.57 299.313 132.416 299.77 132.416 300.338V307H129.483V300.196C129.483 299.661 129.329 299.235 129.021 298.918C128.718 298.6 128.318 298.442 127.821 298.442C127.485 298.442 127.182 298.527 126.912 298.697C126.647 298.863 126.436 299.098 126.28 299.401C126.124 299.699 126.045 300.049 126.045 300.452V307H123.02ZM148.258 302.355V296.091H151.283V307H148.379V305.018H148.265C148.019 305.658 147.609 306.171 147.036 306.56C146.468 306.948 145.774 307.142 144.955 307.142C144.226 307.142 143.585 306.976 143.031 306.645C142.477 306.313 142.043 305.842 141.731 305.232C141.423 304.621 141.267 303.889 141.262 303.037V296.091H144.288V302.497C144.292 303.141 144.465 303.65 144.806 304.024C145.147 304.398 145.604 304.585 146.177 304.585C146.541 304.585 146.882 304.502 147.2 304.337C147.517 304.166 147.772 303.915 147.967 303.584C148.165 303.252 148.263 302.843 148.258 302.355ZM153.703 307V296.091H156.587V298.016H156.715C156.942 297.376 157.321 296.872 157.851 296.503C158.382 296.134 159.016 295.949 159.755 295.949C160.503 295.949 161.14 296.136 161.665 296.51C162.191 296.879 162.541 297.381 162.716 298.016H162.83C163.052 297.391 163.455 296.891 164.037 296.517C164.624 296.138 165.318 295.949 166.118 295.949C167.136 295.949 167.962 296.273 168.597 296.922C169.236 297.566 169.556 298.48 169.556 299.663V307H166.537V300.26C166.537 299.654 166.376 299.199 166.054 298.896C165.732 298.593 165.33 298.442 164.847 298.442C164.298 298.442 163.869 298.617 163.561 298.967C163.254 299.313 163.1 299.77 163.1 300.338V307H160.167V300.196C160.167 299.661 160.013 299.235 159.705 298.918C159.402 298.6 159.002 298.442 158.505 298.442C158.168 298.442 157.865 298.527 157.596 298.697C157.33 298.863 157.12 299.098 156.963 299.401C156.807 299.699 156.729 300.049 156.729 300.452V307H153.703ZM181.504 307.213C180.4 307.213 179.446 306.979 178.641 306.51C177.841 306.036 177.223 305.378 176.788 304.536C176.352 303.688 176.134 302.705 176.134 301.588C176.134 300.461 176.352 299.476 176.788 298.634C177.223 297.786 177.841 297.128 178.641 296.659C179.446 296.186 180.4 295.949 181.504 295.949C182.607 295.949 183.558 296.186 184.359 296.659C185.164 297.128 185.784 297.786 186.219 298.634C186.655 299.476 186.873 300.461 186.873 301.588C186.873 302.705 186.655 303.688 186.219 304.536C185.784 305.378 185.164 306.036 184.359 306.51C183.558 306.979 182.607 307.213 181.504 307.213ZM181.518 304.869C182.02 304.869 182.439 304.727 182.775 304.443C183.111 304.154 183.364 303.761 183.535 303.264C183.71 302.767 183.798 302.201 183.798 301.567C183.798 300.932 183.71 300.366 183.535 299.869C183.364 299.372 183.111 298.979 182.775 298.69C182.439 298.402 182.02 298.257 181.518 298.257C181.011 298.257 180.585 298.402 180.239 298.69C179.898 298.979 179.64 299.372 179.465 299.869C179.295 300.366 179.21 300.932 179.21 301.567C179.21 302.201 179.295 302.767 179.465 303.264C179.64 303.761 179.898 304.154 180.239 304.443C180.585 304.727 181.011 304.869 181.518 304.869ZM194.707 296.091V298.364H187.974V296.091H194.707ZM189.515 307V295.303C189.515 294.512 189.669 293.856 189.977 293.335C190.289 292.814 190.715 292.424 191.255 292.163C191.795 291.903 192.408 291.773 193.094 291.773C193.558 291.773 193.982 291.808 194.366 291.879C194.754 291.95 195.043 292.014 195.232 292.071L194.692 294.344C194.574 294.306 194.427 294.27 194.252 294.237C194.082 294.204 193.906 294.188 193.727 294.188C193.281 294.188 192.971 294.292 192.796 294.5C192.621 294.704 192.533 294.99 192.533 295.359V307H189.515ZM205.564 304.443V302.021L211.637 292.455H213.725V295.807H212.489L208.661 301.865V301.979H217.29V304.443H205.564ZM212.546 307V303.705L212.603 302.632V292.455H215.486V307H212.546ZM219.119 304.443V302.021L225.191 292.455H227.279V295.807H226.044L222.216 301.865V301.979H230.845V304.443H219.119ZM226.1 307V303.705L226.157 302.632V292.455H229.041V307H226.1ZM241.821 304.983L233.334 296.51L235.195 294.628L243.689 303.122L241.821 304.983ZM235.195 304.983L233.334 303.122L241.821 294.628L243.689 296.51L235.195 304.983ZM246.267 304.443V302.021L252.34 292.455H254.428V295.807H253.192L249.364 301.865V301.979H257.993V304.443H246.267ZM253.249 307V303.705L253.306 302.632V292.455H256.189V307H253.249ZM259.822 304.443V302.021L265.895 292.455H267.983V295.807H266.747L262.919 301.865V301.979H271.548V304.443H259.822ZM266.804 307V303.705L266.86 302.632V292.455H269.744V307H266.804ZM278.254 311.091V296.091H281.237V297.923H281.372C281.505 297.63 281.696 297.331 281.947 297.028C282.203 296.721 282.535 296.465 282.942 296.261C283.354 296.053 283.865 295.949 284.476 295.949C285.271 295.949 286.005 296.157 286.678 296.574C287.35 296.986 287.887 297.608 288.29 298.442C288.692 299.27 288.893 300.31 288.893 301.56C288.893 302.777 288.697 303.804 288.304 304.642C287.916 305.475 287.385 306.107 286.713 306.538C286.045 306.964 285.297 307.178 284.469 307.178C283.882 307.178 283.382 307.08 282.97 306.886C282.563 306.692 282.229 306.448 281.969 306.155C281.708 305.857 281.509 305.556 281.372 305.253H281.28V311.091H278.254ZM281.216 301.545C281.216 302.194 281.306 302.76 281.486 303.243C281.666 303.726 281.926 304.102 282.267 304.372C282.608 304.637 283.022 304.77 283.51 304.77C284.002 304.77 284.419 304.635 284.76 304.365C285.101 304.09 285.359 303.712 285.534 303.229C285.714 302.741 285.804 302.18 285.804 301.545C285.804 300.916 285.716 300.362 285.541 299.884C285.366 299.405 285.108 299.031 284.767 298.761C284.426 298.491 284.007 298.357 283.51 298.357C283.018 298.357 282.601 298.487 282.26 298.747C281.924 299.008 281.666 299.377 281.486 299.855C281.306 300.333 281.216 300.897 281.216 301.545ZM290.911 307V296.091H293.936V307H290.911ZM292.43 294.685C291.981 294.685 291.595 294.536 291.273 294.237C290.955 293.934 290.797 293.572 290.797 293.151C290.797 292.734 290.955 292.376 291.273 292.078C291.595 291.775 291.981 291.624 292.43 291.624C292.88 291.624 293.264 291.775 293.581 292.078C293.903 292.376 294.064 292.734 294.064 293.151C294.064 293.572 293.903 293.934 293.581 294.237C293.264 294.536 292.88 294.685 292.43 294.685ZM298.888 296.091L300.891 299.905L302.944 296.091H306.047L302.887 301.545L306.132 307H303.043L300.891 303.229L298.775 307H295.65L298.888 301.545L295.763 296.091H298.888ZM312.425 307.213C311.303 307.213 310.337 306.986 309.527 306.531C308.722 306.072 308.102 305.423 307.667 304.585C307.231 303.742 307.013 302.746 307.013 301.595C307.013 300.473 307.231 299.488 307.667 298.641C308.102 297.793 308.715 297.133 309.506 296.659C310.301 296.186 311.234 295.949 312.304 295.949C313.024 295.949 313.694 296.065 314.314 296.297C314.939 296.524 315.484 296.867 315.948 297.327C316.417 297.786 316.781 298.364 317.042 299.06C317.302 299.751 317.432 300.561 317.432 301.489V302.32H308.221V300.445H314.584C314.584 300.009 314.489 299.623 314.3 299.287C314.111 298.951 313.848 298.688 313.512 298.499C313.18 298.304 312.794 298.207 312.354 298.207C311.895 298.207 311.488 298.314 311.132 298.527C310.782 298.735 310.507 299.017 310.309 299.372C310.11 299.723 310.008 300.113 310.003 300.544V302.327C310.003 302.866 310.103 303.333 310.301 303.726C310.505 304.119 310.792 304.422 311.161 304.635C311.53 304.848 311.968 304.955 312.475 304.955C312.811 304.955 313.119 304.907 313.398 304.812C313.677 304.718 313.917 304.576 314.115 304.386C314.314 304.197 314.466 303.965 314.57 303.69L317.368 303.875C317.226 304.547 316.935 305.134 316.495 305.636C316.059 306.134 315.496 306.522 314.804 306.801C314.118 307.076 313.325 307.213 312.425 307.213ZM322.432 292.455V307H319.407V292.455H322.432ZM333.933 299.202L331.163 299.372C331.115 299.135 331.013 298.922 330.857 298.733C330.701 298.539 330.495 298.385 330.239 298.271C329.988 298.153 329.688 298.094 329.337 298.094C328.869 298.094 328.473 298.193 328.151 298.392C327.829 298.586 327.668 298.847 327.668 299.173C327.668 299.434 327.772 299.654 327.981 299.834C328.189 300.014 328.547 300.158 329.053 300.267L331.028 300.665C332.088 300.883 332.879 301.233 333.4 301.716C333.921 302.199 334.181 302.833 334.181 303.619C334.181 304.334 333.97 304.962 333.549 305.501C333.132 306.041 332.559 306.463 331.83 306.766C331.106 307.064 330.27 307.213 329.323 307.213C327.879 307.213 326.728 306.912 325.871 306.311C325.019 305.705 324.52 304.881 324.373 303.839L327.349 303.683C327.439 304.124 327.656 304.46 328.002 304.692C328.348 304.919 328.79 305.033 329.33 305.033C329.861 305.033 330.287 304.931 330.609 304.727C330.935 304.519 331.101 304.251 331.106 303.925C331.101 303.65 330.985 303.425 330.758 303.25C330.531 303.07 330.18 302.933 329.707 302.838L327.817 302.462C326.752 302.249 325.959 301.879 325.438 301.354C324.922 300.828 324.664 300.158 324.664 299.344C324.664 298.643 324.853 298.039 325.232 297.533C325.616 297.026 326.153 296.635 326.844 296.361C327.54 296.086 328.355 295.949 329.288 295.949C330.665 295.949 331.75 296.24 332.54 296.822C333.336 297.405 333.8 298.198 333.933 299.202ZM337.855 307.185C337.386 307.185 336.984 307.019 336.647 306.688C336.316 306.351 336.15 305.949 336.15 305.48C336.15 305.016 336.316 304.618 336.647 304.287C336.984 303.955 337.386 303.79 337.855 303.79C338.309 303.79 338.707 303.955 339.048 304.287C339.389 304.618 339.559 305.016 339.559 305.48C339.559 305.793 339.479 306.079 339.318 306.339C339.162 306.595 338.956 306.801 338.7 306.957C338.444 307.109 338.163 307.185 337.855 307.185Z" style="fill: var(--vp-a11y-success)"/>
  <g filter="url(#filter1_d_1780_14209)">
    <path d="M279.262 220.358C281.655 222.773 283 226.048 283 229.463C283 232.879 281.655 236.154 279.262 238.569L277.006 240.846C273.848 244.033 270.96 244.989 267.61 245L259.489 245C258.671 244.958 257.9 244.6 257.336 244C256.773 243.401 256.459 242.606 256.461 241.779C256.462 240.953 256.778 240.158 257.344 239.561C257.91 238.963 258.682 238.608 259.5 238.569L261.214 238.569L249.934 227.187C249.336 226.583 249 225.764 249 224.91C249 224.057 249.336 223.238 249.934 222.634C250.533 222.03 251.344 221.691 252.19 221.691C253.037 221.691 253.848 222.03 254.446 222.634L260.085 228.324C259.488 227.72 259.152 226.902 259.152 226.049C259.152 225.195 259.488 224.376 260.086 223.772C260.685 223.168 261.496 222.829 262.342 222.829C263.188 222.829 264 223.168 264.598 223.772L265.726 224.91C265.128 224.307 264.792 223.488 264.792 222.634C264.792 221.78 265.128 220.961 265.726 220.358C266.325 219.754 267.136 219.415 267.982 219.415C268.828 219.415 269.64 219.754 270.238 220.358L271.366 221.496C270.768 220.892 270.432 220.073 270.432 219.219C270.432 218.366 270.768 217.547 271.366 216.943C271.965 216.339 272.776 216 273.622 216C274.468 216 275.28 216.339 275.878 216.943L279.262 220.358Z" fill="white"/>
    <path d="M261.214 229.463L260.086 228.325L260.085 228.324M260.65 228.894L260.085 228.324M259.5 238.569C258.682 238.608 257.91 238.963 257.344 239.561C256.778 240.158 256.462 240.953 256.461 241.779C256.459 242.606 256.773 243.401 257.336 244C257.9 244.6 258.671 244.958 259.489 245L267.61 245C270.96 244.989 273.848 244.033 277.006 240.846L279.262 238.569C281.655 236.154 283 232.879 283 229.463C283 226.048 281.655 222.773 279.262 220.358L275.878 216.943C275.28 216.339 274.468 216 273.622 216C272.776 216 271.965 216.339 271.366 216.943C270.768 217.547 270.432 218.366 270.432 219.219C270.432 220.073 270.768 220.892 271.366 221.496L270.238 220.358C269.64 219.754 268.828 219.415 267.982 219.415C267.136 219.415 266.325 219.754 265.726 220.358C265.128 220.961 264.792 221.78 264.792 222.634C264.792 223.488 265.128 224.307 265.726 224.91L264.598 223.772C264 223.168 263.188 222.829 262.342 222.829C261.496 222.829 260.685 223.168 260.086 223.772C259.488 224.376 259.152 225.195 259.152 226.049C259.152 226.902 259.488 227.72 260.085 228.324M259.5 238.569L263.47 238.569M259.5 238.569L261.214 238.569L249.934 227.187C249.336 226.583 249 225.764 249 224.91C249 224.057 249.336 223.238 249.934 222.634C250.533 222.03 251.344 221.691 252.19 221.691C253.037 221.691 253.848 222.03 254.446 222.634L260.085 228.324" stroke="#1E1E1E" stroke-width="3" stroke-linecap="round" stroke-linejoin="round"/>
  </g>
  <defs>
    <filter id="filter0_d_1780_14209" x="241.5" y="29.5" width="45" height="40" filterUnits="userSpaceOnUse" color-interpolation-filters="sRGB">
      <feFlood flood-opacity="0" result="BackgroundImageFix"/>
      <feColorMatrix in="SourceAlpha" type="matrix" values="0 0 0 0 0 0 0 0 0 0 0 0 0 0 0 0 0 0 127 0" result="hardAlpha"/>
      <feOffset/>
      <feGaussianBlur stdDeviation="2"/>
      <feComposite in2="hardAlpha" operator="out"/>
      <feColorMatrix type="matrix" values="0 0 0 0 0 0 0 0 0 0 0 0 0 0 0 0 0 0 0.25 0"/>
      <feBlend mode="normal" in2="BackgroundImageFix" result="effect1_dropShadow_1780_14209"/>
      <feBlend mode="normal" in="SourceGraphic" in2="effect1_dropShadow_1780_14209" result="shape"/>
    </filter>
    <filter id="filter1_d_1780_14209" x="243.5" y="210.5" width="45" height="40" filterUnits="userSpaceOnUse" color-interpolation-filters="sRGB">
      <feFlood flood-opacity="0" result="BackgroundImageFix"/>
      <feColorMatrix in="SourceAlpha" type="matrix" values="0 0 0 0 0 0 0 0 0 0 0 0 0 0 0 0 0 0 127 0" result="hardAlpha"/>
      <feOffset/>
      <feGaussianBlur stdDeviation="2"/>
      <feComposite in2="hardAlpha" operator="out"/>
      <feColorMatrix type="matrix" values="0 0 0 0 0 0 0 0 0 0 0 0 0 0 0 0 0 0 0.25 0"/>
      <feBlend mode="normal" in2="BackgroundImageFix" result="effect1_dropShadow_1780_14209"/>
      <feBlend mode="normal" in="SourceGraphic" in2="effect1_dropShadow_1780_14209" result="shape"/>
    </filter>
  </defs>
</svg>
