<svg width="480" height="364" viewBox="0 0 480 364" fill="none" class="a11y-example">
  <title>In short: Don’t rely on communicating the function of elements by icons alone. Do also provide a written description of the your interactive elements. For example: write out "On this page" on your on-page navigation element.</title>
  <rect width="480" height="164" rx="8" style="fill: var(--vp-code-block-bg)" />
  <path d="M232 46H248" stroke="currentColor" stroke-width="2" stroke-linecap="round" stroke-linejoin="round"/>
  <path d="M232 40H248" stroke="currentColor" stroke-width="2" stroke-linecap="round" stroke-linejoin="round"/>
  <path d="M232 52H248" stroke="currentColor" stroke-width="2" stroke-linecap="round" stroke-linejoin="round"/>
  <path d="M42 98L30 110" style="stroke: var(--vp-a11y-danger)" stroke-width="3" stroke-linecap="round" stroke-linejoin="round"/>
  <path d="M30 98L42 110" style="stroke: var(--vp-a11y-danger)" stroke-width="3" stroke-linecap="round" stroke-linejoin="round"/>
  <text x="58" y="111" style="fill: var(--vp-a11y-danger)" font-size="18" font-weight="800">
    <tspan>Don't rely on communicating the</tspan>
    <tspan x="58" y="136">function of elements by icons alone.</tspan>
  </text>
  <rect x="0.5" y="188.5" width="479" height="175" rx="8" style="fill: var(--vp-code-block-bg)"/>
  <path d="M176.044 239.727C176.044 241.261 175.767 242.587 175.213 243.705C174.659 244.822 173.899 245.684 172.933 246.29C171.967 246.896 170.864 247.199 169.623 247.199C168.383 247.199 167.28 246.896 166.314 246.29C165.348 245.684 164.588 244.822 164.034 243.705C163.48 242.587 163.203 241.261 163.203 239.727C163.203 238.193 163.48 236.867 164.034 235.75C164.588 234.633 165.348 233.771 166.314 233.165C167.28 232.559 168.383 232.256 169.623 232.256C170.864 232.256 171.967 232.559 172.933 233.165C173.899 233.771 174.659 234.633 175.213 235.75C175.767 236.867 176.044 238.193 176.044 239.727ZM174.339 239.727C174.339 238.468 174.129 237.405 173.707 236.538C173.291 235.672 172.725 235.016 172.01 234.571C171.3 234.126 170.504 233.903 169.623 233.903C168.743 233.903 167.945 234.126 167.23 234.571C166.52 235.016 165.954 235.672 165.532 236.538C165.116 237.405 164.907 238.468 164.907 239.727C164.907 240.987 165.116 242.05 165.532 242.916C165.954 243.783 166.52 244.438 167.23 244.884C167.945 245.329 168.743 245.551 169.623 245.551C170.504 245.551 171.3 245.329 172.01 244.884C172.725 244.438 173.291 243.783 173.707 242.916C174.129 242.05 174.339 240.987 174.339 239.727ZM180.454 240.438V247H178.778V236.091H180.398V237.795H180.54C180.795 237.241 181.184 236.796 181.704 236.46C182.225 236.119 182.898 235.949 183.721 235.949C184.46 235.949 185.106 236.1 185.66 236.403C186.214 236.702 186.645 237.156 186.953 237.767C187.261 238.373 187.415 239.14 187.415 240.068V247H185.738V240.182C185.738 239.325 185.516 238.657 185.071 238.179C184.626 237.696 184.015 237.455 183.238 237.455C182.703 237.455 182.225 237.571 181.804 237.803C181.387 238.035 181.058 238.373 180.817 238.818C180.575 239.263 180.454 239.803 180.454 240.438ZM200.847 236.091V237.511H195.193V236.091H200.847ZM196.841 233.477H198.517V243.875C198.517 244.348 198.586 244.704 198.723 244.94C198.865 245.172 199.045 245.329 199.263 245.409C199.485 245.485 199.72 245.523 199.966 245.523C200.151 245.523 200.302 245.513 200.421 245.494C200.539 245.471 200.634 245.452 200.705 245.438L201.046 246.943C200.932 246.986 200.773 247.028 200.57 247.071C200.366 247.118 200.108 247.142 199.796 247.142C199.322 247.142 198.858 247.04 198.404 246.837C197.954 246.633 197.58 246.323 197.281 245.906C196.988 245.49 196.841 244.964 196.841 244.33V233.477ZM205.279 240.438V247H203.602V232.455H205.279V237.795H205.421C205.676 237.232 206.06 236.785 206.571 236.453C207.087 236.117 207.774 235.949 208.631 235.949C209.374 235.949 210.025 236.098 210.584 236.396C211.143 236.69 211.576 237.142 211.884 237.753C212.196 238.359 212.352 239.131 212.352 240.068V247H210.676V240.182C210.676 239.315 210.451 238.645 210.002 238.172C209.557 237.694 208.939 237.455 208.148 237.455C207.599 237.455 207.106 237.571 206.671 237.803C206.24 238.035 205.899 238.373 205.648 238.818C205.402 239.263 205.279 239.803 205.279 240.438ZM215.419 247V236.091H217.095V247H215.419ZM216.271 234.273C215.944 234.273 215.663 234.161 215.426 233.939C215.194 233.716 215.078 233.449 215.078 233.136C215.078 232.824 215.194 232.556 215.426 232.334C215.663 232.111 215.944 232 216.271 232C216.598 232 216.877 232.111 217.109 232.334C217.346 232.556 217.464 232.824 217.464 233.136C217.464 233.449 217.346 233.716 217.109 233.939C216.877 234.161 216.598 234.273 216.271 234.273ZM227.892 238.534L226.387 238.96C226.292 238.709 226.152 238.465 225.968 238.229C225.788 237.987 225.541 237.788 225.229 237.632C224.916 237.476 224.516 237.398 224.029 237.398C223.361 237.398 222.805 237.552 222.36 237.859C221.919 238.162 221.699 238.548 221.699 239.017C221.699 239.434 221.851 239.763 222.154 240.004C222.457 240.246 222.93 240.447 223.574 240.608L225.193 241.006C226.169 241.242 226.896 241.605 227.374 242.092C227.852 242.575 228.091 243.198 228.091 243.96C228.091 244.585 227.911 245.144 227.551 245.636C227.196 246.129 226.699 246.517 226.06 246.801C225.421 247.085 224.677 247.227 223.83 247.227C222.717 247.227 221.796 246.986 221.067 246.503C220.338 246.02 219.876 245.314 219.682 244.386L221.273 243.989C221.424 244.576 221.711 245.016 222.132 245.31C222.558 245.603 223.115 245.75 223.801 245.75C224.583 245.75 225.203 245.584 225.662 245.253C226.126 244.917 226.358 244.514 226.358 244.045C226.358 243.667 226.226 243.349 225.96 243.094C225.695 242.833 225.288 242.639 224.739 242.511L222.921 242.085C221.922 241.848 221.188 241.482 220.719 240.984C220.255 240.482 220.023 239.855 220.023 239.102C220.023 238.487 220.196 237.942 220.541 237.469C220.892 236.995 221.368 236.624 221.969 236.354C222.575 236.084 223.262 235.949 224.029 235.949C225.108 235.949 225.956 236.186 226.571 236.659C227.191 237.133 227.632 237.758 227.892 238.534ZM236.239 251.091V236.091H237.858V237.824H238.057C238.18 237.634 238.351 237.393 238.569 237.099C238.791 236.801 239.108 236.536 239.52 236.304C239.937 236.067 240.501 235.949 241.211 235.949C242.129 235.949 242.939 236.179 243.64 236.638C244.34 237.097 244.887 237.748 245.28 238.591C245.673 239.434 245.87 240.428 245.87 241.574C245.87 242.729 245.673 243.731 245.28 244.578C244.887 245.421 244.343 246.074 243.647 246.538C242.951 246.998 242.148 247.227 241.239 247.227C240.538 247.227 239.977 247.111 239.556 246.879C239.135 246.643 238.81 246.375 238.583 246.077C238.356 245.774 238.18 245.523 238.057 245.324H237.915V251.091H236.239ZM237.887 241.545C237.887 242.369 238.008 243.096 238.249 243.726C238.491 244.351 238.843 244.841 239.307 245.196C239.771 245.546 240.34 245.722 241.012 245.722C241.713 245.722 242.297 245.537 242.766 245.168C243.24 244.794 243.595 244.292 243.831 243.662C244.073 243.027 244.194 242.322 244.194 241.545C244.194 240.778 244.075 240.087 243.839 239.472C243.607 238.851 243.254 238.361 242.78 238.001C242.312 237.637 241.722 237.455 241.012 237.455C240.33 237.455 239.757 237.627 239.293 237.973C238.829 238.314 238.479 238.792 238.242 239.408C238.005 240.018 237.887 240.731 237.887 241.545ZM251.637 247.256C250.946 247.256 250.318 247.125 249.755 246.865C249.191 246.6 248.744 246.219 248.412 245.722C248.081 245.22 247.915 244.614 247.915 243.903C247.915 243.278 248.038 242.772 248.285 242.384C248.531 241.991 248.86 241.683 249.272 241.46C249.684 241.238 250.138 241.072 250.635 240.963C251.137 240.849 251.642 240.759 252.148 240.693C252.811 240.608 253.349 240.544 253.76 240.501C254.177 240.454 254.48 240.376 254.67 240.267C254.864 240.158 254.961 239.969 254.961 239.699V239.642C254.961 238.941 254.769 238.397 254.385 238.009C254.007 237.62 253.431 237.426 252.66 237.426C251.859 237.426 251.232 237.601 250.778 237.952C250.323 238.302 250.003 238.676 249.819 239.074L248.228 238.506C248.512 237.843 248.891 237.327 249.364 236.957C249.842 236.583 250.363 236.323 250.927 236.176C251.495 236.025 252.054 235.949 252.603 235.949C252.953 235.949 253.356 235.991 253.81 236.077C254.269 236.157 254.712 236.325 255.138 236.581C255.569 236.837 255.927 237.223 256.211 237.739C256.495 238.255 256.637 238.946 256.637 239.812V247H254.961V245.523H254.876C254.762 245.759 254.573 246.013 254.307 246.283C254.042 246.553 253.689 246.782 253.249 246.972C252.809 247.161 252.271 247.256 251.637 247.256ZM251.893 245.75C252.555 245.75 253.114 245.62 253.569 245.359C254.028 245.099 254.374 244.763 254.606 244.351C254.842 243.939 254.961 243.506 254.961 243.051V241.517C254.89 241.602 254.733 241.68 254.492 241.751C254.255 241.818 253.981 241.877 253.668 241.929C253.36 241.976 253.06 242.019 252.766 242.057C252.477 242.09 252.243 242.118 252.063 242.142C251.627 242.199 251.22 242.291 250.841 242.419C250.467 242.542 250.164 242.729 249.932 242.98C249.705 243.226 249.591 243.562 249.591 243.989C249.591 244.571 249.807 245.011 250.238 245.31C250.673 245.603 251.225 245.75 251.893 245.75ZM264.1 251.318C263.29 251.318 262.594 251.214 262.012 251.006C261.429 250.802 260.944 250.532 260.556 250.196C260.172 249.865 259.867 249.509 259.639 249.131L260.975 248.193C261.126 248.392 261.318 248.619 261.55 248.875C261.782 249.135 262.099 249.36 262.502 249.55C262.909 249.744 263.441 249.841 264.1 249.841C264.98 249.841 265.707 249.628 266.28 249.202C266.853 248.776 267.139 248.108 267.139 247.199V244.983H266.997C266.874 245.182 266.699 245.428 266.472 245.722C266.249 246.01 265.927 246.268 265.506 246.496C265.089 246.718 264.526 246.83 263.816 246.83C262.935 246.83 262.144 246.621 261.443 246.205C260.747 245.788 260.196 245.182 259.789 244.386C259.386 243.591 259.185 242.625 259.185 241.489C259.185 240.371 259.381 239.398 259.774 238.57C260.167 237.736 260.714 237.092 261.415 236.638C262.116 236.179 262.925 235.949 263.844 235.949C264.554 235.949 265.118 236.067 265.534 236.304C265.956 236.536 266.278 236.801 266.5 237.099C266.727 237.393 266.903 237.634 267.026 237.824H267.196V236.091H268.816V247.312C268.816 248.25 268.602 249.012 268.176 249.599C267.755 250.191 267.187 250.625 266.472 250.899C265.762 251.179 264.971 251.318 264.1 251.318ZM264.043 245.324C264.715 245.324 265.283 245.17 265.747 244.862C266.211 244.554 266.564 244.112 266.806 243.534C267.047 242.956 267.168 242.265 267.168 241.46C267.168 240.674 267.049 239.981 266.813 239.379C266.576 238.778 266.226 238.307 265.762 237.966C265.298 237.625 264.725 237.455 264.043 237.455C263.333 237.455 262.741 237.634 262.267 237.994C261.798 238.354 261.446 238.837 261.209 239.443C260.977 240.049 260.861 240.722 260.861 241.46C260.861 242.218 260.979 242.888 261.216 243.47C261.458 244.048 261.813 244.502 262.281 244.834C262.755 245.161 263.342 245.324 264.043 245.324ZM276.458 247.227C275.406 247.227 274.5 246.995 273.737 246.531C272.98 246.062 272.395 245.409 271.983 244.571C271.576 243.728 271.372 242.748 271.372 241.631C271.372 240.513 271.576 239.528 271.983 238.676C272.395 237.819 272.968 237.152 273.702 236.673C274.441 236.19 275.302 235.949 276.287 235.949C276.855 235.949 277.416 236.044 277.97 236.233C278.524 236.422 279.029 236.73 279.483 237.156C279.938 237.578 280.3 238.136 280.57 238.832C280.84 239.528 280.975 240.385 280.975 241.403V242.114H272.566V240.665H279.27C279.27 240.049 279.147 239.5 278.901 239.017C278.659 238.534 278.314 238.153 277.864 237.874C277.419 237.594 276.893 237.455 276.287 237.455C275.619 237.455 275.042 237.62 274.554 237.952C274.071 238.278 273.7 238.705 273.439 239.23C273.179 239.756 273.048 240.319 273.048 240.92V241.886C273.048 242.71 273.191 243.409 273.475 243.982C273.763 244.55 274.164 244.983 274.675 245.281C275.186 245.575 275.78 245.722 276.458 245.722C276.898 245.722 277.296 245.66 277.651 245.537C278.011 245.409 278.321 245.22 278.581 244.969C278.842 244.713 279.043 244.396 279.185 244.017L280.804 244.472C280.634 245.021 280.347 245.504 279.945 245.92C279.542 246.332 279.045 246.654 278.453 246.886C277.861 247.114 277.196 247.227 276.458 247.227Z" fill="currentColor"/>
  <path d="M298 240H314" stroke="currentColor" stroke-width="2" stroke-linecap="round" stroke-linejoin="round"/>
  <path d="M298 234H314" stroke="currentColor" stroke-width="2" stroke-linecap="round" stroke-linejoin="round"/>
  <path d="M298 246H314" stroke="currentColor" stroke-width="2" stroke-linecap="round" stroke-linejoin="round"/>
  <path d="M44 298L33 309L28 304" style="stroke: var(--vp-a11y-success)" stroke-width="3" stroke-linecap="round" stroke-linejoin="round"/>
  <text x="58" y="311" style="fill: var(--vp-a11y-success)" font-size="18" font-weight="800">
    <tspan>Do also provide a written description</tspan>
    <tspan x="58" y="338">of your interacive elements.</tspan>
  </text>
</svg>
