<svg xmlns="http://www.w3.org/2000/svg" width="138" height="42" fill="none" viewBox="0 0 138 42">
  <path fill="#fff" fill-rule="evenodd" d="M138 4a3.997 3.997 0 0 0-4-4H4a4 4 0 0 0-4 4v34a4 4 0 0 0 4 4h130a4 4 0 0 0 4-4z" clip-rule="evenodd"/>
  <path fill="#000" fill-rule="evenodd" d="M27.963 16.943q1.08 0 1.864.43.783.428 1.212 1.154v-1.454h3.653V27.53H31.04v-1.454q-.429.727-1.23 1.156-.783.43-1.846.43-1.248 0-2.274-.653-1.006-.653-1.603-1.864-.578-1.23-.578-2.852t.578-2.834q.597-1.211 1.604-1.863a4.15 4.15 0 0 1 2.273-.653m1.175 3.188q-.82 0-1.36.577-.542.56-.542 1.585 0 1.006.541 1.602.54.579 1.36.579.802 0 1.343-.579.558-.578.56-1.602-.001-1.007-.56-1.585a1.76 1.76 0 0 0-1.342-.577" clip-rule="evenodd"/>
  <path fill="#000" d="M75.361 16.943q2.05 0 3.225 1.006t1.361 2.648h-3.3q-.092-.504-.447-.765-.335-.28-.913-.28-.447 0-.69.169a.55.55 0 0 0-.223.465q0 .373.429.579.428.186 1.379.39 1.137.243 1.882.541.765.3 1.324.969.578.653.578 1.79 0 .914-.541 1.64-.522.727-1.51 1.156-.969.41-2.293.41-1.417 0-2.535-.466-1.1-.485-1.752-1.304a3.47 3.47 0 0 1-.708-1.883h3.542q.075.503.466.782.39.28.968.28.448 0 .71-.186a.57.57 0 0 0 .26-.485q0-.39-.428-.578-.43-.185-1.417-.41-1.12-.223-1.865-.503a3.25 3.25 0 0 1-1.304-.914q-.54-.633-.54-1.715 0-.93.502-1.677.504-.765 1.473-1.211.989-.448 2.367-.448"/>
  <path fill="#000" fill-rule="evenodd" d="M94.305 16.943q1.564 0 2.796.653a4.8 4.8 0 0 1 1.957 1.863q.726 1.212.727 2.834 0 1.621-.727 2.852a4.8 4.8 0 0 1-1.957 1.864q-1.25.652-2.815.652-1.566 0-2.814-.652a4.8 4.8 0 0 1-1.939-1.864q-.709-1.212-.709-2.852 0-1.622.71-2.834a4.95 4.95 0 0 1 1.956-1.863q1.248-.653 2.815-.653m0 3.168q-.746 0-1.25.56-.502.56-.502 1.622 0 1.08.484 1.64.485.559 1.25.56.763-.001 1.267-.56.52-.578.521-1.64 0-1.063-.521-1.622a1.61 1.61 0 0 0-1.25-.56M118.921 16.943q1.081 0 1.864.43.783.428 1.212 1.154v-1.454h3.653V27.53h-3.653v-1.454q-.429.727-1.23 1.156-.784.43-1.846.43-1.248 0-2.274-.653-1.006-.653-1.603-1.864-.577-1.23-.577-2.852t.577-2.834q.597-1.211 1.603-1.863a4.15 4.15 0 0 1 2.274-.653m1.175 3.188q-.82 0-1.361.577-.54.56-.541 1.585 0 1.006.541 1.602.541.579 1.361.579.8 0 1.342-.579.558-.578.559-1.602 0-1.007-.559-1.585a1.77 1.77 0 0 0-1.342-.577M17.81 14.39q1.584 0 2.683.558 1.119.56 1.678 1.548.56.988.56 2.274 0 1.193-.56 2.18-.54.97-1.66 1.567-1.099.577-2.701.577H16v4.436h-3.653V14.39zM16 20.186h1.454q1.548 0 1.547-1.416 0-1.436-1.547-1.436h-1.454z" clip-rule="evenodd"/>
  <path fill="#000" d="m41.658 19.702 1.51-2.629h4.008l-3.56 5.331 3.69 5.126h-4.1l-1.884-2.628-1.49 2.628h-4.009l3.487-5.424-3.635-5.033h4.1zM55.42 19.33h4.456v-4.94h3.653v13.14h-3.653v-5.274h-4.455v5.274h-3.653V14.39h3.653zM69.18 27.53h-3.654V17.073h3.654zM85.919 17.073h1.9v3.038h-1.9v3.505q0 .429.186.615.204.187.671.187h1.063v3.112h-1.585q-4.008 0-4.008-3.97v-3.449H80.96v-3.038h1.286v-2.535h3.673zM108.205 20.876h-1.024q-1.194 0-1.772.466-.577.465-.577 1.622v4.566h-3.654V17.073h3.654v1.846a4.76 4.76 0 0 1 1.491-1.417 3.6 3.6 0 0 1 1.882-.521zM113.075 27.53h-3.653V17.073h3.653zM67.372 12.339q.95 0 1.528.54.597.542.597 1.361 0 .801-.597 1.342-.577.523-1.528.523-.97 0-1.565-.523a1.76 1.76 0 0 1-.579-1.342q0-.82.579-1.36.596-.54 1.565-.541M111.268 12.339q.95 0 1.528.54.596.542.597 1.361 0 .801-.597 1.342-.578.522-1.528.523-.97 0-1.567-.523a1.76 1.76 0 0 1-.577-1.342q0-.82.577-1.36.597-.54 1.567-.541"/>
</svg>
