<svg xmlns="http://www.w3.org/2000/svg" width="138" height="42" fill="none" viewBox="0 0 138 42">
  <path fill="#fff" fill-rule="evenodd" d="M138 4a4 4 0 0 0-4-4H4a4 4 0 0 0-4 4v34a4 4 0 0 0 4 4h130a4 4 0 0 0 4-4V4Z" clip-rule="evenodd"/>
  <path fill="#000" d="M55.78 32.95V14.42h1.8l.21 1.52h.05c.6-.5 1.24-.93 1.96-1.3a4.73 4.73 0 0 1 2.2-.55c1.11 0 2.06.27 2.84.83.8.58 1.4 1.38 1.75 2.31.39 1 .59 2.16.59 3.5 0 1.5-.27 2.76-.8 3.81-.47.97-1.2 1.8-2.1 2.4-.85.55-1.78.83-2.77.83-.6 0-1.2-.13-1.8-.4-.6-.26-1.2-.63-1.8-1.11l.07 2.28v4.41h-2.2Zm5.37-7.03c.72 0 1.37-.2 1.93-.61.57-.4 1.02-1 1.34-1.78.32-.77.48-1.7.48-2.77 0-.96-.12-1.8-.35-2.53-.23-.73-.6-1.3-1.1-1.7a3.52 3.52 0 0 0-3.68-.14c-.57.3-1.16.75-1.79 1.32v6.87c.58.5 1.15.84 1.7 1.04.57.2 1.06.3 1.47.3Zm13.95 1.85c-1 .02-2-.26-2.85-.8a5.09 5.09 0 0 1-1.87-2.31 9.32 9.32 0 0 1-.66-3.7c0-1.42.26-2.63.8-3.66a6.1 6.1 0 0 1 2.07-2.37 4.97 4.97 0 0 1 4.75-.44c.61.3 1.18.67 1.7 1.11l-.13-2.23V8.35h2.2v19.1h-1.8l-.18-1.53h-.07a7.5 7.5 0 0 1-1.78 1.3c-.67.37-1.4.55-2.18.55Zm.48-1.85c.6 0 1.18-.15 1.72-.44.55-.3 1.08-.74 1.61-1.34V17.3c-.46-.44-1-.8-1.58-1.05-.5-.2-1.04-.31-1.59-.31-.68 0-1.31.2-1.88.63a4.58 4.58 0 0 0-1.37 1.75c-.36.82-.53 1.7-.51 2.6 0 1.05.14 1.94.43 2.7.29.75.7 1.32 1.23 1.71.54.4 1.18.6 1.94.6v-.01Zm10.32 1.54V12.34c0-.88.13-1.64.4-2.28.28-.64.7-1.14 1.25-1.5.65-.37 1.4-.55 2.14-.52.4 0 .79.04 1.16.12.38.08.72.18 1.02.29l-.48 1.7a3.24 3.24 0 0 0-1.46-.36c-.63 0-1.1.22-1.4.65-.3.43-.45 1.07-.45 1.92v15.1H85.9ZM84.12 16.2v-1.66l1.87-.12h4.85v1.78h-6.72Zm9.22 11.26V14.42h1.8l.21 1.9h.05a9.48 9.48 0 0 1 1.88-1.58c.68-.44 1.4-.65 2.18-.65 1 0 1.79.22 2.35.67.56.45.97 1.06 1.25 1.82.68-.73 1.38-1.33 2.07-1.8.7-.46 1.45-.7 2.25-.7 1.32 0 2.31.44 2.96 1.32.65.87.97 2.14.97 3.8v8.26h-2.18v-7.97c0-1.23-.2-2.12-.6-2.67-.38-.54-1-.81-1.83-.81-.5 0-1 .16-1.54.5-.54.32-1.12.82-1.74 1.5v9.45h-2.19v-7.97c0-1.23-.2-2.12-.59-2.67-.39-.54-1-.81-1.83-.81-.5 0-1.02.16-1.56.5-.55.32-1.11.82-1.7 1.5v9.45h-2.21Zm27.5.31a6.23 6.23 0 0 1-3.17-.82 5.87 5.87 0 0 1-2.24-2.34 7.56 7.56 0 0 1-.83-3.66c0-1.07.16-2.03.48-2.87.32-.84.76-1.56 1.3-2.16a5.66 5.66 0 0 1 4.05-1.83c1.12 0 2.07.25 2.83.74.77.5 1.36 1.2 1.77 2.13.52 1.24.73 2.58.59 3.92-.02.2-.04.4-.08.58h-8.78c.05.92.26 1.73.64 2.4.37.69.87 1.22 1.5 1.6.62.37 1.35.56 2.18.56.64 0 1.22-.1 1.74-.28.54-.2 1.05-.45 1.52-.76l.77 1.47c-.6.38-1.23.7-1.9.93-.7.26-1.5.39-2.37.39Zm-4.1-7.87h6.98c0-1.32-.28-2.32-.85-3.02a2.91 2.91 0 0 0-2.4-1.04c-.6 0-1.17.16-1.7.48-.54.32-1 .78-1.35 1.37a5.23 5.23 0 0 0-.68 2.2v.01Z"/>
  <path fill="#fff" d="m18.9 25.51 2.17-.73.18-.8a2.7 2.7 0 0 0-.06-1.13c-.05-.14-.12-.27-.16-.41-.04-.16.02-.37-.06-.5-.11-.16-.5-.2-.67-.11-.26.12-.24.33-.28.55-.02.1-.06.13-.12.2-.06.08-.11.17-.15.27-.43 0-.78-.17-1.2-.23l-1.01-.14c-.55-.09-.94-.13-1.42-.18-.55-.06-1.49-.04-1.64.31-.44.07-.8.22-.76.55-.14.1-.2.24 0 .39l-.01.02c-.21.33.47.43.7.47.8.13 1.6.1 2.39.27.64.15 1.07.49 1.6.86l.5.34Z"/>
  <path fill="#CE9FB5" d="M23.2 38.66c0-.35.5-3.02.5-3.02-.38.1-.82.24-1.22.13a1.8 1.8 0 0 1-1.03-.79c-.96-1.4-1.75-5.33-2.23-6.96-.18-.62-.55-1.57-.82-2.17-.07-.14-.28-.4-.2-.57.1-.16.47-.11.66-.13.68-.1 2.3-.46 2.4-1.25.25 0 .53.6.64.77.23.4 1.3 3.26 1.54 3.66.2.35.3.74.5 1.1l.25.49c.67-1.89 3.07-6.37 3.92-7.26a4.87 4.87 0 0 1 2.35-1.4c.17-.04.4-.04.56-.12.47-.24 1.1.04 1.62 0 .7-.04 1.38-.32 2.03-.57.7-.26 1.42-.57 2.18-.61.8-.05 1.6.17 2.2.76.4.02.52-.02.9-.04 2.25.08 3.48 2.31 4.42 4.12 1.3 2.49 1.85 6.23 2.32 13.83"/>
  <path stroke="#000" stroke-miterlimit="10" stroke-width=".04" d="M23.2 38.66c0-.35.5-3.02.5-3.02-.38.1-.82.24-1.22.13a1.8 1.8 0 0 1-1.03-.79c-.96-1.4-1.75-5.33-2.23-6.96-.18-.62-.55-1.57-.82-2.17-.07-.14-.28-.4-.2-.57.1-.16.47-.11.66-.13.68-.1 2.3-.46 2.4-1.25.25 0 .53.6.64.77.23.4 1.3 3.26 1.54 3.66.2.35.3.74.5 1.1l.25.49c.67-1.89 3.07-6.37 3.92-7.26a4.87 4.87 0 0 1 2.35-1.4c.17-.04.4-.04.56-.12.47-.24 1.1.04 1.62 0 .7-.04 1.38-.32 2.03-.57.7-.26 1.42-.57 2.18-.61.8-.05 1.6.17 2.2.76.4.02.52-.02.9-.04 2.25.08 3.48 2.31 4.42 4.12 1.3 2.49 1.85 6.23 2.32 13.83"/>
  <path fill="#000" d="m33.48 21.33 1.97 1.14c0-.03 1.48-2.8 1.48-2.8l-1.84-.43"/>
  <path stroke="#000" stroke-miterlimit="10" stroke-width=".04" d="m33.48 21.33 1.97 1.14c0-.03 1.48-2.8 1.48-2.8l-1.84-.43"/>
  <path fill="#FFD153" d="M37.08 18.66c3 1.7.78 2.58.47 3.31-.74 1.77-1.48 2.04-2.3 3.44-2.08 3.56-2.47 8.07-2.8 12.09h-.02c-.06-.07-.18-.11-.27-.2h-.02c0 .1-.06.16-.08.25-.17-.19-.34-.15-.46.04h-.02c-.02-.06-.09-.12-.1-.18h-.32a.75.75 0 0 1-.1.12h-.03c-.03-.08-.12-.17-.15-.25h-.02l-.15.15h-.02c-.1-.11-.23-.14-.36-.04h-.02a4.73 4.73 0 0 1-.18-.4c-.04.05-.12.11-.16.18-.13-.14-.28-.13-.4.02h-.03c-.04-.05-.12-.1-.16-.16-.06.04-.09.03-.12.1h-.02c-.02-.09-.09-.18-.1-.24h-.02a.5.5 0 0 1-.15.1c0-3.21.4-6.28 1.57-9.28.86-2.2 1.98-3.24 3.53-5.02.52-.6 1.08-1.21 1.56-1.83.2-.27.35-.48.3-.84"/>
  <path stroke="#000" stroke-miterlimit="10" stroke-width=".04" d="M37.08 18.66c3 1.7.78 2.58.47 3.31-.74 1.77-1.48 2.04-2.3 3.44-2.08 3.56-2.47 8.07-2.8 12.09h-.02c-.06-.07-.18-.11-.27-.2h-.02c0 .1-.06.16-.08.25-.17-.19-.34-.15-.46.04h-.02c-.02-.06-.09-.12-.1-.18h-.32a.75.75 0 0 1-.1.12h-.03c-.03-.08-.12-.17-.15-.25h-.02l-.15.15h-.02c-.1-.11-.23-.14-.36-.04h-.02a4.73 4.73 0 0 1-.18-.4c-.04.05-.12.11-.16.18-.13-.14-.28-.13-.4.02h-.03c-.04-.05-.12-.1-.16-.16-.06.04-.09.03-.12.1h-.02c-.02-.09-.09-.18-.1-.24h-.02a.5.5 0 0 1-.15.1c0-3.21.4-6.28 1.57-9.28.86-2.2 1.98-3.24 3.53-5.02.52-.6 1.08-1.21 1.56-1.83.2-.27.35-.48.3-.84"/>
  <path fill="#000" d="M30.95 23.65s1.15 2.14 3.27 1.7a5.8 5.8 0 0 0 3.96-2.85c.78-1.24 1.14-1.47 1.73-1.82"/>
  <path stroke="#000" stroke-miterlimit="10" stroke-width=".04" d="M30.95 23.65s1.15 2.14 3.27 1.7a5.8 5.8 0 0 0 3.96-2.85c.78-1.24 1.14-1.47 1.73-1.82"/>
  <path fill="#FFD153" d="M35.93 18.7c-.9.32-1.92.27-2.83.6a3.98 3.98 0 0 0-2.27 2.13c-.28.72-.36 1.7.04 2.38.72 1.26 2.61 1.6 3.9 1.22 1.26-.4 2.37-1.54 3.18-2.55.33-.41.61-.85 1.01-1.22.23-.21.55-.54.95-.58.66-.07-.92-.7-1.26-.75a1.8 1.8 0 0 0-1.29.22c-.68.4-1.14 1.24-1.93 1.5-.38.12-.68.06-.9-.26-.35-.48-.08-.85.34-1.25"/>
  <path stroke="#000" stroke-miterlimit="10" stroke-width=".04" d="M35.93 18.7c-.9.32-1.92.27-2.83.6a3.98 3.98 0 0 0-2.27 2.13c-.28.72-.36 1.7.04 2.38.72 1.26 2.61 1.6 3.9 1.22 1.26-.4 2.37-1.54 3.18-2.55.33-.41.61-.85 1.01-1.22.23-.21.55-.54.95-.58.66-.07-.92-.7-1.26-.75a1.8 1.8 0 0 0-1.29.22c-.68.4-1.14 1.24-1.93 1.5-.38.12-.68.06-.9-.26-.35-.48-.08-.85.34-1.25"/>
  <path fill="#000" d="M32.26 20.53s1.27 1.02 2.71.6c1.45-.43 1.66-1.89 2.52-2.22a1.8 1.8 0 0 0-.52-.25"/>
  <path stroke="#000" stroke-miterlimit="10" stroke-width=".04" d="M32.26 20.53s1.27 1.02 2.71.6c1.45-.43 1.66-1.89 2.52-2.22a1.8 1.8 0 0 0-.52-.25M18.4 25.17c-.53-.37-.96-.71-1.6-.86-.8-.17-1.6-.14-2.4-.27-.22-.04-.9-.14-.7-.47.15-.23.77-.15.99-.14.74.02 1.55.12 2.3.2"/>
  <path stroke="#000" stroke-miterlimit="10" stroke-width=".05" d="M13.72 23.55c-.34-.26.1-.5.35-.55.27-.06.6-.02.87 0 .65.02 1.3.13 1.96.14.22 0 .38.05.6.06"/>
  <path stroke="#000" stroke-miterlimit="10" stroke-width=".04" d="M13.72 23.16c-.08-.73 1.77-.6 2.17-.57.43.02.86.15 1.3.19.33.03.53.04.86.1"/>
  <path stroke="#000" stroke-miterlimit="10" stroke-width=".05" d="M14.48 22.61c.15-.35 1.1-.37 1.64-.31.48.05.87.1 1.42.18.34.06.66.09 1 .14.43.06.78.23 1.2.23"/>
  <path stroke="#000" stroke-miterlimit="10" stroke-width=".04" d="M19.73 23.43c-.11-.32 0-.6.17-.85.06-.07.1-.1.12-.2.04-.22.02-.43.28-.55.16-.08.56-.05.67.12.08.12.02.33.06.49.04.14.1.27.16.4.1.31.11.83.06 1.14"/>
  <path stroke="#000" stroke-miterlimit="10" stroke-width=".05" d="M16.8 23.84c.34-.5.99-.82 1.5-1.1m-.54 1.24a7.9 7.9 0 0 1 1.66-.41"/>
  <path stroke="#000" stroke-linejoin="round" stroke-miterlimit="10" stroke-width=".04" d="m23.69 35.64.9-3.49c.64-2.27.58-2.36 1.63-4.48a38.32 38.32 0 0 1 2.92-4.82"/>
  <path fill="#000" d="M40.6 38.67v-2.52c0-2.26-.13-4.43-.42-6.66 0 0 .15 4.88 0 5.13s-.1.73.09 1.13c.19.4.06.67-.09 1.14-.15.47.1 1.15-.09 1.78"/>
  <path stroke="#000" stroke-linejoin="round" stroke-miterlimit="10" stroke-width=".04" d="M24.2 29.88c.05.25.23.5.36.72.13.23.2.49.3.73"/>
  <path stroke="#000" stroke-linejoin="round" stroke-miterlimit="10" stroke-width=".05" d="M18.74 26.06c.49 0 .94 0 1.4-.17m-.76.64c-.22-.04-.4-.1-.6-.21m5.55 3.95c.15.05.36.08.49.19"/>
  <path stroke="#000" stroke-miterlimit="10" stroke-width=".04" d="M39.2 21.04s1.36-.06 1.9.42c.54.48 1.79 1.54 2.21 2.53.43 1 .82.8 1.1 2 .29 1.17.74 3.77.94 5.5.2 1.73-.48 2.27-.11 2.2.37-.1.56-.16.4.2-.18.32-.1 1.07.06 1.86.16.8.25 2.88.25 2.88"/>
  <path fill="#fff" d="M31.1 14.3c.34-2.78.48-5.63 1.08-8.38.2-.85.43-1.7.94-2.43.2-.3.64-.55 1.06-.4 1 .36.48 1.99.26 3.13a32.28 32.28 0 0 0-.68 6.58"/>
  <path stroke="#000" stroke-miterlimit="10" stroke-width=".04" d="M31.1 14.3c.34-2.78.48-5.63 1.08-8.38.2-.85.43-1.7.94-2.43.2-.3.64-.55 1.06-.4 1 .36.48 1.99.26 3.13a32.28 32.28 0 0 0-.68 6.58"/>
  <path fill="#fff" d="M35.75 11.74c-2.04-.74-4.26.42-4.65 2.2-.27 1.19-.38 2.1-.37 3.34.01 1.14.22 1.97.98 2.8.54.59 1.31.84 2.06.86 2.3.05 3.82-2.29 4.3-4.37.63-2.7.9-5.54 1.29-8.28.16-1.1.3-2.19.37-3.3.04-.7.13-1.5-.19-2.17-.37-.8-1.3-.54-1.7.04-.42.62-.58 1.5-.77 2.21-.2.77-.37 1.54-.52 2.32l-.58 3.05-.3 1.7"/>
  <path stroke="#000" stroke-miterlimit="10" stroke-width=".04" d="M35.75 11.74c-2.04-.74-4.26.42-4.65 2.2-.27 1.19-.38 2.1-.37 3.34.01 1.14.22 1.97.98 2.8.54.59 1.31.84 2.06.86 2.3.05 3.82-2.29 4.3-4.37.63-2.7.9-5.54 1.29-8.28.16-1.1.3-2.19.37-3.3.04-.7.13-1.5-.19-2.17-.37-.8-1.3-.54-1.7.04-.42.62-.58 1.5-.77 2.21-.2.77-.37 1.54-.52 2.32l-.58 3.05-.3 1.7"/>
  <path fill="#000" d="M32.2 16.17c-.17.69 1.01.53.73-.11-.16-.35-.63-.28-.73.11Z"/>
  <path stroke="#000" stroke-miterlimit="10" stroke-width=".04" d="M32.2 16.17c-.17.69 1 .53.73-.11-.16-.35-.63-.28-.73.11Z" clip-rule="evenodd"/>
  <path stroke="#000" stroke-miterlimit="10" stroke-width=".04" d="M32.2 16.17c-.17.69 1 .53.73-.11-.16-.35-.63-.28-.73.11Z" clip-rule="evenodd"/>
  <path stroke="#000" stroke-miterlimit="10" stroke-width=".04" d="M35.38 16.63c-1.07.79-2.4.97-2.97.5 0 0-.75.62-1.81-.31m7.3-13.48c.1-.24.28-.53.58-.5.36.02.32.63.3.87-.03.33-.16.7-.3.97-.17.34-.2.5-.08.82.1.3-.03.49-.1.76s.1.44.1.7c.01.41-.13.79-.2 1.2-.1.53-.3 1.07-.37 1.62-.03.22 0 .22.1.38.08.12.13.15.09.3-.06.26-.28.45-.32.72-.05.3.16.52-.12.72-.19.13-.28.17-.06.32l-.2.1c0 .05.03.03.05.04"/>
  <path stroke="#000" stroke-miterlimit="10" stroke-width=".05" d="M36.8 12.17c.41.14.78.31 1.1.6"/>
  <path stroke="#000" stroke-miterlimit="10" stroke-width=".04" d="M33.03 4.01c.11-.26.49-.6.76-.4.26.2.14.48-.02.69-.17.22-.46.37-.33.66.07.17.1.26.06.46l-.2.7c-.16.6-.25 1.15-.22 1.77.01.33.02.59-.14.87-.13.21-.38.6-.27.87.06.19.23.22.2.47 0 .13-.08.25-.15.36-.04.07-.2.26-.17.36.03.16.26.15.24.36-.03.25-.42.28-.4.53.07.02.14 0 .2.03-.09.14-.36.1-.5.17l.1.2c0 .06-.06.08-.08.14l-.01.1"/>
  <path stroke="#000" stroke-linejoin="round" stroke-miterlimit="10" stroke-width=".04" d="M35.33 26.99s.45.04 1.17 0c.73-.04 2.34 0 2.34 0m-6.77-6.5a3 3 0 0 0 2.78 1.45c2.02-.05 5-2.36 2.99-1.68"/>
  <path fill="#000" stroke="#000" stroke-linejoin="round" stroke-miterlimit="10" stroke-width=".04" d="M31.66 14.3c-.22 0-.37-.52 0-.59.37-.07 0 .6 0 .6v-.01Zm2.94.3c-.23 0-.38-.52 0-.59.37-.07 0 .6 0 .6v-.01Z"/>
  <path fill="#F4EED8" stroke="#000" stroke-miterlimit="10" stroke-width=".05" d="m21.95 20.79-9.59-.75V5.77l9.59.74V20.8v-.01Z"/>
  <path stroke="#000" stroke-miterlimit="10" stroke-width=".05" d="m13.02 9.08 8.27.64M19.52 7.3l1.78.13m-1.78.2 1.78.14m-1.78.19 1.78.14m-8.28 1.96 8.27.64m-8.27.33 8.27.65m-8.27.33 8.27.64m-8.27.34 8.27.64m-8.27.34 8.27.64m-8.27.33 8.27.64m-8.27.34 8.27.64m-8.27.34 8.27.64m-8.27.33 6.72.53"/>
</svg>
