<svg xmlns="http://www.w3.org/2000/svg" fill="none" viewBox="0 0 138 42">
  <rect width="138" height="42" fill="#fff" rx="4"/>
  <path fill="#10B981" d="M35.586 35.145H23.484v-9.672l1.927-1.927a.712.712 0 1 0-1.007-1.006l-.92.92v-4.393l4.062-4.063a.712.712 0 0 0-1.006-1.007l-3.056 3.056v-4.688a.712.712 0 0 0-1.424 0v8.96l-3.056-3.056a.712.712 0 1 0-1.007 1.006l4.063 4.063v11.807H9.958a.712.712 0 0 0 0 1.424h25.628a.712.712 0 0 0 0-1.424Z"/>
  <path fill="#10B981" d="M16.365 25.89H18.5a.712.712 0 0 0 0-1.423h-2.136a5.702 5.702 0 0 1-5.695-5.695 5.702 5.702 0 0 1 5.695-5.695.712.712 0 0 0 .712-.712 5.702 5.702 0 0 1 5.695-5.695 5.702 5.702 0 0 1 5.695 5.695c0 .393.319.712.712.712a5.702 5.702 0 0 1 5.695 5.695 5.702 5.702 0 0 1-5.695 5.695h-2.136a.712.712 0 0 0 0 1.424h2.136a7.127 7.127 0 0 0 7.119-7.12c0-3.695-2.832-6.742-6.44-7.086-.343-3.607-3.39-6.439-7.086-6.439s-6.743 2.832-7.087 6.44c-3.607.343-6.439 3.39-6.439 7.086a7.127 7.127 0 0 0 7.119 7.119Z"/>
  <path fill="#000" d="M50.89 26.427c-3.281 0-5.775-1.576-6.26-4.361l2.882-.67c.259 1.76 1.651 2.71 3.486 2.71 1.447 0 2.7-.616 2.688-2.138-.021-1.608-1.846-2.094-3.821-2.666-2.321-.69-4.728-1.49-4.728-4.34 0-2.87 2.353-4.425 5.354-4.425 2.71 0 5.333 1.122 5.937 3.961l-2.699.67c-.323-1.598-1.522-2.321-3.087-2.321-1.393 0-2.677.594-2.677 2.062 0 1.349 1.608 1.78 3.443 2.299 2.375.69 5.171 1.544 5.171 4.631 0 3.228-2.71 4.588-5.689 4.588Zm13.267-.011c-3.335 0-5.731-2.278-5.731-5.689 0-3.4 2.396-5.667 5.731-5.667 2.656 0 4.675 1.403 5.247 3.886l-2.494.302c-.4-1.36-1.425-2.04-2.774-2.04-1.77 0-3.023 1.403-3.023 3.519 0 2.127 1.252 3.52 3.023 3.52 1.35 0 2.375-.68 2.774-2.041l2.494.302c-.572 2.494-2.645 3.908-5.246 3.908Zm9.025-13.084c-.885 0-1.62-.723-1.62-1.608 0-.896.735-1.608 1.62-1.608a1.62 1.62 0 0 1 1.608 1.608c0 .885-.744 1.608-1.608 1.608ZM71.8 26.211V15.276h2.71V26.21H71.8ZM84.128 15.06c2.86 0 5.214 2.137 5.214 5.7 0 3.562-2.353 5.7-5.214 5.7-1.511 0-2.85-.659-3.509-1.782v6.92h-2.698V15.276h2.569l.075 1.663c.637-1.188 1.998-1.879 3.563-1.879Zm-.594 9.143c1.717 0 3.11-1.295 3.11-3.444 0-2.148-1.393-3.432-3.11-3.432-1.76 0-3.13 1.403-3.13 3.432 0 2.04 1.37 3.444 3.13 3.444Zm10.946-7.135c.54-1.037 1.965-1.911 3.541-1.922v2.44c-2.256 0-3.422.766-3.422 3.13v5.495h-2.71V15.276h2.591v1.792Zm15.545 3.497-.043.67h-8.248c.108 2.04 1.447 3.033 3.045 3.033 1.176 0 2.115-.583 2.59-1.63l2.462.4c-.745 2.136-2.667 3.389-5.031 3.389-3.422 0-5.71-2.095-5.71-5.678 0-3.595 2.353-5.7 5.624-5.7 3.044 0 5.289 1.749 5.311 5.516Zm-5.3-3.573c-1.512 0-2.591.766-2.904 2.44h5.527c-.151-1.62-1.198-2.44-2.623-2.44Zm11.572 9.435c-2.407 0-4.253-1.004-4.631-3.044l2.278-.648c.302 1.23 1.187 1.77 2.353 1.77.853 0 1.77-.291 1.759-1.284-.021-1.21-1.651-1.339-3.4-1.933-1.371-.453-2.709-1.122-2.709-3 0-2.214 1.835-3.218 4.145-3.218 2.083 0 3.832.82 4.221 2.883l-2.105.486c-.303-1.112-1.123-1.533-2.105-1.533-.864 0-1.684.334-1.684 1.155 0 .982 1.273 1.187 2.666 1.554 1.695.454 3.562 1.134 3.562 3.455 0 2.45-2.062 3.357-4.35 3.357Zm10.546 0c-2.407 0-4.253-1.004-4.631-3.044l2.278-.648c.302 1.23 1.188 1.77 2.353 1.77.853 0 1.771-.291 1.76-1.284-.022-1.21-1.652-1.339-3.4-1.933-1.371-.453-2.71-1.122-2.71-3 0-2.214 1.835-3.218 4.145-3.218 2.084 0 3.833.82 4.221 2.883l-2.105.486c-.302-1.112-1.122-1.533-2.105-1.533-.863 0-1.684.334-1.684 1.155 0 .982 1.274 1.187 2.667 1.554 1.694.454 3.562 1.134 3.562 3.455 0 2.45-2.062 3.357-4.351 3.357Z"/>
</svg>
