<svg xmlns="http://www.w3.org/2000/svg" width="138" height="42" fill="none" viewBox="0 0 138 42">
  <path fill="#fff" fill-rule="evenodd" d="M138 4a4 4 0 0 0-4-4H4a4 4 0 0 0-4 4v34a4 4 0 0 0 4 4h130a4 4 0 0 0 4-4z" clip-rule="evenodd"/>
  <path fill="url(#a)" fill-rule="evenodd" d="M16 27.6a6.6 6.6 0 0 0 5.5-10.4l4.3-4.3c.3-.3.1-1-.4-1a29 29 0 0 1-4.8-1.4h-.1l-.6-.3A11.4 11.4 0 0 0 5.1 24.5c.2.6 1 .9 1.5.6q.7-.6.5-1.4a9.3 9.3 0 0 1 14.6-10l-2 1.8q-1.6-1-3.7-1.1a6.6 6.6 0 0 0-5.4 10.4L6.3 29c-.4.3-.2 1 .3 1a29 29 0 0 1 4.8 1.4h.1l.6.3a11 11 0 0 0 12-2.7 11 11 0 0 0 2.8-11.6c-.2-.6-1-.9-1.5-.6q-.6.6-.5 1.4a9.3 9.3 0 0 1-14.6 10l2-1.8q1.6 1 3.7 1.1m4.4-6.6a4.5 4.5 0 0 1-6.7 4l6.2-6.1q.5.9.5 2.1m-9 0a4.5 4.5 0 0 1 6.8-3.9L12 23.3q-.6-1-.6-2.3" clip-rule="evenodd"/>
  <path fill="url(#b)" d="M57.7 19.3q3.5.1 3.5 4 0 3.6-3.5 3.8-2.3 0-2.8-1.9h-.3l.2 1.4v3.7h-1.4V19.5h1.4l-.2 1.7h.3q.6-1.9 2.8-1.9m16.6 7.4h.3l2-7.2h1.5l-2.5 8.3q-.4 2-2.4 2.2l-2.2.2v-1.4h2.5q.5.1.5-.4l.5-1.5H73l-2.2-7.4h1.4zm-26-7.4q3.3 0 3.3 3.7H46c0 1.7.5 3 2.5 3q2 0 2-2.1H52q-.4 3.1-3.5 3.2-3.8-.1-3.9-3.9 0-3.7 3.7-3.9m46.1-3q4 0 4.4 4.2h-1.5q-.2-3-3-3-3 0-3 4.2t3.3 4.2q3 0 3.2-3h1.4q-.3 4.3-4.6 4.2-4.7 0-4.7-5.4t4.5-5.4m16 3q3.6.1 3.8 4-.2 3.6-3.9 3.8-3.7-.1-3.8-3.9.1-3.7 3.8-3.9m6.4 4.6q0 2 2 2 2.3-.2 2.3-2.4v-4h1.4v5.8q-.1.6.4.4l.9-.1v1.3h-.8q-1.6 0-1.7-1.6h-.3q-.5 1.8-2.6 1.8-2.9 0-2.8-3v-4.6h1.5zm15.6 1.4q-.1.6.4.4l.9-.1v1.3h-.8q-1.7-.1-1.8-1.7h-.3q-.4 1.9-2.8 2-3.4-.2-3.5-4 .1-3.7 3.5-3.9 2.4 0 2.8 2h.3l-.1-1.4v-4h1.4zm-89-5.7L36 25.4v.3h7.8v1.2h-8v-3l7.5-5.8v-.3H36v-1.2h7.4zm21 .3L64 21h.3q.5-1.8 2.7-1.8 2.8 0 2.7 3v4.6h-1.5l.3-4.4q0-2-2-2-2.3.1-2.3 2.5v4H63V15.7h1.4zM80.5 21h.3q.4-1.7 2.2-1.6h1.3V21l-1.6-.2q-2 0-2 2.3v4h-1.5v-7.5h1.4zm20.9-5.3q2 0 2 2v8h2.2v1.1h-6v-1.2h2.4v-8.4q.1-.6-.5-.4l-1.4.3v-1.4zm8.8 4.7q-2.4 0-2.4 2.7t2.4 2.7q2.4 0 2.5-2.7 0-2.6-2.5-2.7m-52.8 0q-2.6 0-2.6 2.7.1 2.6 2.6 2.7 2.3 0 2.3-2.7 0-2.6-2.3-2.7m70.8 0q-2.4 0-2.4 2.7 0 2.6 2.4 2.7 2.7 0 2.6-2.7-.1-2.6-2.6-2.7m-80 0q-1.8 0-2.1 1.5h4q0-1.4-1.9-1.5"/>
  <defs>
    <linearGradient id="a" x1="4.6" x2="27.4" y1="21" y2="21" gradientUnits="userSpaceOnUse">
      <stop stop-color="#010101"/>
      <stop offset="1" stop-color="#949494"/>
    </linearGradient>
    <linearGradient id="b" x1="35.7" x2="133.7" y1="23.1" y2="23.1" gradientUnits="userSpaceOnUse">
      <stop stop-color="#010101"/>
      <stop offset="1" stop-color="#646464"/>
    </linearGradient>
  </defs>
</svg>
