<svg
  xmlns="http://www.w3.org/2000/svg"
  width="24"
  height="24"
  viewBox="0 0 24 24"
  fill="none"
  stroke="currentColor"
  stroke-width="2"
  stroke-linecap="round"
  stroke-linejoin="round"
>
  <path d="M16.5 15L16.7579 15.697C17.0961 16.611 17.2652 17.068 17.5986 17.4014C17.932 17.7348 18.389 17.9039 19.303 18.2421L20 18.5L19.303 18.7579C18.389 19.0961 17.932 19.2652 17.5986 19.5986C17.2652 19.932 17.0961 20.389 16.7579 21.303L16.5 22L16.2421 21.303C15.9039 20.389 15.7348 19.932 15.4014 19.5986C15.068 19.2652 14.611 19.0961 13.697 18.7579L13 18.5L13.697 18.2421C14.611 17.9039 15.068 17.7348 15.4014 17.4014C15.7348 17.068 15.9039 16.611 16.2421 15.697L16.5 15Z" />
  <path d="M20 15V4C20 2.89543 19.1046 2 18 2H6C4.89543 2 4 2.89543 4 4V20C4 21.1046 4.89543 22 6 22H13" />
  <path d="M4 19V18C4 16.8954 4.89543 16 6 16H12" />
  <path d="M8 10L12 10" />
  <path d="M8 6H16" />
</svg>
