<svg
  xmlns="http://www.w3.org/2000/svg"
  width="24"
  height="24"
  viewBox="0 0 24 24"
  fill="none"
  stroke="currentColor"
  stroke-width="2"
  stroke-linecap="round"
  stroke-linejoin="round"
>
  <circle cx="7" cy="18" r="2" stroke="#000" stroke-width="2" />
  <circle cx="17" cy="18" r="2" stroke="#000" stroke-width="2" />
  <path stroke="#000" stroke-linecap="round" stroke-linejoin="round" stroke-width="2"
    d="M9 18h5M8 9v4m2-2H6M5 18H3a1 1 0 0 1-1-1V7c0-1.1.9-2 2-2h8a2 2 0 0 1 2 2v11M19 18h2a1 1 0 0 0 1-1v-3.28a1 1 0 0 0-.68-.95l-2-.66a1 1 0 0 1-.51-.4L17.3 9.45a1 1 0 0 0-.84-.45H14" />
</svg>