<svg
  xmlns="http://www.w3.org/2000/svg"
  width="24"
  height="24"
  viewBox="0 0 24 24"
  fill="none"
  stroke="currentColor"
  stroke-width="2"
  stroke-linecap="round"
  stroke-linejoin="round"
>
  <path d="M10 10H6" />
  <path d="M14 18V6a2 2 0 0 0-2-2H4a2 2 0 0 0-2 2v11a1 1 0 0 0 1 1h2" />
  <path d="M19 18h2a1 1 0 0 0 1-1v-3.28a1 1 0 0 0-.68-.95l-2-.66a1 1 0 0 1-.51-.4L17.3 9.45a1 1 0 0 0-.84-.45H14" />
  <path d="M8 8v4" />
  <path d="M9 18h6" />
  <circle cx="17" cy="18" r="2" />
  <circle cx="7" cy="18" r="2" />
</svg>