<svg
  xmlns="http://www.w3.org/2000/svg"
  width="24"
  height="24"
  viewBox="0 0 24 24"
  fill="none"
  stroke="currentColor"
  stroke-width="2"
  stroke-linecap="round"
  stroke-linejoin="round"
>
  <path d="M13 12h3" />
  <path d="M14.5 12c0 4.4-3.6 8-8 8A4.5 4.5 0 0 1 2 15.5c0-6 8-4 8-8.5a3 3 0 1 0-6 0c0 3 2.5 8.5 12 13" />
  <path d="M15.84 8.004A3 3 0 0 0 16 7a3 3 0 0 0-2.652-2.98" />
  <path d="M19.837 18.894A39 39 0 0 0 22 20" />
  <path d="M20 12h2" />
  <path d="M20.5 12a8 8 0 0 1-1.805 5.047" />
</svg>
