<svg
  xmlns="http://www.w3.org/2000/svg"
  width="24"
  height="24"
  viewBox="0 0 24 24"
  fill="none"
  stroke="currentColor"
  stroke-width="2"
  stroke-linecap="round"
  stroke-linejoin="round"
>
  <path d="m2 10 2.456-3.684a.67.67 0 0 1 1.106-.013l2.39 3.413a.67.67 0 0 0 1.097 0l2.402-3.432a.67.67 0 0 1 1.098 0l2.402 3.432a.67.67 0 0 0 1.098 0l2.389-3.413a.67.67 0 0 1 1.106.013L22 10" />
  <path d="m2 18.5 2.456-3.684a.67.67 0 0 1 1.106-.013l2.39 3.413a.67.67 0 0 0 1.097 0l2.402-3.432a.67.67 0 0 1 1.098 0l2.402 3.432a.67.67 0 0 0 1.098 0l2.389-3.413a.67.67 0 0 1 1.106.013L22 18.5" />
</svg>
