<svg
  xmlns="http://www.w3.org/2000/svg"
  width="24"
  height="24"
  viewBox="0 0 24 24"
  fill="none"
  stroke="currentColor"
  stroke-width="2"
  stroke-linecap="round"
  stroke-linejoin="round"
>
  <path d="m12 8 2 2" />
  <path d="M21 3c-.8-.8-3-1.2-5.8-.9s-6 1.6-8.8 4.4A15.34 15.34 0 0 0 2 15.3c-.4 2.8.1 5 .9 5.8s3 1.2 5.8.9 6-1.6 8.8-4.4a15.34 15.34 0 0 0 4.4-8.8c.4-2.8-.1-5-.9-5.8" />
  <path d="M3 21C6.349 12.044 14 9 21 3" />
  <path d="m7.1 11.9 2 2" />
  <path d="m9.5 10 2 2" />
</svg>
