<svg
  xmlns="http://www.w3.org/2000/svg"
  width="24"
  height="24"
  viewBox="0 0 24 24"
  fill="none"
  stroke="currentColor"
  stroke-width="2"
  stroke-linecap="round"
  stroke-linejoin="round"
>
  <path d="M 12 2 C7.5 2 8.5 7 7.5 9" />
  <path d="M 12 22 C15.25 22 19 20 19 15.5" />
  <path d="M 16.5 9 C15.5 7 16.5 2 12 2" />
  <path d="M 19 15.5 C19 13 18 11.5 16.5 9" />
  <path d="M 5 15.5 C5 20 8.75 22 12 22" />
  <path d="M 7.5 9 C6.5 11 5 12.5 5 15.5" />
  <path d="M15 15c0 2.31-2.5 3.753-4.5 2.598A3 3 0 0 1 9 15c0-1.657 1.343-3.75 3-3.75s3 2.093 3 3.75" />
</svg>
