<svg
  xmlns="http://www.w3.org/2000/svg"
  width="24"
  height="24"
  viewBox="0 0 24 24"
  fill="none"
  stroke="currentColor"
  stroke-width="2"
  stroke-linecap="round"
  stroke-linejoin="round"
>
  <path d="M16.043 6.142s1.767-1.63 2.086-2.115c.32-.486.596-.698.894-1.227" />
  <path d="M21.572 7.085a4 4 0 0 0-1.938-2.4c-.44-.237-.938.04-1.013.535-.108.716-.128 1.704.183 2.697.31.989 1.191 1.83 1.996 2.4.53.377 1.191.03 1.176-.62a10.5 10.5 0 0 0-.404-2.612" />
  <path d="M8.493 11.795c1.584 0 2.974 1.387 2.974 3.23 0 1.844-1.39 3.23-2.974 3.23s-2.973-1.386-2.973-3.23c0-1.843 1.389-3.23 2.973-3.23" />
  <path d="M9.09 7.728c-1.988 1.058-3.478 1.586-4.968 3.173-.993 1.057-1.987 3.172-1.49 5.287.344 1.464 1.07 2.77 1.987 3.702.993 1.057 2.884 1.69 5.265 1.057 2.374-.632 3.47-2.011 4.172-3.701.473-1.138.39-2.416.994-3.701.993-2.115 1.291-2.115 1.788-3.702.496-1.586-.601-3.298-1.292-3.701-2.753-1.61-3.973 0-6.457 1.586" />
</svg>