<svg
  xmlns="http://www.w3.org/2000/svg"
  width="24"
  height="24"
  viewBox="0 0 24 24"
  fill="none"
  stroke="currentColor"
  stroke-width="2"
  stroke-linecap="round"
  stroke-linejoin="round"
>
  <path d="M20.224 12.526c-.586-3.121-.878-4.682-1.99-5.604C17.125 6 15.537 6 12.362 6h-.722c-3.175 0-4.763 0-5.874.922s-1.403 2.483-1.989 5.604c-.822 4.389-1.234 6.583-.034 8.029S7.174 22 11.639 22h.722c4.465 0 6.698 0 7.897-1.445.696-.84.85-1.93.696-3.555" />
  <path d="M9 6V5a3 3 0 1 1 6 0v1" />
</svg>
