<svg
  xmlns="http://www.w3.org/2000/svg"
  width="24"
  height="24"
  viewBox="0 0 24 24"
  fill="none"
  stroke="currentColor"
  stroke-width="2"
  stroke-linecap="round"
  stroke-linejoin="round"
>
  <path d="M 12.491 17.705 C12.491 18.907 13.278 19.741 14.61 19.741" />
  <path d="M 12.5 16.227 C11.442 16.227 9.972 15.419 8.697 13.768" />
  <path d="M 12.5 16.227 L 12.491 17.705" />
  <path d="M 12.5 2 C15.827 2 18.428 4.561 18.428 7.606" />
  <path d="M 12.5 6.119 C13.457 6.281 14.34 6.929 14.502 8.107" />
  <path d="M 14.61 19.741 C15.168 19.741 16.291 19.741 16.655 19.741" />
  <path d="M 16.303 13.764 C15.028 15.419 13.555 16.227 12.5 16.227" />
  <path d="M 16.655 19.741 C17.905 19.741 18.484 20.606 18.484 21.644" />
  <path d="M 18.428 7.606 C18.409 9.835 17.663 11.997 16.303 13.764" />
  <path d="M 18.484 21.644 L 18.484 22.098" />
  <path d="M 6.572 7.606 C6.572 4.561 9.173 2 12.5 2" />
  <path d="M 8.697 13.768 C7.456 12.161 6.572 9.96 6.572 7.606" />
</svg>
