<svg
  xmlns="http://www.w3.org/2000/svg"
  width="24"
  height="24"
  viewBox="0 0 24 24"
  fill="none"
  stroke="currentColor"
  stroke-width="2"
  stroke-linecap="round"
  stroke-linejoin="round"
>
  <path d="M12 16V16.6C12 18 13 19 14.4 19H15.6C17 19 18 20 18 21.4V22" />
  <path d="M12 6C13 6 14 7 14 8" />
  <path d="M15.8492 13.5763C14.5587 15.2049 13.0678 16 12 16C10.9292 16 9.4413 15.2049 8.15081 13.5802C6.89474 11.9989 6 9.83299 6 7.51655C6 4.52014 8.63259 2 12 2C15.3674 2 18 4.52014 18 7.51655C17.9806 9.71024 17.2255 11.8379 15.8492 13.5763" />
</svg>
