<svg
  xmlns="http://www.w3.org/2000/svg"
  width="24"
  height="24"
  viewBox="0 0 24 24"
  fill="none"
  stroke="currentColor"
  stroke-width="2"
  stroke-linecap="round"
  stroke-linejoin="round"
>
   <path d="M5.36598 1C6.49999 1.00002 7.38831 1.38437 8.03093 2.15304C8.71134 2.89101 9.08934 3.90568 9.16495 5.19707V8.87347C9.16495 9.51763 9.68715 10.0398 10.3313 10.0398H10.3528C10.6111 10.0398 10.8614 10.1302 11.0601 10.2953C11.8571 10.9574 11.3889 12.2537 10.3528 12.2537H10.2933C9.67015 12.2537 9.16495 12.7589 9.16495 13.3821V18.5262C9.16494 19.0182 9.39174 19.464 9.84536 19.8637C10.299 20.2635 11.0361 20.4633 12.0567 20.4633C13.3797 20.4633 14.7783 19.8637 16.2526 18.6646C17.501 17.6491 18.2597 16.6127 18.529 15.5553C18.6183 15.2046 18.3147 14.9042 17.9536 14.9287C15.5343 14.9287 14.3247 13.8833 14.3247 11.7925C14.3247 11.0853 14.6082 10.4549 15.1753 9.90147C15.7423 9.34803 16.6873 9.0713 18.0103 9.07128C19.4089 9.0713 20.5807 9.56326 21.5258 10.5472C22.5086 11.5311 23 12.7303 23 14.1447C23 16.2355 21.9038 18.2341 19.7113 20.1405C17.5567 22.0468 14.9862 23 12 23C10.9038 23 9.73195 22.6157 8.48453 21.847C7.42695 21.148 6.74501 20.4726 6.43871 19.8206C6.35403 19.6404 6.3299 19.4396 6.3299 19.2405V14.2444C6.3299 13.1449 5.43863 12.2537 4.33919 12.2537H4.01468C3.75229 12.2537 3.49843 12.1605 3.29838 11.9907C2.51287 11.3239 2.98436 10.0398 4.01468 10.0398H4.89847C5.68903 10.0398 6.3299 9.39896 6.3299 8.60841V5.65828C6.32989 4.76662 5.66838 4.24391 4.34536 4.09015C3.67496 4.09017 2.81948 3.86846 2.50111 3.27848C2.4299 3.1465 2.35965 3.00981 2.29036 2.86841C2.22354 2.73202 2.19072 2.58165 2.19072 2.42977C2.19072 2.03007 2.56873 1.69185 3.32474 1.4151C4.08075 1.13839 4.76116 1.00002 5.36598 1Z" />
</svg>
