<svg
  xmlns="http://www.w3.org/2000/svg"
  width="24"
  height="24"
  viewBox="0 0 24 24"
  fill="none"
  stroke="currentColor"
  stroke-width="2"
  stroke-linecap="round"
  stroke-linejoin="round"
>
  <path d="M10 12V9a1 1 0 0 1 1-1h2a1 1 0 0 1 1 1v3" />
  <path d="M11.106 2.447a2 2 0 0 1 1.788 0L19.26 5.63a2 2 0 0 1 1.003 1.156l1.3 3.898a1 1 0 0 1-.95 1.316H3.388a1 1 0 0 1-.948-1.316l1.299-3.898A2 2 0 0 1 4.741 5.63z" />
  <path d="M21 12v8a2 2 0 0 1-2 2H5a2 2 0 0 1-2-2v-8" />
  <path d="m7 22 10-10v10L7 12z" />
</svg>
