<svg
  xmlns="http://www.w3.org/2000/svg"
  width="24"
  height="24"
  viewBox="0 0 24 24"
  fill="none"
  stroke="currentColor"
  stroke-width="2"
  stroke-linecap="round"
  stroke-linejoin="round"
>
  <path d="M6 14H18"/>
  <path d="M8 14V20.382C8 21.125 8.782 21.609 9.447 21.276L9.553 21.224C9.834 21.083 10.166 21.083 10.447 21.224L11.553 21.776C11.834 21.917 12.166 21.917 12.447 21.776L13.553 21.224C13.834 21.083 14.166 21.083 14.447 21.224L14.553 21.276C15.218 21.609 16 21.125 16 20.382V14"/>
  <path d="M4 18L3.106 17.553C2.428 17.214 2 16.522 2 15.764V7.354C2 6.536 2.498 5.801 3.257 5.497L11.257 2.297C11.734 2.106 12.266 2.106 12.743 2.297L20.743 5.497C21.502 5.801 22 6.536 22 7.354V15.764C22 16.522 21.572 17.214 20.894 17.553L20 18"/>
  <path d="M15 10V9C15 8.448 14.552 8 14 8H10C9.448 8 9 8.448 9 9V10"/>
</svg>