<svg
  xmlns="http://www.w3.org/2000/svg"
  width="24"
  height="24"
  viewBox="0 0 24 24"
  fill="none"
  stroke="currentColor"
  stroke-width="2"
  stroke-linecap="round"
  stroke-linejoin="round"
>
  <path d="M6 14H18"/>
  <path d="M8 14V20.382C8 21.1253 8.78231 21.6088 9.44721 21.2764L9.55279 21.2236C9.83431 21.0828 10.1657 21.0828 10.4472 21.2236L11.5528 21.7764C11.8343 21.9172 12.1657 21.9172 12.4472 21.7764L13.5528 21.2236C13.8343 21.0828 14.1657 21.0828 14.4472 21.2236L14.5528 21.2764C15.2177 21.6088 16 21.1253 16 20.382V14"/>
  <path d="M4 18L3.10557 17.5528C2.428 17.214 2 16.5215 2 15.7639V7.35407C2 6.53626 2.4979 5.80084 3.25722 5.49711L11.2572 2.29711C11.734 2.10638 12.266 2.10638 12.7428 2.29711L20.7428 5.49711C21.5021 5.80084 22 6.53626 22 7.35407V15.7639C22 16.5215 21.572 17.214 20.8944 17.5528L20 18"/>
  <path d="M15 10V9C15 8.44772 14.5523 8 14 8H10C9.44772 8 9 8.44772 9 9V10"/>
</svg>
