<svg
  xmlns="http://www.w3.org/2000/svg"
  width="24"
  height="24"
  viewBox="0 0 24 24"
  fill="none"
  stroke="currentColor"
  stroke-width="2"
  stroke-linecap="round"
  stroke-linejoin="round"
>
  <path d="m10.165 6.598-.973-.232.973.232Zm-3.8 2.594A7.002 7.002 0 0 0 1 16h2a5.002 5.002 0 0 1 3.831-4.863l-.465-1.945ZM1 16a7 7 0 0 0 7 7v-2a5 5 0 0 1-5-5H1Zm7 7c8.284 0 15-6.716 15-15h-2c0 7.18-5.82 13-13 13v2ZM23 8a7 7 0 0 0-7-7v2a5 5 0 0 1 5 5h2Zm-7-7a7.002 7.002 0 0 0-6.808 5.366l1.945.465A5.002 5.002 0 0 1 16 3V1ZM8.293 8.293c-.438.438-1.091.699-1.927.9l.465 1.944c.925-.221 2.033-.587 2.876-1.43L8.293 8.293Zm1.414 1.414c.843-.843 1.209-1.95 1.43-2.876l-1.945-.465c-.2.836-.461 1.49-.9 1.927l1.415 1.414Z" />
  <path d="M5.341 10.62a4 4 0 1 0 5.279-5.28" />
</svg>
