<svg
  xmlns="http://www.w3.org/2000/svg"
  width="24"
  height="24"
  viewBox="0 0 24 24"
  fill="none"
  stroke="currentColor"
  stroke-width="2"
  stroke-linecap="round"
  stroke-linejoin="round"
>
  <path d="m6 7 .5.5" />
  <path d="m18 7-.5.5" />
  <path d="M20.8 4.2c-1.6-1.6-4.1-1.6-5.7 0l-1 1a13.6 13.6 0 0 0-4.2 0l-1-1a4 4 0 0 0-5.8 5.55A7 7 0 0 0 2 13.5C2 18.2 6.5 22 12 22s10-3.8 10-8.5a7 7 0 0 0-1.1-3.8c1.5-1.6 1.5-4-.1-5.5" />
  <path d="M10 12v-.5" />
  <path d="M14 12v-.5" />
  <path d="M14 16h-4" />
  <path d="M12 16v2" />
</svg>
