<svg
  xmlns="http://www.w3.org/2000/svg"
  width="24"
  height="24"
  viewBox="0 0 24 24"
  fill="none"
  stroke="currentColor"
  stroke-width="2"
  stroke-linecap="round"
  stroke-linejoin="round"
>
  <path d="m6 6 .5.5" />
  <path d="m18 6-.5.5" />
  <path d="M20.8 3.2c-1.6-1.6-4.1-1.6-5.7 0l-1 1a14.92 14.92 0 0 0-4.2 0l-1-1a4 4 0 0 0-5.7 5.6A7.87 7.87 0 0 0 2 13c0 5 4.5 9 10 9s10-4 10-9a7.87 7.87 0 0 0-1.2-4.2c1.6-1.6 1.6-4.1 0-5.6" />
  <path d="M10 12h.01" />
  <path d="M14 12h.01" />
  <path d="M14 16h-4" />
  <path d="M12 16v2" />
</svg>
