<svg
  xmlns="http://www.w3.org/2000/svg"
  width="24"
  height="24"
  viewBox="0 0 24 24"
  fill="none"
  stroke="currentColor"
  stroke-width="2"
  stroke-linecap="round"
  stroke-linejoin="round"
>
  <path d="m8 2 1.88 1.88" />
  <path d="M14.1 3.88 16 2" />
  <path d="M9 7V6a3 3 0 1 1 6 0v1" />
  <path d="M5 7a3 3 0 1 0 2.2 5.1C9 10 12 7 12 7s3 3 4.8 5.1A3 3 0 1 0 19 7Z" />
  <path d="M7.4 12h9.2" />
  <path d="M6.9 17h10.2" />
  <path d="M8.1 11.1c-2.1 2.1-2.1 5.6 0 7.8 0 0 1.9 2.1 3.9 3.1 2-1 3.9-3.1 3.9-3.1 2.1-2.1 2.1-5.6 0-7.8" />
</svg>
