<svg
  xmlns="http://www.w3.org/2000/svg"
  width="24"
  height="24"
  viewBox="0 0 24 24"
  fill="none"
  stroke="currentColor"
  stroke-width="2"
  stroke-linecap="round"
  stroke-linejoin="round"
>
  <path d="m8 2 1.88 1.88" />
  <path d="M14.12 3.88 16 2" />
  <path d="M9 7V6a3 3 0 1 1 6 0v1" />
  <path d="M5 7a3 3 0 1 0 2.2 5.1C9.1 10 12 7 12 7s2.9 3 4.8 5.1A3 3 0 1 0 19 7Z" />
  <path d="M7.56 12h8.87" />
  <path d="M7.5 17h9" />
  <path d="M15.5 10.7c.9.9 1.4 2.1 1.5 3.3 0 5.8-5 8-5 8s-5-2.2-5-8c.1-1.2.6-2.4 1.5-3.3" />
</svg>
