<svg
  xmlns="http://www.w3.org/2000/svg"
  width="24"
  height="24"
  viewBox="0 0 24 24"
  fill="none"
  stroke="currentColor"
  stroke-width="2"
  stroke-linecap="round"
  stroke-linejoin="round"
>
<circle cx="12.5" cy="8.5" r="2.5"/>
<path d="M12.5 2a6.503 6.503 0 0 0-6.22 4.606C5.188 9.73 5.5 10.5 3.1 12.678A3 3 0 0 0 5 18c4 0 8.405-1.803 11.405-4.303A6.5 6.5 0 0 0 12.5 2Z"/>
<path d="m18.5 6 2.186 4.5a6.48 6.48 0 0 1 .314 2 6.49 6.49 0 0 1-2.595 5.197C15.405 20.197 11 22 7 22a3 3 0 0 1-2.684-1.658L2.4 16.5"/>
</svg>
