<svg
  xmlns="http://www.w3.org/2000/svg"
  width="24"
  height="24"
  viewBox="0 0 24 24"
  fill="none"
  stroke="currentColor"
  stroke-width="2"
  stroke-linecap="round"
  stroke-linejoin="round"
>
 <path d="M5.204 12.65c2.815-1.07.643-5.715 4.06-8.59 2.482-2.088 6.511-1.529 8.487 1.515 1.976 3.044 1.719 8.591-4.967 11.556-4.531 2.009-7.858 1.37-8.933-.284-1.076-1.653-.511-3.487 1.353-4.197Z"/>
 <path d="m4.017 17.102 2.35 2.824c1.076 1.66 4.563 2.628 8.934.281 6.716-3.605 6.947-8.548 4.972-11.603l-3.256-4.002"/>
 <path d="M10.684 8.667a2 2 0 1 1 3.986.34 2 2 0 0 1-3.986-.34Z"/>
</svg>
