<svg
  xmlns="http://www.w3.org/2000/svg"
  width="24"
  height="24"
  viewBox="0 0 24 24"
  fill="none"
  stroke="currentColor"
  stroke-width="2"
  stroke-linecap="round"
  stroke-linejoin="round"
>
  <path d="m8 2 1.88 1.88" />
  <path d="M14.12 3.88 16 2" />
  <path d="M9 7.13V6a3 3 0 1 1 6 0v1.13" />
  <path d="M12 20c-3.3 0-6-2.7-6-6v-3a4 4 0 0 1 4-4h4a4 4 0 0 1 4 4v3c0 3.3-2.7 6-6 6" />
  <path d="M12 20v-9" />
  <path d="M5 4.8C3.2 6.2 2 8.5 2 11h20c0-2.5-1.2-4.8-3-6.2" />
  <path d="M6.08 15h-4c.2 2.4 1.25 4.4 2.8 6" />
  <path d="M19.1 21a9 9.4 0 0 0 2.82-6h-4" />
</svg>
