<svg
  xmlns="http://www.w3.org/2000/svg"
  width="24"
  height="24"
  viewBox="0 0 24 24"
  fill="none"
  stroke="currentColor"
  stroke-width="2"
  stroke-linecap="round"
  stroke-linejoin="round"
>
  <path d="M7.3 9H3c-.6 0-1-.4-1-1V4c0-.6.4-1 1-1h4.3" />
  <path d="M6 6h3" />
  <path d="M13 6h.01" />
  <rect width="10" height="8" x="7" y="2" rx="2" />
  <path d="M16.7 3H21c.6 0 1 .4 1 1v4c0 .6-.4 1-1 1h-4.3" />
  <path d="m10.5 10-8.1 6.2" />
  <path d="M21.6 8.8 12.2 16" />
  <path d="M3 22c-.6 0-1-.4-1-1v-4c0-.6.4-1 1-1h16l3 3-3 3Z" />
</svg>
