<svg
  xmlns="http://www.w3.org/2000/svg"
  width="24"
  height="24"
  viewBox="0 0 24 24"
  fill="none"
  stroke="currentColor"
  stroke-width="2"
  stroke-linecap="round"
  stroke-linejoin="round"
>
  <path d="M8 14a2 2 0 0 0-1.963 1.615l-1.018 5.193A1 1 0 0 0 6 22h12a1 1 0 0 0 .981-1.192l-1.018-5.193A2 2 0 0 0 16 14z" />
  <path d="m16 14 3-12" />
  <path d="m6 2 2 12" />
  <path d="M7.104 8.624A5 5 0 0 0 12 8a5 5 0 0 1 5.572-.288" />
  <path d="M21 2H4a2 2 0 0 0-2 2v5a2 2 0 0 0 1 1.732" />
  <path d="M12 18h.01" />
</svg>
