<svg
  xmlns="http://www.w3.org/2000/svg"
  width="24"
  height="24"
  viewBox="0 0 24 24"
  fill="none"
  stroke="currentColor"
  stroke-width="2"
  stroke-linecap="round"
  stroke-linejoin="round"
>
  <path d="M17.03 9.97c.39-.39 1.02-.36 1.53-.15A2.5 2.5 0 0 0 22 7.5 2.5 2.5 0 0 0 19.5 5a.52.52 0 0 1-.5-.5 2.5 2.5 0 1 0-4.82.94c.21.51.24 1.14-.15 1.53l-7.06 7.06c-.39.39-1.02.36-1.53.15A2.5 2.5 0 0 0 2 16.5 2.5 2.5 0 0 0 4.5 19c.26 0 .5.24.5.5a2.5 2.5 0 1 0 4.82-.94c-.21-.51-.24-1.14.15-1.53l7.06-7.06Z" />
</svg>
