<svg
  xmlns="http://www.w3.org/2000/svg"
  width="24"
  height="24"
  viewBox="0 0 24 24"
  fill="none"
  stroke="currentColor"
  stroke-width="2"
  stroke-linecap="round"
  stroke-linejoin="round"
>
  <path d="m15.85 12.46-.85-.38" />
  <path d="m15.85 14.54-.85.38" />
  <path d="m17.46 10.85-.38-.85" />
  <path d="m17.46 16.15-.38.85" />
  <path d="m19 22-7-4.94L5 22V4.37a2.412 2.412 0 0 1 .68-1.67A2.3 2.3 0 0 1 7.33 2h9.34A2.318 2.318 0 0 1 19 4.37V7" />
  <path d="m19.92 10-.38.85" />
  <path d="m19.92 17-.38-.85" />
  <path d="m22 12.08-.85.38" />
  <path d="m22 14.92-.85-.38" />
  <circle cx="18.5" cy="13.5" r="2.84" />
</svg>