<svg xmlns="http://www.w3.org/2000/svg" width="24" height="24" viewBox="0 0 24 24" fill="none" stroke="currentColor" stroke-width="2" stroke-linecap="round" stroke-linejoin="round">
  <path d="M12 6.5a2.5 2.5 0 1 0 0-5 2.5 2.5 0 0 0 0 5z"/>
  <path d="M20 6.5a2.5 2.5 0 1 0 0-5 2.5 2.5 0 0 0 0 5z"/>
  <path d="M4 6.5a2.5 2.5 0 1 0 0-5 2.5 2.5 0 0 0 0 5z"/>
  <path d="M12 22.5a2.5 2.5 0 1 0 0-5 2.5 2.5 0 0 0 0 5z"/>
  <path d="M20 22.5a2.5 2.5 0 1 0 0-5 2.5 2.5 0 0 0 0 5z"/>
  <path d="M4 22.5a2.5 2.5 0 1 0 0-5 2.5 2.5 0 0 0 0 5z"/>
  <path d="M5 4v16"/>
  <path d="M19 4v16"/>
  <path d="M5 12h14"/>
</svg>
