<svg
  xmlns="http://www.w3.org/2000/svg"
  width="24"
  height="24"
  viewBox="0 0 24 24"
  fill="none"
  stroke="currentColor"
  stroke-width="2"
  stroke-linecap="round"
  stroke-linejoin="round"
>
  <path d="m15.85 11.46-.85-.38" />
  <path d="m15.85 13.54-.85.38" />
  <path d="m17.46 15.15-.38.85" />
  <path d="M17.46 9.85 17.08 9" />
  <path d="m19 21-7-4-7 4V5a2 2 0 0 1 2-2h10a2 2 0 0 1 2 2v1" />
  <path d="m19.92 16-.38-.85" />
  <path d="m19.92 9-.38.85" />
  <path d="m22 11.08-.85.38" />
  <path d="m22 13.92-.85-.38" />
  <circle cx="18.5" cy="12.5" r="2.84" />
</svg>