<svg
  xmlns="http://www.w3.org/2000/svg"
  width="24"
  height="24"
  viewBox="0 0 24 24"
  fill="none"
  stroke="currentColor"
  stroke-width="2"
  stroke-linecap="round"
  stroke-linejoin="round"
>
  <path d="m19 22-7-4.94L5 22V4.37c0-.62.25-1.23.68-1.67A2.3 2.3 0 0 1 7.33 2h9.34c.62 0 1.2.25 1.65.7.43.44.68 1.05.68 1.67V7"/>
  <path d="M18.5 16.34a2.84 2.84 0 1 0 0-5.68 2.84 2.84 0 0 0 0 5.68ZM19.92 10l-.38.85m-2.08 5.3-.38.85M22 14.92l-.85-.38m-5.3-2.08-.85-.38m7 0-.85.38m-5.3 2.08-.85.38M19.92 17l-.38-.85m-2.08-5.3-.38-.85"/>
</svg>