<svg
  xmlns="http://www.w3.org/2000/svg"
  width="24"
  height="24"
  viewBox="0 0 24 24"
  fill="none"
  stroke="currentColor"
  stroke-width="2"
  stroke-linecap="round"
  stroke-linejoin="round"
>
  <path d="M20 11c1.1-1.4 1.3-3.3.7-4.9l.8-.8a1.5 1.5 0 0 0-2.8-2.8l-.8.8A5.33 5.33 0 0 0 13 4" />
  <path d="M11.3 3.7a1 1 0 0 1 1.4 0l7.6 7.6a1 1 0 0 1 0 1.4l-1.6 1.6a1 1 0 0 1-1.4 0L9.7 6.7a1 1 0 0 1 0-1.4Z" />
  <path d="m10 7-7.3 7.3c-.9.9-.9 2.5 0 3.4l3.6 3.6c.9.9 2.5.9 3.4 0L17 14" />
  <path d="m4 13 2 2" />
  <path d="m7 10 2 2" />
</svg>
