<svg
  xmlns="http://www.w3.org/2000/svg"
  width="24"
  height="24"
  viewBox="0 0 24 24"
  fill="none"
  stroke="currentColor"
  stroke-width="2"
  stroke-linecap="round"
  stroke-linejoin="round"
>
  <path d="M8 2h.01" />
  <path d="M12 3h.01" />
  <path d="m19 8-3-3" />
  <path d="M9.7 21.3a2.4 2.4 0 0 1-3.4 0l-3.6-3.6a2.41 2.41 0 0 1 0-3.4l6.27-6.27A3.5 3.5 0 0 1 11.45 7h1.1a3.5 3.5 0 0 0 2.47-1.03l3.62-3.61a1.21 1.21 0 0 1 1.72 0l1.28 1.28a1.2 1.2 0 0 1 0 1.72l-3.62 3.61A3.5 3.5 0 0 0 17 11.45v1.1a3.5 3.5 0 0 1-1.03 2.48Z" />
  <path d="m9.06 8 3.23 3.24a1 1 0 0 1 0 1.41L8.65 16.3a1 1 0 0 1-1.41 0L4 13.06" />
  <path d="M21 12h.01" />
  <path d="M22 16h.01" />
</svg>
