<svg
  xmlns="http://www.w3.org/2000/svg"
  width="24"
  height="24"
  viewBox="0 0 24 24"
  fill="none"
  stroke="currentColor"
  stroke-width="2"
  stroke-linecap="round"
  stroke-linejoin="round"
>
  <path d="M10 6.1V3c0-.6.4-1 1-1h2c.6 0 1 .4 1 1v3.1" />
  <path d="M16.3 11.5c.4-.4.7-.9.7-1.5a4 4 0 0 0-4-4h-2a4 4 0 0 0-4 4c0 .6.3 1.1.7 1.5a2.13 2.13 0 0 0 0 3 2.13 2.13 0 0 0 0 3c-.4.4-.7.9-.7 1.5v1a2 2 0 0 0 2 2h6a2 2 0 0 0 2-2v-1c0-.6-.3-1.1-.7-1.5a2.13 2.13 0 0 0 0-3 2.13 2.13 0 0 0 0-3" />
</svg>
