<svg
  xmlns="http://www.w3.org/2000/svg"
  width="24"
  height="24"
  viewBox="0 0 24 24"
  fill="none"
  stroke="currentColor"
  stroke-width="2"
  stroke-linecap="round"
  stroke-linejoin="round"
>
  <path d="M9 2h.01" />
  <path d="M13 3h.01" />
  <path d="M15.1 5.9c-.4.4-1.2.7-1.7.7h-1c-1.1 0-2.6.6-3.4 1.4l-6.3 6.3c-.9.9-.9 2.5 0 3.4l3.6 3.6c.9.9 2.5.9 3.4 0L16 15c.8-.8 1.4-2.3 1.4-3.4v-1c0-.6.3-1.3.7-1.7l3.2-3.2a1 1 0 0 0 0-1.4l-1.6-1.6a1 1 0 0 0-1.4 0Z" />
  <path d="m19.2 7.8-3-3" />
  <path d="M21 11h.01" />
  <path d="M22 15h.01" />
</svg>
