<svg
  xmlns="http://www.w3.org/2000/svg"
  width="24"
  height="24"
  viewBox="0 0 24 24"
  fill="none"
  stroke="currentColor"
  stroke-width="2"
  stroke-linecap="round"
  stroke-linejoin="round"
>
  <path d="M13.833 5.784h-3.394" />
  <path d="M16.096 18.568a2 2 0 0 1-1.924 1.923H10.1a2 2 0 0 1-1.923-1.923v-7.094a2.8 2.8 0 0 1 .82-1.985l.622-.622a2.8 2.8 0 0 0 .815-1.98l.006-4.09a1 1 0 0 1 .973-.973h1.448a1 1 0 0 1 .973.973l-.006 4.09a2.8 2.8 0 0 0 .826 1.98l.622.622a2.8 2.8 0 0 1 .82 1.986z" />
  <path d="m8.21 11.407 3.66.005a.8.8 0 0 1 .797.798l.006 4.124a.8.8 0 0 1-.798.797H8.21" />
</svg>
