<svg
  xmlns="http://www.w3.org/2000/svg"
  width="24"
  height="24"
  viewBox="0 0 24 24"
  fill="none"
  stroke="currentColor"
  stroke-width="2"
  stroke-linecap="round"
  stroke-linejoin="round"
>
  <path d="M8 2h.01" />
  <path d="M12 3h.01" />
  <path d="m19 8-3-3" />
  <path d="M17 12c0 1.2-.4 2.3-1.3 3.2l-6.3 6.2c-.8.8-2 .8-2.8 0l-4-4c-.8-.8-.8-2 0-2.8l6.2-6.3c.9-.9 2-1.3 3.2-1.3 1.1 0 2.6-.6 3.4-1.4l3.3-3.3a1 1 0 0 1 1.4 0l1.6 1.6a1 1 0 0 1 0 1.4l-3.3 3.3c-.8.8-1.4 2.3-1.4 3.4" />
  <path d="M9.1 8.1 13 12l-5 5-3.9-3.9" />
  <path d="M21 12h.01" />
  <path d="M22 16h.01" />
</svg>
