<svg
  xmlns="http://www.w3.org/2000/svg"
  width="24"
  height="24"
  viewBox="0 0 24 24"
  fill="none"
  stroke="currentColor"
  stroke-width="2"
  stroke-linecap="round"
  stroke-linejoin="round"
>
  <path d="M8.5 4.5C8.5 6 8 6 8 9c0 2.5 2 4.5 2 7 0 2.6-2 6-2 6H3.9S2 18.6 2 16c0-2.5 2-4.5 2-7 0-3-.5-3-.5-4.5a2.5 2.5 0 0 1 5 0" />
  <path d="M4 9h4" />
  <path d="M20.5 4.5C20.5 6 20 6 20 9c0 2.5 2 4.5 2 7 0 2.6-2 6-2 6h-4.1S14 18.6 14 16c0-2.5 2-4.5 2-7 0-3-.5-3-.5-4.5a2.5 2.5 0 0 1 5 0" />
  <path d="M16 9h4" />
</svg>
