<svg
  xmlns="http://www.w3.org/2000/svg"
  width="24"
  height="24"
  viewBox="0 0 24 24"
  fill="none"
  stroke="currentColor"
  stroke-width="2"
  stroke-linecap="round"
  stroke-linejoin="round"
>
  <path d="M12 4C6.5 4 2 6.2 2 9c0 2.4 3.4 4.4 8 4.9 1.1.1 2 1 2 2.1v3a2 2 0 0 0 4 0v-3.4c0-1.1.9-2.2 1.9-2.6 2.5-.9 4.1-2.4 4.1-4 0-2.8-4.5-5-10-5" />
  <path d="M2 9c0 5.5 4.5 10 10 10" />
  <path d="M16 18.2c3.5-1.5 6-5.1 6-9.2" />
  <path d="M16 15.6c0-2.6 3-2.6 3-4.6 0-1.7-3.1-3-7-3s-7 1.3-7 3c0 1.4 2.1 2.5 5 2.9" />
</svg>
