<svg
  xmlns="http://www.w3.org/2000/svg"
  width="24"
  height="24"
  viewBox="0 0 24 24"
  fill="none"
  stroke="currentColor"
  stroke-width="2"
  stroke-linecap="round"
  stroke-linejoin="round"
>
  <path d="M8.5 4.5a2.5 2.5 0 0 0-5 0C3.5 6 4 6 4 9c0 2-2 4-2 7 0 1 1 6 3 6h2c2 0 3-5 3-6 0-3-2-5-2-7 0-3 .5-3 .5-4.5" />
  <path d="M4 9h4" />
  <path d="M20.5 4.5a2.5 2.5 0 0 0-5 0C15.5 6 16 6 16 9c0 2-2 4-2 7 0 1 1 6 3 6h2c2 0 3-5 3-6 0-3-2-5-2-7 0-3 .5-3 .5-4.5" />
  <path d="M16 9h4" />
</svg>
