<svg
  xmlns="http://www.w3.org/2000/svg"
  width="24"
  height="24"
  viewBox="0 0 24 24"
  fill="none"
  stroke="currentColor"
  stroke-width="2"
  stroke-linecap="round"
  stroke-linejoin="round"
>
  <path d="M20.5 4.5a2.5 2.5 0 0 0-5 0C15.5 6 16 6 16 9c0 2-2 4-2 7 0 1 1 6 3 6h2c2 0 3-5 3-6 0-3-2-5-2-7 0-3 .5-3 .5-4.5" />
  <path d="M16 9h4" />
  <path d="M11.7 6.2c-.6-.1-1.1-.2-1.7-.2a8 8 0 0 0 0 16c.5 0 1-.1 1.5-.1" />
  <path d="M9 10h.01" />
  <path d="M6 13h.01" />
  <path d="M10 14h.01" />
</svg>
