<svg
  xmlns="http://www.w3.org/2000/svg"
  width="24"
  height="24"
  viewBox="0 0 24 24"
  fill="none"
  stroke="currentColor"
  stroke-width="2"
  stroke-linecap="round"
  stroke-linejoin="round"
>
  <path d="M14.5 3.1 13 2.3a1.82 1.82 0 0 0-2 0l-1.5.8" />
  <path d="M21 10V8c0-.7-.4-1.4-1-1.7l-1.5-.9" />
  <path d="m18.5 18.6 1.5-.9c.6-.4 1-1 1-1.7v-2" />
  <path d="m9.5 20.9 1.5.9a1.82 1.82 0 0 0 2 0l1.5-.9" />
  <path d="M3 14v2c0 .7.4 1.4 1 1.7l1.5.9" />
  <path d="M5.5 5.4 4 6.3c-.6.3-1 1-1 1.7v2" />
  <path d="m3.3 7 2.2 1.3" />
  <path d="M9.5 10.6 12 12l2.5-1.4" />
  <path d="M18.5 8.3 20.7 7" />
  <path d="M12 15v-3" />
  <path d="M12 22v-3" />
</svg>
