<svg
  xmlns="http://www.w3.org/2000/svg"
  width="24"
  height="24"
  viewBox="0 0 24 24"
  fill="none"
  stroke="currentColor"
  stroke-width="2"
  stroke-linecap="round"
  stroke-linejoin="round"
>
  <path d="M14.5 3.13 13 2.27a2 2 0 0 0-2 0l-1.5.86" />
  <path d="M21 10V8c0-.73-.4-1.4-1-1.73l-1.57-.9" />
  <path d="m18.8 18.415 1.2-.684c.6-.35 1-1 1-1.7v-2" />
  <path d="m9.5 20.87 1.5.86a2 2 0 0 0 2 0l1.5-.86" />
  <path d="M3 14v2c0 .73.4 1.38 1 1.73l1.5.86" />
  <path d="M5.52 5.4 4 6.27c-.6.35-1 1-1 1.7v2" />
  <path d="m3.3 7 2.3 1.32" />
  <path d="M9.5 10.56 12 12l2.5-1.44" />
  <path d="M18.44 8.3 20.7 7" />
  <path d="M12 15v-3" />
  <path d="M12 22v-3" />
</svg>
