<svg
  xmlns="http://www.w3.org/2000/svg"
  width="24"
  height="24"
  viewBox="0 0 24 24"
  fill="none"
  stroke="currentColor"
  stroke-width="2"
  stroke-linecap="round"
  stroke-linejoin="round"
>
  <path d="M8 4.4a2 2 0 0 0-1 1.73v4.37l-4 2.4a2 2 0 0 0-1 1.73v3.27a2 2 0 0 0 .97 1.68L6 21.4a2 2 0 0 0 2.03-.02L12 19l4 2.4a2 2 0 0 0 2.03-.02L21 19.6a2 2 0 0 0 1-1.73V14.6a2 2 0 0 0-.97-1.68L17 10.5V6.1a2 2 0 0 0-.97-1.68L13 2.6a2 2 0 0 0-2.03.02Z" />
  <path d="M16.75 5.15 12 8 7.25 5.15" />
  <path d="M12 8v11" />
  <path d="m7 10.5 10 6" />
  <path d="M17 21.65V16.5l4.75-2.85" />
  <path d="m17 10.5-10 6" />
  <path d="M7 21.65V16.5l-4.75-2.85" />
</svg>
