<svg
  xmlns="http://www.w3.org/2000/svg"
  width="24"
  height="24"
  viewBox="0 0 24 24"
  fill="none"
  stroke="currentColor"
  stroke-width="2"
  stroke-linecap="round"
  stroke-linejoin="round"
>
  <path d="M8 4.42a2 2 0 0 0-1 1.71v4.37l-4 2.42a2 2 0 0 0-1 1.71v3.24a2 2 0 0 0 .97 1.71L6 21.38a2 2 0 0 0 2.03 0L12 19l4 2.38a2 2 0 0 0 2.03 0l2.97-1.8a2 2 0 0 0 1-1.71v-3.24a2 2 0 0 0-.97-1.71L17 10.5V6.13a2 2 0 0 0-.97-1.71L13 2.62a2 2 0 0 0-2.03 0Z" />
  <path d="M7 21.67V16.5l-4.74-2.85" />
  <path d="M17 21.67V16.5l4.74-2.85" />
  <path d="M16.74 5.15 12 8 7.26 5.15" />
  <path d="m17 10.5-10 6" />
  <path d="m7 10.5 10 6" />
  <path d="M12 8v11" />
</svg>