<svg
  xmlns="http://www.w3.org/2000/svg"
  width="24"
  height="24"
  viewBox="0 0 24 24"
  fill="none"
  stroke="currentColor"
  stroke-width="2"
  stroke-linecap="round"
  stroke-linejoin="round"
>
  <path d="M 12 5 A3 3 0 0 0 8 2.166" />
  <path d="M 12 6.5 L 12 5" />
  <path d="M 17.598 6.5 A3 3 0 1 0 12 5" />
  <path d="M11.166 11.5A4.17 4.17 0 0 1 9 13" />
  <path d="M12 18v-6" />
  <path d="M17.997 5.125a4 4 0 0 1 2.526 5.77" />
  <path d="M19.088 20.538A4 4 0 0 1 12 18a4 4 0 1 1-7.967-.517" />
  <path d="m2 2 20 20" />
  <path d="M21.695 16c.228-.85.337-2.717 0-3.53A4 4 0 0 0 20 10.535" />
  <path d="M4.407 5.952a4 4 0 0 0-.93 4.943" />
  <path d="M6 18a4 4 0 0 1-2-7.464" />
</svg>
