<svg
  xmlns="http://www.w3.org/2000/svg"
  width="24"
  height="24"
  viewBox="0 0 24 24"
  fill="none"
  stroke="currentColor"
  stroke-width="2"
  stroke-linecap="round"
  stroke-linejoin="round"
>
  <circle cx="12" cy="12" r="3" />
  <path d="M12 4.5a2.5 2.5 0 0 0-4.96-.46 2.5 2.5 0 0 0-1.98 3 2.5 2.5 0 0 0-1.32 4.24 3 3 0 0 0 .34 5.58 2.5 2.5 0 0 0 2.96 3.08A2.5 2.5 0 0 0 12 19.5a2.5 2.5 0 0 0 4.96.44 2.5 2.5 0 0 0 2.96-3.08 3 3 0 0 0 .34-5.58 2.5 2.5 0 0 0-1.32-4.24 2.5 2.5 0 0 0-1.98-3A2.5 2.5 0 0 0 12 4.5" />
  <path d="m15.7 10.4-.9.4" />
  <path d="m9.2 13.2-.9.4" />
  <path d="m13.6 15.7-.4-.9" />
  <path d="m10.8 9.2-.4-.9" />
  <path d="m15.7 13.5-.9-.4" />
  <path d="m9.2 10.9-.9-.4" />
  <path d="m10.5 15.7.4-.9" />
  <path d="m13.1 9.2.4-.9" />
</svg>
