<svg
  xmlns="http://www.w3.org/2000/svg"
  width="24"
  height="24"
  viewBox="0 0 24 24"
  fill="none"
  stroke="currentColor"
  stroke-width="2"
  stroke-linecap="round"
  stroke-linejoin="round"
>
  <circle cx="12" cy="12" r="2" />
  <path d="M12 4.5a2.5 2.5 0 0 0-4.96-.46 2.5 2.5 0 0 0-1.98 3 2.5 2.5 0 0 0-1.32 4.24 3 3 0 0 0 .34 5.58 2.5 2.5 0 0 0 2.96 3.08A2.5 2.5 0 0 0 12 19.5a2.5 2.5 0 0 0 4.96.44 2.5 2.5 0 0 0 2.96-3.08 3 3 0 0 0 .34-5.58 2.5 2.5 0 0 0-1.32-4.24 2.5 2.5 0 0 0-1.98-3A2.5 2.5 0 0 0 12 4.5" />
  <path d="M12 4.5V5" />
  <path d="M12 19.5V19" />
  <path d="M12 9v1" />
  <path d="M12 14v1" />
  <path d="m14.6 10.5-.87.5" />
  <path d="m10.27 13-.87.5" />
  <path d="m14.6 13.5-.87-.5" />
  <path d="m10.27 11-.87-.5" />
</svg>