<svg
  xmlns="http://www.w3.org/2000/svg"
  width="24"
  height="24"
  viewBox="0 0 24 24"
  fill="none"
  stroke="currentColor"
  stroke-width="2"
  stroke-linecap="round"
  stroke-linejoin="round"
>
  <path d="M12 2a3 3 0 0 1 2.99 2.776A3 3 0 0 1 20 7a3 3 0 0 1-.777 2.009A3 3 0 0 1 22 12a3 3 0 0 1-2.777 2.99A3 3 0 0 1 17 20a3 3 0 0 1-2.624-1.547 3.5 3.5 0 0 1-5.335-3.495 3.5 3.5 0 0 1-3.495-5.335A3 3 0 0 1 7 4a3 3 0 0 1 2.009.776A3 3 0 0 1 12 2" />
  <path d="M5.77 13.69c-.859 1.609-1.975 3.101-3.477 4.603a1 1 0 0 0 0 1.414l2 2a1 1 0 0 0 1.414 0c1.501-1.501 2.993-2.62 4.602-3.479" />
</svg>
