<svg
  xmlns="http://www.w3.org/2000/svg"
  width="24"
  height="24"
  viewBox="0 0 24 24"
  fill="none"
  stroke="currentColor"
  stroke-width="2"
  stroke-linecap="round"
  stroke-linejoin="round"
>
  <path d="M12 2a3 3 0 0 1 2.895 2.21 3 3 0 0 1 3.895 3.896 3 3 0 0 1-1.119 5.876 3.5 3.5 0 0 1-5.672.966 3.48 3.48 0 0 1-5.671-.966A3 3 0 0 1 5.21 8.105 3 3 0 0 1 9.106 4.21 3 3 0 0 1 12 2" />
  <path d="M9.5 16a12.5 12.5 0 0 1 .5 3.5V21a1 1 0 0 0 1 1h2a1 1 0 0 0 1-1v-1.5a12.5 12.5 0 0 1 .5-3.5" />
</svg>
