<svg
  xmlns="http://www.w3.org/2000/svg"
  width="24"
  height="24"
  viewBox="0 0 24 24"
  fill="none"
  stroke="currentColor"
  stroke-width="2"
  stroke-linecap="round"
  stroke-linejoin="round"
>
  <path d="m15 19-.5-2.5" />
  <path d="m19 17.5-1.5-2" />
  <path d="M19 4.5a1 1 0 1 0-5 0c0 .81.7 1.8 0 2.5l-2 2 2.5.5 1 2L17 10c.7-.7 1.69 0 2.5 0a1 1 0 1 0 0-5 .5.5 0 0 1-.5-.5" />
  <path d="M21.5 14 19 13" />
  <path d="M4.5 14a1 1 0 0 0 0 5 .495.495 0 0 1 .5.5 1 1 0 1 0 5 0c0-.81-.7-1.8 0-2.5l3.5-3.5H11L10 11l-3 3c-.7.7-1.69 0-2.5 0" />
  <path d="M6.5 9.5 4 8.5" />
  <path d="m7.5 7.5-2-2" />
  <path d="m9.5 6-1-2.5" />
</svg>
