<svg
  xmlns="http://www.w3.org/2000/svg"
  width="24"
  height="24"
  viewBox="0 0 24 24"
  fill="none"
  stroke="currentColor"
  stroke-width="2"
  stroke-linecap="round"
  stroke-linejoin="round"
>
  <path d="m8 2 1.88 1.88" />
  <path d="M14.12 3.88 16 2" />
  <path d="M9 7.13v-1a3.003 3.003 0 1 1 6 0v1" />
  <path d="M12 11v9c-3.3 0-6-2.7-6-6v-3a4 4 0 0 1 4-4h4a4 4 0 0 1 4 4v1.5" />
  <path d="M6.53 9C4.6 8.8 3 7.1 3 5" />
  <path d="M6 13H2" />
  <path d="M3 21c0-2.1 1.7-3.9 3.8-4" />
  <path d="M20.97 5c0 2.1-1.6 3.8-3.5 4" />
  <path d="m16 21 5-5" />
  <path d="m16 16 5 5" />
</svg>
