<svg
  xmlns="http://www.w3.org/2000/svg"
  width="24"
  height="24"
  viewBox="0 0 24 24"
  fill="none"
  stroke="currentColor"
  stroke-width="2"
  stroke-linecap="round"
  stroke-linejoin="round"
>
  <path d="M12 5.269c1.454 0 2.539-.605 3.343 0 1.047.785 1.619 2.913 1.911 3.875 1.91 6.298-.443 5.301-.505 7.751.632.646.942 1.259.942 2.422 0 1.453-2.348 3.391-5.691 2.422" />
  <path d="M12 5.269c-1.453 0-2.539-.605-3.343 0-1.047.785-1.619 2.913-1.911 3.875-1.91 6.298.443 5.301.505 7.751-.632.646-.942 1.259-.942 2.422 0 1.453 2.348 3.391 5.691 2.422" />
  <path d="M8 5.5C4.5 5 6.5 2 6.5 2-1 5.5 3 13 5.5 12" />
  <path d="M16 5.5C19.5 5 17.5 2 17.5 2c7.5 3.5 3.5 11 1 10" />
  <path d="M10 12v.5" />
  <path d="M14 12v.5" />
  <path d="M7 17c.866-1.333 8.701-1.333 10 0" />
  <path d="M10 19h.01" />
  <path d="M14 19h.01" />
</svg>
