<svg 
  xmlns="http://www.w3.org/2000/svg"
  width="24"
  height="24"
  viewBox="0 0 24 24"
  fill="none"
  stroke="currentColor"
  stroke-width="2"
  stroke-linecap="round"
  stroke-linejoin="round"
>
  <path d="M17 9h2c.275 0 .554.004.82.07.268.068.521.2.716.394.195.195.326.448.393.715.067.267.071.546.071.821v11M3 22v-8c0-.275.004-.554.07-.82.068-.268.2-.521.394-.716.195-.195.448-.326.715-.393.267-.067.546-.071.821-.071h2m3 6h4m-4-4h4m-4-4h4m-4-4h4M7 22V4c0-.275.004-.554.07-.82.068-.268.2-.521.394-.716.195-.195.448-.326.715-.393C8.446 2.004 8.725 2 9 2h6c.275 0 .554.004.82.07.268.068.521.2.716.394.195.195.326.448.393.715.067.267.071.546.071.821v18M2 22h20"/>
</svg>
