<svg 
    xmlns="http://www.w3.org/2000/svg"
    width="24"
    height="24"
    viewBox="0 0 24 24"
    fill="none"
    stroke="currentColor"
    stroke-width="2"
    stroke-linecap="round"
    stroke-linejoin="round"
>
  <path d="m21 11.5v-5.55c0-1.1-0.895-2-2-2h-14c-1.1 0-2 0.895-2 2v14c0 1.1 0.895 2 2 2h7.11"/>
  <path d="m16 2v4"/>
  <path d="m8 2v4"/>
  <path d="m3 10h18"/>
  <path d="m19.5 14.3-0.4 0.9"/>
  <path d="m16.9 20.8-0.4 0.9"/>
  <path d="m21.7 19.5-0.9-0.4"/>
  <path d="m15.2 16.9-0.9-0.4"/>
  <path d="m21.7 16.5-0.9 0.4"/>
  <path d="m15.2 19.1-0.9 0.4"/>
  <path d="m19.5 21.7-0.4-0.9"/>
  <path d="m16.9 15.2-0.4-0.9"/>
  <circle cx="18" cy="18" r="3"/>
</svg>
