<svg
  xmlns="http://www.w3.org/2000/svg"
  width="24"
  height="24"
  viewBox="0 0 24 24"
  fill="none"
  stroke="currentColor"
  stroke-width="2"
  stroke-linecap="round"
  stroke-linejoin="round"
>
  <path d="m 12,13.500048 1.535,-1.605 a 5,5 0 0 1 8,1.5" />
  <path d="m 12,9.500048 v 4 h 4" />
  <path d="m 22,17.500048 -1.535,1.605 a 5,5 0 0 1 -8,-1.5" />
  <path d="m 22,21.500048 v -4 h -4" />
  <path d="M16 2v4" />
  <path d="M21 7.5V6a2 2 0 0 0-2-2H5a2 2 0 0 0-2 2v14a2 2 0 0 0 2 2h3.5" />
  <path d="M3 10h5" />
  <path d="M8 2v4" />
</svg>
