<svg
  xmlns="http://www.w3.org/2000/svg"
  width="24"
  height="24"
  viewBox="0 0 24 24"
  fill="none"
  stroke="currentColor"
  stroke-width="2"
  stroke-linecap="round"
  stroke-linejoin="round"
>
  <path d="m2 2 20 20" />
  <path d="m8.5 8.5-1 1a4.95 4.95 0 0 0 7 7l1-1" />
  <path d="M11.843 6.187a4.947 4.947 0 0 1 5.97 5.97" />
  <path d="M14 16.5V14" />
  <path d="M14 6.5v1.843" />
  <path d="M10 10v7.5" />
  <path d="m16 7 1-5 1.367.683A3 3 0 0 0 19.708 3H21v1.3a3 3 0 0 0 .317 1.333L22 7l-5 1" />
  <path d="m8 17-1 5-1.367-.7a3 3 0 0 0-1.341-.3H3v-1.292a3 3 0 0 0-.317-1.341L2 17l5-1" />
</svg>