<svg
  xmlns="http://www.w3.org/2000/svg"
  width="24"
  height="24"
  viewBox="0 0 24 24"
  fill="none"
  stroke="currentColor"
  stroke-width="2"
  stroke-linecap="round"
  stroke-linejoin="round"
>
  <path d="M9.5 7.5a4.95 4.95 0 1 1 7 7l-2 2a4.95 4.95 0 1 1-7-7Z" />
  <path d="M14 6.5v10" />
  <path d="M10 7.5v10" />
  <path d="m16 7 1-5 1.37.68A3 3 0 0 0 19.7 3H21v1.3a2.807 2.807 0 0 0 .32 1.33L22 7l-5 1" />
  <path d="m8 17-1 5-1.37-.68A3 3 0 0 0 4.3 21H3v-1.3a3 3 0 0 0-.32-1.33L2 17l5-1" />
</svg>