<svg
  xmlns="http://www.w3.org/2000/svg"
  width="24"
  height="24"
  viewBox="0 0 24 24"
  fill="none"
  stroke="currentColor"
  stroke-width="2"
  stroke-linecap="round"
  stroke-linejoin="round"
>
  <path d="M6.62 20.76a2.24 2.24 0 0 1-4-2l6.5-13.02a6.8 6.8 0 0 1 9.01-2.98 6.81 6.81 0 0 1 3.19 8.55c-.52 1.26-1.82 2.12-3.17 1.44a2.27 2.27 0 0 1-1.03-3.01c.63-1.09.2-2.55-.94-3.12a2.27 2.27 0 0 0-3.06 1.12Z" />
  <path d="m17.13 9.74 4.64-1.86" />
  <path d="m7 20-2-6" />
  <path d="M10 14 8 8" />
  <path d="m13 8-1.61-4.83" />
  <path d="m16.18 6.62 1.95-3.86" />
</svg>
