<svg
  xmlns="http://www.w3.org/2000/svg"
  width="24"
  height="24"
  viewBox="0 0 24 24"
  fill="none"
  stroke="currentColor"
  stroke-width="2"
  stroke-linecap="round"
  stroke-linejoin="round"
>
  <path d="M21.2 11c1.7-2.9.7-6.5-2.2-8.2s-6.5-.7-8.2 2.2L2.3 19c-.6 1-.3 2.2.7 2.7s2.2.3 2.7-.7l8.5-14c.6-1 1.8-1.3 2.8-.7s1.3 1.7.7 2.7-.2 2.2.7 2.7c1 .6 2.2.3 2.8-.7z" />
  <line x1="15" x2="17.8" y1="2.1" y2="7.1" />
  <line x1="10.9" x2="13" y1="4.8" y2="9" />
  <line x1="7.9" x2="9.9" y1="9.8" y2="14.1" />
  <line x1="4.9" x2="7" y1="14.7" y2="18.8" />
</svg>
