<svg
  xmlns="http://www.w3.org/2000/svg"
  width="24"
  height="24"
  viewBox="0 0 24 24"
  fill="none"
  stroke="currentColor"
  stroke-width="2"
  stroke-linecap="round"
  stroke-linejoin="round"
>
  <path d="M12 22v-5" />
  <path d="M12 2c1.505 3.214 2.889 5.425 2 7.425 2.531-3.77 7.35-3.732 7.35-3.732C19.63 9.663 18.79 11.03 17 12c3.174.296 3.598 2.378 4.998 3.482-2 1-4.498 1.018-5.998 1.018.735 1.013 2.634 2.776 2.7 4.368-3.86.053-6.928-1.5-6.7-3.03.228 1.53-2.84 3.083-6.7 3.03.066-1.592 1.966-3.355 2.7-4.368-1.5 0-3.998-.018-5.998-1.018C3.402 14.378 3.826 12.296 7 12c-1.789-.97-2.63-2.337-4.35-6.307 0 0 4.819-.038 7.35 3.732-.889-2 .495-4.21 2-7.425" />
</svg>
