<svg
  xmlns="http://www.w3.org/2000/svg"
  width="24"
  height="24"
  viewBox="0 0 24 24"
  fill="none"
  stroke="currentColor"
  stroke-width="2"
  stroke-linecap="round"
  stroke-linejoin="round"
>
  <path d="M15 12H18" />
  <path d="M16.5 13.5V10.5" />
  <path d="M18 6H17" />
  <path d="M18 6H20C21.1046 6 22 6.8954 22 8V16C22 17.1046 21.1046 18 20 18H4C2.8954 18 2 17.1046 2 16V8C2 6.8954 2.8954 6 4 6H6" />
  <path d="M18 6V4.5C18 4.2239 17.7761 4 17.5 4C17.2239 4 17 4.2239 17 4.5V6" />
  <path d="M6 12H9" />
  <path d="M6 6H7" />
  <path d="M6 6V4.5C6 4.2239 6.2239 4 6.5 4C6.7761 4 7 4.2239 7 4.5V6" />
  <path d="M7 6H17" />
</svg>
