<svg
  xmlns="http://www.w3.org/2000/svg"
  width="24"
  height="24"
  viewBox="0 0 24 24"
  fill="none"
  stroke="currentColor"
  stroke-width="2"
  stroke-linecap="round"
  stroke-linejoin="round"
>
  <path d="m3 8 2 2s1.4-1.9 2.4-3.2c.4-.5.9-.8 1.6-.8h6c.7 0 1.2.3 1.6.8C17.6 8.1 19 10 19 10l2-2" />
  <path d="M6 14c-1.7 0-3-1.3-3-3 0-.6.4-1 1-1h1a4 4 0 0 1 4 4Z" />
  <path d="M7.6 11h8.8" />
  <path d="M15 14a4 4 0 0 1 4-4h1c.6 0 1 .4 1 1 0 1.7-1.3 3-3 3Z" />
  <path d="M21 11v3a4 4 0 0 1-4 4H7a4 4 0 0 1-4-4v-3" />
  <path d="M4 17v2" />
  <path d="M20 17v2" />
</svg>
