<svg
  xmlns="http://www.w3.org/2000/svg"
  width="24"
  height="24"
  viewBox="0 0 24 24"
  fill="none"
  stroke="currentColor"
  stroke-width="2"
  stroke-linecap="round"
  stroke-linejoin="round"
>
  <path d="M5 10 2 9" />
  <path d="m20 10 2-1" />
  <path d="M17.6 6.8c-.3-.4-1-.8-1.6-.8H8c-.6 0-1.3.4-1.6.8L4 10a2 2 0 0 0-2 2v2a4 4 0 0 0 4 4h12a4 4 0 0 0 4-4v-2a2 2 0 0 0-2-2Z" />
  <path d="M6 14c-1.7 0-3-1.3-3-3v-1h2a4 4 0 0 1 4 4Z" />
  <path d="M8 11h8" />
  <path d="M15 14a4 4 0 0 1 4-4h2a4 4 0 0 1-4 4Z" />
  <path d="M3 17v3" />
  <path d="M21 17v3" />
</svg>
