<svg
  xmlns="http://www.w3.org/2000/svg"
  width="24"
  height="24"
  viewBox="0 0 24 24"
  fill="none"
  stroke="currentColor"
  stroke-width="2"
  stroke-linecap="round"
  stroke-linejoin="round"
>
  <path d="M17.5 6.3c-.3-.8-1-1.3-1.9-1.3H8.4c-.8 0-1.6.5-1.9 1.3L5 10a2 2 0 0 0-2 2v4a2 2 0 0 0 2 2h14a2 2 0 0 0 2-2v-4a2 2 0 0 0-2-2Z" />
  <path d="M7 14h.01" />
  <path d="M17 14h.01" />
  <path d="m12.5 9-2 2.5h3l-2 2.5" />
  <path d="m3 8 2 2" />
  <path d="m19 10 2-2" />
  <path d="M5 18v2" />
  <path d="M19 18v2" />
</svg>
