<svg
  xmlns="http://www.w3.org/2000/svg"
  width="24"
  height="24"
  viewBox="0 0 24 24"
  fill="none"
  stroke="currentColor"
  stroke-width="2"
  stroke-linecap="round"
  stroke-linejoin="round"
>
  <path d="M11 11V5" />
  <path d="M15 17H9" />
  <path d="M19 17h2a1 1 0 0 0 1-1v-3a2 2 0 0 0-2-2l-17.974.004" />
  <path d="M5 17H3a1 1 0 0 1-1-1v-4.675a2 2 0 0 1 .103-.633l1.67-5.008A1 1 0 0 1 4.72 5h8.709a2 2 0 0 1 1.664.89L18.5 11" />
  <circle cx="17" cy="17" r="2" />
  <circle cx="7" cy="17" r="2" />
</svg>
