<svg
  xmlns="http://www.w3.org/2000/svg"
  width="24"
  height="24"
  viewBox="0 0 24 24"
  fill="none"
  stroke="currentColor"
  stroke-width="2"
  stroke-linecap="round"
  stroke-linejoin="round"
>
  <path d="M2 11h9c1.1 0 2.7-.2 3.5-.5L16 10" />
  <path d="M9 6v5" />
  <path d="M19 17h2c.6 0 1-.4 1-1v-3c0-.9-.7-1.7-1.5-1.9C18.7 10.6 16 10 16 10l-1.9-2.9C13.6 6.4 12.9 6 12 6H5c-.7 0-1.2.4-1.4 1L2 11v5c0 .6.4 1 1 1h2" />
  <circle cx="7" cy="17" r="2" />
  <path d="M9 17h6" />
  <circle cx="17" cy="17" r="2" />
</svg>
