<svg
  xmlns="http://www.w3.org/2000/svg"
  width="24"
  height="24"
  viewBox="0 0 24 24"
  fill="none"
  stroke="currentColor"
  stroke-width="2"
  stroke-linecap="round"
  stroke-linejoin="round"
>
  <path d="M2.27 21.7s9.87-3.5 12.73-6.36a4.5 4.5 0 0 0-6.36-6.37A50.766 50.766 0 0 0 2.27 21.7" />
  <path d="M8.64 14 6.6 12" />
  <path d="m15.34 15-2.46-2.5" />
  <path d="M22 9s-1.33-2-3.5-2C16.86 7 15 9 15 9s1.33 2 3.5 2S22 9 22 9" />
  <path d="M15 2s-2 1.33-2 3.5S15 9 15 9s2-1.84 2-3.5C17 3.33 15 2 15 2" />
</svg>