<svg
  xmlns="http://www.w3.org/2000/svg"
  width="24"
  height="24"
  viewBox="0 0 24 24"
  fill="none"
  stroke="currentColor"
  stroke-width="2"
  stroke-linecap="round"
  stroke-linejoin="round"
>
  <path d="m15.34 15-2.46-2.46" />
  <path d="M18.5 7C16.86 7 15 9 15 9s2-1.84 2-3.5C17 3.33 15 2 15 2s-2 1.33-2 3.5S15 9 15 9s1.33 2 3.5 2S22 9 22 9s-1.33-2-3.5-2" />
  <path d="M2.701 20.598a.5.5 0 0 0 .66.643S12.14 18.2 15 15.34a1 1 0 0 0-6.36-6.37c-2.87 2.87-5.939 11.628-5.939 11.628" />
  <path d="m8.64 14-2.05-2.04" />
</svg>
