<svg
  xmlns="http://www.w3.org/2000/svg"
  width="24"
  height="24"
  viewBox="0 0 24 24"
  fill="none"
  stroke="currentColor"
  stroke-width="2"
  stroke-linecap="round"
  stroke-linejoin="round"
>
  <path d="M20.1 7.7c.6-1.4.9-3 .9-4.7 0-.6-.4-1-1-1-2.3 0-4.3.8-5.9 2.2a14.92 14.92 0 0 0-4.2 0A8.78 8.78 0 0 0 4 2c-.6 0-1 .4-1 1 0 1.7.3 3.3.9 4.7C2.7 9.2 2 11 2 13c0 5 4.5 9 10 9s10-4 10-9c0-2-.7-3.8-1.9-5.3" />
  <path d="m6 12-3.8-.9" />
  <path d="M10 12h.01" />
  <path d="M14 12h.01" />
  <path d="M21.8 11.1 18 12" />
  <path d="m3 17 3-1" />
  <path d="M14 16h-4" />
  <path d="M12 16v2" />
  <path d="m18 16 3 1" />
</svg>
