<svg
  xmlns="http://www.w3.org/2000/svg"
  width="24"
  height="24"
  viewBox="0 0 24 24"
  fill="none"
  stroke="currentColor"
  stroke-width="2"
  stroke-linecap="round"
  stroke-linejoin="round"
>
  <path d="M21 4c0-.6-.4-1-1-1-2.3 0-4.3.9-5.9 2.2a14.92 14.92 0 0 0-4.2 0C8.3 3.9 6.3 3 4 3c-.6 0-1 .4-1 1 0 1.8.5 3.5 1.4 4.9-.9 1.3-1.4 2.9-1.4 4.6 0 4.7 4 8.5 9 8.5s9-3.8 9-8.5c0-1.7-.5-3.3-1.4-4.6C20.5 7.5 21 5.8 21 4" />
  <path d="m6 12-4-1" />
  <path d="M10 12v-.5" />
  <path d="M14 12v-.5" />
  <path d="m22 11-4 1" />
  <path d="m2 17 4-1" />
  <path d="M14 16h-4" />
  <path d="M12 16v2" />
  <path d="m18 16 4 1" />
</svg>
