<svg
  xmlns="http://www.w3.org/2000/svg"
  width="24"
  height="24"
  viewBox="0 0 24 24"
  fill="none"
  stroke="currentColor"
  stroke-width="2"
  stroke-linecap="round"
  stroke-linejoin="round"
>
  <path d="m20.69 16.479 1.29 4.88a.5.5 0 0 1-.698.591l-1.843-.849a1 1 0 0 0-.879.001l-1.846.85a.5.5 0 0 1-.692-.593l1.29-4.88" />
  <path d="M22 7.675V5a2 2 0 0 0-2-2H4a2 2 0 0 0-2 2v12a2 2 0 0 0 2 2h8.508" />
  <path d="M6 11h6.675" />
  <path d="M6 15h6" />
  <path d="M9 7h9" />
  <circle cx="19" cy="14" r="3" />
</svg>
