<svg
  xmlns="http://www.w3.org/2000/svg"
  width="24"
  height="24"
  viewBox="0 0 24 24"
  fill="none"
  stroke="currentColor"
  stroke-width="2"
  stroke-linecap="round"
  stroke-linejoin="round"
>
  <path d="M11 22c-5 0-9-4.5-9-10S6 2 11 2c2.2 0 4.2.9 5.7 2.3L19.3 2c3.1 3.1 3.5 7.9 1.3 11.4-.6.9-1.9.9-2.7.1l-1.2-1.2C15.2 10.9 13.2 10 11 10a6 6 0 0 0 0 12 4 4 0 0 0 0-8 2 2 0 0 0 0 4" />
  <path d="M14 7h.01" />
  <circle cx="14.5" cy="7" r="3.5" />
  <path d="M8 10.8 6 10l1-2" />
  <path d="M22 22a2 2 0 0 1-2-2v-6.1" />
</svg>
