<svg
  xmlns="http://www.w3.org/2000/svg"
  width="24"
  height="24"
  viewBox="0 0 24 24"
  fill="none"
  stroke="currentColor"
  stroke-width="2"
  stroke-linecap="round"
  stroke-linejoin="round"
>
  <path d="M12.4465 12.8984L10 15.345H13.6698L11.2233 17.7915" />
  <path d="M13.9 6H10.1C10.0448 6 10 6.04477 10 6.1V8.9C10 8.95523 10.0448 9 10.1 9H13.9C13.9552 9 14 8.95523 14 8.9V6.1C14 6.04477 13.9552 6 13.9 6Z" />
  <path d="M18.5 7.5H20V5.5H18.5V7.5Z" />
  <path d="M2 20.5C1.4477 20.5 1 20.9477 1 21.5C1 22.0523 1.4477 22.5 2 22.5V20.5Z" />
  <path d="M20 20.5H2V22.5H20V20.5Z" />
  <path d="M20 7.5C20.5523 7.5 21 7.9477 21 8.5H23C23 6.8432 21.6569 5.5 20 5.5V7.5Z" />
  <path d="M21 18V19.5H23V18H21Z" />
  <path d="M21 19.5C21 20.0523 20.5523 20.5 20 20.5V22.5C21.6569 22.5 23 21.1569 23 19.5H21Z" />
  <path d="M21 8.5V18H23V8.5H21Z" />
  <path d="M6 22V4C6 2.89543 6.89543 2 8 2H16C17.1046 2 18 2.89543 18 4V22" />
</svg>
