<svg
  xmlns="http://www.w3.org/2000/svg"
  width="375"
  height="374"
  viewBox="0 0 375 374"
  fill="none"
  stroke="currentColor"
  stroke-width="2"
  stroke-linecap="round"
  stroke-linejoin="round"
>
  <path d="M302.438 127.328c18.171 0 32.96-14.777 32.96-32.937 0-18.157-14.789-32.93-32.96-32.93-18.176 0-32.961 14.773-32.961 32.93 0 18.16 14.785 32.937 32.96 32.937" />
  <path d="M329.066 196.18c0 17.23-6.539 33.61-18.402 46.117l-90.957 95.941c-4.574 4.825-10.762 7.485-17.41 7.485-6.656 0-12.84-2.66-17.414-7.485l-90.957-95.941c-11.864-12.508-18.403-28.887-18.403-46.117 0-18.614 7.45-35.91 20.965-48.707 13.02-12.329 30.063-18.848 47.989-18.364 17.921.485 34.585 7.914 46.917 20.93l2.567 2.707 43.371 52.031a11.143 11.143 0 0 0 15.68 1.43c4.726-3.926 5.37-10.945 1.433-15.676l-39.668-47.59c5.204-2.41 12.325-5.113 15.805-6.406a10.8 10.8 0 0 0 2.082-.766c24.973-12.074 55.29-7.37 75.43 11.704 13.527 12.796 20.972 30.093 20.972 48.707" />
  <path d="M88.945 127.328c27.04 0 49.043-21.984 49.043-49.004s-22.004-49-49.043-49-49.039 21.98-49.039 49 22 49.004 49.04 49.004" />
  <rect x="39.902" y="29.289" width="295.5" height="316.5" />
</svg>
