<svg
  xmlns="http://www.w3.org/2000/svg"
  width="24"
  height="24"
  viewBox="0 0 24 24"
  fill="none"
  stroke="currentColor"
  stroke-width="2"
  stroke-linecap="round"
  stroke-linejoin="round"
>
  <path d="M10 10v3" />
  <path d="M14 10v3" />
  <path d="M5.273 11.609A4 4 0 017.52 4.034a1.53 1.53 0 001.367-.547 4 4 0 016.225 0 1.53 1.53 0 001.367.547 4 4 0 012.248 7.575c-.411.197-.727.584-.727 1.04V20a2 2 0 01-2 2H8a2 2 0 01-2-2v-7.35c0-.457-.316-.844-.727-1.041" />
  <path d="M6 17h12" />
</svg>
