<svg
  xmlns="http://www.w3.org/2000/svg"
  width="24"
  height="24"
  viewBox="0 0 24 24"
  fill="none"
  stroke="currentColor"
  stroke-width="2"
  stroke-linecap="round"
  stroke-linejoin="round"
>
  <path d="M10 9h4" />
  <path d="M12 7v5" />
  <path d="M14 22v-4a2 2 0 0 0-4 0v4" />
  <path d="M18 22V5.618a1 1 0 0 0-.553-.894l-4.553-2.277a2 2 0 0 0-1.788 0L6.553 4.724A1 1 0 0 0 6 5.618V22" />
  <path d="m18 7 3.447 1.724a1 1 0 0 1 .553.894V20a2 2 0 0 1-2 2H4a2 2 0 0 1-2-2V9.618a1 1 0 0 1 .553-.894L6 7" />
</svg>
