<svg
  xmlns="http://www.w3.org/2000/svg"
  width="24"
  height="24"
  viewBox="0 0 24 24"
  fill="none"
  stroke="currentColor"
  stroke-width="2"
  stroke-linecap="round"
  stroke-linejoin="round"
>
  <path d="M10 9h4" />
  <path d="M12 7v5" />
  <path d="M14 22v-4a2 2 0 0 0-4 0v4" />
  <path d="M18 6a1 1 0 0 0-.484-.857l-4.409-2.809a2 2 0 0 0-2.214 0l-4.41 2.81A1 1 0 0 0 6 6v14a2 2 0 0 0 2 2h8a2 2 0 0 0 2-2z" />
  <path d="m18 9 3.52 2.147a1 1 0 0 1 .48.854V17a2 2 0 0 1-2 2h-2" />
  <path d="m6 9-3.52 2.147a1 1 0 0 0-.48.854V17a2 2 0 0 0 2 2h2" />
</svg>
