<svg
  xmlns="http://www.w3.org/2000/svg"
  width="24"
  height="24"
  viewBox="0 0 24 24"
  fill="none"
  stroke="currentColor"
  stroke-width="2"
  stroke-linecap="round"
  stroke-linejoin="round"
>
  <path d="M12 18v-2" />
  <path d="M12 6v2" />
  <path d="M16 8h-6a2 2 0 0 0 0 4h4a2 2 0 0 1 0 4H8" />
  <path d="M19.08 19.08A1 1 0 1 1 4.92 4.92" />
  <path d="m2 2 6.5 6.5" />
  <path d="m22 22-6.595-6.595" />
  <path d="M8.35 2.69A10 10 0 0 1 21.3 15.65" />
  <path d="M8.586 8.586A2 2 0 0 0 10 12" />
</svg>
