<svg
  xmlns="http://www.w3.org/2000/svg"
  width="24"
  height="24"
  viewBox="0 0 24 24"
  fill="none"
  stroke="currentColor"
  stroke-width="2"
  stroke-linecap="round"
  stroke-linejoin="round"
>
  <path d="M 12 3 A9.75 9.75 0 0 1 18.74 5.74" />
  <path d="M 18.74 5.74 L 21 8" />
  <path d="M 21 8 L 21 3" />
  <path d="M 7.5 19.794 C 1.5 16.33 1.5 7.67 7.5 4.206" />
  <path d="M 7.5 4.206 A9 9 0 0 1 12 3" />
  <path d="M12 7v5l4 2" />
  <path d="M14 20.775 A9 9 0 0 1 12 21" />
  <path d="M19 17.656 A9 9 0 0 1 17.5 19.112" />
  <path d="M21 12 A9 9 0 0 1 20.772 14" />
  <path d="M21 8h-5" />
</svg>
