<svg
  xmlns="http://www.w3.org/2000/svg"
  width="24"
  height="24"
  viewBox="0 0 24 24"
  fill="none"
  stroke="currentColor"
  stroke-width="2"
  stroke-linecap="round"
  stroke-linejoin="round"
>
	<path d="M12 2v2"/>
	<path d="m5.22 5.22 1.42 1.42"/>
	<path d="M20 12h2"/>
	<path d="M15.97 12.5A4 4 0 0 0 9.5 8.88"/>
	<path d="m17.36 6.64 1.42-1.42"/>
	<path d="M15.54 22a3.4 3.4 0 0 0-1.88-6.2h-1.35a5.3 5.3 0 0 0-5.46-3.78 5.24 5.24 0 0 0-4.8 4.6 5.33 5.33 0 0 0 1.46 4.4"/>
	<path d="M11.5 19v4"/>
	<path d="M7.5 18v4"/>
</svg>