<svg
  xmlns="http://www.w3.org/2000/svg"
  width="24"
  height="24"
  viewBox="0 0 24 24"
  fill="none"
  stroke="currentColor"
  stroke-width="2"
  stroke-linecap="round"
  stroke-linejoin="round"
>
  <path d="M16 16a2.77 2.77 0 1 0 4.2-3.61l-.38-.39.4-.4A2.773 2.773 0 0 0 16 8a2.7 2.7 0 1 0-3.61-4.2l-.39.38-.4-.4A2.77 2.77 0 1 0 8 8l4 4" />
  <path d="M8 8a2.77 2.77 0 1 0-4.2 3.61l.38.39-.4.4A2.773 2.773 0 0 0 8 16a2.945 2.945 0 0 0-.2 4.21v-.01a2.7 2.7 0 0 0 3.81 0l.39-.38.4.4a2.77 2.77 0 0 0 3.6-4.21L12 12" />
  <path d="m7 17-5 5" />
  <path d="m8 16 8-8" />
</svg>