<svg
  xmlns="http://www.w3.org/2000/svg"
  width="24"
  height="24"
  viewBox="0 0 24 24"
  fill="none"
  stroke="currentColor"
  stroke-width="2"
  stroke-linecap="round"
  stroke-linejoin="round"
>
  <path d="M16 8 2 22" />
  <path d="m8 8 8.02 8.01" />
  <path d="M8.02 16.01c-1.33 1.36-1.27 3.15-.22 4.19a2.7 2.7 0 0 0 3.81 0l.4-.38.4.4a2.7 2.7 0 0 0 3.82 0c1.06-1.06 1.12-2.85-.21-4.21 1.34 1.32 3.13 1.26 4.18.19a2.7 2.7 0 0 0 0-3.81l-.38-.4.4-.4a2.7 2.7 0 0 0 0-3.82C19.15 6.73 17.36 6.67 16 8c1.33-1.36 1.27-3.15.2-4.2a2.7 2.7 0 0 0-3.81 0l-.4.38-.4-.4a2.7 2.7 0 0 0-3.82 0C6.73 4.85 6.67 6.64 8 8c-1.36-1.33-3.15-1.27-4.2-.2a2.7 2.7 0 0 0 0 3.81l.38.4-.4.4a2.7 2.7 0 0 0 0 3.82c1.07 1.04 2.86 1.1 4.24-.22" />
</svg>
