<svg
  xmlns="http://www.w3.org/2000/svg"
  width="24"
  height="24"
  viewBox="0 0 24 24"
  fill="none"
  stroke="currentColor"
  stroke-width="2"
  stroke-linecap="round"
  stroke-linejoin="round"
>
  <path d="M12 22.08V12" />
  <path d="m21 12-4.5 2.6v5.2" />
  <path d="M3.27 7 12 12l8.73-5" />
  <path d="M7.5 19.8v-5.2L3 12" />
  <path d="M7.5 4.2 12 6.8l4.5-2.6" />
  <path d="M21 16a2 2 0 0 1-1 1.73l-7 4a2 2 0 0 1-2 0l-7-4A2 2 0 0 1 3 16V8a2 2 0 0 1 1-1.73l7-4a2 2 0 0 1 2 0l7 4A2 2 0 0 1 21 8Z" />
</svg>