<svg
  xmlns="http://www.w3.org/2000/svg"
  width="24"
  height="24"
  viewBox="0 0 24 24"
  fill="none"
  stroke="currentColor"
  stroke-width="2"
  stroke-linecap="round"
  stroke-linejoin="round"
>
  <path d="M14 22V12a2 2 0 0 0-2-2H4a2 2 0 0 1-2-2V4a2 2 0 0 1 2-2h16a2 2 0 0 1 2 2v18H2" />
  <path d="M10 2v2a2 2 0 1 1-4 0V2" />
  <path d="M22 6h-4" />
  <path d="M22 10h-4" />
  <path d="M18 22v-6a2 2 0 0 1 2-2h2" />
  <path d="M7 10v2" />
  <path d="M7 22c-1.7 0-3-1.3-3-3v-3h6v3c0 1.7-1.3 3-3 3" />
  <path d="M2 18a2 2 0 0 1 2-2" />
</svg>
