<svg xmlns="http://www.w3.org/2000/svg" fill="none" viewBox="0 0 24 24">
  <path stroke="#000" stroke-linejoin="round" stroke-width="2" d="M18 20h4v-8h-9v5"/>
  <path stroke="#000" stroke-linecap="round" stroke-width="2" d="M17.5 12v2"/>
  <path stroke="#000" stroke-linecap="round" stroke-linejoin="round" stroke-width="2" d="m2.5 21 .357-7.15A3 3 0 0 1 5.854 11H7.17a2.96 2.96 0 0 1 2.648 1.636l1.604 3.208A2.092 2.092 0 0 0 13.292 17H16a2 2 0 0 1 2 2v0a2 2 0 0 1-2 2h-3.539a4.923 4.923 0 0 1-3.938-1.97L7 17"/>
  <path stroke="#000" stroke-linecap="round" stroke-linejoin="round" stroke-width="2" d="M2.027 6a4.5 4.5 0 1 0 8.945 1 4.5 4.5 0 0 0-8.945-1Zm0 0H14"/>
</svg>
