<svg
  xmlns="http://www.w3.org/2000/svg"
  width="24"
  height="24"
  viewBox="0 0 24 24"
  fill="none"
  stroke="currentColor"
  stroke-width="2"
  stroke-linecap="round"
  stroke-linejoin="round"
>
  <path d="M17.73 20H21a1 1 0 0 0 1-1v-6a1 1 0 0 0-1-1h-7a1 1 0 0 0-1 1v4" />
  <path d="M2.027 6H14" />
  <path d="m2.5 21 .357-7.15A3 3 0 0 1 5.855 11H7.17a3 3 0 0 1 2.648 1.636l1.604 3.208A2 2 0 0 0 13.292 17H16a2 2 0 0 1 0 4h-3.539a5 5 0 0 1-3.938-1.97L7 17" />
  <circle cx="6.507" cy="6.5" r="4.508" />
</svg>