<svg xmlns="http://www.w3.org/2000/svg" width="24" height="24" fill="none"><circle cx="6.5" cy="6.5" r="4.5" stroke="#000" stroke-linejoin="round" stroke-width="2"/><path fill="#000" d="M14 7a1 1 0 1 0 0-2v2ZM2 7h12V5H2v2Z"/><path stroke="#000" stroke-linejoin="round" stroke-width="2" d="M17.5 20H22v-8h-9v5.5"/><path fill="#000" d="M16.5 14a1 1 0 1 0 2 0h-2Zm0-2v2h2v-2h-2Z"/><path stroke="#000" stroke-linecap="round" stroke-linejoin="round" stroke-width="2" d="m2.5 21 .357-7.15A3 3 0 0 1 5.854 11h1.354a3 3 0 0 1 2.642 1.578l2.103 3.906c.337.626.99 1.016 1.7 1.016h2.597c.966 0 1.75.784 1.75 1.75v0A1.75 1.75 0 0 1 16.25 21h-3.503a4.669 4.669 0 0 1-4.081-2.402L7.5 16.5"/></svg>