<svg
  xmlns="http://www.w3.org/2000/svg"
  width="24"
  height="24"
  viewBox="0 0 24 24"
  fill="none"
  stroke="currentColor"
  stroke-width="2"
  stroke-linecap="round"
  stroke-linejoin="round"
>
  <path d="M17.8 15.1a10 10 0 0 0 .9-7.1h.3c1.7 0 3-1.3 3-3V3h-3c-1.3 0-2.4.8-2.8 1.9a10 10 0 0 0-8.4 0C7.4 3.8 6.3 3 5 3H2v2c0 1.7 1.3 3 3 3h.3a10 10 0 0 0 .9 7.1" />
  <path d="M9 9.5v.5" />
  <path d="M15 9.5v.5" />
  <path d="M15 22a4 4 0 1 0-3-6.6A4 4 0 1 0 9 22Z" />
  <path d="M9 18h.01" />
  <path d="M15 18h.01" />
</svg>
