<svg
  xmlns="http://www.w3.org/2000/svg"
  width="24"
  height="24"
  viewBox="0 0 24 24"
  fill="none"
  stroke="currentColor"
  stroke-width="2"
  stroke-linecap="round"
  stroke-linejoin="round"
>
  <path d="m6 6 2.8 2.8a4 4 0 1 1 0-5.6Z" />
  <path d="M2 6v1c0 3.5 2.5 6.3 5.8 6.9" />
  <path d="M2 16h3" />
  <path d="M2 22c0-1.7 1.3-3 3-3" />
  <ellipse cx="12" cy="17.5" rx="7" ry="4.5" />
  <path d="m18 6-2.8-2.8a4 4 0 1 1 0 5.6Z" />
  <path d="M16.2 13.9c3.3-.6 5.8-3.4 5.8-6.9V6" />
  <path d="M19 16h3" />
  <path d="M19 19c1.7 0 3 1.3 3 3" />
</svg>
