<svg
  xmlns="http://www.w3.org/2000/svg"
  width="24"
  height="24"
  viewBox="0 0 24 24"
  fill="none"
  stroke="currentColor"
  stroke-width="2"
  stroke-linecap="round"
  stroke-linejoin="round"
>
  <path d="m4.6 13.11 5.79-3.21c1.89-1.05 4.79 1.78 3.71 3.71l-3.22 5.81C8.8 23.16.79 15.23 4.6 13.11Z" />
  <path d="m11 9.5-1-2.29A2.28 2.28 0 0 0 8 6H4.5C2.79 6 2 7 2 9a6.26 6.26 0 0 0 2 4.33" />
  <path d="M8 6c0-1.55.24-4-2-4-2 0-2.5 2.17-2.5 4" />
  <path d="m14.5 13 2.29 1A2.28 2.28 0 0 1 18 16v3.5c0 1.71-1 2.5-3 2.5a6.26 6.26 0 0 1-4.33-2" />
  <path d="M18 16c1.55 0 4-.24 4 2 0 2-2.17 2.5-4 2.5" />
</svg>
