<svg
  xmlns="http://www.w3.org/2000/svg"
  width="24"
  height="24"
  viewBox="0 0 24 24"
  fill="none"
  stroke="currentColor"
  stroke-width="2"
  stroke-linecap="round"
  stroke-linejoin="round"
>
  <path d="M4.6 13.1c-3.81 2.13 4.2 10.06 6.28 6.32l3.22-5.82a2.97 2.97 0 0 0-3.71-3.7Z" />
  <path d="m10.5 9.5-1-2.3C9.2 6.48 8.8 6 8 6H4.5C2.79 6 2 6.5 2 8.5a7.71 7.71 0 0 0 2 4.83" />
  <path d="M8 6c0-1.55.24-4-2-4-2 0-2.5 2.17-2.5 4" />
  <path d="m14.5 13.5 2.3 1c.72.3 1.2.7 1.2 1.5v3.5c0 1.71-.5 2.5-2.5 2.5a7.71 7.71 0 0 1-4.83-2" />
  <path d="M18 16c1.55 0 4-.24 4 2 0 2-2.17 2.5-4 2.5" />
</svg>