<svg
  xmlns="http://www.w3.org/2000/svg"
  width="24"
  height="24"
  viewBox="0 0 24 24"
  fill="none"
  stroke="currentColor"
  stroke-width="2"
  stroke-linecap="round"
  stroke-linejoin="round"
>
  <path d="M10.39 14.1c1.89 1.05 4.79-1.78 3.71-3.71l-3.22-5.81C8.8.84.79 8.77 4.6 10.89z" />
  <path d="m10.5 14.5-1 2.29C9.2 17.52 8.8 18 8 18H4.5C2.79 18 2 17.5 2 15.5a7.7 7.7 0 0 1 2-4.83" />
  <path d="m14.5 10.5 2.29-1C17.52 9.2 18 8.8 18 8V4.5c0-1.71-.5-2.5-2.5-2.5a7.7 7.7 0 0 0-4.83 2" />
  <path d="M18 8c1.55 0 4 .24 4-2 0-2-2.17-2.5-4-2.5" />
  <path d="M8 18c0 1.55.24 4-2 4-2 0-2.5-2.17-2.5-4" />
</svg>
