<svg
  xmlns="http://www.w3.org/2000/svg"
  width="24"
  height="24"
  viewBox="0 0 24 24"
  fill="none"
  stroke="currentColor"
  stroke-width="2"
  stroke-linecap="round"
  stroke-linejoin="round"
>
  <path d="m18.2 11 .722-3.608a2 2 0 0 0 0-.784l-.761-3.804A1 1 0 0 0 17.18 2H6.82a1 1 0 0 0-.98.804l-.762 3.804a2 2 0 0 0 0 .784L5.8 11" />
  <path d="M4 7h16" />
  <path d="M5.163 12.141A1 1 0 0 1 6.153 11h11.694a1 1 0 0 1 .99 1.141l-.714 5a1 1 0 0 1-.99.859H6.867a1 1 0 0 1-.99-.859z" />
  <path d="m7.2 18 .64 3.196a1 1 0 0 0 .98.804h6.36a1 1 0 0 0 .98-.804L16.8 18" />
</svg>
