<svg
  xmlns="http://www.w3.org/2000/svg"
  width="24"
  height="24"
  viewBox="0 0 24 24"
  fill="none"
  stroke="currentColor"
  stroke-width="2"
  stroke-linecap="round"
  stroke-linejoin="round"
>
  <path d="M2 18a4 4 0 0 0 4 4h12a4 4 0 0 0 4-4Z" />
  <path d="M6 8h12v6a4 4 0 0 1-4 4h-4a4 4 0 0 1-4-4Z" />
  <path d="M18 8h1a3 3 0 0 1 3 3v0a3 3 0 0 1-3 3h-1" />
  <path d="M6 4a1 1 0 0 1 1-1 1 1 0 0 0 1-1" />
  <path d="M12 4a1 1 0 0 1 1-1 1 1 0 0 0 1-1" />
  <path d="M18 4a1 1 0 0 1 1-1 1 1 0 0 0 1-1" />
</svg>
