<svg
  xmlns="http://www.w3.org/2000/svg"
  width="24"
  height="24"
  viewBox="0 0 24 24"
  fill="none"
  stroke="currentColor"
  stroke-width="2"
  stroke-linecap="round"
  stroke-linejoin="round"
>
  <path d="M12 20h9" />
  <path d="M12 22v-3a1 1 0 0 0-1-1H4a1 1 0 0 0-1 1" />
  <path d="M19.828 13.172 13 20" />
  <path d="M20 7H9" />
  <path d="M20 8a4 4 0 0 1-8 0V3.28a1 1 0 0 1 1.242-.97l6 1.5a1 1 0 0 1 .758.97z" />
  <path d="M21 22v-6a4 4 0 0 0-4-4h-2.752a4 4 0 0 0-3.115 1.49L6.5 18" />
  <path d="m5 12-1.795 5.384A4 4 0 0 0 3 18.65V22" />
</svg>