<svg
  xmlns="http://www.w3.org/2000/svg"
  width="24"
  height="24"
  viewBox="0 0 24 24"
  fill="none"
  stroke="currentColor"
  stroke-width="2"
  stroke-linecap="round"
  stroke-linejoin="round"
>
  <path d="M11 11.31c1.17.56 1.54 1.69 3.5 1.69 2.5 0 2.5-2 5-2 1.3 0 1.9.5 2.5 1" />
  <path d="M12 18c.6.5 1.2 1 2.5 1 2.5 0 2.5-2 5-2 1.3 0 1.9.5 2.5 1" />
  <path d="M2 10h4" />
  <path d="M2 14h4" />
  <path d="M2 18h4" />
  <path d="M2 6h4" />
  <path d="M7 3c-.55 0-1 .45-1 1v16c0 .55.45 1 1 1h4c.55 0 1-.45 1-1L10 4c0-.55-.45-1-1-1z" />
</svg>
