<svg
  xmlns="http://www.w3.org/2000/svg"
  width="50"
  height="50"
  viewBox="0 0 50 50"
  fill="none"
  stroke="currentColor"
  stroke-width="2"
  stroke-linecap="round"
  stroke-linejoin="round"
>
  <path d="M 14.781 41 A1 1 0 0 0 15.625 40.594" />
  <path d="M 15.625 40.594 L 18.063 37.219" />
  <path d="M 18.063 37.219 C20.027 37.684 22.332 38 25 38" />
  <path d="M 18.906 7 C18.906 7 12.539 7.438 8.375 10.781" />
  <path d="M 19.906 7.594 A1 1 0 0 0 18.906 7" />
  <path d="M 2 34 A1 1 0 0 0 2.125 34.5" />
  <path d="M 2.125 34.5 C3.585 37.066 6.273 38.617 8.781 39.594" />
  <path d="M 20.469 9.406 A9.5 9.5 0 0 0 19.906 7.594" />
  <path d="M 25 38 C27.668 38 29.973 37.684 31.938 37.219" />
  <path d="M 25 9 C24.059 9 22.418 9.094 20.469 9.406" />
  <path d="M 29.531 9.406 C27.582 9.094 26 10.5 25 9" />
  <path d="M 30.094 7.594 A9.5 9.5 0 0 0 29.531 9.406" />
  <path d="M 31.094 7 A1 1 0 0 0 30.094 7.594" />
  <path d="M 31.938 37.219 L 34.375 40.594" />
  <path d="M 34.375 40.594 A1 1 0 0 0 35.219 41" />
  <path d="M 35.219 41 C36.394 40.96 38.711 40.57 41.219 39.594" />
  <path d="M 4.344 19.531 C3.05 23.81 2 29.06 2 34" />
  <path d="M 41.219 39.594 C43.727 38.617 46.414 37.066 47.875 34.5" />
  <path d="M 41.625 10.781 C37.461 7.437 31.094 7 31.094 7" />
  <path d="M 41.688 10.813 L 41.625 10.781" />
  <path d="M 43.625 14 C42.953 12.516 42.41 11.48 41.688 10.813" />
  <path d="M 45.656 19.531 C45.008 17.395 44.296 15.484 43.625 14" />
  <path d="M 47.875 34.5 A1 1 0 0 0 48 34" />
  <path d="M 48 34 C48 29.059 46.95 23.809 45.656 19.531" />
  <path d="M 6.375 14 C5.703 15.483 4.992 17.395 4.344 19.531" />
  <path d="M 8.313 10.812 C7.59 11.48 7.047 12.517 6.375 14" />
  <path d="M 8.375 10.781 L 8.313 10.812" />
  <path d="M 8.781 39.594 C11.289 40.57 13.605 40.961 14.781 41" />
  <path d="M18.281 9.156a7 7 0 0 1 .188.625c-2.254.524-4.723 1.38-7.032 2.813a1 1 0 1 0 1.032 1.687C17.102 11.411 22.996 11 25 11s7.898.41 12.531 3.281a1 1 0 1 0 1.031-1.687c-2.308-1.434-4.777-2.29-7.03-2.813a7 7 0 0 1 .187-.625c1.14.14 5.574.739 8.593 3.125.196.18.876 1.18 1.5 2.563.626 1.383 1.282 3.183 1.907 5.25 1.218 4.031 2.203 9.004 2.25 13.562-1.137 1.84-3.27 3.207-5.469 4.063-2 .777-3.867 1.125-4.844 1.218l-1.687-2.28a25 25 0 0 0 2.312-.876c2.524-1.11 3.875-2.281 3.875-2.281a1 1 0 1 0-1.344-1.5s-1.046.957-3.343 1.969a23 23 0 0 1-3.032 1.062 1 1 0 0 0-.75.219c-1.863.453-4.078.75-6.687.75-2.629 0-4.848-.324-6.719-.781a1 1 0 0 0-.718-.157 22.6 22.6 0 0 1-3.032-1.093C12.234 32.957 11.187 32 11.187 32a1 1 0 1 0-1.343 1.5s1.351 1.172 3.875 2.281a25 25 0 0 0 2.312.875l-1.687 2.282c-.977-.094-2.844-.442-4.844-1.22-2.2-.855-4.332-2.222-5.469-4.062.047-4.558 1.032-9.531 2.25-13.562.625-2.067 1.282-3.867 1.907-5.25.624-1.383 1.304-2.383 1.5-2.563 3.019-2.386 7.453-2.984 8.593-3.125" />
  <path d="M18.5 21c-2.55 0-4.5 2.316-4.5 5s1.95 5 4.5 5 4.5-2.316 4.5-5-1.95-5-4.5-5" />
  <path d="M18.5 23c1.316 0 2.5 1.266 2.5 3s-1.184 3-2.5 3-2.5-1.266-2.5-3 1.184-3 2.5-3" />
  <path d="M31.5 21c-2.55 0-4.5 2.316-4.5 5s1.95 5 4.5 5 4.5-2.316 4.5-5-1.95-5-4.5-5" />
  <path d="M31.5 23c1.316 0 2.5 1.266 2.5 3s-1.184 3-2.5 3-2.5-1.266-2.5-3 1.184-3 2.5-3" />
</svg>
