<svg
  xmlns="http://www.w3.org/2000/svg"
  width="24"
  height="24"
  viewBox="0 0 24 24"
  fill="none"
  stroke="currentColor"
  stroke-width="2"
  stroke-linecap="round"
  stroke-linejoin="round"
>
  <path d="M13.272 17.082c1.224 1.15 2.24 1.12 3.777 1.174 2.192 0 3.578-2 4.325-3.096.858-2.289 1.126-4.16-1.17-3.757-.81.267-2.378.084-3.117-2.178-.556-1.175-1.027-3.492-2.422-4.44-1.564-1.062-3.686-.874-5.631-.69-2.239.191-3.883 1.443-4.979 3.052a10.47 10.47 0 0 0-1.5 8.452c.479 1.926 2.029 3.841 4.099 3.742 1.986-.09 3.322-2.018 3.74-3.873.461-1.87.49-2.824.175-4.71" />
  <path d="M14.19 10.275 14 9" />
  <path d="M20.237 11.514C20 13 20.5 13.5 21.684 13.542" />
</svg>
