<svg
  xmlns="http://www.w3.org/2000/svg"
  width="24"
  height="24"
  viewBox="0 0 24 24"
  fill="none"
  stroke="currentColor"
  stroke-width="2"
  stroke-linecap="round"
  stroke-linejoin="round"
>
  <path d="M10 11v-.5" />
  <path d="M14 11v-.5" />
  <path d="M18 7v4a2 2 0 0 0 4 0V7a4 4 0 0 0-6.85-2.8l-1 1c-.8-.1-1.5-.2-2.2-.2s-1.4.1-2.1.2l-1-1A4 4 0 0 0 2 7v4a2 2 0 0 0 4 0V7" />
  <path d="m5.5 12.3-1.2 1.3a5 5 0 1 0 7.5 6.6l3-3.6A1 1 0 0 0 14 15h-4a1 1 0 0 0-.8 1.6l3 3.6a5 5 0 1 0 7.5-6.6l-1.2-1.3" />
  <path d="M22 22c-2 0-3-1-3-.87" />
</svg>
