<svg width="24" height="24" fill="none" xmlns="http://www.w3.org/2000/svg"><path d="M11 5c-.5-1.5-2.2-2.8-5-2-3.5 1-4.5 5.5-4.5 6.5 0 .707 2 2.5 4 2 1.306-.326 2.833-3.167 3-4M13 5c.5-1.5 2.2-2.8 5-2 3.5 1 4.5 5.5 4.5 6.5 0 .707-2 2.5-4 2-1.306-.326-2.833-3.167-3-4M8 14v.5M16 14v.5M11 17h2l-1 1-1-1Z" stroke="#000" stroke-width="2" stroke-linecap="round" stroke-linejoin="round"/><path d="M11 5.053a9.295 9.295 0 0 1 2 0M4.248 12c-.17.865-.248 1.734-.248 2.556C4 18.728 7.582 21 12 21s8-2.272 8-6.444c0-.822-.078-1.69-.248-2.556" stroke="#000" stroke-width="2" stroke-linecap="round" stroke-linejoin="round"/></svg>