<svg
  xmlns="http://www.w3.org/2000/svg"
  width="24"
  height="24"
  viewBox="0 0 24 24"
  fill="none"
  stroke="currentColor"
  stroke-width="2"
  stroke-linecap="round"
  stroke-linejoin="round"
>
  <path d="M10 5.172A2.728 2.728 0 0 0 6.5 3c-2.823.47-4.113 6.006-4 7a2.77 2.77 0 0 0 3.656 1A3.97 3.97 0 0 0 8.5 8.5" />
  <path d="M14.267 5.172A2.728 2.728 0 0 1 17.767 3c2.823.47 4.113 6.006 4 7a2.77 2.77 0 0 1-3.656 1 3.805 3.805 0 0 1-2.239-2.5" />
  <path d="M8 14v.5" />
  <path d="M16 14v.5" />
  <path d="m12 17 .75-.75h-1.5Z" />
  <path d="M4.42 11.247A6.957 6.957 0 0 0 12 21a6.957 6.957 0 0 0 7.507-9.753" />
  <path d="M10.264 5.165a8.804 8.804 0 0 1 3.897.141" />
</svg>