<svg
  xmlns="http://www.w3.org/2000/svg"
  width="24"
  height="24"
  viewBox="0 0 24 24"
  fill="none"
  stroke="currentColor"
  stroke-width="2"
  stroke-linecap="round"
  stroke-linejoin="round"
>
  <path d="M18 6v4a2 2 0 0 0 4 0V6a4 4 0 0 0-6.85-2.8l-1 1c-.8-.1-1.5-.2-2.2-.2s-1.4.1-2.1.2l-1-1A4 4 0 0 0 2 6v4a2 2 0 0 0 4 0V6" />
  <path d="M10 10h.01" />
  <path d="M14 10h.01" />
  <path d="m5.5 11.3-1.3 1.4a3 3 0 1 0 7.5 6.6l3.1-3.7A1 1 0 0 0 14 14h-4a1 1 0 0 0-.7 1.7l3 3.6a3 3 0 1 0 7.5-6.6l-1.3-1.4" />
</svg>
