<svg width="24" height="24" viewBox="0 0 24 24" fill="none" xmlns="http://www.w3.org/2000/svg">
<path d="M11 5C10.5 3.5 8.8 2.2 6 3C2.5 4 1.5 8.5 1.5 9.5C1.5 10.2071 3.5 12 5.5 11.5C6.80609 11.1735 8.33333 8.33333 8.5 7.5" stroke="black" stroke-width="2" stroke-linecap="round" stroke-linejoin="round"/>
<path d="M13 5C13.5 3.5 15.2 2.2 18 3C21.5 4 22.5 8.5 22.5 9.5C22.5 10.2071 20.5 12 18.5 11.5C17.1939 11.1735 15.6667 8.33333 15.5 7.5" stroke="black" stroke-width="2" stroke-linecap="round" stroke-linejoin="round"/>
<path d="M8 14V14.5" stroke="black" stroke-width="2" stroke-linecap="round" stroke-linejoin="round"/>
<path d="M16 14V14.5" stroke="black" stroke-width="2" stroke-linecap="round" stroke-linejoin="round"/>
<path d="M11 17L13 17L12 18L11 17Z" stroke="black" stroke-width="2" stroke-linecap="round" stroke-linejoin="round"/>
<path d="M11 5.0526C11.3202 5.01796 11.6535 5 12 5C12.3465 5 12.6798 5.01796 13 5.0526M4.24794 12C4.07756 12.8652 4 13.7338 4 14.5556C4 18.7284 7.58172 21 12 21C16.4183 21 20 18.7284 20 14.5556C20 13.7338 19.9224 12.8652 19.7521 12" stroke="black" stroke-width="2" stroke-linecap="round" stroke-linejoin="round"/>
</svg>
