<svg width="24" height="24" fill="none" xmlns="http://www.w3.org/2000/svg"><path d="M10 5.172C10 3.782 8.423 2.679 6.5 3c-2.823.47-4.113 6.006-4 7 .08.703 1.725 1.722 3.656 1 1.261-.472 1.96-2.45 2.344-3.5m5.895-2.328c0-1.39 1.577-2.493 3.5-2.172 2.823.47 4.113 6.006 4 7-.08.703-1.725 1.722-3.656 1-1.261-.472-1.96-2.45-2.344-3.5M8 14v.5m8-.5v.5m-4.75 1.75h1.5L12 17l-.75-.75Z" stroke="#000" stroke-width="2" stroke-linecap="round" stroke-linejoin="round"/><path d="M4.42 11.247A13.152 13.152 0 0 0 4 14.556C4 18.728 7.582 21 12 21s8-2.272 8-6.444c0-1.061-.162-2.2-.493-3.309m-9.243-6.082A8.801 8.801 0 0 1 12 5c.78 0 1.5.108 2.161.306" stroke="#000" stroke-width="2" stroke-linecap="round" stroke-linejoin="round"/></svg>