<svg
  xmlns="http://www.w3.org/2000/svg"
  width="24"
  height="24"
  viewBox="0 0 24 24"
  fill="none"
  stroke="currentColor"
  stroke-width="2"
  stroke-linecap="round"
  stroke-linejoin="round"
>
  <path d="M10 21v-3a2 2 0 0 1 4 0v3" />
  <path d="M2 20q0 1 1 1" />
  <path d="M22 20q0 1-1 1" />
  <path d="M4 12a8 8 0 0 1 16 0" />
  <line x1="12" x2="12" y1="2" y2="5" />
  <line x1="17" x2="17" y1="12" y2="21" />
  <line x1="2" x2="2" y1="12" y2="20" />
  <line x1="2" x2="22" y1="12" y2="12" />
  <line x1="22" x2="22" y1="12" y2="20" />
  <line x1="3" x2="21" y1="21" y2="21" />
  <line x1="7" x2="7" y1="12" y2="21" />
</svg>
