<svg
  xmlns="http://www.w3.org/2000/svg"
  width="24"
  height="24"
  viewBox="0 0 24 24"
  fill="none"
  stroke="currentColor"
  stroke-width="2"
  stroke-linecap="round"
  stroke-linejoin="round"
>
  <path d="M 10 6h.01"/>
  <path d="M 14 11h.01"/>
  <path d="M 18 11h.01"/>
  <path d="M 6 6h.01"/>
  <path d="M22 10c0 9-4 12-6 12s-6-3-6-12c0-2 2-3 6-3s6 1 6 3"/>
  <path d="M13.9 7.1c.1-.6.1-1.3.1-2.1 0-2-2-3-6-3S2 3 2 5c0 9 4 12 6 12 .7 0 1.7-.4 2.7-1.3"/>
  <path d="M17.4 14.9c-.8.8-2 .8-2.8 0"/>
  <path d="M6.6 10.6c.8-.8 2-.8 2.8 0"/>
</svg>
