<svg
  xmlns="http://www.w3.org/2000/svg"
  width="24"
  height="24"
  viewBox="0 0 24 24"
  fill="none"
  stroke="currentColor"
  stroke-width="2"
  stroke-linecap="round"
  stroke-linejoin="round"
>
  <path d="M 10.41 8.09 A1.91 1.91 0 0 1 8.5 10" />
  <path d="M 13.09 8.09 A1.91 1.91 0 0 1 15 6.18" />
  <path d="M 15 10 A1.91 1.91 0 0 1 13.09 8.09" />
  <path d="M 15 20.5 L 15 10" />
  <path d="M 15 6.18 A1.91 1.91 0 0 1 16.908 8.18" />
  <path d="M 16.908 8.18 A1.91 1.91 0 0 1 15 10" />
  <path d="M 6.59 8.09 A1.91 1.91 0 0 1 8.5 6.18" />
  <path d="M 8.5 10 A1.91 1.91 0 0 1 6.59 8.09" />
  <path d="M 8.5 20.5 L 8.5 10" />
  <path d="M 8.5 6.18 A1.91 1.91 0 0 1 10.41 8.09" />
</svg>