<svg
  xmlns="http://www.w3.org/2000/svg"
  width="24"
  height="24"
  viewBox="0 0 24 24"
  fill="none"
  stroke="currentColor"
  stroke-width="2"
  stroke-linecap="round"
  stroke-linejoin="round"
>
  <path d="M12.5 8v.5" />
  <path d="M17.894 7.597a1 1 0 0 0-1.394.92v2.967a1 1 0 0 0 1.394.919l3.461-1.484c.808-.346.808-1.492 0-1.838z" />
  <path d="M18.75 7.5a5.5 5.5 0 1 0-9.275 4 .29.29 0 0 1-.2.5H2.313a.313.313 0 0 0-.313.313A4.69 4.69 0 0 0 6.688 17H10a1.5 1.5 0 0 0 1.5-1.5" />
  <path d="M3.5 16c0 3.314 3.358 6 7.5 6s8-2.686 8-6c0-2-1-3-2.158-3.75" />
</svg>
