<svg
  xmlns="http://www.w3.org/2000/svg"
  width="24"
  height="24"
  viewBox="0 0 24 24"
  fill="none"
  stroke="currentColor"
  stroke-width="2"
  stroke-linecap="round"
  stroke-linejoin="round"
>
  <path d="m2 2 20 20" />
  <path d="M6 18.5a3.5 3.5 0 1 0 7 0c0-1.57.92-2.52 2-3.5" />
  <path d="M6 8.5a6.58 6.58 0 0 1 .36-2.14" />
  <path d="M8.8 3.2A6.5 6.5 0 0 1 19 8.5a7.16 7.16 0 0 1-1.09 3.76" />
  <path d="M12.5 6A2.5 2.5 0 0 1 15 8.5" />
  <path d="M10 13a2 2 0 0 0 1.82-1.18" />
</svg>
