<svg
  xmlns="http://www.w3.org/2000/svg"
  width="24"
  height="24"
  viewBox="0 0 24 24"
  fill="none"
  stroke="currentColor"
  stroke-width="2"
  stroke-linecap="round"
  stroke-linejoin="round"
>
  <path d="M14.52 8c-.75-1.23-.45-2.12-.5-4" />
  <path d="M16 8c1.55-.15 1.89-1.12 2-3" />
  <path d="M16.6 16c-.48.95-1.51 1.39-1.6 3 0 1.98-1.47 2.98-2.96 3-1.49-.02-2.96-1.02-2.96-3-.09-1.61-1.12-2.05-1.6-3a5.6 5.6 0 0 1-.38-2.22c.03-3.1 0-3.8.96-4.77.65-.67 2.3-1 3.98-1 1.67 0 3.33.33 3.98 1 .96.97.93 1.67.96 4.77 0 .75-.12 1.72-.38 2.22" />
  <path d="M16.79 12.01c-1.66-.01-2.92.24-2.78 1" />
  <path d="M16.83 9.22c5.1-1.27 5.9 4.07.28 3.78" />
  <path d="M2 2c0 5.92 2.62 6 6.98 6" />
  <path d="M22 2c0 5.92-2.62 6-6.98 6" />
  <path d="M7.17 9.22c-5.1-1.27-5.9 4.07-.28 3.78" />
  <path d="M7.22 12c1.66-.02 2.92.24 2.78 1" />
  <path d="M8 8c-1.55-.15-1.89-1.12-2-3" />
  <path d="M9.48 8c.75-1.22.45-2.12.5-4" />
</svg>
