<svg
  xmlns="http://www.w3.org/2000/svg"
  width="24"
  height="24"
  viewBox="0 0 24 24"
  fill="none"
  stroke="currentColor"
  stroke-width="2"
  stroke-linecap="round"
  stroke-linejoin="round"
>
  <path d="M15 19c0 4-6 4-6 0-.09-1.61-.3-2.56-1.02-3.29-.53-.53-.97-1.18-.96-1.93.03-3.1 0-3.77.96-4.77 1.33-1.34 6.73-1.33 8.04 0 .96.97.93 1.67.96 4.77 0 .75-.43 1.4-.96 1.93-.72.73-.93 1.68-1.02 3.29" />
  <path d="M15.52 8c-.75-1.23-.46-2.12-.52-4" />
  <path d="M16.02 12c-1.66-.01-2.14.24-2 1" />
  <path d="M17.02 8c1-1 .94-1.12 1-3" />
  <path d="M17.37 9.15c3.25-.88 3.7 2.32.14 2.91" />
  <path d="M2 2c0 5.92 1.5 6 5.86 6" />
  <path d="M22.02 2c0 5.92-1.5 6-5.86 6" />
  <path d="M6.63 9.15c-3.25-.88-3.7 2.32-.14 2.91" />
  <path d="M7 8c-1-1-.94-1.12-1-3" />
  <path d="M8 12c1.66-.01 2.14.24 2 1" />
  <path d="M8.5 8c.75-1.23.44-2.12.5-4" />
</svg>