<svg
  xmlns="http://www.w3.org/2000/svg"
  width="24"
  height="24"
  viewBox="0 0 24 24"
  fill="none"
  stroke="currentColor"
  stroke-width="2"
  stroke-linecap="round"
  stroke-linejoin="round"
>
  <path d="M14.52 8c-.75-1.23-.45-2.12-.5-4" />
  <path d="M16 8c1.55-.15 1.89-1.12 2-3" />
  <path d="M16.6 16c-.48.95-1.52 1.39-1.6 3 0 1.98-1.5 2.98-3 3-1.5-.02-3-1.02-3-3-.08-1.61-1.12-2.05-1.6-3a5.6 5.6 0 0 1-.4-2.21c.03-3.1 0-3.8.97-4.77.65-.67 2.33-1 4.02-1s3.37.33 4.02 1c.97.97.94 1.67.97 4.77 0 .75-.12 1.72-.38 2.21" />
  <path d="M16.79 12.01c-1.66-.01-2.92.24-2.78 1" />
  <path d="M16.8 9.13c5.18-1 5.9 4.16.3 3.87" />
  <path d="M2 2c0 5.92 2.62 6 6.98 6" />
  <path d="M22 2c0 5.92-2.62 6-6.98 6" />
  <path d="M7.2 9.13c-5.18-1-5.9 4.16-.3 3.87" />
  <path d="M7.22 12c1.66-.02 2.92.24 2.78 1" />
  <path d="M8 8c-1.55-.15-1.89-1.12-2-3" />
  <path d="M9.48 8c.75-1.22.45-2.12.5-4" />
</svg>
