<svg
  xmlns="http://www.w3.org/2000/svg"
  width="24"
  height="24"
  viewBox="0 0 24 24"
  fill="none"
  stroke="currentColor"
  stroke-width="2"
  stroke-linecap="round"
  stroke-linejoin="round"
>
  <path d="M 10 12.5 A2 2 0 0 1 12 14.5" />
  <path d="M 14 16.5 A2 2 0 0 1 12 14.5" />
  <path d="M 16 14.5 A2 2 0 0 1 14 16.5" />
  <path d="M 8 14.5 A2 2 0 0 1 10 12.5" />
  <path d="M6.5 8a2 2 0 0 0-1.905 1.46L2.1 18.5A2 2 0 0 0 4 21h16a2 2 0 0 0 1.925-2.54L19.4 9.5A2 2 0 0 0 17.48 8Z" />
  <circle cx="12" cy="5" r="3" />
</svg>
