<svg
  xmlns="http://www.w3.org/2000/svg"
  width="24"
  height="24"
  viewBox="0 0 24 24"
  fill="none"
  stroke="currentColor"
  stroke-width="2"
  stroke-linecap="round"
  stroke-linejoin="round"
>
  <path d="M14.06 9.29 11 3.5H7a2 2 0 0 0-2 2v3.27A1 1 0 0 0 4.41 13h7.65a2 2 0 0 0 2-2zl2.21-5.26 4.17-1.95 1.45 9.7c0 1.5-1.29 2.7-2.89 2.7" />
  <path d="M18.99 14.48h-.63" />
  <path d="M9.5 13v4.5" />
  <path d="M9.681 49.1a8 8 0 0 0-6.64-3.6" />
  <rect x="2" y="17.5" width="15" height="4" rx="2" />
</svg>
