<svg
  xmlns="http://www.w3.org/2000/svg"
  width="24"
  height="24"
  viewBox="0 0 24 24"
  fill="none"
  stroke="currentColor"
  stroke-width="2"
  stroke-linecap="round"
  stroke-linejoin="round"
>
  <path d="M10.66 5.21 L6.2 5.21" />
  <path d="M11.49 5.66 A1 1 0 0 0 10.66 5.21" />
  <path d="M12.5 37.5 L12.1 41.4" />
  <path d="M12.83 8.47 L16.39 4.34" />
  <path d="M12.84 14.49 A1 1 0 0 0 13.84 13.49" />
  <path d="M13.67 10.23 L11.49 5.66" />
  <path d="M13.84 10.78 A1 1 0 0 0 13.67 10.23" />
  <path d="M13.84 13.49 L13.84 10.78" />
  <path d="M15 16.49 A2 2 0 0 1 17.1 18.59" />
  <path d="M15.2 20.49 L4 20.49" />
  <path d="M16.39 4.34 L13.67 10.23" />
  <path d="M17.1 18.59 A1.9 1.9 0 0 1 15.2 20.49" />
  <path d="M18.05 12.65 L19.7 14.99" />
  <path d="M19.7 14.99 L22 12.02" />
  <path d="M2.1 18.4 A1.9 1.9 0 0 1 4 16.5" />
  <path d="M2.2 11.49 L2.2 13.49" />
  <path d="M2.2 13.49 A1 1 0 0 0 3.2 14.49" />
  <path d="M20.13 3.15 L16.39 4.34" />
  <path d="M21.72 12.381 L20.13 3.15" />
  <path d="M22 12.02 L18.05 12.65" />
  <path d="M3.2 10.49 A1 1 0 0 0 2.2 11.49" />
  <path d="M3.2 14.49 L12.84 14.49" />
  <path d="M4 16.5 L15 16.50" />
  <path d="M4 20.49 A1.9 1.9 0 0 1 2.1 18.59" />
  <path d="M5.2 10.48 L3.2 10.49" />
  <path d="M5.2 6.21 L5.2 10.48" />
  <path d="M6.2 5.21 A1 1 0 0 0 5.2 6.21" />
</svg>
