<svg
  xmlns="http://www.w3.org/2000/svg"
  width="24"
  height="24"
  viewBox="0 0 24 24"
  fill="none"
  stroke="currentColor"
  stroke-width="2"
  stroke-linecap="round"
  stroke-linejoin="round"
>
  <path d="M15 12V7.2a2.8 2.8 0 0 0 3.7.3A1.9 1.9 0 1 0 20 4h-.2a2.9 2.9 0 0 0-5.3-.7 3 3 0 0 0-5 0 3 3 0 0 0-5.3.7H4a2 2 0 1 0 1.3 3.5A3.37 3.37 0 0 0 9 7.2V12" />
  <path d="M8 16h.01" />
  <path d="M16 16h.01" />
  <path d="M22 13a10.05 10 0 0 1-20 0c-.1-.5.4-1 1-1h18c.6 0 1 .4 1 1" />
  <circle cx="12" cy="20" r="2" />
</svg>
