<svg
  xmlns="http://www.w3.org/2000/svg"
  width="24"
  height="24"
  viewBox="0 0 24 24"
  fill="none"
  stroke="currentColor"
  stroke-width="2"
  stroke-linecap="round"
  stroke-linejoin="round"
>
  <path d="M22 12a7.85 7.85 0 0 1-3.7 6.6l-4 2.7a3.9 3.9 0 0 1-4.5 0l-4-2.7A7.57 7.57 0 0 1 2 12a10 10 0 0 1 20 0" />
  <path d="M10.7 11.3c-1.4-1.3-3.3-1.7-4.2-.8s-.5 2.8.8 4.2c1.4 1.4 3.2 1.8 4.2.8.9-.9.5-2.8-.8-4.2" />
  <path d="M17.5 10.5c-.9-.9-2.8-.5-4.2.8-1.4 1.4-1.8 3.2-.8 4.2.9.9 2.8.5 4.2-.8 1.3-1.4 1.7-3.3.8-4.2" />
</svg>
