<svg
  xmlns="http://www.w3.org/2000/svg"
  width="24"
  height="24"
  viewBox="0 0 24 24"
  fill="none"
  stroke="currentColor"
  stroke-width="2"
  stroke-linecap="round"
  stroke-linejoin="round"
>
  <path d="M4 22h14a2 2 0 0 0 2-2V7l-5-5H6a2 2 0 0 0-2 2v2" />
  <path d="M14 2v4a2 2 0 0 0 2 2h4" />
  <path d="M10.29 10.7a2.43 2.43 0 0 0-2.66-.52c-.29.12-.56.3-.78.53l-.35.34-.35-.34a2.43 2.43 0 0 0-2.65-.53c-.3.12-.56.3-.79.53-.95.94-1 2.53.2 3.74L6.5 18l3.6-3.55c1.2-1.21 1.14-2.8.19-3.74Z" />
</svg>
