<svg
  xmlns="http://www.w3.org/2000/svg"
  width="24"
  height="24"
  viewBox="0 0 24 24"
  fill="none"
  stroke="currentColor"
  stroke-width="2"
  stroke-linecap="round"
  stroke-linejoin="round"
>
  <path d="M12.85 22H18a2 2 0 0 0 2-2V8a2 2 0 0 0-.586-1.414l-4-4A2 2 0 0 0 14 2H6a2 2 0 0 0-2 2v6.35" />
  <path d="M14 2v4a2 2 0 0 0 2 2h4" />
  <path d="m2.305 19.53.923-.382" />
  <path d="m3.228 16.852-.924-.383" />
  <path d="m4.852 15.228-.383-.923" />
  <path d="m4.852 20.772-.383.924" />
  <path d="m7.148 15.228.383-.923" />
  <path d="m7.53 21.696-.382-.924" />
  <path d="m8.772 16.852.923-.383" />
  <path d="m8.772 19.148.923.383" />
  <circle cx="6" cy="18" r="3" />
</svg>
