<svg
  xmlns="http://www.w3.org/2000/svg"
  width="24"
  height="24"
  viewBox="0 0 24 24"
  fill="none"
  stroke="currentColor"
  stroke-width="2"
  stroke-linecap="round"
  stroke-linejoin="round"
>
  <circle cx="6" cy="13" r="3" />
  <path d="m8.9 15.7-.7-.6" />
  <path d="m3.8 10.9-.7-.6" />
  <path d="m3.3 15.9.6-.7" />
  <path d="M6.1 17v-1" />
  <path d="M5.9 10V9" />
  <path d="M2 13.1h1" />
  <path d="M9 12.9h1" />
  <path d="M14 2v6h6" />
  <path d="M4 5.5V4a2 2 0 0 1 2-2h8.5L20 7.5V20a2 2 0 0 1-2 2H6a2 2 0 0 1-2-1.5" />
  <path d="m8.7 10.1-.6.7" />
</svg>
