<svg
  xmlns="http://www.w3.org/2000/svg"
  width="24"
  height="24"
  viewBox="0 0 24 24"
  fill="none"
  stroke="currentColor"
  stroke-width="2"
  stroke-linecap="round"
  stroke-linejoin="round"
>
  <path d="M14 2v6h6" />
  <path d="M14.5 22H18a2 2 0 0 0 2-2V7.5L14.5 2H6a2 2 0 0 0-2 2v4" />
  <path d="M3 13.12a2.023 2.023 0 0 0-1 1.74v3.28a2.023 2.023 0 0 0 .97 1.74L6 21.7a1.96 1.96 0 0 0 2.03.01L11 19.88a2.023 2.023 0 0 0 1-1.74v-3.28a2.023 2.023 0 0 0-.97-1.74L8 11.3a1.97 1.97 0 0 0-2.03-.01Z" />
  <path d="M11.74 14.15 7 17l-4.74-2.85" />
  <path d="M7 17v5" />
</svg>