<svg
  xmlns="http://www.w3.org/2000/svg"
  width="24"
  height="24"
  viewBox="0 0 24 24"
  fill="none"
  stroke="currentColor"
  stroke-width="2"
  stroke-linecap="round"
  stroke-linejoin="round"
>
  <path d="M14.5 2H6a2 2 0 0 0-2 2v16a2 2 0 0 0 2 2h12a2 2 0 0 0 2-2V7.5L14.5 2z" />
  <circle cx="12" cy="13" r="3" />
  <path d="M12 9v1" />
  <path d="M12 16v1" />
  <path d="M16 13h-1" />
  <path d="M9 13H8" />
  <path d="m15 10-.88.88" />
  <path d="M9.88 15.12 9 16" />
  <path d="m15 16-.88-.88" />
  <path d="M9.88 10.88 9 10" />
</svg>
