<svg
  xmlns="http://www.w3.org/2000/svg"
  width="24"
  height="24"
  viewBox="0 0 24 24"
  fill="none"
  stroke="currentColor"
  stroke-width="2"
  stroke-linecap="round"
  stroke-linejoin="round"
>
  <path d="M15.941 22H18a2 2 0 0 0 2-2V8a2.4 2.4 0 0 0-.706-1.704l-3.588-3.588A2.4 2.4 0 0 0 14 2H6a2 2 0 0 0-2 2v3.512" />
  <path d="M14 2v5a1 1 0 0 0 1 1h5" />
  <path d="M4.017 11.512a6 6 0 1 0 8.466 8.475" />
  <path d="M9 16a1 1 0 0 1-1-1v-4c0-.552.45-1.008.995-.917a6 6 0 0 1 4.922 4.922c.091.544-.365.995-.917.995z" />
</svg>
