<svg
  xmlns="http://www.w3.org/2000/svg"
  width="24"
  height="24"
  viewBox="0 0 24 24"
  fill="none"
  stroke="currentColor"
  stroke-width="2"
  stroke-linecap="round"
  stroke-linejoin="round"
>
  <path d="M 10 13 L 10 20.001" />
  <path d="M 10 20.001 A1 1 0 0 0 10.553 20.895" />
  <path d="M 10.553 20.895 L 12.553 21.895" />
  <path d="M 12.553 21.895 A1 1 0 0 0 14 21.001" />
  <path d="M 13 3 L 2.5 3" />
  <path d="M 14 12.999 A2 2 0 0 1 14.473 11.708" />
  <path d="M 14 21.001 L 14 12.999" />
  <path d="M 14.473 11.708 L 15 11" />
  <path d="M 15.5 6 L 20.5 6" />
  <path d="M 18 3.5 L 18 8.5" />
  <path d="M 2.118 3.823 L 9.527 11.708" />
  <path d="M 2.5 3 A0.5 0.5 0 0 0 2.118 3.823" />
  <path d="M 9.527 11.708 A2 2 0 0 1 10 13" />
</svg>