<svg
  xmlns="http://www.w3.org/2000/svg"
  width="24"
  height="24"
  viewBox="0 0 24 24"
  fill="none"
  stroke="currentColor"
  stroke-width="2"
  stroke-linecap="round"
  stroke-linejoin="round"
>
  <path d="M2 12a10.03 10.03 0 0 1 18-6" />
  <path d="M5 19.5C5.5 18 6 15 6 12a6.055 6.055 0 0 1 .34-2" />
  <path d="M17.3 21c.11-.58.42-2.28.5-3" />
  <path d="M12 10a2 2 0 0 0-2 2c0 1.02-.1 2.51-.26 4" />
  <path d="M8.65 22c.21-.66.45-1.32.57-2" />
  <path d="M14 13.12c0 2.38 0 6.38-1 8.88" />
  <path d="M 2 16h0.01" />
  <path d="M21.8 16c.2-2 .131-5.354 0-6" />
  <path d="M9 6.8a6 6 0 0 1 9 5.196V14" />
</svg>