<svg
  xmlns="http://www.w3.org/2000/svg"
  width="24"
  height="24"
  viewBox="0 0 24 24"
  fill="none"
  stroke="currentColor"
  stroke-width="2"
  stroke-linecap="round"
  stroke-linejoin="round"
>
  <path d="M2 13a10 10 0 0 1 18-6m2 6a10.2 10.2 0 0 0-.2-2" />
  <path d="M18.5 21.5A63.46 63.46 0 0 1 18 13a6 6 0 0 0-9-5.2M5 19c.84-1.21 1-3.5 1-6a6 6 0 0 1 .34-2" />
  <path d="M14 14.12a45.12 45.12 0 0 0 .5 7.88M12 11a2 2 0 0 0-2 2c0 2.5 0 3.29-.31 4" />
  <path d="M8.75 22A2.29 2.29 0 0 0 9 21" />
</svg>
