<svg
  xmlns="http://www.w3.org/2000/svg"
  width="24"
  height="24"
  viewBox="0 0 24 24"
  fill="none"
  stroke="currentColor"
  stroke-width="2"
  stroke-linecap="round"
  stroke-linejoin="round"
>
  <path d="M16.95 18.657C15.637 20.157 13.857 21 12 21c-1.857 0-3.637-.843-4.95-2.343C5.738 17.157 5 15.122 5 13s.738-4.157 2.05-5.657c0 0 2.73 1.657 4.48 2.657 0-2-1.716-5 .459-7 1.762 2 3.59 2.777 4.961 4.343a8.132 8.132 0 011.52 2.594c.35.971.53 2.013.53 3.063a8.975 8.975 0 01-.531 3.062 8.13 8.13 0 01-1.52 2.595z" />
</svg>
