<svg
  xmlns="http://www.w3.org/2000/svg"
  width="24"
  height="24"
  viewBox="0 0 24 24"
  fill="none"
  stroke="currentColor"
  stroke-width="2"
  stroke-linecap="round"
  stroke-linejoin="round"
>
 <path d="M6.5 12c.94-3.465 4.942-6 8.5-6s6.06 2.535 7 6c-.94 3.466-3.442 6-7 6s-7.56-2.534-8.5-6Z"/>
 <path d="M18 12v.5"/>
 <path d="M16 17.93A9.881 9.881 0 0 1 14 12c0-2.244.777-4.3 2-5.93"/>
 <path d="M2.719 12C1.5 10.5 1.5 7 2.5 5.5 5.316 5.966 7.005 8 7 10.672M2.723 12c-1.218 1.5-1.218 5-.218 6.5 2.816-.466 4.504-2.5 4.5-5.172"/>
 <path d="M10.463 7.26C10.205 5.875 9.175 4.244 8 3h5.806a2 2 0 0 1 1.973 1.671l.232 1.395"/>
 <path d="m16.012 17.927-.234 1.402A2 2 0 0 1 13.806 21H9.5c1.102-1.166 1.429-2.62 1.489-3.98"/>
</svg>
