<svg
  xmlns="http://www.w3.org/2000/svg"
  width="24"
  height="24"
  viewBox="0 0 24 24"
  fill="none"
  stroke="currentColor"
  stroke-width="2"
  stroke-linecap="round"
  stroke-linejoin="round"
>
  <path d="M6.5 12c.94-3.46 4.94-6 8.5-6a7.35 7.35 0 0 1 7 6c-.94 3.47-3.44 6-7 6s-7.56-2.53-8.5-6" />
  <path d="M18 12v.5" />
  <path d="M11 17a5.96 5.96 0 0 1-1.5 4h4.3a2 2 0 0 0 1.98-1.67l.22-1.4a9.77 9.77 0 0 1 0-11.86l-.22-1.4A2 2 0 0 0 13.8 3H8a9.538 9.538 0 0 1 2.46 4.26" />
  <path d="M7 10.67C7 8 5.58 5.97 2.73 5.5c-1 1.5-1 5 .27 6.5-1.28 1.5-1.28 5-.27 6.5A4.84 4.84 0 0 0 7 13.33" />
</svg>