<svg
  xmlns="http://www.w3.org/2000/svg"
  width="24"
  height="24"
  viewBox="0 0 24 24"
  fill="none"
  stroke="currentColor"
  stroke-width="2"
  stroke-linecap="round"
  stroke-linejoin="round"
>
  <path d="M18 12v.5" />
  <path d="M17.5 17.5a9.117 9.117 0 0 1-11-5.5 7.356 7.356 0 0 1 2.121-3.38" />
  <path d="M12.065 6.5A7.35 7.35 0 0 1 22 12a9.592 9.592 0 0 1-1.413 3.058" />
  <path d="M7 10.67C7 8 5.58 5.97 2.73 5.5c-1 1.5-1 5 .27 6.5-1.28 1.5-1.28 5-.27 6.5A4.84 4.84 0 0 0 7 13.33" />
  <path d="M14.5 8.958A9.77 9.77 0 0 1 16 6.07l-.22-1.4A2 2 0 0 0 13.8 3H8.5" />
  <path d="M11 17a5.96 5.96 0 0 1-1.5 4h4.3a2 2 0 0 0 1.98-1.67l.22-1.4a9.77 9.77 0 0 1-1.728-3.618" />
  <path d="m2 2 20 20" />
</svg>