<svg
  xmlns="http://www.w3.org/2000/svg"
  width="24"
  height="24"
  viewBox="0 0 24 24"
  fill="none"
  stroke="currentColor"
  stroke-width="2"
  stroke-linecap="round"
  stroke-linejoin="round"
>
  <path d="M9 8h1" />
  <path d="M12 5v1" />
  <path d="M15 8h-1" />
  <circle cx="12" cy="8" r="2" />
  <path d="M12 11a3 3 0 1 1-3-3 3 3 0 1 1 3-3 3 3 0 1 1 3 3 3 3 0 1 1-3 3" />
  <path d="M12 10v12" />
  <path d="M12 22c-4.2 0-7-1.667-7-5 4.2 0 7 1.667 7 5" />
  <path d="M12 22c4.2 0 7-1.667 7-5-4.2 0-7 1.667-7 5" />
</svg>
