<svg
  xmlns="http://www.w3.org/2000/svg"
  width="24"
  height="24"
  viewBox="0 0 24 24"
  fill="none"
  stroke="currentColor"
  stroke-width="2"
  stroke-linecap="round"
  stroke-linejoin="round"
>
  <path d="M16 15.057A3 2.944 0 0 1 13 18a3 2.944 0 0 1-3-2.943 3 2.944 0 0 1 6 0" />
  <path d="M17 22a4 4 0 0 0-8 0" />
  <path d="M22 22c0-1.76-.877-3.215-2-4 1.6-1.117 1.706-3.703 0-5" />
  <path d="M5 20H4a2 2 0 0 1-2-2V5a2 2 0 0 1 2-2h3.9a2 2 0 0 1 1.69.9l.81 1.2a2 2 0 0 0 1.67.9H20a2 2 0 0 1 2 2v1.5" />
</svg>