<svg
  xmlns="http://www.w3.org/2000/svg"
  width="24"
  height="24"
  viewBox="0 0 24 24"
  fill="none"
  stroke="currentColor"
  stroke-width="2"
  stroke-linecap="round"
  stroke-linejoin="round"
>
  <circle cx="13" cy="12." r="2" />
  <circle cx="20" cy="19" r="2" />
  <path d="M22 13V8a1.974 1.974 0 0 0-2-2h-7.9a2.389 2.389 0 0 1-.9-.2 2.336 2.336 0 0 1-.7-.7l-.9-1.2a2.336 2.336 0 0 0-.7-.7c-.3-.1-.6-.2-1-.2H4a1.974 1.974 0 0 0-2 2v13a2.006 2.006 0 0 0 2 2h5" />
  <path d="M18 19c-2.8 0-5-2.2-5-5v8" />
</svg>