<svg
  xmlns="http://www.w3.org/2000/svg"
  width="24"
  height="24"
  viewBox="0 0 24 24"
  fill="none"
  stroke="currentColor"
  stroke-width="2"
  stroke-linecap="round"
  stroke-linejoin="round"
>
  <path d="M10.3 20H4a2 2 0 0 1-2-2V5a2 2 0 0 1 2-2h3.98a2 2 0 0 1 1.69.9l.66 1.2A2 2 0 0 0 12 6h8a2 2 0 0 1 2 2v3.3" />
  <path d="M14 18h1" />
  <path d="m15.879 15.879-.707-.707" />
  <path d="m15.879 20.121-.707.707" />
  <path d="M18 15v-1" />
  <path d="M18 22v-1" />
  <path d="m20.121 15.879.707-.707" />
  <path d="m20.121 20.121.707.707" />
  <path d="M21 18h1" />
  <circle cx="18" cy="18" r="3" />
</svg>
