<svg
  xmlns="http://www.w3.org/2000/svg"
  width="24"
  height="24"
  viewBox="0 0 24 24"
  fill="none"
  stroke="currentColor"
  stroke-width="2"
  stroke-linecap="round"
  stroke-linejoin="round"
>
  <circle cx="18" cy="18" r="3" />
  <path d="M10.5 20H4a2 2 0 0 1-2-2V5a2.006 2.006 0 0 1 2-2h3.93a2 2 0 0 1 1.66.9l.81 1.2a2 2 0 0 0 1.67.9H20a2 2 0 0 1 2 2v3" />
  <path d="M18 14v1" />
  <path d="M18 21v1" />
  <path d="M22 18h-1" />
  <path d="M15 18h-1" />
  <path d="m21 15-.88.88" />
  <path d="M15.88 20.12 15 21" />
  <path d="m21 21-.88-.88" />
  <path d="M15.88 15.88 15 15" />
</svg>
