<svg
  xmlns="http://www.w3.org/2000/svg"
  width="24"
  height="24"
  viewBox="0 0 24 24"
  fill="none"
  stroke="currentColor"
  stroke-width="2"
  stroke-linecap="round"
  stroke-linejoin="round"
>
  <path d="M13 10a1 1 0 0 1-1-1V4a1 1 0 0 1 1-1h2a1 1 0 0 1 .8.4l.9 1.2a1 1 0 0 0 .8.4H20a1 1 0 0 1 1 1v3a1 1 0 0 1-1 1Z" />
  <path d="M13 21a1 1 0 0 1-1-1v-5a1 1 0 0 1 1-1h1.88a1 1 0 0 1 .9.55l.44.9a1 1 0 0 0 .9.55H20a1 1 0 0 1 1 1v3a1 1 0 0 1-1 1Z" />
  <path d="M3 5a2.006 2.006 0 0 0 2 2h3" />
  <path d="M3 3v13a2.006 2.006 0 0 0 2 2h3" />
</svg>