<svg
  xmlns="http://www.w3.org/2000/svg"
  width="24"
  height="24"
  viewBox="0 0 24 24"
  fill="none"
  stroke="currentColor"
  stroke-width="2"
  stroke-linecap="round"
  stroke-linejoin="round"
>
  <circle cx="18" cy="18" r="3" />
  <path d="M10.5 20H4a2 2 0 0 1-2-2V5a2 2 0 0 1 2-2h3.9a2 2 0 0 1 1.69.9l.81 1.2a2 2 0 0 0 1.67.9H20a2 2 0 0 1 2 2v3" />
  <path d="M18 14v1" />
  <path d="M18 21v1" />
  <path d="M22 18h-1" />
  <path d="M15 18h-1" />
  <path d="m21 15-.9.9" />
  <path d="m15.9 20.1-.9.9" />
  <path d="m21 21-.9-.9" />
  <path d="M15.9 15.9 15 15" />
</svg>
