<svg
  xmlns="http://www.w3.org/2000/svg"
  width="24"
  height="24"
  viewBox="0 0 24 24"
  fill="none"
  stroke="currentColor"
  stroke-width="2"
  stroke-linecap="round"
  stroke-linejoin="round"
>
  <path d="M4 16a2 2 0 1 0 4 0v-1.82c0-3.02 2-5.57 2-8.68C10 3.8 9.37 2 7.5 2 4.49 2 3.03 5.28 3 8c-.03 2.5 1 3.5 1 5.62Z" />
  <path d="M20 20a2 2 0 1 1-4 0v-1.82c0-3.02-2-5.57-2-8.68 0-1.7.63-3.5 2.5-3.5 3.01 0 4.47 3.28 4.5 6 .03 2.5-1 3.5-1 5.62Z" />
  <path d="M16 17h4" />
  <path d="M4 13h4" />
</svg>