<svg
  xmlns="http://www.w3.org/2000/svg"
  width="24"
  height="24"
  viewBox="0 0 24 24"
  fill="none"
  stroke="currentColor"
  stroke-width="2"
  stroke-linecap="round"
  stroke-linejoin="round"
>
  <path d="M21 3c-.8-.8-3-1.2-5.8-.9s-6 1.6-8.8 4.4-4 6-4.4 8.8.1 5 .9 5.8 3 1.2 5.8.9 6-1.6 8.8-4.4 4-6 4.4-8.8-.1-5-.9-5.8" />
  <path d="M6.4 17.6 9 15" />
  <path d="M8.7 21.9c-.8-3.3-3.4-5.8-6.7-6.7" />
  <path d="m8.1 13.9 2 2" />
  <path d="m11 11 2 2" />
  <path d="m13.9 8.1 2 2" />
  <path d="M15.3 2.1c.8 3.3 3.4 5.8 6.6 6.6" />
  <path d="m15 9 2.6-2.6" />
</svg>
