<svg
  xmlns="http://www.w3.org/2000/svg"
  width="24"
  height="24"
  viewBox="0 0 24 24"
  fill="none"
  stroke="currentColor"
  stroke-width="2"
  stroke-linecap="round"
  stroke-linejoin="round"
>
  <path d="M19.9 8.3C20.6 7 21 5.6 21 4c0-.6-.4-1-1-1-2.3 0-4.3.8-5.9 2.2a14.92 14.92 0 0 0-4.2 0A8.78 8.78 0 0 0 4 3c-.6 0-1 .4-1 1 0 1.6.4 3 1.1 4.3-.6.7-1.1 1.4-1.4 2.2C4 13 11 16 12 16s8-3 9.3-5.5c-.3-.8-.8-1.5-1.4-2.2" />
  <path d="M9 9v.5" />
  <path d="M13 13h-2" />
  <path d="M12 16v-3" />
  <path d="M15 9v.5" />
  <path d="M6.3 20.5A6.87 6.87 0 0 0 9 15H2.2c.8 4 4.9 7 9.8 7 5.5 0 10-3.8 10-8.5 0-1.1-.2-2.1-.7-3" />
</svg>
