<svg
  xmlns="http://www.w3.org/2000/svg"
  width="24"
  height="24"
  viewBox="0 0 24 24"
  fill="none"
  stroke="currentColor"
  stroke-width="2"
  stroke-linecap="round"
  stroke-linejoin="round"
>
  <path d="M6 7h.01" />
  <circle cx="6" cy="7" r="4" />
  <path d="M14.4 5.3a10 10 0 0 0-4.8 0" />
  <circle cx="18" cy="7" r="4" />
  <path d="M18 7h.01" />
  <path d="M22 13.5C22 16 17.5 18 12 18S2 16 2 13.5" />
  <path d="M10 14h.01" />
  <path d="M14 14h.01" />
  <path d="M3.1 9.75A7 7 0 0 0 2 13.5C2 18.2 6.5 22 12 22s10-3.8 10-8.5a7 7 0 0 0-1.1-3.75" />
</svg>
