<svg
  xmlns="http://www.w3.org/2000/svg"
  width="24"
  height="24"
  viewBox="0 0 24 24"
  fill="none"
  stroke="currentColor"
  stroke-width="2"
  stroke-linecap="round"
  stroke-linejoin="round"
>
  <path d="M 15 12h0.01" />
  <path d="M 18 10h0.01" />
  <path d="M6 11h4" />
  <path d="M8 9v4" />
  <path d="M17.32 5a4 4 0 0 1 3.978 3.591A98.18 98.18 0 0 1 22 16a3 3 0 0 1-5 2l-1.414-1.414A2 2 0 0 0 14.172 16H9.828a2 2 0 0 0-1.414.586L7 18c-.5.5-1 1-2 1a3 3 0 0 1-3-3c0-1.544.604-6.584.685-7.258l.017-.142A4 4 0 0 1 6.68 5Z" />
</svg>