<svg xmlns="http://www.w3.org/2000/svg" width="24" height="24" viewBox="0 0 24 24" fill="none" stroke="currentColor" stroke-width="2" stroke-linecap="round" stroke-linejoin="round">
  <path d="M12 20a8 8 0 1 0-16 0 8 8 0 0 0 16 0z"/>
  <path d="M12 14a2 2 0 1 0 0-4 2 2 0 0 0 0 4z"/>
  <path d="M12 2v2"/>
  <path d="M12 22v-2"/>
  <path d="m17 20.66-1-1.73"/>
  <path d="m11 10.27 1 1.73"/>
  <path d="m7 20.66 1-1.73"/>
  <path d="m13 10.27-1 1.73"/>
  <path d="M4 12H2"/>
  <path d="M22 12h-2"/>
  <path d="m17 3.34 1 1.73"/>
  <path d="m11 13.73-1-1.73"/>
  <path d="m7 3.34-1 1.73"/>
  <path d="m13 13.73 1-1.73"/>
  <rect x="18" y="11" width="4" height="6" rx="1"/>
  <path d="M20 11V9a2 2 0 0 0-2-2h0a2 2 0 0 0-2 2v2"/>
</svg>
