<svg id="Layer_1" data-name="Layer 1" xmlns="http://www.w3.org/2000/svg" viewBox="0 0 24 24"><defs><style>.cls-1{fill:none;stroke:#000;stroke-linecap:round;stroke-linejoin:round;stroke-width:2px;}</style></defs><path class="cls-1" d="M21.87,8.93l-4-6.65h0a.44.44,0,0,0-.16-.17l-.06,0-.11,0H6.44l-.1,0-.06,0a.44.44,0,0,0-.16.17h0l-4,6.65a.61.61,0,0,0,0,.67l9.45,12.18a.24.24,0,0,0,.08.06l.06.06a.46.46,0,0,0,.48,0l.06-.06.08-.06L21.83,9.6a.61.61,0,0,0,0-.67Z"/><polyline class="cls-1" points="2.06 9.46 7.56 9.46 16.54 9.46 21.95 9.46"/><polyline class="cls-1" points="6.67 3.07 7.57 9.45 12 21.97"/><line class="cls-1" x1="12.01" y1="2.2" x2="7.56" y2="9.45"/><polyline class="cls-1" points="17.46 2.86 16.54 9.45 12.11 21.97"/><line class="cls-1" x1="16.54" y1="9.45" x2="12.25" y2="2.26"/></svg>