<svg
  xmlns="http://www.w3.org/2000/svg"
  width="24"
  height="24"
  viewBox="0 0 24 24"
  fill="none"
  stroke="currentColor"
  stroke-width="2"
  stroke-linecap="round"
  stroke-linejoin="round"
>
  <path d="m11 2 .925 1.848" />
  <path d="M12 14h.01" />
  <path d="M13.424 7.769a2 2 0 1 1 2.807 2.807" />
  <path d="m15 20-.956-1.913" />
  <path d="m19 2-1 1.804" />
  <path d="m19.086 13.416.157-.173a6 6 0 1 0-8.655-8.308" />
  <path d="m2 19 2.746-1.373" />
  <path d="m2 2 20 20" />
  <path d="m22 16-2.757-2.757" />
  <path d="m22 5-1.804 1" />
  <path d="m3 9 2.464 2.464" />
  <path d="M8 15h.01" />
  <path d="M8.539 8.54a8.8 8.8 0 0 1-2.221 2.24 5 5 0 0 0 5.182 8.55c.871-.366 2.823-1.768 4.609-3.224" />
  <path d="M9 20v2" />
</svg>
