<svg
  xmlns="http://www.w3.org/2000/svg"
  width="24"
  height="24"
  viewBox="0 0 24 24"
  fill="none"
  stroke="currentColor"
  stroke-width="2"
  stroke-linecap="round"
  stroke-linejoin="round"
>
  <path d="M11.146 19.854a1.207 1.207 0 0 1 1.708 0l.792.792a1.207 1.207 0 0 0 1.708 0l.792-.792a1.207 1.207 0 0 1 1.708 0l.94.94A.707.707 0 0 0 20 20.293V10a8 8 0 0 0-16 0v10.293a.707.707 0 0 0 1.207.5l.94-.94a1.207 1.207 0 0 1 1.707.001l.792.792a1.207 1.207 0 0 0 1.708 0z" />
  <path d="M15 10h.01" />
  <path d="M9 10h.01" />
</svg>
