<svg
  xmlns="http://www.w3.org/2000/svg"
  width="24"
  height="24"
  viewBox="0 0 24 24"
  fill="none"
  stroke="currentColor"
  stroke-width="2"
  stroke-linecap="round"
  stroke-linejoin="round"
>
<path d="M14 7V16"/>
<path d="M18 7V16"/>
<path d="M18 7H22"/>
<path d="M18 12H22"/>
<path d="M10 14.2581C9.38791 15.0472 8.58641 15.6103 7.61911 15.8586C6.65181 16.107 5.62938 16.0265 4.71284 15.6299C3.7963 15.2333 3.03774 14.543 2.55663 13.6679C2.07551 12.7928 1.89918 11.7824 2.05541 10.7961C2.21164 9.80967 2.69154 8.90329 3.41954 8.21965C4.14755 7.53601 5.08228 7.11396 6.07652 7.01998C7.07076 6.92599 8.06802 7.16541 8.91123 7.70053"/>
<path d="M10 16V12H7"/>
</svg>
