<svg
  xmlns="http://www.w3.org/2000/svg"
  width="24"
  height="24"
  viewBox="0 0 24 24"
  fill="none"
  stroke="currentColor"
  stroke-width="2"
  stroke-linecap="round"
  stroke-linejoin="round"
>
  <path d="M12 11C12 12.177 11.5848 13.3163 10.8274 14.2173C10.0701 15.1183 9.01913 15.7232 7.85965 15.9255C6.70016 16.1279 5.50645 15.9147 4.48867 15.3236C3.47089 14.7324 2.6943 13.8011 2.2956 12.6937C1.8969 11.5863 1.90166 10.3737 2.30904 9.26941C2.71643 8.16515 3.50032 7.24 4.52271 6.65684C5.5451 6.07368 6.74044 5.86989 7.8983 6.08136C9.05616 6.29282 10.1023 6.90597 10.8526 7.81288"/>
  <path d="M15 6V16"/>
  <path d="M18 6V16"/>
  <path d="M18 6H22"/>
  <path d="M18 11H22"/>
  <path d="M8 11H12"/>
</svg>
