<svg
  xmlns="http://www.w3.org/2000/svg"
  width="24"
  height="24"
  viewBox="0 0 24 24"
  fill="none"
  stroke="currentColor"
  stroke-width="2"
  stroke-linecap="round"
  stroke-linejoin="round"
>
  <path d="M12.004 12.004H1.987" />
  <path d="M15.496 15.751a14.5 14.5 0 0 1-3.507 6.253A14.5 14.5 0 0 1 8.378 8.668" />
  <path d="M15.82 9.807a14.5 14.5 0 0 0-3.832-7.803 14.5 14.5 0 0 0-1.81 2.336" />
  <path d="M19.08 19.08A1 1 0 0 1 4.92 4.92" />
  <path d="m2 2 20 20" />
  <path d="M21.988 12.004h-4.123" />
  <path d="M8.352 2.69a10 10 0 0 1 12.95 12.959" />
</svg>
