<?xml version="1.0" encoding="UTF-8"?><svg id="uuid-1635e909-385d-4f78-a774-8bae9d2cf16d" xmlns="http://www.w3.org/2000/svg" width="24" height="24" viewBox="0 0 24 24"><path d="M20.55,10.2c.29,.88,.45,1.82,.45,2.8,0,4.97-4.03,9-9,9S3,17.97,3,13c0-3.53,2.04-6.59,5-8.06" fill="none" fill-rule="evenodd" stroke="#000" stroke-linecap="round" stroke-linejoin="round" stroke-width="2"/><path d="M8,10c-.63,.83-1,1.87-1,3,0,2.76,2.24,5,5,5s5-2.24,5-5c0-.33-.03-.66-.1-.98" fill="none" fill-rule="evenodd" stroke="#000" stroke-linecap="round" stroke-linejoin="round" stroke-width="2"/><polygon points="20 6 12 10 12 2 20 6" fill="none" stroke="#000" stroke-linecap="round" stroke-linejoin="round" stroke-width="2"/><line x1="12" y1="13" x2="12" y2="10" fill="none" stroke="#000" stroke-linecap="round" stroke-linejoin="round" stroke-width="2"/></svg>