<svg
  xmlns="http://www.w3.org/2000/svg"
  width="24"
  height="24"
  viewBox="0 0 24 24"
  fill="none"
  stroke="currentColor"
  stroke-width="2"
  stroke-linecap="round"
  stroke-linejoin="round"
>
  <path d="m15 12-8.501 8.501c-0.828 0.828-2.17 0.828-2.998 0-1e-3 -1e-3 -1e-3 -1e-3 -2e-3 -0-0.828-0.828-0.828-2.17 0-2.998l8.501-8.501"/>
  <path d="m17.644 15 4.3557-4.3637"/>
  <path d="m20.911 11.7s-0.65662-0.6578-1.249-1.2512c-0.59455-0.5957-0.92885-1.403-0.92885-2.2451v-0.8673s-1.4886-1.4913-2.7256-2.7306c-1.0432-1.045-2.4599-1.633-3.9375-1.633h-3.0697s0.40508 0.36 0.91796 0.8149c1.3241 1.1738 2.082 2.8581 2.082 4.6265v1.5589l1.9993 1.9997h2.4664l2.2671 1.9091"/>
</svg>
