<svg
  xmlns="http://www.w3.org/2000/svg"
  width="24"
  height="24"
  viewBox="0 0 24 24"
  fill="none"
  stroke="currentColor"
  stroke-width="2"
  stroke-linecap="round"
  stroke-linejoin="round"
>
  <path d="M15.217 12l-9.333 9.332a2.272 2.272 0 01-3.71-.738 2.273 2.273 0 01.493-2.479L11.283 9.5" />
  <path d="M17.64 15L22 10.64" />
  <path d="M21 11.613l-1.364-1.375a3.491 3.491 0 01-1.015-2.474v-.946l-2.97-3.014A6.067 6.067 0 0013.68 2.47 6.03 6.03 0 0011.35 2H8l1.004.902a6.794 6.794 0 011.676 2.295c.391.876.594 1.826.595 2.787v1.715l2.183 2.2h2.696L18.62 14" />
</svg>
