<svg
  xmlns="http://www.w3.org/2000/svg"
  width="24"
  height="24"
  viewBox="0 0 24 24"
  fill="none"
  stroke="currentColor"
  stroke-width="2"
  stroke-linecap="round"
  stroke-linejoin="round"
>
  <path d="m14.5 10.5-2 2a2.12 2.12 0 1 1-3-3l2.44-2.44a3.62 3.62 0 0 1 5.12 0l.08.08a2.93 2.93 0 0 0 2.07.86H22v9" />
  <path d="M14.5 6H7.83a2 2 0 0 0-1.42.59l-.82.82A2 2 0 0 1 4.17 8H2v9" />
  <path d="M2 16h2.21a2 2 0 0 1 1.37.54l2 1.86a2 2 0 0 0 2.92-.08 2 2 0 0 0 3.39-.66A2 2 0 0 0 17 16c0-.74-.23-1.2-1-2" />
  <path d="M22 16h-3.17a2 2 0 0 1-1.42-.59L13.5 11.5" />
</svg>
