<svg
  xmlns="http://www.w3.org/2000/svg"
  width="24"
  height="24"
  viewBox="0 0 24 24"
  fill="none"
  stroke="currentColor"
  stroke-width="2"
  stroke-linecap="round"
  stroke-linejoin="round"
>
  <path d="m21 3 1 11-6.5 6.5c-.83.83-2.17.83-3 0v0a2.12 2.12 0 0 1 0-3l.5-.5" />
  <path d="m13 17-2 2c-.83.83-2.17.83-3 0v0a2.12 2.12 0 0 1 0-3l2-2" />
  <path d="m10 14-2.5 2.5a2.12 2.12 0 0 1-3-3l3.88-3.88a3 3 0 0 1 4.24 0l.97.97a2 2 0 0 0 2.82 0l.18-.18a2 2 0 0 0 0-2.82l-2.9-2.9a5.79 5.79 0 0 0-7.06-.87l-.47.28a2 2 0 0 1-1.42.25L3 4" />
  <path d="M21 4h-8" />
  <path d="M3 3 2 14h2" />
</svg>
