<svg
  xmlns="http://www.w3.org/2000/svg"
  width="24"
  height="24"
  viewBox="0 0 24 24"
  fill="none"
  stroke="currentColor"
  stroke-width="2"
  stroke-linecap="round"
  stroke-linejoin="round"
>
  <path d="m11 17 2 2a1 1 0 1 0 3-3" />
  <path d="M11 4H3.905a1 1 0 0 0-.995.9l-.816 8.157a2 2 0 0 0 .576 1.613L8.5 20.5a1 1 0 1 0 3-3" />
  <path d="m14 14 2.5 2.5a1 1 0 1 0 3-3l-3.88-3.88a3 3 0 0 0-4.24 0l-.88.88a1 1 0 1 1-3-3l2.81-2.81a5.79 5.79 0 0 1 7.06-.87l.47.28a2 2 0 0 0 1.42.25l.658-.132a1 1 0 0 1 1.192.88l.78 7.802a1 1 0 0 1-.995 1.1H20" />
</svg>
