<svg
  xmlns="http://www.w3.org/2000/svg"
  width="24"
  height="24"
  viewBox="0 0 24 24"
  fill="none"
  stroke="currentColor"
  stroke-width="2"
  stroke-linecap="round"
  stroke-linejoin="round"
>
  <path d="M 20.42 3.58 v 1.39" />
  <path d="M 15.47 5.07 h 6.34" />
  <path d="M 10.91 13.98 h 1.98 c 1.09 0.0 1.98 -0.89 1.98 -1.98 s -0.89 -1.98 -1.98 -1.98 h -2.97 c -0.59 0.0 -1.09 0.2 -1.39 0.59 l -5.54 5.35" />
  <path d="M 6.95 19.92 l 1.58 -1.39 c 0.3 -0.4 0.79 -0.59 1.39 -0.59 h 3.96 c 1.09 0.0 2.08 -0.4 2.77 -1.19 l 4.55 -4.36 c 0.79 -0.79 0.79 -1.98 0.0 -2.77 s -1.98 -0.79 -2.77 0.0 l -4.16 3.86" />
  <path d="M 2.0 14.97 l 5.94 5.94" />
  <circle cx="13.39" cy="5.07" r="1.98" />
</svg>