<svg
  xmlns="http://www.w3.org/2000/svg"
  width="24"
  height="24"
  viewBox="0 0 24 24"
  fill="none"
  stroke="currentColor"
  stroke-width="2"
  stroke-linecap="round"
  stroke-linejoin="round"
>
  <path d="m2.0 18.0c0 0.265 0.105 0.52 0.293 0.707 0.187 0.188 0.442 0.293 0.707 0.293h18c0.265 0 0.52-0.105 0.707-0.293 0.188-0.187 0.293-0.442 0.293-0.707v-2c0-0.265-0.105-0.52-0.293-0.707-0.187-0.188-0.442-0.293-0.707-0.293h-18c-0.265 0-0.52 0.105-0.707 0.293-0.188 0.187-0.293 0.442-0.293 0.707v2z"/>
  <path d="m10.0 10.0v-5c0-0.265 0.105-0.52 0.293-0.707 0.187-0.188 0.442-0.293 0.707-0.293h2c0.265 0 0.52 0.105 0.707 0.293 0.188 0.187 0.293 0.442 0.293 0.707v5"/>
  <path d="m4.0 15.0v-3.002c0-1.591 0.632-3.116 1.757-4.241s2.65-1.757 4.241-1.757h2e-3"/>
  <path d="m14.0 6.0h2e-3c1.591 0 3.116 0.632 4.241 1.757s1.757 2.65 1.757 4.241v3.002"/>
</svg>
