<svg
  xmlns="http://www.w3.org/2000/svg"
  width="24"
  height="24"
  viewBox="0 0 24 24"
  fill="none"
  stroke="currentColor"
  stroke-width="2"
  stroke-linecap="round"
  stroke-linejoin="round"
>
  <path d="M19.123 13.603c1.92 1.645 3.016 4.113 3.016 4.113-1.097 0-4.388-1.645-9.324 1.097-3.948 2.413-6.215-1.407-6.855-3.619-1.765.266-3.738.182-3.84-.494-.548-3.657.494-10.914 9.05-10.695 6.856.176 8.867 6.49 7.953 9.598-4.14.258-5.156-.313-10.972 1.097-.272-4.114-.052-8.062 3.02-10.695" />
  <path d="M8.151 14.7a77 77 0 0 0-1.094.274 11 11 0 0 1-1.097.22" />
</svg>
