<svg xmlns="http://www.w3.org/2000/svg" width="24" height="24" viewBox="0 0 24 24" fill="none" stroke="currentColor" stroke-width="2" stroke-linecap="round" stroke-linejoin="round">
  <path d="M3 18v-6a9 9 0 0 1 18 0v6"/>
  <path d="M21 19a2 2 0 0 1-2 2h-1a2 2 0 0 1-2-2v-3a2 2 0 0 1 2-2h3zM3 19a2 2 0 0 0 2 2h1a2 2 0 0 0 2-2v-3a2 2 0 0 0-2-2H3z"/>
  <path d="M12 12a3 3 0 0 0-3 3v6"/>
  <path d="M12 12a3 3 0 0 1 3 3v6"/>
  <rect x="9" y="5" width="6" height="8" rx="2"/>
  <line x1="12" y1="13" x2="12" y2="17"/>
</svg>
