<svg
  xmlns="http://www.w3.org/2000/svg"
  width="24"
  height="24"
  viewBox="0 0 24 24"
  fill="none"
  stroke="currentColor"
  stroke-width="2"
  stroke-linecap="round"
  stroke-linejoin="round"
>
  <path d="M3 14H6"/>
  <path d="M6 14C6.53043 14 7.03914 14.2107 7.41421 14.5858"/>
  <path d="M7.41421 14.5858C7.78929 14.9609 8 15.4696 8 16"/>
  <path d="M8 16V19"/>
  <path d="M8 19C8 19.5304 7.78929 20.0391 7.41421 20.4142"/>
  <path d="M7.41421 20.4142C7.03914 20.7893 6.53043 21 6 21"/>
  <path d="M6 21H5"/>
  <path d="M5 21C4.46957 21 3.96086 20.7893 3.58579 20.4142"/>
  <path d="M3.58579 20.4142C3.21071 20.0391 3 19.5304 3 19"/>
  <path d="M3 19V12"/>
  <path d="M3 12C3 9.61305 3.94821 7.32387 5.63604 5.63604"/>
  <path d="M20.4142 20.4142C20.0391 20.7893 19.5304 21 19 21"/>
  <path d="M19 21H18"/>
  <path d="M18 21C17.4696 21 16.9609 20.7893 16.5858 20.4142"/>
  <path d="M16.5858 20.4142C16.2107 20.0391 16 19.5304 16 19"/>
  <path d="M16 19V16"/>
  <path d="M20 14H21"/>
  <path d="M21 14V12"/>
  <path d="M21 12C21 9.61305 20.0518 7.32387 18.364 5.63604"/>
  <path d="M18.364 5.63604C16.6761 3.94821 14.3869 3 12 3"/>
  <path d="M12 3C11.5 3 10.5 3 9 3.5"/>
  <path d="M21 14V15"/>

  <path d="M2 2L22 22"/>
</svg>