<svg
  xmlns="http://www.w3.org/2000/svg"
  width="24"
  height="24"
  viewBox="0 0 24 24"
  fill="none"
  stroke="currentColor"
  stroke-width="2"
  stroke-linecap="round"
  stroke-linejoin="round"
>
  <path d="M19.414 14.414C21 12.828 22 12 22 9.5A5.5 5.5 0 0 0 16.5 4c-1.761.002-3.001.5-4.501 2L9.04 8.96a1 1 0 1 0 3 3.15l2.07-1.9a2.82 2.82 0 0 1 3.79 0l1.514 1.376a2 2 0 0 1-2.74 2.911.127.127 0 0 0-.177.177 2 2 0 0 1-2.823 2.823.127.127 0 0 0-.177.177A2 2 0 0 1 12 21c-.552 0-1.207-.207-2-1l-5.002-5c-1.5-1.45-2.999-3.2-3-5.5A5.5 5.5 0 0 1 7.5 4.001c1.761.002 3 .501 4.499 1.999" />
</svg>
