<svg
  xmlns="http://www.w3.org/2000/svg"
  width="24"
  height="24"
  viewBox="0 0 24 24"
  fill="none"
  stroke="currentColor"
  stroke-width="2"
  stroke-linecap="round"
  stroke-linejoin="round"
>
  <path d="M19.1,14.1L12,21l-7.1-6.9C3.4,12.6,2,10.8,2,8.5C2,5.5,4.5,3,7.5,3C9.3,3,11,3.9,12,5.3 c1.7-2.5,5.2-3.1,7.7-1.3C21.1,5,22,6.7,22,8.5C22,10.8,20.6,12.6,19.1,14.1z" />
  <path d="M12,5.4L8.9,8.5c-0.8,0.8-0.8,2.2,0,3l0,0c0.8,0.8,2.2,0.8,3,0l2.3-2.2c1.2-1.2,3.1-1.2,4.2,0l2.6,2.6" />
  <path d="M18.1,15.1L16,13" />
  <path d="M15,18l-2-2" />
</svg>
