<svg
  xmlns="http://www.w3.org/2000/svg"
  width="24"
  height="24"
  viewBox="0 0 24 24"
  fill="none"
  stroke="currentColor"
  stroke-width="2"
  stroke-linecap="round"
  stroke-linejoin="round"
>
  <path d="M11.999 6 9.04 8.96a1 1 0 1 0 3 3.15l2.07-1.9a2.82 2.82 0 0 1 3.79 0l1.514 1.376a2 2 0 0 1-2.74 2.911.127.127 0 0 0-.177.177 2 2 0 0 1-2.823 2.823.127.127 0 0 0-.177.177" />
  <path d="M13.505 17.682a2 2 0 0 1-2.989 2.658L5 15c-1.5-1.5-3-3.2-3-5.5a5.5 5.5 0 0 1 9.591-3.676.56.56 0 0 0 .818 0A5.49 5.49 0 0 1 22 9.5c0 2-1 3.328-2.586 4.914" />
</svg>
