<svg
  xmlns="http://www.w3.org/2000/svg"
  width="24"
  height="24"
  viewBox="0 0 24 24"
  fill="none"
  stroke="currentColor"
  stroke-width="2"
  stroke-linecap="round"
  stroke-linejoin="round"
>
  <path d="M12 5 9.04 7.96a1 1 0 0 0 3 3.15l2.07-1.9a2.82 2.82 0 0 1 3.79 0l1.545 1.246a1 1 0 1 1-2.86 3.13 1 1 0 0 1-2.999 3 1 1 0 0 1-3.001 3.001L4.998 14c-1.5-1.45-2.999-3.2-3-5.5A5.5 5.5 0 0 1 7.5 3.001c1.761.002 3 .501 4.499 1.999 1.5-1.5 2.74-1.998 4.501-2A5.5 5.5 0 0 1 22 8.499c-.101 2.572-1.086 3.587-2.576 5.047" />
</svg>
