<svg
  xmlns="http://www.w3.org/2000/svg"
  width="24"
  height="24"
  viewBox="0 0 24 24"
  fill="none"
  stroke="currentColor"
  stroke-width="2"
  stroke-linecap="round"
  stroke-linejoin="round"
>
  <path d="M14.9,17.9L13,16" />
  <path d="M17.9,14.9L16,13" />
  <path d="M20.8,11.8l-2.6-2.6C17,8,15.1,7.9,14,9l-2.6,2.4c-0.8,0.8-2,0.8-2.8,0s-0.8-2,0-2.8l0,0L12,5.2" />
  <path d="M20.4,4.6c-2.1-2.1-5.6-2.1-7.8,0L12,5.2l-0.6-0.6c-2.1-2.1-5.6-2.1-7.8,0c-2.1,2.1-2.1,5.6,0,7.7L12,21 l8.4-8.7C22.5,10.2,22.5,6.7,20.4,4.6z" />
</svg>
