<svg
  xmlns="http://www.w3.org/2000/svg"
  width="24"
  height="24"
  viewBox="0 0 24 24"
  fill="none"
  stroke="currentColor"
  stroke-width="2"
  stroke-linecap="round"
  stroke-linejoin="round"
>
  <path d="M12 5 9.04 7.96a1 1 0 1 0 3 3.15l2.07-1.9a2.82 2.82 0 0 1 3.79 0l1.91 1.719a1 1 0 0 0 1.63-.469A5 5 0 0 0 22 8.5 5.5 5.5 0 0 0 16.5 3c-1.76 0-3 .5-4.5 2-1.5-1.5-2.74-2-4.5-2A5.5 5.5 0 0 0 2 8.5c0 2.3 1.5 4.05 3 5.5l5 5.65a1 1 0 1 0 3-3.15 1 1 0 1 0 3.18-2.96 1 1 0 1 0 2.81-3.071" />
</svg>
