<svg
  xmlns="http://www.w3.org/2000/svg"
  width="24"
  height="24"
  viewBox="0 0 24 24"
  fill="none"
  stroke="currentColor"
  stroke-width="2"
  stroke-linecap="round"
  stroke-linejoin="round"
>
  <path d="M14.63 18.65 13 17.05" />
  <path d="M17.54 15.55 16 14.03" />
  <path d="m20 13.03-2-2c-4-4-5 3-8 3a2.6 2.6 0 0 1-.49-.04c-2.5-.39-2.71-3.92-.34-4.82 1.28-.48 2.52-1.18 2.84-2.12 2-6.03 10-5.02 10 1.03 0 5.22-6.07 10.43-8.95 12.34a2 2 0 0 1-2.11.03c-2.89-1.74-8.94-6.29-8.94-12.38 0-5.66 7.05-6.89 9.57-2.03a7 7 0 0 1 .43 1" />
</svg>