<svg
  xmlns="http://www.w3.org/2000/svg"
  width="24"
  height="24"
  viewBox="0 0 24 24"
  fill="none"
  stroke="currentColor"
  stroke-width="2"
  stroke-linecap="round"
  stroke-linejoin="round"
>
  <path d="M14 7C11 7 8 9 8 12" />
  <path d="M14 7C18 7 22 11 22 14C22 17 19.9526 17 18 17H10" />
  <path d="M14 7V11C14 12 15 13 16 13H18" />
  <path d="M14 7V3" />
  <path d="M2 17H10" />
  <path d="M2 17L2 12" />
  <path d="M2 17L2 15L8 12" />
  <path d="M5.97 3H22" />
  <path d="M8 12V15.3008C8 16.2393 9.0616 17 10 17" />
  <path d="M8 21L21 21" />
</svg>
