<svg
  xmlns="http://www.w3.org/2000/svg"
  width="512"
  height="255"
  viewBox="0 0 512 255"
  fill="none"
  stroke="currentColor"
  stroke-width="2"
  stroke-linecap="round"
  stroke-linejoin="round"
>
  <path d="M239.91 78.121C264.887 78.121 285.136 98.37 285.136 123.348C285.136 148.326 264.887 168.574 239.91 168.574C214.932 168.574 194.683 148.326 194.683 123.348C194.683 98.37 214.932 78.121 239.91 78.121Z" />
  <path d="M264.664 118.74V127.955A3.785 3.785 0 0 1 260.895 131.725H248.286V144.335A3.782 3.782 0 0 1 244.518 148.103H235.303A3.783 3.783 0 0 1 231.533 144.335V131.725H218.923A3.783 3.783 0 0 1 215.154 127.955V118.74A3.78 3.78 0 0 1 218.923 114.971H231.533V102.361A3.78 3.78 0 0 1 235.303 98.592H244.518A3.781 3.781 0 0 1 248.286 102.361V114.971H260.895A3.784 3.784 0 0 1 264.664 118.74Z" />
  <path d="M29.149 98.216C39.36 98.216 47.639 106.494 47.639 116.705C47.639 126.917 39.36 135.195 29.149 135.195C18.938 135.195 10.661 126.917 10.661 116.705C10.661 106.494 18.938 98.216 29.149 98.216Z" />
  <path d="M331.574 63.304C395.364 71.666 444.921 102.149 468.778 163.182H331.574V63.304Z" />
  <path d="M411.322 211.603H227.671C227.61 211.843 227.537 212.084 227.452 212.324L217.659 239.462H422.631L411.546 212.229A8.088 8.088 0 0 1 411.322 211.603Z" />
  <path d="M50.837 97.249H110.35C147.502 77.861 192.799 61.939 239.188 54.33V43.098C239.188 41.387 239.843 39.81 240.917 38.611L241.169 38.33A6.734 6.734 0 0 1 245.937 36.349H267.049V25.406H80.597A6.61 6.61 0 0 1 80.597 12.187H267.167A13.991 13.991 0 0 1 271.158 4.109A13.966 13.966 0 0 1 281.048 0C284.899 0 288.401 1.575 290.936 4.109A13.995 13.995 0 0 1 294.928 12.187H481.498A6.61 6.61 0 0 1 481.498 25.406H295.046V36.349H316.158C318.014 36.349 319.707 37.11 320.927 38.329A6.74 6.74 0 0 1 322.907 43.098V50.711C380.702 56.099 433.343 79.827 466.32 131.92C471.375 139.906 478.93 155.203 482.469 169.68C485.069 180.312 485.53 190.699 481.498 198.137C479.081 202.594 475.295 206.011 470.165 208.306C465.503 210.392 459.72 211.507 452.84 211.583H452.802V211.603H428.396L439.831 239.699C451.9 240.158 462.839 239.881 472.387 237.656C482.373 235.327 490.979 230.758 498.012 222.382A7.917 7.917 0 0 1 510.155 232.543C500.647 243.866 489.188 250.003 475.98 253.082C463.689 255.949 450.05 256.059 435.083 255.321L206.398 255.324V255.307C194.144 255.833 184.262 254.421 174.888 250.802C165.563 247.203 157.087 241.546 147.506 233.534A7.917 7.917 0 0 1 157.667 221.391C165.989 228.35 173.131 233.178 180.589 236.057C186.604 238.38 193.065 239.519 200.82 239.594L212.583 206.995L212.699 206.692L110.179 144.243H42.658L25.103 198.022H0.074L9.761 138.454A29.335 29.335 0 0 1 8.558 137.317L8.538 137.297C3.264 132.022 0 124.741 0 116.706C0 108.671 3.264 101.388 8.538 96.113V96.093C8.821 95.81 9.11 95.532 9.405 95.262L0.074 37.884H25.103L42.35 90.72A29.321 29.321 0 0 1 49.742 96.094L49.774 96.126C50.138 96.49 50.492 96.866 50.837 97.249Z" />
</svg>
