<svg
  xmlns="http://www.w3.org/2000/svg"
  width="24"
  height="24"
  viewBox="0 0 24 24"
  fill="none"
  stroke="currentColor"
  stroke-width="2"
  stroke-linecap="round"
  stroke-linejoin="round"
>
  <path d="M11 17V21" />
  <path d="M14 7C11 7 8 9 8 12" />
  <path d="M14 7C19 7 22 10 22 13" />
  <path d="M14 7V11C14 12 15 13 16 13H22" />
  <path d="M14 7V3" />
  <path d="M17 17H11" />
  <path d="M17 17V21" />
  <path d="M17 21L11 21" />
  <path d="M2 17H8" />
  <path d="M2 17V12" />
  <path d="M2 17V15L8 12" />
  <path d="M21 21H17" />
  <path d="M22 13C22 16 20 17 17 17" />
  <path d="M5.97 3H22" />
  <path d="M7 21H11" />
  <path d="M8 12V17" />
  <path d="M8 17H11" />
</svg>
