<svg
  xmlns="http://www.w3.org/2000/svg"
  width="24"
  height="24"
  viewBox="0 0 24 24"
  fill="none"
  stroke="currentColor"
  stroke-width="2"
  stroke-linecap="round"
  stroke-linejoin="round"
>
  <path d="M8 4.4a2 2 0 0 0-1 1.73v4.37l-4 2.4a2 2 0 0 0-1 1.73v3.27a2 2 0 0 0 .97 1.68L6 21.4a2 2 0 0 0 2.03-.02L12 19l4 2.4a2 2 0 0 0 2.03-.02L21 19.6a2 2 0 0 0 1-1.73V14.6a2 2 0 0 0-.97-1.68L17 10.5V6.1a2 2 0 0 0-.97-1.68L13 2.6a2 2 0 0 0-2.03.02Z" />
  <path d="m7 10.5 5 3 5-3" />
  <path d="M12 13.5V19" />
</svg>
