<svg
  xmlns="http://www.w3.org/2000/svg"
  width="24"
  height="24"
  viewBox="0 0 24 24"
  fill="none"
  stroke="currentColor"
  stroke-width="2"
  stroke-linecap="round"
  stroke-linejoin="round"
>
  <path d="M11 13.9c2.5 0 4.5.7 4.5 1.6 0 .4-.5.8-1.2 1.1a9 9 0 0 1-3.3.5c-2.5 0-4-.7-4-1.6s1.5-1.6 4-1.6" />
  <path d="m17.3 7 2.2 1" />
  <path d="M18.8 3 21 4" />
  <path d="M22 2.5 18.6 12a7.3 7.3 0 0 1-1.1 2.022" />
  <path d="M4 16.257A3.1 3.1 0 0 1 1.9 13.7l-.4-2.9a2.1 2.1 0 0 1 2.4-2.3l7.6 1.4a5.2 5.2 0 0 0 5.8-3.3l1.6-4.2" />
  <path d="M7 15.5v3c0 .9 2 1.6 4.5 1.6 2-.1 4-.6 4-1.6v-3" />
</svg>
