<svg
  xmlns="http://www.w3.org/2000/svg"
  width="24"
  height="24"
  viewBox="0 0 24 24"
  fill="none"
  stroke="currentColor"
  stroke-width="2"
  stroke-linecap="round"
  stroke-linejoin="round"
>
  <path d="M2 12a10 10 0 1 0 20 0c0-4.1-.4-6.6-1.9-8.1S16.1 2 12 2s-6.6.4-8.1 1.9S2 7.9 2 12" />
  <path d="M12 6h.01" />
  <path d="M10 11a2 2 0 1 1-4 0v-1c0-.6.4-1 1-1h2c.6 0 1 .4 1 1Z" />
  <path d="M18 11a2 2 0 1 1-4 0v-1c0-.6.4-1 1-1h2c.6 0 1 .4 1 1Z" />
  <path d="M8.5 17h.01" />
  <path d="M12 15.5h.01" />
  <path d="M15.5 17h.01" />
</svg>
