<svg
  xmlns="http://www.w3.org/2000/svg"
  width="24"
  height="24"
  viewBox="0 0 24 24"
  fill="none"
  stroke="currentColor"
  stroke-width="2"
  stroke-linecap="round"
  stroke-linejoin="round"
>
  <path d="m2 2 20 20c-2 0-3.5-.5-5.5-1.5" />
  <path d="M17.5 5.5C19 7 20.5 9 21 11c-1.323.265-2.646.39-4.118.226" />
  <path d="M5.5 17.5C7 19 9 20.5 11 21c.5-2.5.5-5-1-8.5" />
  <path d="M17.5 17.5c-2.5 0-4 0-6-1" />
  <path d="M20 11.5c1 1.5 2 3.5 2 4.5" />
  <path d="M11.5 20c1.5 1 3.5 2 4.5 2 .5-1.5 0-3-.5-4.5" />
  <path d="M4.783 4.782A9 9 0 0 0 5 18c1-1 2-4.5 1.5-6.5 1.5 1 4 1 5.5.5" />
  <path d="M8.227 2.57A8.805 8.805 0 0 1 18 5c-.88.88-3.7 1.761-5.726 1.6" />
</svg>