<svg
  xmlns="http://www.w3.org/2000/svg"
  width="24"
  height="24"
  viewBox="0 0 24 24"
  fill="none"
  stroke="currentColor"
  stroke-width="2"
  stroke-linecap="round"
  stroke-linejoin="round"
>
  <path d="M17.5 5.5C19 7 20.5 9 21 11c-2.5.5-5 .5-8.5-1" />
  <path d="M5.5 17.5C7 19 9 20.5 11 21c.5-2.5.5-5-1-8.5" />
  <path d="M16.5 11.5c1 2 1 3.5 1 6-2.5 0-4 0-6-1" />
  <path d="M20 11.5c1 1.5 2 3.5 2 4.5-1.5.5-3 0-4.5-.5" />
  <path d="M11.5 20c1.5 1 3.5 2 4.5 2 .5-1.5 0-3-.5-4.5" />
  <path d="M20.5 16.5c1 2 1.5 3.5 1.5 5.5-2 0-3.5-.5-5.5-1.5" />
  <path d="M4.783 4.782A8.998 8.998 0 0 1 18 5c-1 1-4.5 2-6.5 1.5 1 1.5 1 4 .5 5.5-1.5.5-4 .5-5.5-.5C7 13.5 6 17 5 18a9 9 0 0 1-.217-13.218" />
  <path d="M4.5 4.5 3 3a.975.975 0 0 1 0-1" />
</svg>