<svg
  xmlns="http://www.w3.org/2000/svg"
  width="24"
  height="24"
  viewBox="0 0 24 24"
  fill="none"
  stroke="currentColor"
  stroke-width="2"
  stroke-linecap="round"
  stroke-linejoin="round"
>
  <path d="M10 14h.01" />
  <path d="M10 18h.01" />
  <path d="M12 6v4" />
  <path d="M14 14h.01" />
  <path d="M14 18h.01" />
  <path d="M14 8h-4" />
  <path d="M18 10h2a2 2 0 0 1 2 2v6a2 2 0 0 1-2 2h-2" />
  <path d="M6 7H4a2 2 0 0 0-2 2v9a2 2 0 0 0 2 2h2" />
  <rect x="6" y="2" width="12" height="20" rx="2" />
</svg>
