<svg
  xmlns="http://www.w3.org/2000/svg"
  width="24"
  height="24"
  viewBox="0 0 24 24"
  fill="none"
  stroke="currentColor"
  stroke-width="2"
  stroke-linecap="round"
  stroke-linejoin="round"
>
  <rect width="4" height="4" x="5" y="2" />
  <path d="M22 22H2V8a2 2 0 0 1 2-2h16a2 2 0 0 1 2 2Z" />
  <rect width="4" height="4" x="15" y="2" />
  <path d="M2 12h4" />
  <path d="m12.5 6 5.5 6v10" />
  <path d="M6 22V12l5.5-6" />
  <path d="M18 12h4" />
  <path d="M12 11h.01" />
  <path d="M10 22v-5a2 2 0 1 1 4 0v5" />
  <path d="M2 20a2 2 0 1 1 4 0" />
  <path d="M18 20a2 2 0 1 1 4 0" />
</svg>
