<svg
  xmlns="http://www.w3.org/2000/svg"
  width="24"
  height="24"
  viewBox="0 0 24 24"
  fill="none"
  stroke="currentColor"
  stroke-width="2"
  stroke-linecap="round"
  stroke-linejoin="round"
>
  <path d="M10 20v-5a1 1 0 0 1 1-1h2a1 1 0 0 1 1 1v5" />
  <path d="M18 17h3a1 1 0 0 0 1-1V9.5c0-.6-.3-1.2-.8-1.6l-4.6-3.7a1 1 0 0 0-1.3 0l-8.6 7.3c-.4.4-.7.9-.7 1.5v6a1 1 0 0 0 1 1h10a1 1 0 0 0 1-1v-6c0-.6-.3-1.1-.7-1.5L8.6 4.2a1 1 0 0 0-1.3 0L2.7 7.9c-.4.4-.7 1-.7 1.6V16a1 1 0 0 0 1 1h3" />
</svg>
