<svg
  xmlns="http://www.w3.org/2000/svg"
  width="24"
  height="24"
  viewBox="0 0 24 24"
  fill="none"
  stroke="currentColor"
  stroke-width="2"
  stroke-linecap="round"
  stroke-linejoin="round"
>
  <path d="M3 9.99997C2.99993 9.70904 3.06333 9.42159 3.18579 9.15768C3.30824 8.89378 3.4868 8.65976 3.709 8.47197L10.709 2.47297C11.07 2.16788 11.5274 2.00049 12 2.00049C12.4726 2.00049 12.93 2.16788 13.291 2.47297L20.291 8.47197C20.5132 8.65976 20.6918 8.89378 20.8142 9.15768C20.9367 9.42159 21.0001 9.70904 21 9.99997V19C21 19.5304 20.7893 20.0391 20.4142 20.4142C20.0391 20.7893 19.5304 21 19 21H5C4.46957 21 3.96086 20.7893 3.58579 20.4142C3.21071 20.0391 3 19.5304 3 19V9.99997Z" />
</svg>
