<svg 
  xmlns="http://www.w3.org/2000/svg"
  width="24"
  height="24"
  viewBox="0 0 24 24"
  fill="none"
  stroke="currentColor"
  stroke-width="2"
  stroke-linecap="round"
  stroke-linejoin="round"
>
  <path d="M3 7V5a2 2 0 0 1 2-2h2m10 0h2a2 2 0 0 1 2 2v2m0 10v2a2 2 0 0 1-2 2h-2M7 21H5a2 2 0 0 1-2-2v-2M16.67 6H7.33C6.6 6 6 6.6 6 7.33v9.34C6 17.4 6.6 18 7.33 18h9.34c.73 0 1.33-.6 1.33-1.33V7.33C18 6.6 17.4 6 16.67 6Z"/>
  <path d="M9.38 10.5c.62 0 1.12-.34 1.12-.75S10 9 9.37 9c-.62 0-1.12.34-1.12.75s.5.75 1.13.75ZM18 13.35l-2-2.4a1.2 1.2 0 0 0-.93-.45c-.34 0-.67.16-.91.45L8.25 18"/>
</svg>
