<svg
  xmlns="http://www.w3.org/2000/svg"
  width="24"
  height="24"
  viewBox="0 0 24 24"
  fill="none"
  stroke="currentColor"
  stroke-width="2"
  stroke-linecap="round"
  stroke-linejoin="round"
>
  <path d="M17.777 6.725a.7.7 0 0 0-.503-.503l-2.147-.554a.18.18 0 0 1 0-.336l2.147-.554a.7.7 0 0 0 .503-.503l.554-2.147a.18.18 0 0 1 .337 0l.553 2.147a.7.7 0 0 0 .503.503l2.148.553a.18.18 0 0 1 0 .338l-2.148.553a.7.7 0 0 0-.503.503l-.553 2.147a.18.18 0 0 1-.337 0z" />
  <path d="M21 13v6a2 2 0 0 1-2 2H5a2 2 0 0 1-2-2V5a2 2 0 0 1 2-2h6" />
  <path d="m21 17.5-3.672-3.586a2 2 0 0 0-2.828 0L7 21" />
  <circle cx="9" cy="10" r="2" />
</svg>
