<svg
  xmlns="http://www.w3.org/2000/svg"
  width="24"
  height="24"
  viewBox="0 0 24 24"
  fill="none"
  stroke="currentColor"
  stroke-width="2"
  stroke-linecap="round"
  stroke-linejoin="round"
>
  <path d="m14 17-3.049-2.66a1.5 1.5 0 0 0-1.85-.04L3 19" />
  <path d="M16 3h5v5" />
  <path d="M17.5 21H19a2 2 0 0 0 2-2" />
  <path d="M21 12v3" />
  <path d="m21 3-5 5" />
  <path d="M3 12a2 2 0 0 1 2-2h6a3 3 0 0 1 3 3v6a2 2 0 0 1-2 2H5a2 2 0 0 1-2-2z" />
  <path d="M3 6.5V5a2 2 0 0 1 2-2" />
  <path d="M9 3h3" />
</svg>
