<svg
  xmlns="http://www.w3.org/2000/svg"
  width="24"
  height="24"
  viewBox="0 0 24 24"
  fill="none"
  stroke="currentColor"
  stroke-width="2"
  stroke-linecap="round"
  stroke-linejoin="round"
>
  <path d="M12.9 7.3C11.4 4 8.7 2 8 2" />
  <path d="M22 16.3V8a2 2 0 0 0-4 0v4.3" />
  <path d="m2 2 20 20" />
  <path d="M6 11h.01" />
  <path d="M10 11h.01" />
  <path d="M6 15h.01" />
  <path d="M10 15h.01" />
  <path d="M14 19v-5" />
  <path d="M17.8 17.8c0 .1-.1.2-.1.3-.4.6-1 .9-1.7.9H2v-7c0-3 1.3-5.6 2.7-7.3" />
  <path d="M3 22h10" />
</svg>
