<svg
  xmlns="http://www.w3.org/2000/svg"
  width="24"
  height="24"
  viewBox="0 0 24 24"
  fill="none"
  stroke="currentColor"
  stroke-width="2"
  stroke-linecap="round"
  stroke-linejoin="round"
>
  <path d="M15.56 3.85c.196-.784-.234-1.85-3.523-1.85s-3.72 1.066-3.524 1.85c-.881.293-2.702 1.056-2.937 1.761-.293.881-3.693 10.278-3.523 10.572.135.235 2.21 1.076 3.23 1.468l2.055-5.58-.88 2.937v5.524c0 .49.41 1.468 2.055 1.468h7.928c.49-.098 1.469-.587 1.469-1.762 0-1.174-.588-6.6-.881-8.167l1.762 5.58 2.936-1.175c.196-.098.529-.47.294-1.174l-3.23-9.69c-.235-.706-2.252-1.47-3.23-1.763l-3.524 5.286V22" />
  <path d="m8.513 3.85 3.524 5.285" />
</svg>
