<svg
  xmlns="http://www.w3.org/2000/svg"
  width="24"
  height="24"
  viewBox="0 0 24 24"
  fill="none"
  stroke="currentColor"
  stroke-width="2"
  stroke-linecap="round"
  stroke-linejoin="round"
>
  <path d="M 2 18 L 2 6" />
  <path d="M 2 2 L 22 22" />
  <path d="M 2 6 A2 2 0 0 1 4 4" />
  <path d="M 20 20 L 4 20" />
  <path d="M 20 4 A2 2 0 0 1 22 6" />
  <path d="M 22 6 L 22 17" />
  <path d="M 4 20 A2 2 0 0 1 2 18" />
  <path d="M 7 16 L 17.5 16" />
  <path d="M 9 4 L 20 4" />
  <path d="M10 8h.01" />
  <path d="M14 8h.01" />
  <path d="M16 12h.01" />
  <path d="M18 8h.01" />
  <path d="M6 8h.01" />
  <path d="M8 12h.01" />
</svg>