<svg
  xmlns="http://www.w3.org/2000/svg"
  width="24"
  height="24"
  viewBox="0 0 24 24"
  fill="none"
  stroke="currentColor"
  stroke-width="2"
  stroke-linecap="round"
  stroke-linejoin="round"
>
  <path d="M10.634 7.634a2 2 0 0 1 .508.864l1.391 4.868a1 1 0 0 0 1.669.432l5.596-5.596a1 1 0 0 0-.432-1.669l-4.868-1.39a2 2 0 0 1-.864-.51l-1.927-1.926a1 1 0 0 0-1.414 0L8.707 4.293a1 1 0 0 0 0 1.414z" />
  <path d="m14.034 4.943-3.09 3.09" />
  <path d="M9 18a2 2 0 0 1 2 2v1a1 1 0 0 1-1 1H4a1 1 0 0 1-1-1v-1a2 2 0 0 1 2-2z" />
  <path d="m9.5 6.5-4.99 4.99a1 1 0 0 0-.188 1.155L7 18" />
</svg>
