<svg id="Layer_1" data-name="Layer 1" xmlns="http://www.w3.org/2000/svg" viewBox="0 0 24 24"><defs><style>.cls-1,.cls-2{fill:none;stroke:#000;stroke-miterlimit:10;stroke-width:2px;}.cls-1{stroke-linecap:round;}</style></defs><path class="cls-1" d="M7,22a5,5,0,0,1-2-4"/><path class="cls-2" d="M14,17.84A13.06,13.06,0,0,1,12,18a11.93,11.93,0,0,1-5-1.07"/><path class="cls-2" d="M3.34,14A6.8,6.8,0,0,1,2,10C2,5.58,6.48,2,12,2s10,3.58,10,8a7.19,7.19,0,0,1-2.6,5.38"/><circle class="cls-2" cx="5" cy="16" r="2"/><path class="cls-2" d="M14.33,22h-.09a.35.35,0,0,1-.24-.32v-10a.34.34,0,0,1,.33-.34.32.32,0,0,1,.21.08l7.34,6a.33.33,0,0,1-.21.59H17.18l-2.57,3.85A.35.35,0,0,1,14.33,22Z"/></svg>