<svg
  xmlns="http://www.w3.org/2000/svg"
  width="24"
  height="24"
  viewBox="0 0 24 24"
  fill="none"
  stroke="currentColor"
  stroke-width="2"
  stroke-linecap="round"
  stroke-linejoin="round"
>
  <circle cx="5" cy="16" r="2" />
  <path d="M7 22a5 5 0 0 1-2-4" />
  <path d="M7 16.93a12.15 12.15 0 0 0 2.99.91" />
  <path d="M3.34 14A6.8 6.8 0 0 1 2 10c0-4.42 4.48-8 10-8s10 3.58 10 8a7.19 7.19 0 0 1-.33 2" />
  <path d="M14.33 22a.35.35 0 0 0 .28-.14L17.18 18h4.49a.33.33 0 0 0 .21-.58l-7.38-6a.34.34 0 0 0-.5.26v10a.35.35 0 0 0 .24.32Z" />
</svg>