<svg
  xmlns="http://www.w3.org/2000/svg"
  width="24"
  height="24"
  viewBox="0 0 24 24"
  fill="none"
  stroke="currentColor"
  stroke-width="2"
  stroke-linecap="round"
  stroke-linejoin="round"
>
  <path d="M10.8 2.3c-.3-.4-.8-.3-1.4.2L3.8 7.4C3.4 7.8 3 8.5 3 9v7.9c0 .9.4 1.3 1 1.1" />
  <path d="M15.8 4.3c-.3-.4-.8-.3-1.4.2L8.8 9.4c-.4.4-.7 1.1-.7 1.6v7.9c0 .9.4 1.3 1 1.1" />
  <path d="M13.1 13.1a2.3 2.3 0 0 1 .8-1.7l5.6-4.9c.8-.8 1.5-.5 1.5.7V15a2.3 2.3 0 0 1-.8 1.7l-5.6 4.9c-.8.8-1.5.5-1.5-.7z" />
</svg>
