<svg
  xmlns="http://www.w3.org/2000/svg"
  width="24"
  height="24"
  viewBox="0 0 24 24"
  fill="none"
  stroke="currentColor"
  stroke-width="2"
  stroke-linecap="round"
  stroke-linejoin="round"
>
  <path d="M12.83 2.18a2 2 0 0 0-1.66 0L2.6 6.08a1 1 0 0 0 0 1.83l8.58 3.91a2 2 0 0 0 .83.18 2 2 0 0 0 .83-.18l8.58-3.9a1 1 0 0 0 0-1.832z" />
  <path d="M16 17h6" />
  <path d="M2.003 11.995a1 1 0 0 0 .597.915l8.58 3.91a2 2 0 0 0 .83.18" />
  <path d="M2.003 16.995a1 1 0 0 0 .597.915l8.58 3.91a2 2 0 0 0 .83.18 2 2 0 0 0 .83-.18l2.11-.96" />
  <path d="M22.018 12.004a1 1 0 0 1-.598.916l-.177.08" />
</svg>
