<svg
  xmlns="http://www.w3.org/2000/svg"
  width="24"
  height="24"
  viewBox="0 0 24 24"
  fill="none"
  stroke="currentColor"
  stroke-width="2"
  stroke-linecap="round"
  stroke-linejoin="round"
>
  <path d="M 11.18 21.82 A2 2 0 0 0 12.83 21.82" />
  <path d="M 12.83 21.82 L 15 20.83" />
  <path d="M 16 16.5 L 22 16.5" />
  <path d="M 19 13.5 L 19 19.5" />
  <path d="M 2 12 A1 1 0 0 0 2.58 12.91" />
  <path d="M 2 17 A1 1 0 0 0 2.58 17.91" />
  <path d="M 2.58 12.91 L 11.18 16.82" />
  <path d="M 2.58 17.91 L 11.18 21.82" />
  <path d="M12.83 2.18a2 2 0 0 0-1.66 0L2.6 6.08a1 1 0 0 0 0 1.83l8.58 3.91a2 2 0 0 0 1.66 0l8.58-3.9a1 1 0 0 0 0-1.83z" />
</svg>