<svg
  xmlns="http://www.w3.org/2000/svg"
  width="24"
  height="24"
  viewBox="0 0 24 24"
  fill="none"
  stroke="currentColor"
  stroke-width="2"
  stroke-linecap="round"
  stroke-linejoin="round"
>
  <path d="m6 14.5-3.4 1.7a.83.83 0 0 0 0 1.6l7.6 3.8a4.14 4.14 0 0 0 3.58 0l7.62-3.8a.83.83 0 0 0 0-1.6L18 14.5" />
  <path d="m6 9.5-3.4 1.7a.83.83 0 0 0 0 1.6l7.6 3.8a4.14 4.14 0 0 0 3.58 0l7.62-3.8a.83.83 0 0 0 0-1.6L18 9.5" />
  <path d="M13.8 2.4a4.14 4.14 0 0 0-3.58 0L2.6 6.2a.83.83 0 0 0 0 1.6l7.6 3.8a4.14 4.14 0 0 0 3.58 0l7.62-3.8a.83.83 0 0 0 0-1.6Z" />
</svg>
