<svg
  xmlns="http://www.w3.org/2000/svg"
  width="24"
  height="24"
  viewBox="0 0 24 24"
  fill="none"
  stroke="currentColor"
  stroke-width="2"
  stroke-linecap="round"
  stroke-linejoin="round"
>
  <path d="M10 13H5C3.5 13 3 14 3 15V19C3 20.5 4 21 5 21H10C11.5 21 12 20 12 19V15C12 14 11.5 13 10 13Z" />
  <path d="M19 3H5C3.5 3 3 4 3 5V7C3 8.5 4.00589 9 5 9H19.2C20 9 21 8.5 21 7V5C21 4 20.5 3 19 3Z" />
  <path d="M19 13H18C16.5 13 16 14 16 15V19C16 20 16.5 21 18 21H19C20 21 21 20.5 21 19V15C21 14 20.5 13 19 13Z" />
</svg>
