<svg
  xmlns="http://www.w3.org/2000/svg"
  width="24"
  height="24"
  viewBox="0 0 24 24"
  fill="none"
  stroke="currentColor"
  stroke-width="2"
  stroke-linecap="round"
  stroke-linejoin="round"
>
  <path d="M13.25 3A10.24 10.24 0 0 0 3 13.24c0 1.13.43 3.06-.2 4.08a3.55 3.55 0 0 0-.8 2.32A2.7 2.7 0 0 0 4.36 22a3.55 3.55 0 0 0 2.32-.79c1-.63 3-.2 4.08-.2A10.24 10.24 0 0 0 21 10.75c0-1.13-.43-3.06.2-4.08a3.53 3.53 0 0 0 .8-2.31A2.7 2.7 0 0 0 19.64 2a3.53 3.53 0 0 0-2.31.78c-1.02.64-2.95.22-4.08.22Z" />
</svg>
