<svg
  xmlns="http://www.w3.org/2000/svg"
  width="24"
  height="24"
  viewBox="0 0 24 24"
  fill="none"
  stroke="currentColor"
  stroke-width="2"
  stroke-linecap="round"
  stroke-linejoin="round"
>
  <path d="M3.6 3.6 2 2" />
  <path d="M10 8c0-2.8-2.2-5-5-5a2 2 0 0 0-2 2v2c0 1.7 1.3 3 3 3h2a2 2 0 0 0 2-2h4a2 2 0 0 0 2 2h2c1.7 0 3-1.3 3-3V5a2 2 0 0 0-2-2c-2.8 0-5 2.2-5 5" />
  <path d="m22 2-1.6 1.6" />
  <path d="M10 22a4 4 0 0 0-4-4H4c-.6 0-1-.4-1-1v-3h18v3c0 .6-.4 1-1 1h-2a4 4 0 0 0-4 4Z" />
</svg>
