<svg
  xmlns="http://www.w3.org/2000/svg"
  width="500"
  height="500"
  viewBox="0 0 500 500"
  fill="none"
  stroke="currentColor"
  stroke-width="2"
  stroke-linecap="round"
  stroke-linejoin="round"
>
  <path d="M166.7 333.7c-.4.3-.7 8-.7 17V367h-33v33h-33v33h33v33h33l.2 16.7.3 16.8 16.2.3 16.3.2.2-16.7.3-16.8 16.8-.3 16.7-.2v-99l-16.7-.2-16.8-.3-.3-16.8-.2-16.7h-15.9c-8.7 0-16.1.3-16.4.7" />
  <path d="M266.5 233.5v33l-16.7.3-16.8.2v-34l16.8.2z" />
  <path d="M300 0v33h-33v100h33v33h33v-33h33v-33l16.8-.2 16.7-.3.3-16.3.2-16.2h-34V33h-33V0z" />
  <path d="M433 400h-67v-33h-33v-67h-33v67h-33v99l16.3.2 16.2.3.3 16.7.2 16.8h33v-34h33v-33h34v-33l-.2-16.8-.3-16.7-16.2-.3-16.3-.2-.2-16.3-.3-16.2-16.7-.3-16.8-.2h-67v33h-33v-33h-33v-33h-67v-33H33v33H0v33h33v33h33l.2 16.7.3 16.8 16.2.3 16.3.2.2-16.7.3-16.8 16.8-.3 16.7-.2v-33h33v-67h-33v-66h67v-33h33V33h-34V0h-33v33h-33v34h-33v33h33v67h33v66H33v-33H0v-33h33v-34h33v-33h33v33h67v33h33l.2-16.3.3-16.2 16.8-.3 16.7-.2h33l.2 16.7.3 16.8 16.8.3 16.7.2v33h67v33h99v-33l16.8-.2 16.7-.3.3-16.2.2-16.3-16.7-.2-16.8-.3-.3-16.8-.2-16.7h-33v-33h-33v33h-33l-.2 16.7-.3 16.8-16.7.3-16.8.2v66h33v33l-16.2.2-16.3.3-.3 16.8-.2 16.7 16.7-.2 16.8-.3.3-16.3.2-16.2h99v33h34v33h-34v33h-33z" />
</svg>
