<svg
  xmlns="http://www.w3.org/2000/svg"
  width="20"
  height="22"
  viewBox="0 0 24 24"
  fill="none"
  stroke="currentColor"
  stroke-width="2"
  stroke-linecap="round"
  stroke-linejoin="round"
>
  <path d="M10.16.002c3.03.083 5.931 2.473 5.852 6.655l-.007.35a4 4 0 0 1 3.995 4v7a4 4 0 0 1-3.794 3.995l-.206.005H4l-.206-.005a4 4 0 0 1-3.79-3.789L0 18.007v-7a4 4 0 0 1 4-4h.003l.009-.393c.05-2.167.79-3.856 1.962-4.996A5.75 5.75 0 0 1 10.159.002M4 9.007a2 2 0 0 0-2 2v7a2 2 0 0 0 2 2h1.87a3.77 3.77 0 0 1-.753-2.177c-.047-2.17 1.75-3.993 4.704-4.314 1.355-.147 2.128-.579 2.535-1.01.396-.42.524-.921.452-1.422-.15-1.044-1.207-2.146-2.834-2.072q-.07.003-.138-.005zm10.07 0c.377.54.626 1.154.718 1.793a3.66 3.66 0 0 1-.976 3.075c-.826.878-2.1 1.447-3.775 1.63-2.258.244-2.939 1.454-2.92 2.281.018.853.782 2.026 2.867 2.221H16a2 2 0 0 0 2-2v-7a2 2 0 0 0-2-2zm-4.07 8a1 1 0 1 1 0 2 1 1 0 0 1 0-2m0-7a1 1 0 1 1 0 2 1 1 0 0 1 0-2m.104-8.005a3.75 3.75 0 0 0-2.736 1.05c-.742.722-1.316 1.884-1.356 3.61l-.008.345h8l.009-.388c.058-3.06-1.95-4.563-3.908-4.617" />
</svg>
