<svg
  xmlns="http://www.w3.org/2000/svg"
  width="24"
  height="24"
  viewBox="0 0 24 24"
  fill="none"
  stroke="currentColor"
  stroke-width="2"
  stroke-linecap="round"
  stroke-linejoin="round"
>
  <path d="M10 8a2 2 0 014 0" />
  <path d="M13.794 8.883a2 2 0 01-3.59-.002" />
  <path d="M18 8c0 3.613-3.869 7.429-5.393 8.795a1 1 0 01-1.214 0C9.87 15.429 6 11.613 6 8a6 6 0 0112 0" />
  <path d="M4.474 15h-.197a1 1 0 00-.969.753l-1.271 4.982A1 1 0 003 22h18a1 1 0 00.964-1.265l-1.272-4.982a1 1 0 00-.969-.753h-.197" />
</svg>
