<svg 
    xmlns="http://www.w3.org/2000/svg"  
    width="24" 
    height="24" 
    viewBox="0 0 24 24" 
    fill="none" 
    stroke="currentColor"
    stroke-width="2"
    stroke-linecap="round"
    stroke-linejoin="round"
>
    <path d="m18 9.214-.162 2.14c-.196 2.58-1.967 4.757-4.425 5.438l-.115.031a4.86 4.86 0 0 1-2.596 0l-.115-.031c-2.458-.681-4.23-2.858-4.425-5.437L6 9.214 10.524 7.3a3.783 3.783 0 0 1 2.952 0z" />
    <path d="M18 9c.5-1 1-2 2-2 .88 0 2 .5 2 2s-.3 2-1.5 4-3.058 2.822-5 3" />
    <path d="M6 9c-.5-1-1-2-2-2-.88 0-2 .5-2 2s.3 2 1.5 4 3.058 2.822 5 3" />
</svg>
