<svg
  xmlns="http://www.w3.org/2000/svg"
  width="24"
  height="24"
  viewBox="0 0 24 24"
  fill="none"
  stroke="currentColor"
  stroke-width="2"
  stroke-linecap="round"
  stroke-linejoin="round"
>
  <path d="M12 11V9" />
  <path d="M16 11V9" />
  <path d="M16 15v3a1 1 0 0 0 1 1h3a1 1 0 0 0 1-1v-3a1 1 0 0 0 1-1V7a2 2 0 0 0-2-2H4a2 2 0 0 0-2 2v7a1 1 0 0 0 1 1h18" />
  <path d="M2 10h1.5" />
  <path d="M20.5 10H22" />
  <path d="M3 15v3a1 1 0 0 0 1 1h7a1 1 0 0 0 1-1v-3" />
  <path d="M8 11V9" />
</svg>
