<svg
  xmlns="http://www.w3.org/2000/svg"
  width="24"
  height="24"
  viewBox="0 0 24 24"
  fill="none"
  stroke="currentColor"
  stroke-width="2"
  stroke-linecap="round"
  stroke-linejoin="round"
>
  <path d="M14 3h2" />
  <path d="M16 19h-2" />
  <path d="M2 12v-2" />
  <path d="M2 16v5.286a.71.71 0 0 0 1.212.502l1.149-1.149" />
  <path d="M20 19a2 2 0 0 0 2-2v-1" />
  <path d="M22 10v2" />
  <path d="M22 6V5a2 2 0 0 0-2-2" />
  <path d="M4 3a2 2 0 0 0-2 2v1" />
  <path d="M8 19h2" />
  <path d="M8 3h2" />
</svg>
