<svg
  xmlns="http://www.w3.org/2000/svg"
  width="24"
  height="24"
  viewBox="0 0 24 24"
  fill="none"
  stroke="currentColor"
  stroke-width="2"
  stroke-linecap="round"
  stroke-linejoin="round"
>
  <path d="M6 18h8" />
  <path d="M3 22h18" />
  <path d="M14 22a7 7 0 1 0 0-14h-1" />
  <path d="M9 14h2" />
  <path d="M8 6h4" />
  <path d="M13 10a2 2 0 0 1-2 2H9a2.006 2.006 0 0 1-2-2V6.5a.5.5 0 0 1 .5-.5.5.5 0 0 0 .5-.5V3a1 1 0 0 1 1-1h2a1 1 0 0 1 1 1v2.5a.5.5 0 0 0 .5.5.5.5 0 0 1 .5.5Z" />
</svg>
