<svg
  xmlns="http://www.w3.org/2000/svg"
  width="24"
  height="24"
  viewBox="0 0 24 24"
  fill="none"
  stroke="currentColor"
  stroke-width="2"
  stroke-linecap="round"
  stroke-linejoin="round"
>
  <path d="m2 2 20 20" />
  <path d="M8 2h8" />
  <path d="M9 2v1.343" />
  <path d="M15 2v2.789A4 4 0 0 0 16.328 8 4 4 0 0 1 17 10.212v1.131" />
  <path d="m7.8 7.8-.128.2A4 4 0 0 0 7 10.212V20a2 2 0 0 0 2 2h6a2 2 0 0 0 2-2v-3" />
  <path d="M7 15a6.47 6.47 0 0 1 5 0 6.471 6.471 0 0 0 3.435.435" />
</svg>