<svg
  xmlns="http://www.w3.org/2000/svg"
  width="24"
  height="24"
  viewBox="0 0 24 24"
  fill="none"
  stroke="currentColor"
  stroke-width="2"
  stroke-linecap="round"
  stroke-linejoin="round"
>
  <path d="M12 12 22 2" />
  <path d="M7 22c-2.76 0-5-2.24-5-5s2.24-5 5-5c1.423 0 3.028-.594 3.69-.866a.5.5 0 0 1 .547.106c.297.294.763.76.763.76l.765.765a.5.5 0 0 1 .11.542C12.605 13.985 12 15.661 12 17q0 .514-.1 1" />
  <path d="M7 22h8.5c.133 0 .26-.053.354-.146A.5.5 0 0 0 16 21.5v-.012A3.49 3.49 0 0 0 12.512 18H10" />
</svg>
