<svg
  xmlns="http://www.w3.org/2000/svg"
  width="24"
  height="24"
  viewBox="0 0 24 24"
  fill="none"
  stroke="currentColor"
  stroke-width="2"
  stroke-linecap="round"
  stroke-linejoin="round"
>
  <path d="m16.595 10.625 4.257-6.538" />
  <path d="m16.68 14.21 1.058-1.67a1 1 0 0 0-.305-1.377l-1.678-1.077a1 1 0 0 0-1.377.295l-.528.809" />
  <path d="M2.5 20c-.218 0-.494-.163-.497-.451s.24-.483.497-.549c1.556-.4 1.892-2.456 3.5-5 1.125-1.948 2.637-3.5 4.5-3.5 1.217 0 2.168.4 2.932 1.252.405.452.757 1.032 1.068 1.748.37.85 1.452 1.2 2.143.97.359-.12.656-.467 1.357-.47.782-.003 1.485.674 2 2 .536 1.38.573 2.393 1.5 3 .3.196.5.26.5.5a.493.493 0 0 1-.5.5z" />
  <path d="m21.95 4.8-2.2-1.43" />
</svg>
