<svg
  xmlns="http://www.w3.org/2000/svg"
  width="24"
  height="24"
  viewBox="0 0 24 24"
  fill="none"
  stroke="currentColor"
  stroke-width="2"
  stroke-linecap="round"
  stroke-linejoin="round"
>
  <path d="m16 16 1.553-3.106a1 1 0 0 0-.447-1.341l-2.212-1.106a1 1 0 0 0-1.341.447l-1.193 2.387" />
  <path d="m20 3-4 8" />
  <path d="M21 21a1 1 0 0 0 .599-1.801c-1.333-.998-.992-4.21-3.599-4.199-1.271.006-1.5 1-2 1-2.5 0-3.209-4-6.5-4-5.106 0-4 5.107-7.059 7.17A1 1 0 0 0 3 21z" />
  <path d="m22 4-4-2" />
</svg>