<svg
  xmlns="http://www.w3.org/2000/svg"
  width="24"
  height="24"
  viewBox="0 0 24 24"
  fill="none"
  stroke="currentColor"
  stroke-width="2"
  stroke-linecap="round"
  stroke-linejoin="round"
>
  <path d="M 13.836 15.1608 L 7.93438 15.1608" />
  <path d="M 16.9061 15.3902 C15.9838 15.1123 14.8794 15.0298 13.836 15.1608" />
  <path d="M 18.7539 16.6426 C18.4931 16.1186 17.8284 15.6681 16.9061 15.3902" />
  <path d="M 19 20 C19 19.506 19.015 17.167 18.754 16.643" />
  <path d="M 4 18.1243 L 4 20.1" />
  <path d="M 5.44933 15.9491 C4.7342 16.4878 4.22303 17.2549 4 18.1243" />
  <path d="M 7.93438 15.1608 C7.04092 15.1324 6.16446 15.4104 5.44933 15.9491" />
  <path d="M0.802979 18.8889C0.802979 17.9587 1.1725 17.0666 1.83024 16.4089C2.48798 15.7511 3.38008 15.3816 4.31027 15.3816H5.47936" />
  <path d="M11.8068 11.0151C14.2644 11.0151 16.2568 9.22421 16.2568 7.01508C16.2568 4.80594 14.2644 3.01508 11.8068 3.01508C9.34911 3.01508 7.35678 4.80594 7.35678 7.01508C7.35678 9.22421 9.34911 11.0151 11.8068 11.0151Z" />
  <path d="M19.4025 13.9154C17.704 13.9154 16.3271 12.6777 16.3271 11.151C16.3271 9.62427 17.704 8.38662 19.4025 8.38662C21.101 8.38662 22.4779 9.62427 22.4779 11.151C22.4779 12.6777 21.101 13.9154 19.4025 13.9154Z" />
  <path d="M23.0858 18.9377C23.0858 17.9576 22.6964 17.0176 22.0034 16.3245C21.3103 15.6315 20.3704 15.2422 19.3903 15.2422H18.1584" />
  <path d="M4.11955 13.9154C5.81803 13.9154 7.19493 12.6777 7.19493 11.151C7.19493 9.62427 5.81803 8.38662 4.11955 8.38662C2.42107 8.38662 1.04417 9.62427 1.04417 11.151C1.04417 12.6777 2.42107 13.9154 4.11955 13.9154Z" />
  <rect width="24" height="24" />
</svg>
