<svg
  xmlns="http://www.w3.org/2000/svg"
  width="24"
  height="24"
  viewBox="0 0 24 24"
  fill="none"
  stroke="currentColor"
  stroke-width="2"
  stroke-linecap="round"
  stroke-linejoin="round"
>
  <path d="M10 6a2 2 0 0 0-1.6.8l-3 4a2 2 0 0 0-.132 2.2l.886 1.534a1 1 0 0 0 1.459.256l1.176-.906" />
  <path d="M10.376 6 8.047 17.566a2 2 0 0 0 .683 1.979l2.612 2.208a1 1 0 0 0 1.315.002l2.616-2.212a2 2 0 0 0 .678-1.983L13.624 6" />
  <path d="M15 2a1 1 0 0 1 .895 1.447l-1 2A1 1 0 0 1 14 6h-4a1 1 0 0 1-.895-.553l-1-2A1 1 0 0 1 9 2z" />
</svg>
