<svg
  xmlns="http://www.w3.org/2000/svg"
  width="24"
  height="24"
  viewBox="0 0 24 24"
  fill="none"
  stroke="currentColor"
  stroke-width="2"
  stroke-linecap="round"
  stroke-linejoin="round"
>
  <path d="M20 12C20 16.4183 16.4183 20 12 20H6.1983C6.0136 20 5.9213 20 5.8436 19.9877C5 19.9877 4.0123 19 4.0123 18.1564C4 18.0787 4 17.9858 4 17.8001V12C4 7.5817 7.5817 4 12 4C16.4183 4 20 7.5817 20 12Z" />
  <path d="M9.3501 11.3013C8.9359 11.3013 8.6001 11.6371 8.6001 12.0513C8.6001 12.4655 8.9359 12.8013 9.3501 12.8013H11.2014V14.6525C11.2014 15.0667 11.5372 15.4025 11.9514 15.4025C12.3656 15.4025 12.7014 15.0667 12.7014 14.6525V12.8013H14.5527C14.9669 12.8013 15.3027 12.4655 15.3027 12.0513C15.3027 11.6371 14.9669 11.3013 14.5527 11.3013H12.7014V9.45C12.7014 9.0357 12.3656 8.7 11.9514 8.7C11.5372 8.7 11.2014 9.0357 11.2014 9.45V11.3013H9.3501Z" />
</svg>
