<?xml version="1.0" encoding="UTF-8"?><svg id="Layer_1" xmlns="http://www.w3.org/2000/svg" viewBox="0 0 24 26.76"><path d="M1.75,17.7c2.3-.3,4.52-1.21,6.83-1.39v2.37c0,.34.03.77-.22,1.03-.44.46-1.55.49-2.15.61-1.21.25-2.43.49-3.62.78-.42.1-1.08.12-1.39.45-.59.61-.68,1.91-.7,2.7,2.05-.4,4.1-.8,6.13-1.27.91-.21,1.88-.27,2.61-.92.79-.71,1.87-2.17,1.98-3.25.08-.78-.33-2.38.24-2.99.51-.54,1.87-.55,2.56-.78v5.58c2.09-.17,4.23-.84,6.27-1.3.67-.15,1.88-.14,2.4-.63.63-.59.62-1.88.81-2.67-2.23.18-4.68.79-6.83,1.39v-2.93c1.44-.11,2.91-.56,4.32-.87.5-.11,1.31-.15,1.7-.51.65-.61.62-1.87.81-2.67-1.3.06-2.64.46-3.9.77-.97.24-1.96.35-2.93.62V1.95c-.92.35-2.11,1.15-2.52,2.09-.23.54-.13,1.24-.13,1.81v3.62c0,.69.3,2.3-.22,2.82-.51.5-1.88.57-2.56.66V.56c-.92.35-2.21,1.27-2.56,2.23-.25.68-.08,1.65-.08,2.37v5.3c0,.77.28,2.22-.14,2.89-.31.49-1.03.44-1.53.56-.92.21-1.86.41-2.79.58-.47.08-1.19.12-1.57.43-.61.5-.74,2.05-.79,2.79h0Z"/><path d="M14.02,26.21c2.08-.17,4.23-.84,6.27-1.3.7-.16,1.89-.19,2.42-.72.61-.62.6-1.78.79-2.58-2.1.17-4.21.79-6.27,1.22-.68.15-1.9.15-2.41.67-.63.64-.6,1.89-.79,2.71h0Z"/></svg>