<svg id="Layer_1" data-name="Layer 1" xmlns="http://www.w3.org/2000/svg" viewBox="0 0 24 24"><defs><style>.cls-1,.cls-2{fill:none;stroke:#000;stroke-linecap:round;stroke-miterlimit:10;}.cls-1{stroke-width:2px;}.cls-2{stroke-width:1.93px;}</style></defs><path class="cls-1" d="M6,21H18.5A2.5,2.5,0,0,0,21,18.5V5a2,2,0,0,0-2-2H10A2,2,0,0,0,8,5V7"/><line class="cls-1" x1="12" y1="16" x2="17" y2="16"/><line class="cls-1" x1="12" y1="12" x2="17" y2="12"/><line class="cls-1" x1="12" y1="8" x2="17" y2="8"/><path class="cls-2" d="M5,7H8A0,0,0,0,1,8,7V18.5A2.5,2.5,0,0,1,5.5,21h0A2.5,2.5,0,0,1,3,18.5V9A2,2,0,0,1,5,7Z"/></svg>