<svg
  xmlns="http://www.w3.org/2000/svg"
  width="24"
  height="24"
  viewBox="0 0 24 24"
  fill="none"
  stroke="currentColor"
  stroke-width="2"
  stroke-linecap="round"
  stroke-linejoin="round"
>
  <path d="m2 2 20 20" />
  <path d="M12 4V2" />
  <path d="M5 10v4a7.004 7.004 0 0 0 5.277 6.787A2.354 2.354 0 0 1 12 22l.621-.621c.3-.3.69-.488 1.102-.592a7.01 7.01 0 0 0 4.125-2.939" />
  <path d="M19 10v3.343" />
  <path d="M12 12a4.395 4.395 0 0 1-2.5-2A4.54 4.54 0 0 1 7 12a5.095 5.095 0 0 1-2-2 4.993 4.993 0 0 1-3 1 6.671 6.671 0 0 0 2-3 4.163 4.163 0 0 1 1.79-2.21" />
  <path d="M17.444 11.787A2.638 2.638 0 0 0 19 10a3.215 3.215 0 0 0 3 1 5.223 5.223 0 0 1-2-3c-.5-2-4-4-8-4a12.122 12.122 0 0 0-2.15.192" />
</svg>