<svg
  xmlns="http://www.w3.org/2000/svg"
  width="24"
  height="24"
  viewBox="0 0 24 24"
  fill="none"
  stroke="currentColor"
  stroke-width="2"
  stroke-linecap="round"
  stroke-linejoin="round"
>
  <path d="M12 4V2" />
  <path d="M5 10v4a7.004 7.004 0 0 0 5.277 6.787A2.354 2.354 0 0 1 12 22l.621-.621c.3-.3.69-.488 1.102-.592A7.003 7.003 0 0 0 19 14v-4" />
  <path d="M12 4C8 4 4.5 6 4 8a6.671 6.671 0 0 1-2 3 4.993 4.993 0 0 0 3-1c.54.92.982 1.356 2 2a4.54 4.54 0 0 0 2.5-2 4.395 4.395 0 0 0 2.5 2 5.194 5.194 0 0 0 2.5-2 4.644 4.644 0 0 0 2.5 2 2.913 2.913 0 0 0 2-2 3.215 3.215 0 0 0 3 1 5.223 5.223 0 0 1-2-3c-.5-2-4-4-8-4" />
</svg>