<svg
  xmlns="http://www.w3.org/2000/svg"
  width="24"
  height="24"
  viewBox="0 0 24 24"
  fill="none"
  stroke="currentColor"
  stroke-width="2"
  stroke-linecap="round"
  stroke-linejoin="round"
>
  <path d="M10 15V9" />
  <path d="M14 15V9" />
  <path d="M2.586 16.872A2 2 0 0 1 2 15.458V8.542a2 2 0 0 1 .586-1.414l4.542-4.542A2 2 0 0 1 8.542 2h6.916a2 2 0 0 1 1.414.586l4.542 4.542A2 2 0 0 1 22 8.542v6.916a2 2 0 0 1-.586 1.414l-4.542 4.542a2 2 0 0 1-1.414.586H8.542a2 2 0 0 1-1.414-.586z" />
</svg>
