<svg
  xmlns="http://www.w3.org/2000/svg"
  width="24"
  height="24"
  viewBox="0 0 24 24"
  fill="none"
  stroke="currentColor"
  stroke-width="2"
  stroke-linecap="round"
  stroke-linejoin="round"
>
  <path d="M10.2534 13.785L10.215 13.7465" />
  <path d="M10.2534 17.3165L10.215 17.278" />
  <path d="M13.7852 10.2535L13.7467 10.215" />
  <path d="M13.7852 13.785L13.7467 13.7465" />
  <path d="M13.7852 17.3165L13.7467 17.278" />
  <path d="M17.3167 10.2535L17.2782 10.215" />
  <path d="M17.3167 13.785L17.2782 13.7465" />
  <path d="M17.3167 17.3165L17.2782 17.278" />
  <path d="M17.3167 6.72198L17.2782 6.68353" />
  <path d="M19 3H5C3.89543 3 3 3.89543 3 5V19C3 20.1046 3.89543 21 5 21H19C20.1046 21 21 20.1046 21 19V5C21 3.89543 20.1046 3 19 3Z" />
  <path d="M6.72192 17.3165L6.68347 17.278" />
</svg>
