<svg
  xmlns="http://www.w3.org/2000/svg"
  width="24"
  height="24"
  viewBox="0 0 24 24"
  fill="none"
  stroke="currentColor"
  stroke-width="2"
  stroke-linecap="round"
  stroke-linejoin="round"
>
  <path d="M11 11L11.007 11.0071" />
  <path d="M11 5L11.007 5.00707" />
  <path d="M14 2L14.0071 2.00707" />
  <path d="M14 8L14.007 8.00707" />
  <path d="M17 5L17.0071 5.00707" />
  <path d="M19.9958 21.9992L5.46948 21.9992" />
  <path d="M2 14L2.00707 14.0071" />
  <path d="M2 2L2.00707 2.00707" />
  <path d="M2 8L2.00707 8.00707" />
  <path d="M2.00024 20L2.00732 20.0071" />
  <path d="M20 2L20.0071 2.00707" />
  <path d="M21.9958 19.9992C21.9958 21.1037 21.1003 21.9992 19.9958 21.9992" />
  <path d="M21.9961 5.46L21.9961 19.999" />
  <path d="M5 11L5.00707 11.0071" />
  <path d="M5 17L5.00707 17.007" />
  <path d="M5 5L5.00707 5.00707" />
  <path d="M8 14L8.00707 14.0071" />
  <path d="M8 2L8.00707 2.00707" />
  <path d="M8 8L8.00707 8.00707" />
</svg>
