<svg
  xmlns="http://www.w3.org/2000/svg"
  width="24"
  height="24"
  viewBox="0 0 24 24"
  fill="none"
  stroke="currentColor"
  stroke-width="2"
  stroke-linecap="round"
  stroke-linejoin="round"
>
  <path d="M12 12L12.007 12.0071" />
  <path d="M12 6L12.007 6.00707" />
  <path d="M15 9L15.007 9.00707" />
  <path d="M18 6L18.0071 6.00707" />
  <path d="M20 2H4C2.89543 2 2 2.89543 2 4V20C2 21.1046 2.89543 22 4 22H20C21.1046 22 22 21.1046 22 20V4C22 2.89543 21.1046 2 20 2Z" />
  <path d="M6 12L6.00707 12.0071" />
  <path d="M6 18L6.00707 18.007" />
  <path d="M6 6L6.00707 6.00707" />
  <path d="M9 15L9.00707 15.0071" />
  <path d="M9 9L9.00707 9.00707" />
</svg>
