<svg
  xmlns="http://www.w3.org/2000/svg"
  width="24"
  height="24"
  viewBox="0 0 24 24"
  fill="none"
  stroke="currentColor"
  stroke-width="2"
  stroke-linecap="round"
  stroke-linejoin="round"
>
  <path d="M11.2301 11.1884L11.2845 11.1884" />
  <path d="M11.2804 6.20145L11.3348 6.20145" />
  <path d="M13.7316 3.75046L13.786 3.75046" />
  <path d="M13.7487 8.66959L13.8031 8.66959" />
  <path d="M16.1999 6.2186L16.2542 6.2186" />
  <path d="M18.7404 3.67789L18.7948 3.67789" />
  <path d="M21 7.08085V19C21 20.1046 20.1046 21 19 21H7.20435" />
  <path d="M3.55094 18.8675L3.60531 18.8675" />
  <path d="M3.65738 3.616L3.71176 3.616" />
  <path d="M3.74039 13.7417L3.79477 13.7417" />
  <path d="M3.74869 8.72342L3.80307 8.72342" />
  <path d="M6.20865 16.2098L6.26303 16.2098" />
  <path d="M6.25357 11.2284L6.30795 11.2284" />
  <path d="M6.2565 6.21518L6.31088 6.21518" />
  <path d="M8.72183 13.6965L8.77621 13.6965" />
  <path d="M8.76187 8.72031L8.81625 8.72031" />
  <path d="M8.77554 3.6965L8.82992 3.6965" />
</svg>
