<svg
  xmlns="http://www.w3.org/2000/svg"
  width="24"
  height="24"
  viewBox="0 0 24 24"
  fill="none"
  stroke="currentColor"
  stroke-width="2"
  stroke-linecap="round"
  stroke-linejoin="round"
>
  <path d="M 19.9958 21.9992 L 4.63 21.9991" />
  <path d="M 21.9958 19.9992 C 21.9958 21.1037 21.1003 21.9992 19.9958 21.9992" />
  <path d="M10.4854 10.4853L10.4924 10.4924" />
  <path d="M10.4854 4.82843L10.4924 4.8355" />
  <path d="M13.3137 2L13.3208 2.00707" />
  <path d="M13.314 7.65686L13.321 7.66393" />
  <path d="M16.1423 4.82843L16.1494 4.8355" />
  <path d="M18.9707 2L18.9778 2.00707" />
  <path d="M2 13.3137L2.00707 13.3208" />
  <path d="M2 2L2.00707 2.00707" />
  <path d="M2 7.65686L2.00707 7.66393" />
  <path d="M2.00024 18.9706L2.00732 18.9777" />
  <path d="M22 4.63 L21.996 19.999" />
  <path d="M4.82837 10.4853L4.83544 10.4924" />
  <path d="M4.82837 4.82843L4.83544 4.8355" />
  <path d="M4.82861 16.1422L4.83568 16.1492" />
  <path d="M7.65674 7.65686L7.66381 7.66393" />
  <path d="M7.65698 13.3137L7.66405 13.3208" />
  <path d="M7.65698 2L7.66405 2.00707" />
</svg>
