<svg
  xmlns="http://www.w3.org/2000/svg"
  width="24"
  height="24"
  viewBox="0 0 24 24"
  fill="none"
  stroke="currentColor"
  stroke-width="2"
  stroke-linecap="round"
  stroke-linejoin="round"
>
  <path d="M12.0285 7.00821L12.0829 7.00821" />
  <path d="M12.0495 11.9939L12.1038 11.9939" />
  <path d="M14.5597 9.46951L14.6141 9.46951" />
  <path d="M16.9518 7.00821L17.0062 7.00821" />
  <path d="M19 3H5C3.89543 3 3 3.89543 3 5V19C3 20.1046 3.89543 21 5 21H19C20.1046 21 21 20.1046 21 19V5C21 3.89543 20.1046 3 19 3Z" />
  <path d="M6.99381 11.9939L7.04819 11.9939" />
  <path d="M6.99381 16.9918L7.04819 16.9918" />
  <path d="M6.99381 7.00821L7.04819 7.00821" />
  <path d="M9.53189 9.46951L9.58627 9.46951" />
  <path d="M9.55191 14.4945L9.60629 14.4945" />
</svg>
