<svg
  xmlns="http://www.w3.org/2000/svg"
  width="24"
  height="24"
  viewBox="0 0 24 24"
  fill="none"
  stroke="currentColor"
  stroke-width="2"
  stroke-linecap="round"
  stroke-linejoin="round"
>
  <path d="M10.9,11.3l4-2.3l3.5,2c1.9,1.1,2.6,3.6,1.5,5.5l0,0c-0.8,1.5-2.5,2.2-4.1,2"/>
  <path d="M12,10.7l4,2.3v4c0,2.2-1.8,4-4,4h0c-1.7,0-3.1-1.1-3.7-2.5"/>
  <path d="M13.1,11.3V16l-3.5,2c-1.9,1.1-4.4,0.4-5.5-1.5l0,0C3.4,15,3.5,13.2,4.5,12"/>
  <path d="M13.1,12.7l-4,2.3l-3.5-2c-1.9-1.1-2.6-3.6-1.5-5.5l0,0c0.8-1.4,2.4-2.2,4-2"/>
  <path d="M12,13.3L8,11V7c0-2.2,1.8-4,4-4h0c1.7,0,3.1,1,3.7,2.4"/>
  <path d="M10.9,12.7V8l3.5-2c1.9-1.1,4.4-0.4,5.5,1.5l0,0c0.8,1.4,0.7,3.2-0.3,4.4"/>
  <line x1="12" y1="11" x2="12" y2="13"/>
</svg>
