<svg
  xmlns="http://www.w3.org/2000/svg"
  width="24"
  height="24"
  viewBox="0 0 24 24"
  fill="none"
  stroke="currentColor"
  stroke-width="2"
  stroke-linecap="round"
  stroke-linejoin="round"
>
  <circle cx="12" cy="12" r="3" />
  <circle cx="18" cy="6" r="2" />
  <circle cx="6" cy="18" r="2" />
  <path d="M18.8 7.8c.2.3.4.7.5 1.1.4 1 .6 2 .6 3.1s-.2 2.2-.6 3.1c-.4 1-1 1.8-1.7 2.5s-1.6 1.3-2.5 1.7c-1 .4-2 .6-3.1.6" />
  <path d="M5.2 16.2c-.2-.3-.4-.7-.5-1.1-.4-1-.6-2-.6-3.1s.2-2.2.6-3.1c.4-1 1-1.8 1.7-2.5S7.9 5 8.9 4.6c1-.4 2-.6 3.1-.6" />
</svg>
