<svg
  xmlns="http://www.w3.org/2000/svg"
  width="24"
  height="24"
  viewBox="0 0 24 24"
  fill="none"
  stroke="currentColor"
  stroke-width="2"
  stroke-linecap="round"
  stroke-linejoin="round"
>
  <path d="m12 21-7.414-7.414A2 2 0 0 1 4 12.172V6.415a1.002 1.002 0 0 1 1.707-.707L20 20.009" />
  <path d="M12 21h6.587c.265 0 .518-.105.706-.291l1.168-1.163a1 1 0 0 0 .167-1.199L12 3v9" />
  <path d="M12 21H6.351a1 1 0 0 1-.625-.219L3.25 18.8a1 1 0 0 1 .631-1.781l4.165.027" />
  <path d="M12 3h7.297a1 1 0 0 1 .651 1.759l-4.696 4.025" />
</svg>
