<svg
  xmlns="http://www.w3.org/2000/svg"
  width="24"
  height="24"
  viewBox="0 0 24 24"
  fill="none"
  stroke="currentColor"
  stroke-width="2"
  stroke-linecap="round"
  stroke-linejoin="round"
>
  <path d="M12 22v-9" />
  <path d="M20.9 8.84a2.12 2.12 0 0 1 .1 3.67l-3.8 2.24a2 2 0 0 1-1.93 0L3.05 7.82a2.12 2.12 0 0 1 .05-3.69l3.65-1.9a1.93 1.93 0 0 1 1.81 0Z" />
  <path d="M3.1 8.84a2.12 2.12 0 0 0-.1 3.67l3.8 2.24a2 2 0 0 0 1.93 0L21 7.82a2.12 2.12 0 0 0-.1-3.69l-3.65-1.9a1.93 1.93 0 0 0-1.81 0Z" />
  <path d="M20 13.5v3.37a2.06 2.06 0 0 1-1.11 1.83l-5.99 3.08a1.93 1.93 0 0 1-1.79 0L5.1 18.7A2.06 2.06 0 0 1 4 16.87V13.5" />
</svg>