<svg
  xmlns="http://www.w3.org/2000/svg"
  width="24"
  height="24"
  viewBox="0 0 24 24"
  fill="none"
  stroke="currentColor"
  stroke-width="2"
  stroke-linecap="round"
  stroke-linejoin="round"
>
  <path d="M12 22v-9" />
  <path d="M8.6 2.2a1.93 1.93 0 0 0-1.85.03L3.1 4.1a2.12 2.12 0 0 0-.05 3.72L15.3 14.8a2 2 0 0 0 1.91-.05L21 12.5a2.12 2.12 0 0 0-.09-3.66Z" />
  <path d="M15.4 2.2a1.93 1.93 0 0 1 1.85.03L20.9 4.1a2.12 2.12 0 0 1 .1 3.72L8.7 14.8a2 2 0 0 1-1.91-.05L3 12.5a2.12 2.12 0 0 1 .09-3.66Z" />
  <path d="M20 13.1v3.8a2.06 2.06 0 0 1-1.11 1.8l-5.99 3.1a1.93 1.93 0 0 1-1.79-.02L5.1 18.7A2.06 2.06 0 0 1 4 16.87V13.1" />
</svg>
