<svg
  xmlns="http://www.w3.org/2000/svg"
  width="24"
  height="24"
  viewBox="0 0 24 24"
  fill="none"
  stroke="currentColor"
  stroke-width="2"
  stroke-linecap="round"
  stroke-linejoin="round"
>
  <path d="M12 22V12" />
  <path d="M16 15.5 L18 17.5" />
  <path d="M16 15.5 L20 15.5" />
  <path d="M18 13.5 L16 15.5" />
  <path d="M20 15.5 A2 2 0 0 1 20 20.5" />
  <path d="M20 20.5 L18.5 20.5" />
  <path d="M21 10.498V8a2 2 0 0 0-1-1.73l-7-4a2 2 0 0 0-2 0l-7 4A2 2 0 0 0 3 8v8a2 2 0 0 0 1 1.729l7 4a2 2 0 0 0 2 .001l.98-.559" />
  <path d="M3.29 7 12 12l8.71-5" />
  <path d="m7.5 4.27 8.997 5.148" />
</svg>
