<svg xmlns="http://www.w3.org/2000/svg" width="24" height="24" viewBox="0 0 24 24" fill="none" stroke="currentColor" stroke-width="2" stroke-linecap="round" stroke-linejoin="round">
  <path d="M16.5 3.5a2.121 2.121 0 0 1 3 3L7 19l-4 1 1-4Z"/>
  <path d="m15 5 3 3"/>
  <path d="M10.41 11.59c.2-.2.2-.51 0-.71L6.12 6.59a1.5 1.5 0 0 0-2.12 0L2.59 8.01a1.5 1.5 0 0 0 0 2.12l4.29 4.29c.2.2.51.2.71 0Z"/>
  <circle cx="6.5" cy="17.5" r="1.5"/>
  <circle cx="9.5" cy="14.5" r="1.5"/>
  <circle cx="12.5" cy="11.5" r="1.5"/>
  <circle cx="15.5" cy="8.5" r="1.5"/>
</svg>
