<svg
  xmlns="http://www.w3.org/2000/svg"
  width="24"
  height="24"
  viewBox="0 0 24 24"
  fill="none"
  stroke="currentColor"
  stroke-width="2"
  stroke-linecap="round"
  stroke-linejoin="round"
>
  <path d="M11.25 16.25h1.5L12 17z" />
  <path d="M12 5c5 0 9 4 9 8 0 5-3 8-9 8s-9-3-9-8c0-4 4-8 9-8" />
  <path d="m15 12 2 2" />
  <path d="M18.045 3a3 3 0 0 0-3 2.5" />
  <path d="M19.5 8.6A3 3 0 0 0 18 3" />
  <path d="M4.5 8.6A3 3 0 0 1 6 3" />
  <path d="M5.955 3a3 3 0 0 1 3 2.5" />
  <path d="m9 12-2 2" />
</svg>
