<svg
  xmlns="http://www.w3.org/2000/svg"
  width="24"
  height="24"
  viewBox="0 0 24 24"
  fill="none"
  stroke="currentColor"
  stroke-width="2"
  stroke-linecap="round"
  stroke-linejoin="round"
>
  <path d="M11.25 17.25h1.5L12 18z" />
  <path d="m15 12 2 2" />
  <path d="M18 6.502A.502.502 0 0 0 17.498 6" />
  <path d="M2 14.5C2 19.47 6.477 22 12 22s10-2 10-7.5c0-1.62-.476-3.3-1.308-4.828a4.486 4.486 0 1 0-7.04-5.506 8.345 8.345 0 0 0-3.304 0 4.497 4.497 0 1 0-7.04 5.506C2.476 11.2 2 12.88 2 14.5" />
  <path d="M6 6.502A.502.502 0 0 1 6.502 6" />
  <path d="m9 12-2 2" />
</svg>
