<svg
  xmlns="http://www.w3.org/2000/svg"
  width="24"
  height="24"
  viewBox="0 0 24 24"
  fill="none"
  stroke="currentColor"
  stroke-width="2"
  stroke-linecap="round"
  stroke-linejoin="round"
>
  <path d="M5.364 3.848C4 6 3 9.652 3 12.652V19a2 2 0 0 0 2 2h14a2 2 0 0 0 2-2v-5c0-2.334-1.816-4.668-2.622-7.002" />
  <path d="M7 3h11.379a2 2 0 0 1 1.789 1.106l.723 1.447A1 1 0 0 1 19.997 7h-8.525a2 2 0 0 1-1.789-1.106L8.79 4.105a2 2 0 1 0-3.579 1.789l2.261 4.522A5 5 0 0 1 8 12.652V21" />
</svg>
