<svg
  xmlns="http://www.w3.org/2000/svg"
  width="24"
  height="24"
  viewBox="0 0 24 24"
  fill="none"
  stroke="currentColor"
  stroke-width="2"
  stroke-linecap="round"
  stroke-linejoin="round"
>
  <path d="m16 17-1 3" />
  <path d="M16 19h4" />
  <path d="m20 17 1 3" />
  <path d="M22 15.998 14 16" />
  <path d="M6.79 19.118v-3.883" />
  <path d="m9.584 10.706 1.677 2.135a.7.7 0 0 1-.085.988.5.5 0 0 1-.306.112H2.709a.5.5 0 0 1-.306-.112.64.64 0 0 1-.203-.288.74.74 0 0 1 .118-.7l1.677-2.135h-.168a.5.5 0 0 1-.306-.112.64.64 0 0 1-.203-.289.74.74 0 0 1 .118-.7l1.677-2.134H5a.5.5 0 0 1-.328-.083.6.6 0 0 1-.228-.286.74.74 0 0 1 .109-.731L6.79 3.588l2.235 2.783a.7.7 0 0 1-.119 1.016.5.5 0 0 1-.328.084h-.112l1.677 2.135a.7.7 0 0 1-.085.988.5.5 0 0 1-.306.112z" />
  <circle cx="19" cy="6" r="2" />
</svg>
