<svg
  xmlns="http://www.w3.org/2000/svg"
  width="24"
  height="24"
  viewBox="0 0 24 24"
  fill="none"
  stroke="currentColor"
  stroke-width="2"
  stroke-linecap="round"
  stroke-linejoin="round"
>
  <path d="m10.017 9.875 1.81 2.063A.63.63 0 0 1 11.405 13h-8.81a.6.6 0 0 1-.422-1.063l1.81-2.062h-.181a.6.6 0 0 1-.423-1.063L5.19 6.75h-.12a.6.6 0 0 1-.483-1.062L7 3l2.414 2.688a.63.63 0 0 1-.483 1.062h-.12l1.81 2.063a.63.63 0 0 1-.422 1.062z" />
  <path d="m16 17-1 3" />
  <path d="M16 19h4" />
  <path d="m20 17 1 3" />
  <path d="M22 15.998 14 16" />
  <path d="M7 15v-1" />
  <circle cx="19" cy="6" r="2" />
</svg>
