<svg
  xmlns="http://www.w3.org/2000/svg"
  width="24"
  height="24"
  viewBox="0 0 24 24"
  fill="none"
  stroke="currentColor"
  stroke-width="2"
  stroke-linecap="round"
  stroke-linejoin="round"
>
  <path d="M 15.5 17.01 L 14.5 20.01" />
  <path d="M 15.5 19.01 L 19.5 19.01" />
  <path d="M 19.5 17.01 L 20.5 20.01" />
  <path d="M 21.5 16 L 13.5 16.01" />
  <path d="M6.78 19.11v-3.88" />
  <path d="m9.58 10.7 1.68 2.14a.8.8 0 0 1 .15.33.7.7 0 0 1-.24.65.52.52 0 0 1-.31.12H2.7a.5.5 0 0 1-.3-.12.63.63 0 0 1-.09-.98l1.68-2.14h-.17a.48.48 0 0 1-.3-.11.63.63 0 0 1-.21-.29.8.8 0 0 1-.03-.37.67.67 0 0 1 .15-.33l1.68-2.13H5a.5.5 0 0 1-.33-.09.6.6 0 0 1-.23-.28.86.86 0 0 1-.05-.39.67.67 0 0 1 .16-.34l2.23-2.79 2.24 2.79a.66.66 0 0 1-.12 1.01.5.5 0 0 1-.33.09h-.11l1.68 2.13a.8.8 0 0 1 .12.7.7.7 0 0 1-.21.29.48.48 0 0 1-.3.11z" />
  <circle cx="18" cy="6" r="2" />
</svg>
