<svg
  xmlns="http://www.w3.org/2000/svg"
  viewBox="0 0 24 24"
  fill="none"
  stroke="currentColor"
  stroke-width="2"
  stroke-linecap="round"
  stroke-linejoin="round"
>
  <rect width="5.545" height="2.6" x="14.227" y="12.5" rx="0.5" />
  <rect width="7" height="1.7" x="13.5" y="17" rx="0.5" />
  <path d="M15.667 15.6v1.35M18.333 15.6v1.35" />
  <path fill="#000" d="M13.833 21a.5.5 0 0 0 1 0h-1Zm.5-1.8h-.5V21h1v-1.8h-.5ZM19.167 21a.5.5 0 1 0 1 0h-1Zm.5-1.8h-.5V21h1v-1.8h-.5ZM8.5 4a.5.5 0 0 0-1 0h1ZM8 4h-.5v16h1V4H8Z" />
  <path fill="#161515" d="M13.065 6.5c0-2.46-2.005-4.524-4.565-4.524-2.56 0-4.565 2.065-4.565 4.524 0 2.458 2.005 4.524 4.565 4.524V12l-.283-.008a5.5 5.5 0 0 1-5.21-5.21L3 6.5A5.5 5.5 0 0 1 8.5 1l.283.008A5.5 5.5 0 0 1 14 6.5l-.007.283A5.5 5.5 0 0 1 8.5 12v-.976c2.56 0 4.565-2.066 4.565-4.524Z" />
  <path fill="#000" d="m11.573 20 .086.01c.195.046.341.248.341.49s-.146.444-.34.49l-.087.01H4.427C4.19 21 4 20.776 4 20.5s.191-.5.427-.5h7.146ZM9.935 5.878a.5.5 0 1 1 .782.623l-.113.14-2.212 2.787L8 9.116l-.392-.31 2.327-2.928Z" />
</svg>