<svg
  xmlns="http://www.w3.org/2000/svg"
  width="24"
  height="24"
  viewBox="0 0 24 24"
  fill="none"
  stroke="currentColor"
  stroke-width="2"
  stroke-linecap="round"
  stroke-linejoin="round"
>
  <path d="m14.727 16.546-.909 2.727" />
  <path d="M14.727 18.364h3.637" />
  <path d="m18.364 16.546.909 2.727" />
  <path d="m20.182 15.635-7.273.001" />
  <path d="M7.263 18.47v-3.529" />
  <path d="m9.804 10.824 1.524 1.94a.6.6 0 0 1 .136.3.7.7 0 0 1-.029.336.6.6 0 0 1-.184.263.46.46 0 0 1-.278.102h-7.42a.46.46 0 0 1-.278-.102.6.6 0 0 1-.184-.263.7.7 0 0 1-.029-.336.6.6 0 0 1 .136-.3l1.524-1.94H4.57a.46.46 0 0 1-.279-.102.6.6 0 0 1-.184-.263.7.7 0 0 1-.029-.336.6.6 0 0 1 .136-.3l1.525-1.94h-.102a.45.45 0 0 1-.298-.076.56.56 0 0 1-.207-.26.7.7 0 0 1-.041-.35.6.6 0 0 1 .14-.315l2.032-2.53 2.033 2.53a.63.63 0 0 1-.108.925.45.45 0 0 1-.299.075h-.101l1.524 1.941a.6.6 0 0 1 .136.3.7.7 0 0 1-.029.336.6.6 0 0 1-.184.263.46.46 0 0 1-.279.101z" />
  <circle cx="17.455" cy="6.546" r="1.727" />
</svg>
