<svg
  xmlns="http://www.w3.org/2000/svg"
  width="24"
  height="24"
  viewBox="0 0 24 24"
  fill="none"
  stroke="currentColor"
  stroke-width="2"
  stroke-linecap="round"
  stroke-linejoin="round"
>
  <path d="M5.8 11.3 2 22l10.7-3.8" />
  <path d="M 4 3h0.01" />
  <path d="M 22 8h0.01" />
  <path d="M 15 2h0.01" />
  <path d="M 22 20h0.01" />
  <path d="m22 2-2.24.75a2.9 2.9 0 0 0-1.96 3.12 1.461 1.461 0 0 1-1.45 1.63H16a1.782 1.782 0 0 0-1.79 1.44L14 10" />
  <path d="m22 13-.82-.33a1.467 1.467 0 0 0-1.98 1.11A1.45 1.45 0 0 1 17.77 15H17" />
  <path d="m11 2 .33.82a1.467 1.467 0 0 1-1.11 1.98C9.52 4.9 9 5.52 9 6.23V7" />
  <path d="M11 13c1.93 1.93 2.83 4.17 2 5-.83.83-3.07-.07-5-2-1.93-1.93-2.83-4.17-2-5 .83-.83 3.07.07 5 2" />
</svg>