<svg
  xmlns="http://www.w3.org/2000/svg"
  width="24"
  height="24"
  viewBox="0 0 24 24"
  fill="none"
  stroke="currentColor"
  stroke-width="2"
  stroke-linecap="round"
  stroke-linejoin="round"
>
  <path d="M 15.879 5.35 L 3.235 2.028" />
  <path d="M 16.625 6.126 A1 1 0 0 0 15.879 5.35" />
  <path d="M 18 13 L 16.625 6.126" />
  <path d="M 2.3 2.3 L 9.586 9.586" />
  <path d="M 2.028 3.235 L 5.35 15.879" />
  <path d="M 3.235 2.028 A1 1 0 0 0 2.028 3.235" />
  <path d="M 5.35 15.879 A1 1 0 0 0 6.126 16.625" />
  <path d="M 6.126 16.625 L 13 18" />
  <path d="M15.707 21.293a1 1 0 0 1-1.414 0l-1.586-1.586a1 1 0 0 1 0-1.414l5.586-5.586a1 1 0 0 1 1.414 0l1.586 1.586a1 1 0 0 1 0 1.414z" />
  <circle cx="11" cy="11" r="2" />
</svg>
