<svg
  xmlns="http://www.w3.org/2000/svg"
  width="24"
  height="24"
  viewBox="0 0 24 24"
  fill="none"
  stroke="currentColor"
  stroke-width="2"
  stroke-linecap="round"
  stroke-linejoin="round"
>
  <path d="M21.174 6.81153C21.7026 6.28295 21.9995 5.56605 21.9995 4.81853C21.9995 4.07101 21.7026 3.3541 21.174 2.82553C20.6454 2.29695 19.9285 2 19.181 2C18.4335 2 17.7166 2.29695 17.188 2.82553L3.842 16.1725C3.60981 16.404 3.43811 16.6891 3.342 17.0025L2.021 21.3555C1.99515 21.442 1.9932 21.5339 2.01535 21.6214C2.03749 21.7089 2.08292 21.7888 2.14679 21.8525C2.21067 21.9163 2.29062 21.9616 2.37815 21.9836C2.46569 22.0056 2.55755 22.0035 2.644 21.9775L6.997 20.6575C7.31026 20.562 7.59528 20.391 7.827 20.1595L21.174 6.81153Z" stroke="black" stroke-width="2" stroke-linecap="round" stroke-linejoin="round"/>
</svg>
