<svg
  xmlns="http://www.w3.org/2000/svg"
  width="24"
  height="24"
  viewBox="0 0 24 24"
  fill="none"
  stroke="currentColor"
  stroke-width="2"
  stroke-linecap="round"
  stroke-linejoin="round"
>
  <path d="m15 5 4 4" />
  <path d="M13 7 8.7 2.7c-.9-.9-2.5-.9-3.4 0L2.7 5.3c-.9.9-.9 2.5 0 3.4L7 13" />
  <path d="m8 6 2-2" />
  <path d="M7.5 20.5 2 22l1.5-5.5L17 3a2.76 2.76 0 1 1 4.3 3.7Z" />
  <path d="m18 16 2-2" />
  <path d="m17 11 4.3 4.3c.94.94.94 2.46 0 3.4l-2.6 2.6c-.94.94-2.46.94-3.4 0L11 17" />
</svg>
