<svg
  xmlns="http://www.w3.org/2000/svg"
  width="24"
  height="24"
  viewBox="0 0 24 24"
  fill="none"
  stroke="currentColor"
  stroke-width="2"
  stroke-linecap="round"
  stroke-linejoin="round"
>
  <path d="M13 7 8.7 2.7a2.41 2.41 0 0 0-3.4 0L2.7 5.3a2.41 2.41 0 0 0 0 3.4L7 13" />
  <path d="m8 6 2-2" />
  <path d="m18 16 2-2" />
  <path d="m17 11 4.3 4.3c.94.94.94 2.46 0 3.4l-2.6 2.6c-.94.94-2.46.94-3.4 0L11 17" />
  <path d="M16.943 3.071a2.838 2.838 0 1 1 3.986 3.986L7.827 20.16a2 2 0 0 1-.83.498l-4.353 1.32a.5.5 0 0 1-.623-.622l1.321-4.353a2 2 0 0 1 .5-.83z" />
  <path d="m15 5 4 4" />
</svg>
