<svg
  xmlns="http://www.w3.org/2000/svg"
  width="24"
  height="24"
  viewBox="0 0 24 24"
  fill="none"
  stroke="currentColor"
  stroke-width="2"
  stroke-linecap="round"
  stroke-linejoin="round"
>
  <path d="M17 3a2.85 2.83 0 1 1 4 4L7.5 20.5 2 22l1.5-5.5Z" />
  <path d="m15 5 4 4" />
  <path d="M7 13 2.8 8.7c-1-.9-1-2.4 0-3.4l2.6-2.6c.9-1 2.4-1 3.4 0L13 7" />
  <path d="m8 6 2-2" />
  <path d="m17 11 4.3 4.2c1 .9 1 2.4 0 3.4l-2.6 2.6c-.9 1-2.4 1-3.4 0L11 17" />
  <path d="m18 16 2-2" />
</svg>
