<svg
  xmlns="http://www.w3.org/2000/svg"
  width="24"
  height="24"
  viewBox="0 0 24 24"
  fill="none"
  stroke="currentColor"
  stroke-width="2"
  stroke-linecap="round"
  stroke-linejoin="round"
>
  <path d="M22 16.92a2 2 0 0 0-1.72-2.03 12.84 12.84 0 0 1-2.81-.7 2 2 0 0 0-2.11.45L14.1 15.9a16 16 0 0 1-6.01-5.99l1.27-1.27a2 2 0 0 0 .45-2.11 12.84 12.84 0 0 1-.7-2.81 2 2 0 0 0-2-1.72H4.1a2 2 0 0 0-1.98 2.18 19.79 19.79 0 0 0 3.07 8.67 19.5 19.5 0 0 0 6 6 19.79 19.79 0 0 0 8.63 3.07 2 2 0 0 0 2.18-2Z" />
</svg>
