<svg
  xmlns="http://www.w3.org/2000/svg"
  width="24"
  height="24"
  viewBox="0 0 24 24"
  fill="none"
  stroke="currentColor"
  stroke-width="2"
  stroke-linecap="round"
  stroke-linejoin="round"
>
  <path d="M22 2 2 22" />
  <path d="M10.68 13.3a15.997 15.997 0 0 0 3.41 2.61l1.27-1.27a2 2 0 0 1 2.11-.45 12.833 12.833 0 0 0 2.81.7 2 2 0 0 1 1.72 2v3.01a2 2 0 0 1-2.18 1.99 19.79 19.79 0 0 1-11.96-5.74" />
  <path d="M5.2 12.8a19.79 19.79 0 0 1-3.08-8.62A2 2 0 0 1 4.11 2H7.1a2 2 0 0 1 2.01 1.72 12.833 12.833 0 0 0 .7 2.81 2 2 0 0 1-.45 2.11L8.1 9.9" />
</svg>