<svg
  xmlns="http://www.w3.org/2000/svg"
  width="24"
  height="24"
  viewBox="0 0 24 24"
  fill="none"
  stroke="currentColor"
  stroke-width="2"
  stroke-linecap="round"
  stroke-linejoin="round"
>
  <path d="M10.686 13.314a16 16 0 0 0 3.404 2.596l1.21-1.21a2 2 0 0 1 2.323-.455 13 13 0 0 0 2.385.603A2 2 0 0 1 22 17v3a2 2 0 0 1-1.997 1.901 20 20 0 0 1-12.145-5.759" />
  <path d="M22 2 2 22" />
  <path d="M5.31 13.03a20 20 0 0 1-3.211-9.033A2 2 0 0 1 4 2h3a2 2 0 0 1 2.152 1.992 13 13 0 0 0 .603 2.385A2 2 0 0 1 9.3 8.7L8.09 9.91l.12.22" />
</svg>
