<svg
  xmlns="http://www.w3.org/2000/svg"
  width="24"
  height="24"
  viewBox="0 0 24 24"
  fill="none"
  stroke="currentColor"
  stroke-width="2"
  stroke-linecap="round"
  stroke-linejoin="round"
>
  <path d="m14 13-8.381 8.38a1 1 0 0 1-3.001-3L11 9.999" />
  <path d="M16.248 3.752A12 12 0 0 0 4.47 3.347c-.867.45-.444 1.656.526 1.778a16 16 0 0 1 7.14 2.737" />
  <path d="M18.352 3.352a1.205 1.205 0 0 0-1.704 0l-5.296 5.296a1.205 1.205 0 0 0 0 1.704l2.296 2.296a1.205 1.205 0 0 0 1.704 0l5.296-5.296a1.205 1.205 0 0 0 0-1.704z" />
  <path d="M20.248 7.752a12 12 0 0 1 .404 11.777c-.45.867-1.656.444-1.778-.526a16 16 0 0 0-2.736-7.14" />
</svg>
