<svg
  xmlns="http://www.w3.org/2000/svg"
  width="24"
  height="24"
  viewBox="0 0 24 24"
  fill="none"
  stroke="currentColor"
  stroke-width="2"
  stroke-linecap="round"
  stroke-linejoin="round"
>
  <path d="M2 14c0-2.3.8-4.4 2.1-6.1C2.9 7.5 2 6.3 2 5V3h3c1.3 0 2.4.8 2.8 1.9a9.9 9.9 0 0 1 8.4 0C16.6 3.8 17.7 3 19 3h3v2c0 1.3-.9 2.5-2.1 2.9C21.2 9.6 22 11.7 22 14c0 4.4-3.6 8-8 8h-4c-4.4 0-8-3.6-8-8" />
  <path d="M10 10V8.5" />
  <path d="M14 8.5V10" />
  <path d="M14 18a4 4 0 1 0-2-7.4 4 4 0 1 0-2 7.4Z" />
  <path d="M10 14h.01" />
  <path d="M14 14h.01" />
</svg>
