<svg id="Layer_1" data-name="Layer 1" xmlns="http://www.w3.org/2000/svg" viewBox="0 0 24 24"><defs><style>.cls-1{fill:none;stroke:#000;stroke-linecap:round;stroke-linejoin:round;stroke-width:2px;}</style></defs><path class="cls-1" d="M3.86,12.22h0a2,2,0,0,1-1.8-2V9.47M4.7,12.73c0-.11-.07-1.05-.07-1.16,0-2.8,3.12-5.18,8.22-5.18A14.36,14.36,0,0,1,16,6.71,3,3,0,0,1,18.91,4.8a.42.42,0,0,1,.44.4V8.49a4.48,4.48,0,0,1,.72,1.09h1.44a.41.41,0,0,1,.43.39v3.19a.41.41,0,0,1-.43.39H20.17a3.8,3.8,0,0,1-1.69,2.19v3.72a.42.42,0,0,1-.44.4H15a.41.41,0,0,1-.43-.4V17.53H11.17v1.93a.41.41,0,0,1-.43.4H7.67a.42.42,0,0,1-.44-.4V16.58A4.79,4.79,0,0,1,4.7,12.73Zm11.18-2.36Z"/></svg>