<svg
  xmlns="http://www.w3.org/2000/svg"
  width="24"
  height="24"
  viewBox="0 0 24 24"
  fill="none"
  stroke="currentColor"
  stroke-width="2"
  stroke-linecap="round"
  stroke-linejoin="round"
>
  <circle cx="16" cy="7" r="4" />
  <circle cx="8" cy="7" r="4" />
  <path d="M4 22a2 2 0 0 0 2-2v-9.5" />
  <path d="M6 18H4a2 2 0 0 1-2-2v-3a2 2 0 0 1 2-2h2" />
  <path d="M6 16a4 4 0 0 0 4 4h4a4 4 0 0 0 4-4" />
  <path d="M18 11h2a2 2 0 0 1 2 2v3a2 2 0 0 1-2 2h-2" />
  <path d="M18 10.5V20a2 2 0 0 0 2 2" />
  <path d="M 10 15h0.01" />
  <path d="M 14 15h0.01" />
</svg>
