<svg
  xmlns="http://www.w3.org/2000/svg"
  width="24"
  height="24"
  viewBox="0 0 24 24"
  fill="none"
  stroke="currentColor"
  stroke-width="2"
  stroke-linecap="round"
  stroke-linejoin="round"
>
  <line x1="3" y1="21" x2="8.5" y2="15.5" />
  <line x1="2" y1="2" x2="22" y2="22" />
  <path d="M14.66 14.75a1.76 1.76 0 0 1-.14-.23l-5-5-.23-.14a4.18 4.18 0 0 0-5.5 0 .91.91 0 0 0 0 1.37l9.58 9.58a.91.91 0 0 0 1.37 0 4.18 4.18 0 0 0-.08-5.58Z" />
  <path d="m12.83 7.17.88-.88-.82-.85a2 2 0 0 1 0-2.83 2 2 0 0 1 2.84 0l5.66 5.56a2.08 2.08 0 0 1 0 2.94 2 2 0 0 1-2.83 0l-.87-.8-.86.86" />
</svg>
