<svg
  xmlns="http://www.w3.org/2000/svg"
  width="24"
  height="24"
  viewBox="0 0 24 24"
  fill="none"
  stroke="currentColor"
  stroke-width="2"
  stroke-linecap="round"
  stroke-linejoin="round"
>
  <path d="M18.81 11.36a2 2 0 0 0 2.83 0 2.08 2.08 0 0 0 0-2.94L16 2.86a2 2 0 0 0-2.84 0 2 2 0 0 0 0 2.83l.82.85-3 3a1.12 1.12 0 0 1-1.46.05 4.18 4.18 0 0 0-5.5 0A.91.91 0 0 0 4 11l9.58 9.58a.91.91 0 0 0 1.37 0 4.18 4.18 0 0 0 0-5.5 1.12 1.12 0 0 1 .05-1.54l3-3Z" />
  <path d="m8.75 15.75-5.5 5.5" />
</svg>
