<svg
  xmlns="http://www.w3.org/2000/svg"
  width="24"
  height="24"
  viewBox="0 0 24 24"
  fill="none"
  stroke="currentColor"
  stroke-width="2"
  stroke-linecap="round"
  stroke-linejoin="round"
>
  <path d="m5.41 8.863 6.718 6.723c-1.915-.2-3.527-1.009-4.449-.087l-3.272 3.275a.77.77 0 0 1-1.09 0l-1.091-1.095a.77.77 0 0 1 0-1.091l3.272-3.271c.92-.922.113-2.537-.087-4.454l-.025-1.119a5.48 5.48 0 0 1 1.748-3.705l.077-.076a7 7 0 0 1 9.802.139 7 7 0 0 1-.066 9.758 5.47 5.47 0 0 1-3.702 1.749h-1.117" />
  <path d="m7.134 16.047-2.181-2.185" />
  <circle cx="20" cy="20" r="2" />
</svg>
