<svg
  xmlns="http://www.w3.org/2000/svg"
  width="18"
  height="18"
  viewBox="0 0 18 18"
  fill="none"
  stroke="currentColor"
  stroke-width="2"
  stroke-linecap="round"
  stroke-linejoin="round"
>
  <path d="M14.4167 5.4167L15.8096 6.8096C17.1114 8.1114 17.1114 10.2219 15.8096 11.5237L14.4167 12.9167" />
  <path d="M3.5833 12.9167L5.4277 12.9167C5.5839 12.9167 5.7369 12.8728 5.8693 12.79L8.5583 11.1094C8.8286 10.9405 9.1714 10.9405 9.4417 11.1094L12.1307 12.79C12.2631 12.8728 12.4161 12.9167 12.5723 12.9167H14.4167" />
  <path d="M3.5833 12.9167L6.643 15.9763C7.9447 17.2781 10.0553 17.2781 11.357 15.9763L14.4167 12.9167" />
  <path d="M3.5833 5.4167L2.1904 6.8096C0.8886 8.1114 0.8886 10.2219 2.1904 11.5237L3.5833 12.9167" />
  <path d="M3.5833 5.4167L5.3536 5.4167C5.5554 5.4167 5.7504 5.4899 5.9023 5.6229L8.4513 7.8532C8.7654 8.1281 9.2346 8.1281 9.5488 7.8532L12.0977 5.6229C12.2496 5.4899 12.4446 5.4167 12.6464 5.4167L14.4167 5.4167" />
  <path d="M3.5833 5.4167L6.643 2.357C7.9447 1.0553 10.0553 1.0553 11.357 2.357L14.4167 5.4167" />
</svg>
