<svg 
  xmlns="http://www.w3.org/2000/svg" 
  width="100" 
  height="100" 
  viewBox="0 0 48 48"
  fill="currentColor"
>
  <path d="M11.9 12h-.68l8.04-8.04a6.71 6.71 0 0 1 9.48 0L36.78 12H36.1a6 6 0 0 0-4.24 1.76l-6.8 6.77a1.5 1.5 0 0 1-2.12 0l-6.8-6.77A6 6 0 0 0 11.9 12z"/>
  <path d="M36.1 36h.68l-8.04 8.04a6.71 6.71 0 0 1-9.48 0L11.22 36h.68a6 6 0 0 0 4.24-1.76l6.8-6.77a1.5 1.5 0 0 1 2.12 0l6.8 6.77A6 6 0 0 0 36.1 36z"/>
  <path d="M44.04 28.74 38.78 34H36.1a4 4 0 0 1-2.83-1.17l-6.8-6.78a3.5 3.5 0 0 0-4.94 0l-6.8 6.78A4 4 0 0 1 11.9 34H9.22l-5.26-5.26a6.71 6.71 0 0 1 0-9.48L9.22 14h2.68a4 4 0 0 1 2.83 1.17l6.8 6.78a3.5 3.5 0 0 0 4.94 0l6.8-6.78A4 4 0 0 1 36.1 14h2.68l5.26 5.26a6.71 6.71 0 0 1 0 9.48z"/>
</svg>
