<svg
  xmlns="http://www.w3.org/2000/svg"
  width="24"
  height="24"
  viewBox="0 0 24 24"
  fill="none"
  stroke="currentColor"
  stroke-width="2"
  stroke-linecap="round"
  stroke-linejoin="round"
>
  <path d="M4.121 9.879a3 3 0 0 0 0 4.242l5.657 5.657a3 3 0 0 0 4.243 0l5.657-5.657a3 3 0 0 0 0-4.242l-5.657-5.657a3 3 0 0 0-4.243 0z" />
  <path d="M5.21 15.21h2.237a3 3 0 0 0 2.12-.878l4.82-4.82a3 3 0 0 1 2.121-.878h1.925" />
  <path d="M5.366 8.634h1.925a3 3 0 0 1 2.121.879l4.82 4.819a3 3 0 0 0 2.12.878h2.237" />
</svg>
