<svg
  xmlns="http://www.w3.org/2000/svg"
  width="24"
  height="24"
  viewBox="0 0 24 24"
  fill="none"
  stroke="currentColor"
  stroke-width="2"
  stroke-linecap="round"
  stroke-linejoin="round"
>
  <path d="m10 12-1-1" />
  <path d="M14.7 18.8A4 4 0 0 0 7 20.9" />
  <path d="M18.346 17.775A15.7 15.7 0 0 0 6.226 5.654" />
  <path d="M3.268 21.964a1 1 0 0 1-1.232-1.232l5-18a1 1 0 0 1 1.232-.695 19.7 19.7 0 0 1 13.695 13.695 1 1 0 0 1-.695 1.232z" />
  <path d="M5.75 13.75 4.33 12.5" />
</svg>
