<svg
  xmlns="http://www.w3.org/2000/svg"
  width="24"
  height="24"
  viewBox="0 0 24 24"
  fill="none"
  stroke="currentColor"
  stroke-width="2"
  stroke-linecap="round"
  stroke-linejoin="round"
>
  <path d="M2 22h20" />
  <path d="M3.77 10.77a2 2 0 0 0 .52.38l13.06 6.52a2.32 2.32 0 0 0 1.37.24l1.18-.15c1-.12 1.55-1.22 1.1-2.1l-.64-1.03a2.46 2.46 0 0 0-1.01-.96l-4.4-2.17a2 2 0 0 1-1.09-1.55l-.72-5.4a2 2 0 0 0-1.09-1.52L11 2.5l-3 6-1.1-.55S6 12 6 6.5a1.634 1.634 0 0 0-.9-1.45L4 4.5 2 9Z" />
</svg>