<svg
  xmlns="http://www.w3.org/2000/svg"
  width="24"
  height="24"
  viewBox="0 0 24 24"
  fill="none"
  stroke="currentColor"
  stroke-width="2"
  stroke-linecap="round"
  stroke-linejoin="round"
>
  <path d="M10 12c-.408-.636-2.987-5.211 2-9.556C17.038 6.829 14 12 14 12" />
  <path d="M14.5 6c2.052-.814 4.996-.625 5.7-.5-.433 5.479-4.386 6.45-4.7 6.5" />
  <path d="M16.152 22.152c1.33 0 2.413-1.025 2.413-2.284L18.5 12H5.435v7.868c0 1.259 1.083 2.284 2.413 2.284z" />
  <path d="M8.5 12c-.317-.051-4.268-1.024-4.7-6.5.703-.126 3.555-.336 5.611.48" />
</svg>
