<svg
  xmlns="http://www.w3.org/2000/svg"
  width="24"
  height="24"
  viewBox="0 0 24 24"
  fill="none"
  stroke="currentColor"
  stroke-width="2"
  stroke-linecap="round"
  stroke-linejoin="round"
>
  <path d="M15.167 5.886c2.052-.814 4.329-.511 5.033-.386-.433 5.479-4.181 6.196-4.495 6.246" />
  <path d="M16.152 22.152c1.33 0 2.413-1.025 2.413-2.284L18.5 12H5.435v7.868c0 1.259 1.083 2.284 2.413 2.284z" />
  <path d="M8.294 11.746c-.317-.051-4.062-.77-4.494-6.246.703-.126 2.977-.43 5.033.386" />
  <path d="M9.893 11.746C9.485 11.11 7.013 6.789 12 2.444c5.038 4.385 2.109 9.302 2.109 9.302" />
</svg>
