<svg
  xmlns="http://www.w3.org/2000/svg"
  width="24"
  height="24"
  viewBox="0 0 24 24"
  fill="none"
  stroke="currentColor"
  stroke-width="2"
  stroke-linecap="round"
  stroke-linejoin="round"
>
<path d="M12 12C12.5523 12 13 11.5523 13 11C13 10.4477 12.5523 10 12 10C11.4477 10 11 10.4477 11 11C11 11.5523 11.4477 12 12 12Z"/>
<path d="M17.0327 18.4613C18.6325 17.3823 19.843 15.8177 20.4859 13.9983C21.1287 12.179 21.1698 10.2011 20.6031 8.35664C20.0363 6.51214 18.8918 4.89862 17.3382 3.75409C15.7847 2.60957 13.9045 1.99465 11.9749 2.00004C10.0453 2.00542 8.16849 2.63084 6.62138 3.78402C5.07426 4.9372 3.93874 6.55709 3.38231 8.40473C2.82588 10.2524 2.87801 12.2299 3.53101 14.0457C4.18401 15.8614 5.40329 17.4193 7.00901 18.4893" />
<path d="M16.0638 13.9131C16.6058 13.1569 16.9261 12.2646 16.9887 11.3364C17.0513 10.4082 16.8537 9.48096 16.4181 8.65893C15.9825 7.8369 15.3262 7.15269 14.523 6.68325C13.7198 6.21381 12.8016 5.97776 11.8716 6.00165C10.9416 6.02553 10.0367 6.30841 9.2587 6.81846C8.48068 7.32851 7.86038 8.04551 7.46757 8.88882C7.07476 9.73213 6.92502 10.6683 7.03518 11.5921C7.14534 12.5158 7.51104 13.3905 8.09115 14.1178" />
<path d="M11.1104 16.9939C11.0515 16.4637 11.4665 16 12 16C12.5335 16 12.9485 16.4637 12.8896 16.9939L12.3701 21.6687C12.3492 21.8573 12.1898 22 12 22C11.8102 22 11.6508 21.8573 11.6299 21.6687L11.1104 16.9939Z" />
</svg>
