<svg
  xmlns="http://www.w3.org/2000/svg"
  width="24"
  height="24"
  viewBox="0 0 24 24"
  fill="none"
  stroke="currentColor"
  stroke-width="2"
  stroke-linecap="round"
  stroke-linejoin="round"
>
<path d="M10 3.63636C10 2.73262 10.8955 2 12 2C13.1045 2 14 2.73262 14 3.63636V12.3636C14 13.2673 13.1045 14 12 14C10.8955 14 10 13.2673 10 12.3636V8V3.63636Z" />
<path d="M6 12C7.1567 19.4671 16.1578 20.5157 18 12" />
<path d="M12 18V22" />
<path d="M9 22H15" />
<path d="M6.50005 4C5.93043 4.73367 5.81815 5.66242 6.50005 6.5" />
<path d="M17.5 6.5C18.0696 5.76633 18.1819 4.83758 17.5 4" />
<path d="M2.72622 3C1.71016 4.72405 1.80691 5.58433 2.72622 7" />
<path d="M21.27 7C22.2861 5.27595 22.1893 4.41567 21.27 3" />
</svg>
