<svg xmlns="http://www.w3.org/2000/svg" width="24" height="24" viewBox="0 0 24 24" fill="none" stroke="currentColor"
    stroke-width="2" stroke-linecap="round" stroke-linejoin="round">
    <path
        d="M12 8.7a.91.91 0 0 0-.444-.779l-3.112-1.8a.88.88 0 0 0-.888 0l-3.112 1.8A.895.895 0 0 0 4 8.7v3.6a.909.909 0 0 0 .444.779l3.112 1.8a.88.88 0 0 0 .888 0l7.112-4.758a.88.88 0 0 1 .888 0l3.112 1.8a1 1 0 0 1 .325.33.91.91 0 0 1 .119.449v3.6c0 .16-.08.367-.12.45a.895.895 0 0 1-.324.329l-3.112 1.8A.88.88 0 0 1 16 19c-.08 0-.28-.026-.444-.12l-3.112-1.801a1.002 1.002 0 0 1-.325-.33A.91.91 0 0 1 12 16.3" />
</svg>