<svg
  xmlns="http://www.w3.org/2000/svg"
  width="24"
  height="24"
  viewBox="0 0 24 24"
  fill="none"
  stroke="currentColor"
  stroke-width="2"
  stroke-linecap="round"
  stroke-linejoin="round"
>
  <path d="M13 2c-1 1-1 2-1 2" />
  <path d="M17 4c-.9 0-1.8.4-2.5 1.2a3.32 3.32 0 0 0-5 0C8.8 4.4 7.9 4 7 4c-2.8 0-5 4-5 9s2.2 9 5 9c.9 0 1.8-.4 2.5-1.2a3.32 3.32 0 0 0 5 0c.7.8 1.6 1.2 2.5 1.2 2.8 0 5-4 5-9s-2.2-9-5-9" />
  <path d="M10 11 8 9l-2 2" />
  <path d="m18 11-2-2-2 2" />
  <path d="m6 15 2 2 2-2 2 2 2-2 2 2 2-2" />
</svg>
