<svg
  xmlns="http://www.w3.org/2000/svg"
  width="24"
  height="24"
  viewBox="0 0 24 24"
  fill="none"
  stroke="currentColor"
  stroke-width="2"
  stroke-linecap="round"
  stroke-linejoin="round"
>
  <path d="M19.439 7.85a1.025 1.025 0 0 0 .289.878L21.3 10.3a2.403 2.403 0 0 1-.004 3.404L19.685 15.3a.98.98 0 0 1-1.805-.634 2.501 2.501 0 1 0-3.214 3.214 1.328 1.328 0 0 1 .649 1.805l-1.61 1.615a2.404 2.404 0 0 1-3.409-.004l-1.568-1.568a1.026 1.026 0 0 0-1.897.678 2.5 2.5 0 1 1-3.237-3.237 1.412 1.412 0 0 0 .678-1.897l-1.568-1.568a2.402 2.402 0 0 1 0-3.408L4.23 8.77a1.075 1.075 0 0 1 1.99.707 2.5 2.5 0 1 0 3.259-3.259 1.073 1.073 0 0 1-.707-1.99L10.3 2.703a2.402 2.402 0 0 1 3.404.001l1.568 1.568a1.027 1.027 0 0 0 1.897-.678 2.5 2.5 0 1 1 3.237 3.237c-.464.18-.894.527-.967 1.02Z" />
</svg>