<svg
  xmlns="http://www.w3.org/2000/svg"
  width="24"
  height="24"
  viewBox="0 0 24 24"
  fill="none"
  stroke="currentColor"
  stroke-width="2"
  stroke-linecap="round"
  stroke-linejoin="round"
>
  <rect x="16" y="3" width="5" height="5" rx="1" />
  <rect x="3" y="16" width="5" height="5" rx="1" />
  <rect x="3" y="3" width="5" height="5" rx="1" />
  <path d="M21 16h-3a2 2 0 0 0-2 2v3" />
  <path d="M 21 21h0.01" />
  <path d="M12 7v3a2 2 0 0 1-2 2H7" />
  <path d="M 3 12h0.01" />
  <path d="M 12 3h0.01" />
  <path d="M 12 16h0.01" />
  <path d="M16 12h1" />
  <path d="M 21 12h0.01" />
  <path d="M12 21v-1" />
</svg>