<svg
  xmlns="http://www.w3.org/2000/svg"
  width="24"
  height="24"
  viewBox="0 0 24 24"
  fill="none"
  stroke="currentColor"
  stroke-width="2"
  stroke-linecap="round"
  stroke-linejoin="round"
>
  <path d="M16 3a2 2 0 0 0-2 1.972V11a2 2 0 0 0 2 2 1 1 0 0 1 1 1v1a2 2 0 0 1-2 2 1 1 0 0 0-1 1.031V20a1 1 0 0 0 1 1c3 0 6-1 6-8V5a2 2 0 0 0-2-2z" />
  <path d="M5 3a2 2 0 0 0-2 1.972V11a2 2 0 0 0 2 2 1 1 0 0 1 1 1v1a2 2 0 0 1-2 2 1 1 0 0 0-1 1.03V20a1 1 0 0 0 1 1c3 0 6-1 6-8V5a2 2 0 0 0-2-2z" />
</svg>
