<svg
  xmlns="http://www.w3.org/2000/svg"
  width="24"
  height="24"
  viewBox="0 0 24 24"
  fill="none"
  stroke="currentColor"
  stroke-width="2"
  stroke-linecap="round"
  stroke-linejoin="round"
>
  <path d="M 1.39 14.89 C1.45 15.75 1.73 17.34 1.95 18.18" />
  <path d="M 1.4 12.95 C1.32 13.28 1.36 14.5 1.39 14.89" />
  <path d="M 1.95 18.18 C1.98 18.29 2.09 18.59 2.16 18.68" />
  <path d="M 10.45 4.54 C10.3 4.77 9.93 4.84 9.68 4.9" />
  <path d="M 10.76 3.79 C10.54 3.79 10.58 4.34 10.45 4.54" />
  <path d="M 10.91 7.55 C11.85 8.63 12.62 9.87 13.53 10.97" />
  <path d="M 11.5 19 L 20.53 19" />
  <path d="M 11.52 19 L 11.5 19" />
  <path d="M 13.21 4.9 C12.76 4.6 11.26 3.78 10.76 3.79" />
  <path d="M 13.53 10.97 C13.62 11.08 13.99 11.52 14.06 11.57" />
  <path d="M 14.06 11.57 C14.2 11.66 14.57 11.73 14.74 11.73" />
  <path d="M 14.74 11.73 C15.44 11.73 16.37 11.52 17.05 11.6" />
  <path d="M 15.23 15.96 C12.68 15.36 10.4 14.12 7.9 13.46" />
  <path d="M 17.05 11.6 C17.61 11.67 17.8 12.07 17.85 12.58" />
  <path d="M 17.23 16.34 C16.83 16.35 15.68 16.07 15.23 15.96" />
  <path d="M 17.57 8.47 C15.94 7.51 14.8 5.95 13.21 4.9" />
  <path d="M 17.82 15.98 C17.71 16.19 17.47 16.34 17.23 16.34" />
  <path d="M 17.85 12.58 L 17.82 15.98" />
  <path d="M 19.62 9.55 C18.98 9.28 18.17 8.82 17.57 8.47" />
  <path d="M 2.16 18.68 C2.2 18.74 2.57 19 2.61 19" />
  <path d="M 2.48 12.49 C2.09 12.46 1.51 12.46 1.4 12.95" />
  <path d="M 2.61 19 L 11.52 19" />
  <path d="M 20.47 14.36 C20.65 13.66 21.41 13.3 21.77 12.76" />
  <path d="M 20.53 19 C20.53 19 20.87 18.83 20.9 18.8" />
  <path d="M 20.9 16.74 C20.76 16.06 20.3 15 20.47 14.36" />
  <path d="M 20.9 18.8 C21.31 18.44 21 17.24 20.9 16.74" />
  <path d="M 21.77 12.76 C22.01 12.41 22.66 10.94 22.49 10.59" />
  <path d="M 22.24 10.37 C21.51 10.03 20.43 9.9 19.62 9.55" />
  <path d="M 22.49 10.59 C22.46 10.52 22.31 10.4 22.24 10.37" />
  <path d="M 6.3 5.84 C4.96 7.16 6.54 9.4 8.38 8.4" />
  <path d="M 7.9 13.46 C6.43 13.07 3.98 12.59 2.48 12.49" />
  <path d="M 8.38 8.4 C8.83 8.16 9.54 7.42 9.92 7.27" />
  <path d="M 9.68 4.9 C8.72 5.13 6.99 5.15 6.3 5.84" />
  <path d="M 9.92 7.27 C10.36 7.09 10.63 7.24 10.91 7.55" />
</svg>
