<svg
  xmlns="http://www.w3.org/2000/svg"
  width="24"
  height="24"
  viewBox="0 0 24 24"
  fill="none"
  stroke="currentColor"
  stroke-width="2"
  stroke-linecap="round"
  stroke-linejoin="round"
>
  <path d="M17 5c0-1.7-1.3-3-3-3s-3 1.3-3 3c0 .8.3 1.5.8 2H11c-3.9 0-7 3.1-7 7v0c0 2.2 1.8 4 4 4" />
  <path d="M16.8 3.9c.3-.3.6-.5 1-.7 1.5-.6 3.3.1 3.9 1.6.6 1.5-.1 3.3-1.6 3.9l1.6 2.8c.2.3.2.7.2 1-.2.8-.9 1.2-1.7 1.1 0 0-1.6-.3-2.7-.6H17c-1.7 0-3 1.3-3 3" />
  <path d="M13.2 18a3 3 0 0 0-2.2-5" />
  <path d="M13 22H4a2 2 0 0 1 0-4h12" />
  <path d="M16 9h.01" />
</svg>
