<svg 
    width="24" 
    height="24" 
    viewBox="0 0 24 24" 
    version="1.1" 
    xmlns="http://www.w3.org/2000/svg"  
    fill="none"
    stroke="currentColor"
    stroke-width="2"
    stroke-linecap="round"
    stroke-linejoin="round"
>    
    <path d="M7.185,12.815L3,17C3,17 2.781,14.817 3,12.5C3.201,10.372 3.804,8.325 3.777,8.301C3.339,8.116 2.94,7.821 2.625,7.421C1.629,6.156 1.847,4.32 3.112,3.324C4.377,2.327 6.213,2.546 7.209,3.811"/>
    <path d="M7,4.846C7.011,4.371 7.139,3.891 7.395,3.451C8.204,2.059 9.991,1.586 11.383,2.396C12.775,3.205 13.248,4.992 12.439,6.384C12.388,6.472 12.333,6.556 12.274,6.636C17.78,7.49 22,12.256 22,18C22,19.407 21.747,20.755 21.284,22.001C21.216,22.001 5.653,22 5.653,22"/>
    <path d="M8.635,22.001C8.327,21.318 8.155,20.56 8.155,19.763C8.155,16.752 10.6,14.308 13.61,14.308C14.253,14.308 14.871,14.419 15.444,14.624"/>
    <path d="M22,18.154C22,13.408 20.566,9.001 18.073,5.355C17.839,5.011 17.702,4.596 17.702,4.149C17.702,2.963 18.665,2 19.851,2C21.037,2 22,2.963 22,4.149C22,4.496 21.918,4.823 21.771,5.114"/>
    <path d="M7.783 8.828v.0"></path>
</svg>
