<svg
  xmlns="http://www.w3.org/2000/svg"
  width="24"
  height="24"
  viewBox="0 0 24 24"
  fill="none"
  stroke="currentColor"
  stroke-width="2"
  stroke-linecap="round"
  stroke-linejoin="round"
>
  <path d="M14 16.5v-.77a2.73 2.73 0 0 1 3.27-2.68l3.03.6a1.4 1.4 0 0 0 1.49-2.08l-1.63-2.8a3 3 0 1 0-3.35-4.82" />
  <path d="M17 5.12V5a3 3 0 1 0-5.24 2h-1A6.77 6.77 0 0 0 4 13.77 4.238 4.238 0 0 0 8.23 18" />
  <path d="M13 22H4a2 2 0 1 1 0-4h12" />
  <path d="M13.67 18a3.387 3.387 0 0 0 .33-1.45A3.65 3.65 0 0 0 10.26 13" />
</svg>
