<svg
  xmlns="http://www.w3.org/2000/svg"
  width="24"
  height="24"
  viewBox="0 0 24 24"
  fill="none"
  stroke="currentColor"
  stroke-width="2"
  stroke-linecap="round"
  stroke-linejoin="round"
>
  <path d="M13 16H8" />
  <path d="M14 8H8" />
  <path d="M16 12H8" />
  <path d="M4 20.793a.707.707 0 0 0 1.207.5l.94-.94a1.207 1.207 0 0 1 1.707 0l.792.793a1.207 1.207 0 0 0 1.708 0l.792-.792a1.207 1.207 0 0 1 1.708 0l.792.792a1.207 1.207 0 0 0 1.708 0l.792-.792a1.207 1.207 0 0 1 1.708 0l.939.939a.707.707 0 0 0 1.207-.5V3.207a.707.707 0 0 0-1.207-.5l-.939.939a1.207 1.207 0 0 1-1.708 0l-.792-.792a1.207 1.207 0 0 0-1.708 0l-.792.792a1.207 1.207 0 0 1-1.708 0l-.792-.792a1.207 1.207 0 0 0-1.708 0l-.792.793a1.207 1.207 0 0 1-1.707 0l-.94-.94a.707.707 0 0 0-1.207.5z" />
</svg>
