<svg
  xmlns="http://www.w3.org/2000/svg"
  width="24"
  height="24"
  viewBox="0 0 24 24"
  fill="none"
  stroke="currentColor"
  stroke-width="2"
  stroke-linecap="round"
  stroke-linejoin="round"
>
  <path d="m21 8-2.26-2.26A9.75 9.75 0 0 0 12 3c-1 0-1.97.16-2.87.47" />
  <path d="M8 16H3v5" />
  <path d="M3 12c0-2.49 1-4.74 2.64-6.36" />
  <path d="m3 16 2.26 2.26A9.75 9.75 0 0 0 12 21c2.49 0 4.74-1 6.36-2.64" />
  <path d="M21 12c0 1-.16 1.97-.47 2.87" />
  <path d="M21 3v5h-5" />
  <path d="M22 22 2 2" />
</svg>
