<svg version="1.1" id="Layer_1" xmlns="http://www.w3.org/2000/svg" x="0" y="0" viewBox="0 0 24 24" style="enable-background:new 0 0 24 24" xml:space="preserve"><style>.st1{fill:none;stroke:#000;stroke-width:2;stroke-linecap:round;stroke-linejoin:round}</style><path style="fill:none" d="M0 0h24v24H0z" id="Layer_2_1_"/><g id="Layer_1_1_"><path class="st1" d="M5.3 4h.9C7.7 4 9 5.3 9 6.7v10.5c0 1.6-1.1 2.7-2.7 2.7h-1M12.7 20h-1C10.1 20 9 18.9 9 17.3V6.7C9 5.2 10.2 4 11.8 4h.9"/></g><path class="st1" d="M4.8 16.1h-.7C3 16.1 2 15.1 2 14v-4c0-1.1 1-2.1 2.1-2.1h.7M13.1 7.9h6.8c1.1 0 2.1 1 2.1 2.1v4c0 1.1-.9 2.1-2.1 2.1h-6.8"/></svg>