<?xml version="1.0" encoding="utf-8"?>
<!-- Generator: Adobe Illustrator 24.3.0, SVG Export Plug-In . SVG Version: 6.00 Build 0)  -->
<svg version="1.1" id="Layer_1" xmlns="http://www.w3.org/2000/svg" xmlns:xlink="http://www.w3.org/1999/xlink" x="0px" y="0px"
	 viewBox="0 0 24 24" style="enable-background:new 0 0 24 24;" xml:space="preserve">
<style type="text/css">
	.st0{fill:none;}
	.st1{fill:none;stroke:#000000;stroke-width:2;stroke-linecap:round;stroke-linejoin:round;}
</style>
<g id="Layer_2_1_">
	<rect class="st0" width="24" height="24"/>
</g>
<g>
	<g id="Layer_1_1_">
		<g>
			<g>
				<path class="st1" d="M5.3,4h0.9C7.7,4,9,5.3,9,6.7v10.5c0,1.6-1.1,2.7-2.7,2.7h-1"/>
				<path class="st1" d="M12.7,20h-1C10.1,20,9,18.9,9,17.3V6.7C9,5.2,10.2,4,11.8,4h0.9"/>
			</g>
		</g>
	</g>
	<path class="st1" d="M4.8,16.1H4.1C3,16.1,2,15.1,2,14V10C2,8.9,3,7.9,4.1,7.9h0.7"/>
	<path class="st1" d="M13.1,7.9h6.8C21,7.9,22,8.9,22,10V14c0,1.1-0.9,2.1-2.1,2.1h-6.8"/>
</g>
</svg>
