<svg
  xmlns="http://www.w3.org/2000/svg"
  width="24"
  height="24"
  viewBox="0 0 24 24"
  fill="none"
  stroke="currentColor"
  stroke-width="2"
  stroke-linecap="round"
  stroke-linejoin="round"
>
  <rect width="8" height="8" x="2" y="14" rx="2" />
  <path d="m3 7 3 3 3-3" />
  <path d="M6 10V5a2.95 2.95 0 0 1 3-3h1" />
  <path d="M22 8a2 2 0 0 1-2 2" />
  <path d="M20 2a2 2 0 0 1 2 2" />
  <path d="M14 4a2 2 0 0 1 2-2" />
  <path d="M16 10a2 2 0 0 1-2-2" />
  <path d="M14 14a2 2 0 0 1 2 2v4a2 2 0 0 1-2 2" />
  <path d="M20 14a2 2 0 0 1 2 2v4a2 2 0 0 1-2 2" />
</svg>
