<svg
  xmlns="http://www.w3.org/2000/svg"
  width="24"
  height="24"
  viewBox="0 0 24 24"
  fill="none"
  stroke="currentColor"
  stroke-width="2"
  stroke-linecap="round"
  stroke-linejoin="round"
>
  <path d="M6,10V5c0-1.7,1.3-3,3-3h1" />
  <polyline points="3,7 6,10 9,7" />
  <path d="M22,8c0,1.1-0.9,2-2,2" />
  <path d="M20,2c1.1,0,2,0.9,2,2" />
  <path d="M14,4c0-1.1,0.9-2,2-2" />
  <path d="M16,10c-1.1,0-2-0.9-2-2" />
  <path d="M8,22H4c-1.1,0-2-0.9-2-2v-4c0-1.1,0.9-2,2-2h4c1.1,0,2,0.9,2,2v4C10,21.1,9.1,22,8,22z" />
  <path d="M14,14c1.1,0,2,0.9,2,2v4c0,1.1-0.9,2-2,2" />
  <path d="M20,14c1.1,0,2,0.9,2,2v4c0,1.1-0.9,2-2,2" />
</svg>
