<svg
  xmlns="http://www.w3.org/2000/svg"
  width="24"
  height="24"
  viewBox="0 0 24 24"
  fill="none"
  stroke="currentColor"
  stroke-width="2"
  stroke-linecap="round"
  stroke-linejoin="round"
>
  <path d="M11.973 18.036 14.57 14.5c1.35-1.85 2.66-3.41 3.18-5.49A7 7 0 0 0 6.2 9.1C6.06 8.5 6 7.82 6 7c0-3.5 2.83-5 5.98-5C15.24 2 18 3.5 18 7a8 8 0 0 1-.25 2.01" />
  <path d="M11.99 11.22C11 10 10 9 10 8a2 2 0 1 1 4 0c0 1-1 2-2.01 3.22" />
  <path d="m14.57 14.5 3.284 4.179a1 1 0 0 1-.203 1.43l-1.894 1.36a1 1 0 0 1-1.384-.215L11.97 18.04l-2.38 3.206a1 1 0 0 1-1.39.213l-1.865-1.353a1 1 0 0 1-.203-1.422L9.35 14.53c-1.86-2.61-2.8-3.77-3.16-5.44" />
  <path d="m9.35 14.53 2.64-3.31" />
</svg>
