<svg
  xmlns="http://www.w3.org/2000/svg"
  width="810"
  height="809"
  viewBox="0 0 810 809"
  fill="none"
  stroke="currentColor"
  stroke-width="2"
  stroke-linecap="round"
  stroke-linejoin="round"
>
  <path d="M 272.863281 12.699219 C 290.828125 23.664062 307.980469 34.035156 325.035156 44.574219 C 351.636719 61.003906 378.226562 77.460938 404.664062 94.148438 C 408.667969 96.675781 411.425781 96.953125 415.628906 94.359375 C 456.847656 68.84375 498.234375 43.597656 539.574219 18.285156 C 542.59375 16.433594 545.671875 14.664062 549.554688 12.367188 C 549.71875 15.667969 549.914062 17.773438 549.914062 19.875 C 549.9375 67.425781 549.90625 114.984375 550.019531 162.53125 C 550.027344 166.972656 549.234375 170.0625 544.980469 172.664062 C 501.59375 199.246094 458.316406 226.011719 415.148438 252.945312 C 410.96875 255.554688 408.148438 255.316406 404.113281 252.765625 C 361.933594 226.09375 319.582031 199.6875 277.425781 172.972656 C 275.070312 171.480469 272.609375 167.910156 272.59375 165.300781 C 272.324219 115.808594 272.414062 66.316406 272.445312 16.824219 C 272.445312 15.871094 272.632812 14.917969 272.859375 12.710938 Z " />
  <path d="M 409.566406 797.648438 " />
  <path d="M 409.566406 797.648438 C 345.203125 753.34375 281.296875 709.335938 217.371094 665.371094 C 183.007812 641.738281 148.550781 618.234375 114.324219 594.398438 C 111.871094 592.6875 109.539062 588.765625 109.53125 585.871094 C 109.320312 438.539062 109.371094 291.210938 109.402344 143.871094 C 109.402344 142.914062 109.558594 141.953125 109.761719 139.664062 C 112.664062 141.335938 115.058594 142.636719 117.367188 144.050781 C 203.925781 197.210938 290.460938 250.417969 377.078125 303.472656 C 380.671875 305.671875 381.9375 308.03125 381.90625 312.15625 C 381.734375 334.246094 381.691406 356.332031 381.984375 378.421875 C 382.050781 383.714844 380.144531 386.675781 375.789062 389.511719 C 348.179688 407.46875 320.765625 425.722656 292.363281 444.488281 C 304.996094 452.933594 316.941406 461.03125 329.011719 468.96875 C 345.21875 479.625 361.574219 490.050781 377.675781 500.863281 C 379.640625 502.183594 381.585938 505.265625 381.59375 507.539062 C 381.800781 554.386719 381.734375 601.230469 381.699219 648.074219 C 381.699219 649.003906 381.472656 649.933594 381.1875 652.101562 C 376.65625 649.351562 372.554688 647.109375 368.714844 644.476562 C 356.121094 635.828125 343.5 627.210938 331.214844 618.136719 C 329.234375 616.671875 328.050781 612.9375 328.003906 610.238281 C 327.652344 587.421875 327.480469 564.609375 327.675781 541.792969 C 327.71875 536.503906 325.859375 533.535156 321.5625 530.691406 C 280.117188 503.25 238.816406 475.605469 197.484375 448.003906 C 196.296875 447.210938 195.179688 446.308594 193.410156 445.003906 C 199.3125 440.925781 204.808594 437.03125 210.398438 433.289062 C 246.863281 408.855469 283.351562 384.464844 319.816406 360.03125 C 331.449219 352.238281 331.109375 340.988281 319.171875 333.601562 C 269.683594 303.007812 220.214844 272.378906 170.730469 241.777344 C 168.742188 240.546875 166.65625 239.476562 162.675781 237.246094 C 162.675781 249.683594 162.683594 260.519531 162.675781 271.351562 C 162.578125 365.527344 162.433594 459.703125 162.53125 553.875 C 162.53125 556.679688 164.257812 560.601562 166.476562 562.117188 C 246.210938 616.921875 326.09375 671.503906 405.960938 726.113281 C 407.152344 726.921875 408.390625 727.664062 409.957031 728.671875 C 431.113281 713.65625 452.203125 698.617188 473.363281 683.675781 C 529.019531 644.355469 584.65625 604.996094 640.46875 565.890625 C 645.464844 562.386719 647.136719 558.75 647.078125 552.796875 C 646.777344 521.738281 646.933594 490.679688 646.933594 457.53125 C 618.808594 475.453125 592.09375 492.480469 564.074219 510.335938 C 564.074219 495.082031 565.351562 481.238281 563.753906 467.730469 C 561.78125 451.09375 568.066406 441.90625 582.324219 433.394531 C 618.945312 411.53125 654.398438 387.703125 690.328125 364.679688 C 692.953125 363 695.671875 361.460938 699.449219 359.199219 C 699.703125 362.484375 700.058594 364.964844 700.066406 367.441406 C 700.207031 439.28125 700.246094 511.125 700.566406 582.960938 C 700.597656 589.261719 698.535156 592.828125 693.328125 596.503906 C 617.476562 650.101562 541.84375 704.003906 466.125 757.792969 C 447.554688 770.984375 428.886719 784.035156 409.558594 797.648438 Z " />
  <path d="M 501.253906 100.703125 " />
  <path d="M 501.253906 100.703125 C 496.941406 103.035156 494.8125 104.070312 492.789062 105.292969 C 467.484375 120.59375 442.101562 135.78125 416.96875 151.363281 C 411.996094 154.449219 408.449219 154.515625 403.46875 151.363281 C 379.90625 136.476562 356.078125 122.003906 332.308594 107.429688 C 329.484375 105.699219 326.453125 104.289062 323.453125 102.691406 C 322.777344 103.84375 322.132812 104.445312 322.117188 105.066406 C 321.691406 118.386719 321.253906 131.714844 321.089844 145.042969 C 321.074219 146.324219 322.5 148.078125 323.738281 148.859375 C 351.398438 166.351562 379.085938 183.796875 406.933594 200.984375 C 408.585938 202.003906 412.09375 201.628906 413.910156 200.527344 C 441.890625 183.546875 469.753906 166.363281 497.558594 149.101562 C 499.164062 148.101562 501.066406 145.980469 501.105469 144.34375 C 501.382812 130.363281 501.261719 116.371094 501.261719 100.695312 Z " />
  <path d="M 700.019531 139.507812 " />
  <path d="M 700.019531 139.507812 C 700.019531 149.78125 699.988281 158.902344 700.019531 168.03125 C 700.171875 208.558594 700.214844 249.089844 700.621094 289.621094 C 700.6875 296.707031 698.371094 300.996094 692.144531 304.695312 C 677.363281 313.460938 663.089844 323.085938 647.191406 333.277344 L 647.191406 239.101562 C 644.414062 240.195312 642.871094 240.539062 641.609375 241.335938 C 591.953125 273.023438 542.371094 304.824219 492.609375 336.351562 C 488.691406 338.835938 488.542969 341.671875 488.542969 345.382812 C 488.488281 431.789062 488.308594 518.199219 488.46875 604.605469 C 488.484375 611.28125 486.277344 614.925781 480.832031 618.496094 C 465.472656 628.566406 450.570312 639.34375 434.527344 650.519531 C 434.316406 647.40625 434.054688 645.398438 434.054688 643.386719 C 434.054688 533.675781 434.101562 423.96875 433.988281 314.265625 C 433.988281 309.421875 435.234375 306.488281 439.546875 303.765625 C 519.726562 253.175781 599.789062 202.386719 679.898438 151.671875 C 686.175781 147.699219 692.609375 143.976562 700.003906 139.515625 Z " />
</svg>
