<svg
  xmlns="http://www.w3.org/2000/svg"
  width="24"
  height="24"
  viewBox="0 0 24 24"
  fill="none"
  stroke="currentColor"
  stroke-width="2"
  stroke-linecap="round"
  stroke-linejoin="round"
>
  <path d="M4.5 16.5c-1.5 1.26-2 5-2 5s3.74-.5 5-2a2.164 2.164 0 0 0-3-3" />
  <path d="M12 15a22.355 22.355 0 0 0 4-2c5.22-3.5 6-8.28 6-11a12.88 12.88 0 0 0-11 6.05A21.997 21.997 0 0 0 9 12Z" />
  <path d="M9 12H4s.55-3.03 2-4c1.62-1.08 5 0 5 0" />
  <path d="M12 15v5s3.03-.55 4-2c1.08-1.62 0-5 0-5" />
</svg>