<svg
  xmlns="http://www.w3.org/2000/svg"
  width="224"
  height="224"
  viewBox="0 0 224 224"
  fill="none"
  stroke="currentColor"
  stroke-width="2"
  stroke-linecap="round"
  stroke-linejoin="round"
>
  <path d="M0 176C0 202.51 21.4903 224 48 224H69.3333C154.753 224 224 154.753 224 69.3333V48C224 21.4903 202.51 0 176 0H154.667C69.2466 0 0 69.2466 0 154.667V176Z" />
  <path d="M10.6667 154.667C10.6667 75.1377 75.1377 10.6667 154.667 10.6667H176C181.986 10.6667 187.642 12.079 192.656 14.5834C150.162 33.6631 115.738 56.0843 86.875 84.8542C57.9365 113.699 34.7785 148.731 14.625 192.719C12.0998 187.687 10.6667 182.013 10.6667 176V154.667Z" />
  <path d="M213.333 69.3333C213.333 148.862 148.862 213.333 69.3333 213.333H48C37.8179 213.333 28.5998 209.245 21.8645 202.636C42.2061 156.913 65.3957 121.324 94.4064 92.4064C123.405 63.501 158.414 41.0526 202.625 21.8334C209.247 28.5703 213.333 37.8073 213.333 48V69.3333Z" />
</svg>
