<svg
  xmlns="http://www.w3.org/2000/svg"
  width="24"
  height="24"
  viewBox="0 0 24 24"
  fill="none"
  stroke="currentColor"
  stroke-width="2"
  stroke-linecap="round"
  stroke-linejoin="round"
>
<path d="M7 21h10"/>
<path d="M12 20.702c6.5 0 9-4.03 9-9H3c0 4.97 2.5 9 9 9Z"/>
<path d="M9.781 11.38a2.509 2.509 0 0 1 .74-4.054c-.18-.809.044-1.69.671-2.319a2.49 2.49 0 0 1 2.767-.523 2.49 2.49 0 0 1 3.585-.834 2.49 2.49 0 0 1 3.175.295 2.51 2.51 0 0 1 .294 3.186 2.51 2.51 0 0 1-.83 3.596c.136.314.206.65.209.985"/>
<path d="m13 11.7 4.243-4.243"/>
<path d="M10.5 6.574A4 4 0 0 0 8 5.702c-2.21 0-4 1.78-4 3.974 0 .699.181 1.355.5 1.926"/>
</svg>
