<svg
  xmlns="http://www.w3.org/2000/svg"
  width="24"
  height="24"
  viewBox="0 0 24 24"
  fill="none"
  stroke="currentColor"
  stroke-width="2"
  stroke-linecap="round"
  stroke-linejoin="round"
>
  <path d="M7 21h10" />
  <path d="m12 12 4.5-4.5" />
  <path d="M12 21a9 9 0 0 0 9-9H3a9 9 0 0 0 9 9Z" />
  <path d="M12 21a9 9 0 0 0 9-9H3a9 9 0 0 0 9 9Z" />
  <path d="M4.54 12A4 4 0 0 1 10 6.54" />
  <path d="M20 11.5c0-.31-.06-.61-.16-.89A2.5 2.5 0 0 0 20.5 7 2.5 2.5 0 0 0 17 3.5a2.49 2.49 0 0 0-3.61.66 2.5 2.5 0 0 0-3.33 2.88A2.5 2.5 0 0 0 9 11.5c-.19.14-.36.31-.5.5h11.45c.03-.16.05-.33.05-.5Z" />
</svg>
