<svg
  xmlns="http://www.w3.org/2000/svg"
  width="24"
  height="24"
  viewBox="0 0 24 24"
  fill="none"
  stroke="currentColor"
  stroke-width="2"
  stroke-linecap="round"
  stroke-linejoin="round"
>
  <path d="M7 21h10" />
  <path d="M4.54 12A4 4 0 0 1 10 6.54" />
  <path d="M10.5 12a2.5 2.5 0 0 1-.44-4.96A2.51 2.51 0 0 1 12.5 4c.31 0 .61.06.89.16A2.5 2.5 0 0 1 17 3.5 2.5 2.5 0 0 1 20.5 7a2.49 2.49 0 0 1-.66 3.61 2.5 2.5 0 0 1 .11 1.39" />
  <path d="m12 12 4.5-4.5" />
  <path d="M12 21a9 9 0 0 0 9-9H3a9 9 0 0 0 9 9Z" />
</svg>
