<svg
  xmlns="http://www.w3.org/2000/svg"
  width="482"
  height="487"
  viewBox="0 0 482 487"
  fill="none"
  stroke="currentColor"
  stroke-width="2"
  stroke-linecap="round"
  stroke-linejoin="round"
>
  <path d="M14.5723 0.535004C15.5638 0.320504 18.1163 0.1175 19.2428 0C20.1203 4.247 22.6393 10.985 23.9163 15.7465C25.4763 21.5625 27.2993 32.049 29.3123 37.153C30.8148 37.147 33.1697 36.971 34.4327 37.5305C30.1367 37.6055 27.0968 37.4125 23.0508 38.9235C20.7718 32.84 14.9608 7.27 14.5723 0.535004Z" />
  <path d="M150.238 204.509C186.508 198.009 219.875 199.665 254.63 213.041C271.825 219.659 288.24 227.857 306.14 232.567C311.81 234.127 336.74 236.592 338.28 237.637C319.39 240.947 293.78 235.272 275.79 229.047C267.74 226.263 259.825 222.921 251.62 220.572C204.91 206.524 157.784 216.254 116.085 239.872C107.268 244.862 97.7318 250.757 89.9008 257.292C88.4073 255.512 85.0209 240.507 84.0684 237.077C98.1199 224.627 114.725 215.837 132.44 209.782C138.376 207.753 144.292 206.373 150.238 204.509Z" />
  <path d="M169.254 37.418C172.514 37.542 174.926 38.1645 178.103 38.858C189.156 41.8385 219.18 51.0589 228.385 57.0204C231.28 58.6364 235.66 60.496 237.845 62.521C236.055 62.0415 233.47 60.672 231.72 59.8275C228.88 60.7055 227.475 61.006 224.61 61.5195L227.115 59.9305C217.225 59.767 209.27 57.262 200.125 53.393C194.541 51.0295 190.061 48.1075 184.026 47.374C182.899 45.6175 178.686 42.762 178.524 41.327C178.172 38.204 170.911 39.793 169.254 37.418Z" />
  <path d="M181.59 28.8445C193.247 32.0875 228.31 44.5915 237.835 51.283C236.225 53.322 230.815 56.3715 228.385 57.0205C219.18 51.059 189.156 41.8385 178.103 38.858C177.987 38.212 177.809 38.152 177.277 37.814C177.287 33.898 176.923 32.4865 179.438 29.4805C180.492 29.365 180.624 29.2675 181.59 28.8445Z" />
  <path d="M19.2427 0C22.2832 0.1575 24.6187 0.324003 27.3047 1.9465C34.6262 5.961 35.6382 12.698 37.3902 20.1665C38.9257 26.711 40.9447 33.5525 42.1142 40.141C40.1112 39.2585 37.9617 38.442 35.9202 37.629L34.4327 37.5305C30.1367 37.6055 27.0967 37.4125 23.0507 38.9235C15.9122 42.3565 12.0412 44.0605 7.17866 50.673C7.36666 48.1715 5.56016 41.601 4.94666 38.754C1.38966 22.2555 -7.89482 7.0685 14.5722 0.535004C15.5637 0.320504 18.1162 0.1175 19.2427 0Z" />
  <path d="M224.61 61.5195L223.969 62.295L224.145 62.6935C223.58 63.819 223.555 63.5625 222.39 64.4335C220.77 63.83 220.235 63.666 218.73 64.589L219.01 65.7085L218.575 65.8255C214.2 60.8725 211.175 59.208 204.215 59.5135L202.825 61.448L202.09 61.235L201.865 59.4815C200.105 58.575 198.353 57.9155 196.52 57.1815L196.856 58.268C192.424 58.3795 177.492 51.532 178.113 47.2305C179.47 46.6285 182.33 47.21 184.026 47.374C190.061 48.1075 194.541 51.0295 200.125 53.393C209.27 57.262 217.225 59.767 227.115 59.9305L224.61 61.5195Z" />
  <path d="M237.835 51.283C245.49 55.092 253.015 59.053 260.485 63.2115C264.34 65.357 270.15 68.075 273.72 70.465C270.73 70.534 265.805 67.3794 262.835 65.8159L262.475 66.315C260.465 69.0495 259.08 69.323 258.365 71.8085C258.88 72.402 259.205 72.7565 259.74 73.306C256.965 72.679 242.585 64.4245 237.845 62.521C235.66 60.496 231.28 58.6364 228.385 57.0204C230.815 56.3714 236.225 53.322 237.835 51.283Z" />
  <path d="M24.1162 46.963C27.2551 46.0923 28.5434 45.9315 31.7174 45.5601C35.0867 61.4005 39.2423 76.9529 42.9826 92.7122C50.9936 127.305 59.2021 161.853 67.6071 196.352L109.073 375.473C117.872 411.888 128.233 448.561 136.01 485.25C131.134 484.932 127.381 485.404 122.117 484.701C123.915 484.685 126.806 484.948 128.025 484.005C127.371 479.259 125.326 471.824 124.142 467.002L116.023 434.707C109.484 408.821 103.08 381.147 96.8097 355.03L55.8591 181.266C45.3495 136.991 33.9329 91.3279 24.1162 46.963Z" />
  <path d="M25.4439 46.9662C28.5899 46.0935 29.8811 45.9323 33.0623 45.5601C35.0634 45.7008 37.3247 45.7377 39.1933 46.3486L68.6081 169.173C73.3796 188.277 77.9279 207.436 82.2519 226.647C84.0171 234.231 87.5365 247.369 88.7403 254.71L91.1517 255.98L91.3804 256.195C92.428 259.967 87.0977 252.752 88.7403 254.71C90.8173 257.855 103.952 300.765 105.211 305.676C109.949 324.576 114.534 343.515 118.965 362.487L134.188 424.446L142.849 460.877C144.079 466.008 146.392 476.885 148.351 481.504C147.782 483.869 147.69 483.759 145.389 484.996L143.8 485.238C141.04 486.206 140.589 486.129 137.592 486.25C132.705 485.931 128.943 486.404 123.667 485.7C119.221 485.475 117.048 484.947 112.737 483.929L112.102 481.746L34.8149 156.76L18.8686 89.1152C17.8996 84.9117 12.34 58.5594 10.8179 56.875C13.5834 51.3594 19.9002 48.7864 25.4439 46.9662Z" />
  <path d="M262.835 65.8159C265.805 67.3794 270.73 70.5339 273.72 70.4649C280.505 73.6799 287.36 76.8954 294.25 79.8679C351.33 104.493 433.37 117.582 481.14 67.5839C480.345 69.5629 478.285 75.0609 477.395 76.7344L476.7 76.6604C476.05 77.3084 475.145 80.9054 474.365 82.5954C472.22 87.2249 469.605 91.8554 467.49 96.4144C466.685 92.6799 466.155 91.6999 464.495 88.2249C461.6 90.1809 458.625 94.6754 455.51 96.9534C436.3 111.002 422.565 117.995 399.09 122.219C398.9 122.334 398.715 122.45 398.525 122.565C372.46 125.724 345.86 117.939 322.36 107.53C313.585 103.642 289.885 89.7049 285.465 87.4334C277.945 83.5684 267.525 76.9859 260.33 73.5779L259.74 73.3059C260.685 69.6669 261.685 67.1669 262.835 65.8159Z" />
  <path d="M27.3047 1.94653C34.6262 5.96103 35.6382 12.698 37.3902 20.1665C38.9257 26.711 40.9447 33.5525 42.1142 40.141C40.1112 39.2585 37.9617 38.442 35.9202 37.629C33.5152 29.739 32.4817 19.8605 29.7992 11.8245C29.4457 10.7665 27.2382 2.23553 27.3047 1.94653Z" />
  <path d="M31.0432 45.5601C33.0398 45.7005 35.2959 45.7373 37.1603 46.3468L66.5083 168.893C71.269 187.954 75.807 207.069 80.1211 226.236C81.8824 233.803 85.3938 246.911 86.5948 254.235L89.0007 255.503L89.229 255.717C90.2742 259.481 93.9903 275.946 95.6291 277.899C97.7014 281.038 101.772 300.186 103.028 305.086C107.756 323.943 112.33 342.839 116.75 361.768L131.94 423.586L140.581 459.935C141.808 465.054 144.116 475.906 146.07 480.515C145.502 482.874 145.411 482.765 143.115 483.999L141.529 484.24C138.775 485.206 138.326 485.129 135.336 485.25C127.559 448.561 117.198 411.888 108.399 375.473L66.9329 196.352C58.528 161.853 50.3194 127.305 42.3084 92.7122C38.5682 76.9529 34.4126 61.4005 31.0432 45.5601Z" />
  <path d="M34.4327 37.5305L35.9202 37.629C37.9617 38.442 40.1112 39.2585 42.1142 40.141L42.4122 41.608C42.0052 44.4475 39.2222 45.733 36.6177 46.277C34.9187 45.7215 32.8627 45.688 31.0432 45.56C28.1507 45.8985 26.9767 46.045 24.1162 46.8385C19.0757 48.4935 13.3322 50.833 10.8177 55.848C8.16522 54.2855 8.07871 53.541 7.17871 50.673C12.0412 44.0605 15.9122 42.3565 23.0507 38.9235C27.0967 37.4125 30.1367 37.6055 34.4327 37.5305Z" />
  <path d="M347.62 180.35C368.685 182.167 398.685 184.667 425.735 183.07C399.475 194.087 373.18 190.186 347.62 180.35Z" />
  <path d="M414.615 146.958L415.7 147.809C413.185 151.088 400.345 156.332 395.88 158.202L395.305 157.964C396.46 156.54 401.135 155.782 402.775 154.691C408.745 150.723 407.645 149.313 414.615 146.958Z" />
  <path d="M467.49 96.4144C469.605 91.8554 472.22 87.2249 474.365 82.5954C475.145 80.9054 476.05 77.3084 476.7 76.6604L477.395 76.7344C474.405 88.5869 454.07 122.04 444.74 128.766C420.845 156.4 377.21 178.206 340.355 176.854C331.455 177.067 311.435 160.779 305.68 154.093C317.475 163.464 329.535 165.631 344.15 167.044C349.525 167.563 349.98 167.426 355.34 166.836C356.4 164.386 357.495 160.616 358.335 157.986C366.185 152.167 371.185 149.667 373.365 147.398C361.16 149.319 348.845 150.406 336.49 150.213C335.055 150.19 335.35 150.346 333.785 150.048C334.745 149.428 342.65 149.784 344.495 149.718C350.505 149.503 357.315 148.733 363.04 148.117C367.38 147.65 386.81 143.399 388.875 143.768C388.125 144.43 387.36 144.768 386.45 145.178C387.265 145.722 390.32 147.434 391.17 147.442C396.67 147.493 402.22 147.679 407.715 147.477C407.715 147.477 410.09 145.925 410.315 145.778L406.61 142.263C409.975 139.626 411.925 135.787 414.22 132.044C414.035 131.545 413.195 129.282 413.285 129.084C414.935 125.412 416.185 122.431 417.29 118.61C412.08 120.218 404.415 122.282 399.09 122.219C422.565 117.995 436.3 111.002 455.51 96.9534C458.625 94.6754 461.6 90.1809 464.495 88.2249C466.155 91.6999 466.685 92.6799 467.49 96.4144Z" />
  <path d="M467.49 96.4144C469.605 91.8554 472.22 87.2249 474.365 82.5954C475.145 80.9054 476.05 77.3084 476.7 76.6604L477.395 76.7344C474.405 88.5869 454.07 122.04 444.74 128.766C444.145 126.731 451.36 121.249 452.425 118.36C452.95 117.231 455.945 108.263 456.95 107.999C463.48 106.282 463.915 102.132 467.49 96.4144Z" />
  <path d="M7.17866 50.6729C7.36666 48.1714 5.56016 41.6009 4.94666 38.7539C1.38966 22.2554 -7.89482 7.06841 14.5722 0.534912C14.9607 7.26991 20.7717 32.8399 23.0507 38.9234C15.9122 42.3564 12.0412 44.0604 7.17866 50.6729Z" />
  <path d="M82 236L84.5889 237.372L84.8346 237.604C85.9593 241.678 87.2365 253.885 89 256C91.23 259.398 98.3318 285.745 99.6838 291.05C104.771 311.464 109.693 331.921 114.45 352.413L130.795 419.336L140.094 458.687C141.414 464.229 143.897 475.978 146 480.967C145.389 483.521 145.291 483.402 142.82 484.739L141.114 485C139.863 482.428 135.941 463.902 134.955 459.839L117.569 387.22L95.4518 295.51C90.7185 276.004 85.3765 255.779 82 236Z" />
  <path d="M82.771 230.237L83.911 228.987C89.89 222.482 116.084 197.906 123.244 197.605C123.162 198.859 118.37 199.729 116.997 201.779C114.906 204.902 119.396 208.366 118.8 212.168C118.678 212.946 119.022 212.977 119.726 213.799C119.608 213.83 119.49 213.861 119.372 213.892C124.636 211.383 144.964 203.526 150.238 204.509C144.292 206.372 138.376 207.753 132.44 209.781C114.725 215.836 98.1195 224.626 84.068 237.077L83.86 236.882C83.6875 234.907 83.1275 232.247 82.771 230.237Z" />
  <path d="M91.0825 27.1091C112.232 20.3861 160.295 22.1796 181.59 28.8446C180.624 29.2676 180.492 29.3651 179.438 29.4806C176.922 32.4866 177.287 33.8981 177.277 37.8141C177.809 38.1521 177.987 38.2121 178.103 38.8581C174.926 38.1646 172.514 37.5421 169.254 37.4181C144.745 32.7286 122.615 33.5026 98.015 35.1226L97.9145 34.7601C104.038 33.9421 111.731 34.1756 117.713 33.0776C118.166 31.3691 117.33 26.4431 117.098 24.4786C112.13 23.8491 94.3305 28.3351 91.0825 27.1091Z" />
  <path d="M91.0827 27.109C160.295 22.1795 228.31 44.5915 294.25 79.868C351.33 104.493 433.37 117.582 481.14 67.584C444.74 128.766 377.21 178.206 340.355 176.854C373.38 178.617 400.945 188.51 436.89 177.175C383.42 230.262 293.78 235.272 204.91 206.523C157.784 216.254 107.268 244.862 89.9007 257.292L102.909 442.157L32.6367 146.667L18.1377 85.162C10.8177 55.848 24.1162 46.8385 42.4122 41.608C66.0152 33.754 91.0827 27.109 91.0827 27.109Z" />
  <path d="M91.0829 27.1091C112.232 20.3861 160.295 22.1796 181.59 28.8446C193.247 32.0876 228.31 44.5916 237.835 51.2831C248.685 57.1671 261.185 64.6671 273.72 70.4651C280.505 73.6801 287.36 76.8956 294.25 79.8681C351.33 104.494 433.37 117.583 481.14 67.5841C480.345 69.5631 478.285 75.0611 477.395 76.7346C474.405 88.5871 454.07 122.04 444.74 128.766C420.845 156.401 377.21 178.206 340.355 176.854C368.685 182.167 398.685 184.667 436.89 177.176C414.875 207.825 383.42 230.262 345.69 236.817C343.815 237.142 340.095 237.787 338.28 237.637C319.39 240.947 293.78 235.272 275.79 229.047C267.74 226.263 259.825 222.921 251.62 220.572C204.91 206.524 157.784 216.254 116.085 239.872C107.268 244.862 97.7319 250.757 89.9009 257.292C91.7894 260.152 95.4989 277.602 96.6439 282.067C100.952 299.252 105.12 316.472 109.149 333.722L122.991 390.057L130.866 423.182C131.984 427.847 134.087 437.737 135.868 441.937C135.35 444.087 135.267 443.987 133.175 445.112L131.73 445.332C129.22 446.212 128.811 446.142 126.086 446.252C121.642 445.962 118.222 446.392 113.425 445.752C109.382 445.547 107.406 445.067 103.487 444.142L102.909 442.157L32.6369 146.667L18.1379 85.1621C17.2569 81.3401 12.2019 57.3796 10.8179 55.8481C13.3324 50.8331 19.0759 48.4936 24.1164 46.8386C26.9769 46.0451 28.1509 45.8986 31.0434 45.5601C32.8629 45.6881 34.9189 45.7216 36.6179 46.2771C39.2224 45.7331 42.0054 44.4476 42.4124 41.6081L43.0204 42.5656C44.6664 42.5541 53.1794 38.1486 55.4254 37.3796C66.0154 33.7541 80.0479 28.2046 91.0829 27.1091Z" />
</svg>
