<svg
  xmlns="http://www.w3.org/2000/svg"
  width="24"
  height="24"
  viewBox="0 0 24 24"
  fill="none"
  stroke="currentColor"
  stroke-width="2"
  stroke-linecap="round"
  stroke-linejoin="round"
>
  <path d="M20 15a1 1 0 0 1 1 1v2a1 1 0 0 1-1 1h-4.25" />
  <path d="m3.323 11.264 7.323-6.736a2 2 0 0 1 2.708 0l7.323 6.736" />
  <path d="M4 15a1 1 0 0 0-1 1v2a1 1 0 0 0 1 1h8" />
  <path d="m6.67 15 6.13 4.6a2 2 0 0 0 2.8-.4l3.15-4.2" />
  <rect width="18" height="4" x="3" y="11" rx="1" />
</svg>
