<svg
  xmlns="http://www.w3.org/2000/svg"
  width="24"
  height="24"
  viewBox="0 0 24 24"
  fill="none"
  stroke="currentColor"
  stroke-width="2"
  stroke-linecap="round"
  stroke-linejoin="round"
>
  <path d="M10.64 5.4 2 11h20l-8.64-5.6a2.52 2.52 0 0 0-2.73 0v0Z" />
  <path d="m8 15 4.95 4.19a2 2 0 0 0 2.84-.26L19 15" />
  <path d="M2 11v2.5c0 .83.67 1.5 1.5 1.5h17c.83 0 1.5-.67 1.5-1.5V11" />
  <path d="M12.73 19H3.5A1.5 1.5 0 0 1 2 17.5v-1c0-.83.67-1.5 1.5-1.5h17c.83 0 1.5.67 1.5 1.5v1c0 .83-.67 1.5-1.5 1.5h-4.78"/>
</svg>
