<svg
  xmlns="http://www.w3.org/2000/svg"
  width="24"
  height="24"
  viewBox="0 0 24 24"
  fill="none"
  stroke="currentColor"
  stroke-width="2"
  stroke-linecap="round"
  stroke-linejoin="round"
>
  <path d="M13.603 19.895a7.7 7.7 0 0 0-.671 2.455l7.411-1.545c.349-.76.58-1.589.673-2.455zm6.739-3.717a7.9 7.9 0 0 0 .674-2.454l-5.778 1.205v-2.313l5.104-1.064c.35-.759.581-1.589.668-2.454l-5.772 1.206V1.98a8.2 8.2 0 0 0-2.306 1.899v6.902l-2.31.483V.85a8.1 8.1 0 0 0-2.311 1.899v8.995l-5.166 1.074a7.9 7.9 0 0 0-.669 2.454l5.835-1.215v2.913l-6.252 1.305a7.8 7.8 0 0 0-.674 2.451l6.549-1.363a2.08 2.08 0 0 0 1.29-.84l1.201-1.746c.126-.182.197-.399.197-.63v-2.568l2.31-.482v4.625zm0 0" />
</svg>
