<svg
  xmlns="http://www.w3.org/2000/svg"
  width="24"
  height="24"
  viewBox="0 0 24 24"
  fill="none"
  stroke="currentColor"
  stroke-width="2"
  stroke-linecap="round"
  stroke-linejoin="round"
>
  <path d="M12 21h7a2 2 0 0 0 2-2V8.8a2 2 0 0 0-.6-1.4l-3.8-3.8a2 2 0 0 0-1.4-.6H5a2 2 0 0 0-2 2v7" />
  <path d="M16 13a1 1 0 0 1 1 1v7" />
  <path d="M4.363 16.634a2 2 0 0 0-.506.854l-.837 2.87a.5.5 0 0 0 .62.62l2.87-.837a2 2 0 0 0 .854-.506l4.013-4.009a1 1 0 0 0-3.004-3.004z" />
  <path d="M7 3v4a1 1 0 0 0 1 1h7" />
</svg>
