<svg
  xmlns="http://www.w3.org/2000/svg"
  width="24"
  height="24"
  viewBox="0 0 24 24"
  fill="none"
  stroke="currentColor"
  stroke-width="2"
  stroke-linecap="round"
  stroke-linejoin="round"
>
  <path d="M17 3h2a2 2 0 0 1 2 2v2" />
  <path d="M21 17v2a2 2 0 0 1-2 2h-2" />
  <path d="M3 7V5a2 2 0 0 1 2-2h2" />
  <path d="M7 21H5a2 2 0 0 1-2-2v-2" />
  <path d="M8.203 9.27a2.4 2.4 0 0 1 3.441 0l.36.34.34-.34a2.4 2.4 0 0 1 3.449-.01c.95.95 1 2.53-.2 3.74l-3.59 3.55-3.6-3.55c-1.2-1.2-1.14-2.8-.2-3.73" />
</svg>
