<svg
  xmlns="http://www.w3.org/2000/svg"
  width="24"
  height="24"
  viewBox="0 0 24 24"
  fill="none"
  stroke="currentColor"
  stroke-width="2"
  stroke-linecap="round"
  stroke-linejoin="round"
>
  <path d="M12 13v5" />
  <path d="M16.7 10.2 12 13l-4.7-2.8" />
  <path d="M17 3h2a2 2 0 012 2v2" />
  <path d="M21 17v2a2 2 0 01-2 2h-2" />
  <path d="M3 7V5a2 2 0 012-2h2" />
  <path d="M7 21H5a2 2 0 01-2-2v-2" />
  <path d="M8 9.1a2 2 0 00-.999 1.759v3.24a2 2 0 00.969 1.78L11 17.7a2 2 0 002.03.01L16 15.9a2 2 0 001-1.76V10.9a2 2 0 00-.97-1.78L13 7.3a2 2 0 00-2.03-.01z" />
</svg>
