<svg
  xmlns="http://www.w3.org/2000/svg"
  width="24"
  height="24"
  viewBox="0 0 24 24"
  fill="none"
  stroke="currentColor"
  stroke-width="2"
  stroke-linecap="round"
  stroke-linejoin="round"
>
  <path d="M14 21v-3a2 2 0 0 0-4 0v3" />
  <path d="m18 10 3.52 2.147a1 1 0 0 1 .48.854V17a2 2 0 0 1-2 2h-2" />
  <path d="M18 5v14a2 2 0 0 1-2 2H8a2 2 0 0 1-2-2V5" />
  <path d="m4 6 7.106-3.79a2 2 0 0 1 1.788 0L20 6" />
  <path d="m6 10-3.52 2.147a1 1 0 0 0-.48.854V17a2 2 0 0 0 2 2h2" />
  <circle cx="12" cy="9" r="2" />
</svg>
