 <svg
    xmlns="http://www.w3.org/2000/svg"
    width="24"
    height="24"
    viewBox="0 0 24 24"
    fill="currentColor"
    stroke="currentColor"
    stroke-width="1"
  >
    <g stroke-width="0"></g>
    <g stroke-linecap="round" stroke-linejoin="round"></g>
    <g>
      <path d="M12.08,19H7a1,1,0,0,1,0-2h5.08a7,7,0,0,1,5.86-5.91,1,1,0,0,1,.3,2,5,5,0,0,0-4.19,4.22A2,2,0,0,1,12.08,19Z"></path>
      <path d="M19.56,15.06,18,5h2a1,1,0,0,0,0-2H18a2,2,0,0,0-2,2.3l1.55,10.07a3,3,0,1,0,2-.31ZM19,19a1,1,0,1,1,1-1A1,1,0,0,1,19,19ZM5,15a3,3,0,1,0,3,3A3,3,0,0,0,5,15Zm0,4a1,1,0,1,1,1-1A1,1,0,0,1,5,19Z"></path>
    </g>
  </svg>