<svg
  xmlns="http://www.w3.org/2000/svg"
  width="24"
  height="24"
  viewBox="0 0 24 24"
  fill="none"
  stroke="currentColor"
  stroke-width="2"
  stroke-linecap="round"
  stroke-linejoin="round"
>
  <path d="m10.852 14.772-.383.923" />
  <path d="m10.852 9.228-.383-.923" />
  <path d="m13.148 9.228.383-.923" />
  <path d="m13.53 15.696-.382-.924" />
  <path d="m14.772 10.852.923-.383" />
  <path d="m14.772 13.148.923.383" />
  <path d="M19.652 14.11A2 2 0 0 1 21 16v3a2 2 0 0 1-2 2H5a2 2 0 0 1-2-2v-3a2 2 0 0 1 1.556-1.95" />
  <path d="M4.359 9.897A2 2 0 0 1 3 8V5a2 2 0 0 1 2-2h14a2 2 0 0 1 2 2v3a2 2 0 0 1-1.346 1.887" />
  <path d="M6.5 17.5h.01" />
  <path d="M6.5 6.5h.01" />
  <path d="m9.228 10.852-.923-.383" />
  <path d="M9.228 13.148 8.5 13.5" />
  <circle cx="12" cy="12" r="3" />
</svg>
