<svg
  xmlns="http://www.w3.org/2000/svg"
  width="24"
  height="24"
  viewBox="0 0 24 24"
  fill="none"
  stroke="currentColor"
  stroke-width="2"
  stroke-linecap="round"
  stroke-linejoin="round"
>
  <circle cx="12" cy="12" r="3" />
  <path d="M5 10H4a2 2 0 0 1-2-2V4a2 2 0 0 1 2-2h16a2 2 0 0 1 2 2v4a2 2 0 0 1-2 2h-1" />
  <path d="M5 14H4a2 2 0 0 0-2 2v4a2 2 0 0 0 2 2h16a2 2 0 0 0 2-2v-4a2 2 0 0 0-2-2h-1" />
  <path d="M6 6h.01" />
  <path d="M6 18h.01" />
  <path d="m14.9 14.7-.7-.6" />
  <path d="m9.8 9.9-.7-.6" />
  <path d="m9.3 14.9.6-.7" />
  <path d="M12.1 16v-1" />
  <path d="M11.9 9V8" />
  <path d="M8 12.1h1" />
  <path d="M15 11.9h1" />
  <path d="m14.7 9.1-.6.7" />
</svg>
