<svg
  xmlns="http://www.w3.org/2000/svg"
  width="24"
  height="24"
  viewBox="0 0 24 24"
  fill="none"
  stroke="currentColor"
  stroke-width="2"
  stroke-linecap="round"
  stroke-linejoin="round"
>
  <path d="M10 10H5a2 2 0 0 1-2-2V5a2 2 0 0 1 .586-1.414" />
  <path d="M19.85 14.19a2 2 0 0 1 .96.96" />
  <path d="m2 2 20 20" />
  <path d="M20.414 20.414A2 2 0 0 1 19 21H5a2 2 0 0 1-2-2v-3a2 2 0 0 1 2-2h9" />
  <path d="M6.5 17.5h.01" />
  <path d="M8.656 3H19a2 2 0 0 1 2 2v3a2 2 0 0 1-2 2h-3.344" />
</svg>
