<svg
  xmlns="http://www.w3.org/2000/svg"
  width="24"
  height="24"
  viewBox="0 0 24 24"
  fill="none"
  stroke="currentColor"
  stroke-width="2"
  stroke-linecap="round"
  stroke-linejoin="round"
>
  <path d="M9.671 4.136c.245-2.848 4.414-2.848 4.659 0a2.34 2.34 0 0 0 3.319 1.915c2.592-1.21 4.674 2.396 2.33 4.033a2.34 2.34 0 0 0 0 3.831c2.345 1.638.26 5.244-2.33 4.033a2.34 2.34 0 0 0-3.319 1.915c-.246 2.85-4.414 2.85-4.659 0a2.34 2.34 0 0 0-3.32-1.915c-2.591 1.21-4.674-2.395-2.33-4.033a2.34 2.34 0 0 0 0-3.831C1.676 8.447 3.76 4.84 6.35 6.051a2.34 2.34 0 0 0 3.319-1.915" />
  <circle cx="12" cy="12" r="3" />
</svg>
