<svg
  xmlns="http://www.w3.org/2000/svg"
  width="24"
  height="24"
  viewBox="0 0 24 24"
  fill="none"
  stroke="currentColor"
  stroke-width="2"
  stroke-linecap="round"
  stroke-linejoin="round"
>
  <path d="M12 2a2 2 0 0 1 1.975 1.705 3.13 3.13 0 0 0 4.215 2.433 2 2 0 0 1 1.982 3.425 3.13 3.13 0 0 0 0 4.867 2 2 0 0 1-1.979 3.427 3.13 3.13 0 0 0-4.212 2.435 2 2 0 0 1-3.957.002 3.13 3.13 0 0 0-4.214-2.432 2 2 0 0 1-1.982-3.425 3.13 3.13 0 0 0-.002-4.869 2 2 0 0 1 1.98-3.426 3.13 3.13 0 0 0 4.212-2.435A2 2 0 0 1 12.001 2" />
  <circle cx="12" cy="12" r="3" />
</svg>
