<svg
  xmlns="http://www.w3.org/2000/svg"
  width="24"
  height="24"
  viewBox="0 0 24 24"
  fill="none"
  stroke="currentColor"
  stroke-width="2"
  stroke-linecap="round"
  stroke-linejoin="round"
>
  <circle cx="12" cy="12" r="3" />
  <path d="M12.22 2a2 2 0 0 1 2 2v.18a2 2 0 0 0 1 1.73l.43.25a2 2 0 0 0 2 0l.15-.08a2 2 0 0 1 2.73.73l.22.39a2 2 0 0 1-.73 2.72l-.15.08a2 2 0 0 0-1 1.75v.5A2 2 0 0 0 20 14.07a2 2 0 0 1 .75 2.73l-.25.4a2 2 0 0 1-2.7.72l-.15-.08a2 2 0 0 0-2 0l-.43.26a2 2 0 0 0-1 1.72V20a2 2 0 0 1-2 2h-.44a2 2 0 0 1-2-2v-.18a2 2 0 0 0-1-1.73l-.43-.25a2 2 0 0 0-2 0l-.15.08a2 2 0 0 1-2.73-.73 2 2 0 0 1 .51-3.11l.15-.08a2 2 0 0 0 1-1.75v-.51a2 2 0 0 0-1-1.72 2 2 0 0 1-.88-2.83l.25-.39a2 2 0 0 1 2.85-.64 2 2 0 0 0 2 0l.43-.26a2 2 0 0 0 1-1.72V4a2 2 0 0 1 2-2Z" />
</svg>