<svg width="24" height="24" fill="none" stroke="currentcolor" stroke-width="2" stroke-linecap="round" stroke-linejoin="round" xmlns="http://www.w3.org/2000/svg">
 <path d="M11.967 2h-.434a2 2 0 00-2 2v.18a2 2 0 01-.999 1.731l-.435.252a2 2 0 01-2.003 0l-.144-.084a2 2 0 00-2.735.733l-.22.383a2 2 0 00.73 2.73l.155.088a2 2 0 01.998 1.732v.51a2 2 0 01-.998 1.731l-.154.09a2 2 0 00-.732 2.73l.221.382a2 2 0 002.735.733l.144-.084a2 2 0 012.003 0l.435.252a2 2 0 01.999 1.731V20a2 2 0 002 2h.434a2 2 0 002-2v-.18a2 2 0 01.999-1.731l.435-.252a2 2 0 012.003 0l.144.084a2 2 0 002.735-.733l.22-.383a2 2 0 00-.73-2.73l-.155-.088a2 2 0 01-.998-1.732v-.51a2 2 0 01.998-1.731l.154-.09a2 2 0 00.732-2.73l-.221-.382a2 2 0 00-2.735-.733l-.144.084a2 2 0 01-2.003 0l-.435-.252a2 2 0 01-.999-1.731V4a2 2 0 00-2-2z"/>
 <circle cx="11.75" cy="11.75" r="2.25"/>
</svg>
