<svg
  xmlns="http://www.w3.org/2000/svg"
  width="24"
  height="24"
  viewBox="0 0 24 24"
  fill="none"
  stroke="currentColor"
  stroke-width="2"
  stroke-linecap="round"
  stroke-linejoin="round"
>
  <path d="M12.34 21.95a1 1 0 0 1-.67-.01C7.5 20.5 4 18 4 13V6a1 1 0 0 1 1-1c2 0 4.5-1.2 6.24-2.72a1.17 1.17 0 0 1 1.52 0C14.51 3.81 17 5 19 5a1 1 0 0 1 1 1v2.5" />
  <path d="M15.5 14a1 1 0 0 1 5 0" />
  <path d="M21 17a1 1 0 0 1 1 1v3a1 1 0 0 1-1 1h-6a1 1 0 0 1-1-1v-3a1 1 0 0 1 1-1v-1.5h6zh-6" />
  <circle cx="18" cy="17.5" r=".6" fill="currentColor" />
</svg>