<svg
  xmlns="http://www.w3.org/2000/svg"
  width="24"
  height="24"
  viewBox="0 0 24 24"
  fill="none"
  stroke="currentColor"
  stroke-width="2"
  stroke-linecap="round"
  stroke-linejoin="round"
>
  <path d="M11 12h.01" />
  <path d="M13 22c.5-.5 1.12-1 2.5-1a2.5 2.5 0 0 0 2.427-3.102" />
  <path d="M13.656 8H15.5a6.5 6.5 0 0 1 6.293 8.127" />
  <path d="M14 2a3.28 3.28 0 0 1-3.227 1.798l-1.451-.132" />
  <path d="M14 8a9 9 0 0 1 .315.657" />
  <path d="M14.595 14.594A8.5 8.5 0 0 1 14 16" />
  <path d="M16.086 16.07A2.5 2.5 0 0 0 15.5 16H12a7 7 0 0 1-7-7V8" />
  <path d="M19.118 13.46c.704-1.186 1.113-2.536.882-3.46" />
  <path d="M19.566 19.571A6.5 6.5 0 0 1 15.5 21c-1.38 0-2-.5-2.5-1" />
  <path d="m2 2 20 20" />
  <path d="M3.433 3.42A2.387 2.387 0 0 0 4.387 8H8" />
</svg>
