<svg
  xmlns="http://www.w3.org/2000/svg"
  width="24"
  height="24"
  viewBox="0 0 24 24"
  fill="none"
  stroke="currentColor"
  stroke-width="2"
  stroke-linecap="round"
  stroke-linejoin="round"
>
  <path d="M14.234 3.588 13 14" />
  <path d="m9 19 6 .012v.57c-.001.641-.317 1.254-.878 1.708s-1.321.709-2.114.71a3.6 3.6 0 0 1-1.149-.182 3.1 3.1 0 0 1-.975-.524 2.5 2.5 0 0 1-.653-.785A2 2 0 0 1 9 19.582zl5.5.013" />
  <path d="M9.808 3.36 10.814 14" />
  <path d="M9.808 3.36c-.38-.667-.976-1.134-1.656-1.297a2.34 2.34 0 0 0-1.968.428c-.581.437-.987 1.12-1.129 1.9a3.38 3.38 0 0 0 .373 2.26l3.58 7.867.544.382h4.939l.546-.381 3.59-7.894a3.4 3.4 0 0 0 .305-2.226c-.153-.76-.558-1.42-1.128-1.844a2.34 2.34 0 0 0-1.927-.426c-.666.15-1.255.592-1.643 1.231a3 3 0 0 0-1.006-.816 2.7 2.7 0 0 0-2.414-.001 3 3 0 0 0-1.007.816" />
</svg>
