<svg
  xmlns="http://www.w3.org/2000/svg"
  width="24"
  height="24"
  viewBox="0 0 24 24"
  fill="none"
  stroke="currentColor"
  stroke-width="2"
  stroke-linecap="round"
  stroke-linejoin="round"
>
  <path d="M17.7 12A2 2 0 0 0 15 9.25" />
  <path d="M20.5 14.9A5.9 5.9 0 0 0 22 11c0-5-4.5-9-10-9-1.3 0-2.6.2-3.7.6" />
  <path d="M22 22 2 2" />
  <path d="M4.8 4.8C3.1 6.4 2 8.6 2 11c0 2.2 1.2 4.2 3 5.2v.8a2 2 0 0 0 2 2h1.2l.5 2c.1.5.7 1 1.2 1h4c.6 0 1.1-.4 1.2-1l.5-2H17c.6 0 1.1-.2 1.4-.6" />
  <circle cx="8" cy="11" r="2" />
  <path d="m13 16.2-1-1-1 1" />
</svg>
