<svg
  xmlns="http://www.w3.org/2000/svg"
  width="24"
  height="24"
  viewBox="0 0 24 24"
  fill="none"
  stroke="currentColor"
  stroke-width="2"
  stroke-linecap="round"
  stroke-linejoin="round"
>
  <circle cx="9.5" cy="11.5" r=".5" />
  <circle cx="14.5" cy="11.5" r=".5" />
  <path d="M12 14.5h.01" />
  <path d="M12 5c-3.9 0-7 2.9-7 6.5 0 1.6.8 2.9 2 3.7v.3c0 .8.7 1.5 1.5 1.5h.8l.4 1.1c.2.5.7.9 1.3.9h2c.6 0 1.1-.4 1.3-.9l.4-1.1h.8c.8 0 1.5-.7 1.5-1.5v-.3c1.2-.8 2-2.2 2-3.7C19 7.9 15.9 5 12 5" />
  <path d="m8.7 5.7-.9-.9A2 2 0 1 0 4 4a2 2 0 1 0 .8 3.8l.9.9" />
  <path d="m18.3 8.7.9-.9A2 2 0 1 0 20 4a2 2 0 1 0-3.8.8l-.9.9" />
  <path d="m6.3 14.7-1.5 1.5A2 2 0 1 0 4 20a2 2 0 1 0 3.8-.8l1.7-1.7" />
  <path d="m14.5 17.5 1.7 1.7a2 2 0 1 0 3.8.8 2 2 0 1 0-.8-3.8l-1.5-1.5" />
</svg>
