<svg
  xmlns="http://www.w3.org/2000/svg"
  width="24"
  height="24"
  viewBox="0 0 24 24"
  fill="none"
  stroke="currentColor"
  stroke-width="2"
  stroke-linecap="round"
  stroke-linejoin="round"
>
  <circle cx="9.5" cy="8.5" r=".5" />
  <circle cx="14.5" cy="8.5" r=".5" />
  <path d="M12 11.5h.01" />
  <path d="M12 2C8.1 2 5 4.9 5 8.5c0 1.6.8 2.9 2 3.7v.3c0 .8.7 1.5 1.5 1.5h.8l.4 1.1c.2.5.7.9 1.3.9h2c.6 0 1.1-.4 1.3-.9l.4-1.1h.8c.8 0 1.5-.7 1.5-1.5v-.3c1.2-.8 2-2.2 2-3.7C19 4.9 15.9 2 12 2" />
  <path d="m5 22 14-4" />
  <path d="m5 18 14 4" />
</svg>
