<svg
  xmlns="http://www.w3.org/2000/svg"
  width="24"
  height="24"
  viewBox="0 0 24 24"
  fill="none"
  stroke="currentColor"
  stroke-width="2"
  stroke-linecap="round"
  stroke-linejoin="round"
>
  <rect x="13" y="2" width="3" height="8" rx="1.5" />
  <rect x="14" y="13" width="8" height="3" rx="1.5" />
  <rect x="2" y="8" width="8" height="3" rx="1.5" />
  <rect x="8" y="14" width="3" height="8" rx="1.5" />
  <path d="M19 8.5a1.5 1.5 0 1 1 1.5 1.5H19Z" />
  <path d="M5 15.5A1.5 1.5 0 1 1 3.5 14H5Z" />
  <path d="M15.5 19a1.5 1.5 0 1 1-1.5 1.5V19Z" />
  <path d="M8.5 5A1.5 1.5 0 1 1 10 3.5V5Z" />
</svg>