<svg
  xmlns="http://www.w3.org/2000/svg"
  width="24"
  height="24"
  viewBox="0 0 24 24"
  fill="none"
  stroke="currentColor"
  stroke-width="2"
  stroke-linecap="round"
  stroke-linejoin="round"
>
  <path d="m10.597 5.398.769 3.62" />
  <path d="m10.693 19.852-1.261-1.534a1 1 0 0 0-.409-.181l-1.984.088" />
  <path d="m17.016 16.517-2.764-2.49" />
  <path d="m17.673 6.415.119 1.985a1 1 0 0 0 .223.387l1.658 1.1" />
  <path d="m17.846 8.625-3.214 1.856" />
  <path d="m19.064 15.669-1.848.726a1 1 0 0 0-.3.333l-.528 1.914" />
  <path d="M4.128 13.184 5.2 11.51a1 1 0 0 0 .047-.445l-.7-1.859" />
  <path d="m5.287 11.294 3.691.388" />
  <path d="m8.442 4.879 1.922.5a1 1 0 0 0 .437-.093l1.553-1.239" />
  <path d="M9.1 11.393a1 1 0 0 0-.061.584l1.491 2.582a1 1 0 0 0 .537.24l2.916-.62a1 1 0 0 0 .394-.437l.311-2.966a1 1 0 0 0-.294-.509l-2.72-1.212a1 1 0 0 0-.574.122z" />
  <path d="m9.255 18.166 1.513-3.398" />
  <circle cx="12" cy="12" r="10" />
</svg>
