<svg
  xmlns="http://www.w3.org/2000/svg"
  width="24"
  height="24"
  viewBox="0 0 24 24"
  fill="none"
  stroke="currentColor"
  stroke-width="2"
  stroke-linecap="round"
  stroke-linejoin="round"
>
 <path d="M12 21c6.5 0 9-4.03 9-9H3c0 4.97 2.5 9 9 9Z"/>
 <path d="M20 11.5 22 6"/>
 <path d="M11.21 2.972c.326.129.958.637.888 1.645-.07 1.008-1.104 1.455-1.174 2.45-.066.946.396 1.506.866 1.96"/>
 <path d="M6.21 2.972c.326.129.958.637.888 1.645-.07 1.008-1.104 1.455-1.174 2.45-.066.946.396 1.506.866 1.96"/>
 <path d="M16.21 2.972c.326.129.958.637.888 1.645-.07 1.008-1.104 1.455-1.174 2.45-.066.946.396 1.506.866 1.96"/>
 <path d="M7 21h10"/></svg>
