<svg
  xmlns="http://www.w3.org/2000/svg"
  width="24"
  height="24"
  viewBox="0 0 24 24"
  fill="none"
  stroke="currentColor"
  stroke-width="2"
  stroke-linecap="round"
  stroke-linejoin="round"
>
<path d="M6.247 3c.274.106.808.526.748 1.358-.059.833-.93 1.201-.99 2.024-.055.78.334 1.242.73 1.618"/>
<path d="M11.247 3c.274.106.808.526.748 1.358-.059.833-.93 1.201-.99 2.024-.055.78.334 1.242.73 1.618"/>
<path d="M16.247 3c.274.106.808.526.748 1.358-.059.833-.93 1.201-.99 2.024-.055.78.334 1.242.73 1.618"/>
<path d="M7 21h10"/>
</svg>
