<svg
  xmlns="http://www.w3.org/2000/svg"
  width="24"
  height="24"
  viewBox="0 0 24 24"
  fill="none"
  stroke="currentColor"
  stroke-width="2"
  stroke-linecap="round"
  stroke-linejoin="round"
>
  <path d="M10 5v1" />
  <path d="M14 6V5" />
  <path d="M10 10.4V8a2 2 0 1 1 4 0v2.4" />
  <path d="M7 15H4l-2 2.5" />
  <path d="M7.42 17 5 20l1 2" />
  <path d="m8 12-4-1-2-3" />
  <path d="M9 11 5.5 6 7 2" />
  <path d="M8 18a5 5 0 1 1 8 0s-2 3-4 4c-2-1-4-4-4-4" />
  <path d="m15 11 3.5-5L17 2" />
  <path d="m16 12 4-1 2-3" />
  <path d="M17 15h3l2 2.5" />
  <path d="M16.57 17 19 20l-1 2" />
</svg>
