<svg
  xmlns="http://www.w3.org/2000/svg"
  width="24"
  height="24"
  viewBox="0 0 24 24"
  fill="none"
  stroke="currentColor"
  stroke-width="2"
  stroke-linecap="round"
  stroke-linejoin="round"
>
  <path d="M12,22C6.5,22,2,17.5,2,12S6.5,2,12,2" />
  <path d="M12,18c-3.3,0-6-2.7-6-6s2.7-6,6-6" />
  <path d="M12,6c2.2,0,4,1.8,4,4s-1.8,4-4,4" />
  <path d="M12,14c-1.1,0-2-0.9-2-2s0.9-2,2-2" />
  <path d="M12,18c4.4,0,8-3.6,8-8s-3.6-8-8-8" />
  <path d="M22,16.6c-2.1,3.2-5.8,5.4-10,5.4" />
</svg>
