<svg
  xmlns="http://www.w3.org/2000/svg"
  width="26"
  height="26"
  viewBox="0 0 26 26"
  fill="none"
  stroke="currentColor"
  stroke-width="2"
  stroke-linecap="round"
  stroke-linejoin="round"
>
  <path d="M4.03 11.77c.59-1.54 2.33-1.46 3.7-.64 1.04.65 3.91 1.71 2.71-.36-.4-.6-1.26-1.15-1.58-1.79-.43-.7.22-1.6.94-1.6.97-.03 1.53 1.1 2.05 1.76 1.72 2.15.75-4.49 2.11-4.96a1.3 1.3 0 0 1 .35-.18c.73-.22 1.47.29 1.67 1.1.39 1.4-.68 3.08-.37 4.45 1.06 1.32 3.17-2.63 4.92-1.56.64.3 1.08 1.05.99 1.75-.05 1.98-5.03 1.92-3.67 3.54.74.69 2.08.97 2.76 1.73a1.225 1.225 0 0 1-.8 2.08c-.98.06-1.98-.82-2.89-1.06-.24-.05-.44-.07-.59.09-.69.7 1.85 3.86.56 5.05-.52.54-1.41.46-1.87-.18-1-1.12-.33-3.8-2.28-3.9-1.18.14-2.05 2.69-3.42 2.86-1.14.19-2.52-1.31-1.76-2.34.63-.84 2.22-1.05 2.88-1.89 1.17-2.45-7.14-.71-6.43-3.84z" />
</svg>
