<svg
  xmlns="http://www.w3.org/2000/svg"
  width="24"
  height="24"
  viewBox="0 0 24 24"
  fill="none"
  stroke="currentColor"
  stroke-width="2"
  stroke-linecap="round"
  stroke-linejoin="round"
>
  <path d="M1 9h2" />
  <path d="M13 9h2" />
  <path d="M14 1v4" />
  <path d="M14 20v-7" />
  <path d="M19 9h2" />
  <path d="M2 18h18" />
  <path d="M2 1v2a2 2 45 0 0 2 2h14a2 2 135 0 0 2-2V1" />
  <path d="M2 20v-5a2 2 135 0 1 2-2h14a2 2 45 0 1 2 2v5" />
  <path d="M7 9h2" />
  <path d="M8 1v4" />
  <path d="M8 20v-7" />
</svg>
