<svg
  xmlns="http://www.w3.org/2000/svg"
  width="24"
  height="24"
  viewBox="0 0 24 24"
  fill="none"
  stroke="currentColor"
  stroke-width="2"
  stroke-linecap="round"
  stroke-linejoin="round"
>
  <path d="M14.761 10.1a1.2 1.2 0 0 0-.862-.862l-3.68-.95a.3.3 0 0 1-.001-.577l3.681-.95a1.2 1.2 0 0 0 .862-.861l.95-3.68a.3.3 0 0 1 .577-.001l.949 3.681a1.2 1.2 0 0 0 .862.862l3.68.949a.3.3 0 0 1 0 .578l-3.68.949a1.2 1.2 0 0 0-.862.862l-.95 3.68a.3.3 0 0 1-.577.001z" />
  <path d="M21 13v6a2 2 0 0 1-2 2H5a2 2 0 0 1-2-2V5a2 2 0 0 1 2-2h6" />
  <path d="M8.587 15.7a.4.4 0 0 0-.287-.287l-1.227-.317a.1.1 0 0 1 0-.192l1.227-.317a.4.4 0 0 0 .287-.287l.316-1.227.036-.053L9 13l.061.02.036.053.316 1.227a.4.4 0 0 0 .288.287l1.227.317a.1.1 0 0 1-.001.192l-1.227.317a.4.4 0 0 0-.288.287l-.316 1.227-.036.053L9 17l-.06-.02-.037-.053z" />
</svg>
