<svg
  xmlns="http://www.w3.org/2000/svg"
  width="24"
  height="24"
  viewBox="0 0 24 24"
  fill="none"
  stroke="currentColor"
  stroke-width="2"
  stroke-linecap="round"
  stroke-linejoin="round"
>
  <path d="M10 21c-.65 0-1.31-.43-1.68-1" />
  <path d="M14 3c.65 0 1.31.43 1.68 1" />
  <path d="M15 21h-1" />
  <path d="M21 10c0-.65-.43-1.31-1-1.68" />
  <path d="M21 14v1" />
  <path d="M21 19a2 2 0 0 1-2 2" />
  <path d="M3 10V9" />
  <path d="M3 14c0 .65.43 1.31 1 1.68" />
  <path d="M3 5a2 2 0 0 1 2-2" />
  <path d="M8 16v-6a2 2 0 0 1 2-2h6v6a2 2 0 0 1-2 2z" />
  <path d="M9 3h1" />
</svg>