<svg
  xmlns="http://www.w3.org/2000/svg"
  width="24"
  height="24"
  viewBox="0 0 24 24"
  fill="none"
  stroke="currentColor"
  stroke-width="2"
  stroke-linecap="round"
  stroke-linejoin="round"
>
  <path d="m21 7.236-1.574.583a3.53 3.53 0 0 0-2.083 2.086l-.583 1.576-.583-1.576a3.53 3.53 0 0 0-2.083-2.085l-1.574-.584 1.574-.583a3.53 3.53 0 0 0 2.083-2.085l.583-1.576.582 1.576a3.53 3.53 0 0 0 2.084 2.085z" />
  <path d="m9.876 7.227 1.181 3.198a4.23 4.23 0 0 0 2.5 2.502l3.194 1.183-3.194 1.183a4.23 4.23 0 0 0-2.5 2.502l-1.181 3.197-1.182-3.197a4.23 4.23 0 0 0-2.5-2.502L3 14.11l3.194-1.183a4.23 4.23 0 0 0 2.5-2.502z" />
</svg>
