<svg
  xmlns="http://www.w3.org/2000/svg"
  width="24"
  height="24"
  viewBox="0 0 24 24"
  fill="none"
  stroke="currentColor"
  stroke-width="2"
  stroke-linecap="round"
  stroke-linejoin="round"
>
  <path d="M15 18h6" />
  <path d="M17.688 14a2.1 2.1 0 0 1 .416-.568l3.736-3.638a.53.53 0 0 0-.294-.905l-5.166-.755a2.1 2.1 0 0 1-1.595-1.16l-2.31-4.68a.53.53 0 0 0-.95.001L9.216 6.974a2.1 2.1 0 0 1-1.597 1.16l-5.165.755a.53.53 0 0 0-.294.906l3.736 3.637a2.1 2.1 0 0 1 .611 1.879l-.88 5.139a.53.53 0 0 0 .769.56l4.617-2.428.027-.014" />
</svg>
