<svg
  xmlns="http://www.w3.org/2000/svg"
  width="24"
  height="24"
  viewBox="0 0 24 24"
  fill="none"
  stroke="currentColor"
  stroke-width="2"
  stroke-linecap="round"
  stroke-linejoin="round"
>
  <path d="M11.552 2.908a.5.5 0 0 1 .896 0l2.177 4.41a2 2 0 0 0 1.504 1.094l4.869.712a.5.5 0 0 1 .277.852l-3.521 3.43a2 2 0 0 0-.576 1.77l.831 4.845a.5.5 0 0 1-.726.527L12.93 18.26a2 2 0 0 0-1.86 0l-4.353 2.288a.5.5 0 0 1-.726-.527l.831-4.844a2 2 0 0 0-.576-1.771L2.725 9.977a.5.5 0 0 1 .277-.853l4.868-.712a2 2 0 0 0 1.505-1.094z" />
</svg>
