<svg
  xmlns="http://www.w3.org/2000/svg"
  width="24"
  height="24"
  viewBox="0 0 24 24"
  fill="none"
  stroke="currentColor"
  stroke-width="2"
  stroke-linecap="round"
  stroke-linejoin="round"
>
  <path d="m16.5 16.5 5 5" />
  <path d="m18.506 13.04 3.334-3.246a.53.53 0 0 0-.294-.905l-5.166-.755a2.1 2.1 0 0 1-1.595-1.16l-2.31-4.68a.53.53 0 0 0-.949.001l-2.31 4.679a2.1 2.1 0 0 1-1.596 1.16l-5.165.755a.53.53 0 0 0-.294.906l3.736 3.637a2.1 2.1 0 0 1 .611 1.879l-.881 5.139a.53.53 0 0 0 .77.56l4.617-2.428a2.1 2.1 0 0 1 1.973 0l.148.078" />
  <path d="m21.5 16.5-5 5" />
</svg>
