<svg
  xmlns="http://www.w3.org/2000/svg"
  width="24"
  height="24"
  viewBox="0 0 24 24"
  fill="none"
  stroke="currentColor"
  stroke-width="2"
  stroke-linecap="round"
  stroke-linejoin="round"
>
  <path d="m22 7-4.4-4.4a2 2 0 0 0-1.43-.6H7.83a2 2 0 0 0-1.43.6L2 7Z" />
  <path d="M20 12a2.7 2.7 0 0 1-1.59-.63.7.7 0 0 0-.82 0 2.7 2.7 0 0 1-3.18 0 .7.7 0 0 0-.82 0 2.7 2.7 0 0 1-3.18 0 .7.7 0 0 0-.82 0 2.7 2.7 0 0 1-3.18 0 .7.7 0 0 0-.82 0A2.7 2.7 0 0 1 4 12v8a2 2 0 0 0 2 2h12a2 2 0 0 0 2-2v-8a2 2 0 0 0 2-2V7" />
  <path d="M15 22v-4a2 2 0 0 0-2-2h-2a2 2 0 0 0-2 2v4" />
  <path d="M4 12a2 2 0 0 1-2-2V7" />
</svg>