<svg
  xmlns="http://www.w3.org/2000/svg"
  width="24"
  height="24"
  viewBox="0 0 24 24"
  fill="none"
  stroke="currentColor"
  stroke-width="2"
  stroke-linecap="round"
  stroke-linejoin="round"
>
  <path d="m2 7 4.414-4.414A2 2 0 0 1 7.828 2h8.344a2 2 0 0 1 1.414.586L22 7" />
  <path d="M4 12v8a2 2 0 0 0 2 2h12a2 2 0 0 0 2-2v-8" />
  <path d="M15 22v-4a2 2 0 0 0-2-2h-2a2 2 0 0 0-2 2v4" />
  <path d="M2 7h20" />
  <path d="M22 7v3a2 2 0 0 1-2 2v0c-.646 0-1.22-.342-1.586-.626a.692.692 0 0 0-.828 0c-.365.284-.94.626-1.586.626-.646 0-1.22-.342-1.586-.626a.692.692 0 0 0-.828 0c-.365.284-.94.626-1.586.626-.646 0-1.22-.342-1.586-.626a.692.692 0 0 0-.828 0C9.221 11.658 8.646 12 8 12c-.646 0-1.22-.342-1.586-.626a.693.693 0 0 0-.828 0C5.221 11.658 4.646 12 4 12v0a2 2 0 0 1-2-2V7" />
</svg>
