<svg
  xmlns="http://www.w3.org/2000/svg"
  width="24"
  height="24"
  viewBox="0 0 24 24"
  fill="none"
  stroke="currentColor"
  stroke-width="2"
  stroke-linecap="round"
  stroke-linejoin="round"
>
  <path d="M10 14H8" />
  <path d="M15 22v-4" />
  <path d="M15 2v8" />
  <path d="M16 14h-2" />
  <path d="M21 22v-2a2 2 0 0 0-2-2H5a2 2 0 0 0-2 2v2" />
  <path d="M21 2v6a2 2 0 0 1-2 2H5a2 2 0 0 1-2-2V2" />
  <path d="M21 5H3" />
  <path d="M22 14h-2" />
  <path d="M4 14H2" />
  <path d="M9 22v-4" />
  <path d="M9 2v8" />
</svg>
