<svg
  xmlns="http://www.w3.org/2000/svg"
  width="24"
  height="24"
  viewBox="0 0 24 24"
  fill="none"
  stroke="currentColor"
  stroke-width="2"
  stroke-linecap="round"
  stroke-linejoin="round"
>
  <path d="M13 21h2" />
  <path d="M13 3h2" />
  <path d="M15 9h-2" />
  <path d="M19 3a2 2 0 0 1 2 2" />
  <path d="M19 9h2" />
  <path d="M21 13v2" />
  <path d="M21 19a2 2 0 0 1-2 2" />
  <path d="M3 13v2" />
  <path d="M5 21a2 2 0 0 1-2-2" />
  <path d="M5 3a2 2 0 0 0-2 2" />
  <path d="M5 9H3" />
  <path d="M9 14v1" />
  <path d="M9 19v2" />
  <path d="M9 5V3" />
  <path d="M9 9v1" />
</svg>
