<svg
  xmlns="http://www.w3.org/2000/svg"
  width="24"
  height="24"
  viewBox="0 0 24 24"
  fill="none"
  stroke="currentColor"
  stroke-width="2"
  stroke-linecap="round"
  stroke-linejoin="round"
>
  <path d="m16.995 16.995-4.296 4.295a2.426 2.426 0 0 1-3.42 0l-6.58-6.58a2.426 2.426 0 0 1 0-3.42l4.296-4.295" />
  <path d="m2 2 20 20" />
  <path d="m9.82 4.168 1.583-1.582A2 2 0 0 1 12.817 2h7.172a2 2 0 0 1 2 2v7.172a2 2 0 0 1-.586 1.414l-1.586 1.586" />
  <circle cx="16.489" cy="7.5" r=".5" fill="currentColor" />
</svg>
