<svg
  xmlns="http://www.w3.org/2000/svg"
  width="24"
  height="24"
  viewBox="0 0 24 24"
  fill="none"
  stroke="currentColor"
  stroke-width="2"
  stroke-linecap="round"
  stroke-linejoin="round"
>
  <path d="M11.21 21.985a2.42 2.42 0 0 1-1.931-.695l-6.58-6.58a2.426 2.426 0 0 1 0-3.42l8.704-8.704A2 2 0 0 1 12.817 2h7.172a2 2 0 0 1 2 2v7.172" />
  <path d="m14.305 19.53.923-.382" />
  <path d="m15.228 16.852-.924-.383" />
  <path d="m16.852 15.228-.383-.923" />
  <path d="m16.852 20.772-.383.924" />
  <path d="m19.148 15.228.383-.923" />
  <path d="m19.53 21.696-.382-.924" />
  <path d="m20.773 16.852.922-.383" />
  <path d="m20.773 19.148.922.383" />
  <circle cx="16.489" cy="7.5" r=".5" fill="currentColor" />
  <circle cx="18" cy="18" r="3" />
</svg>
