<svg
  xmlns="http://www.w3.org/2000/svg"
  width="24"
  height="24"
  viewBox="0 0 24 24"
  fill="none"
  stroke="currentColor"
  stroke-width="2"
  stroke-linecap="round"
  stroke-linejoin="round"
>
  <path d="M10.827 2a2 2 0 0 0-1.414.586l-6.71 6.71a2.4 2.4 0 0 0 0 3.408l4.592 4.592a2.4 2.4 0 0 0 3.408 0l6.71-6.71A2 2 0 0 0 18 9.172V3a1 1 0 0 0-1-1z" />
  <path d="M22 7v6.172a2 2 0 0 1-.587 1.414l-6.71 6.71a2.4 2.4 0 0 1-3.19.193" />
  <circle cx="13.499" cy="6.5" r=".5" fill="currentColor" />
</svg>
