<svg
  xmlns="http://www.w3.org/2000/svg"
  width="24"
  height="24"
  viewBox="0 0 24 24"
  fill="none"
  stroke="currentColor"
  stroke-width="2"
  stroke-linecap="round"
  stroke-linejoin="round"
>
  <path d="M16.5 18.935a2 2 0 0 0 .915-.521l3.999-4a2 2 0 0 0 0-2.828l-6-6a2 2 0 0 0-.914-.52" />
  <path d="M3 5a1 1 0 0 0-1 1v5a2 2 0 0 0 .586 1.414l6.001 6.001a2 2 0 0 0 2.828-.001l3.999-4a2 2 0 0 0 0-2.828l-6-6A2 2 0 0 0 8 5z" />
  <circle cx="6.5" cy="9.5" r=".5" fill="currentColor" />
</svg>
