<?xml version="1.0" encoding="UTF-8"?>
<svg version="1.1" xmlns="http://www.w3.org/2000/svg" width="512" height="512">
<path d="M0 0 C16.18616656 16.18616656 21.83860188 40.9696073 21.87442017 63.21591187 C21.86902725 64.56998642 21.86902725 64.56998642 21.86352539 65.95141602 C21.86367142 66.92808731 21.86381744 67.90475861 21.8639679 68.911026 C21.86327653 72.1086761 21.85552075 75.30626645 21.84765625 78.50390625 C21.84578931 80.73306751 21.84436671 82.96222918 21.84336853 85.19139099 C21.83956508 91.03566639 21.82975348 96.87991662 21.81866455 102.72418213 C21.80840359 108.69697733 21.8038609 114.66977663 21.79882812 120.64257812 C21.78812914 132.34506309 21.77107899 144.04752945 21.75 155.75 C22.44084403 155.72627068 23.13168806 155.70254135 23.84346676 155.67809296 C27.00148969 155.58336661 30.15921292 155.52479338 33.31811523 155.46679688 C34.40490318 155.42882996 35.49169113 155.39086304 36.61141205 155.35174561 C43.51390492 155.25670493 47.35837429 155.75526438 52.66015625 160.28125 C54.44370413 162.21180073 56.16315059 164.2036091 57.8125 166.25 C58.69769646 167.24761528 59.58900079 168.23984437 60.48632812 169.2265625 C62.97437232 172.01793594 65.3686197 174.86757833 67.75 177.75 C72.35230999 183.13205203 77.10799392 188.20157578 82.18164062 193.14257812 C83.38761563 194.32848143 84.57119358 195.53708707 85.75 196.75 C85.75 197.08 85.75 197.41 85.75 197.75 C64.63 197.75 43.51 197.75 21.75 197.75 C21.81659613 220.24204461 21.81659613 220.24204461 21.9218235 242.73381615 C21.96609036 250.77973875 22.00454224 258.8255493 22.02099609 266.87158203 C22.03404537 273.24354223 22.06109289 279.61526697 22.10461307 285.98709452 C22.12715491 289.35773114 22.14291511 292.72807817 22.14188385 296.09879684 C22.14425705 299.87139685 22.17136829 303.64308509 22.20410156 307.41552734 C22.1990712 308.52036469 22.19404083 309.62520203 22.18885803 310.76351929 C22.32959836 321.28680016 25.5271246 329.99333243 32.75 337.75 C42.51257579 346.85210554 54.52512128 348.27038584 67.45703125 348.0234375 C93.40990169 346.84402696 116.29379208 327.50091277 133.16064453 309.22119141 C135.84574967 306.17779927 138.32539298 303.00264255 140.75 299.75 C141.34941406 298.96625 141.94882812 298.1825 142.56640625 297.375 C153.78715481 282.11277376 160.36600865 265.53727514 162.75 246.75 C161.76257813 246.91886719 160.77515625 247.08773438 159.7578125 247.26171875 C145.26861575 249.31029177 128.72159786 246.3483852 116.75 237.75 C106.87369613 229.7368386 100.68761641 218.66855001 98.96533203 206.01123047 C98.47969448 200.91148559 98.37822232 195.8073411 98.3125 190.6875 C98.27890381 189.05530518 98.27890381 189.05530518 98.24462891 187.39013672 C98.28495208 173.31734964 103.72397942 159.77602058 113.75 149.75 C127.94289753 139.21319287 145.13868158 135.85877219 162.6015625 138.28515625 C170.07868654 139.49823057 177.07874022 141.03675163 183.75 144.75 C184.55695313 145.18183594 185.36390625 145.61367187 186.1953125 146.05859375 C206.58402043 157.56231428 219.67359419 178.862977 226.22900391 200.90600586 C235.89866834 235.75160523 227.61043264 272.59963847 210.75 303.75 C193.85716194 333.49336191 170.13173098 358.0708328 139.75 373.75 C138.57872559 374.35908203 138.57872559 374.35908203 137.38378906 374.98046875 C101.77390966 393.28527034 61.68604584 403.31798083 22.31640625 392.00390625 C3.64810745 385.44035322 -8.7477604 373.10823886 -17.70703125 355.828125 C-22.07023995 345.47838266 -22.6854679 334.38350524 -22.59057617 323.30908203 C-22.58972713 321.92772439 -22.59021043 320.54636541 -22.59190369 319.16500854 C-22.59275428 315.46335351 -22.57528298 311.76199814 -22.55418181 308.06041193 C-22.53525633 304.17406952 -22.53365221 300.28771805 -22.53010559 296.40133667 C-22.52083125 289.0635492 -22.49628088 281.72589797 -22.46605712 274.38817012 C-22.43236834 266.02526693 -22.41599094 257.66235678 -22.40097082 249.29940248 C-22.36972644 232.11618989 -22.31705707 214.93310941 -22.25 197.75 C-23.43113373 197.79713135 -24.61226746 197.8442627 -25.82919312 197.89282227 C-30.26166041 198.05719733 -34.69386615 198.15956262 -39.12850952 198.24438477 C-41.03811106 198.28931609 -42.94740882 198.3504882 -44.85592651 198.42895508 C-56.09949135 198.87924214 -64.05032707 199.11645331 -72.68994141 191.19335938 C-75.55077039 187.99434525 -78.15490391 184.70506465 -80.57885742 181.16455078 C-85.48859684 174.07071252 -91.78397683 168.11935968 -97.97070312 162.15625 C-99.43281122 160.72301047 -100.84617692 159.24037458 -102.25 157.75 C-102.25 157.09 -102.25 156.43 -102.25 155.75 C-75.85 155.75 -49.45 155.75 -22.25 155.75 C-22.28270341 140.7087618 -22.28270341 140.7087618 -22.36132812 125.66796875 C-22.40360173 119.52778583 -22.44065026 113.38789991 -22.44555664 107.24755859 C-22.44985458 102.29355581 -22.47844109 97.34021944 -22.52343178 92.38642502 C-22.53635907 90.5023729 -22.54073148 88.61824084 -22.53615379 86.73414993 C-22.40823408 70.9853691 -22.40823408 70.9853691 -30.16398621 57.66567993 C-37.28051321 50.72487037 -46.18402376 47.42584463 -56.05859375 47.51953125 C-59.99404628 47.9334202 -63.5727584 49.35018219 -67.25 50.75 C-68.24 51.08 -69.23 51.41 -70.25 51.75 C-72.02761591 48.2534056 -73.79583581 44.75213884 -75.5625 41.25 C-76.06201172 40.26773438 -76.56152344 39.28546875 -77.07617188 38.2734375 C-84.19840647 24.12330255 -84.19840647 24.12330255 -84.3125 18.875 C-82.67494734 14.05866864 -80.03643986 9.98310813 -77.25 5.75 C-76.38375 4.4196875 -76.38375 4.4196875 -75.5 3.0625 C-55.7273221 -17.25941896 -21.92583735 -15.17942586 0 0 Z " fill="#000000" transform="translate(192.25,63.25)"/>
</svg>
