<svg xmlns="http://www.w3.org/2000/svg" width="24" height="24" viewBox="0 0 24 24" fill="none" stroke="currentColor"
  stroke-width="2" stroke-linecap="round" stroke-linejoin="round">
  <path
    d="M2 1a1 1 0 0 0 0 2h20a1 1 0 1 0 0-2H2Zm0 4a1 1 0 0 0 0 2h6a1 1 0 0 1 1 1v.85c-1.07.073-2.098.187-3.031.342-.894.149-1.72.338-2.425.575-.688.23-1.338.532-1.812.943a1.705 1.705 0 0 0 0 2.58c.474.411 1.124.712 1.812.943.705.237 1.531.426 2.425.575.933.155 1.961.269 3.031.342V22a1 1 0 1 0 2 0v-6.76a45.63 45.63 0 0 0 2 0V22a1 1 0 1 0 2 0v-6.85a32.085 32.085 0 0 0 3.032-.342c.893-.149 1.72-.338 2.424-.575.688-.23 1.338-.532 1.813-.943a1.705 1.705 0 0 0 0-2.58c-.475-.411-1.125-.712-1.813-.943-.705-.237-1.531-.426-2.424-.575A32.07 32.07 0 0 0 15 8.85V8a1 1 0 0 1 1-1h6a1 1 0 1 0 0-2h-6a3 3 0 0 0-3 3v3a1 1 0 1 0 2 0v-.145c.963.07 1.879.173 2.704.31.827.138 1.543.306 2.116.498.341.114.607.23.805.337a5.163 5.163 0 0 1-.805.337c-.573.192-1.29.36-2.116.498-1.653.274-3.67.415-5.704.415s-4.05-.14-5.704-.415c-.827-.138-1.543-.306-2.116-.498A5.163 5.163 0 0 1 3.375 12c.199-.108.464-.223.805-.337.573-.192 1.29-.36 2.116-.498A29.75 29.75 0 0 1 9 10.855V11a1 1 0 1 0 2 0V8a3 3 0 0 0-3-3H2Z"
    clip-rule="evenodd" />
  <path d="M10 11h4M10 22h4m8-16V2M2 2v4" />
</svg>