<svg
  xmlns="http://www.w3.org/2000/svg"
  width="24"
  height="24"
  viewBox="0 0 24 24"
  fill="none"
  stroke="currentColor"
  stroke-width="2"
  stroke-linecap="round"
  stroke-linejoin="round"
>
  <path d="M4.7 10s-.8 2.1-.9 2.3-.1.5-.1.7a2 2 0 0 0 2 2H7l2-5h3c.6 0 1-.4 1-1V3c0-.6-.4-1-1-1H4.8c-.6 0-1.1.4-1.3 1L2 9c-.1.6.2 1 .8 1Z" />
  <path d="M9 10V2" />
  <path d="M19.3 14s.8-2.1.9-2.3.1-.5.1-.7a2 2 0 0 0-2-2H17l-2 5h-3c-.6 0-1 .4-1 1v6c0 .6.4 1 1 1h7.2c.5 0 1.1-.4 1.2-1l1.6-6c.1-.6-.2-1-.8-1Z" />
  <path d="M15 14v8" />
</svg>
