<svg 
  xmlns="http://www.w3.org/2000/svg" 
  viewBox="0 0 24 24" 
  width="24" 
  height="24" 
  color="currentColor" 
  fill="none"
  stroke-width="2"
>

    <path 
    fill="currentColor" 
    d="M12.5,1.25 C12.967,1.25 13.408,1.406 13.959,1.602 L14.056,1.637 L14.955,1.955 L15.003,1.972 C15.49,2.145 15.93,2.3 16.263,2.476 C16.628,2.668 16.986,2.944 17.158,3.417 C17.33,3.887 17.236,4.33 17.086,4.713 C16.947,5.067 16.715,5.477 16.456,5.935 L16.432,5.978 L15.916,6.892 L15.874,6.966 C15.667,7.335 15.479,7.668 15.176,7.935 L16.818,15.009 C16.991,15.754 17.133,16.364 17.202,16.878 C17.274,17.415 17.275,17.903 17.135,18.4 C17.13,18.417 17.125,18.435 17.12,18.453 C16.972,18.948 16.71,19.358 16.361,19.772 C16.028,20.167 15.583,20.603 15.039,21.135 L14.979,21.193 C14.542,21.621 14.163,21.993 13.818,22.251 C13.448,22.529 13.035,22.744 12.525,22.75 C12.508,22.75 12.492,22.75 12.475,22.75 C11.965,22.744 11.552,22.529 11.182,22.251 C10.837,21.993 10.458,21.621 10.021,21.193 L9.961,21.135 L9.961,21.135 C9.417,20.603 8.972,20.167 8.639,19.772 C8.29,19.358 8.028,18.948 7.88,18.453 C7.875,18.435 7.87,18.417 7.865,18.4 C7.724,17.903 7.726,17.415 7.798,16.878 C7.867,16.364 8.009,15.754 8.182,15.009 L9.824,7.935 C9.521,7.668 9.333,7.334 9.126,6.966 L9.084,6.892 L8.568,5.978 L8.544,5.935 C8.285,5.477 8.053,5.067 7.915,4.713 C7.764,4.33 7.671,3.887 7.842,3.417 C8.015,2.944 8.373,2.668 8.737,2.476 C9.07,2.3 9.51,2.145 9.997,1.972 L10.045,1.955 L10.945,1.637 L11.041,1.602 C11.593,1.406 12.033,1.25 12.5,1.25 Z M13.779,8.551 C13.385,8.655 12.919,8.75 12.5,8.75 C12.082,8.75 11.615,8.655 11.221,8.551 L9.651,15.313 C9.468,16.102 9.343,16.642 9.285,17.078 C9.229,17.497 9.243,17.761 9.308,17.992 L9.318,18.024 C9.386,18.254 9.515,18.483 9.786,18.805 C10.067,19.138 10.46,19.525 11.036,20.088 C11.517,20.559 11.826,20.86 12.083,21.052 C12.323,21.232 12.429,21.249 12.492,21.25 L12.508,21.25 C12.571,21.249 12.677,21.232 12.917,21.052 C13.174,20.86 13.483,20.559 13.964,20.088 C14.54,19.525 14.933,19.138 15.214,18.805 C15.485,18.483 15.614,18.254 15.682,18.024 L15.692,17.993 C15.757,17.761 15.771,17.497 15.715,17.078 C15.657,16.642 15.532,16.102 15.349,15.313 Z M11.446,3.05 L10.546,3.369 C9.996,3.564 9.661,3.685 9.436,3.803 C9.332,3.858 9.284,3.896 9.264,3.916 C9.259,3.92 9.256,3.924 9.254,3.926 L9.252,3.929 L9.251,3.931 C9.251,3.933 9.251,3.933 9.25,3.934 L9.25,3.934 C9.25,3.935 9.25,3.942 9.251,3.956 C9.254,3.988 9.267,4.052 9.311,4.165 C9.406,4.408 9.584,4.726 9.874,5.241 L10.391,6.155 C10.679,6.665 10.74,6.75 10.833,6.823 C10.928,6.899 10.992,6.927 11.448,7.058 C11.845,7.171 12.231,7.25 12.5,7.25 C12.769,7.25 13.155,7.171 13.552,7.058 C14.009,6.927 14.073,6.899 14.168,6.823 C14.26,6.75 14.321,6.665 14.61,6.155 L15.126,5.241 C15.417,4.726 15.594,4.408 15.689,4.165 C15.734,4.052 15.746,3.988 15.749,3.956 C15.751,3.942 15.75,3.936 15.75,3.934 L15.75,3.934 L15.75,3.934 L15.749,3.931 L15.748,3.929 L15.748,3.929 L15.748,3.929 L15.746,3.926 C15.744,3.924 15.741,3.92 15.737,3.916 C15.716,3.896 15.669,3.858 15.564,3.803 C15.339,3.685 15.005,3.564 14.454,3.369 L13.555,3.05 C12.859,2.804 12.677,2.75 12.5,2.75 C12.323,2.75 12.141,2.804 11.446,3.05 Z" 
    />
</svg>