<svg
  xmlns="http://www.w3.org/2000/svg"
  width="24"
  height="24"
  viewBox="0 0 24 24"
  fill="none"
  stroke="currentColor"
  stroke-width="2"
  stroke-linecap="round"
  stroke-linejoin="round"
>
  <path d="M11.683 2.052a1 1 0 0 1 .633 0l3 1a1 1 0 0 1 .541 1.463l-1.5 2.5a1 1 0 0 1-.541.434l-1.5.5a1 1 0 0 1-.633 0l-1.5-.5a1 1 0 0 1-.54-.434l-1.5-2.5a1 1 0 0 1 .54-1.463z" />
  <path d="m14.339 7.045 1.638 10.287a2 2 0 0 1-.578 1.745l-2.7 2.638a1 1 0 0 1-1.398 0l-2.7-2.638a2 2 0 0 1-.577-1.745L9.662 7.046" />
</svg>