<svg
  xmlns="http://www.w3.org/2000/svg"
  width="24"
  height="24"
  viewBox="0 0 24 24"
  fill="none"
  stroke="currentColor"
  stroke-width="2"
  stroke-linecap="round"
  stroke-linejoin="round"
>
  <path d="M 10 4 C5.582 4 2 7.582 2 12" />
  <path d="M 10 8 C10 5.5 10 8.418 10 4" />
  <path d="M 10 8 C7.791 8 7.5 9.5 7 10.5" />
  <path d="M 12.5 14.5 C12.5 14.5 14 14 13.5 10.5" />
  <path d="M 12.5 14.5 C13.5 19.5 12.5 14.5 13.5 19.5" />
  <path d="M 13.5 10.5 C13 9 12.209 8 10 8" />
  <path d="M 13.5 10.5 C18 12 13.5 10.5 18 12" />
  <path d="M 13.5 19.5 C17 17.5 18 13.5 18 12" />
  <path d="M 18 12 C18 7.582 14.418 4 10 4" />
  <path d="M 2 12 C2.5 15.5 2.5 15.5 5 18.5" />
  <path d="M 2 12 C5 11 5 11 7 10.5" />
  <path d="M 5 18.5 C7.5 14.5 5 18.5 7.5 14.5" />
  <path d="M 5 18.5 C9.5 21 12 20 13.5 19.5" />
  <path d="M 7 10.5 C6.5 12 6.5 13 7.5 14.5" />
  <path d="M 7.5 14.5 C10.5 16 10.5 15.5 12.5 14.5" />
</svg>
