<svg
  xmlns="http://www.w3.org/2000/svg"
  width="24"
  height="24"
  viewBox="0 0 24 24"
  fill="none"
  stroke="currentColor"
  stroke-width="2"
  stroke-linecap="round"
  stroke-linejoin="round"
>
  <path d="M10 10h4" />
  <path d="M10 2a2 2 0 0 0 .5 1.5l.914.586A2 2 0 0 1 12 5.5a2 2 0 0 1 .586-1.414L13.5 3.5A2 2 0 0 0 14 2" />
  <path d="M12 5.5V6" />
  <path d="M13 10v3a1.16 1.16 0 0 0 .403 1.176L17 20a1.16 1.16 0 0 1-.5 1.77 1.3 1.3 0 0 1-1 .23H8.001a1.3 1.3 0 0 1-.771-.453A1.2 1.2 0 0 1 7 20l3.597-5.824A1.16 1.16 0 0 0 11 13v-3" />
</svg>
