<svg
  xmlns="http://www.w3.org/2000/svg"
  width="24"
  height="24"
  viewBox="0 0 24 24"
  fill="none"
  stroke="currentColor"
  stroke-width="2"
  stroke-linecap="round"
  stroke-linejoin="round"
>
  <path d="M10.766 14.627h3.138" />
  <path d="m18 11 2.377-5.534a1.67 1.67 0 0 0-.933-2.158l-2.363-.937a1.67 1.67 0 0 0-2.158.932L11.5 11" />
  <path d="M6.26 4.264c.129-1.83 2.557-2.377 3.669-.827l1.092 1.522 1.786-.365c1.879-.384 3.315 1.798 2.12 3.222l-1.07 1.274.965 1.467c1.055 1.606-.491 3.5-2.316 2.836l-1.833-.667-1.243 1.36c-1.239 1.353-3.628.345-3.578-1.51l.045-1.694-1.634-.666c-1.824-.744-1.755-3.265.103-3.722l1.766-.434z" />
  <rect x="2" y="10.998" width="20" height="10.5" rx="3" />
</svg>
