<svg
  xmlns="http://www.w3.org/2000/svg"
  width="24"
  height="24"
  viewBox="0 0 24 24"
  fill="none"
  stroke="currentColor"
  stroke-width="2"
  stroke-linecap="round"
  stroke-linejoin="round"
>
  <path d="M10 15h4" />
  <path d="M15.5 11a212 212 0 0 1-1.654-2.455l1.038-1.236c.63-.753.535-1.7.115-2.336a2 2 0 0 0-2.144-.898l-1.82.364L9.91 2.885a2 2 0 0 0-3.625.748L6.141 5.55l-1.725.426a2 2 0 0 0-.19 3.756l1.78.73-.04.537" />
  <path d="M18 22a2.2 2.2 0 0 0 1.414-.496c.375-.316.586-.746.586-1.195V12a1 1 0 0 0-1-1H5a1 1 0 0 0-1 1v8.308c0 .45.211.88.586 1.197A2.2 2.2 0 0 0 6 22z" />
  <path d="m18.5 10.745 2.377-5.534a1.67 1.67 0 0 0-.932-2.158l-2.365-.938a1.7 1.7 0 0 0-2.156.932l-.703 1.572" />
</svg>
