<svg
  xmlns="http://www.w3.org/2000/svg"
  width="24"
  height="24"
  viewBox="0 0 24 24"
  fill="none"
  stroke="currentColor"
  stroke-width="2"
  stroke-linecap="round"
  stroke-linejoin="round"
>
  <path d="M10 15h4" />
  <path d="m14.817 10.995-.971-1.45 1.034-1.232a2 2 0 0 0-2.025-3.238l-1.82.364L9.91 3.885a2 2 0 0 0-3.625.748L6.141 6.55l-1.725.426a2 2 0 0 0-.19 3.756l.657.27" />
  <path d="m18.822 10.995 2.055-4.784a1.67 1.67 0 0 0-.932-2.158l-2.365-.938a1.7 1.7 0 0 0-2.156.932l-.675 1.509" />
  <path d="M4 12.006A1 1 0 0 1 4.994 11H19a1 1 0 0 1 1 1v7a2 2 0 0 1-2 2H6a2 2 0 0 1-2-2z" />
</svg>
