<svg
  xmlns="http://www.w3.org/2000/svg"
  width="24"
  height="24"
  viewBox="0 0 24 24"
  fill="none"
  stroke="currentColor"
  stroke-width="2"
  stroke-linecap="round"
  stroke-linejoin="round"
>
  <path d="M 11.012 4.908 L 9.922 3.386" />
  <path d="M 11.082 4.942 A0.14 0.14 0 0 1 11.012 4.908" />
  <path d="M 12.868 4.577 L 11.082 4.942" />
  <path d="M 13.857 9.047 L 14.895 7.811" />
  <path d="M 14 11 C15 10 14.952 10.616 14.247 9.607" />
  <path d="M 14.247 9.607 L 13.857 9.047" />
  <path d="M 14.895 7.811 C15.527 7.057 15.431 6.111 15.011 5.474" />
  <path d="M 14.923 3.303 L 14.5 4.5" />
  <path d="M 15.011 5.474 A2 2 0 0 0 12.868 4.577" />
  <path d="M 17.081 2.371 A1.67 1.67 0 0 0 14.923 3.303" />
  <path d="M 18 11 L 20.377 5.466" />
  <path d="M 19.444 3.308 L 17.081 2.371" />
  <path d="M 20.377 5.466 A1.67 1.67 0 0 0 19.444 3.308" />
  <path d="M 4.237 10.235 L 5.892 10.913" />
  <path d="M 4.427 6.478 A2 2 0 0 0 4.237 10.235" />
  <path d="M 6.152 6.053 L 4.427 6.478" />
  <path d="M 6.296 4.135 L 6.152 6.053" />
  <path d="M 9.922 3.386 A2 2 0 0 0 6.296 4.135" />
  <path d="M10.766 14.627h3.138" />
  <rect x="2" y="10.998" width="20" height="10.5" rx="3" />
</svg>
