<svg
  xmlns="http://www.w3.org/2000/svg"
  width="24"
  height="24"
  viewBox="0 0 24 24"
  fill="none"
  stroke="currentColor"
  stroke-width="2"
  stroke-linecap="round"
  stroke-linejoin="round"
>
  <path d="M9.81 1.49c-1.58-.4-3.14-.59-4.78-.13-3.31.95-5.21 5.05-3.22 8.46 1.21 2.06 1.96 4.23 2.47 6.53.17.77.47 1.51.62 2.28.07.36.3.6.47.85.37.54.97.82 1.6.65.82-.23 1.12-.96 1.18-1.72.08-1.05 0-2.1.22-3.15.22-1.03.3-2.09.45-3.14.07-.49.39-.66.87-.66s.8.16.87.66c.24 1.84.68 3.66.65 5.53v.43c.03 1.11.55 1.93 1.3 2.06.78.14 1.57-.48 1.95-1.52.59-1.59.85-3.26 1.29-4.88.34-1.26.96-2.37 1.62-3.48 2.06-3.45.8-7.32-2.39-8.65-1.64-.69-3.37-.89-5.09-.13" />
</svg>
