<svg
  xmlns="http://www.w3.org/2000/svg"
  width="24"
  height="24"
  viewBox="0 0 24 24"
  fill="none"
  stroke="currentColor"
  stroke-width="2"
  stroke-linecap="round"
  stroke-linejoin="round"
>
  <path d="M7.391 3.127c-.842.17-1.539.652-2.055 1.504-1.01 1.65-1.084 4.644.242 7.104a2 2 0 0 1 .178.43c.452 1.676.914 5.046 1.583 7.71.4 1.596 1.691 1.265 1.94-.362.456-2.971 1.34-5.862 2.708-5.862 1.367 0 2.253 2.892 2.71 5.862.25 1.628 1.54 1.96 1.94.363.67-2.666 1.13-6.038 1.581-7.712a2 2 0 0 1 .178-.428c1.39-2.568 1.258-5.452.241-7.11q-.782-1.274-2.057-1.501c-.712-.122-1.497.02-2.302.414a5.34 5.34 0 0 1-4.592-.001c-.619-.301-1.708-.53-2.295-.411" />
</svg>
