<svg
  xmlns="http://www.w3.org/2000/svg"
  width="17"
  height="20"
  viewBox="0 0 17 20"
  fill="none"
  stroke="currentColor"
  stroke-width="2"
  stroke-linecap="round"
  stroke-linejoin="round"
>
  <path d="M3.811 1.045c-.842.17-1.539.652-2.055 1.504C.746 4.2.672 7.193 1.998 9.653a2 2 0 0 1 .178.43c.452 1.676.914 5.046 1.583 7.71.4 1.596 1.691 1.265 1.94-.362.456-2.971 1.34-5.862 2.708-5.862 1.367 0 2.253 2.892 2.709 5.862.25 1.628 1.54 1.96 1.94.363.67-2.666 1.13-6.038 1.582-7.712a2 2 0 0 1 .178-.428c1.39-2.568 1.258-5.452.241-7.11Q14.274 1.271 13 1.043c-.712-.122-1.497.02-2.302.414a5.34 5.34 0 0 1-4.592 0c-.619-.302-1.708-.53-2.295-.412" />
</svg>
