<svg xmlns="http://www.w3.org/2000/svg" width="24" height="24" fill="none" viewBox="0 0 24 24">
  <path stroke="currentColor" stroke-width="2" d="M20.722 20.938c-4.822 1.416-12.622 1.416-17.444 0C2.494 20.708 2 19.964 2 19.146v-1.692c0-1.415 1.447-2.42 2.831-2.129 4.276.9 10.062.9 14.338 0 1.384-.291 2.831.714 2.831 2.13v1.69c0 .819-.494 1.562-1.278 1.793Z"/>
  <path stroke="currentColor" stroke-linecap="round" stroke-width="2" d="M6 15V4.854c0-.818.497-1.56 1.265-1.84 3.713-1.352 5.757-1.352 9.47 0A1.948 1.948 0 0 1 18 4.854V15"/>
</svg>
