<svg
  xmlns="http://www.w3.org/2000/svg"
  width="24"
  height="24"
  viewBox="0 0 24 24"
  fill="none"
  stroke="currentColor"
  stroke-width="2"
  stroke-linecap="round"
  stroke-linejoin="round"
>
  <path d="M14.377 5c.764 2.673-5.524 2.673-4.744 0" />
  <path d="M15.686 9.5c.97 3.333-8.347 3.333-7.375 0" />
  <path d="M17 14c1.167 4-11.167 4-10 0l3.08-10.56a2 2 0 0 1 3.84 0z" />
  <path d="M6.974 14.09 2.6 16.08a1 1 0 0 0 0 1.83l8.58 3.91a2 2 0 0 0 1.66 0l8.58-3.9a1 1 0 0 0 0-1.83l-4.393-2" />
</svg>
