<svg
  xmlns="http://www.w3.org/2000/svg"
  width="24"
  height="24"
  viewBox="0 0 24 24"
  fill="none"
  stroke="currentColor"
  stroke-width="2"
  stroke-linecap="round"
  stroke-linejoin="round"
>
  <path d="M10.11 3.346a2 2 0 0 1 3.78 0L16.93 13.5a5 3 0 0 1-9.86 0z" />
  <path d="m16.576 12.316 4.917 2.815a1 1 0 0 1 0 1.738L13 21.733a2 2 0 0 1-1.998 0l-8.494-4.864a.999.999 0 0 1 0-1.738l4.917-2.815" />
  <path d="M8.087 10.1a4 2.4 0 0 0 7.826 0" />
  <path d="M9.314 6.002a3 1.8 0 0 0 5.372 0" />
</svg>
