<svg
  xmlns="http://www.w3.org/2000/svg"
  width="24"
  height="24"
  viewBox="0 0 24 24"
  fill="none"
  stroke="currentColor"
  stroke-width="2"
  stroke-linecap="round"
  stroke-linejoin="round"
>
  <path d="M10 12h10a2 2 0 0 1 2 2v4a2 2 0 0 1-2 2h-8a2 2 0 0 1-2-2V6a2 2 0 0 0-2-2H4a2 2 0 0 0-2 2v1a2 2 0 0 0 2 2h6" />
  <path d="M10 18a2 2 0 0 1-2 2H4a2 2 0 0 1-2-2v-1a2 2 0 0 1 2-2h6" />
  <path d="M20 12a2 2 0 0 0 2-2V6a2 2 0 0 0-2-2h-8a2 2 0 0 0-2 2" />
  <path d="M4 9a2 2 0 0 0-2 2v2a2 2 0 0 0 2 2" />
</svg>
