<svg
  xmlns="http://www.w3.org/2000/svg"
  width="24"
  height="24"
  viewBox="0 0 24 24"
  fill="none"
  stroke="currentColor"
  stroke-width="2"
  stroke-linecap="round"
  stroke-linejoin="round"
>
  <path d="M 12 19 L 8 19" />
  <path d="M 15 6 L 15 6.04" />
  <path d="M 15 6.04 A3.5 3.5 0 0 1 18.24 11.69" />
  <path d="M 19 16 L 19 22" />
  <path d="M 22 19 L 16 19" />
  <path d="M 5.76 11.68 A3.5 3.5 0 0 1 9 6.03" />
  <path d="M 8 19 A4 4 0 0 1 5.76 11.68" />
  <path d="M 9 6 A3 3 0 1 1 15 6" />
  <path d="M 9 6.03 L 9 6" />
  <path d="M12 19v3" />
</svg>
