<svg
  xmlns="http://www.w3.org/2000/svg"
  width="24"
  height="24"
  viewBox="0 0 24 24"
  fill="none"
  stroke="currentColor"
  stroke-width="2"
  stroke-linecap="round"
  stroke-linejoin="round"
  >
    <path d="m8.1025 7.7429c-0.70165 1.2153-1 1.7321-1 1.7321" />
    <path d="m5.1359 12.952c-0.70165 1.2153-1 1.7321-1 1.7321" />
    <path d="m4.0056 21.006a2.007 2.0058 0 0 1-1.6983-0.91565 2.007 2.0058 0 0 1-0.1409-1.9233" />
    <path d="m8 21c1.4033 1e-5 2 0 2 0" />
    <path d="m14 21c1.4033 1e-5 2 0 2 0" />
    <path d="m21.824 18.18a2.0224 2.0034 0 0 1-0.14455 1.9047 2.0224 2.0034 0 0 1-1.6904 0.91897" />
    <path d="m18.849 12.952c0.70163 1.2153 1 1.732 1 1.732" />
    <path d="m15.874 7.7429c0.70163 1.2153 1 1.732 1 1.732" />
    <path d="m10.17 4.1795a2.0036 2.0115 0 0 1 1.8374-1.1923 2.0036 2.0115 0 0 1 1.8285 1.206" />
</svg>
