<svg
  xmlns="http://www.w3.org/2000/svg"
  width="24"
  height="24"
  viewBox="0 0 24 24"
  fill="none"
  stroke="currentColor"
  stroke-width="2"
  stroke-linecap="round"
  stroke-linejoin="round"
>
  <path d="M10.17 4.18a2.004 2.011 0 0 1 1.837-1.193 2.004 2.011 0 0 1 1.829 1.206" />
  <path d="M14 21h2" />
  <path d="m15.874 7.743 1 1.732" />
  <path d="m18.849 12.952 1 1.732" />
  <path d="M21.824 18.18a2.022 2.003 0 0 1-.145 1.905 2.022 2.003 0 0 1-1.69.919" />
  <path d="M4.006 21.006a2.007 2.006 0 0 1-1.699-.916 2.007 2.006 0 0 1-.14-1.923" />
  <path d="m5.136 12.952-1 1.732" />
  <path d="M8 21h2" />
  <path d="m8.102 7.743-1 1.732" />
</svg>
