<svg
  xmlns="http://www.w3.org/2000/svg"
  width="24"
  height="24"
  viewBox="0 0 24 24"
  fill="none"
  stroke="currentColor"
  stroke-width="2"
  stroke-linecap="round"
  stroke-linejoin="round"
>
  <path d="M14 18V6a2 2 0 0 0-2-2" />
  <path d="M15 18H9" />
  <path d="M19 18h2a1 1 0 0 0 1-1v-3.65a1 1 0 0 0-.22-.62L18.3 8.38a1 1 0 0 0-.78-.38H14" />
  <path d="M3 4.267A2 2 0 0 0 2 6v11a1 1 0 0 0 1 1h2" />
  <path d="M8.07 4 6.58 6.22A.5.5 0 0 0 7 7h2.13a.5.5 0 0 1 .42.78L8.07 10" />
  <circle cx="17" cy="18" r="2" />
  <circle cx="7" cy="18" r="2" />
</svg>
