<svg
  xmlns="http://www.w3.org/2000/svg"
  width="24"
  height="24"
  viewBox="0 0 24 24"
  fill="none"
  stroke="currentColor"
  stroke-width="2"
  stroke-linecap="round"
  stroke-linejoin="round"
>
  <path d="M 1 25 L 25 25" />
  <path d="M 25 1 L 25 1" />
  <path d="M 25 25 L 25 1" />
  <path d="M12.87 13.49H12.87C13.7 13.49 14.52 13.49 15.35 13.49C15.42 13.49 15.42 13.49 15.42 13.42C15.42 13.14 15.42 12.86 15.42 12.57C15.42 12.52 15.4 12.51 15.36 12.51C15.1 12.51 14.84 12.51 14.58 12.51C13.19 12.51 11.8 12.51 10.41 12.51C10.34 12.51 10.34 12.51 10.34 12.58C10.34 12.86 10.34 13.15 10.34 13.43C10.34 13.47 10.35 13.48 10.39 13.48C11.22 13.48 12.05 13.48 12.87 13.48" />
  <path d="M15.31 11.54S15.31 11.52 15.31 11.51C15.26 11.3 15.22 11.1 15.16 10.89C15.07 10.56 14.93 10.26 14.75 9.97C14.56 9.66 14.31 9.41 14.02 9.2C13.75 9.01 13.45 8.88 13.13 8.79C12.75 8.68 12.35 8.63 11.95 8.63C11.43 8.63 10.9 8.63 10.38 8.63C10.33 8.63 10.32 8.64 10.32 8.69C10.32 9.62 10.32 10.56 10.32 11.49C10.32 11.53 10.33 11.54 10.38 11.54C12 11.54 13.62 11.54 15.25 11.54C15.27 11.54 15.29 11.54 15.31 11.54" />
  <path d="M15.31 14.46H15.2C13.6 14.46 11.99 14.46 10.39 14.46C10.35 14.46 10.33 14.46 10.33 14.52C10.33 15.45 10.33 16.38 10.33 17.31C10.33 17.37 10.33 17.37 10.39 17.37C10.86 17.37 11.33 17.37 11.8 17.37C12.14 17.37 12.48 17.33 12.82 17.26C13.11 17.2 13.4 17.1 13.67 16.97C13.87 16.87 14.05 16.75 14.22 16.6C14.4 16.44 14.56 16.26 14.7 16.07C14.86 15.83 14.99 15.57 15.09 15.3C15.14 15.14 15.19 14.98 15.23 14.82C15.26 14.71 15.28 14.59 15.31 14.46" />
  <path d="M8.4 17.85C8.45 17.79 8.49 17.74 8.53 17.68C8.64 17.53 8.7 17.36 8.75 17.19C8.84 16.88 8.87 16.57 8.87 16.25C8.87 15.67 8.87 15.09 8.87 14.51V14.46S8.83 14.46 8.81 14.46C8.64 14.46 8.47 14.46 8.31 14.46C7.98 14.46 7.74 14.31 7.58 14.03C7.47 13.85 7.42 13.65 7.42 13.44C7.42 13.37 7.42 13.3 7.42 13.22C7.44 13.24 7.46 13.26 7.48 13.27C7.59 13.38 7.71 13.45 7.86 13.48C7.89 13.48 7.93 13.48 7.96 13.48C8.25 13.48 8.53 13.48 8.82 13.48C8.83 13.48 8.85 13.48 8.86 13.48C8.86 13.46 8.86 13.45 8.86 13.43C8.86 13.14 8.86 12.85 8.86 12.56C8.86 12.52 8.85 12.51 8.81 12.51C8.64 12.51 8.46 12.51 8.29 12.51C8.01 12.51 7.79 12.39 7.63 12.17C7.48 11.97 7.42 11.75 7.42 11.51C7.42 11.43 7.42 11.36 7.42 11.27C7.46 11.3 7.49 11.33 7.52 11.36C7.64 11.47 7.79 11.54 7.95 11.54C8.25 11.54 8.54 11.54 8.84 11.54C8.84 11.54 8.86 11.54 8.87 11.54C8.87 11.53 8.87 11.51 8.87 11.5C8.87 10.88 8.87 10.25 8.87 9.63C8.87 9.24 8.79 8.85 8.62 8.49C8.57 8.37 8.5 8.26 8.41 8.17C8.41 8.17 8.41 8.16 8.39 8.15C8.4 8.15 8.41 8.15 8.42 8.15C9.65 8.15 10.88 8.15 12.11 8.15C12.5 8.15 12.88 8.19 13.27 8.26C13.7 8.33 14.12 8.45 14.53 8.63C14.9 8.79 15.24 8.99 15.55 9.24C15.86 9.49 16.13 9.78 16.35 10.12C16.5 10.34 16.62 10.58 16.73 10.83C16.82 11.05 16.9 11.28 16.95 11.52C16.95 11.56 16.98 11.56 17.01 11.56C17.24 11.56 17.47 11.56 17.69 11.56C18.01 11.56 18.24 11.71 18.41 11.97C18.53 12.15 18.58 12.35 18.57 12.57C18.57 12.64 18.57 12.72 18.57 12.8C18.51 12.75 18.46 12.7 18.41 12.66C18.3 12.58 18.18 12.53 18.05 12.53C17.74 12.53 17.43 12.53 17.13 12.53C17.13 12.53 17.13 12.53 17.11 12.53V13.5S17.14 13.5 17.16 13.5C17.34 13.5 17.52 13.5 17.71 13.5C17.98 13.5 18.19 13.62 18.35 13.83C18.51 14.03 18.57 14.26 18.57 14.51C18.57 14.59 18.57 14.66 18.57 14.75C18.53 14.72 18.5 14.69 18.47 14.66C18.33 14.53 18.17 14.47 17.98 14.47C17.66 14.47 17.33 14.47 17.01 14.47C16.97 14.47 16.95 14.48 16.94 14.52C16.86 14.85 16.75 15.18 16.6 15.48C16.45 15.78 16.27 16.07 16.05 16.32C15.87 16.53 15.67 16.71 15.45 16.88C15.09 17.15 14.7 17.35 14.27 17.5C13.94 17.62 13.6 17.7 13.25 17.76C12.81 17.83 12.37 17.86 11.93 17.86C10.77 17.86 9.61 17.86 8.44 17.86H8.39" />
</svg>
