<svg
  xmlns="http://www.w3.org/2000/svg"
  width="24"
  height="24"
  viewBox="0 0 24 24"
  fill="none"
  stroke="currentColor"
  stroke-width="2"
  stroke-linecap="round"
  stroke-linejoin="round"
>
  <path d="M12 13v7a2 2 0 0 0 4 0" />
  <path d="M12 2v2" />
  <path d="M4.3 13.528a3 3 0 0 1 3.478.056 2 2 0 0 0 2.442.001 3 3 0 0 1 3.558-.001 2 2 0 0 0 2.442.001 3 3 0 0 1 3.6.03l.221.126c.3.17.65.287.975.168.573-.211.97-.764.873-1.404a10 10 0 0 0-19.778.001c-.095.633.291 1.18.854 1.397.334.128.697.002 1.005-.18z" />
</svg>
