<svg
  xmlns="http://www.w3.org/2000/svg"
  width="24"
  height="24"
  viewBox="0 0 24 24"
  fill="none"
  stroke="currentColor"
  stroke-width="2"
  stroke-linecap="round"
  stroke-linejoin="round"
>
  <path d="M12 10h.01" />
  <path d="M14 22v-5a2 2 0 1 0-4 0v5" />
  <path d="M18 13h.01" />
  <path d="M18 17h.01" />
  <path d="M3 8a1 1 0 0 0-1 1v11a2 2 0 0 0 2 2h16a2 2 0 0 0 2-2V9a1 1 0 0 0-1-1h-2.394a2 2 0 0 1-1.11-.336L12.555 4.37a1 1 0 0 0-1.11 0L6.504 7.664A2 2 0 0 1 5.394 8z" />
  <path d="M6 13h.01" />
  <path d="M6 17h.01" />
</svg>
