<svg
  xmlns="http://www.w3.org/2000/svg"
  width="24"
  height="24"
  viewBox="0 0 24 24"
  fill="none"
  stroke="currentColor"
  stroke-width="2"
  stroke-linecap="round"
  stroke-linejoin="round"
>
  <path d="m3.7 17.7 2.6 2.6a2.4 2.4 0 0 0 3.4 0L12 18l-6-6-2.3 2.3a2.41 2.41 0 0 0 0 3.4Z" />
  <line x1="2" x2="5" y1="22" y2="19" />
  <path d="M7.5 13.5 10 11" />
  <path d="M10.5 16.5 13 14" />
  <line x1="19" x2="22" y1="5" y2="2" />
  <path d="m12 6 6 6 2.3-2.3a2.4 2.4 0 0 0 0-3.4l-2.6-2.6a2.41 2.41 0 0 0-3.4 0L12 6Z" />
</svg>
