<svg
  xmlns="http://www.w3.org/2000/svg"
  width="24"
  height="24"
  viewBox="0 0 24 24"
  fill="none"
  stroke="currentColor"
  stroke-width="2"
  stroke-linecap="round"
  stroke-linejoin="round"
>
  <path d="m10 14 3.7 2.22a2 2 0 0 0 2.4-.26l1.3-1.22" />
  <path d="M18 12a.857.857 0 0 1 1.22 0l.93.93a.857.857 0 0 1 0 1.22l-.93.93a.857.857 0 0 1-1.22 0l-.93-.93a.857.857 0 0 1 0-1.22z" />
  <path d="m21 3-5 2 3 3z" />
  <path d="M6 18 17 7" />
  <path d="m8 8-2.13 2.13a2 2 0 0 0-.48 2.05L7 17.01" />
  <circle cx="4.5" cy="19.5" r="1.5" />
  <circle cx="9.5" cy="6.5" r="1.5" />
</svg>
