<svg
  xmlns="http://www.w3.org/2000/svg"
  width="24"
  height="24"
  viewBox="0 0 24 24"
  fill="none"
  stroke="currentColor"
  stroke-width="2"
  stroke-linecap="round"
  stroke-linejoin="round"
>
  <path d="m19.595 17.983.245 1.55a1 1 0 0 1-1.442 1.047L17 19.87l-1.399.71a1 1 0 0 1-1.44-1.046l.244-1.55-1.11-1.11a1 1 0 0 1 .551-1.694l1.55-.247.714-1.398a1 1 0 0 1 1.78.009l.714 1.388 1.55.247a1 1 0 0 1 .55 1.694z" />
  <path d="M3 21v-2a4 4 0 0 1 4-4h2.141" />
  <circle cx="10" cy="7" r="4" />
</svg>
