<svg
  xmlns="http://www.w3.org/2000/svg"
  width="24"
  height="24"
  viewBox="0 0 24 24"
  fill="none"
  stroke="currentColor"
  stroke-width="2"
  stroke-linecap="round"
  stroke-linejoin="round"
>
  <path d="M20 20h1a1 1 0 0 0 1-1v-3c0-1.5-.5-2-1.5-2" />
  <path d="M4 20H3a1 1 0 0 1-1-1v-3c0-1.5.5-2 1.5-2" />
  <path d="M8 16c0-3 1.239-4 4-4s4 1 4 4v4a2 2 0 0 1-2 2h-4a2 2 0 0 1-2-2z" />
  <circle cx="12" cy="5" r="3" />
  <circle cx="19.75" cy="8.5" r="1.5" />
  <circle cx="4.25" cy="8.5" r="1.5" />
</svg>
