<svg
  xmlns="http://www.w3.org/2000/svg"
  width="24"
  height="24"
  viewBox="0 0 24 24"
  fill="none"
  stroke="currentColor"
  stroke-width="2"
  stroke-linecap="round"
  stroke-linejoin="round"
>
  <path d="M10.3 15H7a4 4 0 0 0-4 4v2" />
  <path d="M17.272 14.33a.187.187 0 0 1 .336 0l.816 1.654a.75.75 0 0 0 .564.41l1.825.267a.187.187 0 0 1 .104.32l-1.32 1.285a.75.75 0 0 0-.216.664l.312 1.816a.187.187 0 0 1-.273.198l-1.631-.858a.75.75 0 0 0-.698 0l-1.631.858a.187.187 0 0 1-.272-.198l.311-1.816a.75.75 0 0 0-.216-.664l-1.32-1.285a.187.187 0 0 1 .104-.32l1.825-.267a.75.75 0 0 0 .564-.41z" />
  <circle cx="10" cy="7" r="4" />
</svg>
