<svg
  xmlns="http://www.w3.org/2000/svg"
  width="24"
  height="24"
  viewBox="0 0 24 24"
  fill="none"
  stroke="currentColor"
  stroke-width="2"
  stroke-linecap="round"
  stroke-linejoin="round"
>
  <path d="M2 21a8 8 0 0 1 9.917-7.766" />
  <path d="m20.595 18.983.245 1.55a1 1 0 0 1-1.442 1.047L18 20.87l-1.399.711a1 1 0 0 1-1.44-1.047l.244-1.55-1.11-1.11a1 1 0 0 1 .551-1.694l1.55-.247.714-1.398a1 1 0 0 1 1.78.009l.714 1.388 1.55.247a1 1 0 0 1 .55 1.694z" />
  <circle cx="10" cy="8" r="5" />
</svg>
