<svg
  xmlns="http://www.w3.org/2000/svg"
  width="24"
  height="24"
  viewBox="0 0 24 24"
  fill="none"
  stroke="currentColor"
  stroke-width="2"
  stroke-linecap="round"
  stroke-linejoin="round"
>
  <path d="M12 9.813v4.204" />
  <path d="M3.03 11.179c-.58.042-1.03.51-1.03 1.072v8.615c0 .829.928 1.346 1.67.932l7.792-4.307c.257-.143.803-.152 1.076 0l7.792 4.307c.742.414 1.67-.103 1.67-.932v-8.615c0-.828-.928-1.346-1.67-.931l-7.792 4.307c-.26.145-.88.11-1.076 0L3.67 11.32a1.14 1.14 0 0 0-.64-.141" />
  <path d="M5.5 8.792c0-2.452 1.239-4.718 3.25-5.944a6.2 6.2 0 0 1 6.5 0c2.011 1.226 3.25 3.492 3.25 5.944z" />
</svg>