<svg
  xmlns="http://www.w3.org/2000/svg"
  width="24"
  height="24"
  viewBox="0 0 24 24"
  fill="none"
  stroke="currentColor"
  stroke-width="2"
  stroke-linecap="round"
  stroke-linejoin="round"
>
  <path d="M14 5v7" />
  <path d="M2 12h19.928" />
  <path d="M4 17a2 2 0 1 0 2-2 2 2 0 0 0-2 2 2 2 0 0 1-2-2V8.2c0-1.12 0-1.68.218-2.108a2 2 0 0 1 .874-.874C3.52 5 4.08 5 5.2 5h10.943c.676 0 1.014 0 1.317.099a2 2 0 0 1 .722.419c.236.213.404.507.74 1.094l2.656 4.65a4 4 0 0 1 .291.558 2 2 0 0 1 .107.4 4 4 0 0 1 .024.63V15a2 2 0 0 1-2 2" />
  <path d="M8 17h8" />
  <path d="M8 5v7" />
  <circle cx="18" cy="17" r="2" />
</svg>