<svg
  xmlns="http://www.w3.org/2000/svg"
  width="24"
  height="24"
  viewBox="0 0 24 24"
  fill="none"
  stroke="currentColor"
  stroke-width="2"
  stroke-linecap="round"
  stroke-linejoin="round"
>
  <path d="M17.023 19.305C15.828 19.811 14.197 20 12 20s-3.828-.189-5.023-.695" />
  <path d="M17.023 4.695C15.828 4.189 14.197 4 12 4s-3.828.189-5.023.695" />
  <path d="M19.305 6.977C19.812 8.172 20 9.803 20 12s-.188 3.828-.695 5.023" />
  <path d="M4.695 17.023C4.189 15.828 4 14.197 4 12s.189-3.828.695-5.023" />
  <circle cx="19" cy="19" r="2" />
  <circle cx="19" cy="5" r="2" />
  <circle cx="5" cy="19" r="2" />
  <circle cx="5" cy="5" r="2" />
</svg>
