<svg
  xmlns="http://www.w3.org/2000/svg"
  width="24"
  height="24"
  viewBox="0 0 24 24"
  fill="none"
  stroke="currentColor"
  stroke-width="2"
  stroke-linecap="round"
  stroke-linejoin="round"
>
  <path d="M11.997 3a3.599 3.599 0 00-3.044 1.682 3.599 3.599 0 00-.908-.095 3.599 3.599 0 00-2.411 1.051 3.6 3.6 0 00-.947 3.318A3.6 3.6 0 003 12.004a3.6 3.6 0 001.69 3.047 3.6 3.6 0 00.947 3.315 3.599 3.599 0 003.352.96A3.599 3.599 0 0012.002 21a3.599 3.599 0 003.037-1.671 3.599 3.599 0 004.295-4.297A3.6 3.6 0 0021 11.998a3.6 3.6 0 00-1.67-3.035v-.002a3.599 3.599 0 00-4.298-4.292A3.599 3.599 0 0011.997 3z" />
  <path d="M15 10l-4 4" />
  <path d="M9 12l2 2" />
</svg>
