<svg
  xmlns="http://www.w3.org/2000/svg"
  width="24"
  height="24"
  viewBox="0 0 24 24"
  fill="none"
  stroke="currentColor"
  stroke-width="2"
  stroke-linecap="round"
  stroke-linejoin="round"
>
  <path d="M11.682 6.008a6 6 0 0 1 6.31 6.31" />
  <path d="M12 18v4" />
  <path d="M12 2v4" />
  <path d="M14 22h-4" />
  <path d="M14 2h-4" />
  <path d="M16.243 16.243a6 6 0 0 1-8.486-8.486" />
  <path d="m19.071 19.071-1.414 1.414" />
  <path d="m19.071 4.929-2.828 2.828" />
  <path d="M2 14v-4" />
  <path d="m2 2 20 20" />
  <path d="m20.485 6.343-2.828-2.828" />
  <path d="M22 12h-4" />
  <path d="M22 14v-4" />
  <path d="M4.929 4.929 3.515 6.343" />
  <path d="M6 12H2" />
  <path d="m6.343 20.485-2.828-2.828" />
  <path d="M7.757 16.243 4.93 19.07" />
</svg>
