<svg
  xmlns="http://www.w3.org/2000/svg"
  width="24"
  height="24"
  viewBox="0 0 24 24"
  fill="none"
  stroke="currentColor"
  stroke-width="2"
  stroke-linecap="round"
  stroke-linejoin="round"
>
  <path d="M21.64 3.64a1.2 1.2 0 0 1 0 1.72L5.36 21.64a1.2 1.2 0 0 1-1.72 0l-1.28-1.28a1.21 1.21 0 0 1 0-1.72L18.64 2.36a1.21 1.21 0 0 1 1.72 0Z" />
  <path d="m14 7 3 3" />
  <path d="M5 6v4" />
  <path d="M19 14v4" />
  <path d="M10 2v2" />
  <path d="M7 8H3" />
  <path d="M21 16h-4" />
  <path d="M11 3H9" />
</svg>