<svg
  xmlns="http://www.w3.org/2000/svg"
  width="24"
  height="24"
  viewBox="0 0 24 24"
  fill="none"
  stroke="currentColor"
  stroke-width="2"
  stroke-linecap="round"
  stroke-linejoin="round"
>
  <path d="M2 6h4m16 0h-4" />
  <path d="M6 18V7a2 2 0 0 1 2-2h8a2 2 0 0 1 2 2v11" />
  <path d="M2 19c.538-.013 1.077-.179 1.615-.5 1.118-.667 2.236-.667 3.354 0 1.118.667 2.236.667 3.354 0 1.118-.667 2.236-.667 3.354 0 1.118.667 2.236.667 3.354 0 1.118-.667 2.236-.667 3.354 0 .538.321 1.077.487 1.615.5" />
</svg>
