<svg
  xmlns="http://www.w3.org/2000/svg"
  width="24"
  height="24"
  viewBox="0 0 24 24"
  fill="none"
  stroke="currentColor"
  stroke-width="2"
  stroke-linecap="round"
  stroke-linejoin="round"
>
  <path d="M12 22v-4" />
  <path d="M12.86 12.86A3 3 0 0 1 12 13a3 3 0 0 1-3-3 3 3 0 0 1 .14-.86" />
  <path d="M14.89 9.23a3 3 0 0 0-2.12-2.12" />
  <path d="M19.18 13.52A8 8 0 0 0 12 2a8 8 0 0 0-3.52.82" />
  <path d="m2 2 20 20" />
  <path d="M5.44 5.44A8 8 0 0 0 4 10a8 8 0 0 0 8 8 7.87 7.87 0 0 0 4.56-1.44" />
  <path d="M7 22h10" />
</svg>
