<?xml version="1.0" encoding="UTF-8"?>
<svg id="Flat" width="24" height="24" fill="#000000" version="1.1" viewBox="0 0 7.68 7.68"
  xmlns="http://www.w3.org/2000/svg">
  <path d="m3.84 0.51149a3.519 3.3291 0 0 0-3.0567 4.9771l-0.31679 1.049a0.42216 0.39938 0 0 0 0.52191 0.49372l1.1088-0.29968a3.5184 3.3285 0 1 0 1.7428-6.2201zm0 6.3903a3.2321 3.0577 0 0 1-1.6518-0.42826 0.14055 0.13296 0 0 0-0.11059-0.013583l-1.1665 0.31531a0.14072 0.13312 0 0 1-0.17395-0.16459l0.33326-1.1035a0.14076 0.13317 0 0 0-0.014358-0.10463 3.237 3.0624 0 1 1 2.784 1.4993zm1.777-2.4449-0.71979-0.38912a0.42255 0.39975 0 0 0-0.42666 0.0043l-0.48573 0.27572a1.5494 1.4658 0 0 1-0.68189-0.64512l0.29143-0.45952a0.42255 0.39975 0 0 0 0.00456-0.40362l-0.41131-0.68097a0.38403 0.36331 0 0 0-0.33273-0.18266 1.1261 1.0653 0 0 0-1.1258 1.0611 2.9553 2.7958 0 0 0 2.9552 2.7997h0.00422a1.1261 1.0653 0 0 0 1.1216-1.0651 0.38393 0.36322 0 0 0-0.19308-0.31476zm-0.92892 1.1135h-0.00383a2.6738 2.5295 0 0 1-2.6737-2.5331 0.84424 0.79869 0 0 1 0.84435-0.79521 0.10202 0.096512 0 0 1 0.088365 0.048494l0.4113 0.681a0.14087 0.13327 0 0 1-0.00154 0.13453l-0.33033 0.52082a0.14068 0.13309 0 0 0-0.00765 0.12309 1.8309 1.7321 0 0 0 0.91969 0.87007 0.14062 0.13303 0 0 0 0.13013-0.00728l0.5505-0.31249a0.14094 0.13333 0 0 1 0.14224-0.00146l0.71982 0.38915a0.10192 0.096424 0 0 1 0.051244 0.083563 0.84425 0.7987 0 0 1-0.84055 0.79879z" fill="#000"/>
</svg>
