<svg
  xmlns="http://www.w3.org/2000/svg"
  width="24"
  height="24"
  viewBox="0 0 24 24"
  fill="none"
  stroke="currentColor"
  stroke-width="2"
  stroke-linecap="round"
  stroke-linejoin="round"
>
  <path d="M12.04 20.15A8.26 8.26 0 0 1 7.84 19l-.3-.18-3.12.82.83-3.04-.2-.31a8.26 8.26 0 0 1-1.26-4.38c0-4.54 3.7-8.24 8.24-8.24a8.15 8.15 0 0 1 8.23 8.25c.02 4.54-3.68 8.23-8.22 8.23" />
  <path d="M16.56 13.99a83 83 0 0 0-1.69-.81c-.23-.08-.39-.12-.56.12a16 16 0 0 1-.78.97c-.14.17-.29.19-.54.06-.25-.12-1.05-.39-1.99-1.23-.74-.66-1.23-1.47-1.38-1.72-.14-.25-.02-.38.11-.51a9 9 0 0 0 .37-.43 1.7 1.7 0 0 0 .25-.41.46.46 0 0 0-.02-.43 82 82 0 0 1-.76-1.84c-.2-.48-.41-.42-.56-.43h-.48a.9.9 0 0 0-.66.31c-.22.25-.86.85-.86 2.07s.89 2.4 1.01 2.56c.12.17 1.75 2.67 4.23 3.74a12 12 0 0 0 1.41.52c.59.19 1.13.16 1.56.1.48-.07 1.47-.6 1.67-1.18.21-.58.21-1.07.14-1.18s-.22-.16-.47-.28" />
  <path d="M21.95 11.92A9.85 9.85 0 0 0 12.04 2c-5.46 0-9.91 4.45-9.91 9.91a10 10 0 0 0 1.32 4.95L2.05 22l5.25-1.38a10 10 0 0 0 4.74 1.21c5.46 0 9.91-4.45 9.91-9.91" />
</svg>
