<?xml version="1.0" encoding="UTF-8"?>
<svg id="Flat" width="24" height="24" fill="#000000" version="1.1" viewBox="0 0 7.68 7.68"
  xmlns="http://www.w3.org/2000/svg">
  <path d="m2.855 2.2425a0.84424 0.79869 0 0 0-0.21812 0.026875 0.84424 0.79869 0 0 0-0.20312 0.079375 0.84424 0.79869 0 0 0-0.17438 0.12625 0.84424 0.79869 0 0 0-0.13438 0.16438 0.84424 0.79869 0 0 0-0.085 0.19188 0.84424 0.79869 0 0 0-0.029375 0.20625 2.6738 2.5295 0 0 0 0.0325 0.39625 2.6738 2.5295 0 0 0 0.0975 0.38625 2.6738 2.5295 0 0 0 0.16 0.36688 2.6738 2.5295 0 0 0 0.21938 0.33938 2.6738 2.5295 0 0 0 0.2725 0.30188 2.6738 2.5295 0 0 0 0.31875 0.25812 2.6738 2.5295 0 0 0 0.35812 0.20812 2.6738 2.5295 0 0 0 0.38812 0.15188 2.6738 2.5295 0 0 0 0.40812 0.093125 2.6738 2.5295 0 0 0 0.41875 0.03125h0.00375a0.84425 0.7987 0 0 0 0.0825-0.004375 0.84425 0.7987 0 0 0 0.081875-0.011875 0.84425 0.7987 0 0 0 0.08-0.019375 0.84425 0.7987 0 0 0 0.0775-0.02625 0.84425 0.7987 0 0 0 0.074375-0.03375 0.84425 0.7987 0 0 0 0.07125-0.040625 0.84425 0.7987 0 0 0 0.06625-0.04625 0.84425 0.7987 0 0 0 0.060625-0.053125 0.84425 0.7987 0 0 0 0.055625-0.0575 0.84425 0.7987 0 0 0 0.049375-0.063125 0.84425 0.7987 0 0 0 0.041875-0.066875 0.84425 0.7987 0 0 0 0.035625-0.07125 0.84425 0.7987 0 0 0 0.0275-0.073125 0.84425 0.7987 0 0 0 0.02-0.07625 0.84425 0.7987 0 0 0 0.011875-0.076875 0.84425 0.7987 0 0 0 0.004375-0.078125 0.10192 0.096424 0 0 0-0.01375-0.04875 0.10192 0.096424 0 0 0-0.0375-0.035l-0.72-0.38938a0.14094 0.13333 0 0 0-0.07125-0.0175 0.14094 0.13333 0 0 0-0.070625 0.019375l-0.55062 0.3125a0.14062 0.13303 0 0 1-0.064375 0.01875 0.14062 0.13303 0 0 1-0.065625-0.011875 1.8309 1.7321 0 0 1-0.28938-0.15375 1.8309 1.7321 0 0 1-0.255-0.20125 1.8309 1.7321 0 0 1-0.2125-0.24125 1.8309 1.7321 0 0 1-0.16312-0.27375 0.14068 0.13309 0 0 1-0.011875-0.0625 0.14068 0.13309 0 0 1 0.019375-0.060625l0.33062-0.52062a0.14087 0.13327 0 0 0 0.008125-0.015625 0.14087 0.13327 0 0 0 0.00625-0.016875 0.14087 0.13327 0 0 0 0.004375-0.016875 0.14087 0.13327 0 0 0 0.00125-0.0175 0.14087 0.13327 0 0 0-0.00125-0.0175 0.14087 0.13327 0 0 0-0.003125-0.0175 0.14087 0.13327 0 0 0-0.00625-0.016875 0.14087 0.13327 0 0 0-0.008125-0.015625l-0.41125-0.68125a0.10202 0.096512 0 0 0-0.036875-0.035625 0.10202 0.096512 0 0 0-0.05125-0.0125z" stroke-linecap="round" stroke-linejoin="round" stroke-width=".0219"/>
  <path d="m3.84 0.51125a3.519 3.3291 0 0 0-0.48812 0.0325 3.519 3.3291 0 0 0-0.47938 0.09625 3.519 3.3291 0 0 0-0.46 0.15812 3.519 3.3291 0 0 0-0.4325 0.21688 3.519 3.3291 0 0 0-0.39625 0.27188 3.519 3.3291 0 0 0-0.35312 0.32062 3.519 3.3291 0 0 0-0.30188 0.36438 3.519 3.3291 0 0 0-0.24625 0.40062 3.519 3.3291 0 0 0-0.185 0.42875 3.519 3.3291 0 0 0-0.12 0.44875 3.519 3.3291 0 0 0-0.053125 0.46062 3.519 3.3291 0 0 0 0.015 0.46312 3.519 3.3291 0 0 0 0.083125 0.45625 3.519 3.3291 0 0 0 0.14875 0.44125 3.519 3.3291 0 0 0 0.21188 0.4175l-0.31688 1.0488a0.42216 0.39938 0 0 0-0.01125 0.16812 0.42216 0.39938 0 0 0 0.0625 0.15812 0.42216 0.39938 0 0 0 0.12625 0.11938 0.42216 0.39938 0 0 0 0.16688 0.059375 0.42216 0.39938 0 0 0 0.1775-0.01125l1.1088-0.29938a3.5184 3.3285 0 0 0 0.65312 0.27312 3.5184 3.3285 0 0 0 0.69812 0.14312 3.5184 3.3285 0 0 0 0.71438 0.00625 3.5184 3.3285 0 0 0 0.70062-0.13 3.5184 3.3285 0 0 0 0.65875-0.26062 3.5184 3.3285 0 0 0 0.58938-0.38188 3.5184 3.3285 0 0 0 0.49562-0.48625 3.5184 3.3285 0 0 0 0.38188-0.57062 3.5184 3.3285 0 0 0 0.25188-0.63188 3.5184 3.3285 0 0 0 0.11188-0.6675 3.5184 3.3285 0 0 0-0.0325-0.675 3.5184 3.3285 0 0 0-0.17625-0.65438 3.5184 3.3285 0 0 0-0.31188-0.6075 3.5184 3.3285 0 0 0-0.43562-0.53562 3.5184 3.3285 0 0 0-0.54062-0.44125 3.5184 3.3285 0 0 0-0.62438-0.32875 3.5184 3.3285 0 0 0-0.68062-0.20312 3.5184 3.3285 0 0 0-0.71062-0.06875zm0.46 0.29688a3.237 3.0624 0 0 1 2.06 1.1094 3.237 3.0624 0 0 1 0.70875 2.14 3.237 3.0624 0 0 1-1.0231 2.0231 3.237 3.0624 0 0 1-2.2056 0.82125 3.2321 3.0577 0 0 1-0.43188-0.0275 3.2321 3.0577 0 0 1-0.42438-0.08125 3.2321 3.0577 0 0 1-0.40938-0.13438 3.2321 3.0577 0 0 1-0.38625-0.185 0.14055 0.13296 0 0 0-0.05375-0.018125 0.14055 0.13296 0 0 0-0.056875 0.004375l-1.1662 0.315a0.14072 0.13312 0 0 1-0.0975-0.00687 0.14072 0.13312 0 0 1-0.069375-0.065 0.14072 0.13312 0 0 1-0.0075-0.0925l0.33375-1.1038a0.14076 0.13317 0 0 0 0.00313-0.013125 0.14076 0.13317 0 0 0 0.00188-0.013125 0.14076 0.13317 0 0 0 0-0.01375 0.14076 0.13317 0 0 0-0.00126-0.013755 0.14076 0.13317 0 0 0-0.0025-0.013125 0.14076 0.13317 0 0 0-0.00375-0.013125 0.14076 0.13317 0 0 0-0.005625-0.0125 0.14076 0.13317 0 0 0-0.00625-0.011875 3.237 3.0624 0 0 1-0.38-2.2138 3.237 3.0624 0 0 1 1.3169-1.8644 3.237 3.0624 0 0 1 2.3069-0.51625z" stroke-linecap="round" stroke-linejoin="round" stroke-width=".0219"/>
</svg>
