<svg
  xmlns="http://www.w3.org/2000/svg"
  width="25"
  height="25"
  viewBox="0 0 25 25"
  fill="none"
  stroke="currentColor"
  stroke-width="2"
  stroke-linecap="round"
  stroke-linejoin="round"
>
  <path d="M11.609 9.587C11.412 9.488 10.439 9.009 10.256 8.941C10.074 8.876 9.941 8.842 9.811 9.04C9.678 9.237 9.298 9.686 9.184 9.815C9.07 9.948 8.952 9.963 8.754 9.865C8.557 9.765 7.918 9.557 7.162 8.88C6.572 8.355 6.177 7.705 6.059 7.508C5.945 7.31 6.048 7.204 6.147 7.105C6.234 7.017 6.344 6.873 6.443 6.759C6.543 6.645 6.576 6.561 6.641 6.429C6.706 6.295 6.675 6.181 6.626 6.082C6.576 5.983 6.181 5.006 6.014 4.612C5.854 4.223 5.691 4.277 5.569 4.272C5.455 4.265 5.322 4.265 5.189 4.265A0.73 0.73 0 0 0 4.66 4.512C4.478 4.71 3.969 5.189 3.969 6.166S4.679 8.082 4.779 8.215C4.877 8.348 6.173 10.347 8.162 11.207C8.632 11.412 9.002 11.533 9.291 11.625C9.766 11.777 10.195 11.754 10.537 11.705C10.917 11.647 11.708 11.225 11.875 10.762C12.039 10.298 12.039 9.902 11.989 9.819C11.94 9.735 11.807 9.686 11.609 9.587" />
  <path d="M13.601 2.326A7.85 7.85 0 0 0 7.994 0C3.627 0 0.068 3.558 0.064 7.926C0.064 9.325 0.43 10.686 1.121 11.891L0 16L4.204 14.898A7.9 7.9 0 0 0 7.994 15.863H7.998C12.366 15.863 15.924 12.305 15.928 7.933A7.9 7.9 0 0 0 13.6 2.326Z" />
  <path d="M7.994 14.521A6.6 6.6 0 0 1 4.638 13.601L4.398 13.457L1.904 14.111L2.57 11.678L2.414 11.427A6.56 6.56 0 0 1 1.407 7.922C1.407 4.296 4.364 1.338 7.998 1.338A6.56 6.56 0 0 1 12.658 3.269A6.56 6.56 0 0 1 14.586 7.929C14.582 11.568 11.625 14.521 7.994 14.521" />
</svg>
