<svg
  xmlns="http://www.w3.org/2000/svg"
  width="24"
  height="24"
  viewBox="0 0 24 24"
  fill="none"
  stroke="currentColor"
  stroke-width="2"
  stroke-linecap="round"
  stroke-linejoin="round"
>
  <path d="M16.062 28.228H16.057C16.057 28.228 16.056 28.228 16.056 28.228C13.737 28.228 11.567 27.588 9.714 26.475L9.77 26.506L9.319 26.239L4.644 27.466L5.891 22.907L5.597 22.44C4.412 20.578 3.708 18.309 3.708 15.875C3.708 9.053 9.239 3.522 16.061 3.522S28.414 9.053 28.414 15.875C28.414 22.697 22.884 28.228 16.061 28.228H16.061Z" />
  <path d="M22.838 18.977C22.467 18.791 20.641 17.894 20.301 17.769C19.96 17.645 19.712 17.584 19.464 17.956C19.218 18.327 18.506 19.163 18.289 19.411C18.073 19.66 17.855 19.69 17.484 19.505C16.334 19.039 15.346 18.418 14.487 17.653L14.497 17.662C13.698 16.922 13.013 16.075 12.46 15.141L12.432 15.089C12.216 14.718 12.409 14.517 12.594 14.332C12.761 14.166 12.966 13.898 13.151 13.682C13.297 13.503 13.422 13.298 13.517 13.078L13.523 13.061C13.566 12.974 13.591 12.873 13.591 12.765C13.591 12.634 13.554 12.512 13.49 12.408L13.492 12.411C13.398 12.225 12.656 10.397 12.347 9.653C12.045 8.929 11.738 9.028 11.511 9.016C11.295 9.006 11.047 9.004 10.799 9.004C10.404 9.014 10.053 9.192 9.811 9.467L9.81 9.469C9.008 10.23 8.51 11.303 8.51 12.492C8.51 12.518 8.51 12.545 8.511 12.571L8.511 12.567C8.642 14.034 9.192 15.351 10.038 16.424L10.026 16.409C11.63 18.788 13.768 20.691 16.277 21.973L16.371 22.016C16.919 22.264 17.621 22.529 18.339 22.756L18.488 22.797C18.93 22.937 19.439 23.018 19.967 23.018C20.27 23.018 20.568 22.991 20.856 22.94L20.825 22.944C21.894 22.721 22.781 22.076 23.322 21.195L23.331 21.178C23.496 20.812 23.592 20.385 23.592 19.936C23.592 19.751 23.576 19.57 23.545 19.394L23.548 19.413C23.456 19.258 23.208 19.166 22.836 18.979Z" />
  <path d="M26.576 5.363C23.886 2.673 20.17 1.009 16.065 1.009C7.856 1.009 1.2 7.664 1.2 15.874C1.2 18.606 1.937 21.165 3.222 23.365L3.184 23.295L1.075 30.997L8.954 28.93C11.005 30.069 13.452 30.739 16.056 30.739H16.062C24.271 30.736 30.924 24.08 30.924 15.871C30.924 11.768 29.262 8.054 26.575 5.364L26.575 5.364Z" />
</svg>
