<svg
  xmlns="http://www.w3.org/2000/svg"
  width="24"
  height="24"
  viewBox="0 0 24 24"
  fill="none"
  stroke="currentColor"
  stroke-width="2"
  stroke-linecap="round"
  stroke-linejoin="round"
>
  <path d="m2 2 20 20" />
  <path d="m16 8-1.17 1.17a3.5 3.5 0 0 0-.3-4.64L13 3l-1.5 1.5a3.547 3.547 0 0 0-.59.76" />
  <path d="M3.5 17.5a3.5 3.5 0 0 1-.03-4.97L5 11l1.5 1.5a3.5 3.5 0 0 1 .03 4.97 3.5 3.5 0 0 1 4.94 0L13 19l-1.5 1.5a3.5 3.5 0 0 1-4.97.03Z" />
  <path d="m8 8-.5.5a3.5 3.5 0 0 0-.03 4.97l3.03 3.03a3.5 3.5 0 0 0 4.97.03L16 16" />
  <path d="M12.5 12.5a3.49 3.49 0 0 0-1.97.97 3.46 3.46 0 0 0 .98-1.97" />
  <path d="M20 2a4 4 0 0 0-4 4v2h2a4 4 0 0 0 4-4V2Z" />
  <path d="M18.74 13.1a3.547 3.547 0 0 0 .73-.57L21 11l-1.5-1.5a3.5 3.5 0 0 0-4.65-.31" />
  <path d="m2 22 10-10" />
</svg>