<svg
  xmlns="http://www.w3.org/2000/svg"
  width="24"
  height="24"
  viewBox="0 0 24 24"
  fill="none"
  stroke="currentColor"
  stroke-width="2"
  stroke-linecap="round"
  stroke-linejoin="round"
>
  <path d="M3.5 17.5a3.5 3.5 0 0 1-.03-4.97L5 11l1.5 1.5a3.5 3.5 0 0 1 .03 4.97 3.5 3.5 0 0 1 4.94 0L13 19l-1.5 1.5a3.5 3.5 0 0 1-4.97.03Z" />
  <path d="M7.5 13.5a3.5 3.5 0 0 1-.03-4.97L9 7l1.5 1.5a3.5 3.5 0 0 1 .03 4.97 3.5 3.5 0 0 1 4.94 0L17 15l-1.5 1.5a3.5 3.5 0 0 1-4.97.03Z" />
  <path d="M11.5 9.5a3.5 3.5 0 0 1-.03-4.97L13 3l1.5 1.5a3.5 3.5 0 0 1 .03 4.97 3.5 3.5 0 0 1 4.94 0L21 11l-1.5 1.5a3.5 3.5 0 0 1-4.97.03Z" />
  <path d="M20 2a4 4 0 0 0-4 4v2h2a4 4 0 0 0 4-4V2Z" />
  <path d="M2 22 16 8" />
</svg>