<svg
  xmlns="http://www.w3.org/2000/svg"
  width="24"
  height="24"
  viewBox="0 0 24 24"
  fill="none"
  stroke="currentColor"
  stroke-width="2"
  stroke-linecap="round"
  stroke-linejoin="round"
>
  <path d="M11 9a1 1 0 0 1 1 1 1 1 0 0 0 1 1h1.586a1 1 0 0 0 .707-.293l1.414-1.414A1 1 0 0 1 17.414 9H21a1 1 0 0 1 1 1v3a1 1 0 0 1-1 1c-6.5 0-6.5 7-13 7A6 6 0 0 1 8 9z" />
  <path d="M14 2v2" />
  <path d="M19.414 3.586 18 5" />
  <path d="M8.586 3.586 10 5" />
  <circle cx="8" cy="15" r="2" />
</svg>