<svg
  xmlns="http://www.w3.org/2000/svg"
  width="24"
  height="24"
  viewBox="0 0 24 24"
  fill="none"
  stroke="currentColor"
  stroke-width="2"
  stroke-linecap="round"
  stroke-linejoin="round"
>
  <path d="M11.995 15.585h.01" />
  <path d="M21.62 15.981a2 2 0 0 0-1.884-3.075 2 2 0 0 0-1.274.781l-3.077 4.223a2 2 0 0 0-.332.843l-.348 2.728a.46.46 0 0 0 .653.473l2.486-1.173a1.76 1.76 0 0 0 .709-.578z" />
  <path d="M22 8.5V4a2 2 0 0 0-2-2H4a2 2 0 0 0-2 2v16a2 2 0 0 0 2 2h5.98" />
  <path d="M6.5 8.933a10 10 0 0 1 11 .014" />
  <path d="M9.5 12.102a5 5 0 0 1 5 .001" />
</svg>
