<svg
  xmlns="http://www.w3.org/2000/svg"
  width="24"
  height="24"
  viewBox="0 0 24 24"
  fill="none"
  stroke="currentColor"
  stroke-width="2"
  stroke-linecap="round"
  stroke-linejoin="round"
>
  <path d="m10.5 10.5-7.879 7.88c-2 2 .998 5 2.998 3L13.5 13.5" />
  <path d="M19.129 13.129c2.127-1.31 3.433-3.907 2.66-6.717-.12-.438-.662-.539-.982-.217l-3.108 3.106a1 1 0 0 1-1.398 0l-1.602-1.602a1 1 0 0 1 0-1.398l3.108-3.106c.32-.322.219-.864-.22-.984a6.2 6.2 0 0 0-1.55-.223c-2.187-.03-4.1 1.156-5.164 2.885" />
  <path d="m2 2 20 20" />
</svg>
