<svg xmlns="http://www.w3.org/2000/svg" width="24" height="24" viewBox="0 0 24 24" fill="none" stroke="currentColor" stroke-width="2" stroke-linecap="round" stroke-linejoin="round">
  <path d="M14.7 6.3a1 1 0 0 0 0 1.4l1.4 1.4a1 1 0 0 0 1.4 0l3.5-3.5a1 1 0 0 0 0-1.4l-1.4-1.4a1 1 0 0 0-1.4 0L14.7 6.3z"/>
  <path d="M9.3 17.7a1 1 0 0 0 0-1.4l-1.4-1.4a1 1 0 0 0-1.4 0L2.9 18.5a1 1 0 0 0 0 1.4l1.4 1.4a1 1 0 0 0 1.4 0L9.3 17.7z"/>
  <path d="M16.5 3.5c-3.9 3.9-9.2 9.2-13 13"/>
  <path d="m20.5 7.5-13 13"/>
</svg>
