<svg width="24" height="24" viewBox="0 0 24 24" fill="none" xmlns="http://www.w3.org/2000/svg">
<mask id="path-1-inside-1_89_2" fill="white">
<path d="M9.63012 14.2998L10.3301 15.3198L3.70012 22.9998H2.12012L9.63012 14.2998Z"/>
</mask>
<path d="M9.63012 14.2998L11.2791 13.1681C10.9282 12.6568 10.3599 12.3372 9.74072 12.3029C9.1215 12.2686 8.5214 12.5235 8.11616 12.9929L9.63012 14.2998ZM10.3301 15.3198L11.844 16.6267C12.4378 15.9389 12.4933 14.9373 11.9791 14.1881L10.3301 15.3198ZM3.70012 22.9998V24.9998C4.2815 24.9998 4.83411 24.7468 5.21403 24.3067L3.70012 22.9998ZM2.12012 22.9998L0.606158 21.6929C0.094958 22.2851 -0.0240226 23.121 0.301635 23.8323C0.627293 24.5437 1.33779 24.9998 2.12012 24.9998L2.12012 22.9998ZM9.63012 14.2998L7.98109 15.4315L8.68109 16.4515L10.3301 15.3198L11.9791 14.1881L11.2791 13.1681L9.63012 14.2998ZM10.3301 15.3198L8.81621 14.0129L2.18621 21.6929L3.70012 22.9998L5.21403 24.3067L11.844 16.6267L10.3301 15.3198ZM3.70012 22.9998V20.9998H2.12012V22.9998V24.9998H3.70012V22.9998ZM2.12012 22.9998L3.63408 24.3067L11.1441 15.6067L9.63012 14.2998L8.11616 12.9929L0.606158 21.6929L2.12012 22.9998Z" fill="black" mask="url(#path-1-inside-1_89_2)"/>
<mask id="path-3-inside-2_89_2" fill="white">
<path d="M22.0998 2L14.9998 10.23L14.2998 9.2L20.5098 2H22.0998Z"/>
</mask>
<path d="M22.0998 2L23.6142 3.30643C24.1251 2.71415 24.2439 1.87836 23.9182 1.16719C23.5924 0.456015 22.882 0 22.0998 0V2ZM14.9998 10.23L13.3457 11.3542C13.6952 11.8685 14.2641 12.191 14.885 12.2267C15.5058 12.2624 16.1079 12.0073 16.5142 11.5364L14.9998 10.23ZM14.2998 9.2L12.7853 7.89375C12.1943 8.579 12.137 9.57574 12.6457 10.3242L14.2998 9.2ZM20.5098 2V0C19.9281 0 19.3752 0.253256 18.9953 0.693746L20.5098 2ZM22.0998 2L20.5855 0.693575L13.4855 8.92357L14.9998 10.23L16.5142 11.5364L23.6142 3.30643L22.0998 2ZM14.9998 10.23L16.654 9.10582L15.954 8.07582L14.2998 9.2L12.6457 10.3242L13.3457 11.3542L14.9998 10.23ZM14.2998 9.2L15.8143 10.5063L22.0243 3.30625L20.5098 2L18.9953 0.693746L12.7853 7.89375L14.2998 9.2ZM20.5098 2V4H22.0998V2V0H20.5098V2Z" fill="black" mask="url(#path-3-inside-2_89_2)"/>
<path d="M8.96996 3H2.95996L15.99 22H22L8.96996 3Z" stroke="black" stroke-width="2" stroke-linecap="round" stroke-linejoin="round"/>
</svg>
