<svg 
  xmlns="http://www.w3.org/2000/svg" 
  width="24" 
  height="24" 
  viewBox="0 0 24 24" 
  fill="none" 
  stroke="currentColor" 
  stroke-linecap="round" 
  stroke-linejoin="round" 
  stroke-width="2"
>
  <path d="M2.5 17a24.12 24.12 0 0 1 0-10 2 2 0 0 1 1.4-1.4 49.56 49.56 0 0 1 16.2 0A2 2 0 0 1 21.5 7a24.12 24.12 0 0 1 0 10 2 2 0 0 1-1.4 1.4 49.55 49.55 0 0 1-16.2 0A2 2 0 0 1 2.5 17" />
  <circle cx="12" cy="12" r="0.5" />
  <circle cx="16.5" cy="12" r="0.5" />
  <circle cx="7.5" cy="12" r="0.5" />
</svg>