<svg
  xmlns="http://www.w3.org/2000/svg"
  width="24"
  height="24"
  viewBox="0 0 24 24"
  fill="none"
  stroke="currentColor"
  stroke-width="2"
  stroke-linecap="round"
  stroke-linejoin="round"
>
  <path d="M12 19a45.72 45.72 0 0 1-8.06-.59A2 2 0 0 1 2.52 17 22.06 22.06 0 0 1 2 12a22 22 0 0 1 .52-5A2 2 0 0 1 3.94 5.59 45.72 45.72 0 0 1 12 5a45.72 45.72 0 0 1 8.06.59A2 2 0 0 1 21.48 7 22 22 0 0 1 22 12a22 22 0 0 1-.52 5 2 2 0 0 1-1.42 1.37A45.72 45.72 0 0 1 12 19Z"/>
  <polygon points="10 15 15 12 10 9"/>
</svg>
