<svg
  xmlns="http://www.w3.org/2000/svg"
  width="24"
  height="24"
  viewBox="0 0 24 24"
  fill="none"
  stroke="currentColor"
  stroke-width="2"
  stroke-linecap="round"
  stroke-linejoin="round"
>
  <path d="M10.513 4.856 13.12 2.17a.5.5 0 0 1 .86.46l-1.377 4.317" />
  <path d="M15.656 10H20a1 1 0 0 1 .535.153 1 1 0 0 1 .37.415 1 1 0 0 1 .091.549 1 1 0 0 1-.216.513l-1.72 1.773" />
  <path d="M16.273 16.273 10.88 21.83a.5.5 0 0 1-.88-.33.276.276 0 0 1 .02-.13l1.92-6.02a1 1 0 0 0 .055-.475 1 1 0 0 0-.171-.447 1 1 0 0 0-.36-.316A1 1 0 0 0 11 14H4a1 1 0 0 1-.535-.153 1 1 0 0 1-.37-.416 1 1 0 0 1-.092-.549 1 1 0 0 1 .217-.512l4.507-4.643" />
  <path d="m2 2 20 20" />
</svg>
