<svg xmlns="http://www.w3.org/2000/svg">
  <rect width="24" height="24" fill="white"/>
  <svg class="icon-grid" width="24" height="24" viewBox="0 0 24 24" fill="none" stroke="#dedede" stroke-width="0.1" xmlns="http://www.w3.org/2000/svg"><g><line x1="0" y1="1" x2="24" y2="1"></line><line x1="1" y1="0" x2="1" y2="24"></line></g><g><line x1="0" y1="2" x2="24" y2="2"></line><line x1="2" y1="0" x2="2" y2="24"></line></g><g><line x1="0" y1="3" x2="24" y2="3"></line><line x1="3" y1="0" x2="3" y2="24"></line></g><g><line x1="0" y1="4" x2="24" y2="4"></line><line x1="4" y1="0" x2="4" y2="24"></line></g><g><line x1="0" y1="5" x2="24" y2="5"></line><line x1="5" y1="0" x2="5" y2="24"></line></g><g><line x1="0" y1="6" x2="24" y2="6"></line><line x1="6" y1="0" x2="6" y2="24"></line></g><g><line x1="0" y1="7" x2="24" y2="7"></line><line x1="7" y1="0" x2="7" y2="24"></line></g><g><line x1="0" y1="8" x2="24" y2="8"></line><line x1="8" y1="0" x2="8" y2="24"></line></g><g><line x1="0" y1="9" x2="24" y2="9"></line><line x1="9" y1="0" x2="9" y2="24"></line></g><g><line x1="0" y1="10" x2="24" y2="10"></line><line x1="10" y1="0" x2="10" y2="24"></line></g><g><line x1="0" y1="11" x2="24" y2="11"></line><line x1="11" y1="0" x2="11" y2="24"></line></g><g><line x1="0" y1="12" x2="24" y2="12"></line><line x1="12" y1="0" x2="12" y2="24"></line></g><g><line x1="0" y1="13" x2="24" y2="13"></line><line x1="13" y1="0" x2="13" y2="24"></line></g><g><line x1="0" y1="14" x2="24" y2="14"></line><line x1="14" y1="0" x2="14" y2="24"></line></g><g><line x1="0" y1="15" x2="24" y2="15"></line><line x1="15" y1="0" x2="15" y2="24"></line></g><g><line x1="0" y1="16" x2="24" y2="16"></line><line x1="16" y1="0" x2="16" y2="24"></line></g><g><line x1="0" y1="17" x2="24" y2="17"></line><line x1="17" y1="0" x2="17" y2="24"></line></g><g><line x1="0" y1="18" x2="24" y2="18"></line><line x1="18" y1="0" x2="18" y2="24"></line></g><g><line x1="0" y1="19" x2="24" y2="19"></line><line x1="19" y1="0" x2="19" y2="24"></line></g><g><line x1="0" y1="20" x2="24" y2="20"></line><line x1="20" y1="0" x2="20" y2="24"></line></g><g><line x1="0" y1="21" x2="24" y2="21"></line><line x1="21" y1="0" x2="21" y2="24"></line></g><g><line x1="0" y1="22" x2="24" y2="22"></line><line x1="22" y1="0" x2="22" y2="24"></line></g><g><line x1="0" y1="23" x2="24" y2="23"></line><line x1="23" y1="0" x2="23" y2="24"></line></g></svg>
  <svg
    xmlns="http://www.w3.org/2000/svg"
    width="24"
    height="24"
    viewBox="0 0 24 24"
    fill="none"
    stroke="currentColor"
    stroke-width="2"
    stroke-linecap="round"
    stroke-linejoin="round"
  >
    <path d="M14 12C14 9.79086 12.2091 8 10 8C7.79086 8 6 9.79086 6 12C6 16.4183 9.58172 20 14 20C18.4183 20 22 16.4183 22 12C22 8.446 20.455 5.25285 18 3.05557" />
    <path d="M10 12C10 14.2091 11.7909 16 14 16C16.2091 16 18 14.2091 18 12C18 7.58172 14.4183 4 10 4C5.58172 4 2 7.58172 2 12C2 15.5841 3.57127 18.8012 6.06253 21" stroke="#F56565" />
  </svg>
</svg>
