<svg width="128" height="32" viewBox="0 0 128 32" fill="none" xmlns="http://www.w3.org/2000/svg">
<g clip-path="url(#clip0_1_2)">
<path d="M120 0H8C3.58172 0 0 3.58172 0 8V24C0 28.4183 3.58172 32 8 32H120C124.418 32 128 28.4183 128 24V8C128 3.58172 124.418 0 120 0Z" fill="white"/>
<path d="M78.2 22.17C77.4081 22.1897 76.6251 21.9999 75.93 21.62C75.302 21.2576 74.7943 20.7186 74.47 20.07C74.1179 19.3272 73.9466 18.5117 73.97 17.69C73.97 16.79 74.13 16 74.47 15.32C74.8 14.6486 75.3176 14.0872 75.9601 13.7039C76.6026 13.3205 77.3424 13.1316 78.09 13.16C78.63 13.16 79.14 13.25 79.62 13.42C80.1 13.59 80.52 13.86 80.89 14.22C81.26 14.58 81.55 15.03 81.76 15.59C81.98 16.14 82.08 16.8 82.08 17.57V18.2H74.93V16.8H80.11C80.11 16.4 80.02 16.06 79.86 15.75C79.69 15.45 79.46 15.2 79.16 15.02C78.86 14.84 78.52 14.75 78.12 14.75C77.732 14.7412 77.3498 14.8454 77.02 15.05C76.7 15.25 76.45 15.52 76.27 15.85C76.1 16.18 76.01 16.54 76 16.93V18.13C76 18.65 76.1 19.08 76.28 19.44C76.47 19.8 76.73 20.08 77.06 20.27C77.39 20.47 77.78 20.56 78.23 20.56C78.53 20.56 78.8 20.52 79.04 20.43C79.29 20.35 79.5 20.22 79.67 20.05C79.85 19.89 79.99 19.68 80.07 19.43L82 19.65C81.8833 20.1455 81.6424 20.6032 81.3 20.98C80.97 21.35 80.54 21.65 80 21.85C79.48 22.05 78.88 22.16 78.2 22.16V22.17Z" fill="#1B1B1F"/>
<path d="M67.5 22.15C66.8309 22.1645 66.1733 21.9752 65.6143 21.6073C65.0553 21.2394 64.6213 20.7102 64.37 20.09C64.0367 19.3208 63.8763 18.4879 63.9 17.65C63.9 16.68 64.06 15.86 64.38 15.19C64.5513 14.7849 64.8009 14.4177 65.1145 14.1093C65.428 13.8009 65.7994 13.5576 66.2073 13.3931C66.6152 13.2286 67.0516 13.1464 67.4913 13.151C67.9311 13.1556 68.3656 13.247 68.77 13.42C69.1 13.59 69.36 13.8 69.55 14.04C69.75 14.28 69.89 14.5 70 14.72H70.08V10.36H72.15V22H70.12V20.62H70C69.9 20.84 69.74 21.06 69.54 21.3C69.2864 21.5868 68.9711 21.8123 68.6177 21.9595C68.2644 22.1068 67.8822 22.1719 67.5 22.15ZM68.07 20.47C68.51 20.47 68.87 20.35 69.19 20.11C69.49 19.88 69.73 19.54 69.89 19.11C70.04 18.7 70.12 18.21 70.12 17.64C70.12 17.07 70.04 16.58 69.88 16.16C69.7484 15.7769 69.5087 15.44 69.19 15.19C68.865 14.9551 68.4708 14.8354 68.07 14.85C67.61 14.85 67.23 14.97 66.92 15.2C66.62 15.44 66.39 15.77 66.23 16.2C66.08 16.61 66 17.1 66 17.64C66 18.18 66.08 18.67 66.23 19.1C66.39 19.52 66.63 19.86 66.93 20.1C67.24 20.34 67.63 20.47 68.07 20.47Z" fill="#1B1B1F"/>
<path d="M60.09 22V13.27H62.14V22H60.1H60.09ZM61.12 12.03C60.8 12.03 60.52 11.93 60.28 11.71C60.1684 11.6111 60.0795 11.4894 60.0191 11.3531C59.9587 11.2168 59.9283 11.0691 59.93 10.92C59.93 10.61 60.05 10.35 60.28 10.13C60.52 9.91 60.8 9.8 61.12 9.8C61.45 9.8 61.73 9.91 61.96 10.13C62.2 10.35 62.32 10.61 62.32 10.92C62.32 11.22 62.2 11.49 61.96 11.71C61.73 11.93 61.46 12.03 61.12 12.03Z" fill="#1B1B1F"/>
<path d="M54.66 22.17C53.9015 22.2156 53.1466 22.0346 52.4913 21.65C51.836 21.2653 51.3099 20.6945 50.98 20.01C50.6351 19.279 50.464 18.4781 50.48 17.67C50.48 16.78 50.65 16 50.99 15.32C51.33 14.64 51.81 14.12 52.43 13.73C53.102 13.3359 53.8712 13.1384 54.65 13.16C55.35 13.16 55.98 13.29 56.53 13.56C57.0617 13.8031 57.5168 14.1868 57.8464 14.6697C58.1759 15.1526 58.3674 15.7163 58.4 16.3H56.43C56.364 15.895 56.1673 15.5228 55.87 15.24C55.57 14.96 55.17 14.82 54.67 14.82C54.26 14.82 53.89 14.93 53.57 15.16C53.25 15.38 53 15.7 52.83 16.12C52.65 16.55 52.56 17.05 52.56 17.64C52.56 18.24 52.66 18.74 52.83 19.17C53 19.59 53.24 19.92 53.56 20.15C53.88 20.38 54.25 20.49 54.68 20.49C54.98 20.49 55.25 20.44 55.49 20.32C55.73 20.21 55.94 20.04 56.09 19.82C56.26 19.6 56.37 19.33 56.43 19.02H58.4C58.3725 19.6024 58.1878 20.1664 57.8656 20.6524C57.5434 21.1383 57.0957 21.5279 56.57 21.78C55.9746 22.053 55.3248 22.1864 54.67 22.17H54.66Z" fill="#1B1B1F"/>
<path d="M46.68 18.33V13.27H48.74V22H46.74V20.45H46.65C46.45 20.94 46.13 21.34 45.68 21.65C45.23 21.95 44.68 22.11 44.03 22.11C43.5054 22.1412 42.9835 22.0151 42.531 21.7479C42.0785 21.4806 41.716 21.0844 41.49 20.61C41.2299 20.0535 41.1033 19.444 41.12 18.83V13.27H43.18V18.51C43.18 19.06 43.33 19.51 43.63 19.83C43.93 20.16 44.33 20.32 44.83 20.32C45.1442 20.3154 45.4523 20.2325 45.7265 20.0789C46.0006 19.9252 46.2321 19.7056 46.4 19.44C46.59 19.14 46.68 18.77 46.68 18.33Z" fill="#1B1B1F"/>
<path d="M32.15 22V10.36H34.25V20.23H39.38V22H32.15Z" fill="#1B1B1F"/>
<path d="M18 16C18 14.9391 17.5786 13.9217 16.8284 13.1716C16.0783 12.4214 15.0609 12 14 12C12.9391 12 11.9217 12.4214 11.1716 13.1716C10.4214 13.9217 10 14.9391 10 16C10 18.1217 10.8429 20.1566 12.3431 21.6569C13.8434 23.1571 15.8783 24 18 24C20.1217 24 22.1566 23.1571 23.6569 21.6569C25.1571 20.1566 26 18.1217 26 16C26 12.45 24.45 9.25 22 7.06" stroke="#1B1B1F" stroke-width="2" stroke-linecap="round" stroke-linejoin="round"/>
<path d="M14 16C14 17.0609 14.4214 18.0783 15.1716 18.8284C15.9217 19.5786 16.9391 20 18 20C19.0609 20 20.0783 19.5786 20.8284 18.8284C21.5786 18.0783 22 17.0609 22 16C22 13.8783 21.1571 11.8434 19.6569 10.3431C18.1566 8.84285 16.1217 8 14 8C11.8783 8 9.84344 8.84285 8.34315 10.3431C6.84285 11.8434 6 13.8783 6 16C6 19.58 7.57 22.8 10.06 25" stroke="#F56565" stroke-width="2" stroke-linecap="round" stroke-linejoin="round"/>
<path d="M92 18C93.1046 18 94 17.1046 94 16C94 14.8954 93.1046 14 92 14C90.8954 14 90 14.8954 90 16C90 17.1046 90.8954 18 92 18Z" fill="#DDDDDD"/>
<g clip-path="url(#clip1_1_2)">
<path d="M108.193 23.0349C107.283 22.2089 107.018 20.4736 107.397 19.2163C108.054 20.009 108.965 20.2601 109.908 20.4018C111.365 20.6205 112.795 20.5387 114.148 19.8777C114.303 19.8021 114.446 19.7014 114.615 19.5995C114.742 19.9652 114.775 20.3344 114.73 20.7102C114.623 21.6254 114.164 22.3323 113.434 22.8682C113.143 23.0825 112.834 23.2742 112.533 23.4762C111.607 24.0974 111.357 24.8258 111.705 25.8852C111.713 25.9112 111.72 25.937 111.739 26C111.266 25.7899 110.921 25.4841 110.658 25.0821C110.38 24.6578 110.248 24.1884 110.241 23.6805C110.238 23.4334 110.238 23.184 110.204 22.9404C110.123 22.3463 109.842 22.0803 109.313 22.065C108.77 22.0493 108.34 22.3826 108.226 22.9076C108.218 22.9478 108.205 22.9876 108.192 23.0344L108.193 23.0349Z" fill="#17191E"/>
<path d="M103 19.0068C103 19.0068 105.694 17.7035 108.396 17.7035L110.433 11.4431C110.51 11.1403 110.732 10.9346 110.984 10.9346C111.235 10.9346 111.458 11.1403 111.534 11.4431L113.571 17.7035C116.771 17.7035 118.968 19.0068 118.968 19.0068C118.968 19.0068 114.391 6.6266 114.382 6.60176C114.251 6.23574 114.029 6 113.73 6H108.238C107.939 6 107.726 6.23574 107.586 6.60176C107.576 6.62614 103 19.0068 103 19.0068Z" fill="#17191E"/>
</g>
</g>
<defs>
<clipPath id="clip0_1_2">
<rect width="128" height="32" fill="white"/>
</clipPath>
<clipPath id="clip1_1_2">
<rect width="16" height="20" fill="white" transform="translate(103 6)"/>
</clipPath>
</defs>
</svg>
