<svg viewBox="0 0 160 32" fill="none" xmlns="http://www.w3.org/2000/svg">
  <rect width="128" height="32" rx="8" fill="#fff"/>
  <svg xmlns="http://www.w3.org/2000/svg" fill="none" viewBox="0 0 120 23" height="23" width="120" x="4" y="4">
    <path fill="#76B3E1" d="M119.14 5.18S111.29-.59 105.22.74l-.44.15c-.9.3-1.63.74-2.08 1.33l-.3.45-2.22 3.85 3.85.74a7.51 7.51 0 0 0 5.63 1.03l6.81 1.34 2.67-4.45Z"/>
    <path fill="url(#a)" d="M119.14 5.18S111.29-.59 105.22.74l-.44.15c-.9.3-1.63.74-2.08 1.33l-.3.45-2.22 3.85 3.85.74a7.51 7.51 0 0 0 5.63 1.03l6.81 1.34 2.67-4.45Z" opacity=".3"/>
    <path fill="#518AC8" d="m102.7 5.18-.6.15c-2.5.74-3.25 3.11-1.92 5.19a7.01 7.01 0 0 0 7.11 2.22l9.18-3.11s-7.84-5.78-13.77-4.45Z"/>
    <path fill="url(#b)" d="m102.7 5.18-.6.15c-2.5.74-3.25 3.11-1.92 5.19a7.01 7.01 0 0 0 7.11 2.22l9.18-3.11s-7.84-5.78-13.77-4.45Z" opacity=".3"/>
    <path fill="url(#c)" d="M114.84 11.85a6.66 6.66 0 0 0-7.1-2.22l-9.19 2.96-2.96 5.18 16.59 2.82 2.96-5.34c.6-1.03.45-2.22-.3-3.4Z"/>
    <path fill="url(#d)" d="M111.88 17.03a6.66 6.66 0 0 0-7.1-2.22l-9.19 2.96s7.85 5.93 13.92 4.45l.45-.15c2.52-.74 3.4-3.11 1.92-5.04Z"/>
    <path fill="#1B1B1F" d="M74.2 18.17a4.5 4.5 0 0 1-2.27-.55 3.7 3.7 0 0 1-1.46-1.55 5.21 5.21 0 0 1-.5-2.38c0-.9.16-1.69.5-2.37a3.87 3.87 0 0 1 3.62-2.16c.54 0 1.05.09 1.53.26s.9.44 1.27.8c.37.36.66.81.87 1.37.22.55.32 1.21.32 1.98v.63h-7.15V12.8h5.18c0-.4-.09-.74-.25-1.05-.17-.3-.4-.55-.7-.73-.3-.18-.64-.27-1.04-.27a2 2 0 0 0-1.1.3c-.32.2-.57.47-.75.8-.17.33-.26.69-.27 1.08v1.2c0 .52.1.95.28 1.31.19.36.45.64.78.83.33.2.72.29 1.17.29.3 0 .57-.04.81-.13.25-.08.46-.21.63-.38.18-.16.32-.37.4-.62l1.93.22a3 3 0 0 1-.7 1.33c-.33.37-.76.67-1.3.87-.52.2-1.12.31-1.8.31Z"/>
    <path fill="#1B1B1F" d="M63.5 18.15a3.3 3.3 0 0 1-3.13-2.06 5.73 5.73 0 0 1-.47-2.44c0-.97.16-1.79.48-2.46a3.34 3.34 0 0 1 4.39-1.77c.33.17.59.38.78.62.2.24.34.46.45.68h.08V6.36h2.07V18h-2.03v-1.38H66c-.1.22-.26.44-.46.68a2.53 2.53 0 0 1-2.04.85Zm.57-1.68c.44 0 .8-.12 1.12-.36.3-.23.54-.57.7-1 .15-.41.23-.9.23-1.47s-.08-1.06-.24-1.48a2.1 2.1 0 0 0-.69-.97 1.8 1.8 0 0 0-1.12-.34c-.46 0-.84.12-1.15.35-.3.24-.53.57-.69 1-.15.41-.23.9-.23 1.44 0 .54.08 1.03.23 1.46.16.42.4.76.7 1 .31.24.7.37 1.14.37Z"/>
    <path fill="#1B1B1F" d="M56.09 18V9.27h2.05V18H56.1Zm1.03-9.97c-.32 0-.6-.1-.84-.32a1.04 1.04 0 0 1-.35-.79c0-.31.12-.57.35-.79.24-.22.52-.33.84-.33.33 0 .61.11.84.33.24.22.36.48.36.79 0 .3-.12.57-.36.79-.23.22-.5.32-.84.32Z"/>
    <path fill="#1B1B1F" d="M50.66 18.17a3.83 3.83 0 0 1-3.68-2.16 5.24 5.24 0 0 1-.5-2.34c0-.89.17-1.67.51-2.35.34-.68.82-1.2 1.44-1.59a4.16 4.16 0 0 1 2.22-.57c.7 0 1.33.13 1.88.4a3.21 3.21 0 0 1 1.87 2.74h-1.97a1.88 1.88 0 0 0-.56-1.06c-.3-.28-.7-.42-1.2-.42-.41 0-.78.11-1.1.34-.32.22-.57.54-.74.96-.18.43-.27.93-.27 1.52 0 .6.1 1.1.27 1.53.17.42.41.75.73.98.32.23.69.34 1.12.34.3 0 .57-.05.81-.17.24-.11.45-.28.6-.5.17-.22.28-.49.34-.8h1.97a3.23 3.23 0 0 1-1.83 2.76 4.3 4.3 0 0 1-1.9.39Z"/>
    <path fill="#1B1B1F" d="M42.68 14.33V9.27h2.06V18h-2v-1.55h-.09c-.2.49-.52.89-.97 1.2-.45.3-1 .46-1.65.46a2.64 2.64 0 0 1-2.54-1.5 3.95 3.95 0 0 1-.37-1.78V9.27h2.06v5.24c0 .55.15 1 .45 1.32.3.33.7.49 1.2.49a1.89 1.89 0 0 0 1.57-.88c.19-.3.28-.67.28-1.11Z"/>
    <path fill="#1B1B1F" d="M28.15 18V6.36h2.1v9.87h5.13V18h-7.23Z"/>
    <path stroke="#1B1B1F" stroke-linecap="round" stroke-linejoin="round" stroke-width="2" d="M14 12a4 4 0 0 0-8 0 8 8 0 0 0 16 0c0-3.55-1.55-6.75-4-8.94"/>
    <path stroke="#F56565" stroke-linecap="round" stroke-linejoin="round" stroke-width="2" d="M10 12a4 4 0 0 0 8 0 8 8 0 1 0-16 0c0 3.58 1.57 6.8 4.06 9"/>
    <circle cx="88" cy="12" r="2" fill="#DDD"/>
    <defs>
      <linearGradient id="a" x1="99.07" x2="117.51" y1=".44" y2="9.4" gradientUnits="userSpaceOnUse">
        <stop offset=".1" stop-color="#76B3E1"/>
        <stop offset=".3" stop-color="#DCF2FD"/>
        <stop offset="1" stop-color="#76B3E1"/>
      </linearGradient>
      <linearGradient id="b" x1="109.19" x2="105.96" y1="4.83" y2="15.58" gradientUnits="userSpaceOnUse">
        <stop stop-color="#76B3E1"/>
        <stop offset=".5" stop-color="#4377BB"/>
        <stop offset="1" stop-color="#1F3B77"/>
      </linearGradient>
      <linearGradient id="c" x1="97.72" x2="116.37" y1="9.51" y2="22.19" gradientUnits="userSpaceOnUse">
        <stop stop-color="#315AA9"/>
        <stop offset=".5" stop-color="#518AC8"/>
        <stop offset="1" stop-color="#315AA9"/>
      </linearGradient>
      <linearGradient id="d" x1="106.14" x2="98.61" y1="11.03" y2="38.62" gradientUnits="userSpaceOnUse">
        <stop stop-color="#4377BB"/>
        <stop offset=".5" stop-color="#1A336B"/>
        <stop offset="1" stop-color="#1A336B"/>
      </linearGradient>
    </defs>
  </svg>
</svg>
