<svg
  xmlns="http://www.w3.org/2000/svg"
  width="24"
  height="24"
  viewBox="0 0 24 24"
  fill="none"
  stroke="currentColor"
  stroke-width="2"
  stroke-linecap="round"
  stroke-linejoin="round"
>
  <path d="M15.9 5c-.4-1.7-2-3-3.9-3h0C9.8 2 8 3.8 8 6l0 3.7l8 4.6l0 3.7c0 2.2-1.8 4-4 4h0c-1.9 0-3.4-1.3-3.9-3" />
  <path d="M7.9 5.1C6.2 4.7 4.3 5.4 3.3 7l0 0c-1.1 1.9-.4 4.4 1.5 5.5L8 14.3l8-4.6l3.2 1.8c1.9 1.1 2.6 3.6 1.5 5.5 l0 0c-.9 1.6-2.8 2.3-4.5 1.9" />
  <path d="M4 12.1c-1.3 1.2-1.6 3.2-.7 4.9l0 0c1.1 1.9 3.6 2.6 5.5 1.5l3.2-1.8l0-9.2l3.2-1.8c1.9-1.1 4.4-.4 5.5 1.5 l0 0c.9 1.6 .6 3.6-.7 4.9" />
</svg>
