<svg xmlns="http://www.w3.org/2000/svg" width="81" height="16" viewBox="0 0 81 16" fill="none">
<path fill-rule="evenodd" clip-rule="evenodd" d="M29 16H32V10H39V7H32V4H39V1H29V16ZM42 16H52V13H45V1H42V16ZM55 16H65V13H58.0439L58 10H65V7H58V4H65V1H55V16ZM68 7H71V10H68V16H71V10H78V16H81V10H78V7H81V1H78V7H71V1H68V7Z" fill="#1C2024"/>
<path d="M16 16V1H26V4H19V7H26V10H19L19.0439 13H26V16H16Z" fill="#1C2024"/>
<path d="M10 10V16H13V10H10Z" fill="#1C2024"/>
<path d="M0 1V16H3V10H10V7H3V4H10V7H13V1H0Z" fill="#1C2024"/>
</svg>