<svg xmlns="http://www.w3.org/2000/svg" fill="none" viewBox="0 0 1144 256">
  <mask id="a" width="1144" height="256" x="0" y="0" maskUnits="userSpaceOnUse" style="mask-type:luminance">
    <path fill="#fff" d="M0 0h1143.33v256H0V0Z"/>
  </mask>
  <g mask="url(#a)">
    <mask id="b" width="256" height="256" x="0" y="0" maskUnits="userSpaceOnUse" style="mask-type:luminance">
      <path fill="#fff" d="M0 0h256v256H0V0Z"/>
    </mask>
    <g mask="url(#b)">
      <path fill="#fff" d="m208 128-80 80Z"/>
      <path stroke="#fff" stroke-linecap="round" stroke-linejoin="round" stroke-width="16" d="m208 128-80 80"/>
      <path fill="#fff" d="M192 40 40 192Z"/>
      <path stroke="#fff" stroke-linecap="round" stroke-linejoin="round" stroke-width="16" d="M192 40 40 192"/>
    </g>
    <path fill="#fff" d="M1108.11 192V98.9h21.94V192h-21.94Zm11.03-106.3c-3.48 0-6.47-1.15-8.97-3.46a11.03 11.03 0 0 1-3.76-8.42 11 11 0 0 1 3.76-8.43 12.65 12.65 0 0 1 8.97-3.51c3.51 0 6.5 1.17 8.97 3.51 2.5 2.3 3.75 5.11 3.75 8.43 0 3.27-1.25 6.08-3.75 8.42a12.68 12.68 0 0 1-8.97 3.46ZM1063.61 152.85V98.9h21.94V192h-21.28v-16.54h-.97a27.92 27.92 0 0 1-10.36 12.78c-4.77 3.32-10.65 4.97-17.64 4.97-6.1 0-11.49-1.35-16.18-4.06a28.22 28.22 0 0 1-10.91-11.94c-2.62-5.25-3.94-11.6-3.94-19.03V98.91h21.94v55.88c0 5.9 1.62 10.58 4.85 14.06 3.23 3.47 7.48 5.21 12.73 5.21 3.23 0 6.36-.79 9.39-2.36a19.13 19.13 0 0 0 7.46-7.03c1.98-3.16 2.97-7.1 2.97-11.82ZM990.27 62.06l-40 148.6h-19.2l40-148.6h19.2ZM857.54 137.46V192h-21.93V98.9h20.97v15.83h1.09a26.6 26.6 0 0 1 10.24-12.43c4.73-3.07 10.57-4.6 17.51-4.6 6.43 0 12.02 1.37 16.8 4.12a27.77 27.77 0 0 1 11.14 11.94c2.67 5.21 3.98 11.53 3.94 18.97V192h-21.94v-55.88c0-6.22-1.61-11.09-4.85-14.6-3.19-3.52-7.61-5.28-13.27-5.28-3.84 0-7.25.85-10.24 2.55a17.64 17.64 0 0 0-6.97 7.21c-1.66 3.15-2.49 6.97-2.49 11.46ZM777.71 193.82c-9.3 0-17.27-2.04-23.94-6.12a40.87 40.87 0 0 1-15.33-16.91c-3.56-7.23-5.33-15.56-5.33-24.97 0-9.46 1.81-17.8 5.45-25.03a40.7 40.7 0 0 1 15.4-16.97c6.66-4.08 14.54-6.12 23.63-6.12 7.56 0 14.24 1.4 20.06 4.18a34.27 34.27 0 0 1 14 11.7c3.48 5 5.46 10.86 5.94 17.57h-20.97a20.05 20.05 0 0 0-6.06-11.21c-3.15-3.03-7.37-4.55-12.67-4.55a19.8 19.8 0 0 0-11.81 3.64c-3.4 2.38-6.05 5.82-7.94 10.3-1.86 4.49-2.8 9.86-2.8 16.13 0 6.34.94 11.8 2.8 16.36 1.86 4.52 4.46 8.02 7.82 10.48a20 20 0 0 0 11.93 3.64c3.24 0 6.13-.6 8.67-1.82 2.57-1.24 4.8-3.1 6.49-5.4a20.7 20.7 0 0 0 3.57-8.54h20.97a36.55 36.55 0 0 1-5.82 17.52 34.46 34.46 0 0 1-13.7 11.88c-5.77 2.82-12.56 4.24-20.36 4.24ZM664.15 193.64a35.22 35.22 0 0 1-19.63-5.64c-5.78-3.76-10.35-9.21-13.7-16.36-3.36-7.15-5.03-15.84-5.03-26.06 0-10.35 1.7-19.08 5.09-26.19 3.43-7.15 8.06-12.54 13.88-16.18a35.67 35.67 0 0 1 19.45-5.51c5.46 0 9.94.93 13.46 2.78a25.4 25.4 0 0 1 8.36 6.61 40.28 40.28 0 0 1 4.79 7.21h.9V67.88h22V192h-21.57v-14.67h-1.33c-1.35 2.59-3 5-4.91 7.21a26.99 26.99 0 0 1-8.49 6.43c-3.51 1.78-7.93 2.67-13.27 2.67Zm6.12-18c4.65 0 8.6-1.26 11.88-3.76 3.27-2.55 5.76-6.08 7.46-10.6 1.7-4.53 2.54-9.8 2.54-15.82 0-6.03-.85-11.26-2.54-15.7-1.66-4.45-4.13-7.9-7.4-10.37-3.23-2.46-7.21-3.7-11.94-3.7-4.89 0-8.97 1.28-12.24 3.83-3.27 2.54-5.74 6.06-7.4 10.54-1.65 4.48-2.48 9.62-2.48 15.4 0 5.81.83 11 2.49 15.57 1.7 4.53 4.18 8.1 7.45 10.73 3.31 2.58 7.38 3.88 12.18 3.88ZM558.4 193.88c-5.9 0-11.22-1.05-15.94-3.15a26.02 26.02 0 0 1-11.16-9.46c-2.7-4.16-4.06-9.29-4.06-15.4 0-5.24.97-9.59 2.91-13.02a22.51 22.51 0 0 1 7.94-8.24 40.04 40.04 0 0 1 11.33-4.67 92.2 92.2 0 0 1 13.16-2.36c4.43-.45 8.85-.96 13.27-1.52 3.4-.48 5.86-1.21 7.4-2.18 1.57-1.01 2.36-2.57 2.36-4.67v-.36c0-4.57-1.36-8.1-4.07-10.6-2.7-2.51-6.6-3.77-11.7-3.77-5.37 0-9.63 1.18-12.78 3.52-3.11 2.34-5.21 5.11-6.3 8.3l-20.49-2.9a32.7 32.7 0 0 1 8-14.19 34.8 34.8 0 0 1 13.64-8.6c5.73-2 11.76-2.98 17.82-2.91 4.48 0 8.95.52 13.4 1.57 4.33 1 8.45 2.78 12.17 5.22a26.2 26.2 0 0 1 8.85 9.75c2.26 4.12 3.4 9.28 3.4 15.46V192h-21.1v-12.79h-.72a26.8 26.8 0 0 1-5.64 7.28 27.1 27.1 0 0 1-9.03 5.39c-3.6 1.33-7.82 2-12.67 2h.01Zm5.7-16.12c4.4 0 8.21-.87 11.44-2.6a19.27 19.27 0 0 0 7.46-7.04 17.9 17.9 0 0 0 2.67-9.51v-10.97c-.69.56-1.86 1.09-3.52 1.57-1.62.49-3.43.91-5.45 1.28-2.02.36-4.02.68-6 .97l-5.16.72a38.5 38.5 0 0 0-8.78 2.18 14.6 14.6 0 0 0-6.12 4.25c-1.5 1.77-2.25 4.08-2.25 6.9 0 4.05 1.48 7.1 4.43 9.16 2.95 2.06 6.7 3.09 11.27 3.09h.01ZM448.88 137.46V192h-21.94V67.88h21.45v46.85h1.1a26.93 26.93 0 0 1 10.12-12.43c4.6-3.07 10.46-4.6 17.57-4.6 6.47 0 12.1 1.35 16.91 4.06 4.8 2.7 8.53 6.66 11.15 11.88 2.67 5.2 4 11.57 4 19.09V192H487.3v-55.88c0-6.26-1.61-11.13-4.85-14.6-3.19-3.52-7.67-5.28-13.45-5.28-3.88 0-7.35.85-10.42 2.55a17.8 17.8 0 0 0-7.16 7.21c-1.7 3.15-2.54 6.97-2.54 11.46ZM406.85 123.52l-20 2.18c-.6-2.08-1.6-4.02-2.97-5.7a14.75 14.75 0 0 0-5.58-4.3c-2.34-1.1-5.2-1.64-8.6-1.64-4.57 0-8.4 1-11.52 2.97-3.07 1.98-4.58 4.55-4.54 7.7-.04 2.7.95 4.9 2.97 6.6 2.06 1.7 5.45 3.1 10.18 4.18l15.88 3.4c8.8 1.9 15.35 4.9 19.63 9.03 4.33 4.12 6.5 9.52 6.55 16.18a25.3 25.3 0 0 1-5.15 15.52c-3.36 4.44-8.02 7.92-14 10.42s-12.85 3.76-20.6 3.76c-11.4 0-20.58-2.39-27.52-7.15-6.95-4.81-11.1-11.5-12.43-20.06l21.4-2.07c.96 4.2 3.03 7.38 6.18 9.52 3.15 2.14 7.25 3.21 12.3 3.21 5.21 0 9.4-1.07 12.55-3.2 3.19-2.15 4.78-4.8 4.78-7.95a8.27 8.27 0 0 0-3.09-6.6c-2.02-1.74-5.17-3.08-9.45-4l-15.88-3.34c-8.93-1.86-15.54-4.99-19.82-9.4-4.28-4.44-6.4-10.05-6.36-16.84-.04-5.74 1.51-10.7 4.66-14.91 3.2-4.24 7.62-7.52 13.28-9.82 5.7-2.34 12.26-3.51 19.7-3.51 10.9 0 19.49 2.32 25.75 6.97 6.3 4.64 10.2 10.93 11.7 18.84v.01Z"/>
  </g>
</svg>
