<svg xmlns="http://www.w3.org/2000/svg" fill="#fff" viewBox="0 0 1144 256">
  <path d="M1108.1 192V98.9h22V192h-22Zm11-106.3a12.8 12.8 0 0 1-11.7-7.3c-.7-1.4-1-3-1-4.6a11 11 0 0 1 3.8-8.4c2.4-2.3 5.6-3.6 9-3.5 3.5 0 6.4 1.2 9 3.5a11 11 0 0 1 3.7 8.4c0 3.3-1.3 6.1-3.8 8.4a12.7 12.7 0 0 1-9 3.5ZM1063.6 152.8V99h22V192h-21.3v-16.5h-1a28 28 0 0 1-10.4 12.7c-4.7 3.4-10.6 5-17.6 5a28.2 28.2 0 0 1-27-16c-2.7-5.2-4-11.6-4-19V98.9h22v55.9c0 5.9 1.5 10.6 4.8 14 3.2 3.5 7.4 5.3 12.7 5.3 3.2 0 6.4-.8 9.4-2.4 3-1.6 5.6-4 7.4-7 2-3.2 3-7.1 3-11.8ZM990.3 62l-40 148.7H931L971 62h19.2Z"/>
  <path fill-rule="evenodd" d="M213.7 122.3a8 8 0 0 1 0 11.4l-80 80a8 8 0 0 1-11.4-11.4l80-80a8 8 0 0 1 11.4 0ZM197.7 34.3a8 8 0 0 1 0 11.4l-152 152a8 8 0 0 1-11.4-11.4l152-152a8 8 0 0 1 11.4 0Z" clip-rule="evenodd"/>
  <path d="M857.5 137.5V192h-21.9V98.9h21v15.8h1c2.1-5 5.7-9.4 10.3-12.4 4.7-3 10.6-4.6 17.5-4.6a33 33 0 0 1 16.8 4.1c4.8 2.8 8.7 7 11.2 12 2.6 5.2 4 11.5 3.9 19V192h-22v-55.9c0-6.2-1.5-11-4.8-14.6a17 17 0 0 0-13.3-5.3c-3.8 0-7.2.9-10.2 2.6-3 1.7-5.4 4.2-7 7.2-1.6 3.2-2.5 7-2.5 11.5ZM777.7 193.8a40.9 40.9 0 0 1-39.3-23 55.8 55.8 0 0 1-5.3-25 55 55 0 0 1 5.5-25c3.4-7 8.7-13 15.4-17 6.6-4 14.5-6.1 23.6-6.1a46 46 0 0 1 20 4.2 34.3 34.3 0 0 1 20 29.3h-21a20 20 0 0 0-6-11.3c-3.2-3-7.4-4.5-12.7-4.5-4.2 0-8.4 1.2-11.8 3.6-3.4 2.4-6 5.8-8 10.3a42 42 0 0 0-2.8 16.2c0 6.3 1 11.8 2.8 16.3 1.9 4.5 4.5 8 7.9 10.5a20 20 0 0 0 11.9 3.6c3.2 0 6.1-.6 8.7-1.8 2.5-1.2 4.8-3 6.4-5.4 1.9-2.5 3-5.4 3.6-8.5h21a34.5 34.5 0 0 1-19.5 29.4 45.9 45.9 0 0 1-20.4 4.2ZM664.1 193.6a35.2 35.2 0 0 1-33.3-22 61 61 0 0 1-5-26c0-10.4 1.7-19.1 5-26.2 3.5-7.2 8.1-12.6 14-16.2a35.7 35.7 0 0 1 32.9-2.7c3.2 1.6 6 3.8 8.3 6.6 1.9 2.2 3.5 4.6 4.8 7.2h1V67.9h22V192h-21.6v-14.7h-1.4c-1.3 2.6-3 5-4.9 7.2a27 27 0 0 1-21.8 9.1Zm6.2-18a19 19 0 0 0 11.9-3.7c3.2-2.6 5.7-6.1 7.4-10.6a45 45 0 0 0 2.5-15.8c0-6-.8-11.3-2.5-15.7a22.4 22.4 0 0 0-7.4-10.4 19.1 19.1 0 0 0-12-3.7c-4.8 0-8.9 1.3-12.2 3.8-3.2 2.6-5.7 6-7.4 10.6a44.4 44.4 0 0 0-2.5 15.4c0 5.8.9 11 2.5 15.5 1.7 4.6 4.2 8.1 7.5 10.8 3.3 2.5 7.4 3.8 12.2 3.8ZM558.4 193.9c-5.9 0-11.2-1-16-3.2a26 26 0 0 1-11.1-9.4c-2.7-4.2-4-9.3-4-15.4 0-5.3 1-9.6 2.9-13 1.8-3.4 4.6-6.3 7.9-8.3a40 40 0 0 1 11.3-4.7c4.3-1 8.7-1.9 13.2-2.3l13.3-1.5c3.4-.5 5.8-1.3 7.4-2.2 1.5-1 2.3-2.6 2.3-4.7v-.3c0-4.6-1.4-8.2-4-10.7-2.8-2.5-6.7-3.7-11.8-3.7a21 21 0 0 0-12.7 3.5 17.4 17.4 0 0 0-6.3 8.3l-20.5-2.9a32.7 32.7 0 0 1 21.6-22.8 58.2 58.2 0 0 1 31.2-1.3c4.4 1 8.5 2.7 12.2 5.2 3.7 2.4 6.8 5.8 8.9 9.7 2.2 4.2 3.3 9.3 3.3 15.5V192h-21v-12.8h-.8a26.8 26.8 0 0 1-14.6 12.7c-3.6 1.3-7.9 2-12.7 2Zm5.7-16.1c4.4 0 8.2-1 11.4-2.6 3.1-1.7 5.7-4.1 7.5-7 1.8-3 2.7-6.2 2.7-9.6v-11c-.7.6-1.9 1.1-3.6 1.6a196.3 196.3 0 0 1-11.4 2.3l-5.2.7c-3.2.4-6.2 1.2-8.7 2.2-2.4.8-4.5 2.3-6.2 4.2-1.5 1.8-2.2 4-2.2 7 0 4 1.5 7 4.4 9 3 2.1 6.7 3.2 11.3 3.2ZM448.9 137.5V192h-22V67.9h21.5v46.8h1c2.1-5 5.7-9.4 10.2-12.4a31 31 0 0 1 17.6-4.6c6.4 0 12 1.3 16.9 4 4.8 2.8 8.5 6.7 11.1 12 2.7 5.1 4 11.5 4 19V192h-21.9v-55.9c0-6.2-1.6-11.1-4.9-14.6a17.2 17.2 0 0 0-13.4-5.3c-3.9 0-7.4.9-10.4 2.6-3 1.6-5.5 4.2-7.2 7.2-1.7 3.2-2.5 7-2.5 11.5ZM406.9 123.5l-20 2.2a16 16 0 0 0-8.6-10 20.1 20.1 0 0 0-8.6-1.6c-4.6 0-8.4 1-11.5 3-3 2-4.6 4.5-4.6 7.6a8 8 0 0 0 3 6.6c2 1.7 5.5 3.1 10.2 4.2l15.9 3.4a40 40 0 0 1 19.6 9c4.3 4.2 6.5 9.6 6.6 16.2 0 5.6-1.8 11-5.2 15.5a33 33 0 0 1-14 10.5 53 53 0 0 1-20.6 3.7 47.8 47.8 0 0 1-27.5-7.1 28.8 28.8 0 0 1-12.5-20l21.4-2.2c1 4.2 3 7.4 6.2 9.6 3.2 2.1 7.3 3.2 12.3 3.2 5.2 0 9.4-1.1 12.6-3.2 3.2-2.2 4.8-4.8 4.8-8a8.3 8.3 0 0 0-3.1-6.6c-2-1.7-5.2-3-9.5-4l-15.9-3.3c-8.9-1.9-15.5-5-19.8-9.4a23 23 0 0 1-6.3-16.9c0-5.7 1.5-10.7 4.6-14.9 3.2-4.2 7.6-7.5 13.3-9.8a51.5 51.5 0 0 1 19.7-3.5c10.9 0 19.5 2.3 25.8 7 6.3 4.6 10.2 10.9 11.7 18.8Z"/>
</svg>
