<svg viewBox="0 0 883 293" fill="none" xmlns="http://www.w3.org/2000/svg">
<path d="M74.68 233L0.76 65H26.68L94.6 220.04H79.72L148.12 65H172.12L98.44 233H74.68ZM237.214 234.44C223.614 234.44 211.614 231.64 201.214 226.04C190.974 220.44 182.974 212.76 177.214 203C171.614 193.24 168.814 182.04 168.814 169.4C168.814 156.76 171.534 145.56 176.974 135.8C182.574 126.04 190.174 118.44 199.774 113C209.534 107.4 220.494 104.6 232.654 104.6C244.974 104.6 255.854 107.32 265.294 112.76C274.734 118.2 282.094 125.88 287.374 135.8C292.814 145.56 295.534 157 295.534 170.12C295.534 171.08 295.454 172.2 295.294 173.48C295.294 174.76 295.214 175.96 295.054 177.08H186.814V160.52H283.054L273.694 166.28C273.854 158.12 272.174 150.84 268.654 144.44C265.134 138.04 260.254 133.08 254.014 129.56C247.934 125.88 240.814 124.04 232.654 124.04C224.654 124.04 217.534 125.88 211.294 129.56C205.054 133.08 200.174 138.12 196.654 144.68C193.134 151.08 191.374 158.44 191.374 166.76V170.6C191.374 179.08 193.294 186.68 197.134 193.4C201.134 199.96 206.654 205.08 213.694 208.76C220.734 212.44 228.814 214.28 237.934 214.28C245.454 214.28 252.254 213 258.334 210.44C264.574 207.88 270.014 204.04 274.654 198.92L287.374 213.8C281.614 220.52 274.414 225.64 265.774 229.16C257.294 232.68 247.774 234.44 237.214 234.44ZM383.208 281C371.528 281 360.168 279.32 349.128 275.96C338.248 272.76 329.368 268.12 322.488 262.04L333.528 244.28C339.448 249.4 346.728 253.4 355.368 256.28C364.008 259.32 373.048 260.84 382.488 260.84C397.528 260.84 408.568 257.32 415.608 250.28C422.648 243.24 426.168 232.52 426.168 218.12V191.24L428.568 166.04L427.368 140.6V105.8H449.208V215.72C449.208 238.12 443.608 254.6 432.407 265.16C421.208 275.72 404.808 281 383.208 281ZM380.328 227.72C368.008 227.72 356.968 225.16 347.208 220.04C337.608 214.76 329.928 207.48 324.168 198.2C318.568 188.92 315.768 178.2 315.768 166.04C315.768 153.72 318.568 143 324.168 133.88C329.928 124.6 337.608 117.4 347.208 112.28C356.968 107.16 368.008 104.6 380.328 104.6C391.208 104.6 401.128 106.84 410.088 111.32C419.048 115.64 426.168 122.36 431.448 131.48C436.888 140.6 439.608 152.12 439.608 166.04C439.608 179.8 436.888 191.24 431.448 200.36C426.168 209.48 419.048 216.36 410.088 221C401.128 225.48 391.208 227.72 380.328 227.72ZM382.968 207.56C391.448 207.56 398.968 205.8 405.528 202.28C412.088 198.76 417.208 193.88 420.888 187.64C424.728 181.4 426.648 174.2 426.648 166.04C426.648 157.88 424.728 150.68 420.888 144.44C417.208 138.2 412.088 133.4 405.528 130.04C398.968 126.52 391.448 124.76 382.968 124.76C374.488 124.76 366.888 126.52 360.168 130.04C353.608 133.4 348.408 138.2 344.568 144.44C340.888 150.68 339.048 157.88 339.048 166.04C339.048 174.2 340.888 181.4 344.568 187.64C348.408 193.88 353.608 198.76 360.168 202.28C366.888 205.8 374.488 207.56 382.968 207.56ZM572.191 233V206.12L570.991 201.08V155.24C570.991 145.48 568.111 137.96 562.351 132.68C556.751 127.24 548.271 124.52 536.911 124.52C529.391 124.52 522.031 125.8 514.831 128.36C507.631 130.76 501.551 134.04 496.591 138.2L486.991 120.92C493.551 115.64 501.391 111.64 510.511 108.92C519.791 106.04 529.471 104.6 539.551 104.6C556.991 104.6 570.431 108.84 579.871 117.32C589.311 125.8 594.031 138.76 594.031 156.2V233H572.191ZM530.431 234.44C520.991 234.44 512.671 232.84 505.471 229.64C498.431 226.44 492.991 222.04 489.151 216.44C485.311 210.68 483.391 204.2 483.391 197C483.391 190.12 484.991 183.88 488.191 178.28C491.551 172.68 496.911 168.2 504.271 164.84C511.791 161.48 521.871 159.8 534.511 159.8H574.831V176.36H535.471C523.951 176.36 516.191 178.28 512.191 182.12C508.191 185.96 506.191 190.6 506.191 196.04C506.191 202.28 508.671 207.32 513.631 211.16C518.591 214.84 525.471 216.68 534.271 216.68C542.911 216.68 550.431 214.76 556.831 210.92C563.391 207.08 568.111 201.48 570.991 194.12L575.551 209.96C572.511 217.48 567.151 223.48 559.471 227.96C551.791 232.28 542.111 234.44 530.431 234.44ZM709.388 235.88C685.548 235.88 666.908 229.24 653.468 215.96C640.028 202.68 633.308 183.72 633.308 159.08V65H672.188V157.64C672.188 173.64 675.468 185.16 682.028 192.2C688.588 199.24 697.788 202.76 709.628 202.76C721.468 202.76 730.668 199.24 737.228 192.2C743.788 185.16 747.068 173.64 747.068 157.64V65H785.468V159.08C785.468 183.72 778.748 202.68 765.308 215.96C751.868 229.24 733.228 235.88 709.388 235.88ZM823.889 233V65H862.769V233H823.889Z" fill="url(#paint0_linear_2751_5954)"/>
<path d="M500.376 287V274.4H502.08V287H500.376ZM501.24 271.616C500.888 271.616 500.592 271.496 500.352 271.256C500.112 271.016 499.992 270.728 499.992 270.392C499.992 270.056 500.112 269.776 500.352 269.552C500.592 269.312 500.888 269.192 501.24 269.192C501.592 269.192 501.888 269.304 502.128 269.528C502.368 269.752 502.488 270.032 502.488 270.368C502.488 270.72 502.368 271.016 502.128 271.256C501.904 271.496 501.608 271.616 501.24 271.616ZM513.253 274.28C514.277 274.28 515.173 274.48 515.941 274.88C516.725 275.264 517.333 275.856 517.765 276.656C518.213 277.456 518.437 278.464 518.437 279.68V287H516.733V279.848C516.733 278.52 516.397 277.52 515.725 276.848C515.069 276.16 514.141 275.816 512.941 275.816C512.045 275.816 511.261 276 510.589 276.368C509.933 276.72 509.421 277.24 509.053 277.928C508.701 278.6 508.525 279.416 508.525 280.376V287H506.821V274.4H508.453V277.856L508.189 277.208C508.589 276.296 509.229 275.584 510.109 275.072C510.989 274.544 512.037 274.28 513.253 274.28ZM526.424 287.12C525.384 287.12 524.4 286.976 523.472 286.688C522.544 286.384 521.816 286.008 521.288 285.56L522.056 284.216C522.568 284.6 523.224 284.936 524.024 285.224C524.824 285.496 525.664 285.632 526.544 285.632C527.744 285.632 528.608 285.448 529.136 285.08C529.664 284.696 529.928 284.192 529.928 283.568C529.928 283.104 529.776 282.744 529.472 282.488C529.184 282.216 528.8 282.016 528.32 281.888C527.84 281.744 527.304 281.624 526.712 281.528C526.12 281.432 525.528 281.32 524.936 281.192C524.36 281.064 523.832 280.88 523.352 280.64C522.872 280.384 522.48 280.04 522.176 279.608C521.888 279.176 521.744 278.6 521.744 277.88C521.744 277.192 521.936 276.576 522.32 276.032C522.704 275.488 523.264 275.064 524 274.76C524.752 274.44 525.664 274.28 526.736 274.28C527.552 274.28 528.368 274.392 529.184 274.616C530 274.824 530.672 275.104 531.2 275.456L530.456 276.824C529.896 276.44 529.296 276.168 528.656 276.008C528.016 275.832 527.376 275.744 526.736 275.744C525.6 275.744 524.76 275.944 524.216 276.344C523.688 276.728 523.424 277.224 523.424 277.832C523.424 278.312 523.568 278.688 523.856 278.96C524.16 279.232 524.552 279.448 525.032 279.608C525.528 279.752 526.064 279.872 526.64 279.968C527.232 280.064 527.816 280.184 528.392 280.328C528.984 280.456 529.52 280.64 530 280.88C530.496 281.104 530.888 281.432 531.176 281.864C531.48 282.28 531.632 282.832 531.632 283.52C531.632 284.256 531.424 284.896 531.008 285.44C530.608 285.968 530.016 286.384 529.232 286.688C528.464 286.976 527.528 287.12 526.424 287.12ZM541.263 287.12C540.175 287.12 539.191 286.872 538.311 286.376C537.431 285.864 536.727 285.136 536.199 284.192C535.687 283.232 535.431 282.064 535.431 280.688C535.431 279.312 535.687 278.152 536.199 277.208C536.711 276.248 537.407 275.52 538.287 275.024C539.167 274.528 540.159 274.28 541.263 274.28C542.463 274.28 543.535 274.552 544.479 275.096C545.439 275.624 546.191 276.376 546.735 277.352C547.279 278.312 547.551 279.424 547.551 280.688C547.551 281.968 547.279 283.088 546.735 284.048C546.191 285.008 545.439 285.76 544.479 286.304C543.535 286.848 542.463 287.12 541.263 287.12ZM534.759 291.656V274.4H536.391V278.192L536.223 280.712L536.463 283.256V291.656H534.759ZM541.143 285.608C542.039 285.608 542.839 285.408 543.543 285.008C544.247 284.592 544.807 284.016 545.223 283.28C545.639 282.528 545.847 281.664 545.847 280.688C545.847 279.712 545.639 278.856 545.223 278.12C544.807 277.384 544.247 276.808 543.543 276.392C542.839 275.976 542.039 275.768 541.143 275.768C540.247 275.768 539.439 275.976 538.719 276.392C538.015 276.808 537.455 277.384 537.039 278.12C536.639 278.856 536.439 279.712 536.439 280.688C536.439 281.664 536.639 282.528 537.039 283.28C537.455 284.016 538.015 284.592 538.719 285.008C539.439 285.408 540.247 285.608 541.143 285.608ZM551.024 287V274.4H552.728V287H551.024ZM551.888 271.616C551.536 271.616 551.24 271.496 551 271.256C550.76 271.016 550.64 270.728 550.64 270.392C550.64 270.056 550.76 269.776 551 269.552C551.24 269.312 551.536 269.192 551.888 269.192C552.24 269.192 552.536 269.304 552.776 269.528C553.016 269.752 553.136 270.032 553.136 270.368C553.136 270.72 553.016 271.016 552.776 271.256C552.552 271.496 552.256 271.616 551.888 271.616ZM557.47 287V274.4H559.102V277.832L558.934 277.232C559.286 276.272 559.878 275.544 560.71 275.048C561.542 274.536 562.574 274.28 563.806 274.28V275.936C563.742 275.936 563.678 275.936 563.614 275.936C563.55 275.92 563.486 275.912 563.422 275.912C562.094 275.912 561.054 276.32 560.302 277.136C559.55 277.936 559.174 279.08 559.174 280.568V287H557.47ZM572.15 287.12C570.838 287.12 569.686 286.848 568.694 286.304C567.702 285.744 566.926 284.984 566.366 284.024C565.806 283.048 565.526 281.936 565.526 280.688C565.526 279.44 565.79 278.336 566.318 277.376C566.862 276.416 567.598 275.664 568.526 275.12C569.47 274.56 570.526 274.28 571.694 274.28C572.878 274.28 573.926 274.552 574.838 275.096C575.766 275.624 576.494 276.376 577.022 277.352C577.55 278.312 577.814 279.424 577.814 280.688C577.814 280.768 577.806 280.856 577.79 280.952C577.79 281.032 577.79 281.12 577.79 281.216H566.822V279.944H576.878L576.206 280.448C576.206 279.536 576.006 278.728 575.606 278.024C575.222 277.304 574.694 276.744 574.022 276.344C573.35 275.944 572.574 275.744 571.694 275.744C570.83 275.744 570.054 275.944 569.366 276.344C568.678 276.744 568.142 277.304 567.758 278.024C567.374 278.744 567.182 279.568 567.182 280.496V280.76C567.182 281.72 567.39 282.568 567.806 283.304C568.238 284.024 568.83 284.592 569.582 285.008C570.35 285.408 571.222 285.608 572.198 285.608C572.966 285.608 573.678 285.472 574.334 285.2C575.006 284.928 575.582 284.512 576.062 283.952L577.022 285.056C576.462 285.728 575.758 286.24 574.91 286.592C574.078 286.944 573.158 287.12 572.15 287.12ZM586.298 287.12C585.098 287.12 584.018 286.848 583.058 286.304C582.114 285.76 581.37 285.008 580.826 284.048C580.282 283.072 580.01 281.952 580.01 280.688C580.01 279.408 580.282 278.288 580.826 277.328C581.37 276.368 582.114 275.624 583.058 275.096C584.018 274.552 585.098 274.28 586.298 274.28C587.402 274.28 588.386 274.528 589.25 275.024C590.13 275.52 590.826 276.248 591.338 277.208C591.866 278.152 592.13 279.312 592.13 280.688C592.13 282.048 591.874 283.208 591.362 284.168C590.85 285.128 590.154 285.864 589.274 286.376C588.41 286.872 587.418 287.12 586.298 287.12ZM586.418 285.608C587.314 285.608 588.114 285.408 588.818 285.008C589.538 284.592 590.098 284.016 590.498 283.28C590.914 282.528 591.122 281.664 591.122 280.688C591.122 279.696 590.914 278.832 590.498 278.096C590.098 277.36 589.538 276.792 588.818 276.392C588.114 275.976 587.314 275.768 586.418 275.768C585.538 275.768 584.746 275.976 584.042 276.392C583.338 276.792 582.778 277.36 582.362 278.096C581.946 278.832 581.738 279.696 581.738 280.688C581.738 281.664 581.946 282.528 582.362 283.28C582.778 284.016 583.338 284.592 584.042 285.008C584.746 285.408 585.538 285.608 586.418 285.608ZM591.17 287V283.208L591.338 280.664L591.098 278.12V269.192H592.802V287H591.17ZM610.333 287.12C609.229 287.12 608.237 286.872 607.357 286.376C606.477 285.864 605.781 285.128 605.269 284.168C604.757 283.208 604.501 282.048 604.501 280.688C604.501 279.312 604.757 278.152 605.269 277.208C605.797 276.248 606.501 275.52 607.381 275.024C608.261 274.528 609.245 274.28 610.333 274.28C611.533 274.28 612.605 274.552 613.549 275.096C614.509 275.624 615.261 276.368 615.805 277.328C616.349 278.288 616.621 279.408 616.621 280.688C616.621 281.952 616.349 283.072 615.805 284.048C615.261 285.008 614.509 285.76 613.549 286.304C612.605 286.848 611.533 287.12 610.333 287.12ZM603.829 287V269.192H605.533V278.12L605.293 280.664L605.461 283.208V287H603.829ZM610.213 285.608C611.109 285.608 611.909 285.408 612.613 285.008C613.317 284.592 613.877 284.016 614.293 283.28C614.709 282.528 614.917 281.664 614.917 280.688C614.917 279.696 614.709 278.832 614.293 278.096C613.877 277.36 613.317 276.792 612.613 276.392C611.909 275.976 611.109 275.768 610.213 275.768C609.317 275.768 608.509 275.976 607.789 276.392C607.085 276.792 606.525 277.36 606.109 278.096C605.709 278.832 605.509 279.696 605.509 280.688C605.509 281.664 605.709 282.528 606.109 283.28C606.525 284.016 607.085 284.592 607.789 285.008C608.509 285.408 609.317 285.608 610.213 285.608ZM619.839 291.776C619.247 291.776 618.679 291.68 618.135 291.488C617.607 291.296 617.151 291.008 616.767 290.624L617.559 289.352C617.879 289.656 618.223 289.888 618.591 290.048C618.975 290.224 619.399 290.312 619.863 290.312C620.423 290.312 620.903 290.152 621.303 289.832C621.719 289.528 622.111 288.984 622.479 288.2L623.295 286.352L623.487 286.088L628.671 274.4H630.351L624.039 288.512C623.687 289.328 623.295 289.976 622.863 290.456C622.447 290.936 621.991 291.272 621.495 291.464C620.999 291.672 620.447 291.776 619.839 291.776ZM623.199 287.36L617.391 274.4H619.167L624.303 285.968L623.199 287.36ZM643.016 287.12C641.832 287.12 640.92 286.8 640.28 286.16C639.64 285.52 639.32 284.616 639.32 283.448V271.616H641.024V283.352C641.024 284.088 641.208 284.656 641.576 285.056C641.96 285.456 642.504 285.656 643.208 285.656C643.96 285.656 644.584 285.44 645.08 285.008L645.68 286.232C645.344 286.536 644.936 286.76 644.456 286.904C643.992 287.048 643.512 287.12 643.016 287.12ZM637.064 275.816V274.4H644.864V275.816H637.064ZM655.214 274.28C656.238 274.28 657.134 274.48 657.902 274.88C658.686 275.264 659.294 275.856 659.726 276.656C660.174 277.456 660.398 278.464 660.398 279.68V287H658.694V279.848C658.694 278.52 658.358 277.52 657.686 276.848C657.03 276.16 656.102 275.816 654.902 275.816C654.006 275.816 653.222 276 652.55 276.368C651.894 276.72 651.382 277.24 651.014 277.928C650.662 278.6 650.486 279.416 650.486 280.376V287H648.782V269.192H650.486V277.856L650.15 277.208C650.55 276.296 651.19 275.584 652.07 275.072C652.95 274.544 653.998 274.28 655.214 274.28ZM670.353 287.12C669.041 287.12 667.889 286.848 666.897 286.304C665.905 285.744 665.129 284.984 664.569 284.024C664.009 283.048 663.729 281.936 663.729 280.688C663.729 279.44 663.993 278.336 664.521 277.376C665.065 276.416 665.801 275.664 666.729 275.12C667.673 274.56 668.729 274.28 669.897 274.28C671.081 274.28 672.129 274.552 673.041 275.096C673.969 275.624 674.697 276.376 675.225 277.352C675.753 278.312 676.017 279.424 676.017 280.688C676.017 280.768 676.009 280.856 675.993 280.952C675.993 281.032 675.993 281.12 675.993 281.216H665.025V279.944H675.081L674.409 280.448C674.409 279.536 674.209 278.728 673.809 278.024C673.425 277.304 672.897 276.744 672.225 276.344C671.553 275.944 670.777 275.744 669.897 275.744C669.033 275.744 668.257 275.944 667.569 276.344C666.881 276.744 666.345 277.304 665.961 278.024C665.577 278.744 665.385 279.568 665.385 280.496V280.76C665.385 281.72 665.593 282.568 666.009 283.304C666.441 284.024 667.033 284.592 667.785 285.008C668.553 285.408 669.425 285.608 670.401 285.608C671.169 285.608 671.881 285.472 672.537 285.2C673.209 284.928 673.785 284.512 674.265 283.952L675.225 285.056C674.665 285.728 673.961 286.24 673.113 286.592C672.281 286.944 671.361 287.12 670.353 287.12ZM690.783 287.12C689.583 287.12 688.503 286.848 687.543 286.304C686.599 285.76 685.855 285.008 685.311 284.048C684.767 283.072 684.495 281.952 684.495 280.688C684.495 279.408 684.767 278.288 685.311 277.328C685.855 276.368 686.599 275.624 687.543 275.096C688.503 274.552 689.583 274.28 690.783 274.28C691.887 274.28 692.871 274.528 693.735 275.024C694.615 275.52 695.311 276.248 695.823 277.208C696.351 278.152 696.615 279.312 696.615 280.688C696.615 282.048 696.359 283.208 695.847 284.168C695.335 285.128 694.639 285.864 693.759 286.376C692.895 286.872 691.903 287.12 690.783 287.12ZM690.903 285.608C691.799 285.608 692.599 285.408 693.303 285.008C694.023 284.592 694.583 284.016 694.983 283.28C695.399 282.528 695.607 281.664 695.607 280.688C695.607 279.696 695.399 278.832 694.983 278.096C694.583 277.36 694.023 276.792 693.303 276.392C692.599 275.976 691.799 275.768 690.903 275.768C690.023 275.768 689.231 275.976 688.527 276.392C687.823 276.792 687.263 277.36 686.847 278.096C686.431 278.832 686.223 279.696 686.223 280.688C686.223 281.664 686.431 282.528 686.847 283.28C687.263 284.016 687.823 284.592 688.527 285.008C689.231 285.408 690.023 285.608 690.903 285.608ZM695.655 287V283.208L695.823 280.664L695.583 278.12V269.192H697.287V287H695.655ZM702.032 287V274.4H703.736V287H702.032ZM702.896 271.616C702.544 271.616 702.248 271.496 702.008 271.256C701.768 271.016 701.648 270.728 701.648 270.392C701.648 270.056 701.768 269.776 702.008 269.552C702.248 269.312 702.544 269.192 702.896 269.192C703.248 269.192 703.544 269.304 703.784 269.528C704.024 269.752 704.144 270.032 704.144 270.368C704.144 270.72 704.024 271.016 703.784 271.256C703.56 271.496 703.264 271.616 702.896 271.616ZM711.862 287.12C710.822 287.12 709.838 286.976 708.91 286.688C707.982 286.384 707.254 286.008 706.726 285.56L707.494 284.216C708.006 284.6 708.662 284.936 709.462 285.224C710.262 285.496 711.102 285.632 711.982 285.632C713.182 285.632 714.046 285.448 714.574 285.08C715.102 284.696 715.366 284.192 715.366 283.568C715.366 283.104 715.214 282.744 714.91 282.488C714.622 282.216 714.238 282.016 713.758 281.888C713.278 281.744 712.742 281.624 712.15 281.528C711.558 281.432 710.966 281.32 710.374 281.192C709.798 281.064 709.27 280.88 708.79 280.64C708.31 280.384 707.918 280.04 707.614 279.608C707.326 279.176 707.182 278.6 707.182 277.88C707.182 277.192 707.374 276.576 707.758 276.032C708.142 275.488 708.702 275.064 709.438 274.76C710.19 274.44 711.102 274.28 712.174 274.28C712.99 274.28 713.806 274.392 714.622 274.616C715.438 274.824 716.11 275.104 716.638 275.456L715.894 276.824C715.334 276.44 714.734 276.168 714.094 276.008C713.454 275.832 712.814 275.744 712.174 275.744C711.038 275.744 710.198 275.944 709.654 276.344C709.126 276.728 708.862 277.224 708.862 277.832C708.862 278.312 709.006 278.688 709.294 278.96C709.598 279.232 709.99 279.448 710.47 279.608C710.966 279.752 711.502 279.872 712.078 279.968C712.67 280.064 713.254 280.184 713.83 280.328C714.422 280.456 714.958 280.64 715.438 280.88C715.934 281.104 716.326 281.432 716.614 281.864C716.918 282.28 717.07 282.832 717.07 283.52C717.07 284.256 716.862 284.896 716.446 285.44C716.046 285.968 715.454 286.384 714.67 286.688C713.902 286.976 712.966 287.12 711.862 287.12ZM724.18 287.12C722.996 287.12 722.084 286.8 721.444 286.16C720.804 285.52 720.484 284.616 720.484 283.448V271.616H722.188V283.352C722.188 284.088 722.372 284.656 722.74 285.056C723.124 285.456 723.668 285.656 724.372 285.656C725.124 285.656 725.748 285.44 726.244 285.008L726.844 286.232C726.508 286.536 726.1 286.76 725.62 286.904C725.156 287.048 724.676 287.12 724.18 287.12ZM718.228 275.816V274.4H726.028V275.816H718.228ZM737.842 287V284.216L737.77 283.76V279.104C737.77 278.032 737.466 277.208 736.858 276.632C736.266 276.056 735.378 275.768 734.194 275.768C733.378 275.768 732.602 275.904 731.866 276.176C731.13 276.448 730.506 276.808 729.994 277.256L729.226 275.984C729.866 275.44 730.634 275.024 731.53 274.736C732.426 274.432 733.37 274.28 734.362 274.28C735.994 274.28 737.25 274.688 738.13 275.504C739.026 276.304 739.474 277.528 739.474 279.176V287H737.842ZM733.498 287.12C732.554 287.12 731.73 286.968 731.026 286.664C730.338 286.344 729.81 285.912 729.442 285.368C729.074 284.808 728.89 284.168 728.89 283.448C728.89 282.792 729.042 282.2 729.346 281.672C729.666 281.128 730.178 280.696 730.882 280.376C731.602 280.04 732.562 279.872 733.762 279.872H738.106V281.144H733.81C732.594 281.144 731.746 281.36 731.266 281.792C730.802 282.224 730.57 282.76 730.57 283.4C730.57 284.12 730.85 284.696 731.41 285.128C731.97 285.56 732.754 285.776 733.762 285.776C734.722 285.776 735.546 285.56 736.234 285.128C736.938 284.68 737.45 284.04 737.77 283.208L738.154 284.384C737.834 285.216 737.274 285.88 736.474 286.376C735.69 286.872 734.698 287.12 733.498 287.12ZM750.535 274.28C751.559 274.28 752.455 274.48 753.223 274.88C754.007 275.264 754.615 275.856 755.047 276.656C755.495 277.456 755.719 278.464 755.719 279.68V287H754.015V279.848C754.015 278.52 753.679 277.52 753.007 276.848C752.351 276.16 751.423 275.816 750.223 275.816C749.327 275.816 748.543 276 747.871 276.368C747.215 276.72 746.703 277.24 746.335 277.928C745.983 278.6 745.807 279.416 745.807 280.376V287H744.103V274.4H745.735V277.856L745.471 277.208C745.871 276.296 746.511 275.584 747.391 275.072C748.271 274.544 749.319 274.28 750.535 274.28ZM764.305 287.12C763.121 287.12 762.209 286.8 761.569 286.16C760.929 285.52 760.609 284.616 760.609 283.448V271.616H762.313V283.352C762.313 284.088 762.497 284.656 762.865 285.056C763.249 285.456 763.793 285.656 764.497 285.656C765.249 285.656 765.873 285.44 766.369 285.008L766.969 286.232C766.633 286.536 766.225 286.76 765.745 286.904C765.281 287.048 764.801 287.12 764.305 287.12ZM758.353 275.816V274.4H766.153V275.816H758.353ZM781.585 287.12C780.337 287.12 779.217 286.848 778.225 286.304C777.249 285.744 776.481 284.984 775.921 284.024C775.361 283.048 775.081 281.936 775.081 280.688C775.081 279.424 775.361 278.312 775.921 277.352C776.481 276.392 777.249 275.64 778.225 275.096C779.217 274.552 780.337 274.28 781.585 274.28C782.657 274.28 783.625 274.488 784.489 274.904C785.353 275.32 786.033 275.944 786.529 276.776L785.257 277.64C784.825 277 784.289 276.528 783.649 276.224C783.009 275.92 782.313 275.768 781.561 275.768C780.665 275.768 779.857 275.976 779.137 276.392C778.417 276.792 777.849 277.36 777.433 278.096C777.017 278.832 776.809 279.696 776.809 280.688C776.809 281.68 777.017 282.544 777.433 283.28C777.849 284.016 778.417 284.592 779.137 285.008C779.857 285.408 780.665 285.608 781.561 285.608C782.313 285.608 783.009 285.456 783.649 285.152C784.289 284.848 784.825 284.384 785.257 283.76L786.529 284.624C786.033 285.44 785.353 286.064 784.489 286.496C783.625 286.912 782.657 287.12 781.585 287.12ZM794.801 287.12C793.585 287.12 792.489 286.848 791.513 286.304C790.553 285.744 789.793 284.984 789.233 284.024C788.673 283.048 788.393 281.936 788.393 280.688C788.393 279.424 788.673 278.312 789.233 277.352C789.793 276.392 790.553 275.64 791.513 275.096C792.473 274.552 793.569 274.28 794.801 274.28C796.049 274.28 797.153 274.552 798.113 275.096C799.089 275.64 799.849 276.392 800.393 277.352C800.953 278.312 801.233 279.424 801.233 280.688C801.233 281.936 800.953 283.048 800.393 284.024C799.849 284.984 799.089 285.744 798.113 286.304C797.137 286.848 796.033 287.12 794.801 287.12ZM794.801 285.608C795.713 285.608 796.521 285.408 797.225 285.008C797.929 284.592 798.481 284.016 798.881 283.28C799.297 282.528 799.505 281.664 799.505 280.688C799.505 279.696 799.297 278.832 798.881 278.096C798.481 277.36 797.929 276.792 797.225 276.392C796.521 275.976 795.721 275.768 794.825 275.768C793.929 275.768 793.129 275.976 792.425 276.392C791.721 276.792 791.161 277.36 790.745 278.096C790.329 278.832 790.121 279.696 790.121 280.688C790.121 281.664 790.329 282.528 790.745 283.28C791.161 284.016 791.721 284.592 792.425 285.008C793.129 285.408 793.921 285.608 794.801 285.608ZM808.096 287.12C807.056 287.12 806.072 286.976 805.144 286.688C804.216 286.384 803.488 286.008 802.96 285.56L803.728 284.216C804.24 284.6 804.896 284.936 805.696 285.224C806.496 285.496 807.336 285.632 808.216 285.632C809.416 285.632 810.28 285.448 810.808 285.08C811.336 284.696 811.6 284.192 811.6 283.568C811.6 283.104 811.448 282.744 811.144 282.488C810.856 282.216 810.472 282.016 809.992 281.888C809.512 281.744 808.976 281.624 808.384 281.528C807.792 281.432 807.2 281.32 806.608 281.192C806.032 281.064 805.504 280.88 805.024 280.64C804.544 280.384 804.152 280.04 803.848 279.608C803.56 279.176 803.416 278.6 803.416 277.88C803.416 277.192 803.608 276.576 803.992 276.032C804.376 275.488 804.936 275.064 805.672 274.76C806.424 274.44 807.336 274.28 808.408 274.28C809.224 274.28 810.04 274.392 810.856 274.616C811.672 274.824 812.344 275.104 812.872 275.456L812.128 276.824C811.568 276.44 810.968 276.168 810.328 276.008C809.688 275.832 809.048 275.744 808.408 275.744C807.272 275.744 806.432 275.944 805.888 276.344C805.36 276.728 805.096 277.224 805.096 277.832C805.096 278.312 805.24 278.688 805.528 278.96C805.832 279.232 806.224 279.448 806.704 279.608C807.2 279.752 807.736 279.872 808.312 279.968C808.904 280.064 809.488 280.184 810.064 280.328C810.656 280.456 811.192 280.64 811.672 280.88C812.168 281.104 812.56 281.432 812.848 281.864C813.152 282.28 813.304 282.832 813.304 283.52C813.304 284.256 813.096 284.896 812.68 285.44C812.28 285.968 811.688 286.384 810.904 286.688C810.136 286.976 809.2 287.12 808.096 287.12ZM832.175 274.28C833.199 274.28 834.087 274.48 834.839 274.88C835.607 275.264 836.199 275.856 836.615 276.656C837.047 277.456 837.263 278.464 837.263 279.68V287H835.559V279.848C835.559 278.52 835.239 277.52 834.599 276.848C833.975 276.16 833.087 275.816 831.935 275.816C831.071 275.816 830.319 276 829.679 276.368C829.055 276.72 828.567 277.24 828.215 277.928C827.879 278.6 827.711 279.416 827.711 280.376V287H826.007V279.848C826.007 278.52 825.687 277.52 825.047 276.848C824.407 276.16 823.511 275.816 822.359 275.816C821.511 275.816 820.767 276 820.127 276.368C819.487 276.72 818.991 277.24 818.639 277.928C818.303 278.6 818.135 279.416 818.135 280.376V287H816.431V274.4H818.063V277.808L817.799 277.208C818.183 276.296 818.799 275.584 819.647 275.072C820.511 274.544 821.527 274.28 822.695 274.28C823.927 274.28 824.975 274.592 825.839 275.216C826.703 275.824 827.263 276.744 827.519 277.976L826.847 277.712C827.215 276.688 827.863 275.864 828.791 275.24C829.735 274.6 830.863 274.28 832.175 274.28ZM847.02 287.12C845.804 287.12 844.708 286.848 843.732 286.304C842.772 285.744 842.012 284.984 841.452 284.024C840.892 283.048 840.612 281.936 840.612 280.688C840.612 279.424 840.892 278.312 841.452 277.352C842.012 276.392 842.772 275.64 843.732 275.096C844.692 274.552 845.788 274.28 847.02 274.28C848.268 274.28 849.372 274.552 850.332 275.096C851.308 275.64 852.068 276.392 852.612 277.352C853.172 278.312 853.452 279.424 853.452 280.688C853.452 281.936 853.172 283.048 852.612 284.024C852.068 284.984 851.308 285.744 850.332 286.304C849.356 286.848 848.252 287.12 847.02 287.12ZM847.02 285.608C847.932 285.608 848.74 285.408 849.444 285.008C850.148 284.592 850.7 284.016 851.1 283.28C851.516 282.528 851.724 281.664 851.724 280.688C851.724 279.696 851.516 278.832 851.1 278.096C850.7 277.36 850.148 276.792 849.444 276.392C848.74 275.976 847.94 275.768 847.044 275.768C846.148 275.768 845.348 275.976 844.644 276.392C843.94 276.792 843.38 277.36 842.964 278.096C842.548 278.832 842.34 279.696 842.34 280.688C842.34 281.664 842.548 282.528 842.964 283.28C843.38 284.016 843.94 284.592 844.644 285.008C845.348 285.408 846.14 285.608 847.02 285.608ZM860.315 287.12C859.275 287.12 858.291 286.976 857.363 286.688C856.435 286.384 855.707 286.008 855.179 285.56L855.947 284.216C856.459 284.6 857.115 284.936 857.915 285.224C858.715 285.496 859.555 285.632 860.435 285.632C861.635 285.632 862.499 285.448 863.027 285.08C863.555 284.696 863.819 284.192 863.819 283.568C863.819 283.104 863.667 282.744 863.363 282.488C863.075 282.216 862.691 282.016 862.211 281.888C861.731 281.744 861.195 281.624 860.603 281.528C860.011 281.432 859.419 281.32 858.827 281.192C858.251 281.064 857.723 280.88 857.243 280.64C856.763 280.384 856.371 280.04 856.067 279.608C855.779 279.176 855.635 278.6 855.635 277.88C855.635 277.192 855.827 276.576 856.211 276.032C856.595 275.488 857.155 275.064 857.891 274.76C858.643 274.44 859.555 274.28 860.627 274.28C861.443 274.28 862.259 274.392 863.075 274.616C863.891 274.824 864.563 275.104 865.091 275.456L864.347 276.824C863.787 276.44 863.187 276.168 862.547 276.008C861.907 275.832 861.267 275.744 860.627 275.744C859.491 275.744 858.651 275.944 858.107 276.344C857.579 276.728 857.315 277.224 857.315 277.832C857.315 278.312 857.459 278.688 857.747 278.96C858.051 279.232 858.443 279.448 858.923 279.608C859.419 279.752 859.955 279.872 860.531 279.968C861.123 280.064 861.707 280.184 862.283 280.328C862.875 280.456 863.411 280.64 863.891 280.88C864.387 281.104 864.779 281.432 865.067 281.864C865.371 282.28 865.523 282.832 865.523 283.52C865.523 284.256 865.315 284.896 864.899 285.44C864.499 285.968 863.907 286.384 863.123 286.688C862.355 286.976 861.419 287.12 860.315 287.12Z" fill="#F3F5F7"/>
<defs>
<linearGradient id="paint0_linear_2751_5954" x1="1" y1="146.5" x2="883" y2="146.5" gradientUnits="userSpaceOnUse">
<stop stop-color="#EDEEEF"/>
<stop offset="0.5" stop-color="#8C99A9"/>
<stop offset="0.55" stop-color="#77879A"/>
<stop offset="1" stop-color="#616E7D"/>
</linearGradient>
</defs>
</svg>
