<svg xmlns="http://www.w3.org/2000/svg" fill="none" viewBox="0 0 118 24">
  <path fill="#fff" d="M74.202 18.17c-.875 0-1.63-.181-2.267-.545a3.694 3.694 0 0 1-1.46-1.557c-.341-.674-.512-1.468-.512-2.38 0-.898.17-1.686.512-2.364a3.867 3.867 0 0 1 1.443-1.591c.617-.383 1.342-.574 2.176-.574.538 0 1.045.087 1.523.261.48.17.905.436 1.272.796.371.36.663.818.875 1.375.212.553.319 1.212.319 1.977v.63h-7.154v-1.386h5.182a2.213 2.213 0 0 0-.256-1.05c-.166-.311-.4-.556-.699-.734a1.964 1.964 0 0 0-1.034-.267c-.42 0-.79.103-1.108.307-.318.2-.566.466-.744.796a2.289 2.289 0 0 0-.267 1.073v1.21c0 .508.093.944.278 1.307.186.36.445.637.779.83.333.19.723.284 1.17.284.3 0 .57-.042.813-.125.242-.087.452-.214.63-.38.178-.167.313-.374.404-.62l1.92.216c-.121.508-.352.95-.693 1.33a3.379 3.379 0 0 1-1.295.875c-.527.204-1.13.306-1.807.306Z"/>
  <path fill="#fff" d="M63.498 18.153c-.685 0-1.299-.176-1.84-.528-.542-.352-.97-.864-1.285-1.534-.314-.67-.471-1.485-.471-2.443 0-.97.159-1.788.477-2.455.322-.67.756-1.176 1.301-1.517a3.344 3.344 0 0 1 1.824-.517c.512 0 .932.087 1.262.261.329.17.59.377.784.62.193.238.342.464.448.676h.086V6.364h2.062V18h-2.023v-1.375h-.125c-.106.212-.259.438-.46.676a2.53 2.53 0 0 1-.795.602c-.33.167-.745.25-1.245.25Zm.574-1.687c.436 0 .807-.117 1.114-.352.307-.239.54-.57.699-.995.159-.424.238-.918.238-1.483 0-.564-.08-1.055-.238-1.471-.156-.417-.387-.74-.693-.972-.303-.23-.676-.346-1.12-.346-.458 0-.84.119-1.147.358-.307.238-.538.568-.694.988-.155.42-.233.902-.233 1.443 0 .546.078 1.033.233 1.46.16.425.392.76.7 1.006.31.243.69.364 1.141.364Z"/>
  <path fill="#fff" d="M56.088 18V9.273h2.057V18h-2.057Zm1.034-9.966a1.2 1.2 0 0 1-.84-.324 1.044 1.044 0 0 1-.353-.79c0-.31.117-.573.352-.79.235-.219.515-.329.841-.329.33 0 .61.11.841.33.235.216.352.479.352.79 0 .306-.117.57-.352.79a1.187 1.187 0 0 1-.84.323Z"/>
  <path fill="#fff" d="M50.66 18.17c-.87 0-1.619-.19-2.244-.573a3.831 3.831 0 0 1-1.437-1.586c-.334-.678-.5-1.458-.5-2.34 0-.887.17-1.67.511-2.347a3.817 3.817 0 0 1 1.443-1.591c.625-.383 1.364-.574 2.216-.574.709 0 1.335.13 1.88.392.55.258.988.623 1.313 1.097.326.47.512 1.019.557 1.647h-1.966c-.08-.42-.269-.77-.568-1.05-.295-.285-.691-.427-1.187-.427-.42 0-.79.114-1.108.341-.319.223-.567.545-.745.966-.174.42-.261.924-.261 1.511 0 .595.087 1.106.261 1.534.175.425.419.752.733.983.319.228.692.341 1.12.341.303 0 .574-.056.812-.17.242-.118.445-.286.608-.506a1.94 1.94 0 0 0 .335-.801H54.4a3.427 3.427 0 0 1-.545 1.642 3.23 3.23 0 0 1-1.284 1.114c-.542.265-1.178.397-1.91.397Z"/>
  <path fill="#fff" d="M42.682 14.33V9.272h2.057V18h-1.995v-1.551h-.09c-.198.488-.521.888-.972 1.199-.447.31-.998.466-1.654.466-.572 0-1.077-.127-1.517-.381a2.645 2.645 0 0 1-1.022-1.12c-.246-.492-.37-1.086-.37-1.784V9.273h2.057v5.238c0 .553.152.993.455 1.319.303.325.7.488 1.193.488.303 0 .596-.074.88-.221.285-.148.518-.368.7-.66.185-.295.278-.664.278-1.107Z"/>
  <path fill="#fff" d="M28.148 18V6.364h2.108v9.869h5.125V18h-7.233Z"/>
  <path stroke="#fff" stroke-linecap="round" stroke-linejoin="round" stroke-width="2" d="M14 12a4 4 0 0 0-8 0 8 8 0 0 0 16 0 11.97 11.97 0 0 0-4-8.944"/>
  <path stroke="#F56565" stroke-linecap="round" stroke-linejoin="round" stroke-width="2" d="M10 12a4 4 0 0 0 8 0 8 8 0 1 0-16 0c0 3.584 1.571 6.801 4.063 9"/>
  <circle cx="88" cy="12" r="2" fill="#737374"/>
  <path fill="#673AB8" d="m108 0 10 5.773V17.32l-10 5.774-10-5.774V5.773L108 0Z"/>
  <path fill="#fff" d="M100.724 17.225c1.329 1.701 5.554.405 9.543-2.711 3.988-3.117 6.269-6.902 4.939-8.604-1.329-1.702-5.554-.405-9.543 2.711-3.988 3.117-6.269 6.902-4.939 8.604Zm.568-.444c-.441-.564-.249-1.672.591-3.067.885-1.468 2.386-3.09 4.224-4.525 1.837-1.435 3.774-2.5 5.412-3.003 1.557-.478 2.678-.397 3.119.168.441.564.248 1.672-.591 3.066-.885 1.469-2.386 3.09-4.224 4.526-1.837 1.435-3.774 2.5-5.412 3.003-1.557.478-2.678.396-3.119-.168Z"/>
  <path fill="#fff" d="M115.206 17.225c1.33-1.702-.951-5.487-4.939-8.604-3.989-3.116-8.214-4.413-9.543-2.711-1.33 1.702.951 5.487 4.939 8.604 3.989 3.116 8.214 4.413 9.543 2.71Zm-.568-.444c-.441.565-1.562.646-3.119.168-1.638-.503-3.575-1.568-5.412-3.003-1.838-1.436-3.339-3.057-4.224-4.526-.84-1.394-1.032-2.502-.591-3.066.441-.565 1.562-.646 3.119-.168 1.638.503 3.575 1.568 5.412 3.003 1.838 1.436 3.339 3.057 4.224 4.525.839 1.395 1.032 2.503.591 3.067Z"/>
  <path fill="#fff" d="M107.965 13.099a1.531 1.531 0 1 0 0-3.062 1.531 1.531 0 0 0 0 3.062Z"/>
</svg>
