<?xml version="1.0" standalone="no"?>
<!DOCTYPE svg PUBLIC "-//W3C//DTD SVG 20010904//EN"
 "http://www.w3.org/TR/2001/REC-SVG-20010904/DTD/svg10.dtd">
<svg version="1.0" xmlns="http://www.w3.org/2000/svg"
 width="700.000000pt" height="700.000000pt" viewBox="0 0 700.000000 700.000000"
 preserveAspectRatio="xMidYMid meet">
<metadata>
Created by potrace 1.11, written by Peter Selinger 2001-2013
</metadata>
<g transform="translate(0.000000,700.000000) scale(0.100000,-0.100000)"
fill="#000000" stroke="none">
<path d="M5152 6381 c-123 -43 -199 -158 -189 -291 6 -96 34 -139 193 -297 77
-76 165 -167 195 -202 304 -358 520 -760 649 -1206 37 -129 34 -113 59 -240
27 -135 30 -152 37 -215 3 -30 8 -63 9 -72 7 -35 18 -247 19 -343 0 -163 -15
-305 -48 -463 -112 -529 -490 -1043 -971 -1320 -209 -120 -503 -220 -755 -257
-95 -14 -434 -13 -540 2 -371 51 -728 207 -1015 442 -127 104 -227 207 -356
368 -40 51 -140 218 -189 318 -174 352 -252 834 -181 1110 87 332 363 590 692
644 259 43 488 -13 691 -169 150 -115 278 -312 314 -481 18 -89 23 -122 25
-184 4 -123 45 -208 129 -263 60 -40 108 -54 177 -51 127 5 235 93 268 217 15
58 10 207 -10 313 -42 217 -113 397 -222 562 -48 73 -61 89 -123 161 -233 267
-569 443 -930 485 -81 9 -285 7 -365 -4 -142 -19 -317 -75 -458 -146 -250
-126 -488 -355 -620 -599 -69 -128 -139 -322 -153 -430 -3 -19 -9 -57 -14 -85
-11 -62 -10 -370 2 -456 4 -35 11 -82 14 -104 25 -190 86 -416 163 -609 38
-94 137 -294 157 -317 8 -8 14 -19 14 -24 0 -13 75 -128 153 -234 195 -265
452 -500 747 -683 119 -73 272 -149 405 -201 83 -32 266 -92 311 -102 10 -2
53 -11 94 -20 280 -60 629 -76 873 -40 18 3 48 7 67 9 19 2 46 7 60 10 14 3
38 8 54 11 70 11 144 27 181 40 22 7 81 26 130 41 296 90 656 292 905 508 97
85 272 267 340 356 19 25 37 47 40 50 19 19 125 180 180 274 150 261 266 585
310 866 6 41 13 86 16 100 25 156 25 635 -1 769 -1 9 -6 39 -9 66 -11 85 -36
227 -52 300 -9 39 -18 79 -20 90 -8 43 -77 283 -96 335 -33 93 -60 164 -73
195 -7 17 -25 59 -40 95 -187 448 -511 905 -903 1272 -122 114 -216 142 -340
99z"/>
<path d="M2827 6125 c-1 -2 -48 -5 -104 -9 -424 -25 -871 -176 -1243 -420
-313 -205 -583 -481 -787 -801 -56 -88 -159 -284 -187 -355 -84 -214 -152
-434 -170 -555 -9 -63 -18 -121 -22 -138 -19 -102 -25 -468 -11 -642 39 -489
174 -973 393 -1408 35 -70 75 -145 89 -167 14 -22 25 -42 25 -45 0 -12 175
-273 247 -367 153 -203 408 -476 533 -572 115 -88 269 -80 378 18 58 53 86
123 86 216 1 108 -18 137 -204 320 -267 264 -444 500 -613 820 -135 257 -250
584 -302 865 -10 50 -19 97 -20 106 -2 9 -6 38 -9 65 -4 27 -9 65 -11 84 -23
182 -24 552 0 640 2 8 6 36 10 63 18 148 101 399 190 577 50 99 171 290 225
354 134 160 252 272 395 376 263 190 558 314 870 364 22 4 56 9 75 13 76 13
435 11 520 -3 47 -7 101 -16 120 -19 19 -3 42 -7 50 -10 8 -2 26 -6 40 -9 115
-22 309 -94 460 -172 612 -313 1029 -926 1098 -1614 9 -91 8 -306 -2 -355 -77
-373 -352 -642 -726 -711 -65 -11 -254 -5 -323 11 -132 30 -233 78 -342 161
-160 121 -283 307 -321 485 -15 74 -23 133 -27 205 -3 61 -11 94 -30 132 -122
243 -482 202 -542 -62 -13 -60 -8 -215 10 -306 2 -8 6 -31 10 -50 23 -129 75
-268 160 -430 20 -38 89 -140 120 -179 247 -304 569 -489 950 -545 84 -12 335
-13 395 -2 14 3 40 8 59 10 133 20 324 90 461 168 384 219 646 592 720 1023
20 118 25 385 10 500 -5 33 -11 85 -15 115 -15 121 -58 307 -105 449 -286 874
-1026 1545 -1920 1742 -126 28 -119 26 -181 34 -30 4 -65 9 -79 11 -90 12
-393 26 -403 19z"/>
</g>
</svg>
