<svg xmlns="http://www.w3.org/2000/svg" viewBox="0 0 1200 630" width="1200" height="630" fill="none">
  <g clip-path="url(#a)">
    <path fill="#1b1b1f" d="M0 0h1200v630H0z" />
    <text xml:space="preserve" fill="#fff" font-family="Inter, Helvetica, sans-serif" font-size="44" font-weight="600"
      letter-spacing=".05em" style="white-space:pre">
      <tspan x="62" y="118.5">{{title}}</tspan>
    </text>
    <text xml:space="preserve" fill="#ebebf5" fill-opacity=".8" font-family="Inter, Helvetica, sans-serif"
      font-size="32" letter-spacing="0em" opacity=".79" style="white-space:pre">
      <tspan x="62" y="209.14">{{line1}}</tspan>
      <tspan x="62" y="257.14">{{line2}}</tspan>
      <tspan x="62" y="305.14">{{line3}}</tspan>
      <tspan x="62" y="353.14">{{line4}}</tspan>
    </text>
    <path fill="#161618" d="M0 438h1200v192H0z" />
    <path fill="#e7e7e7"
      d="M395.33 562.28q-5.97 0-10.31-2.5a17 17 0 0 1-6.64-7.13q-2.32-4.64-2.32-10.91 0-6.18 2.32-10.84a17.7 17.7 0 0 1 6.56-7.29q4.2-2.63 9.9-2.63 3.66 0 6.92 1.2 3.28 1.17 5.78 3.64a17 17 0 0 1 3.98 6.3 26 26 0 0 1 1.45 9.07v2.89h-32.52v-6.36H404q-.03-2.7-1.17-4.81a8.5 8.5 0 0 0-3.17-3.36 9 9 0 0 0-4.7-1.23q-2.88 0-5.04 1.4a9.7 9.7 0 0 0-3.39 3.65q-1.19 2.25-1.21 4.93v5.54q0 3.5 1.27 6a9 9 0 0 0 3.53 3.8q2.29 1.3 5.32 1.3 2.05 0 3.7-.58a8 8 0 0 0 2.87-1.74 7 7 0 0 0 1.83-2.84l8.73 1a14 14 0 0 1-3.15 6.09 15.4 15.4 0 0 1-5.89 4q-3.6 1.41-8.21 1.41M346.67 562.2q-4.67 0-8.37-2.42a16.4 16.4 0 0 1-5.84-7.03q-2.14-4.6-2.14-11.2 0-6.67 2.17-11.25a16 16 0 0 1 5.91-6.95 15 15 0 0 1 8.3-2.37q3.48 0 5.73 1.2 2.25 1.17 3.56 2.84 1.32 1.63 2.05 3.1h.38v-19.95h9.38v53.33h-9.2v-6.3h-.56q-.74 1.45-2.1 3.1-1.37 1.61-3.61 2.76a12.4 12.4 0 0 1-5.66 1.14m2.6-7.73q2.99 0 5.07-1.62a10 10 0 0 0 3.18-4.55 19 19 0 0 0 1.08-6.8 19 19 0 0 0-1.08-6.74 9.6 9.6 0 0 0-3.15-4.46 8 8 0 0 0-5.1-1.59 8.2 8.2 0 0 0-5.2 1.64 10 10 0 0 0-3.16 4.54 19 19 0 0 0-1.06 6.61q0 3.75 1.06 6.7a10.5 10.5 0 0 0 3.18 4.6 8 8 0 0 0 5.19 1.67M312.98 561.5v-40h9.35v40zm4.7-45.68q-2.22 0-3.82-1.48a4.8 4.8 0 0 1-1.6-3.62q0-2.13 1.6-3.62a5.4 5.4 0 0 1 3.82-1.51q2.25 0 3.82 1.51 1.6 1.49 1.6 3.62a4.8 4.8 0 0 1-1.6 3.62 5.4 5.4 0 0 1-3.82 1.48M288.3 562.28q-5.93 0-10.2-2.63-4.23-2.62-6.53-7.26a24 24 0 0 1-2.27-10.73q0-6.1 2.32-10.76a17.4 17.4 0 0 1 6.56-7.29 19 19 0 0 1 10.07-2.63q4.83 0 8.56 1.8a14.6 14.6 0 0 1 5.96 5.02 15 15 0 0 1 2.53 7.55h-8.93a8.6 8.6 0 0 0-2.59-4.81q-2.01-1.95-5.4-1.96a8.4 8.4 0 0 0-5.03 1.57 10 10 0 0 0-3.39 4.42 18 18 0 0 0-1.19 6.93q0 4.1 1.2 7.03 1.19 2.93 3.33 4.5a8.5 8.5 0 0 0 5.08 1.57q2.07 0 3.7-.78a7.5 7.5 0 0 0 2.76-2.32q1.11-1.5 1.53-3.67h8.93a16 16 0 0 1-2.48 7.52 14.7 14.7 0 0 1-5.83 5.1 19.4 19.4 0 0 1-8.68 1.83M252.04 544.68V521.5h9.34v40h-9.06v-7.11h-.41a12 12 0 0 1-4.42 5.5q-3.05 2.13-7.52 2.13-3.9 0-6.9-1.74a12 12 0 0 1-4.64-5.13 18 18 0 0 1-1.68-8.18V521.5h9.35v24.01q0 3.8 2.06 6.04a7 7 0 0 0 5.43 2.24q2.07 0 4-1.01a8 8 0 0 0 3.18-3.02 9.4 9.4 0 0 0 1.26-5.08M185.96 561.5v-53.33h9.58v45.23h23.3v8.1zM117.1 534c0-7.6-6.1-13.75-13.64-13.75A13.7 13.7 0 0 0 89.82 534c0 17.72 14.25 32.08 31.83 32.08s31.82-14.36 31.82-32.08a50.5 50.5 0 0 0-16.67-37.58 4.6 4.6 0 0 1-.36-6.47 4.5 4.5 0 0 1 6.42-.36 59.7 59.7 0 0 1 19.7 44.4l-.05 2.13c-1.1 21.8-18.97 39.13-40.86 39.13-22.6 0-40.92-18.47-40.92-41.25a22.8 22.8 0 0 1 22.73-22.92A22.8 22.8 0 0 1 126.2 534a4.56 4.56 0 0 1-4.55 4.58 4.56 4.56 0 0 1-4.54-4.58" />
    <path fill="#f56565"
      d="M98.91 534a4.56 4.56 0 0 1 4.55-4.58 4.57 4.57 0 0 1 4.55 4.58c0 7.6 6.1 13.75 13.63 13.75 7.3 0 13.26-5.78 13.62-13.04l.02-.71c0-17.72-14.24-32.08-31.82-32.08S71.64 516.28 71.64 534a50.5 50.5 0 0 0 16.93 37.81 4.6 4.6 0 0 1 .4 6.48 4.53 4.53 0 0 1-6.42.4 59.7 59.7 0 0 1-19.98-43.03l-.02-1.66c0-22.78 18.31-41.25 40.91-41.25s40.92 18.47 40.92 41.25l-.04 1.18a22.8 22.8 0 0 1-22.7 21.74A22.8 22.8 0 0 1 98.92 534" />
    <text xml:space="preserve" fill="#ebebf5" fill-opacity=".8" font-family="Inter, Helvetica, sans-serif"
      font-size="39" font-weight="500" letter-spacing="0em" style="white-space:pre">
      <tspan x="808.98" y="548.18">https://lucide.dev</tspan>
    </text>
    <path fill="url(#b)" d="M1116 0h84v435h-84z" />
  </g>
  <defs>
    <linearGradient id="b" x1="1200" x2="1116" y1="218" y2="218" gradientUnits="userSpaceOnUse">
      <stop stop-color="#1b1b1f" />
      <stop offset="1" stop-color="#1b1b1f" stop-opacity="0" />
    </linearGradient>
    <clipPath id="a">
      <path fill="#fff" d="M0 0h1200v630H0z" />
    </clipPath>
  </defs>
</svg>
