<svg xmlns="http://www.w3.org/2000/svg" xml:space="preserve" version="1.0" width="30" height="30" viewBox="0 0 436 308">
  <path
    d="M188.33 51.64c2.14 0 3.85 1.21 4.76 3.18.64 1.38.92 3.13.94 5.34v157.72c-.01 2.92-.32 5.2-.99 6.92-.93 2.39-2.7 3.93-5.11 3.96h-.09l-18.19-.02c-2.46 0-4.23-1.57-5.14-4-.64-1.71-.93-3.97-.94-6.88V86.15l-4.9 1.24-1.95.49-.57.14-.29.07-.14.03-.05.01H155.61l.03-.03c.01-.01.02-.02 0-.03H155.57c-2.06.08-3.78-1.03-4.72-2.92-.67-1.35-.96-3.08-.97-5.26V68.28c0-2.05.33-3.76 1.08-5.16.85-1.6 2.21-2.7 3.93-3.14l.1-.03.12-.03 31.45-8.09c.45-.11.94-.17 1.48-.19H188.33zM240.84 47c2.25 0 4.05 1.26 5.03 3.34.71 1.5 1.03 3.44 1.04 5.88v46.58h13.53c2.12 0 3.87 1.1 4.9 2.96l.05.09.05.09c.74 1.45 1.07 3.31 1.08 5.62v6.59c0 2.36-.33 4.24-1.1 5.71-1 1.92-2.75 3.05-4.88 3.08h-13.65V188.61l.01.47.01.46v.23l.01.57.02.56.02.55.04.55.01.21.02.42.03.41.03.4.03.4.02.2.03.39.02.19.02.19.04.38c.01.12.03.25.04.37l.02.18.04.36c.09.75.2 1.45.32 2.11l.04.22.03.15.06.29.06.28.03.14.06.27.06.26.03.13.06.25c.08.32.17.63.26.92l.08.24c.38 1.16.81 2.02 1.26 2.57.84 1.04 1.58 1.66 2.15 1.91l.17.07c.67.27 1.61.42 2.81.43h8.57c2.02 0 3.77.8 4.91 2.38.95 1.31 1.37 2.98 1.39 4.97V220.97c0 2.21-.43 4.03-1.43 5.44-1.16 1.65-2.94 2.51-5 2.53h-.11l-12.12.02c-3.36 0-6.29-.24-8.84-.72-2.73-.51-5.5-1.65-8.35-3.38-2.97-1.81-5.4-4.28-7.29-7.4-1.84-3.03-3.28-7.12-4.36-12.28-1.06-5.02-1.59-10.88-1.61-17.55V126.94H215c-2.11 0-3.85-1.07-4.88-2.91l-.05-.09-.05-.09c-.75-1.44-1.08-3.27-1.1-5.55v-6.59c0-2.39.33-4.3 1.09-5.78 1-1.95 2.75-3.11 4.89-3.14H220.59v-.18l2.15-46.37.01-.21c.15-2.4.54-4.28 1.25-5.73.98-2.01 2.67-3.27 4.82-3.31h12.02zm100.03 55.76c2 0 3.55 1.18 4.36 3.01.54 1.24.77 2.79.77 4.73v.33l-.01.23-.01.12-.01.24-.01.12-.02.25c-.02.21-.04.42-.06.65l-.02.17-.03.29-.04.3-.04.31-.03.24-21.21 110.41-.05.27-.11.58-.11.57-.16.84-.11.56-.16.82-.11.54-.11.54-.11.53-.11.53-.11.52-.17.77-.11.51-.11.5-.11.5-.11.49-.11.49-.12.48-.12.47-.12.47-.12.46-.12.46-.12.45-.12.45-.12.44-.12.44-.12.43-.12.43-.12.42-.12.41-.12.41-.12.4-.12.4-.12.39-.12.39-.12.38-.13.38-.06.19-.13.37-.06.18-.06.18-.16.44-.16.44-.06.17-.13.34-.13.33c-.06.15-.12.29-.17.44l-.15.37-.16.38c-.28.66-.56 1.29-.85 1.9l-.12.26-.17.34-.17.34c-1.84 3.66-3.91 6.33-6.28 8-2.96 2.1-6.73 3.18-11.29 3.31l-.2.01h-1.26c-7.15 0-12.37-1.96-15.38-6.11l-.09-.13-.08-.11-.04-.05c-.86-1.09-1.28-2.59-1.45-4.68l-.01-.14-.02-.27-.01-.14-.01-.14-.01-.28-.01-.14-.01-.14-.01-.37-.01-.38V245.44l.01-.36.01-.18.01-.18.01-.35.02-.34.02-.34c.01-.11.01-.22.02-.33l.01-.16.03-.32.03-.31c.14-1.39.37-2.57.69-3.56.83-2.58 2.49-4.31 4.99-4.35h.27l.08.01.09.01.12.02.13.02.17.03.16.03.14.03.28.07.38.1.51.14.53.15.71.21 1.69.5.48.15.43.13.41.12.39.11.37.1.26.07.25.06.31.08.28.07.2.05.18.04.17.04.2.04.13.02.11.02.07.01.06.01H296.74c.03 0 .04 0 .08-.02.09-.04.21-.12.35-.26.46-.43.98-1.22 1.5-2.37.66-1.46 1.14-3.34 1.43-5.64l.02-.2.04-.34.04-.35.02-.18.02-.18.03-.36c.1-1.19.15-2.48.16-3.86V222.87l-.01-.13-.02-.2-.03-.23-.03-.26-.02-.14-.05-.31-.05-.34-.08-.47-.09-.52-.1-.57-.11-.61-.15-.8-.16-.86-.21-1.09-.27-1.36-.26-1.28-.32-1.57-.34-1.64-23.36-97.11-.04-.29-.04-.28-.03-.27-.03-.26-.04-.31-.03-.29-.01-.11-.02-.22-.02-.21-.01-.1-.01-.2-.01-.2V110c.01-1.72.22-3.11.69-4.24.73-1.76 2.19-2.94 4.11-2.98h14.5c1.93 0 3.64.71 4.96 2.07 1.22 1.25 1.94 3.14 2.41 5.78l.03.15.04.26 12.68 67.1 9.9-66.63.02-.13c.36-2.67.97-4.65 1.98-6.02l.06-.08.06-.08c1.22-1.55 2.94-2.41 4.89-2.44H340.87zM128.46 51.84c2.14 0 3.85 1.21 4.76 3.18.64 1.38.92 3.13.94 5.34v157.53c0 3.01-.3 5.35-.99 7.11-.93 2.39-2.7 3.93-5.11 3.96h-18.3c-2.46 0-4.23-1.57-5.14-4-.64-1.71-.93-3.97-.94-6.88V86.37l-3.51.89-2.77.69-.66.16-.29.07-.22.05-.13.02H96l-.12.01c-2.15.15-3.94-.96-4.91-2.91-.67-1.35-.96-3.07-.97-5.26V68.5c0-2.05.33-3.76 1.08-5.16.85-1.6 2.21-2.7 3.93-3.14l.1-.03.12-.03 31.47-8.12c.45-.11.94-.17 1.48-.19h.28z" />
</svg>
