<svg width="24" height="24" viewBox="-2 -2 24 24" fill="none" xmlns="http://www.w3.org/2000/svg">
  <path d="M0 0h20v20H0V0Z" fill="#F7DF1E"/>
  <path d="M13.43 15.62c.41.67.92 1.14 1.87 1.14.76 0 1.27-.38 1.27-.92 0-.63-.5-.89-1.36-1.24l-.48-.22c-1.37-.57-2.25-1.3-2.25-2.82 0-1.4 1.08-2.48 2.73-2.48 1.2 0 2.06.41 2.7 1.5l-1.47.94c-.34-.57-.7-.79-1.23-.79-.54 0-.9.35-.9.8 0 .57.36.79 1.18 1.14l.45.19c1.62.7 2.5 1.4 2.5 2.95 0 1.68-1.33 2.63-3.1 2.63-1.75 0-2.9-.85-3.44-1.93l1.53-.9Zm-6.64.16c.29.54.58.98 1.21.98s1.02-.25 1.02-1.17V9.17h1.87v6.42c0 1.97-1.14 2.85-2.8 2.85a2.9 2.9 0 0 1-2.82-1.74l1.52-.92Z" fill="#000"/>
</svg>
