<svg width="35" height="32" viewBox="0 0 23 21" fill="none" xmlns="http://www.w3.org/2000/svg">
  <path d="M11.5 12.3a2 2 0 1 0 0-4.1 2 2 0 0 0 0 4Z" fill="#61DAFB"/>
  <path d="M11.5 14.4c6 0 11-1.8 11-4.2 0-2.3-5-4.2-11-4.2s-11 2-11 4.2c0 2.4 5 4.2 11 4.2Z" stroke="#61DAFB"/>
  <path d="M7.9 12.3c3 5.3 7 8.6 9.1 7.5 2-1.2 1.2-6.4-1.9-11.7C12.1 3 8.1-.5 6 .7 4 2 4.8 7.1 7.9 12.3Z" stroke="#61DAFB"/>
  <path d="M7.9 8.1c-3 5.3-4 10.5-1.9 11.7 2 1.1 6.1-2.2 9.1-7.5 3-5.2 4-10.4 1.9-11.6C15-.5 10.9 3 7.9 8.1Z" stroke="#61DAFB"/>
</svg>
