<svg width="30" height="37.5" viewBox="0 0 20 25" fill="none" xmlns="http://www.w3.org/2000/svg">
  <path d="M18.7 3.2A7.3 7.3 0 0 0 9 1L3.3 4.6A6.4 6.4 0 0 0 .4 9c-.3 1.5 0 3 .7 4.4a6.4 6.4 0 0 0-1 5c.3 1 .6 1.8 1.2 2.5A7.3 7.3 0 0 0 11 23l5.6-3.6a6.4 6.4 0 0 0 2.9-4.3c.3-1.5 0-3-.7-4.3a6.5 6.5 0 0 0 1-5.1c-.3-1-.6-1.8-1.2-2.5" fill="#FF3E00"/>
  <path d="M8.4 21.2a4.4 4.4 0 0 1-5.5-3.3 4.1 4.1 0 0 1 .1-2.1l.1-.4.3.2c.7.5 1.4.9 2.2 1.1l.2.1v.2c0 .3 0 .6.2.8a1.3 1.3 0 0 0 1.5.6l.3-.2 5.6-3.5a1.2 1.2 0 0 0 .5-1.3l-.2-.5a1.3 1.3 0 0 0-1.4-.5c-.2 0-.3 0-.4.2l-2.1 1.3-1.2.5a4.4 4.4 0 0 1-5.4-3.2A4.1 4.1 0 0 1 3.8 8c.3-.5.7-.9 1.1-1.2l5.6-3.5a4 4 0 0 1 1.1-.5A4.4 4.4 0 0 1 17.1 6a4.1 4.1 0 0 1-.1 2.2l-.1.3-.3-.2c-.7-.5-1.4-.9-2.2-1.1h-.2V7c0-.3 0-.6-.2-.8a1.3 1.3 0 0 0-1.8-.4L6.6 9.4a1.2 1.2 0 0 0-.5 1.3l.2.4a1.3 1.3 0 0 0 1.4.5l.4-.1 2.1-1.4a4 4 0 0 1 1.2-.5 4.4 4.4 0 0 1 5.4 3.3c.1.5.1 1 0 1.6a3.9 3.9 0 0 1-1.7 2.6l-5.6 3.6-1.1.5" fill="#fff"/>
</svg>
