<svg width="36" height="36" viewBox="0 0 24 24" fill="none" xmlns="http://www.w3.org/2000/svg">
  <path d="M.68 12h22.64v8A3.26 3.26 0 0 1 20 23.32H4A3.26 3.26 0 0 1 .68 20v-8Z" fill="#000"/>
  <path d="M13.27 4.87a1.8 1.8 0 1 0-2.54 0v3.66L8.14 5.94a1.8 1.8 0 1 0-1.8 1.8l2.59 2.59H5.27a1.8 1.8 0 1 0 0 2.54h3.66l-2.58 2.58a1.8 1.8 0 1 0 1.8 1.8l2.58-2.58v3.65a1.8 1.8 0 1 0 2.54 0v-3.65l2.58 2.58a1.8 1.8 0 1 0 1.8-1.8l-2.58-2.58h3.65a1.8 1.8 0 1 0 0-2.54h-3.65l2.59-2.59a1.8 1.8 0 1 0-1.8-1.8l-2.59 2.59V4.87Z" fill="#FFB13B"/>
  <path fill-rule="evenodd" clip-rule="evenodd" d="M10.73 4.87a1.8 1.8 0 1 1 2.54 0v3.66l2.59-2.59a1.8 1.8 0 1 1 1.8 1.8l-2.59 2.59h3.65a1.8 1.8 0 1 1 0 2.54h-3.65l2.58 2.58a1.8 1.8 0 1 1-1.8 1.8l-2.58-2.58v3.65a1.8 1.8 0 1 1-2.54 0v-3.65l-2.58 2.58a1.8 1.8 0 1 1-1.8-1.8l2.58-2.58H5.27a1.8 1.8 0 1 1 0-2.54h3.66L6.34 7.74a1.8 1.8 0 1 1 1.8-1.8l2.59 2.59V4.87ZM8.69 3.6A3.31 3.31 0 0 0 4 8.3a3.31 3.31 0 0 0 0 6.62A3.31 3.31 0 0 0 8.7 19.6a3.31 3.31 0 0 0 6.62 0A3.31 3.31 0 0 0 20 14.9a3.31 3.31 0 0 0 0-6.62A3.31 3.31 0 0 0 15.3 3.6a3.31 3.31 0 0 0-6.62 0Z" fill="#000"/>
  <path opacity=".8" d="M.68 12h22.64v8A3.26 3.26 0 0 1 20 23.32H4A3.26 3.26 0 0 1 .68 20v-8Z" fill="#000"/>
  <path d="M4.08 17.65a2.93 2.93 0 0 1 2.08-5.01c1.6 0 2.93 1.31 2.93 2.94H7.36a1.22 1.22 0 1 0-2.08.85c.22.23.42.29.86.37a3.3 3.3 0 0 1 2.08.85 2.93 2.93 0 0 1-2.08 5 2.93 2.93 0 0 1-2.92-2.92h1.74a1.22 1.22 0 1 0 2.08-.87c-.24-.22-.54-.28-.88-.35-.78-.13-1.54-.32-2.08-.86Zm10.88-5.01-2.08 10.02h-1.73L9.07 12.64h1.73l1.22 5.87 1.21-5.87h1.73Zm2.93 4.16h2.91v2.93a2.93 2.93 0 1 1-5.86 0v-4.16a2.93 2.93 0 1 1 5.86 0h-1.7a1.22 1.22 0 0 0-2.43 0v4.16a1.22 1.22 0 0 0 2.43 0V18.5H17.9V16.8Z" fill="#fff"/>
</svg>
