<svg width="36" height="30" viewBox="0 0 24 20" fill="none" xmlns="http://www.w3.org/2000/svg">
  <path d="m14.2 0-2.7 4.6L9 0H0l11.5 20L23.1 0h-8.9Z" fill="#41B883"/>
  <path d="m14.2 0-2.7 4.6L9 0H4.6l7 12 6.9-12h-4.3Z" fill="#34495E"/>
  <circle cx="16.5" cy="13.5" r="4.5" fill="#2C3E50"/>
  <path d="m15.5 11.8.4-.2.5-.1a1.3 1.3 0 0 1 .9.3l.2.3v.4l-.1.5a1 1 0 0 1-.4.3c.2 0 .3.2.5.3l.2.6a1 1 0 0 1-.4.8l-.4.2a2.6 2.6 0 0 1-1 0l-.5-.1.1-.4h.4a1.6 1.6 0 0 0 .7 0h.2l.2-.2v-.3l-.1-.4a1 1 0 0 0-.6-.2h-.4v-.5h.3l.5-.1c.2-.1.3-.3.3-.5l-.2-.4a.6.6 0 0 0-.4-.1 1 1 0 0 0-.4 0l-.3.2-.2-.4Z" fill="#fff"/>
</svg>
