<svg
  xmlns="http://www.w3.org/2000/svg"
  width="24"
  height="24"
  viewBox="0 0 24 24"
  fill="none"
  stroke="currentColor"
  stroke-width="2"
  stroke-linecap="round"
  stroke-linejoin="round"
>
  <path d="m6 7 .5.5" />
  <path d="m18 7-.5.5" />
  <path d="M5 13a5 5 0 1 0 6.8 7.2l3-3.6A1 1 0 0 0 14 15h-4a1 1 0 0 0-.8 1.6l3 3.6A5 5 0 1 0 19 13h3c0-1.2-.4-2.4-1-3.4a3 3 0 0 0-5.8-5.3l-1 1a7 4 0 0 0-4.4 0l-1-1A3 3 0 0 0 3 9.6c-.6 1-1 2.2-1 3.4Z" />
  <path d="M10 11v-.5" />
  <path d="M14 11v-.5" />
  <path d="M5 18H2" />
  <path d="M19 18h3" />
</svg>
