<svg
  xmlns="http://www.w3.org/2000/svg"
  width="24"
  height="24"
  viewBox="0 0 24 24"
  fill="none"
  stroke="currentColor"
  stroke-width="2"
  stroke-linecap="round"
  stroke-linejoin="round"
>
  <path d="M3 5a1.41 1.41 0 0 0 0 2l1 1a1.41 1.41 0 0 1 0 2l-1 1a1.41 1.41 0 0 0 0 2l1 1a1.41 1.41 0 0 1 0 2l-1 1a1.41 1.41 0 0 0 0 2l2 2a1.41 1.41 0 0 0 2 0l1-1a1.41 1.41 0 0 1 2 0l1 1a1.41 1.41 0 0 0 2 0l1-1a1.41 1.41 0 0 1 2 0l1 1a1.41 1.41 0 0 0 2 0l2-2a1.41 1.41 0 0 0 0-2l-1-1a1.41 1.41 0 0 1 0-2l1-1a1.41 1.41 0 0 0 0-2l-1-1a1.41 1.41 0 0 1 0-2l1-1a1.41 1.41 0 0 0 0-2l-2-2a1.41 1.41 0 0 0-2 0l-1 1a1.41 1.41 0 0 1-2 0l-1-1a1.41 1.41 0 0 0-2 0l-1 1a1.41 1.41 0 0 1-2 0L7 3a1.41 1.41 0 0 0-2 0Z" />
</svg>
