<svg
  xmlns="http://www.w3.org/2000/svg"
  width="24"
  height="24"
  viewBox="0 0 24 24"
  fill="none"
  stroke="currentColor"
  stroke-width="2"
  stroke-linecap="round"
  stroke-linejoin="round"
>
  <path d="M2 2c0 2 .6 4 1.7 5.5L2.3 10a2 2 0 0 0 3.4 2l.9-1.6c1 .6 2.1 1.1 3.4 1.4V14a2 2 0 0 0 4 0v-2.2a8.5 8.5 0 0 0 3.4-1.4l.9 1.6a1.94 1.94 0 1 0 3.4-2l-1.4-2.5C21.4 6 22 4 22 2Z" />
  <path d="M7.9 18.6c-.6-.6-1.1-1.3-1.4-2.1-.3.8-.8 1.5-1.4 2.1a1.93 1.93 0 1 0 2.8 0" />
  <path d="M18.9 18.6c-.6-.6-1.1-1.3-1.4-2.1-.3.8-.8 1.5-1.4 2.1a1.93 1.93 0 1 0 2.8 0" />
</svg>
