<svg
  xmlns="http://www.w3.org/2000/svg"
  width="24"
  height="24"
  viewBox="0 0 24 24"
  fill="none"
  stroke="currentColor"
  stroke-width="2"
  stroke-linecap="round"
  stroke-linejoin="round"
>
  <path d="M14.5 12H14c-2.8 0-5-2.2-5-5V5a2 2 0 0 1 2-2h2c1.5 0 2.8.8 3.4 2H19c1.7 0 3 1.3 3 3v10" />
  <path d="M18 10h.01" />
  <path d="M14 10a4 4 0 0 0 4 4 4 4 0 0 1 4 4 2 2 0 0 1-4 0" />
  <path d="M10 16v5" />
  <path d="M18 14a4 4 0 0 0-4 4v3H6v-2.6c0-1.1-.8-2.3-1.7-3C2.9 14.3 2 12.8 2 11c0-3.3 3.1-6 7-6" />
  <path d="M2 11v7" />
</svg>
