<svg
  xmlns="http://www.w3.org/2000/svg"
  width="24"
  height="24"
  viewBox="0 0 24 24"
  fill="none"
  stroke="currentColor"
  stroke-width="2"
  stroke-linecap="round"
  stroke-linejoin="round"
>
  <path d="M5.3 4.3v3.9L2 10.1v3.8l3.3 1.9v3.9l3.4 1.9 3.3-1.9 3.3 1.9 3.4-1.9v-3.9l3.3-1.9v-3.8l-3.3-1.9V4.3l-3.4-1.9L12 4.3 8.7 2.4Z" />
  <path d="M12 8.2V4.3" />
  <path d="m18.7 8.2-3.4 1.9" />
  <path d="m15.3 13.9 3.4 1.9" />
  <path d="M12 19.7v-3.9" />
  <path d="m8.7 13.9-3.4 1.9" />
  <path d="m5.3 8.2 3.4 1.9" />
  <path d="m8.7 13.9 3.3 1.9 3.3-1.9v-3.8L12 8.2l-3.3 1.9Z" />
</svg>
