<svg
  xmlns="http://www.w3.org/2000/svg"
  width="24"
  height="24"
  viewBox="0 0 24 24"
  fill="none"
  stroke="currentColor"
  stroke-width="2"
  stroke-linecap="round"
  stroke-linejoin="round"
>
  <path d="m12 12 4.2-4.2c.4-.4.4-1 .1-1.5a2.9 2.9 0 1 1 4.8.8" />
  <path d="M15.3 11.3c.9.9.9 2.5 0 3.4l-1.6 1.6c-.9.9-2.5.9-3.4 0 .9.9.9 2.5 0 3.4l-1.6 1.6c-.9.9-2.5.9-3.4 0l-2.6-2.6c-.9-.9-.9-2.5 0-3.4l1.6-1.6c.9-.9 2.5-.9 3.4 0-.9-.9-.9-2.5 0-3.4l1.6-1.6c.9-.9 2.5-.9 3.4 0Z" />
  <path d="m10.3 16.3-2.6-2.6" />
  <path d="m9 15-2 2" />
  <path d="m2 22 2-2" />
</svg>
