<svg
  xmlns="http://www.w3.org/2000/svg"
  width="24"
  height="24"
  viewBox="0 0 24 24"
  fill="none"
  stroke="currentColor"
  stroke-width="2"
  stroke-linecap="round"
  stroke-linejoin="round"
>
  <path d="M13.5 14a2 2 0 0 1-1.4-.6l-.7-.8c-.8-.8-2-.8-2.8 0l-.7.8a2 2 0 0 1-1.4.6H6a4 4 0 0 1 0-8h8a4 4 0 0 1 0 8Z" />
  <path d="M12 18a2 2 0 0 1-4 0" />
  <path d="M10 20a2 2 0 0 0 2 2h4c3.3 0 6-2.7 6-6V2h-4v14a2 2 0 0 1-2 2" />
  <path d="M18 10h4" />
  <circle cx="4.5" cy="21.5" r=".5" />
  <path d="M3 17.5h.01" />
</svg>
