<svg
  xmlns="http://www.w3.org/2000/svg"
  width="24"
  height="24"
  viewBox="0 0 24 24"
  fill="none"
  stroke="currentColor"
  stroke-width="2"
  stroke-linecap="round"
  stroke-linejoin="round"
>
  <path d="M17 8h1a4 4 0 1 1 0 8h-1" />
  <path d="M3 8h14v9a4 4 0 0 1-4 4H7a4 4 0 0 1-4-4Z" />
  <path d="M4 4a1 1 0 0 1 1-1 1 1 0 0 0 1-1" />
  <path d="M10 4a1 1 0 0 1 1-1 1 1 0 0 0 1-1" />
  <path d="M16 4a1 1 0 0 1 1-1 1 1 0 0 0 1-1" />
  <path d="M9 8v3" />
  <path d="M11 16v-3.5L9 11l-2 1.5V16Z" />
</svg>
