<svg
  xmlns="http://www.w3.org/2000/svg"
  width="24"
  height="24"
  viewBox="0 0 24 24"
  fill="none"
  stroke="currentColor"
  stroke-width="2"
  stroke-linecap="round"
  stroke-linejoin="round"
>
  <path d="M6 6 4.4 4.6A1.5 1.5 0 0 1 5.5 2h13a1.5 1.5 0 0 1 1.1 2.5L18 6" />
  <rect width="12" height="12" x="6" y="6" />
  <path d="m6 11 10-5" />
  <path d="M22 16v-3a4 4 0 0 0-4-4L6 15" />
  <path d="m8 18 10-5" />
  <path d="m18 18 1.6 1.4a1.45 1.45 0 0 1-1.1 2.5h-13a1.5 1.5 0 0 1-1.1-2.5L6 18" />
</svg>
