<svg
  xmlns="http://www.w3.org/2000/svg"
  width="24"
  height="24"
  viewBox="0 0 24 24"
  fill="none"
  stroke="currentColor"
  stroke-width="2"
  stroke-linecap="round"
  stroke-linejoin="round"
>
  <path d="M6 2C5 5 7 5 6 8" />
  <path d="M10 2c-1 3 1 3 0 6" />
  <circle cx="4" cy="20" r="2" />
  <path d="M5.4 18.6 8 16" />
  <path d="M10.8 13.2 14 10" />
  <circle cx="12" cy="20" r="2" />
  <path d="m2 10 8.6 8.6" />
  <path d="M18 2h2a2 2 0 0 1 2 2v16a2 2 0 0 1-2 2h-2" />
  <path d="M18 6h4" />
  <path d="M18 10h4" />
  <path d="M18 14h4" />
  <path d="M18 18h4" />
</svg>
