<svg
  xmlns="http://www.w3.org/2000/svg"
  width="24"
  height="24"
  viewBox="0 0 24 24"
  fill="none"
  stroke="currentColor"
  stroke-width="2"
  stroke-linecap="round"
  stroke-linejoin="round"
>
  <path d="m17 7 3.5-3.5" />
  <path d="M17 2v5h5" />
  <path d="M2.1 17.1a4 4 0 0 0 4.8 4.8l9-2.1a6.32 6.32 0 0 0 2.9-10.9L15 5.2A6.5 6.5 0 0 0 4.1 8.3Z" />
  <path d="M8.5 9.5h.01" />
  <path d="M12.5 8.5h.01" />
  <path d="M7.5 13.5h.01" />
  <path d="M11.5 12.5h.01" />
  <path d="M15.5 11.5h.01" />
  <path d="M6.5 17.5h.01" />
  <path d="M10.5 16.5h.01" />
  <path d="M14.5 15.5h.01" />
</svg>
