<svg
  xmlns="http://www.w3.org/2000/svg"
  width="24"
  height="24"
  viewBox="0 0 24 24"
  fill="none"
  stroke="currentColor"
  stroke-width="2"
  stroke-linecap="round"
  stroke-linejoin="round"
>
  <circle cx="4" cy="4" r="2" />
  <path d="M16 14s1-3 1-8V4s-1-2-3-2c-1 0-2 .5-2 .5" />
  <path d="M13 8a4 4 0 0 1 8 0" />
  <path d="M17 4s1-2 3-2c1 0 2 .5 2 .5" />
  <path d="m4 14 3-5 5 3Z" />
  <path d="m8 13 2 8" />
  <path d="m3 21 .7-2.1c.2-.5.7-.9 1.3-.9h12c.5 0 1.3-.4 1.6-.8L22 13" />
  <path d="m21 21-3-3" />
</svg>
