<svg
  xmlns="http://www.w3.org/2000/svg"
  width="24"
  height="24"
  viewBox="0 0 24 24"
  fill="none"
  stroke="currentColor"
  stroke-width="2"
  stroke-linecap="round"
  stroke-linejoin="round"
>
  <path d="M22 10a2 2 0 0 1-2 2h-.5l-5.6-1.4c-1.1-.3-2.8-.3-3.9 0L4.4 12H4a2 2 0 0 1-2-2 4 4 0 0 1 4-4h12a4 4 0 0 1 4 4" />
  <path d="m6 11 1-5" />
  <path d="m10 10 1-4" />
  <path d="m14 10 1-4" />
  <path d="m18 11 1-4" />
  <path d="M20 12v4a2 2 0 0 1-4 0 2 2 0 0 1-4 0 2 2 0 0 1-4 0 2 2 0 0 1-4 0v-4" />
</svg>
