<svg
  xmlns="http://www.w3.org/2000/svg"
  width="24"
  height="24"
  viewBox="0 0 24 24"
  fill="none"
  stroke="currentColor"
  stroke-width="2"
  stroke-linecap="round"
  stroke-linejoin="round"
>
  <circle cx="6" cy="7" r="3" />
  <path d="M16 14s1-3 1-8V4s-1-2-3-2c-1 0-2 .5-2 .5" />
  <path d="M13 8a4 4 0 0 1 8 0" />
  <path d="M17 4s1-2 3-2c1 0 2 .5 2 .5" />
  <path d="M19.75 19A8 8 0 0 0 4 21" />
  <path d="M2 20c.6.5 1.2 1 2.5 1 2.5 0 2.5-2 5-2 2.6 0 2.4 2 5 2 2.5 0 2.5-2 5-2 1.3 0 1.9.5 2.5 1" />
</svg>
