<svg
  xmlns="http://www.w3.org/2000/svg"
  width="24"
  height="24"
  viewBox="0 0 24 24"
  fill="none"
  stroke="currentColor"
  stroke-width="2"
  stroke-linecap="round"
  stroke-linejoin="round"
>
  <path d="M18 9.1V5a2 2 0 0 0-4 0" />
  <path d="M18 5a2 2 0 0 1 4 0" />
  <path d="M6 9.7 3.9 8.4C2.7 7.7 2 6.4 2 5V3c2 0 4 2 4 2s2-2 4-2v2c0 1.4-.7 2.7-1.9 3.4l-3.8 2.4A5 5 0 0 0 7 20h12c1.7 0 3-1.3 3-3v-3c0-2.8-2.2-5-5-5-2.7 0-5.1 1.4-6.4 3.6L9.7 14A2 2 0 0 1 6 13Z" />
  <path d="M15 15h.01" />
</svg>
