<svg width="480" height="480" fill="none" xmlns="http://www.w3.org/2000/svg">
  <path fill="#3C3C43" d="M0 0h480v480H0z"/>
  <g clip-path="url(#a)">
    <rect x="120" y="120" width="240" height="240" rx="8" fill="#F5F5F5"/>
    <path d="M120 130h240" stroke="#D8D8D9" stroke-width=".5"/>
    <path d="M130 120v240" stroke="#D8D8D9" stroke-width=".5"/>
    <path d="M120 140h240" stroke="#D8D8D9" stroke-width=".5"/>
    <path d="M140 120v240" stroke="#D8D8D9" stroke-width=".5"/>
    <path d="M120 150h240" stroke="#D8D8D9" stroke-width=".5"/>
    <path d="M150 120v240" stroke="#D8D8D9" stroke-width=".5"/>
    <path d="M120 160h240" stroke="#D8D8D9" stroke-width=".5"/>
    <path d="M160 120v240" stroke="#D8D8D9" stroke-width=".5"/>
    <path d="M120 170h240" stroke="#D8D8D9" stroke-width=".5"/>
    <path d="M170 120v240" stroke="#D8D8D9" stroke-width=".5"/>
    <path d="M120 180h240" stroke="#D8D8D9" stroke-width=".5"/>
    <path d="M180 120v240" stroke="#D8D8D9" stroke-width=".5"/>
    <path d="M120 190h240" stroke="#D8D8D9" stroke-width=".5"/>
    <path d="M190 120v240" stroke="#D8D8D9" stroke-width=".5"/>
    <path d="M120 200h240" stroke="#D8D8D9" stroke-width=".5"/>
    <path d="M200 120v240" stroke="#D8D8D9" stroke-width=".5"/>
    <path d="M120 210h240" stroke="#D8D8D9" stroke-width=".5"/>
    <path d="M210 120v240" stroke="#D8D8D9" stroke-width=".5"/>
    <path d="M120 220h240" stroke="#D8D8D9" stroke-width=".5"/>
    <path d="M220 120v240" stroke="#D8D8D9" stroke-width=".5"/>
    <path d="M120 230h240" stroke="#D8D8D9" stroke-width=".5"/>
    <path d="M230 120v240" stroke="#D8D8D9" stroke-width=".5"/>
    <path d="M120 240h240" stroke="#D8D8D9" stroke-width=".5"/>
    <path d="M240 120v240" stroke="#D8D8D9" stroke-width=".5"/>
    <path d="M120 250h240" stroke="#D8D8D9" stroke-width=".5"/>
    <path d="M250 120v240" stroke="#D8D8D9" stroke-width=".5"/>
    <path d="M120 260h240" stroke="#D8D8D9" stroke-width=".5"/>
    <path d="M260 120v240" stroke="#D8D8D9" stroke-width=".5"/>
    <path d="M120 270h240" stroke="#D8D8D9" stroke-width=".5"/>
    <path d="M270 120v240" stroke="#D8D8D9" stroke-width=".5"/>
    <path d="M120 280h240" stroke="#D8D8D9" stroke-width=".5"/>
    <path d="M280 120v240" stroke="#D8D8D9" stroke-width=".5"/>
    <path d="M120 290h240" stroke="#D8D8D9" stroke-width=".5"/>
    <path d="M290 120v240" stroke="#D8D8D9" stroke-width=".5"/>
    <path d="M120 300h240" stroke="#D8D8D9" stroke-width=".5"/>
    <path d="M300 120v240" stroke="#D8D8D9" stroke-width=".5"/>
    <path d="M120 310h240" stroke="#D8D8D9" stroke-width=".5"/>
    <path d="M310 120v240" stroke="#D8D8D9" stroke-width=".5"/>
    <path d="M120 320h240" stroke="#D8D8D9" stroke-width=".5"/>
    <path d="M320 120v240" stroke="#D8D8D9" stroke-width=".5"/>
    <path d="M120 330h240" stroke="#D8D8D9" stroke-width=".5"/>
    <path d="M330 120v240" stroke="#D8D8D9" stroke-width=".5"/>
    <path d="M120 340h240" stroke="#D8D8D9" stroke-width=".5"/>
    <path d="M340 120v240" stroke="#D8D8D9" stroke-width=".5"/>
    <path d="M120 350h240" stroke="#D8D8D9" stroke-width=".5"/>
    <path d="M350 120v240" stroke="#D8D8D9" stroke-width=".5"/>
</g>
<g id="embed-lucide-layers" stroke="#3C3C43" stroke-width="2" stroke-linecap="round" stroke-linejoin="round" transform="translate(120 120), scale(10)">
  <path d="M12.83 2.18a2 2 0 0 0-1.66 0L2.6 6.08a1 1 0 0 0 0 1.83l8.58 3.91a2 2 0 0 0 1.66 0l8.58-3.9a1 1 0 0 0 0-1.83z" />
  <path d="M2 12a1 1 0 0 0 .58.91l8.6 3.91a2 2 0 0 0 1.65 0l8.58-3.9A1 1 0 0 0 22 12" />
  <path d="M2 17a1 1 0 0 0 .58.91l8.6 3.91a2 2 0 0 0 1.65 0l8.58-3.9A1 1 0 0 0 22 17" />
</g>
  <path d="M159.377 63.455V86h-4.766V67.979h-.133l-5.163 3.237v-4.228l5.582-3.533h4.48Zm5.403 28.886V69.09h4.623v2.84h.209c.206-.455.503-.917.892-1.387.396-.477.91-.873 1.541-1.189.639-.323 1.431-.484 2.378-.484 1.233 0 2.371.323 3.413.969 1.042.638 1.875 1.603 2.499 2.895.624 1.284.935 2.895.935 4.832 0 1.887-.304 3.48-.913 4.778-.602 1.292-1.424 2.272-2.466 2.94-1.035.66-2.195.99-3.479.99-.91 0-1.684-.15-2.323-.451-.631-.301-1.148-.679-1.552-1.134a5.755 5.755 0 0 1-.925-1.398h-.143v9.049h-4.689Zm4.59-14.795c0 1.005.14 1.882.419 2.63.278.75.682 1.332 1.21 1.75.529.412 1.171.617 1.927.617.763 0 1.409-.209 1.937-.627.529-.426.929-1.013 1.2-1.761.279-.756.419-1.626.419-2.61 0-.976-.136-1.834-.408-2.576-.271-.74-.671-1.32-1.2-1.739-.528-.418-1.177-.627-1.948-.627-.763 0-1.409.202-1.938.605-.521.404-.921.976-1.199 1.717-.279.742-.419 1.615-.419 2.62Zm18.34-8.455 3.105 5.912 3.181-5.912h4.811l-4.899 8.455L198.939 86h-4.789l-3.335-5.846L187.534 86h-4.843l5.019-8.454-4.843-8.455h4.843Zm21.057 23.25V69.09h4.624v2.84h.209a6.18 6.18 0 0 1 .891-1.387c.397-.477.91-.873 1.542-1.189.638-.323 1.431-.484 2.377-.484 1.233 0 2.371.323 3.413.969 1.042.638 1.875 1.603 2.499 2.895.624 1.284.936 2.895.936 4.832 0 1.887-.305 3.48-.914 4.778-.602 1.292-1.424 2.272-2.466 2.94-1.035.66-2.194.99-3.479.99-.91 0-1.684-.15-2.322-.451-.632-.301-1.149-.679-1.553-1.134a5.78 5.78 0 0 1-.924-1.398h-.143v9.049h-4.69Zm4.591-14.795c0 1.005.139 1.882.418 2.63.279.75.682 1.332 1.211 1.75.528.412 1.17.617 1.926.617.764 0 1.409-.209 1.938-.627.528-.426.928-1.013 1.2-1.761.279-.756.418-1.626.418-2.61 0-.976-.136-1.834-.407-2.576-.272-.74-.672-1.32-1.2-1.739-.529-.418-1.178-.627-1.949-.627-.763 0-1.409.202-1.937.605-.521.404-.921.976-1.2 1.717-.279.742-.418 1.615-.418 2.62Zm19.848 8.773c-1.079 0-2.04-.187-2.884-.561a4.646 4.646 0 0 1-2.004-1.684c-.484-.75-.726-1.681-.726-2.797 0-.94.172-1.728.517-2.367a4.194 4.194 0 0 1 1.409-1.54 6.834 6.834 0 0 1 2.026-.881 15.44 15.44 0 0 1 2.399-.419 60.52 60.52 0 0 0 2.378-.286c.602-.095 1.039-.235 1.31-.418.272-.184.408-.455.408-.815v-.066c0-.697-.221-1.236-.661-1.618-.433-.382-1.049-.573-1.849-.573-.844 0-1.516.188-2.015.562-.499.367-.829.83-.991 1.387l-4.337-.352c.22-1.028.653-1.916 1.299-2.664.646-.756 1.479-1.336 2.499-1.74 1.027-.41 2.216-.616 3.567-.616.939 0 1.838.11 2.697.33.866.22 1.633.561 2.301 1.024a4.976 4.976 0 0 1 1.596 1.783c.389.72.583 1.582.583 2.587V86h-4.447v-2.345h-.132a4.782 4.782 0 0 1-1.09 1.398 5.048 5.048 0 0 1-1.64.936c-.639.22-1.376.33-2.213.33Zm1.343-3.236c.69 0 1.299-.136 1.827-.408a3.234 3.234 0 0 0 1.244-1.122c.301-.47.452-1.002.452-1.597v-1.794a2.518 2.518 0 0 1-.606.264c-.249.073-.532.143-.847.21-.316.058-.632.113-.947.164l-.859.121c-.55.081-1.031.21-1.442.386-.411.176-.73.415-.958.715-.227.294-.341.66-.341 1.101 0 .639.231 1.127.694 1.464.469.33 1.064.496 1.783.496Zm18.048 3.192c-1.284 0-2.447-.33-3.489-.99-1.035-.668-1.857-1.648-2.466-2.94-.602-1.299-.903-2.891-.903-4.778 0-1.937.312-3.548.936-4.832.624-1.292 1.453-2.257 2.488-2.895a6.373 6.373 0 0 1 3.423-.97c.947 0 1.736.162 2.367.485.639.316 1.152.712 1.541 1.189.397.47.698.932.903 1.387h.143v-8.476h4.679V86h-4.624v-2.708h-.198a6.03 6.03 0 0 1-.936 1.398c-.396.455-.913.833-1.552 1.134-.631.3-1.402.451-2.312.451Zm1.487-3.732c.755 0 1.394-.205 1.915-.616.528-.419.932-1.002 1.211-1.75.286-.75.429-1.626.429-2.632 0-1.005-.139-1.878-.418-2.62-.279-.74-.683-1.313-1.211-1.717-.528-.403-1.171-.605-1.926-.605-.771 0-1.421.209-1.949.627-.528.418-.928.998-1.2 1.74-.271.74-.407 1.6-.407 2.576 0 .983.136 1.853.407 2.608.279.75.679 1.336 1.2 1.762.528.418 1.178.627 1.949.627Zm18.221 3.732c-1.284 0-2.447-.33-3.489-.99-1.035-.668-1.857-1.648-2.466-2.94-.602-1.299-.903-2.891-.903-4.778 0-1.937.312-3.548.936-4.832.624-1.292 1.453-2.257 2.488-2.895a6.373 6.373 0 0 1 3.423-.97c.947 0 1.736.162 2.367.485.639.316 1.152.712 1.541 1.189.397.47.698.932.903 1.387h.143v-8.476h4.679V86h-4.624v-2.708h-.198a6.03 6.03 0 0 1-.936 1.398c-.396.455-.913.833-1.552 1.134-.631.3-1.402.451-2.312.451Zm1.487-3.732c.755 0 1.394-.205 1.915-.616.528-.419.932-1.002 1.211-1.75.286-.75.429-1.626.429-2.632 0-1.005-.139-1.878-.418-2.62-.279-.74-.683-1.313-1.211-1.717-.528-.403-1.171-.605-1.926-.605-.771 0-1.421.209-1.949.627-.528.418-.928.998-1.2 1.74-.271.74-.407 1.6-.407 2.576 0 .983.136 1.853.407 2.608.279.75.679 1.336 1.2 1.762.528.418 1.178.627 1.949.627ZM285.783 86V69.09h4.689V86h-4.689Zm2.355-19.089a2.548 2.548 0 0 1-1.794-.693c-.492-.47-.738-1.031-.738-1.685 0-.645.246-1.2.738-1.662a2.526 2.526 0 0 1 1.794-.705c.698 0 1.292.235 1.784.705.499.462.748 1.017.748 1.662 0 .654-.249 1.215-.748 1.685-.492.462-1.086.693-1.784.693Zm10.781 9.313V86h-4.69V69.09h4.469v2.984h.198a4.72 4.72 0 0 1 1.883-2.334c.881-.58 1.948-.87 3.203-.87 1.175 0 2.198.258 3.072.771.873.514 1.552 1.248 2.036 2.202.485.947.727 2.077.727 3.39V86h-4.69v-9.93c.008-1.034-.257-1.842-.792-2.422-.536-.587-1.274-.88-2.213-.88-.631 0-1.189.135-1.673.407a2.835 2.835 0 0 0-1.123 1.189c-.264.514-.4 1.134-.407 1.86Zm22.212 16.47c-1.519 0-2.822-.21-3.908-.628-1.079-.411-1.938-.973-2.576-1.685a5.176 5.176 0 0 1-1.244-2.4l4.337-.583c.132.338.342.653.628.947.286.293.664.528 1.134.704.477.184 1.057.276 1.739.276 1.02 0 1.86-.25 2.521-.749.668-.492 1.002-1.317 1.002-2.477v-3.093h-.198c-.206.47-.514.913-.925 1.332-.411.418-.94.76-1.585 1.024-.646.264-1.417.396-2.312.396-1.27 0-2.426-.294-3.468-.88-1.035-.595-1.86-1.502-2.477-2.72-.609-1.226-.913-2.774-.913-4.646 0-1.915.311-3.515.935-4.8.624-1.284 1.453-2.245 2.488-2.883a6.43 6.43 0 0 1 3.424-.958c.947 0 1.739.161 2.378.484.638.316 1.152.712 1.541 1.189.396.47.701.932.914 1.387h.176v-2.84h4.656v17.074c0 1.439-.352 2.642-1.056 3.61-.705.97-1.681 1.696-2.929 2.18-1.24.492-2.667.738-4.282.738Zm.099-10.459c.756 0 1.394-.187 1.916-.561.528-.382.932-.925 1.21-1.63.287-.712.43-1.563.43-2.554 0-.99-.14-1.849-.419-2.576-.278-.734-.682-1.302-1.21-1.706-.529-.403-1.171-.605-1.927-.605-.771 0-1.42.209-1.948.627-.529.411-.929.983-1.2 1.717-.272.734-.408 1.582-.408 2.543 0 .977.136 1.82.408 2.532.278.705.678 1.252 1.2 1.64.528.382 1.177.573 1.948.573Z" fill="#fff"/>
  <path fill="#F56565" fill-opacity=".5" d="M96 120h288v10H96z"/>
  <path fill="#F56565" fill-opacity=".5" d="M96 350h288v10H96z"/>
  <path fill="#F56565" fill-opacity=".5" d="M360 96v288h-10V96z"/>
  <path fill="#F56565" fill-opacity=".5" d="M130 96v288h-10V96z"/>
  <defs>
    <clipPath id="a">
      <rect x="120" y="120" width="240" height="240" rx="8" fill="#fff"/>
    </clipPath>
  </defs>
</svg>
