<svg width="480" height="480" viewBox="0 0 480 480" fill="none" xmlns="http://www.w3.org/2000/svg">
<rect width="480" height="480" fill="#3C3C43"/>
<g clip-path="url(#clip0_1612_12654)">
<rect x="120" y="120" width="240" height="240" rx="8" fill="#F5F5F5"/>
<path d="M120 130H360" stroke="#D8D8D9" stroke-width="0.5"/>
<path d="M130 120V360" stroke="#D8D8D9" stroke-width="0.5"/>
<path d="M120 140H360" stroke="#D8D8D9" stroke-width="0.5"/>
<path d="M140 120V360" stroke="#D8D8D9" stroke-width="0.5"/>
<path d="M120 150H360" stroke="#D8D8D9" stroke-width="0.5"/>
<path d="M150 120V360" stroke="#D8D8D9" stroke-width="0.5"/>
<path d="M120 160H360" stroke="#D8D8D9" stroke-width="0.5"/>
<path d="M160 120V360" stroke="#D8D8D9" stroke-width="0.5"/>
<path d="M120 170H360" stroke="#D8D8D9" stroke-width="0.5"/>
<path d="M170 120V360" stroke="#D8D8D9" stroke-width="0.5"/>
<path d="M120 180H360" stroke="#D8D8D9" stroke-width="0.5"/>
<path d="M180 120V360" stroke="#D8D8D9" stroke-width="0.5"/>
<path d="M120 190H360" stroke="#D8D8D9" stroke-width="0.5"/>
<path d="M190 120V360" stroke="#D8D8D9" stroke-width="0.5"/>
<path d="M120 200H360" stroke="#D8D8D9" stroke-width="0.5"/>
<path d="M200 120V360" stroke="#D8D8D9" stroke-width="0.5"/>
<path d="M120 210H360" stroke="#D8D8D9" stroke-width="0.5"/>
<path d="M210 120V360" stroke="#D8D8D9" stroke-width="0.5"/>
<path d="M120 220H360" stroke="#D8D8D9" stroke-width="0.5"/>
<path d="M220 120V360" stroke="#D8D8D9" stroke-width="0.5"/>
<path d="M120 230H360" stroke="#D8D8D9" stroke-width="0.5"/>
<path d="M230 120V360" stroke="#D8D8D9" stroke-width="0.5"/>
<path d="M120 240H360" stroke="#D8D8D9" stroke-width="0.5"/>
<path d="M240 120V360" stroke="#D8D8D9" stroke-width="0.5"/>
<path d="M120 250H360" stroke="#D8D8D9" stroke-width="0.5"/>
<path d="M250 120V360" stroke="#D8D8D9" stroke-width="0.5"/>
<path d="M120 260H360" stroke="#D8D8D9" stroke-width="0.5"/>
<path d="M260 120V360" stroke="#D8D8D9" stroke-width="0.5"/>
<path d="M120 270H360" stroke="#D8D8D9" stroke-width="0.5"/>
<path d="M270 120V360" stroke="#D8D8D9" stroke-width="0.5"/>
<path d="M120 280H360" stroke="#D8D8D9" stroke-width="0.5"/>
<path d="M280 120V360" stroke="#D8D8D9" stroke-width="0.5"/>
<path d="M120 290H360" stroke="#D8D8D9" stroke-width="0.5"/>
<path d="M290 120V360" stroke="#D8D8D9" stroke-width="0.5"/>
<path d="M120 300H360" stroke="#D8D8D9" stroke-width="0.5"/>
<path d="M300 120V360" stroke="#D8D8D9" stroke-width="0.5"/>
<path d="M120 310H360" stroke="#D8D8D9" stroke-width="0.5"/>
<path d="M310 120V360" stroke="#D8D8D9" stroke-width="0.5"/>
<path d="M120 320H360" stroke="#D8D8D9" stroke-width="0.5"/>
<path d="M320 120V360" stroke="#D8D8D9" stroke-width="0.5"/>
<path d="M120 330H360" stroke="#D8D8D9" stroke-width="0.5"/>
<path d="M330 120V360" stroke="#D8D8D9" stroke-width="0.5"/>
<path d="M120 340H360" stroke="#D8D8D9" stroke-width="0.5"/>
<path d="M340 120V360" stroke="#D8D8D9" stroke-width="0.5"/>
<path d="M120 350H360" stroke="#D8D8D9" stroke-width="0.5"/>
<path d="M350 120V360" stroke="#D8D8D9" stroke-width="0.5"/>
</g>
<g id="embed-lucide-layout-panel-left" stroke="#3C3C43" stroke-width="2" stroke-linecap="round" stroke-linejoin="round" transform="translate(120 120), scale(10)">
  <rect width="7" height="18" x="3" y="3" rx="1" />
  <rect width="7" height="7" x="14" y="3" rx="1" />
  <rect width="7" height="7" x="14" y="14" rx="1" />
</g>
<g id="embed-lucide-layout-panel-left" stroke-width="0.1" stroke="#F56565" stroke-linecap="round" stroke-linejoin="round" transform="translate(120 120), scale(10)">
  <rect width="7" height="18" x="3" y="3" rx="1" />
  <rect width="7" height="7" x="14" y="3" rx="1" />
  <rect width="7" height="7" x="14" y="14" rx="1" />
</g>
<path d="M50.7607 76.8079V72.9329L66.2607 66.1076V70.5661L55.6485 74.8263L55.7916 74.5952V75.1456L55.6485 74.9144L66.2607 79.1747V83.6332L50.7607 76.8079ZM79.2838 86.3082C77.5885 86.3082 76.0803 86.033 74.7593 85.4826C73.4456 84.9248 72.4145 84.1652 71.6659 83.2038C70.9173 82.2424 70.5431 81.1526 70.5431 79.9343C70.5431 78.9949 70.7559 78.1326 71.1816 77.3473C71.6146 76.5547 72.2017 75.8978 72.9429 75.3768C73.6842 74.8484 74.5135 74.5108 75.4308 74.364V74.2099C74.2272 73.9677 73.2512 73.3842 72.5026 72.4595C71.754 71.5275 71.3797 70.445 71.3797 69.212C71.3797 68.0451 71.721 67.0066 72.4035 66.0966C73.086 65.1792 74.0218 64.46 75.2107 63.9389C76.4069 63.4105 77.7646 63.1463 79.2838 63.1463C80.803 63.1463 82.157 63.4105 83.346 63.9389C84.5422 64.4673 85.4816 65.1902 86.1642 66.1076C86.8467 67.0176 87.1916 68.0524 87.199 69.212C87.1916 70.4523 86.81 71.5348 86.0541 72.4595C85.2981 73.3842 84.3294 73.9677 83.1478 74.2099V74.364C84.0505 74.5108 84.8688 74.8484 85.6027 75.3768C86.344 75.8978 86.9311 76.5547 87.3641 77.3473C87.8044 78.1326 88.0283 78.9949 88.0356 79.9343C88.0283 81.1526 87.6503 82.2424 86.9017 83.2038C86.1531 84.1652 85.1183 84.9248 83.7973 85.4826C82.4836 86.033 80.9791 86.3082 79.2838 86.3082ZM79.2838 82.8075C80.0397 82.8075 80.7003 82.6718 81.2654 82.4002C81.8305 82.1213 82.2708 81.7397 82.5864 81.2553C82.9093 80.7636 83.0708 80.1985 83.0708 79.56C83.0708 78.9068 82.9056 78.3307 82.5754 77.8317C82.2451 77.3253 81.7974 76.929 81.2323 76.6428C80.6672 76.3492 80.0177 76.2024 79.2838 76.2024C78.5573 76.2024 77.9078 76.3492 77.3353 76.6428C76.7629 76.929 76.3115 77.3253 75.9813 77.8317C75.6584 78.3307 75.4969 78.9068 75.4969 79.56C75.4969 80.1985 75.6547 80.7636 75.9703 81.2553C76.2858 81.7397 76.7298 82.1213 77.3023 82.4002C77.8747 82.6718 78.5352 82.8075 79.2838 82.8075ZM79.2838 72.7347C79.915 72.7347 80.4764 72.6063 80.9681 72.3494C81.4598 72.0926 81.8451 71.7366 82.124 71.2816C82.4029 70.8266 82.5423 70.3018 82.5423 69.7074C82.5423 69.1203 82.4029 68.6065 82.124 68.1662C81.8451 67.7185 81.4635 67.3699 80.9791 67.1204C80.4948 66.8635 79.9297 66.7351 79.2838 66.7351C78.6453 66.7351 78.0802 66.8635 77.5885 67.1204C77.0968 67.3699 76.7115 67.7185 76.4326 68.1662C76.1611 68.6065 76.0253 69.1203 76.0253 69.7074C76.0253 70.3018 76.1647 70.8266 76.4436 71.2816C76.7225 71.7366 77.1078 72.0926 77.5995 72.3494C78.0912 72.6063 78.6527 72.7347 79.2838 72.7347ZM91.4125 92.3409V69.0909H96.036V71.9311H96.2452C96.4507 71.4761 96.7479 71.0137 97.1369 70.544C97.5332 70.067 98.0469 69.6707 98.6781 69.3551C99.3166 69.0322 100.109 68.8707 101.056 68.8707C102.289 68.8707 103.426 69.1937 104.469 69.8395C105.511 70.478 106.344 71.4431 106.968 72.7347C107.591 74.0191 107.903 75.63 107.903 77.5675C107.903 79.4536 107.599 81.0462 106.99 82.3452C106.388 83.6368 105.566 84.6166 104.524 85.2844C103.489 85.945 102.329 86.2752 101.045 86.2752C100.135 86.2752 99.3606 86.1248 98.7221 85.8239C98.091 85.523 97.5736 85.145 97.1699 84.69C96.7663 84.2276 96.458 83.7616 96.2452 83.2919H96.1021V92.3409H91.4125ZM96.003 77.5455C96.003 78.5509 96.1425 79.4279 96.4213 80.1765C96.7002 80.9251 97.1039 81.5085 97.6323 81.9268C98.1607 82.3378 98.8029 82.5433 99.5588 82.5433C100.322 82.5433 100.968 82.3342 101.496 81.9158C102.025 81.4902 102.425 80.9031 102.696 80.1545C102.975 79.3986 103.115 78.5289 103.115 77.5455C103.115 76.5694 102.979 75.7107 102.707 74.9695C102.436 74.2282 102.036 73.6484 101.507 73.2301C100.979 72.8118 100.329 72.6026 99.5588 72.6026C98.7955 72.6026 98.1497 72.8045 97.6213 73.2081C97.1002 73.6117 96.7002 74.1842 96.4213 74.9254C96.1425 75.6667 96.003 76.54 96.003 77.5455ZM114.343 69.0909L117.448 75.0025L120.629 69.0909H125.44L120.541 77.5455L125.572 86H120.783L117.448 80.1545L114.167 86H109.323L114.343 77.5455L109.499 69.0909H114.343ZM148.962 85.8239L146.408 83.2919L154.973 74.7273L146.408 66.1736L148.962 63.6307L160.059 74.7273L148.962 85.8239ZM137.403 79.483V75.8942H156.503L152.892 79.483H137.403ZM137.403 73.5604V69.9716H152.892L156.503 73.5604H137.403ZM181.916 63.4545V86H177.15V67.979H177.017L171.854 71.2156V66.9883L177.436 63.4545H181.916ZM187.319 92.3409V69.0909H191.942V71.9311H192.151C192.357 71.4761 192.654 71.0137 193.043 70.544C193.439 70.067 193.953 69.6707 194.584 69.3551C195.223 69.0322 196.015 68.8707 196.962 68.8707C198.195 68.8707 199.333 69.1937 200.375 69.8395C201.417 70.478 202.25 71.4431 202.874 72.7347C203.498 74.0191 203.809 75.63 203.809 77.5675C203.809 79.4536 203.505 81.0462 202.896 82.3452C202.294 83.6368 201.472 84.6166 200.43 85.2844C199.395 85.945 198.235 86.2752 196.951 86.2752C196.041 86.2752 195.267 86.1248 194.628 85.8239C193.997 85.523 193.48 85.145 193.076 84.69C192.673 84.2276 192.364 83.7616 192.151 83.2919H192.008V92.3409H187.319ZM191.909 77.5455C191.909 78.5509 192.049 79.4279 192.328 80.1765C192.606 80.9251 193.01 81.5085 193.539 81.9268C194.067 82.3378 194.709 82.5433 195.465 82.5433C196.228 82.5433 196.874 82.3342 197.403 81.9158C197.931 81.4902 198.331 80.9031 198.602 80.1545C198.881 79.3986 199.021 78.5289 199.021 77.5455C199.021 76.5694 198.885 75.7107 198.613 74.9695C198.342 74.2282 197.942 73.6484 197.414 73.2301C196.885 72.8118 196.236 72.6026 195.465 72.6026C194.702 72.6026 194.056 72.8045 193.528 73.2081C193.006 73.6117 192.606 74.1842 192.328 74.9254C192.049 75.6667 191.909 76.54 191.909 77.5455ZM210.249 69.0909L213.354 75.0025L216.535 69.0909H221.346L216.447 77.5455L221.478 86H216.689L213.354 80.1545L210.073 86H205.23L210.249 77.5455L205.406 69.0909H210.249ZM238.946 86.3303C237.214 86.3303 235.724 85.9633 234.476 85.2294C233.236 84.4882 232.282 83.4607 231.614 82.147C230.954 80.8333 230.623 79.3215 230.623 77.6115C230.623 75.8795 230.957 74.3603 231.625 73.054C232.3 71.7403 233.258 70.7165 234.498 69.9826C235.739 69.2414 237.214 68.8707 238.924 68.8707C240.399 68.8707 241.691 69.1386 242.799 69.6744C243.907 70.2101 244.784 70.9624 245.43 71.9311C246.076 72.8999 246.432 74.0374 246.498 75.3438H242.072C241.948 74.4998 241.617 73.8209 241.082 73.3072C240.553 72.7861 239.86 72.5256 239.001 72.5256C238.274 72.5256 237.64 72.7237 237.097 73.12C236.561 73.509 236.142 74.0778 235.842 74.8263C235.541 75.5749 235.39 76.4813 235.39 77.5455C235.39 78.6243 235.537 79.5417 235.831 80.2976C236.131 81.0535 236.553 81.6296 237.097 82.0259C237.64 82.4222 238.274 82.6204 239.001 82.6204C239.537 82.6204 240.017 82.5103 240.443 82.2901C240.876 82.07 241.232 81.7507 241.511 81.3324C241.797 80.9067 241.984 80.3967 242.072 79.8022H246.498C246.424 81.0939 246.072 82.2314 245.441 83.2148C244.817 84.1909 243.955 84.9542 242.854 85.5046C241.753 86.055 240.45 86.3303 238.946 86.3303ZM257.14 86.3303C255.43 86.3303 253.951 85.967 252.704 85.2404C251.464 84.5065 250.506 83.4864 249.831 82.18C249.155 80.8664 248.818 79.3435 248.818 77.6115C248.818 75.8648 249.155 74.3383 249.831 73.032C250.506 71.7183 251.464 70.6982 252.704 69.9716C253.951 69.2377 255.43 68.8707 257.14 68.8707C258.85 68.8707 260.325 69.2377 261.566 69.9716C262.813 70.6982 263.775 71.7183 264.45 73.032C265.125 74.3383 265.463 75.8648 265.463 77.6115C265.463 79.3435 265.125 80.8664 264.45 82.18C263.775 83.4864 262.813 84.5065 261.566 85.2404C260.325 85.967 258.85 86.3303 257.14 86.3303ZM257.162 82.6974C257.94 82.6974 258.59 82.4773 259.111 82.0369C259.632 81.5893 260.025 80.9801 260.289 80.2095C260.56 79.4389 260.696 78.5619 260.696 77.5785C260.696 76.5951 260.56 75.718 260.289 74.9474C260.025 74.1768 259.632 73.5677 259.111 73.12C258.59 72.6723 257.94 72.4485 257.162 72.4485C256.377 72.4485 255.717 72.6723 255.181 73.12C254.652 73.5677 254.252 74.1768 253.981 74.9474C253.717 75.718 253.585 76.5951 253.585 77.5785C253.585 78.5619 253.717 79.4389 253.981 80.2095C254.252 80.9801 254.652 81.5893 255.181 82.0369C255.717 82.4773 256.377 82.6974 257.162 82.6974ZM268.512 86V69.0909H273.059V72.0412H273.235C273.543 70.9917 274.06 70.1991 274.787 69.6634C275.513 69.1203 276.35 68.8487 277.297 68.8487C277.532 68.8487 277.785 68.8634 278.056 68.8928C278.328 68.9221 278.567 68.9625 278.772 69.0138V73.1751C278.552 73.109 278.247 73.0503 277.858 72.9989C277.469 72.9476 277.113 72.9219 276.79 72.9219C276.101 72.9219 275.484 73.0723 274.941 73.3732C274.405 73.6668 273.98 74.0778 273.664 74.6062C273.356 75.1346 273.202 75.7437 273.202 76.4336V86H268.512ZM285.886 76.2244V86H281.197V69.0909H285.666V72.0742H285.864C286.239 71.0908 286.866 70.3129 287.747 69.7404C288.627 69.1606 289.695 68.8707 290.95 68.8707C292.124 68.8707 293.148 69.1276 294.022 69.6413C294.895 70.1551 295.574 70.889 296.058 71.843C296.543 72.7898 296.785 73.92 296.785 75.2337V86H292.095V76.0703C292.102 75.0355 291.838 74.2282 291.302 73.6484C290.767 73.0613 290.029 72.7678 289.09 72.7678C288.459 72.7678 287.901 72.9035 287.416 73.1751C286.939 73.4466 286.565 73.8429 286.294 74.364C286.029 74.8777 285.894 75.4979 285.886 76.2244ZM308.187 86.3303C306.447 86.3303 304.95 85.978 303.695 85.2734C302.448 84.5616 301.486 83.5561 300.811 82.2571C300.136 80.9508 299.798 79.4059 299.798 77.6225C299.798 75.8832 300.136 74.3567 300.811 73.043C301.486 71.7293 302.437 70.7055 303.662 69.9716C304.895 69.2377 306.341 68.8707 308 68.8707C309.115 68.8707 310.154 69.0505 311.115 69.4102C312.084 69.7624 312.928 70.2945 313.647 71.0064C314.374 71.7183 314.939 72.6136 315.342 73.6925C315.746 74.764 315.948 76.0189 315.948 77.4574V78.7454H301.67V75.8391H311.533C311.533 75.1639 311.387 74.5658 311.093 74.0447C310.799 73.5237 310.392 73.1164 309.871 72.8228C309.357 72.5219 308.759 72.3714 308.077 72.3714C307.365 72.3714 306.734 72.5366 306.183 72.8668C305.64 73.1897 305.214 73.6264 304.906 74.1768C304.598 74.7199 304.44 75.3254 304.433 75.9933V78.7564C304.433 79.593 304.587 80.3159 304.895 80.9251C305.211 81.5342 305.655 82.0039 306.227 82.3342C306.8 82.6644 307.479 82.8295 308.264 82.8295C308.785 82.8295 309.262 82.7562 309.695 82.6094C310.128 82.4626 310.499 82.2424 310.807 81.9489C311.115 81.6553 311.35 81.2957 311.511 80.87L315.849 81.1562C315.629 82.1984 315.177 83.1084 314.495 83.8864C313.819 84.657 312.946 85.2588 311.875 85.6918C310.81 86.1174 309.581 86.3303 308.187 86.3303ZM319.008 86V69.0909H323.555V72.0412H323.731C324.039 70.9917 324.556 70.1991 325.283 69.6634C326.01 69.1203 326.846 68.8487 327.793 68.8487C328.028 68.8487 328.281 68.8634 328.553 68.8928C328.824 68.9221 329.063 68.9625 329.268 69.0138V73.1751C329.048 73.109 328.743 73.0503 328.354 72.9989C327.965 72.9476 327.609 72.9219 327.287 72.9219C326.597 72.9219 325.98 73.0723 325.437 73.3732C324.901 73.6668 324.476 74.0778 324.16 74.6062C323.852 75.1346 323.698 75.7437 323.698 76.4336V86H319.008ZM338.868 86V69.0909H343.414V72.0412H343.59C343.898 70.9917 344.416 70.1991 345.142 69.6634C345.869 69.1203 346.706 68.8487 347.652 68.8487C347.887 68.8487 348.14 68.8634 348.412 68.8928C348.683 68.9221 348.922 68.9625 349.127 69.0138V73.1751C348.907 73.109 348.603 73.0503 348.214 72.9989C347.825 72.9476 347.469 72.9219 347.146 72.9219C346.456 72.9219 345.84 73.0723 345.297 73.3732C344.761 73.6668 344.335 74.0778 344.02 74.6062C343.711 75.1346 343.557 75.7437 343.557 76.4336V86H338.868ZM355.889 86.3192C354.811 86.3192 353.849 86.1321 353.005 85.7578C352.161 85.3762 351.493 84.8147 351.002 84.0735C350.517 83.3249 350.275 82.3929 350.275 81.2773C350.275 80.3379 350.448 79.549 350.793 78.9105C351.137 78.272 351.607 77.7583 352.202 77.3693C352.796 76.9804 353.471 76.6868 354.227 76.4886C354.99 76.2905 355.79 76.151 356.627 76.0703C357.61 75.9676 358.403 75.8722 359.005 75.7841C359.607 75.6887 360.043 75.5492 360.315 75.3658C360.586 75.1823 360.722 74.9107 360.722 74.5511V74.4851C360.722 73.7879 360.502 73.2485 360.062 72.8668C359.629 72.4852 359.012 72.2944 358.212 72.2944C357.368 72.2944 356.697 72.4815 356.198 72.8558C355.699 73.2228 355.368 73.6851 355.207 74.2429L350.87 73.8906C351.09 72.8632 351.523 71.9751 352.169 71.2266C352.814 70.4706 353.647 69.8909 354.668 69.4872C355.695 69.0762 356.884 68.8707 358.234 68.8707C359.174 68.8707 360.073 68.9808 360.931 69.201C361.797 69.4212 362.564 69.7624 363.232 70.2248C363.907 70.6871 364.439 71.2816 364.828 72.0082C365.217 72.7274 365.412 73.5897 365.412 74.5952V86H360.964V83.6552H360.832C360.561 84.1836 360.197 84.6496 359.742 85.0533C359.287 85.4496 358.741 85.7615 358.102 85.989C357.464 86.2092 356.726 86.3192 355.889 86.3192ZM357.233 83.0827C357.922 83.0827 358.532 82.947 359.06 82.6754C359.588 82.3965 360.003 82.0223 360.304 81.5526C360.605 81.0829 360.755 80.5508 360.755 79.9563V78.1619C360.608 78.2573 360.407 78.3454 360.15 78.4261C359.9 78.4995 359.618 78.5692 359.302 78.6353C358.987 78.694 358.671 78.7491 358.355 78.8004C358.04 78.8445 357.754 78.8848 357.497 78.9215C356.946 79.0022 356.466 79.1307 356.055 79.3068C355.644 79.483 355.324 79.7215 355.097 80.0224C354.869 80.3159 354.756 80.6829 354.756 81.1232C354.756 81.7617 354.987 82.2498 355.449 82.5874C355.919 82.9176 356.513 83.0827 357.233 83.0827ZM375.281 86.2752C373.997 86.2752 372.833 85.945 371.791 85.2844C370.756 84.6166 369.935 83.6368 369.325 82.3452C368.724 81.0462 368.423 79.4536 368.423 77.5675C368.423 75.63 368.735 74.0191 369.358 72.7347C369.982 71.4431 370.812 70.478 371.846 69.8395C372.888 69.1937 374.03 68.8707 375.27 68.8707C376.217 68.8707 377.006 69.0322 377.637 69.3551C378.275 69.6707 378.789 70.067 379.178 70.544C379.574 71.0137 379.875 71.4761 380.081 71.9311H380.224V63.4545H384.902V86H380.279V83.2919H380.081C379.861 83.7616 379.549 84.2276 379.145 84.69C378.749 85.145 378.231 85.523 377.593 85.8239C376.962 86.1248 376.191 86.2752 375.281 86.2752ZM376.767 82.5433C377.523 82.5433 378.162 82.3378 378.683 81.9268C379.211 81.5085 379.615 80.9251 379.894 80.1765C380.18 79.4279 380.323 78.5509 380.323 77.5455C380.323 76.54 380.183 75.6667 379.905 74.9254C379.626 74.1842 379.222 73.6117 378.694 73.2081C378.165 72.8045 377.523 72.6026 376.767 72.6026C375.997 72.6026 375.347 72.8118 374.819 73.2301C374.29 73.6484 373.89 74.2282 373.619 74.9695C373.347 75.7107 373.211 76.5694 373.211 77.5455C373.211 78.5289 373.347 79.3986 373.619 80.1545C373.898 80.9031 374.298 81.4902 374.819 81.9158C375.347 82.3342 375.997 82.5433 376.767 82.5433ZM388.758 86V69.0909H393.448V86H388.758ZM391.114 66.9112C390.417 66.9112 389.819 66.68 389.32 66.2177C388.828 65.748 388.582 65.1866 388.582 64.5334C388.582 63.8875 388.828 63.3335 389.32 62.8711C389.819 62.4014 390.417 62.1665 391.114 62.1665C391.811 62.1665 392.406 62.4014 392.897 62.8711C393.396 63.3335 393.646 63.8875 393.646 64.5334C393.646 65.1866 393.396 65.748 392.897 66.2177C392.406 66.68 391.811 66.9112 391.114 66.9112ZM408.048 78.8004V69.0909H412.737V86H408.235V82.9286H408.059C407.677 83.9194 407.042 84.7157 406.154 85.3175C405.274 85.9193 404.199 86.2202 402.929 86.2202C401.799 86.2202 400.804 85.9633 399.946 85.4496C399.087 84.9358 398.415 84.2056 397.931 83.2589C397.454 82.3121 397.212 81.1783 397.204 79.8572V69.0909H401.894V79.0206C401.901 80.0187 402.169 80.8076 402.698 81.3874C403.226 81.9672 403.934 82.2571 404.822 82.2571C405.387 82.2571 405.916 82.1287 406.408 81.8718C406.899 81.6076 407.296 81.2186 407.597 80.7049C407.905 80.1912 408.055 79.5563 408.048 78.8004ZM430.558 73.9126L426.264 74.1768C426.191 73.8099 426.033 73.4796 425.791 73.1861C425.549 72.8852 425.229 72.6467 424.833 72.4705C424.444 72.287 423.978 72.1953 423.435 72.1953C422.708 72.1953 422.096 72.3494 421.597 72.6577C421.098 72.9586 420.848 73.3622 420.848 73.8686C420.848 74.2723 421.009 74.6135 421.332 74.8924C421.655 75.1713 422.209 75.3951 422.995 75.5639L426.055 76.1804C427.699 76.518 428.925 77.0611 429.732 77.8097C430.539 78.5582 430.943 79.5417 430.943 80.7599C430.943 81.8681 430.616 82.8406 429.963 83.6772C429.317 84.5138 428.429 85.167 427.299 85.6367C426.176 86.0991 424.881 86.3303 423.413 86.3303C421.175 86.3303 419.391 85.8642 418.063 84.9322C416.742 83.9928 415.968 82.7158 415.74 81.1012L420.353 80.859C420.492 81.5415 420.83 82.0626 421.365 82.4222C421.901 82.7745 422.587 82.9506 423.424 82.9506C424.246 82.9506 424.906 82.7929 425.406 82.4773C425.912 82.1544 426.169 81.7397 426.176 81.2333C426.169 80.8076 425.989 80.459 425.637 80.1875C425.284 79.9086 424.741 79.6958 424.007 79.549L421.079 78.9656C419.428 78.6353 418.199 78.0629 417.391 77.2482C416.591 76.4336 416.191 75.3951 416.191 74.1328C416.191 73.0466 416.485 72.1109 417.072 71.3256C417.667 70.5404 418.5 69.9349 419.571 69.5092C420.65 69.0836 421.912 68.8707 423.358 68.8707C425.494 68.8707 427.174 69.3221 428.4 70.2248C429.633 71.1275 430.352 72.3568 430.558 73.9126Z" fill="white"/>
<circle opacity="0.5" cx="160" cy="160" r="10" stroke="#F56565" stroke-dasharray="1 1"/>
<circle cx="160" cy="160" r="1" fill="#F56565"/>
<circle opacity="0.5" cx="210" cy="160" r="10" stroke="#F56565" stroke-dasharray="1 1"/>
<circle cx="210" cy="160" r="1" fill="#F56565"/>
<circle opacity="0.5" cx="160" cy="320" r="10" stroke="#F56565" stroke-dasharray="1 1"/>
<circle cx="160" cy="320" r="1" fill="#F56565"/>
<circle opacity="0.5" cx="210" cy="320" r="10" stroke="#F56565" stroke-dasharray="1 1"/>
<circle cx="210" cy="320" r="1" fill="#F56565"/>
<circle opacity="0.5" cx="270" cy="320" r="10" stroke="#F56565" stroke-dasharray="1 1"/>
<circle cx="270" cy="320" r="1" fill="#F56565"/>
<circle opacity="0.5" cx="320" cy="320" r="10" stroke="#F56565" stroke-dasharray="1 1"/>
<circle cx="320" cy="320" r="1" fill="#F56565"/>
<circle opacity="0.5" cx="270" cy="270" r="10" stroke="#F56565" stroke-dasharray="1 1"/>
<circle cx="270" cy="270" r="1" fill="#F56565"/>
<circle opacity="0.5" cx="320" cy="270" r="10" stroke="#F56565" stroke-dasharray="1 1"/>
<circle cx="320" cy="270" r="1" fill="#F56565"/>
<circle opacity="0.5" cx="270" cy="210" r="10" stroke="#F56565" stroke-dasharray="1 1"/>
<circle cx="270" cy="210" r="1" fill="#F56565"/>
<circle opacity="0.5" cx="320" cy="210" r="10" stroke="#F56565" stroke-dasharray="1 1"/>
<circle cx="320" cy="210" r="1" fill="#F56565"/>
<circle opacity="0.5" cx="270" cy="160" r="10" stroke="#F56565" stroke-dasharray="1 1"/>
<circle cx="270" cy="160" r="1" fill="#F56565"/>
<circle opacity="0.5" cx="320" cy="160" r="10" stroke="#F56565" stroke-dasharray="1 1"/>
<circle cx="320" cy="160" r="1" fill="#F56565"/>
<defs>
<clipPath id="clip0_1612_12654">
<rect x="120" y="120" width="240" height="240" rx="8" fill="white"/>
</clipPath>
</defs>
</svg>
