<svg width="480" height="480" fill="none" xmlns="http://www.w3.org/2000/svg">
  <path fill="#3C3C43" d="M0 0h480v480H0z"/>
  <g clip-path="url(#a)">
    <rect x="120" y="120" width="240" height="240" rx="8" fill="#F5F5F5"/>
    <path d="M120 130h240" stroke="#D8D8D9" stroke-width=".5"/>
    <path d="M130 120v240" stroke="#D8D8D9" stroke-width=".5"/>
    <path d="M120 140h240" stroke="#D8D8D9" stroke-width=".5"/>
    <path d="M140 120v240" stroke="#D8D8D9" stroke-width=".5"/>
    <path d="M120 150h240" stroke="#D8D8D9" stroke-width=".5"/>
    <path d="M150 120v240" stroke="#D8D8D9" stroke-width=".5"/>
    <path d="M120 160h240" stroke="#D8D8D9" stroke-width=".5"/>
    <path d="M160 120v240" stroke="#D8D8D9" stroke-width=".5"/>
    <path d="M120 170h240" stroke="#D8D8D9" stroke-width=".5"/>
    <path d="M170 120v240" stroke="#D8D8D9" stroke-width=".5"/>
    <path d="M120 180h240" stroke="#D8D8D9" stroke-width=".5"/>
    <path d="M180 120v240" stroke="#D8D8D9" stroke-width=".5"/>
    <path d="M120 190h240" stroke="#D8D8D9" stroke-width=".5"/>
    <path d="M190 120v240" stroke="#D8D8D9" stroke-width=".5"/>
    <path d="M120 200h240" stroke="#D8D8D9" stroke-width=".5"/>
    <path d="M200 120v240" stroke="#D8D8D9" stroke-width=".5"/>
    <path d="M120 210h240" stroke="#D8D8D9" stroke-width=".5"/>
    <path d="M210 120v240" stroke="#D8D8D9" stroke-width=".5"/>
    <path d="M120 220h240" stroke="#D8D8D9" stroke-width=".5"/>
    <path d="M220 120v240" stroke="#D8D8D9" stroke-width=".5"/>
    <path d="M120 230h240" stroke="#D8D8D9" stroke-width=".5"/>
    <path d="M230 120v240" stroke="#D8D8D9" stroke-width=".5"/>
    <path d="M120 240h240" stroke="#D8D8D9" stroke-width=".5"/>
    <path d="M240 120v240" stroke="#D8D8D9" stroke-width=".5"/>
    <path d="M120 250h240" stroke="#D8D8D9" stroke-width=".5"/>
    <path d="M250 120v240" stroke="#D8D8D9" stroke-width=".5"/>
    <path d="M120 260h240" stroke="#D8D8D9" stroke-width=".5"/>
    <path d="M260 120v240" stroke="#D8D8D9" stroke-width=".5"/>
    <path d="M120 270h240" stroke="#D8D8D9" stroke-width=".5"/>
    <path d="M270 120v240" stroke="#D8D8D9" stroke-width=".5"/>
    <path d="M120 280h240" stroke="#D8D8D9" stroke-width=".5"/>
    <path d="M280 120v240" stroke="#D8D8D9" stroke-width=".5"/>
    <path d="M120 290h240" stroke="#D8D8D9" stroke-width=".5"/>
    <path d="M290 120v240" stroke="#D8D8D9" stroke-width=".5"/>
    <path d="M120 300h240" stroke="#D8D8D9" stroke-width=".5"/>
    <path d="M300 120v240" stroke="#D8D8D9" stroke-width=".5"/>
    <path d="M120 310h240" stroke="#D8D8D9" stroke-width=".5"/>
    <path d="M310 120v240" stroke="#D8D8D9" stroke-width=".5"/>
    <path d="M120 320h240" stroke="#D8D8D9" stroke-width=".5"/>
    <path d="M320 120v240" stroke="#D8D8D9" stroke-width=".5"/>
    <path d="M120 330h240" stroke="#D8D8D9" stroke-width=".5"/>
    <path d="M330 120v240" stroke="#D8D8D9" stroke-width=".5"/>
    <path d="M120 340h240" stroke="#D8D8D9" stroke-width=".5"/>
    <path d="M340 120v240" stroke="#D8D8D9" stroke-width=".5"/>
    <path d="M120 350h240" stroke="#D8D8D9" stroke-width=".5"/>
    <path d="M350 120v240" stroke="#D8D8D9" stroke-width=".5"/>
</g>
<g id="embed-lucide-layers" stroke="#3C3C43" stroke-width="2" stroke-linecap="round" stroke-linejoin="round" transform="translate(120 120), scale(10)">
  <path d="M12.83 2.18a2 2 0 0 0-1.66 0L2.6 6.08a1 1 0 0 0 0 1.83l8.58 3.91a2 2 0 0 0 1.66 0l8.58-3.9a1 1 0 0 0 0-1.83z" />
  <path d="M2 12a1 1 0 0 0 .58.91l8.6 3.91a2 2 0 0 0 1.65 0l8.58-3.9A1 1 0 0 0 22 12" />
  <path d="M2 17a1 1 0 0 0 .58.91l8.6 3.91a2 2 0 0 0 1.65 0l8.58-3.9A1 1 0 0 0 22 17" />
</g>
  <g opacity=".5" stroke="#fff" stroke-width="3">
    <path d="M120 92v16"/>
    <path d="M360 92v16"/>
    <path d="M120 100h240"/>
  </g>
  <g opacity=".5" stroke="#fff" stroke-width="3">
    <path d="M387.922 120h-16"/>
    <path d="M387.922 360h-16"/>
    <path d="M379.922 120v240"/>
  </g>
  <path d="M203.395 86v-3.435l8.025-7.43a30.442 30.442 0 0 0 1.718-1.784c.47-.528.825-1.046 1.068-1.552a3.851 3.851 0 0 0 .363-1.662c0-.66-.151-1.23-.451-1.707a2.964 2.964 0 0 0-1.233-1.112c-.521-.264-1.112-.396-1.773-.396-.69 0-1.291.14-1.805.419-.514.278-.91.678-1.189 1.2-.279.52-.418 1.14-.418 1.86h-4.525c0-1.475.334-2.756 1.002-3.842.668-1.086 1.603-1.927 2.807-2.521 1.204-.594 2.591-.892 4.161-.892 1.615 0 3.02.286 4.217.859 1.203.565 2.139 1.35 2.807 2.356.668 1.005 1.002 2.157 1.002 3.456 0 .852-.169 1.692-.507 2.521-.33.83-.921 1.75-1.772 2.764-.852 1.005-2.052 2.212-3.6 3.621L210 81.95v.154h9.468V86h-16.073Zm18.701-3.963v-3.754l9.412-14.828h3.237v5.196h-1.916l-5.933 9.39v.176h13.375v3.82h-18.175ZM232.917 86v-5.108l.088-1.662V63.454h4.47V86h-4.558Zm10.574 6.34V69.09h4.624v2.841h.209c.205-.455.503-.917.892-1.387.396-.477.91-.873 1.541-1.189.638-.323 1.431-.484 2.378-.484 1.232 0 2.37.323 3.412.969 1.042.638 1.875 1.603 2.499 2.895.624 1.284.936 2.895.936 4.832 0 1.887-.305 3.48-.914 4.778-.602 1.292-1.424 2.272-2.466 2.94-1.035.66-2.194.99-3.478.99-.911 0-1.685-.15-2.323-.451-.631-.301-1.149-.679-1.552-1.134a5.755 5.755 0 0 1-.925-1.398h-.143v9.049h-4.69Zm4.591-14.794c0 1.005.139 1.882.418 2.63.279.75.682 1.332 1.211 1.75.528.412 1.17.617 1.926.617.764 0 1.409-.209 1.938-.627.528-.426.928-1.013 1.2-1.761.279-.756.418-1.626.418-2.61 0-.976-.136-1.834-.407-2.576-.272-.74-.672-1.32-1.2-1.739-.529-.418-1.178-.627-1.949-.627-.763 0-1.409.202-1.937.605-.521.404-.921.976-1.2 1.717-.279.742-.418 1.615-.418 2.62Zm18.34-8.455 3.104 5.912 3.182-5.912h4.81l-4.898 8.455L277.651 86h-4.789l-3.336-5.846-3.28 5.846h-4.844l5.02-8.454-4.844-8.455h4.844Z" fill="#fff"/>
  <path d="M392.239 251.5v-3.435l8.025-7.43a30.403 30.403 0 0 0 1.718-1.784c.469-.528.825-1.046 1.067-1.552a3.839 3.839 0 0 0 .364-1.662c0-.661-.151-1.23-.452-1.707a2.96 2.96 0 0 0-1.233-1.111c-.521-.265-1.111-.397-1.772-.397-.69 0-1.292.14-1.805.419-.514.278-.91.678-1.189 1.199-.279.522-.419 1.142-.419 1.861h-4.524c0-1.475.334-2.756 1.002-3.842.667-1.086 1.603-1.927 2.807-2.521 1.203-.594 2.59-.892 4.161-.892 1.615 0 3.02.287 4.216.859 1.204.565 2.14 1.35 2.807 2.356.668 1.005 1.002 2.157 1.002 3.456 0 .852-.169 1.692-.506 2.521-.33.83-.921 1.751-1.773 2.764-.851 1.005-2.051 2.212-3.599 3.621l-3.292 3.226v.154h9.467v3.897h-16.072Zm18.701-3.963v-3.754l9.412-14.828h3.237v5.196h-1.916l-5.934 9.39v.176h13.376v3.82H410.94Zm10.821 3.963v-5.108l.088-1.662v-15.775h4.47V251.5h-4.558Zm10.574 6.341v-23.25h4.623v2.84h.21c.205-.455.502-.917.891-1.387.397-.477.91-.873 1.541-1.189.639-.323 1.432-.484 2.378-.484 1.233 0 2.371.323 3.413.968 1.042.639 1.875 1.604 2.499 2.896.624 1.284.936 2.895.936 4.832 0 1.887-.305 3.479-.914 4.778-.602 1.292-1.424 2.272-2.466 2.939-1.035.661-2.194.991-3.479.991-.91 0-1.684-.15-2.323-.451-.631-.301-1.148-.679-1.552-1.134a5.736 5.736 0 0 1-.924-1.398h-.144v9.049h-4.689Zm4.59-14.796c0 1.006.14 1.883.419 2.631.279.749.682 1.333 1.211 1.751.528.411 1.17.616 1.926.616.763 0 1.409-.209 1.938-.627.528-.426.928-1.013 1.2-1.762.278-.755.418-1.625.418-2.609 0-.976-.136-1.834-.407-2.576-.272-.741-.672-1.321-1.2-1.739-.529-.418-1.178-.627-1.949-.627-.763 0-1.409.201-1.937.605-.521.404-.921.976-1.2 1.717-.279.742-.419 1.615-.419 2.62Zm18.341-8.454 3.104 5.911 3.181-5.911h4.811l-4.899 8.454 5.031 8.455h-4.788l-3.336-5.846-3.281 5.846h-4.843l5.02-8.455-4.844-8.454h4.844Z" fill="#fff"/>
  <defs>
    <clipPath id="a">
      <rect x="120" y="120" width="240" height="240" rx="8" fill="#fff"/>
    </clipPath>
  </defs>
</svg>
