<svg width="480" height="480" viewBox="0 0 480 480" fill="none" xmlns="http://www.w3.org/2000/svg">
<rect width="480" height="480" fill="#3C3C43"/>
<g clip-path="url(#clip0_1330_14149)">
<rect x="120" y="120" width="240" height="240" rx="8" fill="#F5F5F5"/>
<path d="M120 130H360" stroke="#D8D8D9" stroke-width="0.5"/>
<path d="M130 120V360" stroke="#D8D8D9" stroke-width="0.5"/>
<path d="M120 140H360" stroke="#D8D8D9" stroke-width="0.5"/>
<path d="M140 120V360" stroke="#D8D8D9" stroke-width="0.5"/>
<path d="M120 150H360" stroke="#D8D8D9" stroke-width="0.5"/>
<path d="M150 120V360" stroke="#D8D8D9" stroke-width="0.5"/>
<path d="M120 160H360" stroke="#D8D8D9" stroke-width="0.5"/>
<path d="M160 120V360" stroke="#D8D8D9" stroke-width="0.5"/>
<path d="M120 170H360" stroke="#D8D8D9" stroke-width="0.5"/>
<path d="M170 120V360" stroke="#D8D8D9" stroke-width="0.5"/>
<path d="M120 180H360" stroke="#D8D8D9" stroke-width="0.5"/>
<path d="M180 120V360" stroke="#D8D8D9" stroke-width="0.5"/>
<path d="M120 190H360" stroke="#D8D8D9" stroke-width="0.5"/>
<path d="M190 120V360" stroke="#D8D8D9" stroke-width="0.5"/>
<path d="M120 200H360" stroke="#D8D8D9" stroke-width="0.5"/>
<path d="M200 120V360" stroke="#D8D8D9" stroke-width="0.5"/>
<path d="M120 210H360" stroke="#D8D8D9" stroke-width="0.5"/>
<path d="M210 120V360" stroke="#D8D8D9" stroke-width="0.5"/>
<path d="M120 220H360" stroke="#D8D8D9" stroke-width="0.5"/>
<path d="M220 120V360" stroke="#D8D8D9" stroke-width="0.5"/>
<path d="M120 230H360" stroke="#D8D8D9" stroke-width="0.5"/>
<path d="M230 120V360" stroke="#D8D8D9" stroke-width="0.5"/>
<path d="M120 240H360" stroke="#D8D8D9" stroke-width="0.5"/>
<path d="M240 120V360" stroke="#D8D8D9" stroke-width="0.5"/>
<path d="M120 250H360" stroke="#D8D8D9" stroke-width="0.5"/>
<path d="M250 120V360" stroke="#D8D8D9" stroke-width="0.5"/>
<path d="M120 260H360" stroke="#D8D8D9" stroke-width="0.5"/>
<path d="M260 120V360" stroke="#D8D8D9" stroke-width="0.5"/>
<path d="M120 270H360" stroke="#D8D8D9" stroke-width="0.5"/>
<path d="M270 120V360" stroke="#D8D8D9" stroke-width="0.5"/>
<path d="M120 280H360" stroke="#D8D8D9" stroke-width="0.5"/>
<path d="M280 120V360" stroke="#D8D8D9" stroke-width="0.5"/>
<path d="M120 290H360" stroke="#D8D8D9" stroke-width="0.5"/>
<path d="M290 120V360" stroke="#D8D8D9" stroke-width="0.5"/>
<path d="M120 300H360" stroke="#D8D8D9" stroke-width="0.5"/>
<path d="M300 120V360" stroke="#D8D8D9" stroke-width="0.5"/>
<path d="M120 310H360" stroke="#D8D8D9" stroke-width="0.5"/>
<path d="M310 120V360" stroke="#D8D8D9" stroke-width="0.5"/>
<path d="M120 320H360" stroke="#D8D8D9" stroke-width="0.5"/>
<path d="M320 120V360" stroke="#D8D8D9" stroke-width="0.5"/>
<path d="M120 330H360" stroke="#D8D8D9" stroke-width="0.5"/>
<path d="M330 120V360" stroke="#D8D8D9" stroke-width="0.5"/>
<path d="M120 340H360" stroke="#D8D8D9" stroke-width="0.5"/>
<path d="M340 120V360" stroke="#D8D8D9" stroke-width="0.5"/>
<path d="M120 350H360" stroke="#D8D8D9" stroke-width="0.5"/>
<path d="M350 120V360" stroke="#D8D8D9" stroke-width="0.5"/>
</g>
<g id="embed-lucide-monitor" stroke="#3C3C43" stroke-width="2" stroke-linecap="round" stroke-linejoin="round" transform="translate(120 120), scale(10)">
  <rect width="20" height="14" x="2" y="3" rx="2" />
  <line x1="8" x2="16" y1="21" y2="21" />
  <line x1="12" x2="12" y1="17" y2="21" />
</g>
<path d="M320 150H160C148.954 150 140 158.954 140 170V270C140 281.046 148.954 290 160 290H320C331.046 290 340 281.046 340 270V170C340 158.954 331.046 150 320 150Z" stroke="#F56565" stroke-linecap="round" stroke-linejoin="round"/>
<path d="M48.5811 83.2809V79.549H64.0811V83.2809H48.5811ZM64.0811 74.2649L48.5811 78.4482V74.8374L58.808 72.3714L58.6649 72.6026V72.0522L58.808 72.2834L48.5811 69.8175V66.2067L64.0811 70.3899V74.2649ZM77.1041 86.3082C75.4088 86.3082 73.9007 86.033 72.5796 85.4826C71.266 84.9248 70.2348 84.1652 69.4862 83.2038C68.7377 82.2424 68.3634 81.1526 68.3634 79.9343C68.3634 78.9949 68.5762 78.1326 69.0019 77.3473C69.4349 76.5547 70.022 75.8978 70.7632 75.3768C71.5045 74.8484 72.3338 74.5108 73.2512 74.364V74.2099C72.0476 73.9677 71.0715 73.3842 70.3229 72.4595C69.5743 71.5275 69.2 70.445 69.2 69.212C69.2 68.0451 69.5413 67.0066 70.2238 66.0966C70.9063 65.1792 71.8421 64.46 73.031 63.9389C74.2272 63.4105 75.585 63.1463 77.1041 63.1463C78.6233 63.1463 79.9774 63.4105 81.1663 63.9389C82.3625 64.4673 83.3019 65.1902 83.9845 66.1076C84.667 67.0176 85.0119 68.0524 85.0193 69.212C85.0119 70.4523 84.6303 71.5348 83.8744 72.4595C83.1185 73.3842 82.1497 73.9677 80.9681 74.2099V74.364C81.8708 74.5108 82.6891 74.8484 83.423 75.3768C84.1643 75.8978 84.7514 76.5547 85.1844 77.3473C85.6247 78.1326 85.8486 78.9949 85.8559 79.9343C85.8486 81.1526 85.4706 82.2424 84.722 83.2038C83.9735 84.1652 82.9387 84.9248 81.6176 85.4826C80.3039 86.033 78.7994 86.3082 77.1041 86.3082ZM77.1041 82.8075C77.8601 82.8075 78.5206 82.6718 79.0857 82.4002C79.6508 82.1213 80.0911 81.7397 80.4067 81.2553C80.7296 80.7636 80.8911 80.1985 80.8911 79.56C80.8911 78.9068 80.7259 78.3307 80.3957 77.8317C80.0654 77.3253 79.6178 76.929 79.0526 76.6428C78.4875 76.3492 77.838 76.2024 77.1041 76.2024C76.3776 76.2024 75.7281 76.3492 75.1556 76.6428C74.5832 76.929 74.1318 77.3253 73.8016 77.8317C73.4787 78.3307 73.3172 78.9068 73.3172 79.56C73.3172 80.1985 73.475 80.7636 73.7906 81.2553C74.1061 81.7397 74.5502 82.1213 75.1226 82.4002C75.695 82.6718 76.3556 82.8075 77.1041 82.8075ZM77.1041 72.7347C77.7353 72.7347 78.2967 72.6063 78.7884 72.3494C79.2802 72.0926 79.6655 71.7366 79.9443 71.2816C80.2232 70.8266 80.3627 70.3018 80.3627 69.7074C80.3627 69.1203 80.2232 68.6065 79.9443 68.1662C79.6655 67.7185 79.2838 67.3699 78.7994 67.1204C78.3151 66.8635 77.75 66.7351 77.1041 66.7351C76.4656 66.7351 75.9005 66.8635 75.4088 67.1204C74.9171 67.3699 74.5318 67.7185 74.2529 68.1662C73.9814 68.6065 73.8456 69.1203 73.8456 69.7074C73.8456 70.3018 73.9851 70.8266 74.2639 71.2816C74.5428 71.7366 74.9281 72.0926 75.4198 72.3494C75.9115 72.6063 76.473 72.7347 77.1041 72.7347ZM89.2328 92.3409V69.0909H93.8564V71.9311H94.0655C94.271 71.4761 94.5682 71.0137 94.9572 70.544C95.3535 70.067 95.8672 69.6707 96.4984 69.3551C97.1369 69.0322 97.9295 68.8707 98.8762 68.8707C100.109 68.8707 101.247 69.1937 102.289 69.8395C103.331 70.478 104.164 71.4431 104.788 72.7347C105.412 74.0191 105.724 75.63 105.724 77.5675C105.724 79.4536 105.419 81.0462 104.81 82.3452C104.208 83.6368 103.386 84.6166 102.344 85.2844C101.309 85.945 100.15 86.2752 98.8652 86.2752C97.9552 86.2752 97.1809 86.1248 96.5424 85.8239C95.9113 85.523 95.3939 85.145 94.9902 84.69C94.5866 84.2276 94.2784 83.7616 94.0655 83.2919H93.9224V92.3409H89.2328ZM93.8233 77.5455C93.8233 78.5509 93.9628 79.4279 94.2417 80.1765C94.5205 80.9251 94.9242 81.5085 95.4526 81.9268C95.981 82.3378 96.6232 82.5433 97.3791 82.5433C98.1423 82.5433 98.7882 82.3342 99.3166 81.9158C99.845 81.4902 100.245 80.9031 100.517 80.1545C100.795 79.3986 100.935 78.5289 100.935 77.5455C100.935 76.5694 100.799 75.7107 100.528 74.9695C100.256 74.2282 99.856 73.6484 99.3276 73.2301C98.7992 72.8118 98.1497 72.6026 97.3791 72.6026C96.6158 72.6026 95.97 72.8045 95.4416 73.2081C94.9205 73.6117 94.5205 74.1842 94.2417 74.9254C93.9628 75.6667 93.8233 76.54 93.8233 77.5455ZM112.164 69.0909L115.268 75.0025L118.449 69.0909H123.26L118.361 77.5455L123.392 86H118.604L115.268 80.1545L111.987 86H107.144L112.164 77.5455L107.32 69.0909H112.164ZM146.783 85.8239L144.229 83.2919L152.793 74.7273L144.229 66.1736L146.783 63.6307L157.879 74.7273L146.783 85.8239ZM135.224 79.483V75.8942H154.323L150.713 79.483H135.224ZM135.224 73.5604V69.9716H150.713L154.323 73.5604H135.224ZM169.928 86V82.5653L177.953 75.1346C178.636 74.4741 179.208 73.8796 179.671 73.3512C180.14 72.8228 180.496 72.3054 180.738 71.799C180.981 71.2853 181.102 70.7312 181.102 70.1367C181.102 69.4762 180.951 68.9074 180.65 68.4304C180.349 67.946 179.938 67.5754 179.417 67.3185C178.896 67.0543 178.305 66.9222 177.645 66.9222C176.955 66.9222 176.353 67.0617 175.84 67.3406C175.326 67.6194 174.93 68.0194 174.651 68.5405C174.372 69.0616 174.232 69.6817 174.232 70.4009H169.708C169.708 68.9258 170.042 67.6451 170.71 66.5589C171.377 65.4728 172.313 64.6325 173.517 64.038C174.72 63.4435 176.107 63.1463 177.678 63.1463C179.293 63.1463 180.698 63.4325 181.894 64.005C183.098 64.5701 184.034 65.3553 184.701 66.3608C185.369 67.3662 185.703 68.5185 185.703 69.8175C185.703 70.6688 185.534 71.5091 185.197 72.3384C184.867 73.1677 184.276 74.0888 183.424 75.1016C182.573 76.107 181.373 77.3143 179.825 78.7234L176.533 81.9489V82.103H186V86H169.928ZM189.498 92.3409V69.0909H194.122V71.9311H194.331C194.537 71.4761 194.834 71.0137 195.223 70.544C195.619 70.067 196.133 69.6707 196.764 69.3551C197.403 69.0322 198.195 68.8707 199.142 68.8707C200.375 68.8707 201.512 69.1937 202.555 69.8395C203.597 70.478 204.43 71.4431 205.053 72.7347C205.677 74.0191 205.989 75.63 205.989 77.5675C205.989 79.4536 205.685 81.0462 205.075 82.3452C204.474 83.6368 203.652 84.6166 202.61 85.2844C201.575 85.945 200.415 86.2752 199.131 86.2752C198.221 86.2752 197.447 86.1248 196.808 85.8239C196.177 85.523 195.66 85.145 195.256 84.69C194.852 84.2276 194.544 83.7616 194.331 83.2919H194.188V92.3409H189.498ZM194.089 77.5455C194.089 78.5509 194.228 79.4279 194.507 80.1765C194.786 80.9251 195.19 81.5085 195.718 81.9268C196.247 82.3378 196.889 82.5433 197.645 82.5433C198.408 82.5433 199.054 82.3342 199.582 81.9158C200.111 81.4902 200.511 80.9031 200.782 80.1545C201.061 79.3986 201.2 78.5289 201.2 77.5455C201.2 76.5694 201.065 75.7107 200.793 74.9695C200.522 74.2282 200.122 73.6484 199.593 73.2301C199.065 72.8118 198.415 72.6026 197.645 72.6026C196.881 72.6026 196.236 72.8045 195.707 73.2081C195.186 73.6117 194.786 74.1842 194.507 74.9254C194.228 75.6667 194.089 76.54 194.089 77.5455ZM212.429 69.0909L215.534 75.0025L218.715 69.0909H223.526L218.627 77.5455L223.658 86H218.869L215.534 80.1545L212.253 86H207.409L212.429 77.5455L207.585 69.0909H212.429ZM241.126 86.3303C239.394 86.3303 237.904 85.9633 236.656 85.2294C235.416 84.4882 234.462 83.4607 233.794 82.147C233.133 80.8333 232.803 79.3215 232.803 77.6115C232.803 75.8795 233.137 74.3603 233.805 73.054C234.48 71.7403 235.438 70.7165 236.678 69.9826C237.918 69.2414 239.394 68.8707 241.104 68.8707C242.579 68.8707 243.87 69.1386 244.979 69.6744C246.087 70.2101 246.964 70.9624 247.61 71.9311C248.255 72.8999 248.611 74.0374 248.677 75.3438H244.252C244.127 74.4998 243.797 73.8209 243.261 73.3072C242.733 72.7861 242.039 72.5256 241.181 72.5256C240.454 72.5256 239.819 72.7237 239.276 73.12C238.74 73.509 238.322 74.0778 238.021 74.8263C237.72 75.5749 237.57 76.4813 237.57 77.5455C237.57 78.6243 237.717 79.5417 238.01 80.2976C238.311 81.0535 238.733 81.6296 239.276 82.0259C239.819 82.4222 240.454 82.6204 241.181 82.6204C241.716 82.6204 242.197 82.5103 242.623 82.2901C243.056 82.07 243.412 81.7507 243.691 81.3324C243.977 80.9067 244.164 80.3967 244.252 79.8022H248.677C248.604 81.0939 248.252 82.2314 247.621 83.2148C246.997 84.1909 246.134 84.9542 245.034 85.5046C243.933 86.055 242.63 86.3303 241.126 86.3303ZM259.32 86.3303C257.61 86.3303 256.131 85.967 254.884 85.2404C253.643 84.5065 252.685 83.4864 252.01 82.18C251.335 80.8664 250.998 79.3435 250.998 77.6115C250.998 75.8648 251.335 74.3383 252.01 73.032C252.685 71.7183 253.643 70.6982 254.884 69.9716C256.131 69.2377 257.61 68.8707 259.32 68.8707C261.03 68.8707 262.505 69.2377 263.745 69.9716C264.993 70.6982 265.954 71.7183 266.63 73.032C267.305 74.3383 267.642 75.8648 267.642 77.6115C267.642 79.3435 267.305 80.8664 266.63 82.18C265.954 83.4864 264.993 84.5065 263.745 85.2404C262.505 85.967 261.03 86.3303 259.32 86.3303ZM259.342 82.6974C260.12 82.6974 260.769 82.4773 261.29 82.0369C261.812 81.5893 262.204 80.9801 262.468 80.2095C262.74 79.4389 262.876 78.5619 262.876 77.5785C262.876 76.5951 262.74 75.718 262.468 74.9474C262.204 74.1768 261.812 73.5677 261.29 73.12C260.769 72.6723 260.12 72.4485 259.342 72.4485C258.557 72.4485 257.896 72.6723 257.36 73.12C256.832 73.5677 256.432 74.1768 256.161 74.9474C255.896 75.718 255.764 76.5951 255.764 77.5785C255.764 78.5619 255.896 79.4389 256.161 80.2095C256.432 80.9801 256.832 81.5893 257.36 82.0369C257.896 82.4773 258.557 82.6974 259.342 82.6974ZM270.692 86V69.0909H275.238V72.0412H275.414C275.723 70.9917 276.24 70.1991 276.967 69.6634C277.693 69.1203 278.53 68.8487 279.477 68.8487C279.711 68.8487 279.965 68.8634 280.236 68.8928C280.508 68.9221 280.746 68.9625 280.952 69.0138V73.1751C280.732 73.109 280.427 73.0503 280.038 72.9989C279.649 72.9476 279.293 72.9219 278.97 72.9219C278.28 72.9219 277.664 73.0723 277.121 73.3732C276.585 73.6668 276.159 74.0778 275.844 74.6062C275.536 75.1346 275.381 75.7437 275.381 76.4336V86H270.692ZM288.066 76.2244V86H283.376V69.0909H287.846V72.0742H288.044C288.418 71.0908 289.046 70.3129 289.926 69.7404C290.807 69.1606 291.875 68.8707 293.13 68.8707C294.304 68.8707 295.328 69.1276 296.201 69.6413C297.075 70.1551 297.753 70.889 298.238 71.843C298.722 72.7898 298.964 73.92 298.964 75.2337V86H294.275V76.0703C294.282 75.0355 294.018 74.2282 293.482 73.6484C292.946 73.0613 292.209 72.7678 291.269 72.7678C290.638 72.7678 290.081 72.9035 289.596 73.1751C289.119 73.4466 288.745 73.8429 288.473 74.364C288.209 74.8777 288.073 75.4979 288.066 76.2244ZM310.366 86.3303C308.627 86.3303 307.13 85.978 305.875 85.2734C304.627 84.5616 303.666 83.5561 302.991 82.2571C302.316 80.9508 301.978 79.4059 301.978 77.6225C301.978 75.8832 302.316 74.3567 302.991 73.043C303.666 71.7293 304.616 70.7055 305.842 69.9716C307.075 69.2377 308.521 68.8707 310.179 68.8707C311.295 68.8707 312.333 69.0505 313.295 69.4102C314.263 69.7624 315.107 70.2945 315.827 71.0064C316.553 71.7183 317.118 72.6136 317.522 73.6925C317.926 74.764 318.127 76.0189 318.127 77.4574V78.7454H303.849V75.8391H313.713C313.713 75.1639 313.566 74.5658 313.273 74.0447C312.979 73.5237 312.572 73.1164 312.051 72.8228C311.537 72.5219 310.939 72.3714 310.256 72.3714C309.545 72.3714 308.913 72.5366 308.363 72.8668C307.82 73.1897 307.394 73.6264 307.086 74.1768C306.778 74.7199 306.62 75.3254 306.613 75.9933V78.7564C306.613 79.593 306.767 80.3159 307.075 80.9251C307.391 81.5342 307.835 82.0039 308.407 82.3342C308.979 82.6644 309.658 82.8295 310.444 82.8295C310.965 82.8295 311.442 82.7562 311.875 82.6094C312.308 82.4626 312.678 82.2424 312.987 81.9489C313.295 81.6553 313.53 81.2957 313.691 80.87L318.028 81.1562C317.808 82.1984 317.357 83.1084 316.674 83.8864C315.999 84.657 315.126 85.2588 314.054 85.6918C312.99 86.1174 311.761 86.3303 310.366 86.3303ZM321.188 86V69.0909H325.734V72.0412H325.911C326.219 70.9917 326.736 70.1991 327.463 69.6634C328.189 69.1203 329.026 68.8487 329.973 68.8487C330.208 68.8487 330.461 68.8634 330.732 68.8928C331.004 68.9221 331.242 68.9625 331.448 69.0138V73.1751C331.228 73.109 330.923 73.0503 330.534 72.9989C330.145 72.9476 329.789 72.9219 329.466 72.9219C328.776 72.9219 328.16 73.0723 327.617 73.3732C327.081 73.6668 326.655 74.0778 326.34 74.6062C326.032 75.1346 325.877 75.7437 325.877 76.4336V86H321.188ZM341.047 86V69.0909H345.594V72.0412H345.77C346.078 70.9917 346.596 70.1991 347.322 69.6634C348.049 69.1203 348.885 68.8487 349.832 68.8487C350.067 68.8487 350.32 68.8634 350.592 68.8928C350.863 68.9221 351.102 68.9625 351.307 69.0138V73.1751C351.087 73.109 350.782 73.0503 350.393 72.9989C350.004 72.9476 349.649 72.9219 349.326 72.9219C348.636 72.9219 348.019 73.0723 347.476 73.3732C346.94 73.6668 346.515 74.0778 346.199 74.6062C345.891 75.1346 345.737 75.7437 345.737 76.4336V86H341.047ZM358.069 86.3192C356.99 86.3192 356.029 86.1321 355.185 85.7578C354.341 85.3762 353.673 84.8147 353.181 84.0735C352.697 83.3249 352.455 82.3929 352.455 81.2773C352.455 80.3379 352.627 79.549 352.972 78.9105C353.317 78.272 353.787 77.7583 354.381 77.3693C354.976 76.9804 355.651 76.6868 356.407 76.4886C357.17 76.2905 357.97 76.151 358.807 76.0703C359.79 75.9676 360.583 75.8722 361.185 75.7841C361.786 75.6887 362.223 75.5492 362.495 75.3658C362.766 75.1823 362.902 74.9107 362.902 74.5511V74.4851C362.902 73.7879 362.682 73.2485 362.241 72.8668C361.808 72.4852 361.192 72.2944 360.392 72.2944C359.548 72.2944 358.876 72.4815 358.377 72.8558C357.878 73.2228 357.548 73.6851 357.387 74.2429L353.049 73.8906C353.269 72.8632 353.702 71.9751 354.348 71.2266C354.994 70.4706 355.827 69.8909 356.847 69.4872C357.875 69.0762 359.064 68.8707 360.414 68.8707C361.353 68.8707 362.252 68.9808 363.111 69.201C363.977 69.4212 364.744 69.7624 365.412 70.2248C366.087 70.6871 366.619 71.2816 367.008 72.0082C367.397 72.7274 367.592 73.5897 367.592 74.5952V86H363.144V83.6552H363.012C362.74 84.1836 362.377 84.6496 361.922 85.0533C361.467 85.4496 360.92 85.7615 360.282 85.989C359.643 86.2092 358.906 86.3192 358.069 86.3192ZM359.412 83.0827C360.102 83.0827 360.711 82.947 361.24 82.6754C361.768 82.3965 362.183 82.0223 362.484 81.5526C362.784 81.0829 362.935 80.5508 362.935 79.9563V78.1619C362.788 78.2573 362.586 78.3454 362.329 78.4261C362.08 78.4995 361.797 78.5692 361.482 78.6353C361.166 78.694 360.851 78.7491 360.535 78.8004C360.219 78.8445 359.933 78.8848 359.676 78.9215C359.126 79.0022 358.645 79.1307 358.234 79.3068C357.823 79.483 357.504 79.7215 357.277 80.0224C357.049 80.3159 356.935 80.6829 356.935 81.1232C356.935 81.7617 357.166 82.2498 357.629 82.5874C358.099 82.9176 358.693 83.0827 359.412 83.0827ZM377.461 86.2752C376.176 86.2752 375.013 85.945 373.971 85.2844C372.936 84.6166 372.114 83.6368 371.505 82.3452C370.903 81.0462 370.602 79.4536 370.602 77.5675C370.602 75.63 370.914 74.0191 371.538 72.7347C372.162 71.4431 372.991 70.478 374.026 69.8395C375.068 69.1937 376.209 68.8707 377.45 68.8707C378.396 68.8707 379.185 69.0322 379.816 69.3551C380.455 69.6707 380.969 70.067 381.358 70.544C381.754 71.0137 382.055 71.4761 382.26 71.9311H382.403V63.4545H387.082V86H382.459V83.2919H382.26C382.04 83.7616 381.728 84.2276 381.325 84.69C380.928 85.145 380.411 85.523 379.772 85.8239C379.141 86.1248 378.371 86.2752 377.461 86.2752ZM378.947 82.5433C379.703 82.5433 380.341 82.3378 380.862 81.9268C381.391 81.5085 381.794 80.9251 382.073 80.1765C382.359 79.4279 382.503 78.5509 382.503 77.5455C382.503 76.54 382.363 75.6667 382.084 74.9254C381.805 74.1842 381.402 73.6117 380.873 73.2081C380.345 72.8045 379.703 72.6026 378.947 72.6026C378.176 72.6026 377.527 72.8118 376.998 73.2301C376.47 73.6484 376.07 74.2282 375.798 74.9695C375.527 75.7107 375.391 76.5694 375.391 77.5455C375.391 78.5289 375.527 79.3986 375.798 80.1545C376.077 80.9031 376.477 81.4902 376.998 81.9158C377.527 82.3342 378.176 82.5433 378.947 82.5433ZM390.938 86V69.0909H395.627V86H390.938ZM393.294 66.9112C392.596 66.9112 391.998 66.68 391.499 66.2177C391.008 65.748 390.762 65.1866 390.762 64.5334C390.762 63.8875 391.008 63.3335 391.499 62.8711C391.998 62.4014 392.596 62.1665 393.294 62.1665C393.991 62.1665 394.585 62.4014 395.077 62.8711C395.576 63.3335 395.826 63.8875 395.826 64.5334C395.826 65.1866 395.576 65.748 395.077 66.2177C394.585 66.68 393.991 66.9112 393.294 66.9112ZM410.228 78.8004V69.0909H414.917V86H410.415V82.9286H410.239C409.857 83.9194 409.222 84.7157 408.334 85.3175C407.453 85.9193 406.378 86.2202 405.109 86.2202C403.978 86.2202 402.984 85.9633 402.125 85.4496C401.267 84.9358 400.595 84.2056 400.111 83.2589C399.634 82.3121 399.391 81.1783 399.384 79.8572V69.0909H404.074V79.0206C404.081 80.0187 404.349 80.8076 404.877 81.3874C405.406 81.9672 406.114 82.2571 407.002 82.2571C407.567 82.2571 408.096 82.1287 408.587 81.8718C409.079 81.6076 409.475 81.2186 409.776 80.7049C410.084 80.1912 410.235 79.5563 410.228 78.8004ZM432.737 73.9126L428.444 74.1768C428.371 73.8099 428.213 73.4796 427.971 73.1861C427.728 72.8852 427.409 72.6467 427.013 72.4705C426.624 72.287 426.158 72.1953 425.615 72.1953C424.888 72.1953 424.275 72.3494 423.776 72.6577C423.277 72.9586 423.028 73.3622 423.028 73.8686C423.028 74.2723 423.189 74.6135 423.512 74.8924C423.835 75.1713 424.389 75.3951 425.174 75.5639L428.235 76.1804C429.879 76.518 431.104 77.0611 431.912 77.8097C432.719 78.5582 433.123 79.5417 433.123 80.7599C433.123 81.8681 432.796 82.8406 432.143 83.6772C431.497 84.5138 430.609 85.167 429.479 85.6367C428.356 86.0991 427.06 86.3303 425.593 86.3303C423.354 86.3303 421.571 85.8642 420.243 84.9322C418.922 83.9928 418.147 82.7158 417.92 81.1012L422.532 80.859C422.672 81.5415 423.009 82.0626 423.545 82.4222C424.081 82.7745 424.767 82.9506 425.604 82.9506C426.426 82.9506 427.086 82.7929 427.585 82.4773C428.092 82.1544 428.348 81.7397 428.356 81.2333C428.348 80.8076 428.169 80.459 427.816 80.1875C427.464 79.9086 426.921 79.6958 426.187 79.549L423.259 78.9656C421.608 78.6353 420.378 78.0629 419.571 77.2482C418.771 76.4336 418.371 75.3951 418.371 74.1328C418.371 73.0466 418.665 72.1109 419.252 71.3256C419.846 70.5404 420.679 69.9349 421.751 69.5092C422.83 69.0836 424.092 68.8707 425.538 68.8707C427.673 68.8707 429.354 69.3221 430.58 70.2248C431.813 71.1275 432.532 72.3568 432.737 73.9126Z" fill="white"/>
<circle opacity="0.5" cx="320" cy="170" r="20" stroke="#F56565" stroke-dasharray="1 1"/>
<circle opacity="0.5" cx="160" cy="270" r="20" stroke="#F56565" stroke-dasharray="1 1"/>
<circle opacity="0.5" cx="160" cy="170" r="20" stroke="#F56565" stroke-dasharray="1 1"/>
<circle opacity="0.5" cx="320" cy="270" r="20" stroke="#F56565" stroke-dasharray="1 1"/>
<circle cx="160" cy="270" r="1" fill="#F56565"/>
<circle cx="160" cy="170" r="1" fill="#F56565"/>
<circle cx="320" cy="270" r="1" fill="#F56565"/>
<circle cx="320" cy="170" r="1" fill="#F56565"/>
<defs>
<clipPath id="clip0_1330_14149">
<rect x="120" y="120" width="240" height="240" rx="8" fill="white"/>
</clipPath>
</defs>
</svg>
