<svg xmlns="http://www.w3.org/2000/svg" width="480" height="480" fill="none"><g clip-path="url(#a)"><path fill="#3C3C43" d="M0 0h480v480H0V0Z"/><path fill="#F45F7A" d="M221.071 410h-7.992v-22.545h8.058c2.268 0 4.22.451 5.857 1.354 1.637.895 2.895 2.183 3.776 3.864.888 1.68 1.332 3.691 1.332 6.032 0 2.349-.444 4.367-1.332 6.055-.881 1.688-2.147 2.983-3.798 3.886-1.644.903-3.611 1.354-5.901 1.354Zm-3.225-4.084h3.027c1.409 0 2.595-.25 3.556-.749.969-.506 1.695-1.288 2.18-2.345.491-1.064.737-2.436.737-4.117 0-1.666-.246-3.027-.737-4.084-.485-1.057-1.208-1.835-2.169-2.334-.961-.499-2.147-.748-3.556-.748h-3.038v14.377Zm25.339 4.414c-1.71 0-3.189-.363-4.437-1.09a7.454 7.454 0 0 1-2.873-3.06c-.675-1.314-1.013-2.836-1.013-4.568 0-1.747.338-3.274 1.013-4.58.675-1.314 1.633-2.334 2.873-3.06 1.248-.734 2.727-1.101 4.437-1.101 1.71 0 3.185.367 4.425 1.101 1.248.726 2.209 1.746 2.884 3.06.676 1.306 1.013 2.833 1.013 4.58 0 1.732-.337 3.254-1.013 4.568a7.428 7.428 0 0 1-2.884 3.06c-1.24.727-2.715 1.09-4.425 1.09Zm.022-3.633c.778 0 1.427-.22 1.948-.66.521-.448.914-1.057 1.178-1.827.272-.771.407-1.648.407-2.632 0-.983-.135-1.86-.407-2.631-.264-.77-.657-1.379-1.178-1.827-.521-.448-1.17-.671-1.948-.671-.786 0-1.446.223-1.982.671-.528.448-.928 1.057-1.2 1.827-.264.771-.396 1.648-.396 2.631 0 .984.132 1.861.396 2.632.272.77.672 1.379 1.2 1.827.536.44 1.196.66 1.982.66Zm16.039-6.473V410h-4.689v-16.909h4.469v2.983h.198a4.72 4.72 0 0 1 1.883-2.334c.88-.579 1.948-.869 3.203-.869 1.174 0 2.198.257 3.071.77.874.514 1.553 1.248 2.037 2.202.484.947.727 2.077.727 3.391V410h-4.69v-9.93c.007-1.034-.257-1.842-.793-2.422-.535-.587-1.273-.88-2.212-.88-.632 0-1.189.136-1.674.407a2.845 2.845 0 0 0-1.123 1.189c-.264.514-.4 1.134-.407 1.86Zm18.525-12.769v2.377c0 .676-.132 1.365-.397 2.07a8.771 8.771 0 0 1-1.034 1.982 8.259 8.259 0 0 1-1.42 1.574l-2.07-1.222c.367-.58.69-1.222.969-1.927.286-.704.429-1.523.429-2.455v-2.399h3.523Zm12.693 5.636v3.523h-10.183v-3.523h10.183Zm-7.872-4.051h4.69v15.764c0 .433.066.771.198 1.013.132.235.316.4.551.495.242.096.521.143.836.143.22 0 .441-.018.661-.055l.506-.099.738 3.49a13.19 13.19 0 0 1-.991.253 7.927 7.927 0 0 1-1.552.187c-1.13.044-2.121-.106-2.972-.451-.844-.345-1.501-.881-1.971-1.607-.47-.727-.701-1.644-.694-2.753v-16.38Zm13.668 21.246a2.574 2.574 0 0 1-1.872-.77 2.571 2.571 0 0 1-.771-1.872c0-.719.257-1.336.771-1.849a2.571 2.571 0 0 1 1.872-.771c.704 0 1.321.257 1.849.771.528.513.793 1.13.793 1.849 0 .485-.125.929-.375 1.332a2.838 2.838 0 0 1-.957.958 2.522 2.522 0 0 1-1.31.352Z"/><mask id="b" width="240" height="240" x="120" y="120" maskUnits="userSpaceOnUse" style="mask-type:luminance"><path fill="#fff" d="M352 120H128a8 8 0 0 0-8 8v224a8 8 0 0 0 8 8h224a8 8 0 0 0 8-8V128a8 8 0 0 0-8-8Z"/></mask><g mask="url(#b)"><path fill="#F5F5F5" d="M352 120H128a8 8 0 0 0-8 8v224a8 8 0 0 0 8 8h224a8 8 0 0 0 8-8V128a8 8 0 0 0-8-8Z"/><path stroke="#D8D8D9" stroke-width=".5" d="M120 130h240M130 120v240M120 140h240M140 120v240M120 150h240M150 120v240M120 160h240M160 120v240M120 170h240M170 120v240M120 180h240M180 120v240M120 190h240M190 120v240M120 200h240M200 120v240M120 210h240M210 120v240M120 220h240M220 120v240M120 230h240M230 120v240M120 240h240M240 120v240M120 250h240M250 120v240M120 260h240M260 120v240M120 270h240M270 120v240M120 280h240M280 120v240M120 290h240M290 120v240M120 300h240M300 120v240M120 310h240M310 120v240M120 320h240M320 120v240M120 330h240M330 120v240M120 340h240M340 120v240M120 350h240M350 120v240"/></g><path stroke="#3C3C43" stroke-linecap="round" stroke-linejoin="round" stroke-width="20" d="M290 150H170a20 20 0 0 0-20 20v120"/><path stroke="#3C3C43" stroke-linecap="round" stroke-linejoin="round" stroke-width="20" d="M310 190H210c-11.046 0-20 8.954-20 20v100c0 11.046 8.954 20 20 20h100c11.046 0 20-8.954 20-20V210c0-11.046-8.954-20-20-20Z"/><path fill="#fff" d="M148.131 89h-5.108l7.783-22.546h6.143L164.721 89h-5.108l-5.648-17.394h-.176L148.131 89Zm-.32-8.862h12.066v3.721h-12.066v-3.72ZM167.434 89V66.454h4.69v8.477h.143c.205-.455.503-.917.892-1.387.396-.477.91-.873 1.541-1.189.638-.323 1.431-.484 2.378-.484 1.233 0 2.37.323 3.412.969 1.042.638 1.875 1.603 2.499 2.895.624 1.284.936 2.895.936 4.832 0 1.887-.305 3.48-.914 4.778-.602 1.292-1.424 2.272-2.466 2.94-1.035.66-2.194.99-3.478.99-.91 0-1.685-.15-2.323-.451-.631-.301-1.149-.679-1.552-1.134a5.755 5.755 0 0 1-.925-1.398h-.209V89h-4.624Zm4.591-8.454c0 1.005.139 1.882.418 2.63.279.75.683 1.332 1.211 1.75.528.412 1.171.617 1.926.617.764 0 1.41-.209 1.938-.627.528-.426.928-1.013 1.2-1.761.279-.756.418-1.626.418-2.61 0-.976-.136-1.834-.407-2.576-.272-.74-.672-1.32-1.2-1.739-.528-.418-1.178-.627-1.949-.627-.763 0-1.409.202-1.937.605-.521.404-.921.976-1.2 1.717-.279.742-.418 1.615-.418 2.62ZM187.054 89V72.09h4.547v2.951h.176c.308-1.05.825-1.842 1.552-2.378.726-.543 1.563-.814 2.51-.814.235 0 .488.014.759.044.272.03.511.07.716.12v4.162A6.123 6.123 0 0 0 196.4 76a8.222 8.222 0 0 0-1.068-.077c-.689 0-1.306.15-1.849.451a3.325 3.325 0 0 0-1.277 1.233c-.308.529-.462 1.138-.462 1.828V89h-4.69Zm23.528-7.2v-9.71h4.69V89h-4.503v-3.071h-.176a4.994 4.994 0 0 1-1.904 2.388c-.881.602-1.956.903-3.226.903-1.13 0-2.125-.257-2.983-.77-.859-.514-1.53-1.244-2.015-2.191-.477-.947-.719-2.08-.726-3.402V72.091h4.689v9.93c.008.998.275 1.787.804 2.366.528.58 1.237.87 2.125.87.565 0 1.093-.128 1.585-.385a3.03 3.03 0 0 0 1.189-1.167c.308-.514.458-1.149.451-1.905Zm8.441 13.54V72.09h4.623v2.841h.21a6.18 6.18 0 0 1 .891-1.387c.397-.477.91-.873 1.541-1.189.639-.323 1.432-.484 2.378-.484 1.233 0 2.371.323 3.413.969 1.042.638 1.875 1.603 2.499 2.895.624 1.284.936 2.895.936 4.832 0 1.887-.305 3.48-.914 4.778-.602 1.292-1.424 2.272-2.466 2.94-1.035.66-2.194.99-3.479.99-.91 0-1.684-.15-2.323-.451-.631-.301-1.148-.679-1.552-1.134a5.75 5.75 0 0 1-.924-1.398h-.144v9.049h-4.689Zm4.59-14.794c0 1.005.14 1.882.419 2.63.279.75.682 1.332 1.211 1.75.528.412 1.17.617 1.926.617.763 0 1.409-.209 1.938-.627.528-.426.928-1.013 1.2-1.761.278-.756.418-1.626.418-2.61 0-.976-.136-1.834-.407-2.576-.272-.74-.672-1.32-1.2-1.739-.529-.418-1.178-.627-1.949-.627-.763 0-1.409.202-1.937.605-.521.404-.921.976-1.2 1.717-.279.742-.419 1.615-.419 2.62Zm24.021-8.455v3.523h-10.183V72.09h10.183Zm-7.871-4.051h4.69v15.764c0 .433.066.77.198 1.013.132.235.315.4.55.495.242.096.521.143.837.143.22 0 .44-.018.66-.055.22-.044.389-.077.507-.099l.737 3.49c-.235.073-.565.158-.991.253a7.93 7.93 0 0 1-1.552.187c-1.13.044-2.121-.106-2.972-.451-.844-.345-1.501-.88-1.971-1.607-.469-.727-.7-1.644-.693-2.752V68.04Zm25.741 21.29c-1.732 0-3.222-.367-4.47-1.1a7.444 7.444 0 0 1-2.862-3.083c-.661-1.314-.991-2.826-.991-4.535 0-1.733.334-3.252 1.002-4.558.675-1.314 1.633-2.338 2.873-3.071 1.24-.742 2.716-1.112 4.426-1.112 1.475 0 2.766.268 3.875.803 1.108.536 1.985 1.288 2.631 2.257.645.969 1.001 2.106 1.067 3.413h-4.425c-.125-.844-.455-1.523-.991-2.037-.528-.52-1.222-.781-2.08-.781-.727 0-1.362.198-1.905.594-.536.389-.954.958-1.255 1.706-.301.749-.451 1.655-.451 2.72 0 1.078.147 1.996.44 2.752.301.755.723 1.332 1.266 1.728.543.396 1.178.594 1.905.594.535 0 1.016-.11 1.442-.33.433-.22.789-.54 1.068-.958.286-.425.473-.935.561-1.53h4.425c-.073 1.292-.425 2.43-1.056 3.413-.624.976-1.487 1.74-2.587 2.29-1.101.55-2.404.825-3.908.825Zm21.397-7.53v-9.71h4.69V89h-4.502v-3.071h-.177a4.988 4.988 0 0 1-1.904 2.388c-.881.602-1.956.903-3.226.903-1.13 0-2.124-.257-2.983-.77-.859-.514-1.53-1.244-2.014-2.191-.478-.947-.72-2.08-.727-3.402V72.091h4.69v9.93c.007.998.275 1.787.803 2.366.529.58 1.237.87 2.125.87.565 0 1.093-.128 1.585-.385a3.024 3.024 0 0 0 1.189-1.167c.308-.514.459-1.149.451-1.905Zm17.435-9.71v3.524h-10.183V72.09h10.183Zm-7.871-4.05h4.69v15.764c0 .433.066.77.198 1.013.132.235.315.4.55.495.242.096.521.143.837.143.22 0 .44-.018.66-.055.221-.044.389-.077.507-.099l.737 3.49c-.234.073-.565.158-.99.253a7.942 7.942 0 0 1-1.553.187c-1.13.044-2.121-.106-2.972-.451-.844-.345-1.501-.88-1.97-1.607-.47-.727-.701-1.644-.694-2.752V68.04Zm24.783 8.873-4.293.264a2.229 2.229 0 0 0-.474-.99c-.242-.302-.561-.54-.957-.716-.389-.184-.855-.276-1.399-.276-.726 0-1.339.154-1.838.463-.499.3-.749.704-.749 1.21 0 .404.162.746.485 1.024.323.28.877.503 1.662.672l3.06.616c1.644.338 2.87.881 3.677 1.63.808.748 1.211 1.732 1.211 2.95 0 1.108-.326 2.08-.98 2.917-.645.837-1.533 1.49-2.664 1.96-1.122.462-2.418.693-3.886.693-2.238 0-4.021-.466-5.35-1.398-1.321-.94-2.095-2.216-2.323-3.83l4.613-.243c.139.683.477 1.204 1.013 1.563.536.353 1.222.529 2.058.529.822 0 1.483-.158 1.982-.474.506-.323.763-.737.771-1.244-.008-.425-.188-.774-.54-1.046-.352-.278-.895-.491-1.629-.638l-2.928-.583c-1.652-.33-2.881-.903-3.688-1.718-.8-.814-1.2-1.853-1.2-3.115 0-1.086.293-2.022.881-2.807.594-.786 1.427-1.391 2.498-1.817 1.079-.425 2.342-.638 3.787-.638 2.136 0 3.817.451 5.042 1.354 1.233.903 1.952 2.132 2.158 3.688Z"/><path stroke="url(#c)" stroke-linecap="round" stroke-linejoin="round" d="M290 150h-40m-120 0H90"/><path fill="#F56565" d="M290 160c5.523 0 10-4.477 10-10s-4.477-10-10-10v20Z" opacity=".5"/><circle cx="290" cy="150" r="2" fill="#F56565"/><path stroke="url(#d)" stroke-linecap="round" stroke-linejoin="round" d="M150 290v-40m0-120V90"/><path fill="#F56565" d="M140 290c0 5.523 4.477 10 10 10s10-4.477 10-10h-20Z" opacity=".5"/><circle cx="150" cy="290" r="2" fill="#F56565" transform="rotate(90 150 290)"/></g><defs><linearGradient id="c" x1="90" x2="290" y1="129.501" y2="129.501" gradientUnits="userSpaceOnUse"><stop offset=".801" stop-color="#F56565" stop-opacity="0"/><stop offset="1" stop-color="#F56565"/></linearGradient><linearGradient id="d" x1="170.499" x2="170.499" y1="90" y2="290" gradientUnits="userSpaceOnUse"><stop offset=".801" stop-color="#F56565" stop-opacity="0"/><stop offset="1" stop-color="#F56565"/></linearGradient><clipPath id="a"><path fill="#fff" d="M0 0h480v480H0z"/></clipPath></defs></svg>
