<svg xmlns="http://www.w3.org/2000/svg" width="480" height="480" fill="none"><g clip-path="url(#a)"><path fill="#3C3C43" d="M0 0h480v480H0V0Z"/><path fill="#F45F7A" d="M221.071 410h-7.992v-22.545h8.058c2.268 0 4.22.451 5.857 1.354 1.637.895 2.895 2.183 3.776 3.864.888 1.68 1.332 3.691 1.332 6.032 0 2.349-.444 4.367-1.332 6.055-.881 1.688-2.147 2.983-3.798 3.886-1.644.903-3.611 1.354-5.901 1.354Zm-3.225-4.084h3.027c1.409 0 2.595-.25 3.556-.749.969-.506 1.695-1.288 2.18-2.345.491-1.064.737-2.436.737-4.117 0-1.666-.246-3.027-.737-4.084-.485-1.057-1.208-1.835-2.169-2.334-.961-.499-2.147-.748-3.556-.748h-3.038v14.377Zm25.339 4.414c-1.71 0-3.189-.363-4.437-1.09a7.454 7.454 0 0 1-2.873-3.06c-.675-1.314-1.013-2.836-1.013-4.568 0-1.747.338-3.274 1.013-4.58.675-1.314 1.633-2.334 2.873-3.06 1.248-.734 2.727-1.101 4.437-1.101 1.71 0 3.185.367 4.425 1.101 1.248.726 2.209 1.746 2.884 3.06.676 1.306 1.013 2.833 1.013 4.58 0 1.732-.337 3.254-1.013 4.568a7.428 7.428 0 0 1-2.884 3.06c-1.24.727-2.715 1.09-4.425 1.09Zm.022-3.633c.778 0 1.427-.22 1.948-.66.521-.448.914-1.057 1.178-1.827.272-.771.407-1.648.407-2.632 0-.983-.135-1.86-.407-2.631-.264-.77-.657-1.379-1.178-1.827-.521-.448-1.17-.671-1.948-.671-.786 0-1.446.223-1.982.671-.528.448-.928 1.057-1.2 1.827-.264.771-.396 1.648-.396 2.631 0 .984.132 1.861.396 2.632.272.77.672 1.379 1.2 1.827.536.44 1.196.66 1.982.66Zm16.039-6.473V410h-4.689v-16.909h4.469v2.983h.198a4.72 4.72 0 0 1 1.883-2.334c.88-.579 1.948-.869 3.203-.869 1.174 0 2.198.257 3.071.77.874.514 1.553 1.248 2.037 2.202.484.947.727 2.077.727 3.391V410h-4.69v-9.93c.007-1.034-.257-1.842-.793-2.422-.535-.587-1.273-.88-2.212-.88-.632 0-1.189.136-1.674.407a2.845 2.845 0 0 0-1.123 1.189c-.264.514-.4 1.134-.407 1.86Zm18.525-12.769v2.377c0 .676-.132 1.365-.397 2.07a8.771 8.771 0 0 1-1.034 1.982 8.259 8.259 0 0 1-1.42 1.574l-2.07-1.222c.367-.58.69-1.222.969-1.927.286-.704.429-1.523.429-2.455v-2.399h3.523Zm12.693 5.636v3.523h-10.183v-3.523h10.183Zm-7.872-4.051h4.69v15.764c0 .433.066.771.198 1.013.132.235.316.4.551.495.242.096.521.143.836.143.22 0 .441-.018.661-.055l.506-.099.738 3.49a13.19 13.19 0 0 1-.991.253 7.927 7.927 0 0 1-1.552.187c-1.13.044-2.121-.106-2.972-.451-.844-.345-1.501-.881-1.971-1.607-.47-.727-.701-1.644-.694-2.753v-16.38Zm13.668 21.246a2.574 2.574 0 0 1-1.872-.77 2.571 2.571 0 0 1-.771-1.872c0-.719.257-1.336.771-1.849a2.571 2.571 0 0 1 1.872-.771c.704 0 1.321.257 1.849.771.528.513.793 1.13.793 1.849 0 .485-.125.929-.375 1.332a2.838 2.838 0 0 1-.957.958 2.522 2.522 0 0 1-1.31.352Z"/><mask id="b" width="240" height="240" x="120" y="120" maskUnits="userSpaceOnUse" style="mask-type:luminance"><path fill="#fff" d="M352 120H128a8 8 0 0 0-8 8v224a8 8 0 0 0 8 8h224a8 8 0 0 0 8-8V128a8 8 0 0 0-8-8Z"/></mask><g mask="url(#b)"><path fill="#F5F5F5" d="M352 120H128a8 8 0 0 0-8 8v224a8 8 0 0 0 8 8h224a8 8 0 0 0 8-8V128a8 8 0 0 0-8-8Z"/><path stroke="#D8D8D9" stroke-width=".5" d="M120 130h240M130 120v240M120 140h240M140 120v240M120 150h240M150 120v240M120 160h240M160 120v240M120 170h240M170 120v240M120 180h240M180 120v240M120 190h240M190 120v240M120 200h240M200 120v240M120 210h240M210 120v240M120 220h240M220 120v240M120 230h240M230 120v240M120 240h240M240 120v240M120 250h240M250 120v240M120 260h240M260 120v240M120 270h240M270 120v240M120 280h240M280 120v240M120 290h240M290 120v240M120 300h240M300 120v240M120 310h240M310 120v240M120 320h240M320 120v240M120 330h240M330 120v240M120 340h240M340 120v240M120 350h240M350 120v240"/></g><path stroke="#3C3C43" stroke-linecap="round" stroke-linejoin="round" stroke-width="20" d="M200 280h-40a20 20 0 0 1-20-20V160a20 20 0 0 1 20-20h100a20 20 0 0 1 20 20v40"/><path stroke="#3C3C43" stroke-linecap="round" stroke-linejoin="round" stroke-width="20" d="M320 200H220c-11.046 0-20 8.954-20 20v100c0 11.046 8.954 20 20 20h100c11.046 0 20-8.954 20-20V220c0-11.046-8.954-20-20-20Z"/><path fill="#fff" d="M103.991 74.348h-4.822a4.712 4.712 0 0 0-.54-1.663 4.227 4.227 0 0 0-1.045-1.255 4.603 4.603 0 0 0-1.475-.792 5.642 5.642 0 0 0-1.794-.275c-1.167 0-2.184.29-3.05.87-.866.572-1.537 1.408-2.014 2.51-.477 1.093-.716 2.421-.716 3.984 0 1.608.239 2.958.716 4.051.484 1.094 1.16 1.92 2.025 2.477.866.558 1.868.837 3.006.837.638 0 1.229-.084 1.772-.253a4.659 4.659 0 0 0 1.464-.738 4.25 4.25 0 0 0 1.057-1.2c.286-.47.484-1.005.594-1.607l4.822.022a8.73 8.73 0 0 1-.936 2.994 8.997 8.997 0 0 1-1.992 2.565c-.829.749-1.82 1.343-2.972 1.784-1.145.433-2.44.65-3.886.65-2.011 0-3.81-.456-5.395-1.366-1.578-.91-2.825-2.227-3.743-3.952-.91-1.725-1.365-3.813-1.365-6.264 0-2.458.463-4.55 1.387-6.275.925-1.724 2.18-3.038 3.765-3.94 1.586-.91 3.369-1.366 5.35-1.366 1.307 0 2.518.184 3.633.55a9.217 9.217 0 0 1 2.984 1.608 8.265 8.265 0 0 1 2.113 2.565c.551 1.013.903 2.172 1.057 3.479Zm10.97 14.982c-1.71 0-3.189-.363-4.436-1.09a7.46 7.46 0 0 1-2.874-3.06c-.675-1.314-1.012-2.837-1.012-4.569 0-1.746.337-3.273 1.012-4.579.676-1.314 1.633-2.334 2.874-3.06 1.247-.734 2.726-1.101 4.436-1.101s3.185.367 4.425 1.1c1.248.727 2.21 1.747 2.885 3.061.675 1.306 1.013 2.833 1.013 4.58 0 1.732-.338 3.254-1.013 4.568a7.434 7.434 0 0 1-2.885 3.06c-1.24.727-2.715 1.09-4.425 1.09Zm.022-3.633c.778 0 1.428-.22 1.949-.66.521-.448.913-1.057 1.178-1.828.271-.77.407-1.647.407-2.63 0-.984-.136-1.861-.407-2.632-.265-.77-.657-1.38-1.178-1.827-.521-.448-1.171-.672-1.949-.672-.785 0-1.446.224-1.981.672-.529.448-.929 1.057-1.2 1.827-.265.771-.397 1.648-.397 2.632 0 .983.132 1.86.397 2.63.271.771.671 1.38 1.2 1.828.535.44 1.196.66 1.981.66Zm16.04-6.473V89h-4.69V72.09h4.469v2.984H131a4.72 4.72 0 0 1 1.883-2.334c.881-.58 1.948-.87 3.203-.87 1.175 0 2.198.258 3.072.771.873.514 1.552 1.248 2.036 2.202.485.947.727 2.077.727 3.39V89h-4.69v-9.93c.008-1.034-.257-1.842-.792-2.422-.536-.587-1.274-.88-2.213-.88-.631 0-1.189.135-1.673.407a2.835 2.835 0 0 0-1.123 1.189c-.264.514-.4 1.134-.407 1.86Zm19.284 0V89h-4.69V72.09h4.47v2.984h.198a4.714 4.714 0 0 1 1.882-2.334c.881-.58 1.949-.87 3.204-.87 1.174 0 2.198.258 3.071.771.873.514 1.552 1.248 2.037 2.202.484.947.726 2.077.726 3.39V89h-4.69v-9.93c.008-1.034-.256-1.842-.792-2.422-.536-.587-1.273-.88-2.213-.88-.631 0-1.189.135-1.673.407a2.842 2.842 0 0 0-1.123 1.189c-.264.514-.4 1.134-.407 1.86Zm22.3 10.106c-1.739 0-3.236-.352-4.491-1.057a7.242 7.242 0 0 1-2.885-3.016c-.675-1.306-1.012-2.851-1.012-4.635 0-1.739.337-3.265 1.012-4.579.676-1.314 1.626-2.338 2.852-3.071 1.233-.734 2.678-1.101 4.337-1.101 1.116 0 2.154.18 3.115.54a6.906 6.906 0 0 1 2.532 1.595c.727.712 1.292 1.608 1.696 2.686.403 1.072.605 2.327.605 3.765v1.288H166.09V78.84h9.864c0-.675-.147-1.273-.441-1.794a3.15 3.15 0 0 0-1.221-1.222c-.514-.301-1.112-.452-1.795-.452-.712 0-1.343.166-1.893.496-.543.323-.969.76-1.277 1.31a3.7 3.7 0 0 0-.474 1.816v2.763c0 .837.154 1.56.463 2.17.315.608.759 1.078 1.332 1.408.572.33 1.251.495 2.036.495.521 0 .998-.073 1.431-.22a2.97 2.97 0 0 0 1.112-.66c.308-.294.543-.653.705-1.079l4.337.286a5.917 5.917 0 0 1-1.354 2.73c-.675.771-1.548 1.373-2.62 1.806-1.064.425-2.293.638-3.688.638Zm18.461 0c-1.732 0-3.221-.367-4.469-1.1a7.444 7.444 0 0 1-2.862-3.083c-.661-1.314-.991-2.826-.991-4.535 0-1.733.334-3.252 1.002-4.558.675-1.314 1.633-2.338 2.873-3.071 1.24-.742 2.715-1.112 4.425-1.112 1.476 0 2.767.268 3.875.803 1.109.536 1.986 1.288 2.632 2.257.645.969 1.001 2.106 1.067 3.413h-4.425c-.125-.844-.455-1.523-.991-2.037-.528-.52-1.222-.781-2.08-.781-.727 0-1.362.198-1.905.594-.536.389-.954.958-1.255 1.706-.301.749-.451 1.655-.451 2.72 0 1.078.147 1.996.44 2.752.301.755.723 1.332 1.266 1.728.543.396 1.178.594 1.905.594.535 0 1.016-.11 1.442-.33.433-.22.789-.54 1.067-.958.287-.425.474-.935.562-1.53h4.425c-.073 1.292-.425 2.43-1.056 3.413-.624.976-1.487 1.74-2.587 2.29-1.101.55-2.404.825-3.909.825Zm19.549-17.24v3.524h-10.183V72.09h10.183Zm-7.871-4.05h4.689v15.764c0 .433.066.77.199 1.013.132.235.315.4.55.495.242.096.521.143.837.143.22 0 .44-.018.66-.055.22-.044.389-.077.507-.099l.737 3.49c-.235.073-.565.158-.991.253a7.93 7.93 0 0 1-1.552.187c-1.13.044-2.121-.106-2.972-.451-.844-.345-1.501-.88-1.971-1.607-.469-.727-.701-1.644-.693-2.752V68.04Zm18.45 21.29c-1.739 0-3.236-.352-4.491-1.057a7.242 7.242 0 0 1-2.885-3.016c-.675-1.306-1.012-2.851-1.012-4.635 0-1.739.337-3.265 1.012-4.579.676-1.314 1.626-2.338 2.852-3.071 1.233-.734 2.678-1.101 4.337-1.101 1.115 0 2.154.18 3.115.54a6.906 6.906 0 0 1 2.532 1.595c.727.712 1.292 1.608 1.696 2.686.403 1.072.605 2.327.605 3.765v1.288h-14.278V78.84h9.864c0-.675-.147-1.273-.441-1.794a3.152 3.152 0 0 0-1.222-1.222c-.513-.301-1.111-.452-1.794-.452-.712 0-1.343.166-1.893.496-.544.323-.969.76-1.277 1.31a3.7 3.7 0 0 0-.474 1.816v2.763c0 .837.154 1.56.463 2.17.315.608.759 1.078 1.332 1.408.572.33 1.251.495 2.036.495.521 0 .998-.073 1.431-.22a2.97 2.97 0 0 0 1.112-.66c.308-.294.543-.653.705-1.079l4.337.286a5.926 5.926 0 0 1-1.354 2.73c-.675.771-1.549 1.373-2.62 1.806-1.064.425-2.294.638-3.688.638Zm17.052-.055c-1.284 0-2.447-.33-3.489-.99-1.035-.668-1.857-1.648-2.466-2.94-.602-1.299-.903-2.891-.903-4.778 0-1.937.312-3.548.936-4.832.623-1.292 1.453-2.257 2.488-2.895a6.373 6.373 0 0 1 3.423-.97c.947 0 1.736.162 2.367.485.639.316 1.152.712 1.541 1.189.397.47.697.932.903 1.387h.143v-8.477h4.679V89h-4.624v-2.708h-.198a6.03 6.03 0 0 1-.936 1.398c-.396.455-.913.833-1.552 1.134-.631.3-1.402.451-2.312.451Zm1.486-3.732c.756 0 1.395-.205 1.916-.616.528-.419.932-1.002 1.211-1.75.286-.75.429-1.626.429-2.632 0-1.005-.139-1.878-.418-2.62-.279-.74-.683-1.313-1.211-1.717-.528-.403-1.171-.605-1.927-.605-.77 0-1.42.209-1.948.627-.528.418-.928.998-1.2 1.74-.272.74-.407 1.6-.407 2.576 0 .983.135 1.853.407 2.608.279.75.679 1.336 1.2 1.762.528.418 1.178.627 1.948.627Zm26.872 3.787c-1.739 0-3.236-.352-4.491-1.057a7.233 7.233 0 0 1-2.884-3.016c-.676-1.306-1.013-2.851-1.013-4.635 0-1.739.337-3.265 1.013-4.579.675-1.314 1.625-2.338 2.851-3.071 1.233-.734 2.678-1.101 4.337-1.101 1.116 0 2.154.18 3.115.54a6.906 6.906 0 0 1 2.532 1.595c.727.712 1.292 1.608 1.696 2.686.403 1.072.605 2.327.605 3.765v1.288h-14.278V78.84h9.864c0-.675-.147-1.273-.441-1.794a3.15 3.15 0 0 0-1.221-1.222c-.514-.301-1.112-.452-1.795-.452-.712 0-1.343.166-1.893.496-.543.323-.969.76-1.277 1.31a3.7 3.7 0 0 0-.474 1.816v2.763c0 .837.154 1.56.463 2.17.315.608.759 1.078 1.332 1.408.572.33 1.251.495 2.036.495.521 0 .998-.073 1.431-.22a2.97 2.97 0 0 0 1.112-.66c.308-.294.543-.653.705-1.079l4.337.286a5.917 5.917 0 0 1-1.354 2.73c-.675.771-1.548 1.373-2.62 1.806-1.064.425-2.293.638-3.688.638Zm15.511-22.876V89h-4.689V66.454h4.689ZM293.58 89.33c-1.739 0-3.237-.352-4.492-1.057a7.24 7.24 0 0 1-2.884-3.016c-.675-1.306-1.013-2.851-1.013-4.635 0-1.739.338-3.265 1.013-4.579.675-1.314 1.626-2.338 2.851-3.071 1.233-.734 2.679-1.101 4.338-1.101 1.115 0 2.154.18 3.115.54a6.906 6.906 0 0 1 2.532 1.595c.727.712 1.292 1.608 1.695 2.686.404 1.072.606 2.327.606 3.765v1.288h-14.278V78.84h9.863c0-.675-.146-1.273-.44-1.794a3.152 3.152 0 0 0-1.222-1.222c-.514-.301-1.112-.452-1.794-.452-.712 0-1.343.166-1.894.496a3.48 3.48 0 0 0-1.277 1.31 3.698 3.698 0 0 0-.473 1.816v2.763c0 .837.154 1.56.462 2.17a3.39 3.39 0 0 0 1.332 1.408c.573.33 1.252.495 2.037.495.521 0 .998-.073 1.431-.22a2.97 2.97 0 0 0 1.112-.66c.308-.294.543-.653.704-1.079l4.338.286a5.926 5.926 0 0 1-1.354 2.73c-.675.771-1.549 1.373-2.62 1.806-1.064.425-2.294.638-3.688.638Zm10.821-.33V72.09h4.47v2.984h.198c.352-.99.939-1.772 1.761-2.345.822-.572 1.806-.858 2.95-.858 1.16 0 2.147.29 2.962.87.814.572 1.358 1.35 1.629 2.333h.176c.345-.968.969-1.743 1.872-2.323.91-.587 1.985-.88 3.225-.88 1.578 0 2.859.503 3.842 1.508.991.998 1.486 2.414 1.486 4.25V89h-4.678V78.553c0-.94-.25-1.644-.749-2.114s-1.123-.704-1.871-.704c-.852 0-1.516.271-1.993.814-.477.536-.715 1.244-.715 2.125V89h-4.547V78.454c0-.83-.239-1.49-.716-1.982-.469-.491-1.089-.737-1.86-.737-.521 0-.991.132-1.409.396-.411.257-.738.62-.98 1.09-.242.462-.363 1.005-.363 1.63V89h-4.69Zm35.982.33c-1.74 0-3.237-.352-4.492-1.057a7.233 7.233 0 0 1-2.884-3.016c-.675-1.306-1.013-2.851-1.013-4.635 0-1.739.338-3.265 1.013-4.579.675-1.314 1.625-2.338 2.851-3.071 1.233-.734 2.679-1.101 4.337-1.101 1.116 0 2.154.18 3.116.54a6.906 6.906 0 0 1 2.532 1.595c.726.712 1.291 1.608 1.695 2.686.404 1.072.606 2.327.606 3.765v1.288h-14.278V78.84h9.863c0-.675-.147-1.273-.44-1.794a3.158 3.158 0 0 0-1.222-1.222c-.514-.301-1.112-.452-1.794-.452-.712 0-1.344.166-1.894.496-.543.323-.969.76-1.277 1.31a3.698 3.698 0 0 0-.473 1.816v2.763c0 .837.154 1.56.462 2.17a3.39 3.39 0 0 0 1.332 1.408c.573.33 1.251.495 2.037.495.521 0 .998-.073 1.431-.22a2.978 2.978 0 0 0 1.112-.66c.308-.294.543-.653.704-1.079l4.338.286a5.928 5.928 0 0 1-1.355 2.73c-.675.771-1.548 1.373-2.62 1.806-1.064.425-2.293.638-3.687.638Zm15.511-10.106V89h-4.69V72.09h4.469v2.984h.199a4.714 4.714 0 0 1 1.882-2.334c.881-.58 1.949-.87 3.204-.87 1.174 0 2.198.258 3.071.771.873.514 1.552 1.248 2.036 2.202.485.947.727 2.077.727 3.39V89h-4.69v-9.93c.008-1.034-.256-1.842-.792-2.422-.536-.587-1.274-.88-2.213-.88-.631 0-1.189.135-1.673.407a2.835 2.835 0 0 0-1.123 1.189c-.264.514-.4 1.134-.407 1.86Zm23.588-7.133v3.523h-10.183V72.09h10.183Zm-7.871-4.051h4.69v15.764c0 .433.066.77.198 1.013.132.235.315.4.55.495.242.096.521.143.837.143.22 0 .44-.018.66-.055.221-.044.389-.077.507-.099l.737 3.49c-.234.073-.565.158-.99.253a7.942 7.942 0 0 1-1.553.187c-1.13.044-2.121-.106-2.972-.451-.844-.345-1.501-.88-1.97-1.607-.47-.727-.701-1.644-.694-2.752V68.04Zm24.783 8.873-4.293.264a2.229 2.229 0 0 0-.474-.99c-.242-.302-.561-.54-.957-.716-.389-.184-.855-.276-1.399-.276-.726 0-1.339.154-1.838.463-.499.3-.749.704-.749 1.21 0 .404.162.746.485 1.024.323.28.877.503 1.662.672l3.06.616c1.644.338 2.87.881 3.677 1.63.808.748 1.211 1.732 1.211 2.95 0 1.108-.326 2.08-.98 2.917-.645.837-1.533 1.49-2.664 1.96-1.122.462-2.418.693-3.886.693-2.238 0-4.021-.466-5.35-1.398-1.321-.94-2.095-2.216-2.323-3.83l4.613-.243c.139.683.477 1.204 1.013 1.563.536.353 1.222.529 2.058.529.822 0 1.483-.158 1.982-.474.506-.323.763-.737.771-1.244-.008-.425-.188-.774-.54-1.046-.352-.278-.895-.491-1.629-.638l-2.928-.583c-1.652-.33-2.881-.903-3.688-1.718-.8-.814-1.2-1.853-1.2-3.115 0-1.086.293-2.022.881-2.807.594-.786 1.427-1.391 2.498-1.817 1.079-.425 2.342-.638 3.787-.638 2.136 0 3.817.451 5.042 1.354 1.233.903 1.952 2.132 2.158 3.688Z"/></g><defs><clipPath id="a"><path fill="#fff" d="M0 0h480v480H0z"/></clipPath></defs></svg>
