<svg width="480" height="480" viewBox="0 0 480 480" fill="none" xmlns="http://www.w3.org/2000/svg">
  <rect width="480" height="480" fill="#3C3C43"/>
  <g clip-path="url(#clip0_1330_14149)">
    <rect x="120" y="120" width="240" height="240" rx="8" fill="#F5F5F5"/>
    <path d="M120 130H360" stroke="#D8D8D9" stroke-width="0.5"/>
    <path d="M130 120V360" stroke="#D8D8D9" stroke-width="0.5"/>
    <path d="M120 140H360" stroke="#D8D8D9" stroke-width="0.5"/>
    <path d="M140 120V360" stroke="#D8D8D9" stroke-width="0.5"/>
    <path d="M120 150H360" stroke="#D8D8D9" stroke-width="0.5"/>
    <path d="M150 120V360" stroke="#D8D8D9" stroke-width="0.5"/>
    <path d="M120 160H360" stroke="#D8D8D9" stroke-width="0.5"/>
    <path d="M160 120V360" stroke="#D8D8D9" stroke-width="0.5"/>
    <path d="M120 170H360" stroke="#D8D8D9" stroke-width="0.5"/>
    <path d="M170 120V360" stroke="#D8D8D9" stroke-width="0.5"/>
    <path d="M120 180H360" stroke="#D8D8D9" stroke-width="0.5"/>
    <path d="M180 120V360" stroke="#D8D8D9" stroke-width="0.5"/>
    <path d="M120 190H360" stroke="#D8D8D9" stroke-width="0.5"/>
    <path d="M190 120V360" stroke="#D8D8D9" stroke-width="0.5"/>
    <path d="M120 200H360" stroke="#D8D8D9" stroke-width="0.5"/>
    <path d="M200 120V360" stroke="#D8D8D9" stroke-width="0.5"/>
    <path d="M120 210H360" stroke="#D8D8D9" stroke-width="0.5"/>
    <path d="M210 120V360" stroke="#D8D8D9" stroke-width="0.5"/>
    <path d="M120 220H360" stroke="#D8D8D9" stroke-width="0.5"/>
    <path d="M220 120V360" stroke="#D8D8D9" stroke-width="0.5"/>
    <path d="M120 230H360" stroke="#D8D8D9" stroke-width="0.5"/>
    <path d="M230 120V360" stroke="#D8D8D9" stroke-width="0.5"/>
    <path d="M120 240H360" stroke="#D8D8D9" stroke-width="0.5"/>
    <path d="M240 120V360" stroke="#D8D8D9" stroke-width="0.5"/>
    <path d="M120 250H360" stroke="#D8D8D9" stroke-width="0.5"/>
    <path d="M250 120V360" stroke="#D8D8D9" stroke-width="0.5"/>
    <path d="M120 260H360" stroke="#D8D8D9" stroke-width="0.5"/>
    <path d="M260 120V360" stroke="#D8D8D9" stroke-width="0.5"/>
    <path d="M120 270H360" stroke="#D8D8D9" stroke-width="0.5"/>
    <path d="M270 120V360" stroke="#D8D8D9" stroke-width="0.5"/>
    <path d="M120 280H360" stroke="#D8D8D9" stroke-width="0.5"/>
    <path d="M280 120V360" stroke="#D8D8D9" stroke-width="0.5"/>
    <path d="M120 290H360" stroke="#D8D8D9" stroke-width="0.5"/>
    <path d="M290 120V360" stroke="#D8D8D9" stroke-width="0.5"/>
    <path d="M120 300H360" stroke="#D8D8D9" stroke-width="0.5"/>
    <path d="M300 120V360" stroke="#D8D8D9" stroke-width="0.5"/>
    <path d="M120 310H360" stroke="#D8D8D9" stroke-width="0.5"/>
    <path d="M310 120V360" stroke="#D8D8D9" stroke-width="0.5"/>
    <path d="M120 320H360" stroke="#D8D8D9" stroke-width="0.5"/>
    <path d="M320 120V360" stroke="#D8D8D9" stroke-width="0.5"/>
    <path d="M120 330H360" stroke="#D8D8D9" stroke-width="0.5"/>
    <path d="M330 120V360" stroke="#D8D8D9" stroke-width="0.5"/>
    <path d="M120 340H360" stroke="#D8D8D9" stroke-width="0.5"/>
    <path d="M340 120V360" stroke="#D8D8D9" stroke-width="0.5"/>
    <path d="M120 350H360" stroke="#D8D8D9" stroke-width="0.5"/>
    <path d="M350 120V360" stroke="#D8D8D9" stroke-width="0.5"/>
  </g>
  <path d="M320 150H160C148.954 150 140 158.954 140 170V270C140 281.046 148.954 290 160 290H320C331.046 290 340 281.046 340 270V170C340 158.954 331.046 150 320 150Z" stroke="#3C3C43" stroke-width="20" stroke-linecap="round" stroke-linejoin="round"/>
  <path d="M200 330H280" stroke="#3C3C43" stroke-width="20" stroke-linecap="round" stroke-linejoin="round"/>
  <path d="M240 290V330" stroke="#3C3C43" stroke-width="20" stroke-linecap="round" stroke-linejoin="round"/>
  <path d="M320 150H160C148.954 150 140 158.954 140 170V270C140 281.046 148.954 290 160 290H320C331.046 290 340 281.046 340 270V170C340 158.954 331.046 150 320 150Z" stroke="#F56565" stroke-linecap="round" stroke-linejoin="round"/>
  <path d="M108.776 86V82.5653L116.801 75.1346C117.483 74.4741 118.056 73.8796 118.518 73.3512C118.988 72.8228 119.344 72.3054 119.586 71.799C119.828 71.2853 119.949 70.7312 119.949 70.1367C119.949 69.4762 119.799 68.9074 119.498 68.4304C119.197 67.946 118.786 67.5754 118.265 67.3185C117.744 67.0543 117.153 66.9222 116.493 66.9222C115.803 66.9222 115.201 67.0617 114.687 67.3406C114.174 67.6194 113.777 68.0194 113.498 68.5405C113.219 69.0616 113.08 69.6817 113.08 70.4009H108.555C108.555 68.9258 108.889 67.6451 109.557 66.5589C110.225 65.4728 111.161 64.6325 112.364 64.038C113.568 63.4435 114.955 63.1463 116.526 63.1463C118.14 63.1463 119.546 63.4325 120.742 64.005C121.946 64.5701 122.881 65.3553 123.549 66.3608C124.217 67.3662 124.551 68.5185 124.551 69.8175C124.551 70.6688 124.382 71.5091 124.044 72.3384C123.714 73.1677 123.123 74.0888 122.272 75.1016C121.421 76.107 120.221 77.3143 118.672 78.7234L115.381 81.9489V82.103H124.848V86H108.776ZM128.346 92.3409V69.0909H132.97V71.9311H133.179C133.384 71.4761 133.682 71.0137 134.07 70.544C134.467 70.067 134.981 69.6707 135.612 69.3551C136.25 69.0322 137.043 68.8707 137.99 68.8707C139.222 68.8707 140.36 69.1937 141.402 69.8395C142.444 70.478 143.277 71.4431 143.901 72.7347C144.525 74.0191 144.837 75.63 144.837 77.5675C144.837 79.4536 144.532 81.0462 143.923 82.3452C143.321 83.6368 142.499 84.6166 141.457 85.2844C140.422 85.945 139.263 86.2752 137.979 86.2752C137.068 86.2752 136.294 86.1248 135.656 85.8239C135.025 85.523 134.507 85.145 134.104 84.69C133.7 84.2276 133.392 83.7616 133.179 83.2919H133.036V92.3409H128.346ZM132.937 77.5455C132.937 78.5509 133.076 79.4279 133.355 80.1765C133.634 80.9251 134.037 81.5085 134.566 81.9268C135.094 82.3378 135.736 82.5433 136.492 82.5433C137.256 82.5433 137.901 82.3342 138.43 81.9158C138.958 81.4902 139.358 80.9031 139.63 80.1545C139.909 79.3986 140.048 78.5289 140.048 77.5455C140.048 76.5694 139.912 75.7107 139.641 74.9695C139.369 74.2282 138.969 73.6484 138.441 73.2301C137.912 72.8118 137.263 72.6026 136.492 72.6026C135.729 72.6026 135.083 72.8045 134.555 73.2081C134.034 73.6117 133.634 74.1842 133.355 74.9254C133.076 75.6667 132.937 76.54 132.937 77.5455ZM151.277 69.0909L154.381 75.0025L157.563 69.0909H162.373L157.475 77.5455L162.506 86H157.717L154.381 80.1545L151.101 86H146.257L151.277 77.5455L146.433 69.0909H151.277ZM179.973 86.3303C178.241 86.3303 176.751 85.9633 175.504 85.2294C174.264 84.4882 173.309 83.4607 172.642 82.147C171.981 80.8333 171.651 79.3215 171.651 77.6115C171.651 75.8795 171.985 74.3603 172.653 73.054C173.328 71.7403 174.286 70.7165 175.526 69.9826C176.766 69.2414 178.241 68.8707 179.951 68.8707C181.426 68.8707 182.718 69.1386 183.826 69.6744C184.934 70.2101 185.811 70.9624 186.457 71.9311C187.103 72.8999 187.459 74.0374 187.525 75.3438H183.1C182.975 74.4998 182.645 73.8209 182.109 73.3072C181.581 72.7861 180.887 72.5256 180.028 72.5256C179.302 72.5256 178.667 72.7237 178.124 73.12C177.588 73.509 177.17 74.0778 176.869 74.8263C176.568 75.5749 176.418 76.4813 176.418 77.5455C176.418 78.6243 176.564 79.5417 176.858 80.2976C177.159 81.0535 177.581 81.6296 178.124 82.0259C178.667 82.4222 179.302 82.6204 180.028 82.6204C180.564 82.6204 181.045 82.5103 181.47 82.2901C181.903 82.07 182.259 81.7507 182.538 81.3324C182.824 80.9067 183.012 80.3967 183.1 79.8022H187.525C187.452 81.0939 187.099 82.2314 186.468 83.2148C185.844 84.1909 184.982 84.9542 183.881 85.5046C182.78 86.055 181.478 86.3303 179.973 86.3303ZM198.168 86.3303C196.458 86.3303 194.979 85.967 193.731 85.2404C192.491 84.5065 191.533 83.4864 190.858 82.18C190.183 80.8664 189.845 79.3435 189.845 77.6115C189.845 75.8648 190.183 74.3383 190.858 73.032C191.533 71.7183 192.491 70.6982 193.731 69.9716C194.979 69.2377 196.458 68.8707 198.168 68.8707C199.878 68.8707 201.353 69.2377 202.593 69.9716C203.841 70.6982 204.802 71.7183 205.477 73.032C206.152 74.3383 206.49 75.8648 206.49 77.6115C206.49 79.3435 206.152 80.8664 205.477 82.18C204.802 83.4864 203.841 84.5065 202.593 85.2404C201.353 85.967 199.878 86.3303 198.168 86.3303ZM198.19 82.6974C198.968 82.6974 199.617 82.4773 200.138 82.0369C200.659 81.5893 201.052 80.9801 201.316 80.2095C201.588 79.4389 201.723 78.5619 201.723 77.5785C201.723 76.5951 201.588 75.718 201.316 74.9474C201.052 74.1768 200.659 73.5677 200.138 73.12C199.617 72.6723 198.968 72.4485 198.19 72.4485C197.404 72.4485 196.744 72.6723 196.208 73.12C195.68 73.5677 195.28 74.1768 195.008 74.9474C194.744 75.718 194.612 76.5951 194.612 77.5785C194.612 78.5619 194.744 79.4389 195.008 80.2095C195.28 80.9801 195.68 81.5893 196.208 82.0369C196.744 82.4773 197.404 82.6974 198.19 82.6974ZM209.539 86V69.0909H214.086V72.0412H214.262C214.57 70.9917 215.088 70.1991 215.814 69.6634C216.541 69.1203 217.377 68.8487 218.324 68.8487C218.559 68.8487 218.812 68.8634 219.084 68.8928C219.355 68.9221 219.594 68.9625 219.799 69.0138V73.1751C219.579 73.109 219.275 73.0503 218.886 72.9989C218.497 72.9476 218.141 72.9219 217.818 72.9219C217.128 72.9219 216.511 73.0723 215.968 73.3732C215.433 73.6668 215.007 74.0778 214.691 74.6062C214.383 75.1346 214.229 75.7437 214.229 76.4336V86H209.539ZM226.914 76.2244V86H222.224V69.0909H226.693V72.0742H226.892C227.266 71.0908 227.893 70.3129 228.774 69.7404C229.655 69.1606 230.723 68.8707 231.978 68.8707C233.152 68.8707 234.176 69.1276 235.049 69.6413C235.922 70.1551 236.601 70.889 237.085 71.843C237.57 72.7898 237.812 73.92 237.812 75.2337V86H233.122V76.0703C233.13 75.0355 232.866 74.2282 232.33 73.6484C231.794 73.0613 231.056 72.7678 230.117 72.7678C229.486 72.7678 228.928 72.9035 228.444 73.1751C227.967 73.4466 227.592 73.8429 227.321 74.364C227.057 74.8777 226.921 75.4979 226.914 76.2244ZM249.214 86.3303C247.475 86.3303 245.978 85.978 244.723 85.2734C243.475 84.5616 242.514 83.5561 241.838 82.2571C241.163 80.9508 240.826 79.4059 240.826 77.6225C240.826 75.8832 241.163 74.3567 241.838 73.043C242.514 71.7293 243.464 70.7055 244.69 69.9716C245.923 69.2377 247.368 68.8707 249.027 68.8707C250.143 68.8707 251.181 69.0505 252.142 69.4102C253.111 69.7624 253.955 70.2945 254.674 71.0064C255.401 71.7183 255.966 72.6136 256.37 73.6925C256.773 74.764 256.975 76.0189 256.975 77.4574V78.7454H242.697V75.8391H252.561C252.561 75.1639 252.414 74.5658 252.12 74.0447C251.827 73.5237 251.42 73.1164 250.898 72.8228C250.385 72.5219 249.787 72.3714 249.104 72.3714C248.392 72.3714 247.761 72.5366 247.211 72.8668C246.667 73.1897 246.242 73.6264 245.934 74.1768C245.625 74.7199 245.468 75.3254 245.46 75.9933V78.7564C245.46 79.593 245.614 80.3159 245.923 80.9251C246.238 81.5342 246.682 82.0039 247.255 82.3342C247.827 82.6644 248.506 82.8295 249.291 82.8295C249.812 82.8295 250.289 82.7562 250.722 82.6094C251.155 82.4626 251.526 82.2424 251.834 81.9489C252.142 81.6553 252.377 81.2957 252.539 80.87L256.876 81.1562C256.656 82.1984 256.205 83.1084 255.522 83.8864C254.847 84.657 253.973 85.2588 252.902 85.6918C251.838 86.1174 250.609 86.3303 249.214 86.3303ZM260.036 86V69.0909H264.582V72.0412H264.758C265.066 70.9917 265.584 70.1991 266.31 69.6634C267.037 69.1203 267.874 68.8487 268.82 68.8487C269.055 68.8487 269.308 68.8634 269.58 68.8928C269.851 68.9221 270.09 68.9625 270.295 69.0138V73.1751C270.075 73.109 269.771 73.0503 269.382 72.9989C268.993 72.9476 268.637 72.9219 268.314 72.9219C267.624 72.9219 267.008 73.0723 266.464 73.3732C265.929 73.6668 265.503 74.0778 265.188 74.6062C264.879 75.1346 264.725 75.7437 264.725 76.4336V86H260.036ZM279.895 86V69.0909H284.441V72.0412H284.618C284.926 70.9917 285.443 70.1991 286.17 69.6634C286.896 69.1203 287.733 68.8487 288.68 68.8487C288.915 68.8487 289.168 68.8634 289.439 68.8928C289.711 68.9221 289.949 68.9625 290.155 69.0138V73.1751C289.935 73.109 289.63 73.0503 289.241 72.9989C288.852 72.9476 288.496 72.9219 288.173 72.9219C287.483 72.9219 286.867 73.0723 286.324 73.3732C285.788 73.6668 285.362 74.0778 285.047 74.6062C284.739 75.1346 284.585 75.7437 284.585 76.4336V86H279.895ZM296.917 86.3192C295.838 86.3192 294.877 86.1321 294.033 85.7578C293.189 85.3762 292.521 84.8147 292.029 84.0735C291.545 83.3249 291.302 82.3929 291.302 81.2773C291.302 80.3379 291.475 79.549 291.82 78.9105C292.165 78.272 292.634 77.7583 293.229 77.3693C293.823 76.9804 294.499 76.6868 295.255 76.4886C296.018 76.2905 296.818 76.151 297.654 76.0703C298.638 75.9676 299.43 75.8722 300.032 75.7841C300.634 75.6887 301.071 75.5492 301.342 75.3658C301.614 75.1823 301.75 74.9107 301.75 74.5511V74.4851C301.75 73.7879 301.529 73.2485 301.089 72.8668C300.656 72.4852 300.04 72.2944 299.24 72.2944C298.396 72.2944 297.724 72.4815 297.225 72.8558C296.726 73.2228 296.396 73.6851 296.234 74.2429L291.897 73.8906C292.117 72.8632 292.55 71.9751 293.196 71.2266C293.842 70.4706 294.675 69.8909 295.695 69.4872C296.722 69.0762 297.911 68.8707 299.262 68.8707C300.201 68.8707 301.1 68.9808 301.959 69.201C302.825 69.4212 303.592 69.7624 304.259 70.2248C304.935 70.6871 305.467 71.2816 305.856 72.0082C306.245 72.7274 306.439 73.5897 306.439 74.5952V86H301.992V83.6552H301.86C301.588 84.1836 301.225 84.6496 300.77 85.0533C300.315 85.4496 299.768 85.7615 299.13 85.989C298.491 86.2092 297.753 86.3192 296.917 86.3192ZM298.26 83.0827C298.95 83.0827 299.559 82.947 300.087 82.6754C300.616 82.3965 301.03 82.0223 301.331 81.5526C301.632 81.0829 301.783 80.5508 301.783 79.9563V78.1619C301.636 78.2573 301.434 78.3454 301.177 78.4261C300.928 78.4995 300.645 78.5692 300.329 78.6353C300.014 78.694 299.698 78.7491 299.383 78.8004C299.067 78.8445 298.781 78.8848 298.524 78.9215C297.974 79.0022 297.493 79.1307 297.082 79.3068C296.671 79.483 296.352 79.7215 296.124 80.0224C295.897 80.3159 295.783 80.6829 295.783 81.1232C295.783 81.7617 296.014 82.2498 296.476 82.5874C296.946 82.9176 297.541 83.0827 298.26 83.0827ZM316.308 86.2752C315.024 86.2752 313.861 85.945 312.819 85.2844C311.784 84.6166 310.962 83.6368 310.353 82.3452C309.751 81.0462 309.45 79.4536 309.45 77.5675C309.45 75.63 309.762 74.0191 310.386 72.7347C311.01 71.4431 311.839 70.478 312.874 69.8395C313.916 69.1937 315.057 68.8707 316.297 68.8707C317.244 68.8707 318.033 69.0322 318.664 69.3551C319.303 69.6707 319.816 70.067 320.205 70.544C320.602 71.0137 320.903 71.4761 321.108 71.9311H321.251V63.4545H325.93V86H321.306V83.2919H321.108C320.888 83.7616 320.576 84.2276 320.172 84.69C319.776 85.145 319.259 85.523 318.62 85.8239C317.989 86.1248 317.218 86.2752 316.308 86.2752ZM317.794 82.5433C318.55 82.5433 319.189 82.3378 319.71 81.9268C320.238 81.5085 320.642 80.9251 320.921 80.1765C321.207 79.4279 321.35 78.5509 321.35 77.5455C321.35 76.54 321.211 75.6667 320.932 74.9254C320.653 74.1842 320.249 73.6117 319.721 73.2081C319.193 72.8045 318.55 72.6026 317.794 72.6026C317.024 72.6026 316.374 72.8118 315.846 73.2301C315.318 73.6484 314.918 74.2282 314.646 74.9695C314.374 75.7107 314.239 76.5694 314.239 77.5455C314.239 78.5289 314.374 79.3986 314.646 80.1545C314.925 80.9031 315.325 81.4902 315.846 81.9158C316.374 82.3342 317.024 82.5433 317.794 82.5433ZM329.786 86V69.0909H334.475V86H329.786ZM332.141 66.9112C331.444 66.9112 330.846 66.68 330.347 66.2177C329.855 65.748 329.609 65.1866 329.609 64.5334C329.609 63.8875 329.855 63.3335 330.347 62.8711C330.846 62.4014 331.444 62.1665 332.141 62.1665C332.839 62.1665 333.433 62.4014 333.925 62.8711C334.424 63.3335 334.673 63.8875 334.673 64.5334C334.673 65.1866 334.424 65.748 333.925 66.2177C333.433 66.68 332.839 66.9112 332.141 66.9112ZM349.075 78.8004V69.0909H353.765V86H349.262V82.9286H349.086C348.705 83.9194 348.07 84.7157 347.182 85.3175C346.301 85.9193 345.226 86.2202 343.956 86.2202C342.826 86.2202 341.832 85.9633 340.973 85.4496C340.114 84.9358 339.443 84.2056 338.958 83.2589C338.481 82.3121 338.239 81.1783 338.232 79.8572V69.0909H342.921V79.0206C342.929 80.0187 343.197 80.8076 343.725 81.3874C344.253 81.9672 344.962 82.2571 345.85 82.2571C346.415 82.2571 346.943 82.1287 347.435 81.8718C347.927 81.6076 348.323 81.2186 348.624 80.7049C348.932 80.1912 349.083 79.5563 349.075 78.8004ZM371.585 73.9126L367.292 74.1768C367.218 73.8099 367.06 73.4796 366.818 73.1861C366.576 72.8852 366.257 72.6467 365.86 72.4705C365.471 72.287 365.005 72.1953 364.462 72.1953C363.736 72.1953 363.123 72.3494 362.624 72.6577C362.125 72.9586 361.875 73.3622 361.875 73.8686C361.875 74.2723 362.037 74.6135 362.36 74.8924C362.683 75.1713 363.237 75.3951 364.022 75.5639L367.082 76.1804C368.726 76.518 369.952 77.0611 370.759 77.8097C371.567 78.5582 371.97 79.5417 371.97 80.7599C371.97 81.8681 371.644 82.8406 370.99 83.6772C370.345 84.5138 369.457 85.167 368.326 85.6367C367.203 86.0991 365.908 86.3303 364.44 86.3303C362.202 86.3303 360.419 85.8642 359.09 84.9322C357.769 83.9928 356.995 82.7158 356.767 81.1012L361.38 80.859C361.519 81.5415 361.857 82.0626 362.393 82.4222C362.929 82.7745 363.615 82.9506 364.451 82.9506C365.273 82.9506 365.934 82.7929 366.433 82.4773C366.939 82.1544 367.196 81.7397 367.203 81.2333C367.196 80.8076 367.016 80.459 366.664 80.1875C366.312 79.9086 365.769 79.6958 365.035 79.549L362.107 78.9656C360.455 78.6353 359.226 78.0629 358.419 77.2482C357.619 76.4336 357.219 75.3951 357.219 74.1328C357.219 73.0466 357.512 72.1109 358.099 71.3256C358.694 70.5404 359.527 69.9349 360.598 69.5092C361.677 69.0836 362.94 68.8707 364.385 68.8707C366.521 68.8707 368.202 69.3221 369.427 70.2248C370.66 71.1275 371.379 72.3568 371.585 73.9126Z" fill="white"/>
  <circle opacity="0.5" cx="320" cy="170" r="20" stroke="#F56565" stroke-dasharray="1 1"/>
  <circle opacity="0.5" cx="160" cy="270" r="20" stroke="#F56565" stroke-dasharray="1 1"/>
  <circle opacity="0.5" cx="160" cy="170" r="20" stroke="#F56565" stroke-dasharray="1 1"/>
  <circle opacity="0.5" cx="320" cy="270" r="20" stroke="#F56565" stroke-dasharray="1 1"/>
  <circle cx="160" cy="270" r="1" fill="#F56565"/>
  <circle cx="160" cy="170" r="1" fill="#F56565"/>
  <circle cx="320" cy="270" r="1" fill="#F56565"/>
  <circle cx="320" cy="170" r="1" fill="#F56565"/>
  <defs>
    <clipPath id="clip0_1330_14149">
      <rect x="120" y="120" width="240" height="240" rx="8" fill="white"/>
    </clipPath>
  </defs>
</svg>
