<svg width="480" height="480" fill="none" xmlns="http://www.w3.org/2000/svg">
  <path fill="#3C3C43" d="M0 0h480v480H0z"/>
  <g clip-path="url(#a)">
    <rect x="120" y="120" width="240" height="240" rx="8" fill="#F5F5F5"/>
    <path d="M120 130h240" stroke="#D8D8D9" stroke-width=".5"/>
    <path d="M130 120v240" stroke="#D8D8D9" stroke-width=".5"/>
    <path d="M120 140h240" stroke="#D8D8D9" stroke-width=".5"/>
    <path d="M140 120v240" stroke="#D8D8D9" stroke-width=".5"/>
    <path d="M120 150h240" stroke="#D8D8D9" stroke-width=".5"/>
    <path d="M150 120v240" stroke="#D8D8D9" stroke-width=".5"/>
    <path d="M120 160h240" stroke="#D8D8D9" stroke-width=".5"/>
    <path d="M160 120v240" stroke="#D8D8D9" stroke-width=".5"/>
    <path d="M120 170h240" stroke="#D8D8D9" stroke-width=".5"/>
    <path d="M170 120v240" stroke="#D8D8D9" stroke-width=".5"/>
    <path d="M120 180h240" stroke="#D8D8D9" stroke-width=".5"/>
    <path d="M180 120v240" stroke="#D8D8D9" stroke-width=".5"/>
    <path d="M120 190h240" stroke="#D8D8D9" stroke-width=".5"/>
    <path d="M190 120v240" stroke="#D8D8D9" stroke-width=".5"/>
    <path d="M120 200h240" stroke="#D8D8D9" stroke-width=".5"/>
    <path d="M200 120v240" stroke="#D8D8D9" stroke-width=".5"/>
    <path d="M120 210h240" stroke="#D8D8D9" stroke-width=".5"/>
    <path d="M210 120v240" stroke="#D8D8D9" stroke-width=".5"/>
    <path d="M120 220h240" stroke="#D8D8D9" stroke-width=".5"/>
    <path d="M220 120v240" stroke="#D8D8D9" stroke-width=".5"/>
    <path d="M120 230h240" stroke="#D8D8D9" stroke-width=".5"/>
    <path d="M230 120v240" stroke="#D8D8D9" stroke-width=".5"/>
    <path d="M120 240h240" stroke="#D8D8D9" stroke-width=".5"/>
    <path d="M240 120v240" stroke="#D8D8D9" stroke-width=".5"/>
    <path d="M120 250h240" stroke="#D8D8D9" stroke-width=".5"/>
    <path d="M250 120v240" stroke="#D8D8D9" stroke-width=".5"/>
    <path d="M120 260h240" stroke="#D8D8D9" stroke-width=".5"/>
    <path d="M260 120v240" stroke="#D8D8D9" stroke-width=".5"/>
    <path d="M120 270h240" stroke="#D8D8D9" stroke-width=".5"/>
    <path d="M270 120v240" stroke="#D8D8D9" stroke-width=".5"/>
    <path d="M120 280h240" stroke="#D8D8D9" stroke-width=".5"/>
    <path d="M280 120v240" stroke="#D8D8D9" stroke-width=".5"/>
    <path d="M120 290h240" stroke="#D8D8D9" stroke-width=".5"/>
    <path d="M290 120v240" stroke="#D8D8D9" stroke-width=".5"/>
    <path d="M120 300h240" stroke="#D8D8D9" stroke-width=".5"/>
    <path d="M300 120v240" stroke="#D8D8D9" stroke-width=".5"/>
    <path d="M120 310h240" stroke="#D8D8D9" stroke-width=".5"/>
    <path d="M310 120v240" stroke="#D8D8D9" stroke-width=".5"/>
    <path d="M120 320h240" stroke="#D8D8D9" stroke-width=".5"/>
    <path d="M320 120v240" stroke="#D8D8D9" stroke-width=".5"/>
    <path d="M120 330h240" stroke="#D8D8D9" stroke-width=".5"/>
    <path d="M330 120v240" stroke="#D8D8D9" stroke-width=".5"/>
    <path d="M120 340h240" stroke="#D8D8D9" stroke-width=".5"/>
    <path d="M340 120v240" stroke="#D8D8D9" stroke-width=".5"/>
    <path d="M120 350h240" stroke="#D8D8D9" stroke-width=".5"/>
    <path d="M350 120v240" stroke="#D8D8D9" stroke-width=".5"/>
</g>
<g id="embed-lucide-activity" stroke="#3C3C43" stroke-width="2" stroke-linecap="round" stroke-linejoin="round" transform="translate(120 120), scale(10)">
  <path d="M22 12h-2.48a2 2 0 0 0-1.93 1.46l-2.35 8.36a.25.25 0 0 1-.48 0L9.24 2.18a.25.25 0 0 0-.48 0l-2.35 8.36A2 2 0 0 1 4.49 12H2" />
</g>
  <path d="M114.724 86v-3.435l8.025-7.43a30.068 30.068 0 0 0 1.717-1.784c.47-.528.826-1.046 1.068-1.552a3.852 3.852 0 0 0 .364-1.662c0-.66-.151-1.23-.452-1.707a2.964 2.964 0 0 0-1.233-1.112c-.521-.264-1.112-.396-1.772-.396-.69 0-1.292.14-1.806.419a2.88 2.88 0 0 0-1.188 1.2c-.279.52-.419 1.14-.419 1.86h-4.524c0-1.475.334-2.756 1.002-3.842.667-1.086 1.603-1.927 2.807-2.521 1.203-.594 2.59-.892 4.161-.892 1.614 0 3.02.286 4.216.859 1.204.565 2.139 1.35 2.807 2.356.668 1.005 1.002 2.157 1.002 3.456 0 .852-.169 1.692-.506 2.521-.331.83-.921 1.75-1.773 2.764-.851 1.005-2.051 2.212-3.599 3.621l-3.292 3.226v.154h9.467V86h-16.072Zm19.57 6.34V69.09h4.624v2.841h.209c.206-.455.503-.917.892-1.387.396-.477.91-.873 1.541-1.189.638-.323 1.431-.484 2.378-.484 1.233 0 2.37.323 3.412.969 1.043.638 1.876 1.603 2.499 2.895.624 1.284.936 2.895.936 4.832 0 1.887-.305 3.48-.914 4.778-.601 1.292-1.423 2.272-2.466 2.94-1.034.66-2.194.99-3.478.99-.91 0-1.685-.15-2.323-.451-.631-.301-1.149-.679-1.552-1.134a5.755 5.755 0 0 1-.925-1.398h-.143v9.049h-4.69Zm4.591-14.794c0 1.005.139 1.882.418 2.63.279.75.683 1.332 1.211 1.75.529.412 1.171.617 1.927.617.763 0 1.409-.209 1.937-.627.529-.426.928-1.013 1.2-1.761.279-.756.418-1.626.418-2.61 0-.976-.135-1.834-.407-2.576-.271-.74-.671-1.32-1.2-1.739-.528-.418-1.178-.627-1.948-.627-.764 0-1.409.202-1.938.605-.521.404-.921.976-1.2 1.717-.279.742-.418 1.615-.418 2.62Zm18.34-8.455 3.104 5.912 3.182-5.912h4.811l-4.899 8.455L168.454 86h-4.789l-3.336-5.846-3.28 5.846h-4.844l5.02-8.454-4.844-8.455h4.844Zm35.125 4.822-4.293.264a2.216 2.216 0 0 0-.473-.99 2.503 2.503 0 0 0-.958-.716c-.389-.184-.855-.276-1.398-.276-.727 0-1.339.154-1.838.463-.499.3-.749.704-.749 1.21 0 .404.161.746.484 1.024.323.28.877.503 1.663.672l3.06.616c1.644.338 2.87.881 3.677 1.63.807.748 1.211 1.732 1.211 2.95 0 1.108-.327 2.08-.98 2.917-.646.837-1.534 1.49-2.664 1.96-1.123.462-2.418.693-3.886.693-2.238 0-4.022-.466-5.35-1.398-1.321-.94-2.095-2.216-2.323-3.83l4.613-.243c.139.683.477 1.204 1.012 1.563.536.353 1.222.529 2.059.529.822 0 1.482-.158 1.982-.474.506-.323.763-.737.77-1.244-.007-.425-.187-.774-.539-1.046-.353-.278-.896-.491-1.63-.638l-2.928-.583c-1.651-.33-2.88-.903-3.688-1.718-.8-.814-1.2-1.853-1.2-3.115 0-1.086.294-2.022.881-2.807.595-.786 1.427-1.391 2.499-1.817 1.079-.425 2.341-.638 3.787-.638 2.136 0 3.816.451 5.042 1.354 1.233.903 1.952 2.132 2.157 3.688Zm12.333-4.822v3.523H194.5V69.09h10.183Zm-7.871-4.051h4.689v15.764c0 .433.066.77.198 1.013.133.235.316.4.551.495.242.096.521.143.837.143.22 0 .44-.018.66-.055l.506-.099.738 3.49a13.19 13.19 0 0 1-.991.253 7.93 7.93 0 0 1-1.552.187c-1.13.044-2.121-.106-2.972-.451-.844-.345-1.501-.88-1.971-1.607-.469-.727-.701-1.644-.693-2.752V65.04ZM207.738 86V69.09h4.546v2.951h.176c.309-1.05.826-1.842 1.553-2.378.726-.543 1.563-.814 2.509-.814a6.927 6.927 0 0 1 1.476.164v4.162a6.149 6.149 0 0 0-.914-.176 8.222 8.222 0 0 0-1.068-.077c-.69 0-1.306.15-1.849.451a3.318 3.318 0 0 0-1.277 1.233c-.309.529-.463 1.138-.463 1.828V86h-4.689Zm19.537.33c-1.71 0-3.189-.363-4.436-1.09a7.46 7.46 0 0 1-2.874-3.06c-.675-1.314-1.012-2.837-1.012-4.569 0-1.746.337-3.273 1.012-4.579.676-1.314 1.633-2.334 2.874-3.06 1.247-.734 2.726-1.101 4.436-1.101s3.185.367 4.425 1.1c1.248.727 2.21 1.747 2.885 3.061.675 1.306 1.012 2.833 1.012 4.58 0 1.732-.337 3.254-1.012 4.568a7.434 7.434 0 0 1-2.885 3.06c-1.24.727-2.715 1.09-4.425 1.09Zm.022-3.633c.778 0 1.427-.22 1.949-.66.521-.448.913-1.057 1.177-1.828.272-.77.408-1.647.408-2.63 0-.984-.136-1.861-.408-2.632-.264-.77-.656-1.38-1.177-1.827-.522-.448-1.171-.672-1.949-.672-.785 0-1.446.224-1.981.672-.529.448-.929 1.057-1.2 1.827-.265.771-.397 1.648-.397 2.632 0 .983.132 1.86.397 2.63.271.771.671 1.38 1.2 1.828.535.44 1.196.66 1.981.66Zm15.599-1.563.011-5.625h.683l5.416-6.418h5.383l-7.277 8.499h-1.111l-3.105 3.544ZM238.647 86V63.455h4.689V86h-4.689Zm10.568 0-4.976-7.365 3.127-3.313L254.708 86h-5.493Zm14.484.33c-1.739 0-3.236-.352-4.491-1.057a7.233 7.233 0 0 1-2.884-3.016c-.675-1.306-1.013-2.851-1.013-4.635 0-1.739.338-3.265 1.013-4.579.675-1.314 1.625-2.338 2.851-3.071 1.233-.734 2.679-1.101 4.337-1.101 1.116 0 2.154.18 3.116.54a6.914 6.914 0 0 1 2.532 1.595c.726.712 1.291 1.608 1.695 2.686.404 1.072.605 2.327.605 3.765v1.288h-14.278V75.84h9.864c0-.675-.147-1.273-.44-1.794a3.158 3.158 0 0 0-1.222-1.222c-.514-.301-1.112-.452-1.795-.452-.711 0-1.343.166-1.893.496-.543.323-.969.76-1.277 1.31a3.698 3.698 0 0 0-.473 1.816v2.763c0 .837.154 1.56.462 2.17a3.39 3.39 0 0 0 1.332 1.408c.572.33 1.251.495 2.037.495.521 0 .998-.073 1.431-.22a2.978 2.978 0 0 0 1.112-.66 2.87 2.87 0 0 0 .704-1.079l4.337.286a5.917 5.917 0 0 1-1.354 2.73c-.675.771-1.548 1.373-2.62 1.806-1.064.425-2.293.638-3.688.638Zm21.332-.33-4.601-16.91h4.744l2.62 11.362h.155l2.73-11.361h4.656l2.774 11.295h.143l2.576-11.295h4.734L300.972 86h-4.965L293.1 75.366h-.209L289.985 86h-4.954Zm23.033 0V69.09h4.689V86h-4.689Zm2.356-19.089a2.548 2.548 0 0 1-1.795-.693c-.491-.47-.737-1.031-.737-1.685 0-.645.246-1.2.737-1.662a2.526 2.526 0 0 1 1.795-.705c.697 0 1.291.235 1.783.705.499.462.749 1.017.749 1.662 0 .654-.25 1.215-.749 1.685-.492.462-1.086.693-1.783.693Zm12.321 19.364c-1.284 0-2.448-.33-3.49-.99-1.035-.668-1.857-1.648-2.466-2.94-.601-1.299-.902-2.891-.902-4.778 0-1.937.312-3.548.935-4.832.624-1.292 1.453-2.257 2.488-2.895a6.377 6.377 0 0 1 3.424-.97c.947 0 1.736.162 2.367.485.638.316 1.152.712 1.541 1.189.396.47.697.932.903 1.387h.143v-8.476h4.678V86h-4.623v-2.708h-.198c-.221.47-.532.936-.936 1.398-.396.455-.914.833-1.552 1.134-.631.3-1.402.451-2.312.451Zm1.486-3.732c.756 0 1.395-.205 1.916-.616.528-.419.932-1.002 1.211-1.75.286-.75.429-1.626.429-2.632 0-1.005-.14-1.878-.418-2.62-.279-.74-.683-1.313-1.211-1.717-.529-.403-1.171-.605-1.927-.605-.771 0-1.42.209-1.948.627-.529.418-.929.998-1.2 1.74-.272.74-.408 1.6-.408 2.576 0 .983.136 1.853.408 2.608.279.75.679 1.336 1.2 1.762.528.418 1.177.627 1.948.627Zm20.985-13.452v3.523h-10.183V69.09h10.183Zm-7.871-4.051h4.69v15.764c0 .433.066.77.198 1.013.132.235.315.4.55.495.242.096.521.143.837.143.22 0 .44-.018.66-.055.221-.044.389-.077.507-.099l.737 3.49a13.27 13.27 0 0 1-.99.253 7.952 7.952 0 0 1-1.553.187c-1.13.044-2.121-.106-2.972-.451-.844-.345-1.501-.88-1.97-1.607-.47-.727-.701-1.644-.694-2.752V65.04Zm15.979 11.184V86h-4.69V63.455h4.558v8.62h.198c.382-.999.998-1.78 1.849-2.346.852-.572 1.92-.858 3.204-.858 1.174 0 2.198.257 3.071.77.881.507 1.563 1.237 2.048 2.191.492.947.734 2.08.726 3.402V86h-4.689v-9.93c.007-1.042-.257-1.853-.793-2.433-.528-.58-1.27-.87-2.224-.87-.638 0-1.203.136-1.695.408a2.89 2.89 0 0 0-1.145 1.189c-.271.514-.411 1.134-.418 1.86Z" fill="#fff"/>
  <path fill="url(#b)" d="M310 230h74v20h-74z"/>
  <path fill="url(#c)" d="M96 230h74v20H96z"/>
  <defs>
    <linearGradient id="b" x1="384" y1="237" x2="310" y2="237" gradientUnits="userSpaceOnUse">
      <stop stop-color="#F56565"/>
      <stop offset="1" stop-color="#F56565" stop-opacity="0"/>
    </linearGradient>
    <linearGradient id="c" x1="96" y1="238.5" x2="170" y2="238.5" gradientUnits="userSpaceOnUse">
      <stop stop-color="#F56565"/>
      <stop offset="1" stop-color="#F56565" stop-opacity="0"/>
    </linearGradient>
    <clipPath id="a">
      <rect x="120" y="120" width="240" height="240" rx="8" fill="#fff"/>
    </clipPath>
  </defs>
</svg>
