<svg width="480" height="480" fill="none" xmlns="http://www.w3.org/2000/svg">
  <path fill="#3C3C43" d="M0 0h480v480H0z"/>
  <g clip-path="url(#a)">
    <rect x="120" y="120" width="240" height="240" rx="8" fill="#F5F5F5"/>
    <path d="M120 130h240" stroke="#D8D8D9" stroke-width=".5"/>
    <path d="M130 120v240" stroke="#D8D8D9" stroke-width=".5"/>
    <path d="M120 140h240" stroke="#D8D8D9" stroke-width=".5"/>
    <path d="M140 120v240" stroke="#D8D8D9" stroke-width=".5"/>
    <path d="M120 150h240" stroke="#D8D8D9" stroke-width=".5"/>
    <path d="M150 120v240" stroke="#D8D8D9" stroke-width=".5"/>
    <path d="M120 160h240" stroke="#D8D8D9" stroke-width=".5"/>
    <path d="M160 120v240" stroke="#D8D8D9" stroke-width=".5"/>
    <path d="M120 170h240" stroke="#D8D8D9" stroke-width=".5"/>
    <path d="M170 120v240" stroke="#D8D8D9" stroke-width=".5"/>
    <path d="M120 180h240" stroke="#D8D8D9" stroke-width=".5"/>
    <path d="M180 120v240" stroke="#D8D8D9" stroke-width=".5"/>
    <path d="M120 190h240" stroke="#D8D8D9" stroke-width=".5"/>
    <path d="M190 120v240" stroke="#D8D8D9" stroke-width=".5"/>
    <path d="M120 200h240" stroke="#D8D8D9" stroke-width=".5"/>
    <path d="M200 120v240" stroke="#D8D8D9" stroke-width=".5"/>
    <path d="M120 210h240" stroke="#D8D8D9" stroke-width=".5"/>
    <path d="M210 120v240" stroke="#D8D8D9" stroke-width=".5"/>
    <path d="M120 220h240" stroke="#D8D8D9" stroke-width=".5"/>
    <path d="M220 120v240" stroke="#D8D8D9" stroke-width=".5"/>
    <path d="M120 230h240" stroke="#D8D8D9" stroke-width=".5"/>
    <path d="M230 120v240" stroke="#D8D8D9" stroke-width=".5"/>
    <path d="M120 240h240" stroke="#D8D8D9" stroke-width=".5"/>
    <path d="M240 120v240" stroke="#D8D8D9" stroke-width=".5"/>
    <path d="M120 250h240" stroke="#D8D8D9" stroke-width=".5"/>
    <path d="M250 120v240" stroke="#D8D8D9" stroke-width=".5"/>
    <path d="M120 260h240" stroke="#D8D8D9" stroke-width=".5"/>
    <path d="M260 120v240" stroke="#D8D8D9" stroke-width=".5"/>
    <path d="M120 270h240" stroke="#D8D8D9" stroke-width=".5"/>
    <path d="M270 120v240" stroke="#D8D8D9" stroke-width=".5"/>
    <path d="M120 280h240" stroke="#D8D8D9" stroke-width=".5"/>
    <path d="M280 120v240" stroke="#D8D8D9" stroke-width=".5"/>
    <path d="M120 290h240" stroke="#D8D8D9" stroke-width=".5"/>
    <path d="M290 120v240" stroke="#D8D8D9" stroke-width=".5"/>
    <path d="M120 300h240" stroke="#D8D8D9" stroke-width=".5"/>
    <path d="M300 120v240" stroke="#D8D8D9" stroke-width=".5"/>
    <path d="M120 310h240" stroke="#D8D8D9" stroke-width=".5"/>
    <path d="M310 120v240" stroke="#D8D8D9" stroke-width=".5"/>
    <path d="M120 320h240" stroke="#D8D8D9" stroke-width=".5"/>
    <path d="M320 120v240" stroke="#D8D8D9" stroke-width=".5"/>
    <path d="M120 330h240" stroke="#D8D8D9" stroke-width=".5"/>
    <path d="M330 120v240" stroke="#D8D8D9" stroke-width=".5"/>
    <path d="M120 340h240" stroke="#D8D8D9" stroke-width=".5"/>
    <path d="M340 120v240" stroke="#D8D8D9" stroke-width=".5"/>
    <path d="M120 350h240" stroke="#D8D8D9" stroke-width=".5"/>
    <path d="M350 120v240" stroke="#D8D8D9" stroke-width=".5"/>
</g>
<path d="M219 396.5L208 407.5L203 402.5" stroke="#36EA83" stroke-width="3" stroke-linecap="round" stroke-linejoin="round"/>
<path d="M241.052 414H233.06V391.455H241.118C243.386 391.455 245.338 391.906 246.975 392.809C248.611 393.704 249.87 394.992 250.751 396.673C251.639 398.353 252.083 400.364 252.083 402.705C252.083 405.054 251.639 407.072 250.751 408.76C249.87 410.448 248.604 411.743 246.953 412.646C245.309 413.549 243.342 414 241.052 414ZM237.827 409.916H240.854C242.263 409.916 243.448 409.666 244.41 409.167C245.379 408.661 246.105 407.879 246.59 406.822C247.081 405.758 247.327 404.386 247.327 402.705C247.327 401.039 247.081 399.678 246.59 398.621C246.105 397.564 245.382 396.786 244.421 396.287C243.459 395.788 242.274 395.539 240.865 395.539H237.827V409.916ZM263.166 414.33C261.456 414.33 259.977 413.967 258.729 413.24C257.489 412.507 256.531 411.486 255.856 410.18C255.181 408.866 254.843 407.344 254.843 405.612C254.843 403.865 255.181 402.338 255.856 401.032C256.531 399.718 257.489 398.698 258.729 397.972C259.977 397.238 261.456 396.871 263.166 396.871C264.876 396.871 266.351 397.238 267.591 397.972C268.839 398.698 269.8 399.718 270.475 401.032C271.151 402.338 271.488 403.865 271.488 405.612C271.488 407.344 271.151 408.866 270.475 410.18C269.8 411.486 268.839 412.507 267.591 413.24C266.351 413.967 264.876 414.33 263.166 414.33ZM263.188 410.697C263.966 410.697 264.615 410.477 265.136 410.037C265.657 409.589 266.05 408.98 266.314 408.21C266.586 407.439 266.721 406.562 266.721 405.578C266.721 404.595 266.586 403.718 266.314 402.947C266.05 402.177 265.657 401.568 265.136 401.12C264.615 400.672 263.966 400.449 263.188 400.449C262.402 400.449 261.742 400.672 261.206 401.12C260.678 401.568 260.278 402.177 260.006 402.947C259.742 403.718 259.61 404.595 259.61 405.578C259.61 406.562 259.742 407.439 260.006 408.21C260.278 408.98 260.678 409.589 261.206 410.037C261.742 410.477 262.402 410.697 263.188 410.697ZM277.279 414.286C276.552 414.286 275.928 414.029 275.407 413.516C274.893 412.995 274.637 412.371 274.637 411.644C274.637 410.925 274.893 410.308 275.407 409.795C275.928 409.281 276.552 409.024 277.279 409.024C277.983 409.024 278.6 409.281 279.128 409.795C279.656 410.308 279.921 410.925 279.921 411.644C279.921 412.129 279.796 412.573 279.546 412.976C279.304 413.373 278.985 413.692 278.589 413.934C278.192 414.169 277.756 414.286 277.279 414.286Z" fill="#36EA83"/>
<g id="embed-lucide-copy" stroke="#3C3C43" stroke-width="2" stroke-linecap="round" stroke-linejoin="round" transform="translate(120 120), scale(10)">
  <rect width="14" height="14" x="8" y="8" rx="2" ry="2" />
  <path d="M4 16c-1.1 0-2-.9-2-2V4c0-1.1.9-2 2-2h10c1.1 0 2 .9 2 2" />
</g>
  <path fill="url(#b)" d="M243 170h74v20h-74z"/>
  <path transform="rotate(90 190 243)" fill="url(#c)" d="M190 243h74v20h-74z"/>
  <path d="M149.796 70v-3.435l8.025-7.43a30.442 30.442 0 0 0 1.718-1.784c.469-.528.825-1.046 1.068-1.552a3.851 3.851 0 0 0 .363-1.662c0-.66-.151-1.23-.452-1.707a2.956 2.956 0 0 0-1.232-1.111c-.522-.265-1.112-.397-1.773-.397-.69 0-1.292.14-1.805.419-.514.278-.91.678-1.189 1.2-.279.52-.419 1.14-.419 1.86h-4.524c0-1.475.334-2.756 1.002-3.842.668-1.086 1.603-1.926 2.807-2.521 1.204-.594 2.591-.892 4.161-.892 1.615 0 3.02.286 4.216.859 1.204.565 2.14 1.35 2.808 2.356.667 1.005 1.001 2.158 1.001 3.457 0 .85-.168 1.691-.506 2.52-.33.83-.921 1.75-1.772 2.764-.852 1.005-2.052 2.212-3.6 3.621l-3.292 3.226v.154h9.468V70h-16.073Zm19.571 6.34V53.09h4.623v2.841h.209c.206-.455.503-.917.892-1.387.396-.477.91-.873 1.541-1.189.639-.323 1.431-.484 2.378-.484 1.233 0 2.371.323 3.413.968 1.042.639 1.875 1.604 2.499 2.896.623 1.284.935 2.895.935 4.833 0 1.886-.304 3.478-.913 4.777-.602 1.292-1.424 2.272-2.466 2.94-1.035.66-2.195.99-3.479.99-.91 0-1.684-.15-2.323-.451-.631-.301-1.148-.679-1.552-1.134a5.755 5.755 0 0 1-.925-1.398h-.143v9.049h-4.689Zm4.59-14.795c0 1.006.14 1.883.418 2.632.279.748.683 1.331 1.211 1.75.529.41 1.171.616 1.927.616.763 0 1.409-.209 1.937-.627.529-.426.929-1.013 1.2-1.761.279-.756.419-1.626.419-2.61 0-.976-.136-1.834-.408-2.576-.271-.74-.671-1.32-1.2-1.739-.528-.418-1.178-.627-1.948-.627-.763 0-1.409.201-1.938.605-.521.404-.921.976-1.2 1.717-.278.742-.418 1.615-.418 2.62Zm18.34-8.454 3.105 5.911 3.181-5.911h4.811l-4.899 8.454L203.526 70h-4.789l-3.335-5.846L192.121 70h-4.844l5.02-8.455-4.843-8.454h4.843Zm35.126 4.822-4.294.264a2.216 2.216 0 0 0-.473-.99 2.495 2.495 0 0 0-.958-.716c-.389-.184-.855-.276-1.398-.276-.726 0-1.339.154-1.838.463-.499.3-.749.704-.749 1.21 0 .404.162.745.485 1.024.323.28.877.503 1.662.672l3.06.616c1.644.338 2.87.881 3.677 1.63.807.748 1.211 1.732 1.211 2.95 0 1.108-.327 2.08-.98 2.917-.646.837-1.534 1.49-2.664 1.96-1.123.462-2.418.693-3.886.693-2.238 0-4.022-.466-5.35-1.398-1.321-.94-2.095-2.216-2.323-3.83l4.613-.243c.139.683.477 1.204 1.013 1.563.535.353 1.222.529 2.058.529.822 0 1.483-.158 1.982-.474.506-.323.763-.737.77-1.244-.007-.425-.187-.774-.539-1.046-.352-.278-.895-.491-1.629-.638l-2.929-.583c-1.651-.33-2.88-.903-3.687-1.718-.8-.814-1.2-1.853-1.2-3.115 0-1.086.293-2.022.88-2.807.595-.786 1.428-1.391 2.499-1.817 1.079-.425 2.341-.638 3.787-.638 2.136 0 3.816.451 5.042 1.354 1.233.902 1.952 2.132 2.158 3.688Zm3.338 18.428V53.09h4.624v2.84h.209c.205-.455.503-.917.892-1.387.396-.477.91-.873 1.541-1.189.638-.323 1.431-.484 2.378-.484a6.36 6.36 0 0 1 3.412.968c1.042.639 1.875 1.604 2.499 2.896.624 1.284.936 2.895.936 4.833 0 1.886-.305 3.478-.914 4.777-.602 1.292-1.424 2.272-2.466 2.94-1.035.66-2.194.99-3.478.99-.91 0-1.685-.15-2.323-.451-.631-.301-1.149-.679-1.552-1.134a5.755 5.755 0 0 1-.925-1.398h-.143v9.049h-4.69Zm4.591-14.795c0 1.005.139 1.882.418 2.63.279.75.683 1.332 1.211 1.75.528.412 1.17.617 1.926.617.764 0 1.409-.209 1.938-.627.528-.426.928-1.013 1.2-1.761.279-.756.418-1.626.418-2.61 0-.976-.136-1.834-.407-2.576-.272-.74-.672-1.32-1.2-1.739-.528-.418-1.178-.627-1.949-.627-.763 0-1.409.201-1.937.605-.521.404-.921.976-1.2 1.717-.279.742-.418 1.615-.418 2.62Zm19.848 8.773c-1.079 0-2.04-.187-2.884-.561a4.646 4.646 0 0 1-2.004-1.684c-.484-.75-.726-1.681-.726-2.797 0-.94.172-1.728.517-2.367a4.194 4.194 0 0 1 1.409-1.54 6.845 6.845 0 0 1 2.026-.881 15.432 15.432 0 0 1 2.4-.419 60.433 60.433 0 0 0 2.377-.286c.602-.095 1.039-.235 1.31-.418.272-.184.408-.455.408-.815v-.066c0-.697-.22-1.236-.661-1.618-.433-.382-1.049-.573-1.849-.573-.844 0-1.516.188-2.015.562-.499.367-.829.83-.991 1.387l-4.337-.352c.22-1.028.653-1.916 1.299-2.664.646-.756 1.479-1.336 2.499-1.74 1.028-.41 2.216-.616 3.567-.616.939 0 1.838.11 2.697.33.866.22 1.633.561 2.301 1.024a4.976 4.976 0 0 1 1.596 1.783c.389.72.583 1.582.583 2.587V70h-4.447v-2.345h-.132a4.782 4.782 0 0 1-1.09 1.398 5.048 5.048 0 0 1-1.64.936c-.639.22-1.376.33-2.213.33Zm1.343-3.236c.69 0 1.299-.136 1.827-.408a3.227 3.227 0 0 0 1.244-1.122c.301-.47.452-1.002.452-1.597v-1.794a2.518 2.518 0 0 1-.606.264c-.249.073-.532.143-.847.21-.316.058-.631.113-.947.164l-.859.122a5.78 5.78 0 0 0-1.442.385c-.411.176-.73.414-.958.715-.227.294-.341.66-.341 1.101 0 .639.231 1.127.694 1.464.469.33 1.064.496 1.783.496Zm19.458 3.247c-1.732 0-3.222-.367-4.47-1.1a7.444 7.444 0 0 1-2.862-3.083c-.661-1.314-.991-2.826-.991-4.536 0-1.731.334-3.25 1.002-4.557.675-1.314 1.633-2.337 2.873-3.071 1.24-.742 2.716-1.112 4.426-1.112 1.475 0 2.766.268 3.875.803 1.108.536 1.985 1.288 2.631 2.257.645.969 1.001 2.106 1.067 3.413h-4.425c-.125-.844-.455-1.523-.991-2.037-.528-.52-1.222-.781-2.08-.781-.727 0-1.362.198-1.905.594-.536.389-.954.958-1.255 1.706-.301.749-.451 1.655-.451 2.72 0 1.078.147 1.996.44 2.752.301.755.723 1.332 1.266 1.728.543.396 1.178.594 1.905.594.535 0 1.016-.11 1.442-.33.433-.22.789-.54 1.068-.958.286-.425.473-.935.561-1.53h4.425c-.073 1.292-.425 2.43-1.056 3.413-.624.976-1.487 1.74-2.587 2.29-1.101.55-2.404.825-3.908.825Zm10.554-.33V53.09h4.69V70h-4.69Zm2.356-19.089a2.552 2.552 0 0 1-1.795-.693c-.491-.47-.737-1.031-.737-1.685 0-.645.246-1.2.737-1.662a2.53 2.53 0 0 1 1.795-.705c.697 0 1.292.235 1.783.705.499.462.749 1.017.749 1.662 0 .654-.25 1.215-.749 1.685-.491.462-1.086.693-1.783.693Zm10.78 9.313V70h-4.69V53.09h4.47v2.984h.198a4.719 4.719 0 0 1 1.882-2.334c.881-.58 1.949-.87 3.204-.87 1.174 0 2.198.258 3.071.771.874.514 1.552 1.248 2.037 2.202.484.947.726 2.077.726 3.39V70H305.9v-9.93c.007-1.035-.257-1.842-.793-2.422-.536-.587-1.273-.88-2.213-.88-.631 0-1.188.136-1.673.407a2.842 2.842 0 0 0-1.123 1.189c-.264.514-.4 1.134-.407 1.86Zm22.212 16.47c-1.519 0-2.821-.21-3.908-.628-1.078-.411-1.937-.973-2.576-1.685a5.185 5.185 0 0 1-1.244-2.4l4.338-.583c.132.338.341.653.627.947.286.293.664.528 1.134.704.477.184 1.057.276 1.739.276 1.021 0 1.861-.25 2.521-.749.668-.492 1.002-1.317 1.002-2.477v-3.093h-.198c-.205.47-.514.913-.925 1.332-.411.418-.939.76-1.585 1.024s-1.416.396-2.312.396c-1.269 0-2.425-.294-3.467-.88-1.035-.595-1.861-1.502-2.477-2.72-.609-1.226-.914-2.774-.914-4.646 0-1.915.312-3.515.936-4.8.624-1.284 1.453-2.245 2.488-2.884a6.428 6.428 0 0 1 3.423-.957c.947 0 1.74.161 2.378.484.639.316 1.152.712 1.541 1.189.397.47.701.932.914 1.387h.176v-2.84h4.657v17.074c0 1.439-.352 2.642-1.057 3.61-.705.97-1.681 1.696-2.928 2.18-1.241.492-2.668.738-4.283.738Zm.099-10.459c.756 0 1.395-.187 1.916-.561.528-.382.932-.925 1.211-1.63.286-.711.429-1.563.429-2.554 0-.99-.139-1.849-.418-2.576-.279-.733-.683-1.302-1.211-1.706-.528-.404-1.171-.605-1.927-.605-.77 0-1.42.209-1.948.627-.528.411-.928.984-1.2 1.717-.271.734-.407 1.582-.407 2.543 0 .977.136 1.82.407 2.532.279.705.679 1.252 1.2 1.64.528.382 1.178.573 1.948.573ZM101.672 101V78.454h4.69v8.477h.143c.206-.455.503-.917.892-1.387.396-.477.91-.873 1.541-1.189.639-.323 1.431-.484 2.378-.484a6.36 6.36 0 0 1 3.413.969c1.042.638 1.875 1.603 2.498 2.895.624 1.284.936 2.895.936 4.832 0 1.887-.304 3.48-.914 4.778-.601 1.292-1.423 2.272-2.465 2.939-1.035.661-2.195.991-3.479.991-.91 0-1.684-.15-2.323-.451-.631-.301-1.148-.679-1.552-1.134a5.755 5.755 0 0 1-.925-1.398h-.209V101h-4.624Zm4.591-8.454c0 1.005.139 1.882.418 2.63.279.75.683 1.332 1.211 1.75.529.412 1.171.617 1.927.617.763 0 1.409-.209 1.937-.627.529-.426.929-1.013 1.2-1.761.279-.756.418-1.626.418-2.61 0-.976-.135-1.834-.407-2.576-.271-.74-.671-1.32-1.2-1.739-.528-.418-1.178-.627-1.948-.627-.764 0-1.409.202-1.938.605-.521.404-.921.976-1.2 1.717-.279.742-.418 1.615-.418 2.62Zm22.735 8.784c-1.739 0-3.236-.352-4.491-1.057a7.23 7.23 0 0 1-2.884-3.016c-.676-1.306-1.013-2.851-1.013-4.635 0-1.739.337-3.265 1.013-4.579.675-1.314 1.625-2.338 2.851-3.071 1.233-.734 2.679-1.101 4.337-1.101 1.116 0 2.154.18 3.116.54a6.923 6.923 0 0 1 2.532 1.595c.726.712 1.291 1.608 1.695 2.686.403 1.072.605 2.327.605 3.765v1.288h-14.278V90.84h9.864c0-.675-.147-1.273-.44-1.794a3.158 3.158 0 0 0-1.222-1.222c-.514-.301-1.112-.452-1.795-.452-.712 0-1.343.166-1.893.496-.543.323-.969.76-1.277 1.31a3.71 3.71 0 0 0-.474 1.816v2.763c0 .837.155 1.56.463 2.17a3.38 3.38 0 0 0 1.332 1.408c.572.33 1.251.495 2.036.495.521 0 .998-.073 1.431-.22a2.97 2.97 0 0 0 1.112-.66 2.87 2.87 0 0 0 .705-1.079l4.337.286a5.917 5.917 0 0 1-1.354 2.73c-.675.771-1.548 1.373-2.62 1.806-1.064.425-2.293.638-3.688.638Zm19.816-17.24v3.524h-10.183V84.09h10.183Zm-7.871-4.05h4.689v15.764c0 .433.066.77.198 1.013.132.235.316.4.551.495.242.096.521.143.836.143.221 0 .441-.018.661-.055l.506-.099.738 3.49a13.19 13.19 0 0 1-.991.253 7.927 7.927 0 0 1-1.552.187c-1.13.044-2.121-.106-2.972-.451-.844-.345-1.501-.88-1.971-1.607-.47-.727-.701-1.644-.693-2.752V80.04ZM155.204 101l-4.601-16.91h4.744l2.62 11.362h.154l2.73-11.361h4.657l2.774 11.295h.143l2.576-11.295h4.734L171.144 101h-4.964l-2.907-10.634h-.209L160.158 101h-4.954Zm30.315.33c-1.74 0-3.237-.352-4.492-1.057a7.236 7.236 0 0 1-2.884-3.016c-.675-1.306-1.013-2.851-1.013-4.635 0-1.739.338-3.265 1.013-4.579.675-1.314 1.626-2.338 2.851-3.071 1.233-.734 2.679-1.101 4.338-1.101 1.115 0 2.154.18 3.115.54a6.906 6.906 0 0 1 2.532 1.595c.727.712 1.292 1.608 1.695 2.686.404 1.072.606 2.327.606 3.765v1.288h-14.278V90.84h9.863c0-.675-.146-1.273-.44-1.794a3.152 3.152 0 0 0-1.222-1.222c-.514-.301-1.112-.452-1.794-.452-.712 0-1.343.166-1.894.496a3.48 3.48 0 0 0-1.277 1.31 3.698 3.698 0 0 0-.473 1.816v2.763c0 .837.154 1.56.462 2.17a3.39 3.39 0 0 0 1.332 1.408c.573.33 1.252.495 2.037.495.521 0 .998-.073 1.431-.22a2.97 2.97 0 0 0 1.112-.66 2.87 2.87 0 0 0 .704-1.079l4.338.286a5.926 5.926 0 0 1-1.354 2.73c-.675.771-1.549 1.373-2.62 1.806-1.064.425-2.294.638-3.688.638Zm18.527 0c-1.739 0-3.236-.352-4.491-1.057-1.248-.711-2.209-1.717-2.885-3.016-.675-1.306-1.012-2.851-1.012-4.635 0-1.739.337-3.265 1.012-4.579.676-1.314 1.626-2.338 2.852-3.071 1.233-.734 2.678-1.101 4.337-1.101 1.116 0 2.154.18 3.115.54a6.906 6.906 0 0 1 2.532 1.595c.727.712 1.292 1.608 1.696 2.686.403 1.072.605 2.327.605 3.765v1.288h-14.278V90.84h9.864c0-.675-.147-1.273-.441-1.794a3.145 3.145 0 0 0-1.222-1.222c-.513-.301-1.111-.452-1.794-.452-.712 0-1.343.166-1.893.496-.543.323-.969.76-1.277 1.31a3.7 3.7 0 0 0-.474 1.816v2.763c0 .837.154 1.56.463 2.17a3.38 3.38 0 0 0 1.332 1.408c.572.33 1.251.495 2.036.495.521 0 .998-.073 1.431-.22a2.97 2.97 0 0 0 1.112-.66c.308-.294.543-.653.705-1.079l4.337.286a5.917 5.917 0 0 1-1.354 2.73c-.675.771-1.548 1.373-2.62 1.806-1.064.425-2.293.638-3.688.638Zm15.511-10.106V101h-4.689V84.09h4.469v2.984h.198a4.715 4.715 0 0 1 1.883-2.334c.88-.58 1.948-.87 3.203-.87 1.174 0 2.198.258 3.071.771.874.514 1.553 1.248 2.037 2.202.484.947.727 2.077.727 3.39V101h-4.69v-9.93c.007-1.034-.257-1.842-.793-2.422-.535-.587-1.273-.88-2.212-.88-.632 0-1.189.135-1.674.407a2.842 2.842 0 0 0-1.123 1.189c-.264.514-.399 1.134-.407 1.86Zm29.475 10.106c-1.739 0-3.236-.352-4.491-1.057a7.23 7.23 0 0 1-2.884-3.016c-.675-1.306-1.013-2.851-1.013-4.635 0-1.739.338-3.265 1.013-4.579.675-1.314 1.625-2.338 2.851-3.071 1.233-.734 2.679-1.101 4.337-1.101 1.116 0 2.154.18 3.116.54a6.914 6.914 0 0 1 2.532 1.595c.726.712 1.291 1.608 1.695 2.686.404 1.072.606 2.327.606 3.765v1.288h-14.279V90.84h9.864c0-.675-.147-1.273-.44-1.794a3.158 3.158 0 0 0-1.222-1.222c-.514-.301-1.112-.452-1.795-.452-.711 0-1.343.166-1.893.496-.543.323-.969.76-1.277 1.31a3.698 3.698 0 0 0-.473 1.816v2.763c0 .837.154 1.56.462 2.17a3.39 3.39 0 0 0 1.332 1.408c.572.33 1.251.495 2.037.495.521 0 .998-.073 1.431-.22a2.978 2.978 0 0 0 1.112-.66 2.87 2.87 0 0 0 .704-1.079l4.337.286a5.917 5.917 0 0 1-1.354 2.73c-.675.771-1.548 1.373-2.62 1.806-1.064.425-2.293.638-3.688.638Zm15.512-22.876V101h-4.69V78.454h4.69Zm11.462 22.876c-1.739 0-3.236-.352-4.491-1.057-1.248-.711-2.209-1.717-2.885-3.016-.675-1.306-1.012-2.851-1.012-4.635 0-1.739.337-3.265 1.012-4.579.676-1.314 1.626-2.338 2.852-3.071 1.233-.734 2.678-1.101 4.337-1.101 1.116 0 2.154.18 3.115.54a6.906 6.906 0 0 1 2.532 1.595c.727.712 1.292 1.608 1.696 2.686.403 1.072.605 2.327.605 3.765v1.288h-14.278V90.84h9.864c0-.675-.147-1.273-.441-1.794a3.145 3.145 0 0 0-1.222-1.222c-.513-.301-1.111-.452-1.794-.452-.712 0-1.343.166-1.893.496-.544.323-.969.76-1.277 1.31a3.7 3.7 0 0 0-.474 1.816v2.763c0 .837.154 1.56.463 2.17a3.38 3.38 0 0 0 1.332 1.408c.572.33 1.251.495 2.036.495.521 0 .998-.073 1.431-.22a2.97 2.97 0 0 0 1.112-.66c.308-.294.543-.653.705-1.079l4.337.286a5.917 5.917 0 0 1-1.354 2.73c-.675.771-1.549 1.373-2.62 1.806-1.064.425-2.293.638-3.688.638Zm10.822-.33V84.09h4.469v2.984h.198c.352-.99.94-1.772 1.761-2.345.822-.572 1.806-.858 2.951-.858 1.159 0 2.146.29 2.961.87.815.572 1.358 1.35 1.629 2.333h.176c.345-.968.969-1.743 1.872-2.323.91-.587 1.985-.88 3.225-.88 1.578 0 2.859.503 3.842 1.508.991.998 1.487 2.414 1.487 4.25V101h-4.679V90.553c0-.94-.25-1.644-.749-2.114s-1.123-.704-1.871-.704c-.851 0-1.516.271-1.993.814-.477.536-.715 1.244-.715 2.125V101h-4.547V90.454c0-.83-.238-1.49-.715-1.982-.47-.491-1.09-.737-1.861-.737-.521 0-.991.132-1.409.396-.411.257-.737.62-.98 1.09-.242.462-.363 1.005-.363 1.63V101h-4.689Zm35.981.33c-1.739 0-3.237-.352-4.492-1.057a7.236 7.236 0 0 1-2.884-3.016c-.675-1.306-1.013-2.851-1.013-4.635 0-1.739.338-3.265 1.013-4.579.675-1.314 1.626-2.338 2.851-3.071 1.233-.734 2.679-1.101 4.338-1.101 1.115 0 2.154.18 3.115.54a6.906 6.906 0 0 1 2.532 1.595c.727.712 1.292 1.608 1.695 2.686.404 1.072.606 2.327.606 3.765v1.288h-14.278V90.84h9.863c0-.675-.146-1.273-.44-1.794a3.152 3.152 0 0 0-1.222-1.222c-.514-.301-1.112-.452-1.794-.452-.712 0-1.343.166-1.894.496a3.48 3.48 0 0 0-1.277 1.31 3.698 3.698 0 0 0-.473 1.816v2.763c0 .837.154 1.56.462 2.17a3.39 3.39 0 0 0 1.332 1.408c.573.33 1.252.495 2.037.495.521 0 .998-.073 1.431-.22a2.97 2.97 0 0 0 1.112-.66 2.87 2.87 0 0 0 .704-1.079l4.338.286a5.926 5.926 0 0 1-1.354 2.73c-.675.771-1.549 1.373-2.62 1.806-1.064.425-2.294.638-3.688.638Zm15.511-10.106V101h-4.69V84.09h4.47v2.984h.198a4.719 4.719 0 0 1 1.882-2.334c.881-.58 1.949-.87 3.204-.87 1.174 0 2.198.258 3.071.771.874.514 1.552 1.248 2.037 2.202.484.947.726 2.077.726 3.39V101h-4.689v-9.93c.007-1.034-.257-1.842-.793-2.422-.536-.587-1.273-.88-2.213-.88-.631 0-1.189.135-1.673.407a2.842 2.842 0 0 0-1.123 1.189c-.264.514-.4 1.134-.407 1.86Zm23.588-7.133v3.523h-10.183V84.09h10.183Zm-7.871-4.051h4.69v15.764c0 .433.066.77.198 1.013.132.235.316.4.55.495.243.096.522.143.837.143.22 0 .44-.018.661-.055l.506-.099.738 3.49a13.19 13.19 0 0 1-.991.253 7.927 7.927 0 0 1-1.552.187c-1.131.044-2.121-.106-2.973-.451-.844-.345-1.5-.88-1.97-1.607s-.701-1.644-.694-2.752V80.04Zm24.783 8.873-4.293.264a2.216 2.216 0 0 0-.473-.99 2.51 2.51 0 0 0-.958-.716c-.389-.184-.855-.276-1.398-.276-.727 0-1.34.154-1.839.463-.499.3-.748.704-.748 1.21 0 .404.161.746.484 1.024.323.28.877.503 1.662.672l3.061.616c1.644.338 2.869.881 3.677 1.63.807.748 1.211 1.732 1.211 2.95 0 1.108-.327 2.08-.98 2.917-.646.837-1.534 1.49-2.664 1.96-1.123.462-2.419.693-3.886.693-2.239 0-4.022-.466-5.35-1.398-1.321-.94-2.096-2.216-2.323-3.83l4.612-.243c.14.683.477 1.204 1.013 1.563.536.353 1.222.529 2.059.529.822 0 1.482-.158 1.981-.474.507-.323.763-.737.771-1.244-.008-.425-.187-.774-.54-1.046-.352-.278-.895-.491-1.629-.638l-2.928-.583c-1.651-.33-2.881-.903-3.688-1.718-.8-.814-1.2-1.853-1.2-3.115 0-1.086.294-2.022.881-2.807.594-.786 1.427-1.391 2.499-1.817 1.079-.425 2.341-.638 3.787-.638 2.135 0 3.816.451 5.042 1.354 1.233.903 1.952 2.132 2.157 3.688Z" fill="#fff"/>
  <defs>
    <linearGradient id="b" x1="243" y1="178.5" x2="317" y2="178.5" gradientUnits="userSpaceOnUse">
      <stop stop-color="#F56565" stop-opacity="0"/>
      <stop offset=".499" stop-color="#F56565"/>
      <stop offset="1" stop-color="#F56565" stop-opacity="0"/>
    </linearGradient>
    <linearGradient id="c" x1="190" y1="251.5" x2="264" y2="251.5" gradientUnits="userSpaceOnUse">
      <stop stop-color="#F56565" stop-opacity="0"/>
      <stop offset=".499" stop-color="#F56565"/>
      <stop offset="1" stop-color="#F56565" stop-opacity="0"/>
    </linearGradient>
    <clipPath id="a">
      <rect x="120" y="120" width="240" height="240" rx="8" fill="#fff"/>
    </clipPath>
  </defs>
</svg>
