<svg width="240" height="240" viewBox="0 0 240 240" fill="none" xmlns="http://www.w3.org/2000/svg">
<g clip-path="url(#clip0_1940_24655)">
<path d="M0 10H240" stroke="#D8D8D9" stroke-width="0.5"/>
<path d="M10 0V240" stroke="#D8D8D9" stroke-width="0.5"/>
<path d="M0 20H240" stroke="#D8D8D9" stroke-width="0.5"/>
<path d="M20 0V240" stroke="#D8D8D9" stroke-width="0.5"/>
<path d="M0 30H240" stroke="#D8D8D9" stroke-width="0.5"/>
<path d="M30 0V240" stroke="#D8D8D9" stroke-width="0.5"/>
<path d="M0 40H240" stroke="#D8D8D9" stroke-width="0.5"/>
<path d="M40 0V240" stroke="#D8D8D9" stroke-width="0.5"/>
<path d="M0 50H240" stroke="#D8D8D9" stroke-width="0.5"/>
<path d="M50 0V240" stroke="#D8D8D9" stroke-width="0.5"/>
<path d="M0 60H240" stroke="#D8D8D9" stroke-width="0.5"/>
<path d="M60 0V240" stroke="#D8D8D9" stroke-width="0.5"/>
<path d="M0 70H240" stroke="#D8D8D9" stroke-width="0.5"/>
<path d="M70 0V240" stroke="#D8D8D9" stroke-width="0.5"/>
<path d="M0 80H240" stroke="#D8D8D9" stroke-width="0.5"/>
<path d="M80 0V240" stroke="#D8D8D9" stroke-width="0.5"/>
<path d="M0 90H240" stroke="#D8D8D9" stroke-width="0.5"/>
<path d="M90 0V240" stroke="#D8D8D9" stroke-width="0.5"/>
<path d="M0 100H240" stroke="#D8D8D9" stroke-width="0.5"/>
<path d="M100 0V240" stroke="#D8D8D9" stroke-width="0.5"/>
<path d="M0 110H240" stroke="#D8D8D9" stroke-width="0.5"/>
<path d="M110 0V240" stroke="#D8D8D9" stroke-width="0.5"/>
<path d="M0 120H240" stroke="#D8D8D9" stroke-width="0.5"/>
<path d="M120 0V240" stroke="#D8D8D9" stroke-width="0.5"/>
<path d="M0 130H240" stroke="#D8D8D9" stroke-width="0.5"/>
<path d="M130 0V240" stroke="#D8D8D9" stroke-width="0.5"/>
<path d="M0 140H240" stroke="#D8D8D9" stroke-width="0.5"/>
<path d="M140 0V240" stroke="#D8D8D9" stroke-width="0.5"/>
<path d="M0 150H240" stroke="#D8D8D9" stroke-width="0.5"/>
<path d="M150 0V240" stroke="#D8D8D9" stroke-width="0.5"/>
<path d="M0 160H240" stroke="#D8D8D9" stroke-width="0.5"/>
<path d="M160 0V240" stroke="#D8D8D9" stroke-width="0.5"/>
<path d="M0 170H240" stroke="#D8D8D9" stroke-width="0.5"/>
<path d="M170 0V240" stroke="#D8D8D9" stroke-width="0.5"/>
<path d="M0 180H240" stroke="#D8D8D9" stroke-width="0.5"/>
<path d="M180 0V240" stroke="#D8D8D9" stroke-width="0.5"/>
<path d="M0 190H240" stroke="#D8D8D9" stroke-width="0.5"/>
<path d="M190 0V240" stroke="#D8D8D9" stroke-width="0.5"/>
<path d="M0 200H240" stroke="#D8D8D9" stroke-width="0.5"/>
<path d="M200 0V240" stroke="#D8D8D9" stroke-width="0.5"/>
<path d="M0 210H240" stroke="#D8D8D9" stroke-width="0.5"/>
<path d="M210 0V240" stroke="#D8D8D9" stroke-width="0.5"/>
<path d="M0 220H240" stroke="#D8D8D9" stroke-width="0.5"/>
<path d="M220 0V240" stroke="#D8D8D9" stroke-width="0.5"/>
<path d="M0 230H240" stroke="#D8D8D9" stroke-width="0.5"/>
<path d="M230 0V240" stroke="#D8D8D9" stroke-width="0.5"/>
<g clip-path="url(#clip1_1940_24655)">
<path d="M160 80.0001L20 220M174.88 150H90M140.86 184.12C139.003 185.983 136.796 187.462 134.366 188.471C131.936 189.48 129.331 190 126.7 190H50V113.28C50.0011 107.976 52.109 102.89 55.86 99.1401L117.5 37.5001C128.758 26.2417 144.028 19.9167 159.95 19.9167C175.872 19.9167 191.142 26.2417 202.4 37.5001C213.658 48.7586 219.983 64.0283 219.983 79.9501C219.983 95.872 213.658 111.142 202.4 122.4L140.86 184.12Z" stroke="black" stroke-width="20" stroke-linecap="round" stroke-linejoin="round"/>
<path d="M160 80.0001L20 220M174.88 150H90M140.86 184.12C139.003 185.983 136.796 187.462 134.366 188.471C131.936 189.48 129.331 190 126.7 190H50V113.28C50.0011 107.976 52.109 102.89 55.86 99.1401L117.5 37.5001C128.758 26.2417 144.028 19.9167 159.95 19.9167C175.872 19.9167 191.142 26.2417 202.4 37.5001C213.658 48.7586 219.983 64.0283 219.983 79.9501C219.983 95.872 213.658 111.142 202.4 122.4L140.86 184.12Z" stroke="#41B883" stroke-linecap="round" stroke-linejoin="round"/>
</g>
</g>
<circle opacity="0.5" cx="50" cy="190" r="30" stroke="#41B883" stroke-dasharray="1 1"/>
<defs>
<clipPath id="clip0_1940_24655">
<rect width="240" height="240" fill="white"/>
</clipPath>
<clipPath id="clip1_1940_24655">
<rect width="240" height="240" fill="white"/>
</clipPath>
</defs>
</svg>
