<svg width="480" height="480" fill="none" xmlns="http://www.w3.org/2000/svg">
  <path fill="#3C3C43" d="M0 0h480v480H0z"/>
  <g clip-path="url(#a)">
    <rect x="120" y="120" width="240" height="240" rx="8" fill="#F5F5F5"/>
    <path d="M120 130h240" stroke="#D8D8D9" stroke-width=".5"/>
    <path d="M130 120v240" stroke="#D8D8D9" stroke-width=".5"/>
    <path d="M120 140h240" stroke="#D8D8D9" stroke-width=".5"/>
    <path d="M140 120v240" stroke="#D8D8D9" stroke-width=".5"/>
    <path d="M120 150h240" stroke="#D8D8D9" stroke-width=".5"/>
    <path d="M150 120v240" stroke="#D8D8D9" stroke-width=".5"/>
    <path d="M120 160h240" stroke="#D8D8D9" stroke-width=".5"/>
    <path d="M160 120v240" stroke="#D8D8D9" stroke-width=".5"/>
    <path d="M120 170h240" stroke="#D8D8D9" stroke-width=".5"/>
    <path d="M170 120v240" stroke="#D8D8D9" stroke-width=".5"/>
    <path d="M120 180h240" stroke="#D8D8D9" stroke-width=".5"/>
    <path d="M180 120v240" stroke="#D8D8D9" stroke-width=".5"/>
    <path d="M120 190h240" stroke="#D8D8D9" stroke-width=".5"/>
    <path d="M190 120v240" stroke="#D8D8D9" stroke-width=".5"/>
    <path d="M120 200h240" stroke="#D8D8D9" stroke-width=".5"/>
    <path d="M200 120v240" stroke="#D8D8D9" stroke-width=".5"/>
    <path d="M120 210h240" stroke="#D8D8D9" stroke-width=".5"/>
    <path d="M210 120v240" stroke="#D8D8D9" stroke-width=".5"/>
    <path d="M120 220h240" stroke="#D8D8D9" stroke-width=".5"/>
    <path d="M220 120v240" stroke="#D8D8D9" stroke-width=".5"/>
    <path d="M120 230h240" stroke="#D8D8D9" stroke-width=".5"/>
    <path d="M230 120v240" stroke="#D8D8D9" stroke-width=".5"/>
    <path d="M120 240h240" stroke="#D8D8D9" stroke-width=".5"/>
    <path d="M240 120v240" stroke="#D8D8D9" stroke-width=".5"/>
    <path d="M120 250h240" stroke="#D8D8D9" stroke-width=".5"/>
    <path d="M250 120v240" stroke="#D8D8D9" stroke-width=".5"/>
    <path d="M120 260h240" stroke="#D8D8D9" stroke-width=".5"/>
    <path d="M260 120v240" stroke="#D8D8D9" stroke-width=".5"/>
    <path d="M120 270h240" stroke="#D8D8D9" stroke-width=".5"/>
    <path d="M270 120v240" stroke="#D8D8D9" stroke-width=".5"/>
    <path d="M120 280h240" stroke="#D8D8D9" stroke-width=".5"/>
    <path d="M280 120v240" stroke="#D8D8D9" stroke-width=".5"/>
    <path d="M120 290h240" stroke="#D8D8D9" stroke-width=".5"/>
    <path d="M290 120v240" stroke="#D8D8D9" stroke-width=".5"/>
    <path d="M120 300h240" stroke="#D8D8D9" stroke-width=".5"/>
    <path d="M300 120v240" stroke="#D8D8D9" stroke-width=".5"/>
    <path d="M120 310h240" stroke="#D8D8D9" stroke-width=".5"/>
    <path d="M310 120v240" stroke="#D8D8D9" stroke-width=".5"/>
    <path d="M120 320h240" stroke="#D8D8D9" stroke-width=".5"/>
    <path d="M320 120v240" stroke="#D8D8D9" stroke-width=".5"/>
    <path d="M120 330h240" stroke="#D8D8D9" stroke-width=".5"/>
    <path d="M330 120v240" stroke="#D8D8D9" stroke-width=".5"/>
    <path d="M120 340h240" stroke="#D8D8D9" stroke-width=".5"/>
    <path d="M340 120v240" stroke="#D8D8D9" stroke-width=".5"/>
    <path d="M120 350h240" stroke="#D8D8D9" stroke-width=".5"/>
    <path d="M350 120v240" stroke="#D8D8D9" stroke-width=".5"/>
  </g>
<g id="embed-lucide-monitor" stroke="#3C3C43" stroke-width="2" stroke-linecap="round" stroke-linejoin="round" transform="translate(120 120), scale(10)">
  <rect width="20" height="14" x="2" y="3" rx="2" />
  <line x1="8" x2="16" y1="21" y2="21" />
  <line x1="12" x2="12" y1="17" y2="21" />
</g>
<g id="embed-lucide-monitor" stroke="#F56565" stroke-linecap="round" stroke-width=".1" stroke-linejoin="round" transform="translate(120 120), scale(10)">
  <rect width="20" height="14" x="2" y="3" rx="2" />
  <line x1="8" x2="16" y1="21" y2="21" />
  <line x1="12" x2="12" y1="17" y2="21" />
</g>
  <path d="M150.275 86.33c-1.732 0-3.222-.367-4.47-1.1a7.444 7.444 0 0 1-2.862-3.083c-.661-1.314-.991-2.826-.991-4.535 0-1.733.334-3.252 1.002-4.558.675-1.314 1.633-2.338 2.873-3.071 1.24-.742 2.716-1.112 4.426-1.112 1.475 0 2.766.268 3.875.803 1.108.536 1.985 1.288 2.631 2.257.645.969 1.001 2.106 1.067 3.413h-4.425c-.125-.844-.455-1.523-.991-2.037-.528-.52-1.222-.781-2.08-.781-.727 0-1.362.198-1.905.594-.536.389-.954.958-1.255 1.706-.301.749-.451 1.655-.451 2.72 0 1.078.147 1.996.44 2.752.301.755.723 1.332 1.266 1.728.543.396 1.178.594 1.905.594.535 0 1.016-.11 1.442-.33.433-.22.789-.54 1.068-.958.286-.425.473-.935.561-1.53h4.425c-.073 1.292-.425 2.43-1.056 3.413-.624.976-1.487 1.74-2.587 2.29-1.101.55-2.404.825-3.908.825Zm18.26 0c-1.739 0-3.237-.352-4.492-1.057a7.24 7.24 0 0 1-2.884-3.016c-.675-1.306-1.013-2.851-1.013-4.635 0-1.739.338-3.265 1.013-4.579.675-1.314 1.626-2.338 2.851-3.071 1.233-.734 2.679-1.101 4.338-1.101 1.115 0 2.154.18 3.115.54a6.906 6.906 0 0 1 2.532 1.595c.727.712 1.292 1.608 1.695 2.686.404 1.072.606 2.327.606 3.765v1.288h-14.278V75.84h9.864c0-.675-.147-1.273-.441-1.794a3.152 3.152 0 0 0-1.222-1.222c-.513-.301-1.112-.452-1.794-.452-.712 0-1.343.166-1.894.496a3.48 3.48 0 0 0-1.277 1.31 3.698 3.698 0 0 0-.473 1.816v2.763c0 .837.154 1.56.462 2.17a3.39 3.39 0 0 0 1.332 1.408c.573.33 1.252.495 2.037.495.521 0 .998-.073 1.431-.22a2.97 2.97 0 0 0 1.112-.66c.308-.294.543-.653.705-1.079l4.337.286a5.926 5.926 0 0 1-1.354 2.73c-.675.771-1.549 1.373-2.62 1.806-1.064.425-2.294.638-3.688.638Zm15.511-10.106V86h-4.69V69.09h4.47v2.984h.198a4.719 4.719 0 0 1 1.882-2.334c.881-.58 1.949-.87 3.204-.87 1.174 0 2.198.258 3.071.771.874.514 1.552 1.248 2.037 2.202.484.947.726 2.077.726 3.39V86h-4.689v-9.93c.007-1.034-.257-1.842-.793-2.422-.536-.587-1.273-.88-2.213-.88-.631 0-1.188.135-1.673.407a2.842 2.842 0 0 0-1.123 1.189c-.264.514-.4 1.134-.407 1.86Zm23.588-7.133v3.523h-10.182V69.09h10.182Zm-7.871-4.051h4.69v15.764c0 .433.066.77.198 1.013.132.235.316.4.551.495.242.096.521.143.836.143.22 0 .441-.018.661-.055l.506-.099.738 3.49a13.19 13.19 0 0 1-.991.253 7.94 7.94 0 0 1-1.552.187c-1.13.044-2.121-.106-2.973-.451-.844-.345-1.5-.88-1.97-1.607s-.701-1.644-.694-2.752V65.04ZM210.689 86V69.09h4.547v2.951h.176c.308-1.05.826-1.842 1.552-2.378.727-.543 1.563-.814 2.51-.814a6.941 6.941 0 0 1 1.475.164v4.162a6.105 6.105 0 0 0-.913-.176 8.222 8.222 0 0 0-1.068-.077c-.69 0-1.307.15-1.85.451a3.332 3.332 0 0 0-1.277 1.233c-.308.529-.462 1.138-.462 1.828V86h-4.69Zm19.604.33c-1.74 0-3.237-.352-4.492-1.057a7.24 7.24 0 0 1-2.884-3.016c-.675-1.306-1.013-2.851-1.013-4.635 0-1.739.338-3.265 1.013-4.579.675-1.314 1.626-2.338 2.851-3.071 1.233-.734 2.679-1.101 4.338-1.101 1.115 0 2.154.18 3.115.54a6.906 6.906 0 0 1 2.532 1.595c.727.712 1.292 1.608 1.695 2.686.404 1.072.606 2.327.606 3.765v1.288h-14.278V75.84h9.863c0-.675-.146-1.273-.44-1.794a3.158 3.158 0 0 0-1.222-1.222c-.514-.301-1.112-.452-1.794-.452-.712 0-1.343.166-1.894.496-.543.323-.969.76-1.277 1.31a3.698 3.698 0 0 0-.473 1.816v2.763c0 .837.154 1.56.462 2.17a3.39 3.39 0 0 0 1.332 1.408c.573.33 1.252.495 2.037.495.521 0 .998-.073 1.431-.22a2.97 2.97 0 0 0 1.112-.66 2.87 2.87 0 0 0 .704-1.079l4.338.286a5.926 5.926 0 0 1-1.354 2.73c-.676.771-1.549 1.373-2.62 1.806-1.065.425-2.294.638-3.688.638Zm17.052-.055c-1.284 0-2.448-.33-3.49-.99-1.035-.668-1.857-1.648-2.466-2.94-.601-1.299-.902-2.891-.902-4.778 0-1.937.312-3.548.935-4.832.624-1.292 1.453-2.257 2.488-2.895a6.377 6.377 0 0 1 3.424-.97c.947 0 1.736.162 2.367.485.638.316 1.152.712 1.541 1.189.396.47.697.932.903 1.387h.143v-8.476h4.678V86h-4.623v-2.708h-.198c-.221.47-.532.936-.936 1.398-.396.455-.914.833-1.552 1.134-.631.3-1.402.451-2.312.451Zm1.486-3.732c.756 0 1.395-.205 1.916-.616.528-.419.932-1.002 1.211-1.75.286-.75.429-1.626.429-2.632 0-1.005-.14-1.878-.418-2.62-.279-.74-.683-1.313-1.211-1.717-.529-.403-1.171-.605-1.927-.605-.77 0-1.42.209-1.948.627-.529.418-.929.998-1.2 1.74-.272.74-.408 1.6-.408 2.576 0 .983.136 1.853.408 2.608.279.75.679 1.336 1.2 1.762.528.418 1.178.627 1.948.627Zm23.856-19.089V86h-4.69V63.455h4.69ZM276.443 86V69.09h4.69V86h-4.69Zm2.356-19.089a2.548 2.548 0 0 1-1.794-.693c-.492-.47-.738-1.031-.738-1.685 0-.645.246-1.2.738-1.662a2.526 2.526 0 0 1 1.794-.705c.697 0 1.292.235 1.783.705.499.462.749 1.017.749 1.662 0 .654-.25 1.215-.749 1.685-.491.462-1.086.693-1.783.693Zm10.78 9.313V86h-4.689V69.09h4.469v2.984h.198a4.715 4.715 0 0 1 1.883-2.334c.88-.58 1.948-.87 3.203-.87 1.174 0 2.198.258 3.071.771.874.514 1.553 1.248 2.037 2.202.484.947.727 2.077.727 3.39V86h-4.69v-9.93c.007-1.034-.257-1.842-.793-2.422-.535-.587-1.273-.88-2.212-.88-.632 0-1.189.135-1.674.407a2.842 2.842 0 0 0-1.123 1.189c-.264.514-.4 1.134-.407 1.86ZM311.88 86.33c-1.74 0-3.237-.352-4.492-1.057a7.24 7.24 0 0 1-2.884-3.016c-.675-1.306-1.013-2.851-1.013-4.635 0-1.739.338-3.265 1.013-4.579.675-1.314 1.626-2.338 2.851-3.071 1.233-.734 2.679-1.101 4.338-1.101 1.115 0 2.154.18 3.115.54a6.906 6.906 0 0 1 2.532 1.595c.726.712 1.292 1.608 1.695 2.686.404 1.072.606 2.327.606 3.765v1.288h-14.278V75.84h9.863c0-.675-.147-1.273-.44-1.794a3.158 3.158 0 0 0-1.222-1.222c-.514-.301-1.112-.452-1.794-.452-.712 0-1.343.166-1.894.496-.543.323-.969.76-1.277 1.31a3.698 3.698 0 0 0-.473 1.816v2.763c0 .837.154 1.56.462 2.17a3.39 3.39 0 0 0 1.332 1.408c.573.33 1.251.495 2.037.495.521 0 .998-.073 1.431-.22a2.978 2.978 0 0 0 1.112-.66 2.87 2.87 0 0 0 .704-1.079l4.338.286a5.936 5.936 0 0 1-1.354 2.73c-.676.771-1.549 1.373-2.62 1.806-1.065.425-2.294.638-3.688.638Zm24.89-12.417-4.293.264a2.229 2.229 0 0 0-.474-.99 2.495 2.495 0 0 0-.958-.716c-.388-.184-.854-.276-1.398-.276-.726 0-1.339.154-1.838.463-.499.3-.749.704-.749 1.21 0 .404.162.746.485 1.024.323.28.877.503 1.662.672l3.06.616c1.644.338 2.87.881 3.677 1.63.808.748 1.211 1.732 1.211 2.95 0 1.108-.326 2.08-.98 2.917-.645.837-1.533 1.49-2.664 1.96-1.122.462-2.418.693-3.886.693-2.238 0-4.021-.466-5.35-1.398-1.321-.94-2.095-2.216-2.323-3.83l4.613-.243c.139.683.477 1.204 1.013 1.563.536.353 1.222.529 2.058.529.822 0 1.483-.158 1.982-.474.506-.323.763-.737.771-1.244-.008-.425-.188-.774-.54-1.046-.352-.278-.895-.491-1.629-.638l-2.928-.583c-1.652-.33-2.881-.903-3.688-1.718-.8-.814-1.2-1.853-1.2-3.115 0-1.086.293-2.022.88-2.807.595-.786 1.428-1.391 2.499-1.817 1.079-.425 2.342-.638 3.787-.638 2.136 0 3.817.451 5.042 1.354 1.233.903 1.952 2.132 2.158 3.688Z" fill="#fff"/>
  <path opacity=".5" d="M160 150h-58" stroke="#F56565" stroke-dasharray="1 1"/>
  <path opacity=".5" d="M160 290h-58" stroke="#F56565" stroke-dasharray="1 1"/>
  <path opacity=".5" d="M378 150h-58" stroke="#F56565" stroke-dasharray="1 1"/>
  <path opacity=".5" d="M378 290h-58" stroke="#F56565" stroke-dasharray="1 1"/>
  <path opacity=".5" d="M340 170V98" stroke="#F56565" stroke-dasharray="1 1"/>
  <path opacity=".5" d="M140 170V98" stroke="#F56565" stroke-dasharray="1 1"/>
  <path opacity=".5" d="M340 382V270" stroke="#F56565" stroke-dasharray="1 1"/>
  <path opacity=".5" d="M240 382v-92" stroke="#F56565" stroke-dasharray="1 1"/>
  <path opacity=".5" d="M378 330H102" stroke="#F56565" stroke-dasharray="1 1"/>
  <path opacity=".5" d="M140 382V270" stroke="#F56565" stroke-dasharray="1 1"/>
  <defs>
    <clipPath id="a">
      <rect x="120" y="120" width="240" height="240" rx="8" fill="#fff"/>
    </clipPath>
  </defs>
</svg>
