<svg width="480" height="480" viewBox="0 0 480 480" fill="none" xmlns="http://www.w3.org/2000/svg">
<rect width="480" height="480" fill="#3C3C43"/>
<path d="M197 392.5L185 404.5" stroke="#F45F7A" stroke-width="3" stroke-linecap="round" stroke-linejoin="round"/>
<path d="M185 392.5L197 404.5" stroke="#F45F7A" stroke-width="3" stroke-linecap="round" stroke-linejoin="round"/>
<path d="M221.071 410H213.079V387.455H221.137C223.405 387.455 225.357 387.906 226.994 388.809C228.631 389.704 229.889 390.992 230.77 392.673C231.658 394.353 232.102 396.364 232.102 398.705C232.102 401.054 231.658 403.072 230.77 404.76C229.889 406.448 228.623 407.743 226.972 408.646C225.328 409.549 223.361 410 221.071 410ZM217.846 405.916H220.873C222.282 405.916 223.468 405.666 224.429 405.167C225.398 404.661 226.124 403.879 226.609 402.822C227.1 401.758 227.346 400.386 227.346 398.705C227.346 397.039 227.1 395.678 226.609 394.621C226.124 393.564 225.401 392.786 224.44 392.287C223.479 391.788 222.293 391.539 220.884 391.539H217.846V405.916ZM243.185 410.33C241.475 410.33 239.996 409.967 238.748 409.24C237.508 408.507 236.55 407.486 235.875 406.18C235.2 404.866 234.862 403.344 234.862 401.612C234.862 399.865 235.2 398.338 235.875 397.032C236.55 395.718 237.508 394.698 238.748 393.972C239.996 393.238 241.475 392.871 243.185 392.871C244.895 392.871 246.37 393.238 247.61 393.972C248.858 394.698 249.819 395.718 250.494 397.032C251.17 398.338 251.507 399.865 251.507 401.612C251.507 403.344 251.17 404.866 250.494 406.18C249.819 407.486 248.858 408.507 247.61 409.24C246.37 409.967 244.895 410.33 243.185 410.33ZM243.207 406.697C243.985 406.697 244.634 406.477 245.155 406.037C245.676 405.589 246.069 404.98 246.333 404.21C246.605 403.439 246.74 402.562 246.74 401.578C246.74 400.595 246.605 399.718 246.333 398.947C246.069 398.177 245.676 397.568 245.155 397.12C244.634 396.672 243.985 396.449 243.207 396.449C242.421 396.449 241.761 396.672 241.225 397.12C240.697 397.568 240.297 398.177 240.025 398.947C239.761 399.718 239.629 400.595 239.629 401.578C239.629 402.562 239.761 403.439 240.025 404.21C240.297 404.98 240.697 405.589 241.225 406.037C241.761 406.477 242.421 406.697 243.207 406.697ZM259.246 400.224V410H254.557V393.091H259.026V396.074H259.224C259.598 395.091 260.226 394.313 261.107 393.74C261.987 393.161 263.055 392.871 264.31 392.871C265.484 392.871 266.508 393.128 267.381 393.641C268.255 394.155 268.934 394.889 269.418 395.843C269.902 396.79 270.145 397.92 270.145 399.234V410H265.455V400.07C265.462 399.036 265.198 398.228 264.662 397.648C264.127 397.061 263.389 396.768 262.45 396.768C261.818 396.768 261.261 396.904 260.776 397.175C260.299 397.447 259.925 397.843 259.653 398.364C259.389 398.878 259.253 399.498 259.246 400.224ZM277.771 387.455V389.832C277.771 390.508 277.639 391.197 277.374 391.902C277.118 392.599 276.773 393.26 276.34 393.884C275.907 394.5 275.433 395.025 274.92 395.458L272.85 394.236C273.217 393.656 273.54 393.014 273.819 392.309C274.105 391.605 274.248 390.786 274.248 389.854V387.455H277.771ZM290.464 393.091V396.614H280.281V393.091H290.464ZM282.592 389.04H287.282V404.804C287.282 405.237 287.348 405.575 287.48 405.817C287.612 406.052 287.796 406.217 288.031 406.312C288.273 406.408 288.552 406.455 288.867 406.455C289.087 406.455 289.308 406.437 289.528 406.4C289.748 406.356 289.917 406.323 290.034 406.301L290.772 409.791C290.537 409.864 290.207 409.949 289.781 410.044C289.355 410.147 288.838 410.209 288.229 410.231C287.099 410.275 286.108 410.125 285.257 409.78C284.413 409.435 283.756 408.899 283.286 408.173C282.816 407.446 282.585 406.529 282.592 405.42V389.04ZM296.26 410.286C295.533 410.286 294.909 410.029 294.388 409.516C293.874 408.995 293.617 408.371 293.617 407.644C293.617 406.925 293.874 406.308 294.388 405.795C294.909 405.281 295.533 405.024 296.26 405.024C296.964 405.024 297.581 405.281 298.109 405.795C298.637 406.308 298.902 406.925 298.902 407.644C298.902 408.129 298.777 408.573 298.527 408.976C298.285 409.373 297.966 409.692 297.57 409.934C297.173 410.169 296.737 410.286 296.26 410.286Z" fill="#F45F7A"/>
<path d="M121.033 63.4545H125.799V78.0959C125.799 79.7398 125.407 81.1783 124.622 82.4112C123.844 83.6442 122.754 84.6056 121.352 85.2955C119.95 85.978 118.317 86.3192 116.453 86.3192C114.582 86.3192 112.945 85.978 111.543 85.2955C110.142 84.6056 109.052 83.6442 108.274 82.4112C107.496 81.1783 107.107 79.7398 107.107 78.0959V63.4545H111.874V77.6886C111.874 78.5472 112.061 79.3105 112.435 79.9783C112.817 80.6462 113.352 81.1709 114.042 81.5526C114.732 81.9342 115.536 82.125 116.453 82.125C117.378 82.125 118.182 81.9342 118.864 81.5526C119.554 81.1709 120.086 80.6462 120.46 79.9783C120.842 79.3105 121.033 78.5472 121.033 77.6886V63.4545ZM134.323 76.2244V86H129.633V69.0909H134.103V72.0742H134.301C134.675 71.0908 135.303 70.3129 136.183 69.7404C137.064 69.1606 138.132 68.8707 139.387 68.8707C140.561 68.8707 141.585 69.1276 142.458 69.6413C143.331 70.1551 144.01 70.889 144.495 71.843C144.979 72.7898 145.221 73.92 145.221 75.2337V86H140.532V76.0703C140.539 75.0355 140.275 74.2282 139.739 73.6484C139.203 73.0613 138.466 72.7678 137.526 72.7678C136.895 72.7678 136.337 72.9035 135.853 73.1751C135.376 73.4466 135.002 73.8429 134.73 74.364C134.466 74.8777 134.33 75.4979 134.323 76.2244ZM156.623 86.3303C154.884 86.3303 153.387 85.978 152.132 85.2734C150.884 84.5616 149.923 83.5561 149.248 82.2571C148.572 80.9508 148.235 79.4059 148.235 77.6225C148.235 75.8832 148.572 74.3567 149.248 73.043C149.923 71.7293 150.873 70.7055 152.099 69.9716C153.332 69.2377 154.778 68.8707 156.436 68.8707C157.552 68.8707 158.59 69.0505 159.552 69.4102C160.52 69.7624 161.364 70.2945 162.084 71.0064C162.81 71.7183 163.375 72.6136 163.779 73.6925C164.182 74.764 164.384 76.0189 164.384 77.4574V78.7454H150.106V75.8391H159.97C159.97 75.1639 159.823 74.5658 159.53 74.0447C159.236 73.5237 158.829 73.1164 158.308 72.8228C157.794 72.5219 157.196 72.3714 156.513 72.3714C155.801 72.3714 155.17 72.5366 154.62 72.8668C154.077 73.1897 153.651 73.6264 153.343 74.1768C153.035 74.7199 152.877 75.3254 152.869 75.9933V78.7564C152.869 79.593 153.024 80.3159 153.332 80.9251C153.647 81.5342 154.091 82.0039 154.664 82.3342C155.236 82.6644 155.915 82.8295 156.7 82.8295C157.221 82.8295 157.698 82.7562 158.131 82.6094C158.564 82.4626 158.935 82.2424 159.243 81.9489C159.552 81.6553 159.786 81.2957 159.948 80.87L164.285 81.1562C164.065 82.1984 163.614 83.1084 162.931 83.8864C162.256 84.657 161.383 85.2588 160.311 85.6918C159.247 86.1174 158.018 86.3303 156.623 86.3303ZM182.755 69.0909L176.843 86H171.559L165.648 69.0909H170.601L174.113 81.1893H174.289L177.79 69.0909H182.755ZM192.316 86.3303C190.576 86.3303 189.079 85.978 187.824 85.2734C186.577 84.5616 185.615 83.5561 184.94 82.2571C184.265 80.9508 183.927 79.4059 183.927 77.6225C183.927 75.8832 184.265 74.3567 184.94 73.043C185.615 71.7293 186.566 70.7055 187.791 69.9716C189.024 69.2377 190.47 68.8707 192.129 68.8707C193.244 68.8707 194.283 69.0505 195.244 69.4102C196.213 69.7624 197.057 70.2945 197.776 71.0064C198.502 71.7183 199.068 72.6136 199.471 73.6925C199.875 74.764 200.077 76.0189 200.077 77.4574V78.7454H185.799V75.8391H195.662C195.662 75.1639 195.516 74.5658 195.222 74.0447C194.928 73.5237 194.521 73.1164 194 72.8228C193.486 72.5219 192.888 72.3714 192.206 72.3714C191.494 72.3714 190.863 72.5366 190.312 72.8668C189.769 73.1897 189.343 73.6264 189.035 74.1768C188.727 74.7199 188.569 75.3254 188.562 75.9933V78.7564C188.562 79.593 188.716 80.3159 189.024 80.9251C189.34 81.5342 189.784 82.0039 190.356 82.3342C190.929 82.6644 191.607 82.8295 192.393 82.8295C192.914 82.8295 193.391 82.7562 193.824 82.6094C194.257 82.4626 194.627 82.2424 194.936 81.9489C195.244 81.6553 195.479 81.2957 195.64 80.87L199.978 81.1562C199.757 82.1984 199.306 83.1084 198.624 83.8864C197.948 84.657 197.075 85.2588 196.004 85.6918C194.939 86.1174 193.71 86.3303 192.316 86.3303ZM207.827 76.2244V86H203.137V69.0909H207.607V72.0742H207.805C208.179 71.0908 208.806 70.3129 209.687 69.7404C210.568 69.1606 211.636 68.8707 212.891 68.8707C214.065 68.8707 215.089 69.1276 215.962 69.6413C216.835 70.1551 217.514 70.889 217.999 71.843C218.483 72.7898 218.725 73.92 218.725 75.2337V86H214.036V76.0703C214.043 75.0355 213.779 74.2282 213.243 73.6484C212.707 73.0613 211.97 72.7678 211.03 72.7678C210.399 72.7678 209.841 72.9035 209.357 73.1751C208.88 73.4466 208.506 73.8429 208.234 74.364C207.97 74.8777 207.834 75.4979 207.827 76.2244ZM237.236 86.3303C235.504 86.3303 234.014 85.9633 232.767 85.2294C231.526 84.4882 230.572 83.4607 229.904 82.147C229.244 80.8333 228.914 79.3215 228.914 77.6115C228.914 75.8795 229.247 74.3603 229.915 73.054C230.59 71.7403 231.548 70.7165 232.789 69.9826C234.029 69.2414 235.504 68.8707 237.214 68.8707C238.689 68.8707 239.981 69.1386 241.089 69.6744C242.197 70.2101 243.074 70.9624 243.72 71.9311C244.366 72.8999 244.722 74.0374 244.788 75.3438H240.362C240.238 74.4998 239.907 73.8209 239.372 73.3072C238.843 72.7861 238.15 72.5256 237.291 72.5256C236.564 72.5256 235.93 72.7237 235.387 73.12C234.851 73.509 234.432 74.0778 234.132 74.8263C233.831 75.5749 233.68 76.4813 233.68 77.5455C233.68 78.6243 233.827 79.5417 234.121 80.2976C234.421 81.0535 234.843 81.6296 235.387 82.0259C235.93 82.4222 236.564 82.6204 237.291 82.6204C237.827 82.6204 238.307 82.5103 238.733 82.2901C239.166 82.07 239.522 81.7507 239.801 81.3324C240.087 80.9067 240.274 80.3967 240.362 79.8022H244.788C244.714 81.0939 244.362 82.2314 243.731 83.2148C243.107 84.1909 242.245 84.9542 241.144 85.5046C240.043 86.055 238.74 86.3303 237.236 86.3303ZM258.634 78.8004V69.0909H263.323V86H258.821V82.9286H258.645C258.263 83.9194 257.628 84.7157 256.74 85.3175C255.86 85.9193 254.784 86.2202 253.515 86.2202C252.385 86.2202 251.39 85.9633 250.532 85.4496C249.673 84.9358 249.001 84.2056 248.517 83.2589C248.04 82.3121 247.798 81.1783 247.79 79.8572V69.0909H252.48V79.0206C252.487 80.0187 252.755 80.8076 253.284 81.3874C253.812 81.9672 254.52 82.2571 255.408 82.2571C255.973 82.2571 256.502 82.1287 256.994 81.8718C257.485 81.6076 257.882 81.2186 258.182 80.7049C258.491 80.1912 258.641 79.5563 258.634 78.8004ZM267.075 86V69.0909H271.621V72.0412H271.797C272.105 70.9917 272.623 70.1991 273.349 69.6634C274.076 69.1203 274.913 68.8487 275.859 68.8487C276.094 68.8487 276.347 68.8634 276.619 68.8928C276.891 68.9221 277.129 68.9625 277.335 69.0138V73.1751C277.114 73.109 276.81 73.0503 276.421 72.9989C276.032 72.9476 275.676 72.9219 275.353 72.9219C274.663 72.9219 274.047 73.0723 273.504 73.3732C272.968 73.6668 272.542 74.0778 272.227 74.6062C271.918 75.1346 271.764 75.7437 271.764 76.4336V86H267.075ZM296.038 69.0909L290.126 86H284.842L278.931 69.0909H283.885L287.396 81.1893H287.572L291.073 69.0909H296.038ZM302.805 86.3192C301.727 86.3192 300.765 86.1321 299.921 85.7578C299.077 85.3762 298.409 84.8147 297.918 84.0735C297.433 83.3249 297.191 82.3929 297.191 81.2773C297.191 80.3379 297.364 79.549 297.709 78.9105C298.053 78.272 298.523 77.7583 299.118 77.3693C299.712 76.9804 300.387 76.6868 301.143 76.4886C301.906 76.2905 302.706 76.151 303.543 76.0703C304.526 75.9676 305.319 75.8722 305.921 75.7841C306.523 75.6887 306.959 75.5492 307.231 75.3658C307.502 75.1823 307.638 74.9107 307.638 74.5511V74.4851C307.638 73.7879 307.418 73.2485 306.978 72.8668C306.545 72.4852 305.928 72.2944 305.128 72.2944C304.284 72.2944 303.613 72.4815 303.114 72.8558C302.615 73.2228 302.284 73.6851 302.123 74.2429L297.786 73.8906C298.006 72.8632 298.439 71.9751 299.085 71.2266C299.73 70.4706 300.563 69.8909 301.584 69.4872C302.611 69.0762 303.8 68.8707 305.15 68.8707C306.09 68.8707 306.989 68.9808 307.847 69.201C308.713 69.4212 309.48 69.7624 310.148 70.2248C310.823 70.6871 311.355 71.2816 311.744 72.0082C312.133 72.7274 312.328 73.5897 312.328 74.5952V86H307.88V83.6552H307.748C307.477 84.1836 307.113 84.6496 306.658 85.0533C306.203 85.4496 305.657 85.7615 305.018 85.989C304.38 86.2092 303.642 86.3192 302.805 86.3192ZM304.149 83.0827C304.838 83.0827 305.448 82.947 305.976 82.6754C306.504 82.3965 306.919 82.0223 307.22 81.5526C307.521 81.0829 307.671 80.5508 307.671 79.9563V78.1619C307.524 78.2573 307.323 78.3454 307.066 78.4261C306.816 78.4995 306.534 78.5692 306.218 78.6353C305.903 78.694 305.587 78.7491 305.271 78.8004C304.956 78.8445 304.67 78.8848 304.413 78.9215C303.862 79.0022 303.382 79.1307 302.971 79.3068C302.56 79.483 302.24 79.7215 302.013 80.0224C301.785 80.3159 301.672 80.6829 301.672 81.1232C301.672 81.7617 301.903 82.2498 302.365 82.5874C302.835 82.9176 303.429 83.0827 304.149 83.0827ZM324.96 69.0909V72.6136H314.777V69.0909H324.96ZM317.089 65.0398H321.779V80.804C321.779 81.237 321.845 81.5746 321.977 81.8168C322.109 82.0516 322.292 82.2167 322.527 82.3121C322.769 82.4076 323.048 82.4553 323.364 82.4553C323.584 82.4553 323.804 82.4369 324.024 82.4002C324.245 82.3562 324.413 82.3232 324.531 82.3011L325.268 85.7908C325.034 85.8642 324.703 85.9486 324.278 86.044C323.852 86.1468 323.335 86.2092 322.725 86.2312C321.595 86.2752 320.604 86.1248 319.753 85.7798C318.909 85.4349 318.252 84.8991 317.783 84.1726C317.313 83.446 317.082 82.5286 317.089 81.4205V65.0398ZM338.858 78.8004V69.0909H343.548V86H339.046V82.9286H338.869C338.488 83.9194 337.853 84.7157 336.965 85.3175C336.084 85.9193 335.009 86.2202 333.739 86.2202C332.609 86.2202 331.615 85.9633 330.756 85.4496C329.897 84.9358 329.226 84.2056 328.742 83.2589C328.265 82.3121 328.022 81.1783 328.015 79.8572V69.0909H332.705V79.0206C332.712 80.0187 332.98 80.8076 333.508 81.3874C334.037 81.9672 334.745 82.2571 335.633 82.2571C336.198 82.2571 336.726 82.1287 337.218 81.8718C337.71 81.6076 338.106 81.2186 338.407 80.7049C338.715 80.1912 338.866 79.5563 338.858 78.8004ZM347.299 86V69.0909H351.846V72.0412H352.022C352.33 70.9917 352.847 70.1991 353.574 69.6634C354.301 69.1203 355.137 68.8487 356.084 68.8487C356.319 68.8487 356.572 68.8634 356.844 68.8928C357.115 68.9221 357.354 68.9625 357.559 69.0138V73.1751C357.339 73.109 357.034 73.0503 356.645 72.9989C356.256 72.9476 355.901 72.9219 355.578 72.9219C354.888 72.9219 354.271 73.0723 353.728 73.3732C353.192 73.6668 352.767 74.0778 352.451 74.6062C352.143 75.1346 351.989 75.7437 351.989 76.4336V86H347.299ZM366.903 86.3303C365.163 86.3303 363.666 85.978 362.411 85.2734C361.164 84.5616 360.202 83.5561 359.527 82.2571C358.852 80.9508 358.514 79.4059 358.514 77.6225C358.514 75.8832 358.852 74.3567 359.527 73.043C360.202 71.7293 361.152 70.7055 362.378 69.9716C363.611 69.2377 365.057 68.8707 366.715 68.8707C367.831 68.8707 368.869 69.0505 369.831 69.4102C370.8 69.7624 371.644 70.2945 372.363 71.0064C373.089 71.7183 373.655 72.6136 374.058 73.6925C374.462 74.764 374.664 76.0189 374.664 77.4574V78.7454H360.386V75.8391H370.249C370.249 75.1639 370.102 74.5658 369.809 74.0447C369.515 73.5237 369.108 73.1164 368.587 72.8228C368.073 72.5219 367.475 72.3714 366.793 72.3714C366.081 72.3714 365.449 72.5366 364.899 72.8668C364.356 73.1897 363.93 73.6264 363.622 74.1768C363.314 74.7199 363.156 75.3254 363.149 75.9933V78.7564C363.149 79.593 363.303 80.3159 363.611 80.9251C363.927 81.5342 364.371 82.0039 364.943 82.3342C365.516 82.6644 366.194 82.8295 366.98 82.8295C367.501 82.8295 367.978 82.7562 368.411 82.6094C368.844 82.4626 369.214 82.2424 369.523 81.9489C369.831 81.6553 370.066 81.2957 370.227 80.87L374.565 81.1562C374.344 82.1984 373.893 83.1084 373.21 83.8864C372.535 84.657 371.662 85.2588 370.59 85.6918C369.526 86.1174 368.297 86.3303 366.903 86.3303Z" fill="white"/>
<g clip-path="url(#clip0_1612_15666)">
<rect x="120" y="120" width="240" height="240" rx="8" fill="#F5F5F5"/>
<path d="M120 130H360" stroke="#D8D8D9" stroke-width="0.5"/>
<path d="M130 120V360" stroke="#D8D8D9" stroke-width="0.5"/>
<path d="M120 140H360" stroke="#D8D8D9" stroke-width="0.5"/>
<path d="M140 120V360" stroke="#D8D8D9" stroke-width="0.5"/>
<path d="M120 150H360" stroke="#D8D8D9" stroke-width="0.5"/>
<path d="M150 120V360" stroke="#D8D8D9" stroke-width="0.5"/>
<path d="M120 160H360" stroke="#D8D8D9" stroke-width="0.5"/>
<path d="M160 120V360" stroke="#D8D8D9" stroke-width="0.5"/>
<path d="M120 170H360" stroke="#D8D8D9" stroke-width="0.5"/>
<path d="M170 120V360" stroke="#D8D8D9" stroke-width="0.5"/>
<path d="M120 180H360" stroke="#D8D8D9" stroke-width="0.5"/>
<path d="M180 120V360" stroke="#D8D8D9" stroke-width="0.5"/>
<path d="M120 190H360" stroke="#D8D8D9" stroke-width="0.5"/>
<path d="M190 120V360" stroke="#D8D8D9" stroke-width="0.5"/>
<path d="M120 200H360" stroke="#D8D8D9" stroke-width="0.5"/>
<path d="M200 120V360" stroke="#D8D8D9" stroke-width="0.5"/>
<path d="M120 210H360" stroke="#D8D8D9" stroke-width="0.5"/>
<path d="M210 120V360" stroke="#D8D8D9" stroke-width="0.5"/>
<path d="M120 220H360" stroke="#D8D8D9" stroke-width="0.5"/>
<path d="M220 120V360" stroke="#D8D8D9" stroke-width="0.5"/>
<path d="M120 230H360" stroke="#D8D8D9" stroke-width="0.5"/>
<path d="M230 120V360" stroke="#D8D8D9" stroke-width="0.5"/>
<path d="M120 240H360" stroke="#D8D8D9" stroke-width="0.5"/>
<path d="M240 120V360" stroke="#D8D8D9" stroke-width="0.5"/>
<path d="M120 250H360" stroke="#D8D8D9" stroke-width="0.5"/>
<path d="M250 120V360" stroke="#D8D8D9" stroke-width="0.5"/>
<path d="M120 260H360" stroke="#D8D8D9" stroke-width="0.5"/>
<path d="M260 120V360" stroke="#D8D8D9" stroke-width="0.5"/>
<path d="M120 270H360" stroke="#D8D8D9" stroke-width="0.5"/>
<path d="M270 120V360" stroke="#D8D8D9" stroke-width="0.5"/>
<path d="M120 280H360" stroke="#D8D8D9" stroke-width="0.5"/>
<path d="M280 120V360" stroke="#D8D8D9" stroke-width="0.5"/>
<path d="M120 290H360" stroke="#D8D8D9" stroke-width="0.5"/>
<path d="M290 120V360" stroke="#D8D8D9" stroke-width="0.5"/>
<path d="M120 300H360" stroke="#D8D8D9" stroke-width="0.5"/>
<path d="M300 120V360" stroke="#D8D8D9" stroke-width="0.5"/>
<path d="M120 310H360" stroke="#D8D8D9" stroke-width="0.5"/>
<path d="M310 120V360" stroke="#D8D8D9" stroke-width="0.5"/>
<path d="M120 320H360" stroke="#D8D8D9" stroke-width="0.5"/>
<path d="M320 120V360" stroke="#D8D8D9" stroke-width="0.5"/>
<path d="M120 330H360" stroke="#D8D8D9" stroke-width="0.5"/>
<path d="M330 120V360" stroke="#D8D8D9" stroke-width="0.5"/>
<path d="M120 340H360" stroke="#D8D8D9" stroke-width="0.5"/>
<path d="M340 120V360" stroke="#D8D8D9" stroke-width="0.5"/>
<path d="M120 350H360" stroke="#D8D8D9" stroke-width="0.5"/>
<path d="M350 120V360" stroke="#D8D8D9" stroke-width="0.5"/>
</g>
<g clip-path="url(#clip1_1612_15666)">
<path d="M310 260C324.9 245.4 335 230 340 205C340 195 334.205 176.424 323.891 166.109C313.576 155.795 299.587 150 285 150C267.4 150 255 165 240 180C225 165 212.6 150 195 150C180.413 150 166.424 155.795 156.109 166.109C145.795 176.424 140 195 140 205C145 230 155 245.5 170 260L240 330L310 260Z" stroke="#F56565" stroke-width="60" stroke-linejoin="round" stroke-dasharray="0.2 0.4"/>
</g>
<path d="M310 260C324.9 245.4 335 230 340 205C340 195 334.205 176.424 323.891 166.109C313.576 155.795 299.587 150 285 150C267.4 150 255 165 240 180C225 165 212.6 150 195 150C180.413 150 166.424 155.795 156.109 166.109C145.795 176.424 140 195 140 205C145 230 155 245.5 170 260L240 330L310 260Z" stroke="#3C3C43" stroke-width="20" stroke-linecap="round" stroke-linejoin="round"/>
<defs>
<clipPath id="clip0_1612_15666">
<rect x="120" y="120" width="240" height="240" rx="8" fill="white"/>
</clipPath>
<clipPath id="clip1_1612_15666">
<rect width="240" height="240" fill="white" transform="translate(120 120)"/>
</clipPath>
</defs>
</svg>
