<svg width="480" height="480" viewBox="0 0 480 480" fill="none" xmlns="http://www.w3.org/2000/svg">
<rect width="480" height="480" fill="#3C3C43"/>
<path d="M219 396.5L208 407.5L203 402.5" stroke="#36EA83" stroke-width="3" stroke-linecap="round" stroke-linejoin="round"/>
<path d="M241.052 414H233.06V391.455H241.118C243.386 391.455 245.338 391.906 246.975 392.809C248.611 393.704 249.87 394.992 250.751 396.673C251.639 398.353 252.083 400.364 252.083 402.705C252.083 405.054 251.639 407.072 250.751 408.76C249.87 410.448 248.604 411.743 246.953 412.646C245.309 413.549 243.342 414 241.052 414ZM237.827 409.916H240.854C242.263 409.916 243.448 409.666 244.41 409.167C245.379 408.661 246.105 407.879 246.59 406.822C247.081 405.758 247.327 404.386 247.327 402.705C247.327 401.039 247.081 399.678 246.59 398.621C246.105 397.564 245.382 396.786 244.421 396.287C243.459 395.788 242.274 395.539 240.865 395.539H237.827V409.916ZM263.166 414.33C261.456 414.33 259.977 413.967 258.729 413.24C257.489 412.507 256.531 411.486 255.856 410.18C255.181 408.866 254.843 407.344 254.843 405.612C254.843 403.865 255.181 402.338 255.856 401.032C256.531 399.718 257.489 398.698 258.729 397.972C259.977 397.238 261.456 396.871 263.166 396.871C264.876 396.871 266.351 397.238 267.591 397.972C268.839 398.698 269.8 399.718 270.475 401.032C271.151 402.338 271.488 403.865 271.488 405.612C271.488 407.344 271.151 408.866 270.475 410.18C269.8 411.486 268.839 412.507 267.591 413.24C266.351 413.967 264.876 414.33 263.166 414.33ZM263.188 410.697C263.966 410.697 264.615 410.477 265.136 410.037C265.657 409.589 266.05 408.98 266.314 408.21C266.586 407.439 266.721 406.562 266.721 405.578C266.721 404.595 266.586 403.718 266.314 402.947C266.05 402.177 265.657 401.568 265.136 401.12C264.615 400.672 263.966 400.449 263.188 400.449C262.402 400.449 261.742 400.672 261.206 401.12C260.678 401.568 260.278 402.177 260.006 402.947C259.742 403.718 259.61 404.595 259.61 405.578C259.61 406.562 259.742 407.439 260.006 408.21C260.278 408.98 260.678 409.589 261.206 410.037C261.742 410.477 262.402 410.697 263.188 410.697ZM277.279 414.286C276.552 414.286 275.928 414.029 275.407 413.516C274.893 412.995 274.637 412.371 274.637 411.644C274.637 410.925 274.893 410.308 275.407 409.795C275.928 409.281 276.552 409.024 277.279 409.024C277.983 409.024 278.6 409.281 279.128 409.795C279.656 410.308 279.921 410.925 279.921 411.644C279.921 412.129 279.796 412.573 279.546 412.976C279.304 413.373 278.985 413.692 278.589 413.934C278.192 414.169 277.756 414.286 277.279 414.286Z" fill="#36EA83"/>
<path d="M148.506 69.9386C148.418 69.0505 148.04 68.3607 147.372 67.869C146.704 67.3772 145.798 67.1314 144.653 67.1314C143.875 67.1314 143.218 67.2415 142.682 67.4616C142.147 67.6745 141.736 67.9717 141.449 68.3533C141.171 68.735 141.031 69.168 141.031 69.6523C141.016 70.056 141.101 70.4083 141.284 70.7092C141.475 71.0101 141.736 71.2706 142.066 71.4908C142.396 71.7036 142.778 71.8907 143.211 72.0522C143.644 72.2063 144.106 72.3384 144.598 72.4485L146.623 72.9329C147.607 73.1531 148.51 73.4466 149.332 73.8136C150.154 74.1805 150.865 74.6319 151.467 75.1676C152.069 75.7034 152.535 76.3345 152.865 77.0611C153.203 77.7876 153.375 78.6206 153.383 79.56C153.375 80.9397 153.023 82.136 152.326 83.1488C151.636 84.1542 150.638 84.9358 149.332 85.4936C148.033 86.044 146.466 86.3192 144.631 86.3192C142.811 86.3192 141.226 86.0404 139.875 85.4826C138.532 84.9248 137.483 84.0992 136.727 83.0057C135.978 81.9048 135.586 80.5434 135.549 78.9215H140.161C140.213 79.6774 140.429 80.3086 140.811 80.815C141.2 81.314 141.717 81.692 142.363 81.9489C143.016 82.1984 143.754 82.3232 144.576 82.3232C145.383 82.3232 146.084 82.2057 146.678 81.9709C147.28 81.736 147.746 81.4094 148.077 80.9911C148.407 80.5728 148.572 80.0921 148.572 79.549C148.572 79.0426 148.422 78.617 148.121 78.272C147.827 77.9271 147.394 77.6335 146.822 77.3913C146.256 77.1491 145.563 76.929 144.741 76.7308L142.286 76.1143C140.385 75.652 138.884 74.9291 137.784 73.9457C136.683 72.9622 136.136 71.6375 136.143 69.9716C136.136 68.6065 136.499 67.4139 137.233 66.3938C137.974 65.3737 138.991 64.5774 140.283 64.005C141.574 63.4325 143.042 63.1463 144.686 63.1463C146.359 63.1463 147.82 63.4325 149.067 64.005C150.322 64.5774 151.298 65.3737 151.996 66.3938C152.693 67.4139 153.052 68.5955 153.074 69.9386H148.506ZM156.501 86V69.0909H160.97V72.0742H161.168C161.521 71.0835 162.108 70.3018 162.93 69.7294C163.752 69.157 164.735 68.8707 165.88 68.8707C167.04 68.8707 168.027 69.1606 168.841 69.7404C169.656 70.3129 170.199 71.0908 170.471 72.0742H170.647C170.992 71.1055 171.616 70.3312 172.518 69.7514C173.428 69.1643 174.503 68.8707 175.744 68.8707C177.322 68.8707 178.602 69.3735 179.586 70.3789C180.576 71.377 181.072 72.7934 181.072 74.6282V86H176.393V75.5529C176.393 74.6135 176.144 73.909 175.645 73.4393C175.146 72.9696 174.522 72.7347 173.773 72.7347C172.922 72.7347 172.258 73.0063 171.781 73.5494C171.304 74.0851 171.065 74.7933 171.065 75.674V86H166.519V75.4538C166.519 74.6245 166.28 73.964 165.803 73.4723C165.333 72.9806 164.713 72.7347 163.943 72.7347C163.422 72.7347 162.952 72.8668 162.534 73.131C162.123 73.3879 161.796 73.7512 161.554 74.2209C161.312 74.6832 161.19 75.2263 161.19 75.8501V86H156.501ZM192.416 86.3303C190.706 86.3303 189.227 85.967 187.98 85.2404C186.739 84.5065 185.782 83.4864 185.106 82.18C184.431 80.8664 184.094 79.3435 184.094 77.6115C184.094 75.8648 184.431 74.3383 185.106 73.032C185.782 71.7183 186.739 70.6982 187.98 69.9716C189.227 69.2377 190.706 68.8707 192.416 68.8707C194.126 68.8707 195.601 69.2377 196.842 69.9716C198.089 70.6982 199.051 71.7183 199.726 73.032C200.401 74.3383 200.739 75.8648 200.739 77.6115C200.739 79.3435 200.401 80.8664 199.726 82.18C199.051 83.4864 198.089 84.5065 196.842 85.2404C195.601 85.967 194.126 86.3303 192.416 86.3303ZM192.438 82.6974C193.216 82.6974 193.866 82.4773 194.387 82.0369C194.908 81.5893 195.3 80.9801 195.565 80.2095C195.836 79.4389 195.972 78.5619 195.972 77.5785C195.972 76.5951 195.836 75.718 195.565 74.9474C195.3 74.1768 194.908 73.5677 194.387 73.12C193.866 72.6723 193.216 72.4485 192.438 72.4485C191.653 72.4485 190.992 72.6723 190.457 73.12C189.928 73.5677 189.528 74.1768 189.257 74.9474C188.992 75.718 188.86 76.5951 188.86 77.5785C188.86 78.5619 188.992 79.4389 189.257 80.2095C189.528 80.9801 189.928 81.5893 190.457 82.0369C190.992 82.4773 191.653 82.6974 192.438 82.6974ZM211.428 86.3303C209.718 86.3303 208.239 85.967 206.991 85.2404C205.751 84.5065 204.793 83.4864 204.118 82.18C203.443 80.8664 203.105 79.3435 203.105 77.6115C203.105 75.8648 203.443 74.3383 204.118 73.032C204.793 71.7183 205.751 70.6982 206.991 69.9716C208.239 69.2377 209.718 68.8707 211.428 68.8707C213.138 68.8707 214.613 69.2377 215.853 69.9716C217.101 70.6982 218.062 71.7183 218.738 73.032C219.413 74.3383 219.75 75.8648 219.75 77.6115C219.75 79.3435 219.413 80.8664 218.738 82.18C218.062 83.4864 217.101 84.5065 215.853 85.2404C214.613 85.967 213.138 86.3303 211.428 86.3303ZM211.45 82.6974C212.228 82.6974 212.877 82.4773 213.398 82.0369C213.919 81.5893 214.312 80.9801 214.576 80.2095C214.848 79.4389 214.984 78.5619 214.984 77.5785C214.984 76.5951 214.848 75.718 214.576 74.9474C214.312 74.1768 213.919 73.5677 213.398 73.12C212.877 72.6723 212.228 72.4485 211.45 72.4485C210.665 72.4485 210.004 72.6723 209.468 73.12C208.94 73.5677 208.54 74.1768 208.268 74.9474C208.004 75.718 207.872 76.5951 207.872 77.5785C207.872 78.5619 208.004 79.4389 208.268 80.2095C208.54 80.9801 208.94 81.5893 209.468 82.0369C210.004 82.4773 210.665 82.6974 211.45 82.6974ZM231.794 69.0909V72.6136H221.611V69.0909H231.794ZM223.923 65.0398H228.612V80.804C228.612 81.237 228.678 81.5746 228.81 81.8168C228.942 82.0516 229.126 82.2167 229.361 82.3121C229.603 82.4076 229.882 82.4553 230.197 82.4553C230.418 82.4553 230.638 82.4369 230.858 82.4002C231.078 82.3562 231.247 82.3232 231.364 82.3011L232.102 85.7908C231.867 85.8642 231.537 85.9486 231.111 86.044C230.685 86.1468 230.168 86.2092 229.559 86.2312C228.429 86.2752 227.438 86.1248 226.587 85.7798C225.743 85.4349 225.086 84.8991 224.616 84.1726C224.146 83.446 223.915 82.5286 223.923 81.4205V65.0398ZM239.901 76.2244V86H235.212V63.4545H239.769V72.0742H239.967C240.349 71.0761 240.966 70.2945 241.817 69.7294C242.668 69.157 243.736 68.8707 245.02 68.8707C246.195 68.8707 247.218 69.1276 248.092 69.6413C248.972 70.1477 249.655 70.878 250.139 71.832C250.631 72.7788 250.873 73.9126 250.866 75.2337V86H246.176V76.0703C246.184 75.0282 245.919 74.2172 245.384 73.6374C244.855 73.0576 244.114 72.7678 243.16 72.7678C242.521 72.7678 241.956 72.9035 241.465 73.1751C240.98 73.4466 240.599 73.8429 240.32 74.364C240.048 74.8777 239.909 75.4979 239.901 76.2244ZM269.371 86.3303C267.639 86.3303 266.149 85.9633 264.902 85.2294C263.661 84.4882 262.707 83.4607 262.04 82.147C261.379 80.8333 261.049 79.3215 261.049 77.6115C261.049 75.8795 261.383 74.3603 262.051 73.054C262.726 71.7403 263.683 70.7165 264.924 69.9826C266.164 69.2414 267.639 68.8707 269.349 68.8707C270.824 68.8707 272.116 69.1386 273.224 69.6744C274.332 70.2101 275.209 70.9624 275.855 71.9311C276.501 72.8999 276.857 74.0374 276.923 75.3438H272.498C272.373 74.4998 272.043 73.8209 271.507 73.3072C270.978 72.7861 270.285 72.5256 269.426 72.5256C268.7 72.5256 268.065 72.7237 267.522 73.12C266.986 73.509 266.568 74.0778 266.267 74.8263C265.966 75.5749 265.815 76.4813 265.815 77.5455C265.815 78.6243 265.962 79.5417 266.256 80.2976C266.557 81.0535 266.979 81.6296 267.522 82.0259C268.065 82.4222 268.7 82.6204 269.426 82.6204C269.962 82.6204 270.443 82.5103 270.868 82.2901C271.301 82.07 271.657 81.7507 271.936 81.3324C272.222 80.9067 272.41 80.3967 272.498 79.8022H276.923C276.85 81.0939 276.497 82.2314 275.866 83.2148C275.242 84.1909 274.38 84.9542 273.279 85.5046C272.178 86.055 270.876 86.3303 269.371 86.3303ZM290.769 78.8004V69.0909H295.459V86H290.956V82.9286H290.78C290.398 83.9194 289.764 84.7157 288.876 85.3175C287.995 85.9193 286.92 86.2202 285.65 86.2202C284.52 86.2202 283.525 85.9633 282.667 85.4496C281.808 84.9358 281.137 84.2056 280.652 83.2589C280.175 82.3121 279.933 81.1783 279.926 79.8572V69.0909H284.615V79.0206C284.623 80.0187 284.89 80.8076 285.419 81.3874C285.947 81.9672 286.656 82.2571 287.544 82.2571C288.109 82.2571 288.637 82.1287 289.129 81.8718C289.62 81.6076 290.017 81.2186 290.318 80.7049C290.626 80.1912 290.776 79.5563 290.769 78.8004ZM299.21 86V69.0909H303.756V72.0412H303.932C304.241 70.9917 304.758 70.1991 305.485 69.6634C306.211 69.1203 307.048 68.8487 307.995 68.8487C308.229 68.8487 308.483 68.8634 308.754 68.8928C309.026 68.9221 309.264 68.9625 309.47 69.0138V73.1751C309.25 73.109 308.945 73.0503 308.556 72.9989C308.167 72.9476 307.811 72.9219 307.488 72.9219C306.798 72.9219 306.182 73.0723 305.639 73.3732C305.103 73.6668 304.677 74.0778 304.362 74.6062C304.054 75.1346 303.899 75.7437 303.899 76.4336V86H299.21ZM328.173 69.0909L322.262 86H316.978L311.066 69.0909H316.02L319.532 81.1893H319.708L323.208 69.0909H328.173ZM337.734 86.3303C335.995 86.3303 334.498 85.978 333.243 85.2734C331.995 84.5616 331.034 83.5561 330.358 82.2571C329.683 80.9508 329.346 79.4059 329.346 77.6225C329.346 75.8832 329.683 74.3567 330.358 73.043C331.034 71.7293 331.984 70.7055 333.21 69.9716C334.443 69.2377 335.888 68.8707 337.547 68.8707C338.663 68.8707 339.701 69.0505 340.662 69.4102C341.631 69.7624 342.475 70.2945 343.194 71.0064C343.921 71.7183 344.486 72.6136 344.89 73.6925C345.293 74.764 345.495 76.0189 345.495 77.4574V78.7454H331.217V75.8391H341.081C341.081 75.1639 340.934 74.5658 340.64 74.0447C340.347 73.5237 339.94 73.1164 339.418 72.8228C338.905 72.5219 338.307 72.3714 337.624 72.3714C336.912 72.3714 336.281 72.5366 335.731 72.8668C335.188 73.1897 334.762 73.6264 334.454 74.1768C334.145 74.7199 333.988 75.3254 333.98 75.9933V78.7564C333.98 79.593 334.134 80.3159 334.443 80.9251C334.758 81.5342 335.202 82.0039 335.775 82.3342C336.347 82.6644 337.026 82.8295 337.811 82.8295C338.332 82.8295 338.809 82.7562 339.242 82.6094C339.675 82.4626 340.046 82.2424 340.354 81.9489C340.662 81.6553 340.897 81.2957 341.059 80.87L345.396 81.1562C345.176 82.1984 344.725 83.1084 344.042 83.8864C343.367 84.657 342.494 85.2588 341.422 85.6918C340.358 86.1174 339.129 86.3303 337.734 86.3303Z" fill="white"/>
<g clip-path="url(#clip0_1612_15659)">
<rect x="120" y="120" width="240" height="240" rx="8" fill="#F5F5F5"/>
<path d="M120 130H360" stroke="#D8D8D9" stroke-width="0.5"/>
<path d="M130 120V360" stroke="#D8D8D9" stroke-width="0.5"/>
<path d="M120 140H360" stroke="#D8D8D9" stroke-width="0.5"/>
<path d="M140 120V360" stroke="#D8D8D9" stroke-width="0.5"/>
<path d="M120 150H360" stroke="#D8D8D9" stroke-width="0.5"/>
<path d="M150 120V360" stroke="#D8D8D9" stroke-width="0.5"/>
<path d="M120 160H360" stroke="#D8D8D9" stroke-width="0.5"/>
<path d="M160 120V360" stroke="#D8D8D9" stroke-width="0.5"/>
<path d="M120 170H360" stroke="#D8D8D9" stroke-width="0.5"/>
<path d="M170 120V360" stroke="#D8D8D9" stroke-width="0.5"/>
<path d="M120 180H360" stroke="#D8D8D9" stroke-width="0.5"/>
<path d="M180 120V360" stroke="#D8D8D9" stroke-width="0.5"/>
<path d="M120 190H360" stroke="#D8D8D9" stroke-width="0.5"/>
<path d="M190 120V360" stroke="#D8D8D9" stroke-width="0.5"/>
<path d="M120 200H360" stroke="#D8D8D9" stroke-width="0.5"/>
<path d="M200 120V360" stroke="#D8D8D9" stroke-width="0.5"/>
<path d="M120 210H360" stroke="#D8D8D9" stroke-width="0.5"/>
<path d="M210 120V360" stroke="#D8D8D9" stroke-width="0.5"/>
<path d="M120 220H360" stroke="#D8D8D9" stroke-width="0.5"/>
<path d="M220 120V360" stroke="#D8D8D9" stroke-width="0.5"/>
<path d="M120 230H360" stroke="#D8D8D9" stroke-width="0.5"/>
<path d="M230 120V360" stroke="#D8D8D9" stroke-width="0.5"/>
<path d="M120 240H360" stroke="#D8D8D9" stroke-width="0.5"/>
<path d="M240 120V360" stroke="#D8D8D9" stroke-width="0.5"/>
<path d="M120 250H360" stroke="#D8D8D9" stroke-width="0.5"/>
<path d="M250 120V360" stroke="#D8D8D9" stroke-width="0.5"/>
<path d="M120 260H360" stroke="#D8D8D9" stroke-width="0.5"/>
<path d="M260 120V360" stroke="#D8D8D9" stroke-width="0.5"/>
<path d="M120 270H360" stroke="#D8D8D9" stroke-width="0.5"/>
<path d="M270 120V360" stroke="#D8D8D9" stroke-width="0.5"/>
<path d="M120 280H360" stroke="#D8D8D9" stroke-width="0.5"/>
<path d="M280 120V360" stroke="#D8D8D9" stroke-width="0.5"/>
<path d="M120 290H360" stroke="#D8D8D9" stroke-width="0.5"/>
<path d="M290 120V360" stroke="#D8D8D9" stroke-width="0.5"/>
<path d="M120 300H360" stroke="#D8D8D9" stroke-width="0.5"/>
<path d="M300 120V360" stroke="#D8D8D9" stroke-width="0.5"/>
<path d="M120 310H360" stroke="#D8D8D9" stroke-width="0.5"/>
<path d="M310 120V360" stroke="#D8D8D9" stroke-width="0.5"/>
<path d="M120 320H360" stroke="#D8D8D9" stroke-width="0.5"/>
<path d="M320 120V360" stroke="#D8D8D9" stroke-width="0.5"/>
<path d="M120 330H360" stroke="#D8D8D9" stroke-width="0.5"/>
<path d="M330 120V360" stroke="#D8D8D9" stroke-width="0.5"/>
<path d="M120 340H360" stroke="#D8D8D9" stroke-width="0.5"/>
<path d="M340 120V360" stroke="#D8D8D9" stroke-width="0.5"/>
<path d="M120 350H360" stroke="#D8D8D9" stroke-width="0.5"/>
<path d="M350 120V360" stroke="#D8D8D9" stroke-width="0.5"/>
</g>
<g clip-path="url(#clip1_1612_15659)">
<g id="embed-lucide-heart" stroke="#F56565" stroke-width="7" stroke-dasharray="0.04 0.08" stroke-linejoin="round" transform="translate(120 120), scale(10)">
  <path d="M19 14c1.49-1.46 3-3.21 3-5.5A5.5 5.5 0 0 0 16.5 3c-1.76 0-3 .5-4.5 2-1.5-1.5-2.74-2-4.5-2A5.5 5.5 0 0 0 2 8.5c0 2.3 1.5 4.05 3 5.5l7 7Z" />
</g>
</g>
<g id="embed-lucide-heart" stroke="#3C3C43" stroke-width="2" stroke-linecap="round" stroke-linejoin="round" transform="translate(120 120), scale(10)">
  <path d="M19 14c1.49-1.46 3-3.21 3-5.5A5.5 5.5 0 0 0 16.5 3c-1.76 0-3 .5-4.5 2-1.5-1.5-2.74-2-4.5-2A5.5 5.5 0 0 0 2 8.5c0 2.3 1.5 4.05 3 5.5l7 7Z" />
</g>
<defs>
<clipPath id="clip0_1612_15659">
<rect x="120" y="120" width="240" height="240" rx="8" fill="white"/>
</clipPath>
<clipPath id="clip1_1612_15659">
<rect width="240" height="240" fill="white" transform="translate(120 120)"/>
</clipPath>
</defs>
</svg>
