<svg width="480" height="480" viewBox="0 0 480 480" fill="none" xmlns="http://www.w3.org/2000/svg">
<rect width="480" height="480" fill="#3C3C43"/>
<path d="M219 396.5L208 407.5L203 402.5" stroke="#36EA83" stroke-width="3" stroke-linecap="round" stroke-linejoin="round"/>
<path d="M241.052 414H233.06V391.455H241.118C243.386 391.455 245.338 391.906 246.975 392.809C248.611 393.704 249.87 394.992 250.751 396.673C251.639 398.353 252.083 400.364 252.083 402.705C252.083 405.054 251.639 407.072 250.751 408.76C249.87 410.448 248.604 411.743 246.953 412.646C245.309 413.549 243.342 414 241.052 414ZM237.827 409.916H240.854C242.263 409.916 243.448 409.666 244.41 409.167C245.379 408.661 246.105 407.879 246.59 406.822C247.081 405.758 247.327 404.386 247.327 402.705C247.327 401.039 247.081 399.678 246.59 398.621C246.105 397.564 245.382 396.786 244.421 396.287C243.459 395.788 242.274 395.539 240.865 395.539H237.827V409.916ZM263.166 414.33C261.456 414.33 259.977 413.967 258.729 413.24C257.489 412.507 256.531 411.486 255.856 410.18C255.181 408.866 254.843 407.344 254.843 405.612C254.843 403.865 255.181 402.338 255.856 401.032C256.531 399.718 257.489 398.698 258.729 397.972C259.977 397.238 261.456 396.871 263.166 396.871C264.876 396.871 266.351 397.238 267.591 397.972C268.839 398.698 269.8 399.718 270.475 401.032C271.151 402.338 271.488 403.865 271.488 405.612C271.488 407.344 271.151 408.866 270.475 410.18C269.8 411.486 268.839 412.507 267.591 413.24C266.351 413.967 264.876 414.33 263.166 414.33ZM263.188 410.697C263.966 410.697 264.615 410.477 265.136 410.037C265.657 409.589 266.05 408.98 266.314 408.21C266.586 407.439 266.721 406.562 266.721 405.578C266.721 404.595 266.586 403.718 266.314 402.947C266.05 402.177 265.657 401.568 265.136 401.12C264.615 400.672 263.966 400.449 263.188 400.449C262.402 400.449 261.742 400.672 261.206 401.12C260.678 401.568 260.278 402.177 260.006 402.947C259.742 403.718 259.61 404.595 259.61 405.578C259.61 406.562 259.742 407.439 260.006 408.21C260.278 408.98 260.678 409.589 261.206 410.037C261.742 410.477 262.402 410.697 263.188 410.697ZM277.279 414.286C276.552 414.286 275.928 414.029 275.407 413.516C274.893 412.995 274.637 412.371 274.637 411.644C274.637 410.925 274.893 410.308 275.407 409.795C275.928 409.281 276.552 409.024 277.279 409.024C277.983 409.024 278.6 409.281 279.128 409.795C279.656 410.308 279.921 410.925 279.921 411.644C279.921 412.129 279.796 412.573 279.546 412.976C279.304 413.373 278.985 413.692 278.589 413.934C278.192 414.169 277.756 414.286 277.279 414.286Z" fill="#36EA83"/>
<path d="M150.17 63.4545V86H145.403V63.4545H150.17ZM160.234 86.2752C158.95 86.2752 157.787 85.945 156.744 85.2844C155.71 84.6166 154.888 83.6368 154.278 82.3452C153.677 81.0462 153.376 79.4536 153.376 77.5675C153.376 75.63 153.688 74.0191 154.312 72.7347C154.935 71.4431 155.765 70.478 156.799 69.8395C157.842 69.1937 158.983 68.8707 160.223 68.8707C161.17 68.8707 161.959 69.0322 162.59 69.3551C163.228 69.6707 163.742 70.067 164.131 70.544C164.527 71.0137 164.828 71.4761 165.034 71.9311H165.177V63.4545H169.856V86H165.232V83.2919H165.034C164.814 83.7616 164.502 84.2276 164.098 84.69C163.702 85.145 163.184 85.523 162.546 85.8239C161.915 86.1248 161.144 86.2752 160.234 86.2752ZM161.72 82.5433C162.476 82.5433 163.115 82.3378 163.636 81.9268C164.164 81.5085 164.568 80.9251 164.847 80.1765C165.133 79.4279 165.276 78.5509 165.276 77.5455C165.276 76.54 165.137 75.6667 164.858 74.9254C164.579 74.1842 164.175 73.6117 163.647 73.2081C163.118 72.8045 162.476 72.6026 161.72 72.6026C160.95 72.6026 160.3 72.8118 159.772 73.2301C159.243 73.6484 158.843 74.2282 158.572 74.9695C158.3 75.7107 158.165 76.5694 158.165 77.5455C158.165 78.5289 158.3 79.3986 158.572 80.1545C158.851 80.9031 159.251 81.4902 159.772 81.9158C160.3 82.3342 160.95 82.5433 161.72 82.5433ZM181.417 86.3303C179.678 86.3303 178.181 85.978 176.926 85.2734C175.678 84.5616 174.717 83.5561 174.042 82.2571C173.366 80.9508 173.029 79.4059 173.029 77.6225C173.029 75.8832 173.366 74.3567 174.042 73.043C174.717 71.7293 175.667 70.7055 176.893 69.9716C178.126 69.2377 179.571 68.8707 181.23 68.8707C182.346 68.8707 183.384 69.0505 184.346 69.4102C185.314 69.7624 186.158 70.2945 186.877 71.0064C187.604 71.7183 188.169 72.6136 188.573 73.6925C188.976 74.764 189.178 76.0189 189.178 77.4574V78.7454H174.9V75.8391H184.764C184.764 75.1639 184.617 74.5658 184.324 74.0447C184.03 73.5237 183.623 73.1164 183.102 72.8228C182.588 72.5219 181.99 72.3714 181.307 72.3714C180.595 72.3714 179.964 72.5366 179.414 72.8668C178.871 73.1897 178.445 73.6264 178.137 74.1768C177.828 74.7199 177.671 75.3254 177.663 75.9933V78.7564C177.663 79.593 177.817 80.3159 178.126 80.9251C178.441 81.5342 178.885 82.0039 179.458 82.3342C180.03 82.6644 180.709 82.8295 181.494 82.8295C182.015 82.8295 182.492 82.7562 182.925 82.6094C183.358 82.4626 183.729 82.2424 184.037 81.9489C184.346 81.6553 184.58 81.2957 184.742 80.87L189.079 81.1562C188.859 82.1984 188.408 83.1084 187.725 83.8864C187.05 84.657 186.177 85.2588 185.105 85.6918C184.041 86.1174 182.812 86.3303 181.417 86.3303ZM197.06 86.3192C195.982 86.3192 195.02 86.1321 194.176 85.7578C193.332 85.3762 192.664 84.8147 192.173 84.0735C191.688 83.3249 191.446 82.3929 191.446 81.2773C191.446 80.3379 191.618 79.549 191.963 78.9105C192.308 78.272 192.778 77.7583 193.373 77.3693C193.967 76.9804 194.642 76.6868 195.398 76.4886C196.161 76.2905 196.961 76.151 197.798 76.0703C198.781 75.9676 199.574 75.8722 200.176 75.7841C200.778 75.6887 201.214 75.5492 201.486 75.3658C201.757 75.1823 201.893 74.9107 201.893 74.5511V74.4851C201.893 73.7879 201.673 73.2485 201.233 72.8668C200.8 72.4852 200.183 72.2944 199.383 72.2944C198.539 72.2944 197.868 72.4815 197.369 72.8558C196.87 73.2228 196.539 73.6851 196.378 74.2429L192.04 73.8906C192.261 72.8632 192.694 71.9751 193.339 71.2266C193.985 70.4706 194.818 69.8909 195.838 69.4872C196.866 69.0762 198.055 68.8707 199.405 68.8707C200.345 68.8707 201.244 68.9808 202.102 69.201C202.968 69.4212 203.735 69.7624 204.403 70.2248C205.078 70.6871 205.61 71.2816 205.999 72.0082C206.388 72.7274 206.583 73.5897 206.583 74.5952V86H202.135V83.6552H202.003C201.732 84.1836 201.368 84.6496 200.913 85.0533C200.458 85.4496 199.912 85.7615 199.273 85.989C198.635 86.2092 197.897 86.3192 197.06 86.3192ZM198.403 83.0827C199.093 83.0827 199.702 82.947 200.231 82.6754C200.759 82.3965 201.174 82.0223 201.475 81.5526C201.776 81.0829 201.926 80.5508 201.926 79.9563V78.1619C201.779 78.2573 201.578 78.3454 201.321 78.4261C201.071 78.4995 200.789 78.5692 200.473 78.6353C200.157 78.694 199.842 78.7491 199.526 78.8004C199.211 78.8445 198.924 78.8848 198.668 78.9215C198.117 79.0022 197.636 79.1307 197.225 79.3068C196.815 79.483 196.495 79.7215 196.268 80.0224C196.04 80.3159 195.926 80.6829 195.926 81.1232C195.926 81.7617 196.158 82.2498 196.62 82.5874C197.09 82.9176 197.684 83.0827 198.403 83.0827ZM214.911 63.4545V86H210.221V63.4545H214.911ZM232.073 86.2752C230.789 86.2752 229.625 85.945 228.583 85.2844C227.548 84.6166 226.727 83.6368 226.117 82.3452C225.516 81.0462 225.215 79.4536 225.215 77.5675C225.215 75.63 225.527 74.0191 226.15 72.7347C226.774 71.4431 227.604 70.478 228.638 69.8395C229.68 69.1937 230.822 68.8707 232.062 68.8707C233.009 68.8707 233.798 69.0322 234.429 69.3551C235.067 69.6707 235.581 70.067 235.97 70.544C236.366 71.0137 236.667 71.4761 236.873 71.9311H237.016V63.4545H241.694V86H237.071V83.2919H236.873C236.653 83.7616 236.341 84.2276 235.937 84.69C235.541 85.145 235.023 85.523 234.385 85.8239C233.754 86.1248 232.983 86.2752 232.073 86.2752ZM233.559 82.5433C234.315 82.5433 234.954 82.3378 235.475 81.9268C236.003 81.5085 236.407 80.9251 236.686 80.1765C236.972 79.4279 237.115 78.5509 237.115 77.5455C237.115 76.54 236.975 75.6667 236.697 74.9254C236.418 74.1842 236.014 73.6117 235.486 73.2081C234.957 72.8045 234.315 72.6026 233.559 72.6026C232.789 72.6026 232.139 72.8118 231.611 73.2301C231.082 73.6484 230.682 74.2282 230.411 74.9695C230.139 75.7107 230.003 76.5694 230.003 77.5455C230.003 78.5289 230.139 79.3986 230.411 80.1545C230.69 80.9031 231.09 81.4902 231.611 81.9158C232.139 82.3342 232.789 82.5433 233.559 82.5433ZM253.256 86.3303C251.517 86.3303 250.02 85.978 248.765 85.2734C247.517 84.5616 246.556 83.5561 245.88 82.2571C245.205 80.9508 244.868 79.4059 244.868 77.6225C244.868 75.8832 245.205 74.3567 245.88 73.043C246.556 71.7293 247.506 70.7055 248.732 69.9716C249.965 69.2377 251.41 68.8707 253.069 68.8707C254.185 68.8707 255.223 69.0505 256.184 69.4102C257.153 69.7624 257.997 70.2945 258.716 71.0064C259.443 71.7183 260.008 72.6136 260.412 73.6925C260.815 74.764 261.017 76.0189 261.017 77.4574V78.7454H246.739V75.8391H256.603C256.603 75.1639 256.456 74.5658 256.162 74.0447C255.869 73.5237 255.462 73.1164 254.94 72.8228C254.427 72.5219 253.829 72.3714 253.146 72.3714C252.434 72.3714 251.803 72.5366 251.253 72.8668C250.709 73.1897 250.284 73.6264 249.976 74.1768C249.667 74.7199 249.51 75.3254 249.502 75.9933V78.7564C249.502 79.593 249.656 80.3159 249.965 80.9251C250.28 81.5342 250.724 82.0039 251.297 82.3342C251.869 82.6644 252.548 82.8295 253.333 82.8295C253.854 82.8295 254.331 82.7562 254.764 82.6094C255.197 82.4626 255.568 82.2424 255.876 81.9489C256.184 81.6553 256.419 81.2957 256.581 80.87L260.918 81.1562C260.698 82.1984 260.247 83.1084 259.564 83.8864C258.889 84.657 258.015 85.2588 256.944 85.6918C255.88 86.1174 254.651 86.3303 253.256 86.3303ZM268.767 76.2244V86H264.078V69.0909H268.547V72.0742H268.745C269.119 71.0908 269.747 70.3129 270.628 69.7404C271.508 69.1606 272.576 68.8707 273.831 68.8707C275.005 68.8707 276.029 69.1276 276.902 69.6413C277.776 70.1551 278.455 70.889 278.939 71.843C279.423 72.7898 279.666 73.92 279.666 75.2337V86H274.976V76.0703C274.983 75.0355 274.719 74.2282 274.183 73.6484C273.648 73.0613 272.91 72.7678 271.971 72.7678C271.339 72.7678 270.782 72.9035 270.297 73.1751C269.82 73.4466 269.446 73.8429 269.174 74.364C268.91 74.8777 268.774 75.4979 268.767 76.2244ZM297.431 73.9126L293.137 74.1768C293.064 73.8099 292.906 73.4796 292.664 73.1861C292.422 72.8852 292.102 72.6467 291.706 72.4705C291.317 72.287 290.851 72.1953 290.308 72.1953C289.581 72.1953 288.969 72.3494 288.47 72.6577C287.971 72.9586 287.721 73.3622 287.721 73.8686C287.721 74.2723 287.883 74.6135 288.205 74.8924C288.528 75.1713 289.082 75.3951 289.868 75.5639L292.928 76.1804C294.572 76.518 295.798 77.0611 296.605 77.8097C297.412 78.5582 297.816 79.5417 297.816 80.7599C297.816 81.8681 297.489 82.8406 296.836 83.6772C296.19 84.5138 295.302 85.167 294.172 85.6367C293.049 86.0991 291.754 86.3303 290.286 86.3303C288.048 86.3303 286.264 85.8642 284.936 84.9322C283.615 83.9928 282.841 82.7158 282.613 81.1012L287.226 80.859C287.365 81.5415 287.703 82.0626 288.238 82.4222C288.774 82.7745 289.46 82.9506 290.297 82.9506C291.119 82.9506 291.78 82.7929 292.279 82.4773C292.785 82.1544 293.042 81.7397 293.049 81.2333C293.042 80.8076 292.862 80.459 292.51 80.1875C292.157 79.9086 291.614 79.6958 290.881 79.549L287.952 78.9656C286.301 78.6353 285.072 78.0629 284.264 77.2482C283.464 76.4336 283.064 75.3951 283.064 74.1328C283.064 73.0466 283.358 72.1109 283.945 71.3256C284.54 70.5404 285.373 69.9349 286.444 69.5092C287.523 69.0836 288.785 68.8707 290.231 68.8707C292.367 68.8707 294.047 69.3221 295.273 70.2248C296.506 71.1275 297.225 72.3568 297.431 73.9126ZM300.769 86V69.0909H305.459V86H300.769ZM303.125 66.9112C302.428 66.9112 301.829 66.68 301.33 66.2177C300.839 65.748 300.593 65.1866 300.593 64.5334C300.593 63.8875 300.839 63.3335 301.33 62.8711C301.829 62.4014 302.428 62.1665 303.125 62.1665C303.822 62.1665 304.416 62.4014 304.908 62.8711C305.407 63.3335 305.657 63.8875 305.657 64.5334C305.657 65.1866 305.407 65.748 304.908 66.2177C304.416 66.68 303.822 66.9112 303.125 66.9112ZM318.209 69.0909V72.6136H308.026V69.0909H318.209ZM310.338 65.0398H315.028V80.804C315.028 81.237 315.094 81.5746 315.226 81.8168C315.358 82.0516 315.541 82.2167 315.776 82.3121C316.018 82.4076 316.297 82.4553 316.613 82.4553C316.833 82.4553 317.053 82.4369 317.273 82.4002C317.494 82.3562 317.662 82.3232 317.78 82.3011L318.517 85.7908C318.283 85.8642 317.952 85.9486 317.527 86.044C317.101 86.1468 316.584 86.2092 315.974 86.2312C314.844 86.2752 313.853 86.1248 313.002 85.7798C312.158 85.4349 311.501 84.8991 311.032 84.1726C310.562 83.446 310.331 82.5286 310.338 81.4205V65.0398ZM324.159 92.3409C323.565 92.3409 323.007 92.2932 322.486 92.1978C321.972 92.1097 321.547 91.996 321.209 91.8565L322.266 88.3558C322.816 88.5246 323.312 88.6164 323.752 88.631C324.2 88.6457 324.585 88.543 324.908 88.3228C325.238 88.1026 325.506 87.7283 325.711 87.1999L325.987 86.4844L319.921 69.0909H324.853L328.354 81.5085H328.53L332.063 69.0909H337.028L330.456 87.8274C330.141 88.7375 329.711 89.5301 329.168 90.2053C328.632 90.8878 327.954 91.4125 327.132 91.7795C326.31 92.1538 325.319 92.3409 324.159 92.3409Z" fill="white"/>
<g clip-path="url(#clip0_1612_15298)">
<rect x="120" y="120" width="240" height="240" rx="8" fill="#F5F5F5"/>
<path d="M120 130H360" stroke="#D8D8D9" stroke-width="0.5"/>
<path d="M130 120V360" stroke="#D8D8D9" stroke-width="0.5"/>
<path d="M120 140H360" stroke="#D8D8D9" stroke-width="0.5"/>
<path d="M140 120V360" stroke="#D8D8D9" stroke-width="0.5"/>
<path d="M120 150H360" stroke="#D8D8D9" stroke-width="0.5"/>
<path d="M150 120V360" stroke="#D8D8D9" stroke-width="0.5"/>
<path d="M120 160H360" stroke="#D8D8D9" stroke-width="0.5"/>
<path d="M160 120V360" stroke="#D8D8D9" stroke-width="0.5"/>
<path d="M120 170H360" stroke="#D8D8D9" stroke-width="0.5"/>
<path d="M170 120V360" stroke="#D8D8D9" stroke-width="0.5"/>
<path d="M120 180H360" stroke="#D8D8D9" stroke-width="0.5"/>
<path d="M180 120V360" stroke="#D8D8D9" stroke-width="0.5"/>
<path d="M120 190H360" stroke="#D8D8D9" stroke-width="0.5"/>
<path d="M190 120V360" stroke="#D8D8D9" stroke-width="0.5"/>
<path d="M120 200H360" stroke="#D8D8D9" stroke-width="0.5"/>
<path d="M200 120V360" stroke="#D8D8D9" stroke-width="0.5"/>
<path d="M120 210H360" stroke="#D8D8D9" stroke-width="0.5"/>
<path d="M210 120V360" stroke="#D8D8D9" stroke-width="0.5"/>
<path d="M120 220H360" stroke="#D8D8D9" stroke-width="0.5"/>
<path d="M220 120V360" stroke="#D8D8D9" stroke-width="0.5"/>
<path d="M120 230H360" stroke="#D8D8D9" stroke-width="0.5"/>
<path d="M230 120V360" stroke="#D8D8D9" stroke-width="0.5"/>
<path d="M120 240H360" stroke="#D8D8D9" stroke-width="0.5"/>
<path d="M240 120V360" stroke="#D8D8D9" stroke-width="0.5"/>
<path d="M120 250H360" stroke="#D8D8D9" stroke-width="0.5"/>
<path d="M250 120V360" stroke="#D8D8D9" stroke-width="0.5"/>
<path d="M120 260H360" stroke="#D8D8D9" stroke-width="0.5"/>
<path d="M260 120V360" stroke="#D8D8D9" stroke-width="0.5"/>
<path d="M120 270H360" stroke="#D8D8D9" stroke-width="0.5"/>
<path d="M270 120V360" stroke="#D8D8D9" stroke-width="0.5"/>
<path d="M120 280H360" stroke="#D8D8D9" stroke-width="0.5"/>
<path d="M280 120V360" stroke="#D8D8D9" stroke-width="0.5"/>
<path d="M120 290H360" stroke="#D8D8D9" stroke-width="0.5"/>
<path d="M290 120V360" stroke="#D8D8D9" stroke-width="0.5"/>
<path d="M120 300H360" stroke="#D8D8D9" stroke-width="0.5"/>
<path d="M300 120V360" stroke="#D8D8D9" stroke-width="0.5"/>
<path d="M120 310H360" stroke="#D8D8D9" stroke-width="0.5"/>
<path d="M310 120V360" stroke="#D8D8D9" stroke-width="0.5"/>
<path d="M120 320H360" stroke="#D8D8D9" stroke-width="0.5"/>
<path d="M320 120V360" stroke="#D8D8D9" stroke-width="0.5"/>
<path d="M120 330H360" stroke="#D8D8D9" stroke-width="0.5"/>
<path d="M330 120V360" stroke="#D8D8D9" stroke-width="0.5"/>
<path d="M120 340H360" stroke="#D8D8D9" stroke-width="0.5"/>
<path d="M340 120V360" stroke="#D8D8D9" stroke-width="0.5"/>
<path d="M120 350H360" stroke="#D8D8D9" stroke-width="0.5"/>
<path d="M350 120V360" stroke="#D8D8D9" stroke-width="0.5"/>
</g>
<g id="embed-lucide-calendar-days" stroke="#3C3C43" stroke-width="2" stroke-linecap="round" stroke-linejoin="round" transform="translate(120 120), scale(10)">
  <path d="M8 2v4" />
  <path d="M16 2v4" />
  <rect width="18" height="18" x="3" y="4" rx="2" />
  <path d="M3 10h18" />
  <path d="M8 14h.01" />
  <path d="M12 14h.01" />
  <path d="M16 14h.01" />
  <path d="M8 18h.01" />
  <path d="M12 18h.01" />
  <path d="M16 18h.01" />
</g>
<defs>
<clipPath id="clip0_1612_15298">
<rect x="120" y="120" width="240" height="240" rx="8" fill="white"/>
</clipPath>
</defs>
</svg>
