<svg width="480" height="480" viewBox="0 0 480 480" fill="none" xmlns="http://www.w3.org/2000/svg">
<rect width="480" height="480" fill="#3C3C43"/>
<path d="M197 392.5L185 404.5" stroke="#F45F7A" stroke-width="3" stroke-linecap="round" stroke-linejoin="round"/>
<path d="M185 392.5L197 404.5" stroke="#F45F7A" stroke-width="3" stroke-linecap="round" stroke-linejoin="round"/>
<path d="M221.071 410H213.079V387.455H221.137C223.405 387.455 225.357 387.906 226.994 388.809C228.631 389.704 229.889 390.992 230.77 392.673C231.658 394.353 232.102 396.364 232.102 398.705C232.102 401.054 231.658 403.072 230.77 404.76C229.889 406.448 228.623 407.743 226.972 408.646C225.328 409.549 223.361 410 221.071 410ZM217.846 405.916H220.873C222.282 405.916 223.468 405.666 224.429 405.167C225.398 404.661 226.124 403.879 226.609 402.822C227.1 401.758 227.346 400.386 227.346 398.705C227.346 397.039 227.1 395.678 226.609 394.621C226.124 393.564 225.401 392.786 224.44 392.287C223.479 391.788 222.293 391.539 220.884 391.539H217.846V405.916ZM243.185 410.33C241.475 410.33 239.996 409.967 238.748 409.24C237.508 408.507 236.55 407.486 235.875 406.18C235.2 404.866 234.862 403.344 234.862 401.612C234.862 399.865 235.2 398.338 235.875 397.032C236.55 395.718 237.508 394.698 238.748 393.972C239.996 393.238 241.475 392.871 243.185 392.871C244.895 392.871 246.37 393.238 247.61 393.972C248.858 394.698 249.819 395.718 250.494 397.032C251.17 398.338 251.507 399.865 251.507 401.612C251.507 403.344 251.17 404.866 250.494 406.18C249.819 407.486 248.858 408.507 247.61 409.24C246.37 409.967 244.895 410.33 243.185 410.33ZM243.207 406.697C243.985 406.697 244.634 406.477 245.155 406.037C245.676 405.589 246.069 404.98 246.333 404.21C246.605 403.439 246.74 402.562 246.74 401.578C246.74 400.595 246.605 399.718 246.333 398.947C246.069 398.177 245.676 397.568 245.155 397.12C244.634 396.672 243.985 396.449 243.207 396.449C242.421 396.449 241.761 396.672 241.225 397.12C240.697 397.568 240.297 398.177 240.025 398.947C239.761 399.718 239.629 400.595 239.629 401.578C239.629 402.562 239.761 403.439 240.025 404.21C240.297 404.98 240.697 405.589 241.225 406.037C241.761 406.477 242.421 406.697 243.207 406.697ZM259.246 400.224V410H254.557V393.091H259.026V396.074H259.224C259.598 395.091 260.226 394.313 261.107 393.74C261.987 393.161 263.055 392.871 264.31 392.871C265.484 392.871 266.508 393.128 267.381 393.641C268.255 394.155 268.934 394.889 269.418 395.843C269.902 396.79 270.145 397.92 270.145 399.234V410H265.455V400.07C265.462 399.036 265.198 398.228 264.662 397.648C264.127 397.061 263.389 396.768 262.45 396.768C261.818 396.768 261.261 396.904 260.776 397.175C260.299 397.447 259.925 397.843 259.653 398.364C259.389 398.878 259.253 399.498 259.246 400.224ZM277.771 387.455V389.832C277.771 390.508 277.639 391.197 277.374 391.902C277.118 392.599 276.773 393.26 276.34 393.884C275.907 394.5 275.433 395.025 274.92 395.458L272.85 394.236C273.217 393.656 273.54 393.014 273.819 392.309C274.105 391.605 274.248 390.786 274.248 389.854V387.455H277.771ZM290.464 393.091V396.614H280.281V393.091H290.464ZM282.592 389.04H287.282V404.804C287.282 405.237 287.348 405.575 287.48 405.817C287.612 406.052 287.796 406.217 288.031 406.312C288.273 406.408 288.552 406.455 288.867 406.455C289.087 406.455 289.308 406.437 289.528 406.4C289.748 406.356 289.917 406.323 290.034 406.301L290.772 409.791C290.537 409.864 290.207 409.949 289.781 410.044C289.355 410.147 288.838 410.209 288.229 410.231C287.099 410.275 286.108 410.125 285.257 409.78C284.413 409.435 283.756 408.899 283.286 408.173C282.816 407.446 282.585 406.529 282.592 405.42V389.04ZM296.26 410.286C295.533 410.286 294.909 410.029 294.388 409.516C293.874 408.995 293.617 408.371 293.617 407.644C293.617 406.925 293.874 406.308 294.388 405.795C294.909 405.281 295.533 405.024 296.26 405.024C296.964 405.024 297.581 405.281 298.109 405.795C298.637 406.308 298.902 406.925 298.902 407.644C298.902 408.129 298.777 408.573 298.527 408.976C298.285 409.373 297.966 409.692 297.57 409.934C297.173 410.169 296.737 410.286 296.26 410.286Z" fill="#F45F7A"/>
<path d="M163.147 67.3846V63.4545H181.664V67.3846H174.761V86H170.05V67.3846H163.147ZM189.813 86.3303C188.103 86.3303 186.624 85.967 185.376 85.2404C184.136 84.5065 183.178 83.4864 182.503 82.18C181.828 80.8664 181.49 79.3435 181.49 77.6115C181.49 75.8648 181.828 74.3383 182.503 73.032C183.178 71.7183 184.136 70.6982 185.376 69.9716C186.624 69.2377 188.103 68.8707 189.813 68.8707C191.523 68.8707 192.998 69.2377 194.238 69.9716C195.486 70.6982 196.447 71.7183 197.122 73.032C197.797 74.3383 198.135 75.8648 198.135 77.6115C198.135 79.3435 197.797 80.8664 197.122 82.18C196.447 83.4864 195.486 84.5065 194.238 85.2404C192.998 85.967 191.523 86.3303 189.813 86.3303ZM189.835 82.6974C190.613 82.6974 191.262 82.4773 191.783 82.0369C192.304 81.5893 192.697 80.9801 192.961 80.2095C193.233 79.4389 193.368 78.5619 193.368 77.5785C193.368 76.5951 193.233 75.718 192.961 74.9474C192.697 74.1768 192.304 73.5677 191.783 73.12C191.262 72.6723 190.613 72.4485 189.835 72.4485C189.049 72.4485 188.389 72.6723 187.853 73.12C187.325 73.5677 186.925 74.1768 186.653 74.9474C186.389 75.718 186.257 76.5951 186.257 77.5785C186.257 78.5619 186.389 79.4389 186.653 80.2095C186.925 80.9801 187.325 81.5893 187.853 82.0369C188.389 82.4773 189.049 82.6974 189.835 82.6974ZM208.824 86.3303C207.114 86.3303 205.636 85.967 204.388 85.2404C203.148 84.5065 202.19 83.4864 201.515 82.18C200.84 80.8664 200.502 79.3435 200.502 77.6115C200.502 75.8648 200.84 74.3383 201.515 73.032C202.19 71.7183 203.148 70.6982 204.388 69.9716C205.636 69.2377 207.114 68.8707 208.824 68.8707C210.534 68.8707 212.009 69.2377 213.25 69.9716C214.497 70.6982 215.459 71.7183 216.134 73.032C216.809 74.3383 217.147 75.8648 217.147 77.6115C217.147 79.3435 216.809 80.8664 216.134 82.18C215.459 83.4864 214.497 84.5065 213.25 85.2404C212.009 85.967 210.534 86.3303 208.824 86.3303ZM208.846 82.6974C209.624 82.6974 210.274 82.4773 210.795 82.0369C211.316 81.5893 211.709 80.9801 211.973 80.2095C212.244 79.4389 212.38 78.5619 212.38 77.5785C212.38 76.5951 212.244 75.718 211.973 74.9474C211.709 74.1768 211.316 73.5677 210.795 73.12C210.274 72.6723 209.624 72.4485 208.846 72.4485C208.061 72.4485 207.401 72.6723 206.865 73.12C206.336 73.5677 205.936 74.1768 205.665 74.9474C205.401 75.718 205.269 76.5951 205.269 77.5785C205.269 78.5619 205.401 79.4389 205.665 80.2095C205.936 80.9801 206.336 81.5893 206.865 82.0369C207.401 82.4773 208.061 82.6974 208.846 82.6974ZM233.602 86.2752C232.317 86.2752 231.154 85.945 230.112 85.2844C229.077 84.6166 228.255 83.6368 227.646 82.3452C227.044 81.0462 226.743 79.4536 226.743 77.5675C226.743 75.63 227.055 74.0191 227.679 72.7347C228.303 71.4431 229.132 70.478 230.167 69.8395C231.209 69.1937 232.35 68.8707 233.591 68.8707C234.538 68.8707 235.326 69.0322 235.958 69.3551C236.596 69.6707 237.11 70.067 237.499 70.544C237.895 71.0137 238.196 71.4761 238.402 71.9311H238.545V63.4545H243.223V86H238.6V83.2919H238.402C238.181 83.7616 237.869 84.2276 237.466 84.69C237.069 85.145 236.552 85.523 235.914 85.8239C235.282 86.1248 234.512 86.2752 233.602 86.2752ZM235.088 82.5433C235.844 82.5433 236.482 82.3378 237.003 81.9268C237.532 81.5085 237.935 80.9251 238.214 80.1765C238.501 79.4279 238.644 78.5509 238.644 77.5455C238.644 76.54 238.504 75.6667 238.225 74.9254C237.946 74.1842 237.543 73.6117 237.014 73.2081C236.486 72.8045 235.844 72.6026 235.088 72.6026C234.317 72.6026 233.668 72.8118 233.139 73.2301C232.611 73.6484 232.211 74.2282 231.939 74.9695C231.668 75.7107 231.532 76.5694 231.532 77.5455C231.532 78.5289 231.668 79.3986 231.939 80.1545C232.218 80.9031 232.618 81.4902 233.139 81.9158C233.668 82.3342 234.317 82.5433 235.088 82.5433ZM254.785 86.3303C253.046 86.3303 251.548 85.978 250.293 85.2734C249.046 84.5616 248.084 83.5561 247.409 82.2571C246.734 80.9508 246.396 79.4059 246.396 77.6225C246.396 75.8832 246.734 74.3567 247.409 73.043C248.084 71.7293 249.035 70.7055 250.26 69.9716C251.493 69.2377 252.939 68.8707 254.598 68.8707C255.713 68.8707 256.752 69.0505 257.713 69.4102C258.682 69.7624 259.526 70.2945 260.245 71.0064C260.972 71.7183 261.537 72.6136 261.94 73.6925C262.344 74.764 262.546 76.0189 262.546 77.4574V78.7454H248.268V75.8391H258.132C258.132 75.1639 257.985 74.5658 257.691 74.0447C257.398 73.5237 256.99 73.1164 256.469 72.8228C255.956 72.5219 255.357 72.3714 254.675 72.3714C253.963 72.3714 253.332 72.5366 252.781 72.8668C252.238 73.1897 251.813 73.6264 251.504 74.1768C251.196 74.7199 251.038 75.3254 251.031 75.9933V78.7564C251.031 79.593 251.185 80.3159 251.493 80.9251C251.809 81.5342 252.253 82.0039 252.825 82.3342C253.398 82.6644 254.077 82.8295 254.862 82.8295C255.383 82.8295 255.86 82.7562 256.293 82.6094C256.726 82.4626 257.097 82.2424 257.405 81.9489C257.713 81.6553 257.948 81.2957 258.11 80.87L262.447 81.1562C262.227 82.1984 261.775 83.1084 261.093 83.8864C260.418 84.657 259.544 85.2588 258.473 85.6918C257.409 86.1174 256.179 86.3303 254.785 86.3303ZM270.296 76.2244V86H265.606V69.0909H270.076V72.0742H270.274C270.648 71.0908 271.276 70.3129 272.156 69.7404C273.037 69.1606 274.105 68.8707 275.36 68.8707C276.534 68.8707 277.558 69.1276 278.431 69.6413C279.305 70.1551 279.983 70.889 280.468 71.843C280.952 72.7898 281.194 73.92 281.194 75.2337V86H276.505V76.0703C276.512 75.0355 276.248 74.2282 275.712 73.6484C275.176 73.0613 274.439 72.7678 273.499 72.7678C272.868 72.7678 272.311 72.9035 271.826 73.1751C271.349 73.4466 270.975 73.8429 270.703 74.364C270.439 74.8777 270.303 75.4979 270.296 76.2244ZM298.959 73.9126L294.666 74.1768C294.593 73.8099 294.435 73.4796 294.193 73.1861C293.951 72.8852 293.631 72.6467 293.235 72.4705C292.846 72.287 292.38 72.1953 291.837 72.1953C291.11 72.1953 290.497 72.3494 289.998 72.6577C289.499 72.9586 289.25 73.3622 289.25 73.8686C289.25 74.2723 289.411 74.6135 289.734 74.8924C290.057 75.1713 290.611 75.3951 291.397 75.5639L294.457 76.1804C296.101 76.518 297.326 77.0611 298.134 77.8097C298.941 78.5582 299.345 79.5417 299.345 80.7599C299.345 81.8681 299.018 82.8406 298.365 83.6772C297.719 84.5138 296.831 85.167 295.701 85.6367C294.578 86.0991 293.283 86.3303 291.815 86.3303C289.576 86.3303 287.793 85.8642 286.465 84.9322C285.144 83.9928 284.369 82.7158 284.142 81.1012L288.754 80.859C288.894 81.5415 289.232 82.0626 289.767 82.4222C290.303 82.7745 290.989 82.9506 291.826 82.9506C292.648 82.9506 293.308 82.7929 293.807 82.4773C294.314 82.1544 294.571 81.7397 294.578 81.2333C294.571 80.8076 294.391 80.459 294.039 80.1875C293.686 79.9086 293.143 79.6958 292.409 79.549L289.481 78.9656C287.83 78.6353 286.6 78.0629 285.793 77.2482C284.993 76.4336 284.593 75.3951 284.593 74.1328C284.593 73.0466 284.887 72.1109 285.474 71.3256C286.068 70.5404 286.901 69.9349 287.973 69.5092C289.052 69.0836 290.314 68.8707 291.76 68.8707C293.895 68.8707 295.576 69.3221 296.802 70.2248C298.035 71.1275 298.754 72.3568 298.959 73.9126ZM310.004 86.3303C308.264 86.3303 306.767 85.978 305.512 85.2734C304.265 84.5616 303.303 83.5561 302.628 82.2571C301.953 80.9508 301.615 79.4059 301.615 77.6225C301.615 75.8832 301.953 74.3567 302.628 73.043C303.303 71.7293 304.254 70.7055 305.479 69.9716C306.712 69.2377 308.158 68.8707 309.817 68.8707C310.932 68.8707 311.971 69.0505 312.932 69.4102C313.901 69.7624 314.745 70.2945 315.464 71.0064C316.19 71.7183 316.756 72.6136 317.159 73.6925C317.563 74.764 317.765 76.0189 317.765 77.4574V78.7454H303.487V75.8391H313.35C313.35 75.1639 313.203 74.5658 312.91 74.0447C312.616 73.5237 312.209 73.1164 311.688 72.8228C311.174 72.5219 310.576 72.3714 309.894 72.3714C309.182 72.3714 308.551 72.5366 308 72.8668C307.457 73.1897 307.031 73.6264 306.723 74.1768C306.415 74.7199 306.257 75.3254 306.25 75.9933V78.7564C306.25 79.593 306.404 80.3159 306.712 80.9251C307.028 81.5342 307.472 82.0039 308.044 82.3342C308.617 82.6644 309.295 82.8295 310.081 82.8295C310.602 82.8295 311.079 82.7562 311.512 82.6094C311.945 82.4626 312.315 82.2424 312.624 81.9489C312.932 81.6553 313.167 81.2957 313.328 80.87L317.666 81.1562C317.445 82.1984 316.994 83.1084 316.312 83.8864C315.636 84.657 314.763 85.2588 313.692 85.6918C312.627 86.1174 311.398 86.3303 310.004 86.3303Z" fill="white"/>
<g clip-path="url(#clip0_1612_15359)">
<rect x="120" y="120" width="240" height="240" rx="8" fill="#F5F5F5"/>
<path d="M120 130H360" stroke="#D8D8D9" stroke-width="0.5"/>
<path d="M130 120V360" stroke="#D8D8D9" stroke-width="0.5"/>
<path d="M120 140H360" stroke="#D8D8D9" stroke-width="0.5"/>
<path d="M140 120V360" stroke="#D8D8D9" stroke-width="0.5"/>
<path d="M120 150H360" stroke="#D8D8D9" stroke-width="0.5"/>
<path d="M150 120V360" stroke="#D8D8D9" stroke-width="0.5"/>
<path d="M120 160H360" stroke="#D8D8D9" stroke-width="0.5"/>
<path d="M160 120V360" stroke="#D8D8D9" stroke-width="0.5"/>
<path d="M120 170H360" stroke="#D8D8D9" stroke-width="0.5"/>
<path d="M170 120V360" stroke="#D8D8D9" stroke-width="0.5"/>
<path d="M120 180H360" stroke="#D8D8D9" stroke-width="0.5"/>
<path d="M180 120V360" stroke="#D8D8D9" stroke-width="0.5"/>
<path d="M120 190H360" stroke="#D8D8D9" stroke-width="0.5"/>
<path d="M190 120V360" stroke="#D8D8D9" stroke-width="0.5"/>
<path d="M120 200H360" stroke="#D8D8D9" stroke-width="0.5"/>
<path d="M200 120V360" stroke="#D8D8D9" stroke-width="0.5"/>
<path d="M120 210H360" stroke="#D8D8D9" stroke-width="0.5"/>
<path d="M210 120V360" stroke="#D8D8D9" stroke-width="0.5"/>
<path d="M120 220H360" stroke="#D8D8D9" stroke-width="0.5"/>
<path d="M220 120V360" stroke="#D8D8D9" stroke-width="0.5"/>
<path d="M120 230H360" stroke="#D8D8D9" stroke-width="0.5"/>
<path d="M230 120V360" stroke="#D8D8D9" stroke-width="0.5"/>
<path d="M120 240H360" stroke="#D8D8D9" stroke-width="0.5"/>
<path d="M240 120V360" stroke="#D8D8D9" stroke-width="0.5"/>
<path d="M120 250H360" stroke="#D8D8D9" stroke-width="0.5"/>
<path d="M250 120V360" stroke="#D8D8D9" stroke-width="0.5"/>
<path d="M120 260H360" stroke="#D8D8D9" stroke-width="0.5"/>
<path d="M260 120V360" stroke="#D8D8D9" stroke-width="0.5"/>
<path d="M120 270H360" stroke="#D8D8D9" stroke-width="0.5"/>
<path d="M270 120V360" stroke="#D8D8D9" stroke-width="0.5"/>
<path d="M120 280H360" stroke="#D8D8D9" stroke-width="0.5"/>
<path d="M280 120V360" stroke="#D8D8D9" stroke-width="0.5"/>
<path d="M120 290H360" stroke="#D8D8D9" stroke-width="0.5"/>
<path d="M290 120V360" stroke="#D8D8D9" stroke-width="0.5"/>
<path d="M120 300H360" stroke="#D8D8D9" stroke-width="0.5"/>
<path d="M300 120V360" stroke="#D8D8D9" stroke-width="0.5"/>
<path d="M120 310H360" stroke="#D8D8D9" stroke-width="0.5"/>
<path d="M310 120V360" stroke="#D8D8D9" stroke-width="0.5"/>
<path d="M120 320H360" stroke="#D8D8D9" stroke-width="0.5"/>
<path d="M320 120V360" stroke="#D8D8D9" stroke-width="0.5"/>
<path d="M120 330H360" stroke="#D8D8D9" stroke-width="0.5"/>
<path d="M330 120V360" stroke="#D8D8D9" stroke-width="0.5"/>
<path d="M120 340H360" stroke="#D8D8D9" stroke-width="0.5"/>
<path d="M340 120V360" stroke="#D8D8D9" stroke-width="0.5"/>
<path d="M120 350H360" stroke="#D8D8D9" stroke-width="0.5"/>
<path d="M350 120V360" stroke="#D8D8D9" stroke-width="0.5"/>
</g>
<path d="M320 160H160C148.954 160 140 168.954 140 180V320C140 331.046 148.954 340 160 340H320C331.046 340 340 331.046 340 320V180C340 168.954 331.046 160 320 160Z" stroke="#3C3C43" stroke-width="20" stroke-linecap="round" stroke-linejoin="round"/>
<path d="M290 140V180" stroke="#3C3C43" stroke-width="20" stroke-linecap="round" stroke-linejoin="round"/>
<path d="M190 140V180" stroke="#3C3C43" stroke-width="20" stroke-linecap="round" stroke-linejoin="round"/>
<path d="M150 220H330" stroke="#3C3C43" stroke-width="20" stroke-linecap="round" stroke-linejoin="round"/>
<path d="M180 220V340" stroke="#3C3C43" stroke-width="20" stroke-linecap="round" stroke-linejoin="round"/>
<path d="M330 260L150 260" stroke="#3C3C43" stroke-width="20" stroke-linecap="round" stroke-linejoin="round"/>
<path d="M330 300L150 300" stroke="#3C3C43" stroke-width="20" stroke-linecap="round" stroke-linejoin="round"/>
<path d="M220 220V340" stroke="#3C3C43" stroke-width="20" stroke-linecap="round" stroke-linejoin="round"/>
<path d="M260 220V340" stroke="#3C3C43" stroke-width="20" stroke-linecap="round" stroke-linejoin="round"/>
<path d="M300 220V340" stroke="#3C3C43" stroke-width="20" stroke-linecap="round" stroke-linejoin="round"/>
<defs>
<clipPath id="clip0_1612_15359">
<rect x="120" y="120" width="240" height="240" rx="8" fill="white"/>
</clipPath>
</defs>
</svg>
