<svg width="480" height="480" viewBox="0 0 480 480" fill="none" xmlns="http://www.w3.org/2000/svg">
<rect width="480" height="480" fill="#3C3C43"/>
<path d="M219 396.5L208 407.5L203 402.5" stroke="#36EA83" stroke-width="3" stroke-linecap="round" stroke-linejoin="round"/>
<path d="M241.052 414H233.06V391.455H241.118C243.386 391.455 245.338 391.906 246.975 392.809C248.611 393.704 249.87 394.992 250.751 396.673C251.639 398.353 252.083 400.364 252.083 402.705C252.083 405.054 251.639 407.072 250.751 408.76C249.87 410.448 248.604 411.743 246.953 412.646C245.309 413.549 243.342 414 241.052 414ZM237.827 409.916H240.854C242.263 409.916 243.448 409.666 244.41 409.167C245.379 408.661 246.105 407.879 246.59 406.822C247.081 405.758 247.327 404.386 247.327 402.705C247.327 401.039 247.081 399.678 246.59 398.621C246.105 397.564 245.382 396.786 244.421 396.287C243.459 395.788 242.274 395.539 240.865 395.539H237.827V409.916ZM263.166 414.33C261.456 414.33 259.977 413.967 258.729 413.24C257.489 412.507 256.531 411.486 255.856 410.18C255.181 408.866 254.843 407.344 254.843 405.612C254.843 403.865 255.181 402.338 255.856 401.032C256.531 399.718 257.489 398.698 258.729 397.972C259.977 397.238 261.456 396.871 263.166 396.871C264.876 396.871 266.351 397.238 267.591 397.972C268.839 398.698 269.8 399.718 270.475 401.032C271.151 402.338 271.488 403.865 271.488 405.612C271.488 407.344 271.151 408.866 270.475 410.18C269.8 411.486 268.839 412.507 267.591 413.24C266.351 413.967 264.876 414.33 263.166 414.33ZM263.188 410.697C263.966 410.697 264.615 410.477 265.136 410.037C265.657 409.589 266.05 408.98 266.314 408.21C266.586 407.439 266.721 406.562 266.721 405.578C266.721 404.595 266.586 403.718 266.314 402.947C266.05 402.177 265.657 401.568 265.136 401.12C264.615 400.672 263.966 400.449 263.188 400.449C262.402 400.449 261.742 400.672 261.206 401.12C260.678 401.568 260.278 402.177 260.006 402.947C259.742 403.718 259.61 404.595 259.61 405.578C259.61 406.562 259.742 407.439 260.006 408.21C260.278 408.98 260.678 409.589 261.206 410.037C261.742 410.477 262.402 410.697 263.188 410.697ZM277.279 414.286C276.552 414.286 275.928 414.029 275.407 413.516C274.893 412.995 274.637 412.371 274.637 411.644C274.637 410.925 274.893 410.308 275.407 409.795C275.928 409.281 276.552 409.024 277.279 409.024C277.983 409.024 278.6 409.281 279.128 409.795C279.656 410.308 279.921 410.925 279.921 411.644C279.921 412.129 279.796 412.573 279.546 412.976C279.304 413.373 278.985 413.692 278.589 413.934C278.192 414.169 277.756 414.286 277.279 414.286Z" fill="#36EA83"/>
<path d="M95.9196 63.4545V86H91.1529V63.4545H95.9196ZM105.984 86.2752C104.7 86.2752 103.537 85.945 102.494 85.2844C101.46 84.6166 100.638 83.6368 100.028 82.3452C99.4267 81.0462 99.1258 79.4536 99.1258 77.5675C99.1258 75.63 99.4377 74.0191 100.062 72.7347C100.685 71.4431 101.515 70.478 102.549 69.8395C103.592 69.1937 104.733 68.8707 105.973 68.8707C106.92 68.8707 107.709 69.0322 108.34 69.3551C108.978 69.6707 109.492 70.067 109.881 70.544C110.277 71.0137 110.578 71.4761 110.784 71.9311H110.927V63.4545H115.606V86H110.982V83.2919H110.784C110.564 83.7616 110.252 84.2276 109.848 84.69C109.452 85.145 108.934 85.523 108.296 85.8239C107.665 86.1248 106.894 86.2752 105.984 86.2752ZM107.47 82.5433C108.226 82.5433 108.865 82.3378 109.386 81.9268C109.914 81.5085 110.318 80.9251 110.597 80.1765C110.883 79.4279 111.026 78.5509 111.026 77.5455C111.026 76.54 110.887 75.6667 110.608 74.9254C110.329 74.1842 109.925 73.6117 109.397 73.2081C108.868 72.8045 108.226 72.6026 107.47 72.6026C106.7 72.6026 106.05 72.8118 105.522 73.2301C104.993 73.6484 104.593 74.2282 104.322 74.9695C104.05 75.7107 103.915 76.5694 103.915 77.5455C103.915 78.5289 104.05 79.3986 104.322 80.1545C104.601 80.9031 105.001 81.4902 105.522 81.9158C106.05 82.3342 106.7 82.5433 107.47 82.5433ZM127.167 86.3303C125.428 86.3303 123.931 85.978 122.676 85.2734C121.428 84.5616 120.467 83.5561 119.792 82.2571C119.116 80.9508 118.779 79.4059 118.779 77.6225C118.779 75.8832 119.116 74.3567 119.792 73.043C120.467 71.7293 121.417 70.7055 122.643 69.9716C123.876 69.2377 125.321 68.8707 126.98 68.8707C128.096 68.8707 129.134 69.0505 130.096 69.4102C131.064 69.7624 131.908 70.2945 132.627 71.0064C133.354 71.7183 133.919 72.6136 134.323 73.6925C134.726 74.764 134.928 76.0189 134.928 77.4574V78.7454H120.65V75.8391H130.514C130.514 75.1639 130.367 74.5658 130.074 74.0447C129.78 73.5237 129.373 73.1164 128.852 72.8228C128.338 72.5219 127.74 72.3714 127.057 72.3714C126.345 72.3714 125.714 72.5366 125.164 72.8668C124.621 73.1897 124.195 73.6264 123.887 74.1768C123.578 74.7199 123.421 75.3254 123.413 75.9933V78.7564C123.413 79.593 123.567 80.3159 123.876 80.9251C124.191 81.5342 124.635 82.0039 125.208 82.3342C125.78 82.6644 126.459 82.8295 127.244 82.8295C127.765 82.8295 128.242 82.7562 128.675 82.6094C129.108 82.4626 129.479 82.2424 129.787 81.9489C130.096 81.6553 130.33 81.2957 130.492 80.87L134.829 81.1562C134.609 82.1984 134.158 83.1084 133.475 83.8864C132.8 84.657 131.927 85.2588 130.855 85.6918C129.791 86.1174 128.562 86.3303 127.167 86.3303ZM142.81 86.3192C141.732 86.3192 140.77 86.1321 139.926 85.7578C139.082 85.3762 138.414 84.8147 137.923 84.0735C137.438 83.3249 137.196 82.3929 137.196 81.2773C137.196 80.3379 137.368 79.549 137.713 78.9105C138.058 78.272 138.528 77.7583 139.123 77.3693C139.717 76.9804 140.392 76.6868 141.148 76.4886C141.911 76.2905 142.711 76.151 143.548 76.0703C144.531 75.9676 145.324 75.8722 145.926 75.7841C146.528 75.6887 146.964 75.5492 147.236 75.3658C147.507 75.1823 147.643 74.9107 147.643 74.5511V74.4851C147.643 73.7879 147.423 73.2485 146.983 72.8668C146.55 72.4852 145.933 72.2944 145.133 72.2944C144.289 72.2944 143.618 72.4815 143.119 72.8558C142.62 73.2228 142.289 73.6851 142.128 74.2429L137.79 73.8906C138.011 72.8632 138.444 71.9751 139.089 71.2266C139.735 70.4706 140.568 69.8909 141.588 69.4872C142.616 69.0762 143.805 68.8707 145.155 68.8707C146.095 68.8707 146.994 68.9808 147.852 69.201C148.718 69.4212 149.485 69.7624 150.153 70.2248C150.828 70.6871 151.36 71.2816 151.749 72.0082C152.138 72.7274 152.333 73.5897 152.333 74.5952V86H147.885V83.6552H147.753C147.482 84.1836 147.118 84.6496 146.663 85.0533C146.208 85.4496 145.662 85.7615 145.023 85.989C144.385 86.2092 143.647 86.3192 142.81 86.3192ZM144.153 83.0827C144.843 83.0827 145.452 82.947 145.981 82.6754C146.509 82.3965 146.924 82.0223 147.225 81.5526C147.526 81.0829 147.676 80.5508 147.676 79.9563V78.1619C147.529 78.2573 147.328 78.3454 147.071 78.4261C146.821 78.4995 146.539 78.5692 146.223 78.6353C145.907 78.694 145.592 78.7491 145.276 78.8004C144.961 78.8445 144.674 78.8848 144.418 78.9215C143.867 79.0022 143.386 79.1307 142.975 79.3068C142.565 79.483 142.245 79.7215 142.018 80.0224C141.79 80.3159 141.676 80.6829 141.676 81.1232C141.676 81.7617 141.908 82.2498 142.37 82.5874C142.84 82.9176 143.434 83.0827 144.153 83.0827ZM160.661 63.4545V86H155.971V63.4545H160.661ZM179.232 86.3303C177.522 86.3303 176.043 85.967 174.796 85.2404C173.555 84.5065 172.598 83.4864 171.922 82.18C171.247 80.8664 170.91 79.3435 170.91 77.6115C170.91 75.8648 171.247 74.3383 171.922 73.032C172.598 71.7183 173.555 70.6982 174.796 69.9716C176.043 69.2377 177.522 68.8707 179.232 68.8707C180.942 68.8707 182.417 69.2377 183.657 69.9716C184.905 70.6982 185.867 71.7183 186.542 73.032C187.217 74.3383 187.555 75.8648 187.555 77.6115C187.555 79.3435 187.217 80.8664 186.542 82.18C185.867 83.4864 184.905 84.5065 183.657 85.2404C182.417 85.967 180.942 86.3303 179.232 86.3303ZM179.254 82.6974C180.032 82.6974 180.682 82.4773 181.203 82.0369C181.724 81.5893 182.116 80.9801 182.381 80.2095C182.652 79.4389 182.788 78.5619 182.788 77.5785C182.788 76.5951 182.652 75.718 182.381 74.9474C182.116 74.1768 181.724 73.5677 181.203 73.12C180.682 72.6723 180.032 72.4485 179.254 72.4485C178.469 72.4485 177.808 72.6723 177.273 73.12C176.744 73.5677 176.344 74.1768 176.073 74.9474C175.808 75.718 175.676 76.5951 175.676 77.5785C175.676 78.5619 175.808 79.4389 176.073 80.2095C176.344 80.9801 176.744 81.5893 177.273 82.0369C177.808 82.4773 178.469 82.6974 179.254 82.6974ZM190.604 92.3409V69.0909H195.227V71.9311H195.437C195.642 71.4761 195.939 71.0137 196.328 70.544C196.725 70.067 197.238 69.6707 197.869 69.3551C198.508 69.0322 199.301 68.8707 200.247 68.8707C201.48 68.8707 202.618 69.1937 203.66 69.8395C204.702 70.478 205.535 71.4431 206.159 72.7347C206.783 74.0191 207.095 75.63 207.095 77.5675C207.095 79.4536 206.79 81.0462 206.181 82.3452C205.579 83.6368 204.757 84.6166 203.715 85.2844C202.68 85.945 201.521 86.2752 200.236 86.2752C199.326 86.2752 198.552 86.1248 197.914 85.8239C197.282 85.523 196.765 85.145 196.361 84.69C195.958 84.2276 195.649 83.7616 195.437 83.2919H195.294V92.3409H190.604ZM195.194 77.5455C195.194 78.5509 195.334 79.4279 195.613 80.1765C195.892 80.9251 196.295 81.5085 196.824 81.9268C197.352 82.3378 197.994 82.5433 198.75 82.5433C199.513 82.5433 200.159 82.3342 200.688 81.9158C201.216 81.4902 201.616 80.9031 201.888 80.1545C202.166 79.3986 202.306 78.5289 202.306 77.5455C202.306 76.5694 202.17 75.7107 201.899 74.9695C201.627 74.2282 201.227 73.6484 200.699 73.2301C200.17 72.8118 199.521 72.6026 198.75 72.6026C197.987 72.6026 197.341 72.8045 196.813 73.2081C196.292 73.6117 195.892 74.1842 195.613 74.9254C195.334 75.6667 195.194 76.54 195.194 77.5455ZM219.215 69.0909V72.6136H209.032V69.0909H219.215ZM211.344 65.0398H216.034V80.804C216.034 81.237 216.1 81.5746 216.232 81.8168C216.364 82.0516 216.547 82.2167 216.782 82.3121C217.024 82.4076 217.303 82.4553 217.619 82.4553C217.839 82.4553 218.059 82.4369 218.279 82.4002C218.499 82.3562 218.668 82.3232 218.786 82.3011L219.523 85.7908C219.288 85.8642 218.958 85.9486 218.532 86.044C218.107 86.1468 217.589 86.2092 216.98 86.2312C215.85 86.2752 214.859 86.1248 214.008 85.7798C213.164 85.4349 212.507 84.8991 212.037 84.1726C211.568 83.446 211.337 82.5286 211.344 81.4205V65.0398ZM222.27 86V69.0909H226.96V86H222.27ZM224.626 66.9112C223.929 66.9112 223.33 66.68 222.831 66.2177C222.34 65.748 222.094 65.1866 222.094 64.5334C222.094 63.8875 222.34 63.3335 222.831 62.8711C223.33 62.4014 223.929 62.1665 224.626 62.1665C225.323 62.1665 225.917 62.4014 226.409 62.8711C226.908 63.3335 227.158 63.8875 227.158 64.5334C227.158 65.1866 226.908 65.748 226.409 66.2177C225.917 66.68 225.323 66.9112 224.626 66.9112ZM238.356 86.3303C236.624 86.3303 235.134 85.9633 233.887 85.2294C232.646 84.4882 231.692 83.4607 231.024 82.147C230.364 80.8333 230.034 79.3215 230.034 77.6115C230.034 75.8795 230.368 74.3603 231.035 73.054C231.711 71.7403 232.668 70.7165 233.909 69.9826C235.149 69.2414 236.624 68.8707 238.334 68.8707C239.809 68.8707 241.101 69.1386 242.209 69.6744C243.317 70.2101 244.194 70.9624 244.84 71.9311C245.486 72.8999 245.842 74.0374 245.908 75.3438H241.483C241.358 74.4998 241.027 73.8209 240.492 73.3072C239.963 72.7861 239.27 72.5256 238.411 72.5256C237.685 72.5256 237.05 72.7237 236.507 73.12C235.971 73.509 235.553 74.0778 235.252 74.8263C234.951 75.5749 234.8 76.4813 234.8 77.5455C234.8 78.6243 234.947 79.5417 235.241 80.2976C235.542 81.0535 235.964 81.6296 236.507 82.0259C237.05 82.4222 237.685 82.6204 238.411 82.6204C238.947 82.6204 239.428 82.5103 239.853 82.2901C240.286 82.07 240.642 81.7507 240.921 81.3324C241.207 80.9067 241.394 80.3967 241.483 79.8022H245.908C245.835 81.0939 245.482 82.2314 244.851 83.2148C244.227 84.1909 243.365 84.9542 242.264 85.5046C241.163 86.055 239.861 86.3303 238.356 86.3303ZM253.732 86.3192C252.653 86.3192 251.692 86.1321 250.848 85.7578C250.004 85.3762 249.336 84.8147 248.844 84.0735C248.36 83.3249 248.118 82.3929 248.118 81.2773C248.118 80.3379 248.29 79.549 248.635 78.9105C248.98 78.272 249.45 77.7583 250.044 77.3693C250.639 76.9804 251.314 76.6868 252.07 76.4886C252.833 76.2905 253.633 76.151 254.47 76.0703C255.453 75.9676 256.246 75.8722 256.848 75.7841C257.449 75.6887 257.886 75.5492 258.158 75.3658C258.429 75.1823 258.565 74.9107 258.565 74.5511V74.4851C258.565 73.7879 258.345 73.2485 257.904 72.8668C257.471 72.4852 256.855 72.2944 256.055 72.2944C255.211 72.2944 254.54 72.4815 254.04 72.8558C253.541 73.2228 253.211 73.6851 253.05 74.2429L248.712 73.8906C248.933 72.8632 249.366 71.9751 250.011 71.2266C250.657 70.4706 251.49 69.8909 252.51 69.4872C253.538 69.0762 254.727 68.8707 256.077 68.8707C257.016 68.8707 257.915 68.9808 258.774 69.201C259.64 69.4212 260.407 69.7624 261.075 70.2248C261.75 70.6871 262.282 71.2816 262.671 72.0082C263.06 72.7274 263.255 73.5897 263.255 74.5952V86H258.807V83.6552H258.675C258.404 84.1836 258.04 84.6496 257.585 85.0533C257.13 85.4496 256.583 85.7615 255.945 85.989C255.306 86.2092 254.569 86.3192 253.732 86.3192ZM255.075 83.0827C255.765 83.0827 256.374 82.947 256.903 82.6754C257.431 82.3965 257.846 82.0223 258.147 81.5526C258.448 81.0829 258.598 80.5508 258.598 79.9563V78.1619C258.451 78.2573 258.249 78.3454 257.993 78.4261C257.743 78.4995 257.46 78.5692 257.145 78.6353C256.829 78.694 256.514 78.7491 256.198 78.8004C255.883 78.8445 255.596 78.8848 255.339 78.9215C254.789 79.0022 254.308 79.1307 253.897 79.3068C253.486 79.483 253.167 79.7215 252.94 80.0224C252.712 80.3159 252.598 80.6829 252.598 81.1232C252.598 81.7617 252.83 82.2498 253.292 82.5874C253.762 82.9176 254.356 83.0827 255.075 83.0827ZM271.583 63.4545V86H266.893V63.4545H271.583ZM298.278 69.0909L292.367 86H287.083L281.171 69.0909H286.125L289.637 81.1893H289.813L293.313 69.0909H298.278ZM307.773 86.3303C306.063 86.3303 304.584 85.967 303.337 85.2404C302.096 84.5065 301.139 83.4864 300.463 82.18C299.788 80.8664 299.451 79.3435 299.451 77.6115C299.451 75.8648 299.788 74.3383 300.463 73.032C301.139 71.7183 302.096 70.6982 303.337 69.9716C304.584 69.2377 306.063 68.8707 307.773 68.8707C309.483 68.8707 310.958 69.2377 312.199 69.9716C313.446 70.6982 314.408 71.7183 315.083 73.032C315.758 74.3383 316.096 75.8648 316.096 77.6115C316.096 79.3435 315.758 80.8664 315.083 82.18C314.408 83.4864 313.446 84.5065 312.199 85.2404C310.958 85.967 309.483 86.3303 307.773 86.3303ZM307.795 82.6974C308.573 82.6974 309.223 82.4773 309.744 82.0369C310.265 81.5893 310.657 80.9801 310.922 80.2095C311.193 79.4389 311.329 78.5619 311.329 77.5785C311.329 76.5951 311.193 75.718 310.922 74.9474C310.657 74.1768 310.265 73.5677 309.744 73.12C309.223 72.6723 308.573 72.4485 307.795 72.4485C307.01 72.4485 306.349 72.6723 305.814 73.12C305.285 73.5677 304.885 74.1768 304.614 74.9474C304.349 75.718 304.217 76.5951 304.217 77.5785C304.217 78.5619 304.349 79.4389 304.614 80.2095C304.885 80.9801 305.285 81.5893 305.814 82.0369C306.349 82.4773 307.01 82.6974 307.795 82.6974ZM323.835 63.4545V86H319.145V63.4545H323.835ZM338.435 78.8004V69.0909H343.124V86H338.622V82.9286H338.446C338.064 83.9194 337.429 84.7157 336.541 85.3175C335.66 85.9193 334.585 86.2202 333.316 86.2202C332.185 86.2202 331.191 85.9633 330.332 85.4496C329.474 84.9358 328.802 84.2056 328.318 83.2589C327.841 82.3121 327.599 81.1783 327.591 79.8572V69.0909H332.281V79.0206C332.288 80.0187 332.556 80.8076 333.084 81.3874C333.613 81.9672 334.321 82.2571 335.209 82.2571C335.774 82.2571 336.303 82.1287 336.794 81.8718C337.286 81.6076 337.682 81.2186 337.983 80.7049C338.291 80.1912 338.442 79.5563 338.435 78.8004ZM346.875 86V69.0909H351.345V72.0742H351.543C351.895 71.0835 352.482 70.3018 353.304 69.7294C354.126 69.157 355.11 68.8707 356.255 68.8707C357.414 68.8707 358.401 69.1606 359.216 69.7404C360.031 70.3129 360.574 71.0908 360.845 72.0742H361.021C361.366 71.1055 361.99 70.3312 362.893 69.7514C363.803 69.1643 364.878 68.8707 366.118 68.8707C367.696 68.8707 368.977 69.3735 369.96 70.3789C370.951 71.377 371.446 72.7934 371.446 74.6282V86H366.768V75.5529C366.768 74.6135 366.518 73.909 366.019 73.4393C365.52 72.9696 364.896 72.7347 364.148 72.7347C363.296 72.7347 362.632 73.0063 362.155 73.5494C361.678 74.0851 361.44 74.7933 361.44 75.674V86H356.893V75.4538C356.893 74.6245 356.655 73.964 356.178 73.4723C355.708 72.9806 355.088 72.7347 354.317 72.7347C353.796 72.7347 353.326 72.8668 352.908 73.131C352.497 73.3879 352.17 73.7512 351.928 74.2209C351.686 74.6832 351.565 75.2263 351.565 75.8501V86H346.875ZM382.857 86.3303C381.117 86.3303 379.62 85.978 378.365 85.2734C377.118 84.5616 376.156 83.5561 375.481 82.2571C374.806 80.9508 374.468 79.4059 374.468 77.6225C374.468 75.8832 374.806 74.3567 375.481 73.043C376.156 71.7293 377.107 70.7055 378.332 69.9716C379.565 69.2377 381.011 68.8707 382.67 68.8707C383.785 68.8707 384.824 69.0505 385.785 69.4102C386.754 69.7624 387.598 70.2945 388.317 71.0064C389.044 71.7183 389.609 72.6136 390.012 73.6925C390.416 74.764 390.618 76.0189 390.618 77.4574V78.7454H376.34V75.8391H386.203C386.203 75.1639 386.057 74.5658 385.763 74.0447C385.469 73.5237 385.062 73.1164 384.541 72.8228C384.027 72.5219 383.429 72.3714 382.747 72.3714C382.035 72.3714 381.404 72.5366 380.853 72.8668C380.31 73.1897 379.884 73.6264 379.576 74.1768C379.268 74.7199 379.11 75.3254 379.103 75.9933V78.7564C379.103 79.593 379.257 80.3159 379.565 80.9251C379.881 81.5342 380.325 82.0039 380.897 82.3342C381.47 82.6644 382.148 82.8295 382.934 82.8295C383.455 82.8295 383.932 82.7562 384.365 82.6094C384.798 82.4626 385.169 82.2424 385.477 81.9489C385.785 81.6553 386.02 81.2957 386.181 80.87L390.519 81.1562C390.298 82.1984 389.847 83.1084 389.165 83.8864C388.489 84.657 387.616 85.2588 386.545 85.6918C385.48 86.1174 384.251 86.3303 382.857 86.3303Z" fill="white"/>
<g clip-path="url(#clip0_1612_14196)">
<rect x="120" y="120" width="240" height="240" rx="8" fill="#F5F5F5"/>
<path d="M120 130H360" stroke="#D8D8D9" stroke-width="0.5"/>
<path d="M130 120V360" stroke="#D8D8D9" stroke-width="0.5"/>
<path d="M120 140H360" stroke="#D8D8D9" stroke-width="0.5"/>
<path d="M140 120V360" stroke="#D8D8D9" stroke-width="0.5"/>
<path d="M120 150H360" stroke="#D8D8D9" stroke-width="0.5"/>
<path d="M150 120V360" stroke="#D8D8D9" stroke-width="0.5"/>
<path d="M120 160H360" stroke="#D8D8D9" stroke-width="0.5"/>
<path d="M160 120V360" stroke="#D8D8D9" stroke-width="0.5"/>
<path d="M120 170H360" stroke="#D8D8D9" stroke-width="0.5"/>
<path d="M170 120V360" stroke="#D8D8D9" stroke-width="0.5"/>
<path d="M120 180H360" stroke="#D8D8D9" stroke-width="0.5"/>
<path d="M180 120V360" stroke="#D8D8D9" stroke-width="0.5"/>
<path d="M120 190H360" stroke="#D8D8D9" stroke-width="0.5"/>
<path d="M190 120V360" stroke="#D8D8D9" stroke-width="0.5"/>
<path d="M120 200H360" stroke="#D8D8D9" stroke-width="0.5"/>
<path d="M200 120V360" stroke="#D8D8D9" stroke-width="0.5"/>
<path d="M120 210H360" stroke="#D8D8D9" stroke-width="0.5"/>
<path d="M210 120V360" stroke="#D8D8D9" stroke-width="0.5"/>
<path d="M120 220H360" stroke="#D8D8D9" stroke-width="0.5"/>
<path d="M220 120V360" stroke="#D8D8D9" stroke-width="0.5"/>
<path d="M120 230H360" stroke="#D8D8D9" stroke-width="0.5"/>
<path d="M230 120V360" stroke="#D8D8D9" stroke-width="0.5"/>
<path d="M120 240H360" stroke="#D8D8D9" stroke-width="0.5"/>
<path d="M240 120V360" stroke="#D8D8D9" stroke-width="0.5"/>
<path d="M120 250H360" stroke="#D8D8D9" stroke-width="0.5"/>
<path d="M250 120V360" stroke="#D8D8D9" stroke-width="0.5"/>
<path d="M120 260H360" stroke="#D8D8D9" stroke-width="0.5"/>
<path d="M260 120V360" stroke="#D8D8D9" stroke-width="0.5"/>
<path d="M120 270H360" stroke="#D8D8D9" stroke-width="0.5"/>
<path d="M270 120V360" stroke="#D8D8D9" stroke-width="0.5"/>
<path d="M120 280H360" stroke="#D8D8D9" stroke-width="0.5"/>
<path d="M280 120V360" stroke="#D8D8D9" stroke-width="0.5"/>
<path d="M120 290H360" stroke="#D8D8D9" stroke-width="0.5"/>
<path d="M290 120V360" stroke="#D8D8D9" stroke-width="0.5"/>
<path d="M120 300H360" stroke="#D8D8D9" stroke-width="0.5"/>
<path d="M300 120V360" stroke="#D8D8D9" stroke-width="0.5"/>
<path d="M120 310H360" stroke="#D8D8D9" stroke-width="0.5"/>
<path d="M310 120V360" stroke="#D8D8D9" stroke-width="0.5"/>
<path d="M120 320H360" stroke="#D8D8D9" stroke-width="0.5"/>
<path d="M320 120V360" stroke="#D8D8D9" stroke-width="0.5"/>
<path d="M120 330H360" stroke="#D8D8D9" stroke-width="0.5"/>
<path d="M330 120V360" stroke="#D8D8D9" stroke-width="0.5"/>
<path d="M120 340H360" stroke="#D8D8D9" stroke-width="0.5"/>
<path d="M340 120V360" stroke="#D8D8D9" stroke-width="0.5"/>
<path d="M120 350H360" stroke="#D8D8D9" stroke-width="0.5"/>
<path d="M350 120V360" stroke="#D8D8D9" stroke-width="0.5"/>
</g>
<circle opacity="0.17" cx="240" cy="240" r="100" stroke="#F56565" stroke-width="20" stroke-linecap="round" stroke-linejoin="round"/>
<rect opacity="0.17" x="150" y="150" width="180" height="180" rx="20" stroke="#F56565" stroke-width="20" stroke-linecap="round" stroke-linejoin="round"/>
<g id="embed-lucide-expand" stroke="#3C3C43" stroke-width="2" stroke-linecap="round" stroke-linejoin="round" transform="translate(120 120), scale(10)">
  <path d="m21 21-6-6m6 6v-4.8m0 4.8h-4.8" />
  <path d="M3 16.2V21m0 0h4.8M3 21l6-6" />
  <path d="M21 7.8V3m0 0h-4.8M21 3l-6 6" />
  <path d="M3 7.8V3m0 0h4.8M3 3l6 6" />
</g>
<circle opacity="0.5" cx="240" cy="240" r="100" stroke="#F56565" stroke-dasharray="1 1"/>
<rect opacity="0.5" x="150" y="150" width="180" height="180" rx="20" stroke="#F56565" stroke-dasharray="1 1"/>
<defs>
<clipPath id="clip0_1612_14196">
<rect x="120" y="120" width="240" height="240" rx="8" fill="white"/>
</clipPath>
</defs>
</svg>
