<svg width="480" height="480" viewBox="0 0 480 480" fill="none" xmlns="http://www.w3.org/2000/svg">
<rect width="480" height="480" fill="#3C3C43"/>
<path d="M197 392.5L185 404.5" stroke="#F45F7A" stroke-width="3" stroke-linecap="round" stroke-linejoin="round"/>
<path d="M185 392.5L197 404.5" stroke="#F45F7A" stroke-width="3" stroke-linecap="round" stroke-linejoin="round"/>
<path d="M221.071 410H213.079V387.455H221.137C223.405 387.455 225.357 387.906 226.994 388.809C228.631 389.704 229.889 390.992 230.77 392.673C231.658 394.353 232.102 396.364 232.102 398.705C232.102 401.054 231.658 403.072 230.77 404.76C229.889 406.448 228.623 407.743 226.972 408.646C225.328 409.549 223.361 410 221.071 410ZM217.846 405.916H220.873C222.282 405.916 223.468 405.666 224.429 405.167C225.398 404.661 226.124 403.879 226.609 402.822C227.1 401.758 227.346 400.386 227.346 398.705C227.346 397.039 227.1 395.678 226.609 394.621C226.124 393.564 225.401 392.786 224.44 392.287C223.479 391.788 222.293 391.539 220.884 391.539H217.846V405.916ZM243.185 410.33C241.475 410.33 239.996 409.967 238.748 409.24C237.508 408.507 236.55 407.486 235.875 406.18C235.2 404.866 234.862 403.344 234.862 401.612C234.862 399.865 235.2 398.338 235.875 397.032C236.55 395.718 237.508 394.698 238.748 393.972C239.996 393.238 241.475 392.871 243.185 392.871C244.895 392.871 246.37 393.238 247.61 393.972C248.858 394.698 249.819 395.718 250.494 397.032C251.17 398.338 251.507 399.865 251.507 401.612C251.507 403.344 251.17 404.866 250.494 406.18C249.819 407.486 248.858 408.507 247.61 409.24C246.37 409.967 244.895 410.33 243.185 410.33ZM243.207 406.697C243.985 406.697 244.634 406.477 245.155 406.037C245.676 405.589 246.069 404.98 246.333 404.21C246.605 403.439 246.74 402.562 246.74 401.578C246.74 400.595 246.605 399.718 246.333 398.947C246.069 398.177 245.676 397.568 245.155 397.12C244.634 396.672 243.985 396.449 243.207 396.449C242.421 396.449 241.761 396.672 241.225 397.12C240.697 397.568 240.297 398.177 240.025 398.947C239.761 399.718 239.629 400.595 239.629 401.578C239.629 402.562 239.761 403.439 240.025 404.21C240.297 404.98 240.697 405.589 241.225 406.037C241.761 406.477 242.421 406.697 243.207 406.697ZM259.246 400.224V410H254.557V393.091H259.026V396.074H259.224C259.598 395.091 260.226 394.313 261.107 393.74C261.987 393.161 263.055 392.871 264.31 392.871C265.484 392.871 266.508 393.128 267.381 393.641C268.255 394.155 268.934 394.889 269.418 395.843C269.902 396.79 270.145 397.92 270.145 399.234V410H265.455V400.07C265.462 399.036 265.198 398.228 264.662 397.648C264.127 397.061 263.389 396.768 262.45 396.768C261.818 396.768 261.261 396.904 260.776 397.175C260.299 397.447 259.925 397.843 259.653 398.364C259.389 398.878 259.253 399.498 259.246 400.224ZM277.771 387.455V389.832C277.771 390.508 277.639 391.197 277.374 391.902C277.118 392.599 276.773 393.26 276.34 393.884C275.907 394.5 275.433 395.025 274.92 395.458L272.85 394.236C273.217 393.656 273.54 393.014 273.819 392.309C274.105 391.605 274.248 390.786 274.248 389.854V387.455H277.771ZM290.464 393.091V396.614H280.281V393.091H290.464ZM282.592 389.04H287.282V404.804C287.282 405.237 287.348 405.575 287.48 405.817C287.612 406.052 287.796 406.217 288.031 406.312C288.273 406.408 288.552 406.455 288.867 406.455C289.087 406.455 289.308 406.437 289.528 406.4C289.748 406.356 289.917 406.323 290.034 406.301L290.772 409.791C290.537 409.864 290.207 409.949 289.781 410.044C289.355 410.147 288.838 410.209 288.229 410.231C287.099 410.275 286.108 410.125 285.257 409.78C284.413 409.435 283.756 408.899 283.286 408.173C282.816 407.446 282.585 406.529 282.592 405.42V389.04ZM296.26 410.286C295.533 410.286 294.909 410.029 294.388 409.516C293.874 408.995 293.617 408.371 293.617 407.644C293.617 406.925 293.874 406.308 294.388 405.795C294.909 405.281 295.533 405.024 296.26 405.024C296.964 405.024 297.581 405.281 298.109 405.795C298.637 406.308 298.902 406.925 298.902 407.644C298.902 408.129 298.777 408.573 298.527 408.976C298.285 409.373 297.966 409.692 297.57 409.934C297.173 410.169 296.737 410.286 296.26 410.286Z" fill="#F45F7A"/>
<path d="M92.0606 86V63.4545H96.8273V72.7567H106.504V63.4545H111.259V86H106.504V76.6868H96.8273V86H92.0606ZM115.101 86V69.0909H119.791V86H115.101ZM117.457 66.9112C116.76 66.9112 116.162 66.68 115.663 66.2177C115.171 65.748 114.925 65.1866 114.925 64.5334C114.925 63.8875 115.171 63.3335 115.663 62.8711C116.162 62.4014 116.76 62.1665 117.457 62.1665C118.154 62.1665 118.749 62.4014 119.241 62.8711C119.74 63.3335 119.989 63.8875 119.989 64.5334C119.989 65.1866 119.74 65.748 119.241 66.2177C118.749 66.68 118.154 66.9112 117.457 66.9112ZM131.166 92.6932C129.646 92.6932 128.344 92.484 127.258 92.0657C126.179 91.6547 125.32 91.0933 124.682 90.3814C124.043 89.6695 123.628 88.8696 123.438 87.9815L127.775 87.3981C127.907 87.7357 128.116 88.0513 128.402 88.3448C128.689 88.6384 129.067 88.8732 129.536 89.0494C130.013 89.2328 130.593 89.3246 131.276 89.3246C132.296 89.3246 133.136 89.075 133.797 88.576C134.465 88.0843 134.798 87.2586 134.798 86.0991V83.0057H134.6C134.395 83.4754 134.087 83.9194 133.676 84.3377C133.265 84.756 132.736 85.0973 132.09 85.3615C131.444 85.6257 130.674 85.7578 129.779 85.7578C128.509 85.7578 127.353 85.4643 126.311 84.8771C125.276 84.2827 124.45 83.3763 123.834 82.158C123.225 80.9324 122.92 79.3839 122.92 77.5124C122.92 75.5969 123.232 73.997 123.856 72.7127C124.48 71.4284 125.309 70.467 126.344 69.8285C127.386 69.19 128.527 68.8707 129.768 68.8707C130.714 68.8707 131.507 69.0322 132.145 69.3551C132.784 69.6707 133.298 70.067 133.687 70.544C134.083 71.0137 134.387 71.4761 134.6 71.9311H134.776V69.0909H139.433V86.1651C139.433 87.6036 139.081 88.8072 138.376 89.7759C137.672 90.7447 136.696 91.4712 135.448 91.9556C134.208 92.4473 132.78 92.6932 131.166 92.6932ZM131.265 82.2351C132.021 82.2351 132.659 82.0479 133.18 81.6737C133.709 81.292 134.112 80.7489 134.391 80.0444C134.677 79.3325 134.82 78.4812 134.82 77.4904C134.82 76.4996 134.681 75.641 134.402 74.9144C134.123 74.1805 133.72 73.6117 133.191 73.2081C132.663 72.8045 132.021 72.6026 131.265 72.6026C130.494 72.6026 129.845 72.8118 129.316 73.2301C128.788 73.6411 128.388 74.2135 128.116 74.9474C127.845 75.6813 127.709 76.529 127.709 77.4904C127.709 78.4665 127.845 79.3105 128.116 80.0224C128.395 80.7269 128.795 81.2737 129.316 81.6626C129.845 82.0443 130.494 82.2351 131.265 82.2351ZM147.855 76.2244V86H143.165V63.4545H147.722V72.0742H147.921C148.302 71.0761 148.919 70.2945 149.77 69.7294C150.621 69.157 151.689 68.8707 152.974 68.8707C154.148 68.8707 155.172 69.1276 156.045 69.6413C156.926 70.1477 157.608 70.878 158.092 71.832C158.584 72.7788 158.826 73.9126 158.819 75.2337V86H154.129V76.0703C154.137 75.0282 153.873 74.2172 153.337 73.6374C152.808 73.0576 152.067 72.7678 151.113 72.7678C150.475 72.7678 149.909 72.9035 149.418 73.1751C148.933 73.4466 148.552 73.8429 148.273 74.364C148.001 74.8777 147.862 75.4979 147.855 76.2244ZM177.324 86.3303C175.614 86.3303 174.136 85.967 172.888 85.2404C171.648 84.5065 170.69 83.4864 170.015 82.18C169.34 80.8664 169.002 79.3435 169.002 77.6115C169.002 75.8648 169.34 74.3383 170.015 73.032C170.69 71.7183 171.648 70.6982 172.888 69.9716C174.136 69.2377 175.614 68.8707 177.324 68.8707C179.034 68.8707 180.509 69.2377 181.75 69.9716C182.997 70.6982 183.959 71.7183 184.634 73.032C185.309 74.3383 185.647 75.8648 185.647 77.6115C185.647 79.3435 185.309 80.8664 184.634 82.18C183.959 83.4864 182.997 84.5065 181.75 85.2404C180.509 85.967 179.034 86.3303 177.324 86.3303ZM177.346 82.6974C178.124 82.6974 178.774 82.4773 179.295 82.0369C179.816 81.5893 180.209 80.9801 180.473 80.2095C180.744 79.4389 180.88 78.5619 180.88 77.5785C180.88 76.5951 180.744 75.718 180.473 74.9474C180.209 74.1768 179.816 73.5677 179.295 73.12C178.774 72.6723 178.124 72.4485 177.346 72.4485C176.561 72.4485 175.901 72.6723 175.365 73.12C174.836 73.5677 174.436 74.1768 174.165 74.9474C173.901 75.718 173.769 76.5951 173.769 77.5785C173.769 78.5619 173.901 79.4389 174.165 80.2095C174.436 80.9801 174.836 81.5893 175.365 82.0369C175.901 82.4773 176.561 82.6974 177.346 82.6974ZM188.696 92.3409V69.0909H193.32V71.9311H193.529C193.734 71.4761 194.032 71.0137 194.421 70.544C194.817 70.067 195.331 69.6707 195.962 69.3551C196.6 69.0322 197.393 68.8707 198.34 68.8707C199.573 68.8707 200.71 69.1937 201.752 69.8395C202.794 70.478 203.627 71.4431 204.251 72.7347C204.875 74.0191 205.187 75.63 205.187 77.5675C205.187 79.4536 204.882 81.0462 204.273 82.3452C203.671 83.6368 202.849 84.6166 201.807 85.2844C200.773 85.945 199.613 86.2752 198.329 86.2752C197.419 86.2752 196.644 86.1248 196.006 85.8239C195.375 85.523 194.857 85.145 194.454 84.69C194.05 84.2276 193.742 83.7616 193.529 83.2919H193.386V92.3409H188.696ZM193.287 77.5455C193.287 78.5509 193.426 79.4279 193.705 80.1765C193.984 80.9251 194.388 81.5085 194.916 81.9268C195.444 82.3378 196.087 82.5433 196.842 82.5433C197.606 82.5433 198.252 82.3342 198.78 81.9158C199.308 81.4902 199.708 80.9031 199.98 80.1545C200.259 79.3986 200.398 78.5289 200.398 77.5455C200.398 76.5694 200.262 75.7107 199.991 74.9695C199.719 74.2282 199.319 73.6484 198.791 73.2301C198.263 72.8118 197.613 72.6026 196.842 72.6026C196.079 72.6026 195.433 72.8045 194.905 73.2081C194.384 73.6117 193.984 74.1842 193.705 74.9254C193.426 75.6667 193.287 76.54 193.287 77.5455ZM217.307 69.0909V72.6136H207.124V69.0909H217.307ZM209.436 65.0398H214.126V80.804C214.126 81.237 214.192 81.5746 214.324 81.8168C214.456 82.0516 214.64 82.2167 214.874 82.3121C215.117 82.4076 215.395 82.4553 215.711 82.4553C215.931 82.4553 216.151 82.4369 216.372 82.4002C216.592 82.3562 216.761 82.3232 216.878 82.3011L217.616 85.7908C217.381 85.8642 217.05 85.9486 216.625 86.044C216.199 86.1468 215.682 86.2092 215.073 86.2312C213.942 86.2752 212.952 86.1248 212.1 85.7798C211.256 85.4349 210.599 84.8991 210.13 84.1726C209.66 83.446 209.429 82.5286 209.436 81.4205V65.0398ZM220.362 86V69.0909H225.052V86H220.362ZM222.718 66.9112C222.021 66.9112 221.423 66.68 220.924 66.2177C220.432 65.748 220.186 65.1866 220.186 64.5334C220.186 63.8875 220.432 63.3335 220.924 62.8711C221.423 62.4014 222.021 62.1665 222.718 62.1665C223.415 62.1665 224.01 62.4014 224.501 62.8711C225 63.3335 225.25 63.8875 225.25 64.5334C225.25 65.1866 225 65.748 224.501 66.2177C224.01 66.68 223.415 66.9112 222.718 66.9112ZM236.448 86.3303C234.716 86.3303 233.227 85.9633 231.979 85.2294C230.739 84.4882 229.785 83.4607 229.117 82.147C228.456 80.8333 228.126 79.3215 228.126 77.6115C228.126 75.8795 228.46 74.3603 229.128 73.054C229.803 71.7403 230.761 70.7165 232.001 69.9826C233.241 69.2414 234.716 68.8707 236.426 68.8707C237.902 68.8707 239.193 69.1386 240.301 69.6744C241.41 70.2101 242.287 70.9624 242.932 71.9311C243.578 72.8999 243.934 74.0374 244 75.3438H239.575C239.45 74.4998 239.12 73.8209 238.584 73.3072C238.056 72.7861 237.362 72.5256 236.503 72.5256C235.777 72.5256 235.142 72.7237 234.599 73.12C234.063 73.509 233.645 74.0778 233.344 74.8263C233.043 75.5749 232.893 76.4813 232.893 77.5455C232.893 78.6243 233.039 79.5417 233.333 80.2976C233.634 81.0535 234.056 81.6296 234.599 82.0259C235.142 82.4222 235.777 82.6204 236.503 82.6204C237.039 82.6204 237.52 82.5103 237.946 82.2901C238.379 82.07 238.734 81.7507 239.013 81.3324C239.3 80.9067 239.487 80.3967 239.575 79.8022H244C243.927 81.0939 243.575 82.2314 242.943 83.2148C242.32 84.1909 241.457 84.9542 240.356 85.5046C239.256 86.055 237.953 86.3303 236.448 86.3303ZM251.825 86.3192C250.746 86.3192 249.784 86.1321 248.94 85.7578C248.096 85.3762 247.428 84.8147 246.937 84.0735C246.452 83.3249 246.21 82.3929 246.21 81.2773C246.21 80.3379 246.383 79.549 246.728 78.9105C247.073 78.272 247.542 77.7583 248.137 77.3693C248.731 76.9804 249.406 76.6868 250.162 76.4886C250.926 76.2905 251.725 76.151 252.562 76.0703C253.546 75.9676 254.338 75.8722 254.94 75.7841C255.542 75.6887 255.978 75.5492 256.25 75.3658C256.521 75.1823 256.657 74.9107 256.657 74.5511V74.4851C256.657 73.7879 256.437 73.2485 255.997 72.8668C255.564 72.4852 254.947 72.2944 254.147 72.2944C253.303 72.2944 252.632 72.4815 252.133 72.8558C251.634 73.2228 251.303 73.6851 251.142 74.2429L246.805 73.8906C247.025 72.8632 247.458 71.9751 248.104 71.2266C248.749 70.4706 249.582 69.8909 250.603 69.4872C251.63 69.0762 252.819 68.8707 254.169 68.8707C255.109 68.8707 256.008 68.9808 256.866 69.201C257.732 69.4212 258.499 69.7624 259.167 70.2248C259.842 70.6871 260.374 71.2816 260.763 72.0082C261.152 72.7274 261.347 73.5897 261.347 74.5952V86H256.899V83.6552H256.767C256.496 84.1836 256.133 84.6496 255.678 85.0533C255.222 85.4496 254.676 85.7615 254.037 85.989C253.399 86.2092 252.661 86.3192 251.825 86.3192ZM253.168 83.0827C253.857 83.0827 254.467 82.947 254.995 82.6754C255.523 82.3965 255.938 82.0223 256.239 81.5526C256.54 81.0829 256.69 80.5508 256.69 79.9563V78.1619C256.544 78.2573 256.342 78.3454 256.085 78.4261C255.835 78.4995 255.553 78.5692 255.237 78.6353C254.922 78.694 254.606 78.7491 254.29 78.8004C253.975 78.8445 253.689 78.8848 253.432 78.9215C252.881 79.0022 252.401 79.1307 251.99 79.3068C251.579 79.483 251.259 79.7215 251.032 80.0224C250.804 80.3159 250.691 80.6829 250.691 81.1232C250.691 81.7617 250.922 82.2498 251.384 82.5874C251.854 82.9176 252.448 83.0827 253.168 83.0827ZM269.675 63.4545V86H264.985V63.4545H269.675ZM296.371 69.0909L290.459 86H285.175L279.263 69.0909H284.217L287.729 81.1893H287.905L291.406 69.0909H296.371ZM305.865 86.3303C304.155 86.3303 302.677 85.967 301.429 85.2404C300.189 84.5065 299.231 83.4864 298.556 82.18C297.881 80.8664 297.543 79.3435 297.543 77.6115C297.543 75.8648 297.881 74.3383 298.556 73.032C299.231 71.7183 300.189 70.6982 301.429 69.9716C302.677 69.2377 304.155 68.8707 305.865 68.8707C307.575 68.8707 309.051 69.2377 310.291 69.9716C311.538 70.6982 312.5 71.7183 313.175 73.032C313.85 74.3383 314.188 75.8648 314.188 77.6115C314.188 79.3435 313.85 80.8664 313.175 82.18C312.5 83.4864 311.538 84.5065 310.291 85.2404C309.051 85.967 307.575 86.3303 305.865 86.3303ZM305.887 82.6974C306.665 82.6974 307.315 82.4773 307.836 82.0369C308.357 81.5893 308.75 80.9801 309.014 80.2095C309.285 79.4389 309.421 78.5619 309.421 77.5785C309.421 76.5951 309.285 75.718 309.014 74.9474C308.75 74.1768 308.357 73.5677 307.836 73.12C307.315 72.6723 306.665 72.4485 305.887 72.4485C305.102 72.4485 304.442 72.6723 303.906 73.12C303.377 73.5677 302.977 74.1768 302.706 74.9474C302.442 75.718 302.31 76.5951 302.31 77.5785C302.31 78.5619 302.442 79.4389 302.706 80.2095C302.977 80.9801 303.377 81.5893 303.906 82.0369C304.442 82.4773 305.102 82.6974 305.887 82.6974ZM321.927 63.4545V86H317.237V63.4545H321.927ZM336.527 78.8004V69.0909H341.216V86H336.714V82.9286H336.538C336.156 83.9194 335.521 84.7157 334.633 85.3175C333.753 85.9193 332.678 86.2202 331.408 86.2202C330.278 86.2202 329.283 85.9633 328.425 85.4496C327.566 84.9358 326.894 84.2056 326.41 83.2589C325.933 82.3121 325.691 81.1783 325.683 79.8572V69.0909H330.373V79.0206C330.38 80.0187 330.648 80.8076 331.177 81.3874C331.705 81.9672 332.413 82.2571 333.301 82.2571C333.866 82.2571 334.395 82.1287 334.887 81.8718C335.378 81.6076 335.775 81.2186 336.076 80.7049C336.384 80.1912 336.534 79.5563 336.527 78.8004ZM344.968 86V69.0909H349.437V72.0742H349.635C349.988 71.0835 350.575 70.3018 351.397 69.7294C352.219 69.157 353.202 68.8707 354.347 68.8707C355.506 68.8707 356.494 69.1606 357.308 69.7404C358.123 70.3129 358.666 71.0908 358.937 72.0742H359.114C359.459 71.1055 360.082 70.3312 360.985 69.7514C361.895 69.1643 362.97 68.8707 364.211 68.8707C365.788 68.8707 367.069 69.3735 368.053 70.3789C369.043 71.377 369.539 72.7934 369.539 74.6282V86H364.86V75.5529C364.86 74.6135 364.611 73.909 364.111 73.4393C363.612 72.9696 362.989 72.7347 362.24 72.7347C361.389 72.7347 360.725 73.0063 360.247 73.5494C359.77 74.0851 359.532 74.7933 359.532 75.674V86H354.985V75.4538C354.985 74.6245 354.747 73.964 354.27 73.4723C353.8 72.9806 353.18 72.7347 352.409 72.7347C351.888 72.7347 351.419 72.8668 351 73.131C350.589 73.3879 350.263 73.7512 350.021 74.2209C349.778 74.6832 349.657 75.2263 349.657 75.8501V86H344.968ZM380.949 86.3303C379.21 86.3303 377.712 85.978 376.458 85.2734C375.21 84.5616 374.248 83.5561 373.573 82.2571C372.898 80.9508 372.561 79.4059 372.561 77.6225C372.561 75.8832 372.898 74.3567 373.573 73.043C374.248 71.7293 375.199 70.7055 376.424 69.9716C377.657 69.2377 379.103 68.8707 380.762 68.8707C381.877 68.8707 382.916 69.0505 383.877 69.4102C384.846 69.7624 385.69 70.2945 386.409 71.0064C387.136 71.7183 387.701 72.6136 388.105 73.6925C388.508 74.764 388.71 76.0189 388.71 77.4574V78.7454H374.432V75.8391H384.296C384.296 75.1639 384.149 74.5658 383.855 74.0447C383.562 73.5237 383.154 73.1164 382.633 72.8228C382.12 72.5219 381.521 72.3714 380.839 72.3714C380.127 72.3714 379.496 72.5366 378.945 72.8668C378.402 73.1897 377.977 73.6264 377.668 74.1768C377.36 74.7199 377.202 75.3254 377.195 75.9933V78.7564C377.195 79.593 377.349 80.3159 377.657 80.9251C377.973 81.5342 378.417 82.0039 378.989 82.3342C379.562 82.6644 380.241 82.8295 381.026 82.8295C381.547 82.8295 382.024 82.7562 382.457 82.6094C382.89 82.4626 383.261 82.2424 383.569 81.9489C383.877 81.6553 384.112 81.2957 384.274 80.87L388.611 81.1562C388.391 82.1984 387.939 83.1084 387.257 83.8864C386.582 84.657 385.708 85.2588 384.637 85.6918C383.573 86.1174 382.343 86.3303 380.949 86.3303Z" fill="white"/>
<g clip-path="url(#clip0_1612_14403)">
<rect x="120" y="120" width="240" height="240" rx="8" fill="#F5F5F5"/>
<path d="M120 130H360" stroke="#D8D8D9" stroke-width="0.5"/>
<path d="M130 120V360" stroke="#D8D8D9" stroke-width="0.5"/>
<path d="M120 140H360" stroke="#D8D8D9" stroke-width="0.5"/>
<path d="M140 120V360" stroke="#D8D8D9" stroke-width="0.5"/>
<path d="M120 150H360" stroke="#D8D8D9" stroke-width="0.5"/>
<path d="M150 120V360" stroke="#D8D8D9" stroke-width="0.5"/>
<path d="M120 160H360" stroke="#D8D8D9" stroke-width="0.5"/>
<path d="M160 120V360" stroke="#D8D8D9" stroke-width="0.5"/>
<path d="M120 170H360" stroke="#D8D8D9" stroke-width="0.5"/>
<path d="M170 120V360" stroke="#D8D8D9" stroke-width="0.5"/>
<path d="M120 180H360" stroke="#D8D8D9" stroke-width="0.5"/>
<path d="M180 120V360" stroke="#D8D8D9" stroke-width="0.5"/>
<path d="M120 190H360" stroke="#D8D8D9" stroke-width="0.5"/>
<path d="M190 120V360" stroke="#D8D8D9" stroke-width="0.5"/>
<path d="M120 200H360" stroke="#D8D8D9" stroke-width="0.5"/>
<path d="M200 120V360" stroke="#D8D8D9" stroke-width="0.5"/>
<path d="M120 210H360" stroke="#D8D8D9" stroke-width="0.5"/>
<path d="M210 120V360" stroke="#D8D8D9" stroke-width="0.5"/>
<path d="M120 220H360" stroke="#D8D8D9" stroke-width="0.5"/>
<path d="M220 120V360" stroke="#D8D8D9" stroke-width="0.5"/>
<path d="M120 230H360" stroke="#D8D8D9" stroke-width="0.5"/>
<path d="M230 120V360" stroke="#D8D8D9" stroke-width="0.5"/>
<path d="M120 240H360" stroke="#D8D8D9" stroke-width="0.5"/>
<path d="M240 120V360" stroke="#D8D8D9" stroke-width="0.5"/>
<path d="M120 250H360" stroke="#D8D8D9" stroke-width="0.5"/>
<path d="M250 120V360" stroke="#D8D8D9" stroke-width="0.5"/>
<path d="M120 260H360" stroke="#D8D8D9" stroke-width="0.5"/>
<path d="M260 120V360" stroke="#D8D8D9" stroke-width="0.5"/>
<path d="M120 270H360" stroke="#D8D8D9" stroke-width="0.5"/>
<path d="M270 120V360" stroke="#D8D8D9" stroke-width="0.5"/>
<path d="M120 280H360" stroke="#D8D8D9" stroke-width="0.5"/>
<path d="M280 120V360" stroke="#D8D8D9" stroke-width="0.5"/>
<path d="M120 290H360" stroke="#D8D8D9" stroke-width="0.5"/>
<path d="M290 120V360" stroke="#D8D8D9" stroke-width="0.5"/>
<path d="M120 300H360" stroke="#D8D8D9" stroke-width="0.5"/>
<path d="M300 120V360" stroke="#D8D8D9" stroke-width="0.5"/>
<path d="M120 310H360" stroke="#D8D8D9" stroke-width="0.5"/>
<path d="M310 120V360" stroke="#D8D8D9" stroke-width="0.5"/>
<path d="M120 320H360" stroke="#D8D8D9" stroke-width="0.5"/>
<path d="M320 120V360" stroke="#D8D8D9" stroke-width="0.5"/>
<path d="M120 330H360" stroke="#D8D8D9" stroke-width="0.5"/>
<path d="M330 120V360" stroke="#D8D8D9" stroke-width="0.5"/>
<path d="M120 340H360" stroke="#D8D8D9" stroke-width="0.5"/>
<path d="M340 120V360" stroke="#D8D8D9" stroke-width="0.5"/>
<path d="M120 350H360" stroke="#D8D8D9" stroke-width="0.5"/>
<path d="M350 120V360" stroke="#D8D8D9" stroke-width="0.5"/>
</g>
<circle opacity="0.17" cx="240" cy="240" r="100" stroke="#F56565" stroke-width="20" stroke-linecap="round" stroke-linejoin="round"/>
<rect opacity="0.17" x="150" y="150" width="180" height="180" rx="20" stroke="#F56565" stroke-width="20" stroke-linecap="round" stroke-linejoin="round"/>
<path d="M340 340L270 270M340 340V282M340 340H282" stroke="#3C3C43" stroke-width="20" stroke-linecap="round" stroke-linejoin="round"/>
<path d="M140 282V340M140 340H198M140 340L210 270" stroke="#3C3C43" stroke-width="20" stroke-linecap="round" stroke-linejoin="round"/>
<path d="M340 198V140M340 140H282M340 140L270 210" stroke="#3C3C43" stroke-width="20" stroke-linecap="round" stroke-linejoin="round"/>
<path d="M140 198V140M140 140H198M140 140L210 210" stroke="#3C3C43" stroke-width="20" stroke-linecap="round" stroke-linejoin="round"/>
<circle opacity="0.5" cx="240" cy="240" r="100" stroke="#F56565" stroke-dasharray="1 1"/>
<rect opacity="0.5" x="150" y="150" width="180" height="180" rx="20" stroke="#F56565" stroke-dasharray="1 1"/>
<defs>
<clipPath id="clip0_1612_14403">
<rect x="120" y="120" width="240" height="240" rx="8" fill="white"/>
</clipPath>
</defs>
</svg>
