<svg width="480" height="480" viewBox="0 0 480 480" fill="none" xmlns="http://www.w3.org/2000/svg">
<rect width="480" height="480" fill="#3C3C43"/>
<path d="M197 392.5L185 404.5" stroke="#F45F7A" stroke-width="3" stroke-linecap="round" stroke-linejoin="round"/>
<path d="M185 392.5L197 404.5" stroke="#F45F7A" stroke-width="3" stroke-linecap="round" stroke-linejoin="round"/>
<path d="M221.071 410H213.079V387.455H221.137C223.405 387.455 225.357 387.906 226.994 388.809C228.631 389.704 229.889 390.992 230.77 392.673C231.658 394.353 232.102 396.364 232.102 398.705C232.102 401.054 231.658 403.072 230.77 404.76C229.889 406.448 228.623 407.743 226.972 408.646C225.328 409.549 223.361 410 221.071 410ZM217.846 405.916H220.873C222.282 405.916 223.468 405.666 224.429 405.167C225.398 404.661 226.124 403.879 226.609 402.822C227.1 401.758 227.346 400.386 227.346 398.705C227.346 397.039 227.1 395.678 226.609 394.621C226.124 393.564 225.401 392.786 224.44 392.287C223.479 391.788 222.293 391.539 220.884 391.539H217.846V405.916ZM243.185 410.33C241.475 410.33 239.996 409.967 238.748 409.24C237.508 408.507 236.55 407.486 235.875 406.18C235.2 404.866 234.862 403.344 234.862 401.612C234.862 399.865 235.2 398.338 235.875 397.032C236.55 395.718 237.508 394.698 238.748 393.972C239.996 393.238 241.475 392.871 243.185 392.871C244.895 392.871 246.37 393.238 247.61 393.972C248.858 394.698 249.819 395.718 250.494 397.032C251.17 398.338 251.507 399.865 251.507 401.612C251.507 403.344 251.17 404.866 250.494 406.18C249.819 407.486 248.858 408.507 247.61 409.24C246.37 409.967 244.895 410.33 243.185 410.33ZM243.207 406.697C243.985 406.697 244.634 406.477 245.155 406.037C245.676 405.589 246.069 404.98 246.333 404.21C246.605 403.439 246.74 402.562 246.74 401.578C246.74 400.595 246.605 399.718 246.333 398.947C246.069 398.177 245.676 397.568 245.155 397.12C244.634 396.672 243.985 396.449 243.207 396.449C242.421 396.449 241.761 396.672 241.225 397.12C240.697 397.568 240.297 398.177 240.025 398.947C239.761 399.718 239.629 400.595 239.629 401.578C239.629 402.562 239.761 403.439 240.025 404.21C240.297 404.98 240.697 405.589 241.225 406.037C241.761 406.477 242.421 406.697 243.207 406.697ZM259.246 400.224V410H254.557V393.091H259.026V396.074H259.224C259.598 395.091 260.226 394.313 261.107 393.74C261.987 393.161 263.055 392.871 264.31 392.871C265.484 392.871 266.508 393.128 267.381 393.641C268.255 394.155 268.934 394.889 269.418 395.843C269.902 396.79 270.145 397.92 270.145 399.234V410H265.455V400.07C265.462 399.036 265.198 398.228 264.662 397.648C264.127 397.061 263.389 396.768 262.45 396.768C261.818 396.768 261.261 396.904 260.776 397.175C260.299 397.447 259.925 397.843 259.653 398.364C259.389 398.878 259.253 399.498 259.246 400.224ZM277.771 387.455V389.832C277.771 390.508 277.639 391.197 277.374 391.902C277.118 392.599 276.773 393.26 276.34 393.884C275.907 394.5 275.433 395.025 274.92 395.458L272.85 394.236C273.217 393.656 273.54 393.014 273.819 392.309C274.105 391.605 274.248 390.786 274.248 389.854V387.455H277.771ZM290.464 393.091V396.614H280.281V393.091H290.464ZM282.592 389.04H287.282V404.804C287.282 405.237 287.348 405.575 287.48 405.817C287.612 406.052 287.796 406.217 288.031 406.312C288.273 406.408 288.552 406.455 288.867 406.455C289.087 406.455 289.308 406.437 289.528 406.4C289.748 406.356 289.917 406.323 290.034 406.301L290.772 409.791C290.537 409.864 290.207 409.949 289.781 410.044C289.355 410.147 288.838 410.209 288.229 410.231C287.099 410.275 286.108 410.125 285.257 409.78C284.413 409.435 283.756 408.899 283.286 408.173C282.816 407.446 282.585 406.529 282.592 405.42V389.04ZM296.26 410.286C295.533 410.286 294.909 410.029 294.388 409.516C293.874 408.995 293.617 408.371 293.617 407.644C293.617 406.925 293.874 406.308 294.388 405.795C294.909 405.281 295.533 405.024 296.26 405.024C296.964 405.024 297.581 405.281 298.109 405.795C298.637 406.308 298.902 406.925 298.902 407.644C298.902 408.129 298.777 408.573 298.527 408.976C298.285 409.373 297.966 409.692 297.57 409.934C297.173 410.169 296.737 410.286 296.26 410.286Z" fill="#F45F7A"/>
<path d="M96.0567 86V63.4545H100.823V82.07H110.489V86H96.0567ZM121.197 86.3303C119.487 86.3303 118.009 85.967 116.761 85.2404C115.521 84.5065 114.563 83.4864 113.888 82.18C113.213 80.8664 112.875 79.3435 112.875 77.6115C112.875 75.8648 113.213 74.3383 113.888 73.032C114.563 71.7183 115.521 70.6982 116.761 69.9716C118.009 69.2377 119.487 68.8707 121.197 68.8707C122.907 68.8707 124.383 69.2377 125.623 69.9716C126.87 70.6982 127.832 71.7183 128.507 73.032C129.182 74.3383 129.52 75.8648 129.52 77.6115C129.52 79.3435 129.182 80.8664 128.507 82.18C127.832 83.4864 126.87 84.5065 125.623 85.2404C124.383 85.967 122.907 86.3303 121.197 86.3303ZM121.219 82.6974C121.997 82.6974 122.647 82.4773 123.168 82.0369C123.689 81.5893 124.082 80.9801 124.346 80.2095C124.617 79.4389 124.753 78.5619 124.753 77.5785C124.753 76.5951 124.617 75.718 124.346 74.9474C124.082 74.1768 123.689 73.5677 123.168 73.12C122.647 72.6723 121.997 72.4485 121.219 72.4485C120.434 72.4485 119.774 72.6723 119.238 73.12C118.709 73.5677 118.309 74.1768 118.038 74.9474C117.774 75.718 117.642 76.5951 117.642 77.5785C117.642 78.5619 117.774 79.4389 118.038 80.2095C118.309 80.9801 118.709 81.5893 119.238 82.0369C119.774 82.4773 120.434 82.6974 121.219 82.6974ZM135.481 86L130.879 69.0909H135.624L138.244 80.4517H138.398L141.128 69.0909H145.785L148.559 80.3857H148.702L151.278 69.0909H156.012L151.421 86H146.456L143.55 75.3658H143.341L140.435 86H135.481ZM173.328 86.3303C171.618 86.3303 170.139 85.967 168.892 85.2404C167.652 84.5065 166.694 83.4864 166.019 82.18C165.343 80.8664 165.006 79.3435 165.006 77.6115C165.006 75.8648 165.343 74.3383 166.019 73.032C166.694 71.7183 167.652 70.6982 168.892 69.9716C170.139 69.2377 171.618 68.8707 173.328 68.8707C175.038 68.8707 176.513 69.2377 177.754 69.9716C179.001 70.6982 179.963 71.7183 180.638 73.032C181.313 74.3383 181.651 75.8648 181.651 77.6115C181.651 79.3435 181.313 80.8664 180.638 82.18C179.963 83.4864 179.001 84.5065 177.754 85.2404C176.513 85.967 175.038 86.3303 173.328 86.3303ZM173.35 82.6974C174.128 82.6974 174.778 82.4773 175.299 82.0369C175.82 81.5893 176.212 80.9801 176.477 80.2095C176.748 79.4389 176.884 78.5619 176.884 77.5785C176.884 76.5951 176.748 75.718 176.477 74.9474C176.212 74.1768 175.82 73.5677 175.299 73.12C174.778 72.6723 174.128 72.4485 173.35 72.4485C172.565 72.4485 171.904 72.6723 171.369 73.12C170.84 73.5677 170.44 74.1768 170.169 74.9474C169.905 75.718 169.773 76.5951 169.773 77.5785C169.773 78.5619 169.905 79.4389 170.169 80.2095C170.44 80.9801 170.84 81.5893 171.369 82.0369C171.904 82.4773 172.565 82.6974 173.35 82.6974ZM184.7 92.3409V69.0909H189.324V71.9311H189.533C189.738 71.4761 190.036 71.0137 190.424 70.544C190.821 70.067 191.335 69.6707 191.966 69.3551C192.604 69.0322 193.397 68.8707 194.344 68.8707C195.576 68.8707 196.714 69.1937 197.756 69.8395C198.798 70.478 199.631 71.4431 200.255 72.7347C200.879 74.0191 201.191 75.63 201.191 77.5675C201.191 79.4536 200.886 81.0462 200.277 82.3452C199.675 83.6368 198.853 84.6166 197.811 85.2844C196.776 85.945 195.617 86.2752 194.333 86.2752C193.422 86.2752 192.648 86.1248 192.01 85.8239C191.379 85.523 190.861 85.145 190.458 84.69C190.054 84.2276 189.746 83.7616 189.533 83.2919H189.39V92.3409H184.7ZM189.291 77.5455C189.291 78.5509 189.43 79.4279 189.709 80.1765C189.988 80.9251 190.391 81.5085 190.92 81.9268C191.448 82.3378 192.09 82.5433 192.846 82.5433C193.61 82.5433 194.255 82.3342 194.784 81.9158C195.312 81.4902 195.712 80.9031 195.984 80.1545C196.263 79.3986 196.402 78.5289 196.402 77.5455C196.402 76.5694 196.266 75.7107 195.995 74.9695C195.723 74.2282 195.323 73.6484 194.795 73.2301C194.266 72.8118 193.617 72.6026 192.846 72.6026C192.083 72.6026 191.437 72.8045 190.909 73.2081C190.388 73.6117 189.988 74.1842 189.709 74.9254C189.43 75.6667 189.291 76.54 189.291 77.5455ZM213.311 69.0909V72.6136H203.128V69.0909H213.311ZM205.44 65.0398H210.13V80.804C210.13 81.237 210.196 81.5746 210.328 81.8168C210.46 82.0516 210.643 82.2167 210.878 82.3121C211.121 82.4076 211.399 82.4553 211.715 82.4553C211.935 82.4553 212.155 82.4369 212.375 82.4002C212.596 82.3562 212.764 82.3232 212.882 82.3011L213.619 85.7908C213.385 85.8642 213.054 85.9486 212.629 86.044C212.203 86.1468 211.686 86.2092 211.076 86.2312C209.946 86.2752 208.956 86.1248 208.104 85.7798C207.26 85.4349 206.603 84.8991 206.134 84.1726C205.664 83.446 205.433 82.5286 205.44 81.4205V65.0398ZM216.366 86V69.0909H221.056V86H216.366ZM218.722 66.9112C218.025 66.9112 217.427 66.68 216.928 66.2177C216.436 65.748 216.19 65.1866 216.19 64.5334C216.19 63.8875 216.436 63.3335 216.928 62.8711C217.427 62.4014 218.025 62.1665 218.722 62.1665C219.419 62.1665 220.014 62.4014 220.505 62.8711C221.004 63.3335 221.254 63.8875 221.254 64.5334C221.254 65.1866 221.004 65.748 220.505 66.2177C220.014 66.68 219.419 66.9112 218.722 66.9112ZM232.452 86.3303C230.72 86.3303 229.23 85.9633 227.983 85.2294C226.743 84.4882 225.788 83.4607 225.121 82.147C224.46 80.8333 224.13 79.3215 224.13 77.6115C224.13 75.8795 224.464 74.3603 225.132 73.054C225.807 71.7403 226.765 70.7165 228.005 69.9826C229.245 69.2414 230.72 68.8707 232.43 68.8707C233.905 68.8707 235.197 69.1386 236.305 69.6744C237.413 70.2101 238.29 70.9624 238.936 71.9311C239.582 72.8999 239.938 74.0374 240.004 75.3438H235.579C235.454 74.4998 235.124 73.8209 234.588 73.3072C234.06 72.7861 233.366 72.5256 232.507 72.5256C231.781 72.5256 231.146 72.7237 230.603 73.12C230.067 73.509 229.649 74.0778 229.348 74.8263C229.047 75.5749 228.897 76.4813 228.897 77.5455C228.897 78.6243 229.043 79.5417 229.337 80.2976C229.638 81.0535 230.06 81.6296 230.603 82.0259C231.146 82.4222 231.781 82.6204 232.507 82.6204C233.043 82.6204 233.524 82.5103 233.949 82.2901C234.382 82.07 234.738 81.7507 235.017 81.3324C235.303 80.9067 235.491 80.3967 235.579 79.8022H240.004C239.931 81.0939 239.578 82.2314 238.947 83.2148C238.323 84.1909 237.461 84.9542 236.36 85.5046C235.259 86.055 233.957 86.3303 232.452 86.3303ZM247.828 86.3192C246.75 86.3192 245.788 86.1321 244.944 85.7578C244.1 85.3762 243.432 84.8147 242.941 84.0735C242.456 83.3249 242.214 82.3929 242.214 81.2773C242.214 80.3379 242.387 79.549 242.731 78.9105C243.076 78.272 243.546 77.7583 244.141 77.3693C244.735 76.9804 245.41 76.6868 246.166 76.4886C246.929 76.2905 247.729 76.151 248.566 76.0703C249.549 75.9676 250.342 75.8722 250.944 75.7841C251.546 75.6887 251.982 75.5492 252.254 75.3658C252.525 75.1823 252.661 74.9107 252.661 74.5511V74.4851C252.661 73.7879 252.441 73.2485 252.001 72.8668C251.568 72.4852 250.951 72.2944 250.151 72.2944C249.307 72.2944 248.636 72.4815 248.137 72.8558C247.638 73.2228 247.307 73.6851 247.146 74.2429L242.809 73.8906C243.029 72.8632 243.462 71.9751 244.108 71.2266C244.753 70.4706 245.586 69.8909 246.606 69.4872C247.634 69.0762 248.823 68.8707 250.173 68.8707C251.113 68.8707 252.012 68.9808 252.87 69.201C253.736 69.4212 254.503 69.7624 255.171 70.2248C255.846 70.6871 256.378 71.2816 256.767 72.0082C257.156 72.7274 257.351 73.5897 257.351 74.5952V86H252.903V83.6552H252.771C252.5 84.1836 252.136 84.6496 251.681 85.0533C251.226 85.4496 250.68 85.7615 250.041 85.989C249.403 86.2092 248.665 86.3192 247.828 86.3192ZM249.171 83.0827C249.861 83.0827 250.47 82.947 250.999 82.6754C251.527 82.3965 251.942 82.0223 252.243 81.5526C252.544 81.0829 252.694 80.5508 252.694 79.9563V78.1619C252.547 78.2573 252.346 78.3454 252.089 78.4261C251.839 78.4995 251.557 78.5692 251.241 78.6353C250.926 78.694 250.61 78.7491 250.294 78.8004C249.979 78.8445 249.693 78.8848 249.436 78.9215C248.885 79.0022 248.405 79.1307 247.994 79.3068C247.583 79.483 247.263 79.7215 247.036 80.0224C246.808 80.3159 246.695 80.6829 246.695 81.1232C246.695 81.7617 246.926 82.2498 247.388 82.5874C247.858 82.9176 248.452 83.0827 249.171 83.0827ZM265.679 63.4545V86H260.989V63.4545H265.679ZM292.374 69.0909L286.463 86H281.179L275.267 69.0909H280.221L283.733 81.1893H283.909L287.41 69.0909H292.374ZM301.869 86.3303C300.159 86.3303 298.68 85.967 297.433 85.2404C296.193 84.5065 295.235 83.4864 294.56 82.18C293.884 80.8664 293.547 79.3435 293.547 77.6115C293.547 75.8648 293.884 74.3383 294.56 73.032C295.235 71.7183 296.193 70.6982 297.433 69.9716C298.68 69.2377 300.159 68.8707 301.869 68.8707C303.579 68.8707 305.054 69.2377 306.295 69.9716C307.542 70.6982 308.504 71.7183 309.179 73.032C309.854 74.3383 310.192 75.8648 310.192 77.6115C310.192 79.3435 309.854 80.8664 309.179 82.18C308.504 83.4864 307.542 84.5065 306.295 85.2404C305.054 85.967 303.579 86.3303 301.869 86.3303ZM301.891 82.6974C302.669 82.6974 303.319 82.4773 303.84 82.0369C304.361 81.5893 304.754 80.9801 305.018 80.2095C305.289 79.4389 305.425 78.5619 305.425 77.5785C305.425 76.5951 305.289 75.718 305.018 74.9474C304.754 74.1768 304.361 73.5677 303.84 73.12C303.319 72.6723 302.669 72.4485 301.891 72.4485C301.106 72.4485 300.446 72.6723 299.91 73.12C299.381 73.5677 298.981 74.1768 298.71 74.9474C298.446 75.718 298.314 76.5951 298.314 77.5785C298.314 78.5619 298.446 79.4389 298.71 80.2095C298.981 80.9801 299.381 81.5893 299.91 82.0369C300.446 82.4773 301.106 82.6974 301.891 82.6974ZM317.931 63.4545V86H313.241V63.4545H317.931ZM332.531 78.8004V69.0909H337.22V86H332.718V82.9286H332.542C332.16 83.9194 331.525 84.7157 330.637 85.3175C329.757 85.9193 328.681 86.2202 327.412 86.2202C326.282 86.2202 325.287 85.9633 324.428 85.4496C323.57 84.9358 322.898 84.2056 322.414 83.2589C321.937 82.3121 321.695 81.1783 321.687 79.8572V69.0909H326.377V79.0206C326.384 80.0187 326.652 80.8076 327.181 81.3874C327.709 81.9672 328.417 82.2571 329.305 82.2571C329.87 82.2571 330.399 82.1287 330.89 81.8718C331.382 81.6076 331.779 81.2186 332.079 80.7049C332.388 80.1912 332.538 79.5563 332.531 78.8004ZM340.972 86V69.0909H345.441V72.0742H345.639C345.991 71.0835 346.579 70.3018 347.401 69.7294C348.222 69.157 349.206 68.8707 350.351 68.8707C351.51 68.8707 352.497 69.1606 353.312 69.7404C354.127 70.3129 354.67 71.0908 354.941 72.0742H355.117C355.462 71.1055 356.086 70.3312 356.989 69.7514C357.899 69.1643 358.974 68.8707 360.214 68.8707C361.792 68.8707 363.073 69.3735 364.056 70.3789C365.047 71.377 365.543 72.7934 365.543 74.6282V86H360.864V75.5529C360.864 74.6135 360.614 73.909 360.115 73.4393C359.616 72.9696 358.992 72.7347 358.244 72.7347C357.393 72.7347 356.728 73.0063 356.251 73.5494C355.774 74.0851 355.536 74.7933 355.536 75.674V86H350.989V75.4538C350.989 74.6245 350.751 73.964 350.274 73.4723C349.804 72.9806 349.184 72.7347 348.413 72.7347C347.892 72.7347 347.423 72.8668 347.004 73.131C346.593 73.3879 346.267 73.7512 346.024 74.2209C345.782 74.6832 345.661 75.2263 345.661 75.8501V86H340.972ZM376.953 86.3303C375.214 86.3303 373.716 85.978 372.461 85.2734C371.214 84.5616 370.252 83.5561 369.577 82.2571C368.902 80.9508 368.564 79.4059 368.564 77.6225C368.564 75.8832 368.902 74.3567 369.577 73.043C370.252 71.7293 371.203 70.7055 372.428 69.9716C373.661 69.2377 375.107 68.8707 376.766 68.8707C377.881 68.8707 378.92 69.0505 379.881 69.4102C380.85 69.7624 381.694 70.2945 382.413 71.0064C383.14 71.7183 383.705 72.6136 384.108 73.6925C384.512 74.764 384.714 76.0189 384.714 77.4574V78.7454H370.436V75.8391H380.299C380.299 75.1639 380.153 74.5658 379.859 74.0447C379.566 73.5237 379.158 73.1164 378.637 72.8228C378.123 72.5219 377.525 72.3714 376.843 72.3714C376.131 72.3714 375.5 72.5366 374.949 72.8668C374.406 73.1897 373.981 73.6264 373.672 74.1768C373.364 74.7199 373.206 75.3254 373.199 75.9933V78.7564C373.199 79.593 373.353 80.3159 373.661 80.9251C373.977 81.5342 374.421 82.0039 374.993 82.3342C375.566 82.6644 376.245 82.8295 377.03 82.8295C377.551 82.8295 378.028 82.7562 378.461 82.6094C378.894 82.4626 379.265 82.2424 379.573 81.9489C379.881 81.6553 380.116 81.2957 380.277 80.87L384.615 81.1562C384.395 82.1984 383.943 83.1084 383.261 83.8864C382.586 84.657 381.712 85.2588 380.641 85.6918C379.577 86.1174 378.347 86.3303 376.953 86.3303Z" fill="white"/>
<g clip-path="url(#clip0_1612_14259)">
<rect x="120" y="120" width="240" height="240" rx="8" fill="#F5F5F5"/>
<path d="M120 130H360" stroke="#D8D8D9" stroke-width="0.5"/>
<path d="M130 120V360" stroke="#D8D8D9" stroke-width="0.5"/>
<path d="M120 140H360" stroke="#D8D8D9" stroke-width="0.5"/>
<path d="M140 120V360" stroke="#D8D8D9" stroke-width="0.5"/>
<path d="M120 150H360" stroke="#D8D8D9" stroke-width="0.5"/>
<path d="M150 120V360" stroke="#D8D8D9" stroke-width="0.5"/>
<path d="M120 160H360" stroke="#D8D8D9" stroke-width="0.5"/>
<path d="M160 120V360" stroke="#D8D8D9" stroke-width="0.5"/>
<path d="M120 170H360" stroke="#D8D8D9" stroke-width="0.5"/>
<path d="M170 120V360" stroke="#D8D8D9" stroke-width="0.5"/>
<path d="M120 180H360" stroke="#D8D8D9" stroke-width="0.5"/>
<path d="M180 120V360" stroke="#D8D8D9" stroke-width="0.5"/>
<path d="M120 190H360" stroke="#D8D8D9" stroke-width="0.5"/>
<path d="M190 120V360" stroke="#D8D8D9" stroke-width="0.5"/>
<path d="M120 200H360" stroke="#D8D8D9" stroke-width="0.5"/>
<path d="M200 120V360" stroke="#D8D8D9" stroke-width="0.5"/>
<path d="M120 210H360" stroke="#D8D8D9" stroke-width="0.5"/>
<path d="M210 120V360" stroke="#D8D8D9" stroke-width="0.5"/>
<path d="M120 220H360" stroke="#D8D8D9" stroke-width="0.5"/>
<path d="M220 120V360" stroke="#D8D8D9" stroke-width="0.5"/>
<path d="M120 230H360" stroke="#D8D8D9" stroke-width="0.5"/>
<path d="M230 120V360" stroke="#D8D8D9" stroke-width="0.5"/>
<path d="M120 240H360" stroke="#D8D8D9" stroke-width="0.5"/>
<path d="M240 120V360" stroke="#D8D8D9" stroke-width="0.5"/>
<path d="M120 250H360" stroke="#D8D8D9" stroke-width="0.5"/>
<path d="M250 120V360" stroke="#D8D8D9" stroke-width="0.5"/>
<path d="M120 260H360" stroke="#D8D8D9" stroke-width="0.5"/>
<path d="M260 120V360" stroke="#D8D8D9" stroke-width="0.5"/>
<path d="M120 270H360" stroke="#D8D8D9" stroke-width="0.5"/>
<path d="M270 120V360" stroke="#D8D8D9" stroke-width="0.5"/>
<path d="M120 280H360" stroke="#D8D8D9" stroke-width="0.5"/>
<path d="M280 120V360" stroke="#D8D8D9" stroke-width="0.5"/>
<path d="M120 290H360" stroke="#D8D8D9" stroke-width="0.5"/>
<path d="M290 120V360" stroke="#D8D8D9" stroke-width="0.5"/>
<path d="M120 300H360" stroke="#D8D8D9" stroke-width="0.5"/>
<path d="M300 120V360" stroke="#D8D8D9" stroke-width="0.5"/>
<path d="M120 310H360" stroke="#D8D8D9" stroke-width="0.5"/>
<path d="M310 120V360" stroke="#D8D8D9" stroke-width="0.5"/>
<path d="M120 320H360" stroke="#D8D8D9" stroke-width="0.5"/>
<path d="M320 120V360" stroke="#D8D8D9" stroke-width="0.5"/>
<path d="M120 330H360" stroke="#D8D8D9" stroke-width="0.5"/>
<path d="M330 120V360" stroke="#D8D8D9" stroke-width="0.5"/>
<path d="M120 340H360" stroke="#D8D8D9" stroke-width="0.5"/>
<path d="M340 120V360" stroke="#D8D8D9" stroke-width="0.5"/>
<path d="M120 350H360" stroke="#D8D8D9" stroke-width="0.5"/>
<path d="M350 120V360" stroke="#D8D8D9" stroke-width="0.5"/>
</g>
<circle opacity="0.17" cx="240" cy="240" r="100" stroke="#F56565" stroke-width="20" stroke-linecap="round" stroke-linejoin="round"/>
<rect opacity="0.17" x="150" y="150" width="180" height="180" rx="20" stroke="#F56565" stroke-width="20" stroke-linecap="round" stroke-linejoin="round"/>
<path d="M320 320L260 260M320 320V272M320 320H272" stroke="#3C3C43" stroke-width="20" stroke-linecap="round" stroke-linejoin="round"/>
<path d="M160 272V320M160 320H208M160 320L220 260" stroke="#3C3C43" stroke-width="20" stroke-linecap="round" stroke-linejoin="round"/>
<path d="M320 208V160M320 160H272M320 160L260 220" stroke="#3C3C43" stroke-width="20" stroke-linecap="round" stroke-linejoin="round"/>
<path d="M160 208V160M160 160H208M160 160L220 220" stroke="#3C3C43" stroke-width="20" stroke-linecap="round" stroke-linejoin="round"/>
<circle opacity="0.5" cx="240" cy="240" r="100" stroke="#F56565" stroke-dasharray="1 1"/>
<rect opacity="0.5" x="150" y="150" width="180" height="180" rx="20" stroke="#F56565" stroke-dasharray="1 1"/>
<defs>
<clipPath id="clip0_1612_14259">
<rect x="120" y="120" width="240" height="240" rx="8" fill="white"/>
</clipPath>
</defs>
</svg>
