<svg width="480" height="480" viewBox="0 0 480 480" fill="none" xmlns="http://www.w3.org/2000/svg">
<rect width="480" height="480" fill="#3C3C43"/>
<path d="M219 396.5L208 407.5L203 402.5" stroke="#36EA83" stroke-width="3" stroke-linecap="round" stroke-linejoin="round"/>
<path d="M241.052 414H233.06V391.455H241.118C243.386 391.455 245.338 391.906 246.975 392.809C248.611 393.704 249.87 394.992 250.751 396.673C251.639 398.353 252.083 400.364 252.083 402.705C252.083 405.054 251.639 407.072 250.751 408.76C249.87 410.448 248.604 411.743 246.953 412.646C245.309 413.549 243.342 414 241.052 414ZM237.827 409.916H240.854C242.263 409.916 243.448 409.666 244.41 409.167C245.379 408.661 246.105 407.879 246.59 406.822C247.081 405.758 247.327 404.386 247.327 402.705C247.327 401.039 247.081 399.678 246.59 398.621C246.105 397.564 245.382 396.786 244.421 396.287C243.459 395.788 242.274 395.539 240.865 395.539H237.827V409.916ZM263.166 414.33C261.456 414.33 259.977 413.967 258.729 413.24C257.489 412.507 256.531 411.486 255.856 410.18C255.181 408.866 254.843 407.344 254.843 405.612C254.843 403.865 255.181 402.338 255.856 401.032C256.531 399.718 257.489 398.698 258.729 397.972C259.977 397.238 261.456 396.871 263.166 396.871C264.876 396.871 266.351 397.238 267.591 397.972C268.839 398.698 269.8 399.718 270.475 401.032C271.151 402.338 271.488 403.865 271.488 405.612C271.488 407.344 271.151 408.866 270.475 410.18C269.8 411.486 268.839 412.507 267.591 413.24C266.351 413.967 264.876 414.33 263.166 414.33ZM263.188 410.697C263.966 410.697 264.615 410.477 265.136 410.037C265.657 409.589 266.05 408.98 266.314 408.21C266.586 407.439 266.721 406.562 266.721 405.578C266.721 404.595 266.586 403.718 266.314 402.947C266.05 402.177 265.657 401.568 265.136 401.12C264.615 400.672 263.966 400.449 263.188 400.449C262.402 400.449 261.742 400.672 261.206 401.12C260.678 401.568 260.278 402.177 260.006 402.947C259.742 403.718 259.61 404.595 259.61 405.578C259.61 406.562 259.742 407.439 260.006 408.21C260.278 408.98 260.678 409.589 261.206 410.037C261.742 410.477 262.402 410.697 263.188 410.697ZM277.279 414.286C276.552 414.286 275.928 414.029 275.407 413.516C274.893 412.995 274.637 412.371 274.637 411.644C274.637 410.925 274.893 410.308 275.407 409.795C275.928 409.281 276.552 409.024 277.279 409.024C277.983 409.024 278.6 409.281 279.128 409.795C279.656 410.308 279.921 410.925 279.921 411.644C279.921 412.129 279.796 412.573 279.546 412.976C279.304 413.373 278.985 413.692 278.589 413.934C278.192 414.169 277.756 414.286 277.279 414.286Z" fill="#36EA83"/>
<path d="M146.129 86V63.4545H155.024C156.734 63.4545 158.191 63.7811 159.394 64.4343C160.598 65.0801 161.515 65.9792 162.146 67.1314C162.785 68.2763 163.104 69.5973 163.104 71.0945C163.104 72.5916 162.781 73.9126 162.135 75.0575C161.49 76.2024 160.554 77.0941 159.328 77.7326C158.11 78.3711 156.635 78.6903 154.903 78.6903H149.233V74.8704H154.132C155.05 74.8704 155.805 74.7126 156.4 74.397C157.002 74.0741 157.449 73.6301 157.743 73.065C158.044 72.4925 158.194 71.8357 158.194 71.0945C158.194 70.3459 158.044 69.6927 157.743 69.1349C157.449 68.5698 157.002 68.1332 156.4 67.8249C155.798 67.5094 155.035 67.3516 154.11 67.3516H150.896V86H146.129ZM166.112 86V69.0909H170.802V86H166.112ZM168.468 66.9112C167.771 66.9112 167.173 66.68 166.674 66.2177C166.182 65.748 165.936 65.1866 165.936 64.5334C165.936 63.8875 166.182 63.3335 166.674 62.8711C167.173 62.4014 167.771 62.1665 168.468 62.1665C169.165 62.1665 169.76 62.4014 170.251 62.8711C170.75 63.3335 171 63.8875 171 64.5334C171 65.1866 170.75 65.748 170.251 66.2177C169.76 66.68 169.165 66.9112 168.468 66.9112ZM178.477 69.0909L181.582 75.0025L184.763 69.0909H189.574L184.675 77.5455L189.706 86H184.917L181.582 80.1545L178.301 86H173.458L178.477 77.5455L173.634 69.0909H178.477ZM199.46 86.3303C197.72 86.3303 196.223 85.978 194.968 85.2734C193.721 84.5616 192.759 83.5561 192.084 82.2571C191.409 80.9508 191.071 79.4059 191.071 77.6225C191.071 75.8832 191.409 74.3567 192.084 73.043C192.759 71.7293 193.71 70.7055 194.935 69.9716C196.168 69.2377 197.614 68.8707 199.273 68.8707C200.388 68.8707 201.427 69.0505 202.388 69.4102C203.357 69.7624 204.201 70.2945 204.92 71.0064C205.647 71.7183 206.212 72.6136 206.615 73.6925C207.019 74.764 207.221 76.0189 207.221 77.4574V78.7454H192.943V75.8391H202.806C202.806 75.1639 202.66 74.5658 202.366 74.0447C202.072 73.5237 201.665 73.1164 201.144 72.8228C200.63 72.5219 200.032 72.3714 199.35 72.3714C198.638 72.3714 198.007 72.5366 197.456 72.8668C196.913 73.1897 196.487 73.6264 196.179 74.1768C195.871 74.7199 195.713 75.3254 195.706 75.9933V78.7564C195.706 79.593 195.86 80.3159 196.168 80.9251C196.484 81.5342 196.928 82.0039 197.5 82.3342C198.073 82.6644 198.752 82.8295 199.537 82.8295C200.058 82.8295 200.535 82.7562 200.968 82.6094C201.401 82.4626 201.772 82.2424 202.08 81.9489C202.388 81.6553 202.623 81.2957 202.784 80.87L207.122 81.1562C206.902 82.1984 206.45 83.1084 205.768 83.8864C205.092 84.657 204.219 85.2588 203.148 85.6918C202.083 86.1174 200.854 86.3303 199.46 86.3303ZM214.971 63.4545V86H210.281V63.4545H214.971ZM225.902 92.3409V69.0909H230.526V71.9311H230.735C230.94 71.4761 231.238 71.0137 231.627 70.544C232.023 70.067 232.537 69.6707 233.168 69.3551C233.806 69.0322 234.599 68.8707 235.546 68.8707C236.779 68.8707 237.916 69.1937 238.958 69.8395C240 70.478 240.833 71.4431 241.457 72.7347C242.081 74.0191 242.393 75.63 242.393 77.5675C242.393 79.4536 242.088 81.0462 241.479 82.3452C240.877 83.6368 240.056 84.6166 239.013 85.2844C237.979 85.945 236.819 86.2752 235.535 86.2752C234.625 86.2752 233.85 86.1248 233.212 85.8239C232.581 85.523 232.063 85.145 231.66 84.69C231.256 84.2276 230.948 83.7616 230.735 83.2919H230.592V92.3409H225.902ZM230.493 77.5455C230.493 78.5509 230.632 79.4279 230.911 80.1765C231.19 80.9251 231.594 81.5085 232.122 81.9268C232.65 82.3378 233.293 82.5433 234.049 82.5433C234.812 82.5433 235.458 82.3342 235.986 81.9158C236.514 81.4902 236.914 80.9031 237.186 80.1545C237.465 79.3986 237.604 78.5289 237.604 77.5455C237.604 76.5694 237.468 75.7107 237.197 74.9695C236.925 74.2282 236.525 73.6484 235.997 73.2301C235.469 72.8118 234.819 72.6026 234.049 72.6026C233.285 72.6026 232.639 72.8045 232.111 73.2081C231.59 73.6117 231.19 74.1842 230.911 74.9254C230.632 75.6667 230.493 76.54 230.493 77.5455ZM253.225 86.3303C251.486 86.3303 249.989 85.978 248.734 85.2734C247.486 84.5616 246.525 83.5561 245.85 82.2571C245.174 80.9508 244.837 79.4059 244.837 77.6225C244.837 75.8832 245.174 74.3567 245.85 73.043C246.525 71.7293 247.475 70.7055 248.701 69.9716C249.934 69.2377 251.38 68.8707 253.038 68.8707C254.154 68.8707 255.192 69.0505 256.154 69.4102C257.122 69.7624 257.966 70.2945 258.686 71.0064C259.412 71.7183 259.977 72.6136 260.381 73.6925C260.785 74.764 260.986 76.0189 260.986 77.4574V78.7454H246.708V75.8391H256.572C256.572 75.1639 256.425 74.5658 256.132 74.0447C255.838 73.5237 255.431 73.1164 254.91 72.8228C254.396 72.5219 253.798 72.3714 253.115 72.3714C252.403 72.3714 251.772 72.5366 251.222 72.8668C250.679 73.1897 250.253 73.6264 249.945 74.1768C249.637 74.7199 249.479 75.3254 249.471 75.9933V78.7564C249.471 79.593 249.626 80.3159 249.934 80.9251C250.249 81.5342 250.693 82.0039 251.266 82.3342C251.838 82.6644 252.517 82.8295 253.302 82.8295C253.823 82.8295 254.301 82.7562 254.734 82.6094C255.167 82.4626 255.537 82.2424 255.845 81.9489C256.154 81.6553 256.388 81.2957 256.55 80.87L260.887 81.1562C260.667 82.1984 260.216 83.1084 259.533 83.8864C258.858 84.657 257.985 85.2588 256.913 85.6918C255.849 86.1174 254.62 86.3303 253.225 86.3303ZM264.047 86V69.0909H268.593V72.0412H268.769C269.078 70.9917 269.595 70.1991 270.322 69.6634C271.048 69.1203 271.885 68.8487 272.832 68.8487C273.066 68.8487 273.32 68.8634 273.591 68.8928C273.863 68.9221 274.101 68.9625 274.307 69.0138V73.1751C274.087 73.109 273.782 73.0503 273.393 72.9989C273.004 72.9476 272.648 72.9219 272.325 72.9219C271.635 72.9219 271.019 73.0723 270.476 73.3732C269.94 73.6668 269.514 74.0778 269.199 74.6062C268.89 75.1346 268.736 75.7437 268.736 76.4336V86H264.047ZM286.672 69.0909V72.6136H276.236V69.0909H286.672ZM278.625 86V67.869C278.625 66.6433 278.863 65.6269 279.34 64.8196C279.825 64.0123 280.485 63.4068 281.322 63.0032C282.159 62.5995 283.109 62.3977 284.173 62.3977C284.892 62.3977 285.549 62.4528 286.144 62.5629C286.745 62.6729 287.193 62.772 287.487 62.8601L286.65 66.3828C286.467 66.3241 286.239 66.2691 285.967 66.2177C285.703 66.1663 285.432 66.1406 285.153 66.1406C284.463 66.1406 283.982 66.3021 283.711 66.625C283.439 66.9406 283.303 67.3846 283.303 67.957V86H278.625ZM296.637 86.3303C294.898 86.3303 293.401 85.978 292.146 85.2734C290.898 84.5616 289.937 83.5561 289.262 82.2571C288.587 80.9508 288.249 79.4059 288.249 77.6225C288.249 75.8832 288.587 74.3567 289.262 73.043C289.937 71.7293 290.887 70.7055 292.113 69.9716C293.346 69.2377 294.792 68.8707 296.45 68.8707C297.566 68.8707 298.604 69.0505 299.566 69.4102C300.534 69.7624 301.378 70.2945 302.098 71.0064C302.824 71.7183 303.389 72.6136 303.793 73.6925C304.197 74.764 304.398 76.0189 304.398 77.4574V78.7454H290.12V75.8391H299.984C299.984 75.1639 299.837 74.5658 299.544 74.0447C299.25 73.5237 298.843 73.1164 298.322 72.8228C297.808 72.5219 297.21 72.3714 296.527 72.3714C295.816 72.3714 295.184 72.5366 294.634 72.8668C294.091 73.1897 293.665 73.6264 293.357 74.1768C293.049 74.7199 292.891 75.3254 292.884 75.9933V78.7564C292.884 79.593 293.038 80.3159 293.346 80.9251C293.662 81.5342 294.106 82.0039 294.678 82.3342C295.25 82.6644 295.929 82.8295 296.715 82.8295C297.236 82.8295 297.713 82.7562 298.146 82.6094C298.579 82.4626 298.949 82.2424 299.258 81.9489C299.566 81.6553 299.801 81.2957 299.962 80.87L304.299 81.1562C304.079 82.1984 303.628 83.1084 302.945 83.8864C302.27 84.657 301.397 85.2588 300.325 85.6918C299.261 86.1174 298.032 86.3303 296.637 86.3303ZM315.099 86.3303C313.367 86.3303 311.877 85.9633 310.629 85.2294C309.389 84.4882 308.435 83.4607 307.767 82.147C307.107 80.8333 306.776 79.3215 306.776 77.6115C306.776 75.8795 307.11 74.3603 307.778 73.054C308.453 71.7403 309.411 70.7165 310.651 69.9826C311.892 69.2414 313.367 68.8707 315.077 68.8707C316.552 68.8707 317.844 69.1386 318.952 69.6744C320.06 70.2101 320.937 70.9624 321.583 71.9311C322.229 72.8999 322.585 74.0374 322.651 75.3438H318.225C318.1 74.4998 317.77 73.8209 317.234 73.3072C316.706 72.7861 316.012 72.5256 315.154 72.5256C314.427 72.5256 313.792 72.7237 313.249 73.12C312.714 73.509 312.295 74.0778 311.994 74.8263C311.693 75.5749 311.543 76.4813 311.543 77.5455C311.543 78.6243 311.69 79.5417 311.983 80.2976C312.284 81.0535 312.706 81.6296 313.249 82.0259C313.792 82.4222 314.427 82.6204 315.154 82.6204C315.69 82.6204 316.17 82.5103 316.596 82.2901C317.029 82.07 317.385 81.7507 317.664 81.3324C317.95 80.9067 318.137 80.3967 318.225 79.8022H322.651C322.577 81.0939 322.225 82.2314 321.594 83.2148C320.97 84.1909 320.108 84.9542 319.007 85.5046C317.906 86.055 316.603 86.3303 315.099 86.3303ZM334.647 69.0909V72.6136H324.464V69.0909H334.647ZM326.776 65.0398H331.466V80.804C331.466 81.237 331.532 81.5746 331.664 81.8168C331.796 82.0516 331.979 82.2167 332.214 82.3121C332.456 82.4076 332.735 82.4553 333.051 82.4553C333.271 82.4553 333.491 82.4369 333.711 82.4002C333.932 82.3562 334.1 82.3232 334.218 82.3011L334.955 85.7908C334.721 85.8642 334.39 85.9486 333.965 86.044C333.539 86.1468 333.022 86.2092 332.412 86.2312C331.282 86.2752 330.291 86.1248 329.44 85.7798C328.596 85.4349 327.939 84.8991 327.47 84.1726C327 83.446 326.769 82.5286 326.776 81.4205V65.0398Z" fill="white"/>
<g clip-path="url(#clip0_1612_15996)">
<rect x="120" y="120" width="240" height="240" rx="8" fill="#F5F5F5"/>
<path d="M120 130H360" stroke="#D8D8D9" stroke-width="0.5"/>
<path d="M130 120V360" stroke="#D8D8D9" stroke-width="0.5"/>
<path d="M120 140H360" stroke="#D8D8D9" stroke-width="0.5"/>
<path d="M140 120V360" stroke="#D8D8D9" stroke-width="0.5"/>
<path d="M120 150H360" stroke="#D8D8D9" stroke-width="0.5"/>
<path d="M150 120V360" stroke="#D8D8D9" stroke-width="0.5"/>
<path d="M120 160H360" stroke="#D8D8D9" stroke-width="0.5"/>
<path d="M160 120V360" stroke="#D8D8D9" stroke-width="0.5"/>
<path d="M120 170H360" stroke="#D8D8D9" stroke-width="0.5"/>
<path d="M170 120V360" stroke="#D8D8D9" stroke-width="0.5"/>
<path d="M120 180H360" stroke="#D8D8D9" stroke-width="0.5"/>
<path d="M180 120V360" stroke="#D8D8D9" stroke-width="0.5"/>
<path d="M120 190H360" stroke="#D8D8D9" stroke-width="0.5"/>
<path d="M190 120V360" stroke="#D8D8D9" stroke-width="0.5"/>
<path d="M120 200H360" stroke="#D8D8D9" stroke-width="0.5"/>
<path d="M200 120V360" stroke="#D8D8D9" stroke-width="0.5"/>
<path d="M120 210H360" stroke="#D8D8D9" stroke-width="0.5"/>
<path d="M210 120V360" stroke="#D8D8D9" stroke-width="0.5"/>
<path d="M120 220H360" stroke="#D8D8D9" stroke-width="0.5"/>
<path d="M220 120V360" stroke="#D8D8D9" stroke-width="0.5"/>
<path d="M120 230H360" stroke="#D8D8D9" stroke-width="0.5"/>
<path d="M230 120V360" stroke="#D8D8D9" stroke-width="0.5"/>
<path d="M120 240H360" stroke="#D8D8D9" stroke-width="0.5"/>
<path d="M240 120V360" stroke="#D8D8D9" stroke-width="0.5"/>
<path d="M120 250H360" stroke="#D8D8D9" stroke-width="0.5"/>
<path d="M250 120V360" stroke="#D8D8D9" stroke-width="0.5"/>
<path d="M120 260H360" stroke="#D8D8D9" stroke-width="0.5"/>
<path d="M260 120V360" stroke="#D8D8D9" stroke-width="0.5"/>
<path d="M120 270H360" stroke="#D8D8D9" stroke-width="0.5"/>
<path d="M270 120V360" stroke="#D8D8D9" stroke-width="0.5"/>
<path d="M120 280H360" stroke="#D8D8D9" stroke-width="0.5"/>
<path d="M280 120V360" stroke="#D8D8D9" stroke-width="0.5"/>
<path d="M120 290H360" stroke="#D8D8D9" stroke-width="0.5"/>
<path d="M290 120V360" stroke="#D8D8D9" stroke-width="0.5"/>
<path d="M120 300H360" stroke="#D8D8D9" stroke-width="0.5"/>
<path d="M300 120V360" stroke="#D8D8D9" stroke-width="0.5"/>
<path d="M120 310H360" stroke="#D8D8D9" stroke-width="0.5"/>
<path d="M310 120V360" stroke="#D8D8D9" stroke-width="0.5"/>
<path d="M120 320H360" stroke="#D8D8D9" stroke-width="0.5"/>
<path d="M320 120V360" stroke="#D8D8D9" stroke-width="0.5"/>
<path d="M120 330H360" stroke="#D8D8D9" stroke-width="0.5"/>
<path d="M330 120V360" stroke="#D8D8D9" stroke-width="0.5"/>
<path d="M120 340H360" stroke="#D8D8D9" stroke-width="0.5"/>
<path d="M340 120V360" stroke="#D8D8D9" stroke-width="0.5"/>
<path d="M120 350H360" stroke="#D8D8D9" stroke-width="0.5"/>
<path d="M350 120V360" stroke="#D8D8D9" stroke-width="0.5"/>
</g>
<path opacity="0.5" d="M295 310H210C197.018 309.997 184.294 306.384 173.247 299.565C162.201 292.746 153.269 282.989 147.448 271.386C141.628 259.783 139.149 246.79 140.288 233.858C141.427 220.927 146.139 208.567 153.898 198.16C161.657 187.753 172.158 179.708 184.226 174.925C196.294 170.142 209.454 168.809 222.236 171.075C235.018 173.341 246.918 179.116 256.607 187.756C266.296 196.396 273.391 207.56 277.1 220H295C306.934 220 318.38 224.741 326.819 233.18C335.259 241.619 340 253.065 340 265C340 276.935 335.259 288.381 326.819 296.82C318.38 305.259 306.934 310 295 310Z" stroke="#3C3C43" stroke-width="20" stroke-linecap="round" stroke-linejoin="round"/>
<path opacity="0.5" d="M295 310H210C197.018 309.997 184.294 306.384 173.247 299.565C162.201 292.746 153.269 282.989 147.448 271.386C141.628 259.783 139.149 246.79 140.288 233.858C141.427 220.927 146.139 208.567 153.898 198.16C161.657 187.753 172.158 179.708 184.226 174.925C196.294 170.142 209.454 168.809 222.236 171.075C235.018 173.341 246.918 179.116 256.607 187.756C266.296 196.396 273.391 207.56 277.1 220H295C306.934 220 318.38 224.741 326.819 233.18C335.259 241.619 340 253.065 340 265C340 276.935 335.259 288.381 326.819 296.82C318.38 305.259 306.934 310 295 310Z" stroke="#F56565" stroke-dasharray="1 1"/>
<defs>
<clipPath id="clip0_1612_15996">
<rect x="120" y="120" width="240" height="240" rx="8" fill="white"/>
</clipPath>
</defs>
</svg>
