<svg width="480" height="480" viewBox="0 0 480 480" fill="none" xmlns="http://www.w3.org/2000/svg">
<rect width="480" height="480" fill="#3C3C43"/>
<path d="M197 392.5L185 404.5" stroke="#F45F7A" stroke-width="3" stroke-linecap="round" stroke-linejoin="round"/>
<path d="M185 392.5L197 404.5" stroke="#F45F7A" stroke-width="3" stroke-linecap="round" stroke-linejoin="round"/>
<path d="M221.071 410H213.079V387.455H221.137C223.405 387.455 225.357 387.906 226.994 388.809C228.631 389.704 229.889 390.992 230.77 392.673C231.658 394.353 232.102 396.364 232.102 398.705C232.102 401.054 231.658 403.072 230.77 404.76C229.889 406.448 228.623 407.743 226.972 408.646C225.328 409.549 223.361 410 221.071 410ZM217.846 405.916H220.873C222.282 405.916 223.468 405.666 224.429 405.167C225.398 404.661 226.124 403.879 226.609 402.822C227.1 401.758 227.346 400.386 227.346 398.705C227.346 397.039 227.1 395.678 226.609 394.621C226.124 393.564 225.401 392.786 224.44 392.287C223.479 391.788 222.293 391.539 220.884 391.539H217.846V405.916ZM243.185 410.33C241.475 410.33 239.996 409.967 238.748 409.24C237.508 408.507 236.55 407.486 235.875 406.18C235.2 404.866 234.862 403.344 234.862 401.612C234.862 399.865 235.2 398.338 235.875 397.032C236.55 395.718 237.508 394.698 238.748 393.972C239.996 393.238 241.475 392.871 243.185 392.871C244.895 392.871 246.37 393.238 247.61 393.972C248.858 394.698 249.819 395.718 250.494 397.032C251.17 398.338 251.507 399.865 251.507 401.612C251.507 403.344 251.17 404.866 250.494 406.18C249.819 407.486 248.858 408.507 247.61 409.24C246.37 409.967 244.895 410.33 243.185 410.33ZM243.207 406.697C243.985 406.697 244.634 406.477 245.155 406.037C245.676 405.589 246.069 404.98 246.333 404.21C246.605 403.439 246.74 402.562 246.74 401.578C246.74 400.595 246.605 399.718 246.333 398.947C246.069 398.177 245.676 397.568 245.155 397.12C244.634 396.672 243.985 396.449 243.207 396.449C242.421 396.449 241.761 396.672 241.225 397.12C240.697 397.568 240.297 398.177 240.025 398.947C239.761 399.718 239.629 400.595 239.629 401.578C239.629 402.562 239.761 403.439 240.025 404.21C240.297 404.98 240.697 405.589 241.225 406.037C241.761 406.477 242.421 406.697 243.207 406.697ZM259.246 400.224V410H254.557V393.091H259.026V396.074H259.224C259.598 395.091 260.226 394.313 261.107 393.74C261.987 393.161 263.055 392.871 264.31 392.871C265.484 392.871 266.508 393.128 267.381 393.641C268.255 394.155 268.934 394.889 269.418 395.843C269.902 396.79 270.145 397.92 270.145 399.234V410H265.455V400.07C265.462 399.036 265.198 398.228 264.662 397.648C264.127 397.061 263.389 396.768 262.45 396.768C261.818 396.768 261.261 396.904 260.776 397.175C260.299 397.447 259.925 397.843 259.653 398.364C259.389 398.878 259.253 399.498 259.246 400.224ZM277.771 387.455V389.832C277.771 390.508 277.639 391.197 277.374 391.902C277.118 392.599 276.773 393.26 276.34 393.884C275.907 394.5 275.433 395.025 274.92 395.458L272.85 394.236C273.217 393.656 273.54 393.014 273.819 392.309C274.105 391.605 274.248 390.786 274.248 389.854V387.455H277.771ZM290.464 393.091V396.614H280.281V393.091H290.464ZM282.592 389.04H287.282V404.804C287.282 405.237 287.348 405.575 287.48 405.817C287.612 406.052 287.796 406.217 288.031 406.312C288.273 406.408 288.552 406.455 288.867 406.455C289.087 406.455 289.308 406.437 289.528 406.4C289.748 406.356 289.917 406.323 290.034 406.301L290.772 409.791C290.537 409.864 290.207 409.949 289.781 410.044C289.355 410.147 288.838 410.209 288.229 410.231C287.099 410.275 286.108 410.125 285.257 409.78C284.413 409.435 283.756 408.899 283.286 408.173C282.816 407.446 282.585 406.529 282.592 405.42V389.04ZM296.26 410.286C295.533 410.286 294.909 410.029 294.388 409.516C293.874 408.995 293.617 408.371 293.617 407.644C293.617 406.925 293.874 406.308 294.388 405.795C294.909 405.281 295.533 405.024 296.26 405.024C296.964 405.024 297.581 405.281 298.109 405.795C298.637 406.308 298.902 406.925 298.902 407.644C298.902 408.129 298.777 408.573 298.527 408.976C298.285 409.373 297.966 409.692 297.57 409.934C297.173 410.169 296.737 410.286 296.26 410.286Z" fill="#F45F7A"/>
<path d="M135.198 63.4545V86H131.081L121.272 71.81H121.107V86H116.34V63.4545H120.524L130.255 77.6335H130.453V63.4545H135.198ZM146.688 86.3303C144.978 86.3303 143.499 85.967 142.252 85.2404C141.011 84.5065 140.054 83.4864 139.378 82.18C138.703 80.8664 138.366 79.3435 138.366 77.6115C138.366 75.8648 138.703 74.3383 139.378 73.032C140.054 71.7183 141.011 70.6982 142.252 69.9716C143.499 69.2377 144.978 68.8707 146.688 68.8707C148.398 68.8707 149.873 69.2377 151.114 69.9716C152.361 70.6982 153.323 71.7183 153.998 73.032C154.673 74.3383 155.011 75.8648 155.011 77.6115C155.011 79.3435 154.673 80.8664 153.998 82.18C153.323 83.4864 152.361 84.5065 151.114 85.2404C149.873 85.967 148.398 86.3303 146.688 86.3303ZM146.71 82.6974C147.488 82.6974 148.138 82.4773 148.659 82.0369C149.18 81.5893 149.572 80.9801 149.837 80.2095C150.108 79.4389 150.244 78.5619 150.244 77.5785C150.244 76.5951 150.108 75.718 149.837 74.9474C149.572 74.1768 149.18 73.5677 148.659 73.12C148.138 72.6723 147.488 72.4485 146.71 72.4485C145.925 72.4485 145.264 72.6723 144.729 73.12C144.2 73.5677 143.8 74.1768 143.529 74.9474C143.264 75.718 143.132 76.5951 143.132 77.5785C143.132 78.5619 143.264 79.4389 143.529 80.2095C143.8 80.9801 144.2 81.5893 144.729 82.0369C145.264 82.4773 145.925 82.6974 146.71 82.6974ZM167.054 69.0909V72.6136H156.871V69.0909H167.054ZM159.183 65.0398H163.872V80.804C163.872 81.237 163.938 81.5746 164.071 81.8168C164.203 82.0516 164.386 82.2167 164.621 82.3121C164.863 82.4076 165.142 82.4553 165.458 82.4553C165.678 82.4553 165.898 82.4369 166.118 82.4002C166.338 82.3562 166.507 82.3232 166.625 82.3011L167.362 85.7908C167.127 85.8642 166.797 85.9486 166.371 86.044C165.946 86.1468 165.428 86.2092 164.819 86.2312C163.689 86.2752 162.698 86.1248 161.847 85.7798C161.003 85.4349 160.346 84.8991 159.876 84.1726C159.407 83.446 159.175 82.5286 159.183 81.4205V65.0398ZM177.284 92.3409V69.0909H181.907V71.9311H182.116C182.322 71.4761 182.619 71.0137 183.008 70.544C183.404 70.067 183.918 69.6707 184.549 69.3551C185.188 69.0322 185.98 68.8707 186.927 68.8707C188.16 68.8707 189.298 69.1937 190.34 69.8395C191.382 70.478 192.215 71.4431 192.839 72.7347C193.462 74.0191 193.774 75.63 193.774 77.5675C193.774 79.4536 193.47 81.0462 192.861 82.3452C192.259 83.6368 191.437 84.6166 190.395 85.2844C189.36 85.945 188.2 86.2752 186.916 86.2752C186.006 86.2752 185.232 86.1248 184.593 85.8239C183.962 85.523 183.445 85.145 183.041 84.69C182.637 84.2276 182.329 83.7616 182.116 83.2919H181.973V92.3409H177.284ZM181.874 77.5455C181.874 78.5509 182.014 79.4279 182.292 80.1765C182.571 80.9251 182.975 81.5085 183.503 81.9268C184.032 82.3378 184.674 82.5433 185.43 82.5433C186.193 82.5433 186.839 82.3342 187.367 81.9158C187.896 81.4902 188.296 80.9031 188.567 80.1545C188.846 79.3986 188.986 78.5289 188.986 77.5455C188.986 76.5694 188.85 75.7107 188.578 74.9695C188.307 74.2282 187.907 73.6484 187.378 73.2301C186.85 72.8118 186.2 72.6026 185.43 72.6026C184.667 72.6026 184.021 72.8045 183.492 73.2081C182.971 73.6117 182.571 74.1842 182.292 74.9254C182.014 75.6667 181.874 76.54 181.874 77.5455ZM196.901 86V69.0909H201.59V86H196.901ZM199.257 66.9112C198.559 66.9112 197.961 66.68 197.462 66.2177C196.97 65.748 196.725 65.1866 196.725 64.5334C196.725 63.8875 196.97 63.3335 197.462 62.8711C197.961 62.4014 198.559 62.1665 199.257 62.1665C199.954 62.1665 200.548 62.4014 201.04 62.8711C201.539 63.3335 201.789 63.8875 201.789 64.5334C201.789 65.1866 201.539 65.748 201.04 66.2177C200.548 66.68 199.954 66.9112 199.257 66.9112ZM209.266 69.0909L212.37 75.0025L215.552 69.0909H220.363L215.464 77.5455L220.495 86H215.706L212.37 80.1545L209.09 86H204.246L209.266 77.5455L204.422 69.0909H209.266ZM230.248 86.3303C228.509 86.3303 227.012 85.978 225.757 85.2734C224.509 84.5616 223.548 83.5561 222.873 82.2571C222.197 80.9508 221.86 79.4059 221.86 77.6225C221.86 75.8832 222.197 74.3567 222.873 73.043C223.548 71.7293 224.498 70.7055 225.724 69.9716C226.957 69.2377 228.403 68.8707 230.061 68.8707C231.177 68.8707 232.215 69.0505 233.177 69.4102C234.145 69.7624 234.989 70.2945 235.709 71.0064C236.435 71.7183 237 72.6136 237.404 73.6925C237.807 74.764 238.009 76.0189 238.009 77.4574V78.7454H223.731V75.8391H233.595C233.595 75.1639 233.448 74.5658 233.155 74.0447C232.861 73.5237 232.454 73.1164 231.933 72.8228C231.419 72.5219 230.821 72.3714 230.138 72.3714C229.426 72.3714 228.795 72.5366 228.245 72.8668C227.702 73.1897 227.276 73.6264 226.968 74.1768C226.66 74.7199 226.502 75.3254 226.494 75.9933V78.7564C226.494 79.593 226.649 80.3159 226.957 80.9251C227.272 81.5342 227.716 82.0039 228.289 82.3342C228.861 82.6644 229.54 82.8295 230.325 82.8295C230.846 82.8295 231.323 82.7562 231.756 82.6094C232.189 82.4626 232.56 82.2424 232.868 81.9489C233.177 81.6553 233.411 81.2957 233.573 80.87L237.91 81.1562C237.69 82.1984 237.239 83.1084 236.556 83.8864C235.881 84.657 235.008 85.2588 233.936 85.6918C232.872 86.1174 231.643 86.3303 230.248 86.3303ZM245.759 63.4545V86H241.07V63.4545H245.759ZM256.691 92.3409V69.0909H261.314V71.9311H261.524C261.729 71.4761 262.026 71.0137 262.415 70.544C262.812 70.067 263.325 69.6707 263.956 69.3551C264.595 69.0322 265.388 68.8707 266.334 68.8707C267.567 68.8707 268.705 69.1937 269.747 69.8395C270.789 70.478 271.622 71.4431 272.246 72.7347C272.87 74.0191 273.182 75.63 273.182 77.5675C273.182 79.4536 272.877 81.0462 272.268 82.3452C271.666 83.6368 270.844 84.6166 269.802 85.2844C268.767 85.945 267.608 86.2752 266.323 86.2752C265.413 86.2752 264.639 86.1248 264 85.8239C263.369 85.523 262.852 85.145 262.448 84.69C262.045 84.2276 261.736 83.7616 261.524 83.2919H261.38V92.3409H256.691ZM261.281 77.5455C261.281 78.5509 261.421 79.4279 261.7 80.1765C261.979 80.9251 262.382 81.5085 262.911 81.9268C263.439 82.3378 264.081 82.5433 264.837 82.5433C265.6 82.5433 266.246 82.3342 266.775 81.9158C267.303 81.4902 267.703 80.9031 267.975 80.1545C268.253 79.3986 268.393 78.5289 268.393 77.5455C268.393 76.5694 268.257 75.7107 267.986 74.9695C267.714 74.2282 267.314 73.6484 266.786 73.2301C266.257 72.8118 265.608 72.6026 264.837 72.6026C264.074 72.6026 263.428 72.8045 262.9 73.2081C262.379 73.6117 261.979 74.1842 261.7 74.9254C261.421 75.6667 261.281 76.54 261.281 77.5455ZM284.014 86.3303C282.275 86.3303 280.777 85.978 279.522 85.2734C278.275 84.5616 277.313 83.5561 276.638 82.2571C275.963 80.9508 275.625 79.4059 275.625 77.6225C275.625 75.8832 275.963 74.3567 276.638 73.043C277.313 71.7293 278.264 70.7055 279.489 69.9716C280.722 69.2377 282.168 68.8707 283.827 68.8707C284.942 68.8707 285.981 69.0505 286.942 69.4102C287.911 69.7624 288.755 70.2945 289.474 71.0064C290.201 71.7183 290.766 72.6136 291.169 73.6925C291.573 74.764 291.775 76.0189 291.775 77.4574V78.7454H277.497V75.8391H287.361C287.361 75.1639 287.214 74.5658 286.92 74.0447C286.627 73.5237 286.219 73.1164 285.698 72.8228C285.185 72.5219 284.586 72.3714 283.904 72.3714C283.192 72.3714 282.561 72.5366 282.01 72.8668C281.467 73.1897 281.042 73.6264 280.733 74.1768C280.425 74.7199 280.267 75.3254 280.26 75.9933V78.7564C280.26 79.593 280.414 80.3159 280.722 80.9251C281.038 81.5342 281.482 82.0039 282.054 82.3342C282.627 82.6644 283.306 82.8295 284.091 82.8295C284.612 82.8295 285.089 82.7562 285.522 82.6094C285.955 82.4626 286.326 82.2424 286.634 81.9489C286.942 81.6553 287.177 81.2957 287.339 80.87L291.676 81.1562C291.456 82.1984 291.004 83.1084 290.322 83.8864C289.647 84.657 288.773 85.2588 287.702 85.6918C286.638 86.1174 285.408 86.3303 284.014 86.3303ZM294.835 86V69.0909H299.382V72.0412H299.558C299.866 70.9917 300.384 70.1991 301.11 69.6634C301.837 69.1203 302.673 68.8487 303.62 68.8487C303.855 68.8487 304.108 68.8634 304.38 68.8928C304.651 68.9221 304.89 68.9625 305.095 69.0138V73.1751C304.875 73.109 304.571 73.0503 304.182 72.9989C303.793 72.9476 303.437 72.9219 303.114 72.9219C302.424 72.9219 301.807 73.0723 301.264 73.3732C300.729 73.6668 300.303 74.0778 299.987 74.6062C299.679 75.1346 299.525 75.7437 299.525 76.4336V86H294.835ZM317.461 69.0909V72.6136H307.025V69.0909H317.461ZM309.413 86V67.869C309.413 66.6433 309.652 65.6269 310.129 64.8196C310.613 64.0123 311.274 63.4068 312.11 63.0032C312.947 62.5995 313.897 62.3977 314.962 62.3977C315.681 62.3977 316.338 62.4528 316.932 62.5629C317.534 62.6729 317.982 62.772 318.275 62.8601L317.439 66.3828C317.255 66.3241 317.028 66.2691 316.756 66.2177C316.492 66.1663 316.22 66.1406 315.941 66.1406C315.252 66.1406 314.771 66.3021 314.499 66.625C314.228 66.9406 314.092 67.3846 314.092 67.957V86H309.413ZM327.426 86.3303C325.687 86.3303 324.19 85.978 322.935 85.2734C321.687 84.5616 320.726 83.5561 320.05 82.2571C319.375 80.9508 319.038 79.4059 319.038 77.6225C319.038 75.8832 319.375 74.3567 320.05 73.043C320.726 71.7293 321.676 70.7055 322.902 69.9716C324.134 69.2377 325.58 68.8707 327.239 68.8707C328.354 68.8707 329.393 69.0505 330.354 69.4102C331.323 69.7624 332.167 70.2945 332.886 71.0064C333.613 71.7183 334.178 72.6136 334.582 73.6925C334.985 74.764 335.187 76.0189 335.187 77.4574V78.7454H320.909V75.8391H330.773C330.773 75.1639 330.626 74.5658 330.332 74.0447C330.039 73.5237 329.631 73.1164 329.11 72.8228C328.597 72.5219 327.998 72.3714 327.316 72.3714C326.604 72.3714 325.973 72.5366 325.422 72.8668C324.879 73.1897 324.454 73.6264 324.146 74.1768C323.837 74.7199 323.679 75.3254 323.672 75.9933V78.7564C323.672 79.593 323.826 80.3159 324.134 80.9251C324.45 81.5342 324.894 82.0039 325.467 82.3342C326.039 82.6644 326.718 82.8295 327.503 82.8295C328.024 82.8295 328.501 82.7562 328.934 82.6094C329.367 82.4626 329.738 82.2424 330.046 81.9489C330.354 81.6553 330.589 81.2957 330.751 80.87L335.088 81.1562C334.868 82.1984 334.416 83.1084 333.734 83.8864C333.059 84.657 332.185 85.2588 331.114 85.6918C330.05 86.1174 328.82 86.3303 327.426 86.3303ZM345.887 86.3303C344.155 86.3303 342.666 85.9633 341.418 85.2294C340.178 84.4882 339.224 83.4607 338.556 82.147C337.895 80.8333 337.565 79.3215 337.565 77.6115C337.565 75.8795 337.899 74.3603 338.567 73.054C339.242 71.7403 340.2 70.7165 341.44 69.9826C342.68 69.2414 344.155 68.8707 345.865 68.8707C347.34 68.8707 348.632 69.1386 349.74 69.6744C350.849 70.2101 351.726 70.9624 352.371 71.9311C353.017 72.8999 353.373 74.0374 353.439 75.3438H349.014C348.889 74.4998 348.559 73.8209 348.023 73.3072C347.495 72.7861 346.801 72.5256 345.942 72.5256C345.216 72.5256 344.581 72.7237 344.038 73.12C343.502 73.509 343.084 74.0778 342.783 74.8263C342.482 75.5749 342.332 76.4813 342.332 77.5455C342.332 78.6243 342.478 79.5417 342.772 80.2976C343.073 81.0535 343.495 81.6296 344.038 82.0259C344.581 82.4222 345.216 82.6204 345.942 82.6204C346.478 82.6204 346.959 82.5103 347.384 82.2901C347.818 82.07 348.173 81.7507 348.452 81.3324C348.739 80.9067 348.926 80.3967 349.014 79.8022H353.439C353.366 81.0939 353.014 82.2314 352.382 83.2148C351.759 84.1909 350.896 84.9542 349.795 85.5046C348.695 86.055 347.392 86.3303 345.887 86.3303ZM365.436 69.0909V72.6136H355.253V69.0909H365.436ZM357.565 65.0398H362.254V80.804C362.254 81.237 362.32 81.5746 362.452 81.8168C362.585 82.0516 362.768 82.2167 363.003 82.3121C363.245 82.4076 363.524 82.4553 363.839 82.4553C364.06 82.4553 364.28 82.4369 364.5 82.4002C364.72 82.3562 364.889 82.3232 365.006 82.3011L365.744 85.7908C365.509 85.8642 365.179 85.9486 364.753 86.044C364.328 86.1468 363.81 86.2092 363.201 86.2312C362.071 86.2752 361.08 86.1248 360.229 85.7798C359.385 85.4349 358.728 84.8991 358.258 84.1726C357.788 83.446 357.557 82.5286 357.565 81.4205V65.0398Z" fill="white"/>
<g clip-path="url(#clip0_1612_16633)">
<rect x="120" y="120" width="240" height="240" rx="8" fill="#F5F5F5"/>
<path d="M120 130H360" stroke="#D8D8D9" stroke-width="0.5"/>
<path d="M130 120V360" stroke="#D8D8D9" stroke-width="0.5"/>
<path d="M120 140H360" stroke="#D8D8D9" stroke-width="0.5"/>
<path d="M140 120V360" stroke="#D8D8D9" stroke-width="0.5"/>
<path d="M120 150H360" stroke="#D8D8D9" stroke-width="0.5"/>
<path d="M150 120V360" stroke="#D8D8D9" stroke-width="0.5"/>
<path d="M120 160H360" stroke="#D8D8D9" stroke-width="0.5"/>
<path d="M160 120V360" stroke="#D8D8D9" stroke-width="0.5"/>
<path d="M120 170H360" stroke="#D8D8D9" stroke-width="0.5"/>
<path d="M170 120V360" stroke="#D8D8D9" stroke-width="0.5"/>
<path d="M120 180H360" stroke="#D8D8D9" stroke-width="0.5"/>
<path d="M180 120V360" stroke="#D8D8D9" stroke-width="0.5"/>
<path d="M120 190H360" stroke="#D8D8D9" stroke-width="0.5"/>
<path d="M190 120V360" stroke="#D8D8D9" stroke-width="0.5"/>
<path d="M120 200H360" stroke="#D8D8D9" stroke-width="0.5"/>
<path d="M200 120V360" stroke="#D8D8D9" stroke-width="0.5"/>
<path d="M120 210H360" stroke="#D8D8D9" stroke-width="0.5"/>
<path d="M210 120V360" stroke="#D8D8D9" stroke-width="0.5"/>
<path d="M120 220H360" stroke="#D8D8D9" stroke-width="0.5"/>
<path d="M220 120V360" stroke="#D8D8D9" stroke-width="0.5"/>
<path d="M120 230H360" stroke="#D8D8D9" stroke-width="0.5"/>
<path d="M230 120V360" stroke="#D8D8D9" stroke-width="0.5"/>
<path d="M120 240H360" stroke="#D8D8D9" stroke-width="0.5"/>
<path d="M240 120V360" stroke="#D8D8D9" stroke-width="0.5"/>
<path d="M120 250H360" stroke="#D8D8D9" stroke-width="0.5"/>
<path d="M250 120V360" stroke="#D8D8D9" stroke-width="0.5"/>
<path d="M120 260H360" stroke="#D8D8D9" stroke-width="0.5"/>
<path d="M260 120V360" stroke="#D8D8D9" stroke-width="0.5"/>
<path d="M120 270H360" stroke="#D8D8D9" stroke-width="0.5"/>
<path d="M270 120V360" stroke="#D8D8D9" stroke-width="0.5"/>
<path d="M120 280H360" stroke="#D8D8D9" stroke-width="0.5"/>
<path d="M280 120V360" stroke="#D8D8D9" stroke-width="0.5"/>
<path d="M120 290H360" stroke="#D8D8D9" stroke-width="0.5"/>
<path d="M290 120V360" stroke="#D8D8D9" stroke-width="0.5"/>
<path d="M120 300H360" stroke="#D8D8D9" stroke-width="0.5"/>
<path d="M300 120V360" stroke="#D8D8D9" stroke-width="0.5"/>
<path d="M120 310H360" stroke="#D8D8D9" stroke-width="0.5"/>
<path d="M310 120V360" stroke="#D8D8D9" stroke-width="0.5"/>
<path d="M120 320H360" stroke="#D8D8D9" stroke-width="0.5"/>
<path d="M320 120V360" stroke="#D8D8D9" stroke-width="0.5"/>
<path d="M120 330H360" stroke="#D8D8D9" stroke-width="0.5"/>
<path d="M330 120V360" stroke="#D8D8D9" stroke-width="0.5"/>
<path d="M120 340H360" stroke="#D8D8D9" stroke-width="0.5"/>
<path d="M340 120V360" stroke="#D8D8D9" stroke-width="0.5"/>
<path d="M120 350H360" stroke="#D8D8D9" stroke-width="0.5"/>
<path d="M350 120V360" stroke="#D8D8D9" stroke-width="0.5"/>
</g>
<path opacity="0.5" d="M174.628 299.131C186.133 306.233 199.387 309.997 212.908 310L292.494 310C305.094 310 317.177 304.995 326.086 296.086C334.995 287.177 340.001 275.093 340.001 262.494C340.001 249.894 334.995 237.811 326.086 228.902C317.177 219.992 305.094 214.987 292.494 214.987H282.404C278.444 202.542 271.211 191.38 261.452 182.676C251.361 173.677 238.966 167.662 225.653 165.302C212.339 162.942 198.632 164.33 186.063 169.312C173.493 174.294 162.557 182.673 154.475 193.512C146.393 204.352 141.485 217.226 140.299 230.694C139.112 244.163 141.695 257.696 147.757 269.782C153.819 281.867 163.123 292.029 174.628 299.131Z" stroke="url(#paint0_linear_1612_16633)" stroke-width="20" stroke-linecap="round" stroke-linejoin="round"/>
<path opacity="0.5" d="M212.908 310L212.908 310.5L212.908 310.5L212.908 310ZM174.628 299.131L174.366 299.557L174.628 299.131ZM140.299 230.694L139.801 230.65L140.299 230.694ZM154.475 193.512L154.876 193.811L154.475 193.512ZM186.063 169.312L186.247 169.777L186.247 169.777L186.063 169.312ZM225.653 165.302L225.74 164.809L225.74 164.809L225.653 165.302ZM261.452 182.676L261.119 183.05L261.119 183.05L261.452 182.676ZM326.086 228.902L325.733 229.255L325.733 229.255L326.086 228.902ZM326.086 296.086L326.44 296.439L326.44 296.439L326.086 296.086ZM292.494 310L292.494 309.5H292.494L292.494 310ZM282.404 214.987L281.927 215.139L282.038 215.487H282.404V214.987ZM212.908 309.5C212.741 309.5 212.574 309.499 212.407 309.498L212.4 310.498C212.569 310.499 212.738 310.5 212.908 310.5L212.908 309.5ZM211.407 309.484C211.073 309.477 210.74 309.468 210.407 309.456L210.372 310.456C210.71 310.467 211.048 310.477 211.386 310.484L211.407 309.484ZM209.407 309.414C209.073 309.398 208.74 309.38 208.407 309.359L208.345 310.357C208.682 310.378 209.02 310.397 209.358 310.413L209.407 309.414ZM207.409 309.29C207.077 309.264 206.744 309.236 206.412 309.206L206.322 310.202C206.659 310.233 206.996 310.261 207.333 310.287L207.409 309.29ZM205.416 309.11C205.084 309.075 204.753 309.038 204.422 308.999L204.304 309.992C204.64 310.032 204.976 310.069 205.312 310.104L205.416 309.11ZM203.429 308.874C203.098 308.831 202.768 308.785 202.438 308.736L202.293 309.726C202.627 309.775 202.962 309.821 203.297 309.866L203.429 308.874ZM201.448 308.585C201.119 308.532 200.79 308.477 200.462 308.419L200.289 309.404C200.623 309.462 200.956 309.518 201.29 309.572L201.448 308.585ZM199.477 308.24C199.149 308.178 198.822 308.114 198.495 308.047L198.296 309.027C198.627 309.095 198.959 309.16 199.291 309.223L199.477 308.24ZM197.516 307.841C197.19 307.77 196.865 307.697 196.54 307.621L196.313 308.596C196.643 308.672 196.973 308.746 197.303 308.818L197.516 307.841ZM195.567 307.388C195.243 307.308 194.919 307.226 194.597 307.142L194.344 308.109C194.671 308.195 194.998 308.278 195.327 308.359L195.567 307.388ZM193.63 306.882C193.309 306.793 192.988 306.702 192.668 306.608L192.388 307.568C192.713 307.663 193.038 307.755 193.364 307.845L193.63 306.882ZM191.709 306.322C191.39 306.224 191.072 306.124 190.754 306.022L190.448 306.974C190.77 307.077 191.093 307.179 191.416 307.278L191.709 306.322ZM189.804 305.709C189.488 305.602 189.172 305.494 188.858 305.383L188.525 306.326C188.844 306.438 189.164 306.549 189.485 306.657L189.804 305.709ZM187.916 305.044C187.603 304.929 187.291 304.811 186.98 304.692L186.621 305.625C186.937 305.746 187.254 305.865 187.571 305.982L187.916 305.044ZM186.048 304.327C185.738 304.203 185.429 304.077 185.121 303.949L184.737 304.872C185.05 305.002 185.363 305.13 185.677 305.255L186.048 304.327ZM184.2 303.558C183.894 303.426 183.589 303.291 183.284 303.155L182.875 304.067C183.184 304.206 183.493 304.342 183.803 304.476L184.2 303.558ZM182.374 302.739C182.072 302.598 181.77 302.455 181.47 302.31L181.035 303.211C181.34 303.358 181.646 303.503 181.952 303.645L182.374 302.739ZM180.572 301.869C180.273 301.72 179.976 301.569 179.68 301.416L179.22 302.304C179.521 302.46 179.822 302.613 180.125 302.764L180.572 301.869ZM178.794 300.95C178.5 300.793 178.207 300.634 177.915 300.473L177.431 301.348C177.727 301.512 178.024 301.673 178.322 301.832L178.794 300.95ZM177.042 299.983C176.752 299.818 176.464 299.65 176.176 299.481L175.669 300.342C175.96 300.514 176.253 300.684 176.546 300.851L177.042 299.983ZM175.318 298.967C175.175 298.88 175.033 298.793 174.891 298.706L174.366 299.557C174.51 299.645 174.654 299.734 174.798 299.822L175.318 298.967ZM174.891 298.706C174.749 298.618 174.607 298.53 174.466 298.441L173.935 299.289C174.078 299.378 174.222 299.468 174.366 299.557L174.891 298.706ZM173.622 297.904C173.342 297.723 173.063 297.54 172.785 297.355L172.231 298.187C172.512 298.375 172.795 298.56 173.079 298.744L173.622 297.904ZM171.956 296.794C171.681 296.606 171.407 296.415 171.135 296.223L170.558 297.039C170.834 297.234 171.111 297.428 171.39 297.619L171.956 296.794ZM170.322 295.639C170.052 295.443 169.784 295.245 169.517 295.045L168.917 295.845C169.188 296.048 169.46 296.249 169.733 296.448L170.322 295.639ZM168.72 294.44C168.456 294.236 168.193 294.03 167.932 293.823L167.31 294.607C167.575 294.817 167.842 295.025 168.11 295.232L168.72 294.44ZM167.152 293.196C166.894 292.985 166.637 292.772 166.381 292.558L165.738 293.324C165.997 293.541 166.258 293.757 166.52 293.971L167.152 293.196ZM165.619 291.91C165.366 291.692 165.115 291.472 164.866 291.251L164.202 291.999C164.455 292.223 164.71 292.446 164.966 292.667L165.619 291.91ZM164.122 290.581C163.876 290.356 163.631 290.13 163.388 289.902L162.703 290.631C162.95 290.862 163.198 291.092 163.448 291.32L164.122 290.581ZM162.662 289.212C162.422 288.98 162.184 288.747 161.947 288.512L161.243 289.223C161.483 289.461 161.725 289.697 161.968 289.932L162.662 289.212ZM161.241 287.803C161.008 287.565 160.776 287.325 160.545 287.084L159.822 287.774C160.055 288.019 160.291 288.262 160.527 288.503L161.241 287.803ZM159.86 286.355C159.633 286.111 159.407 285.865 159.184 285.617L158.442 286.287C158.668 286.538 158.897 286.788 159.127 287.036L159.86 286.355ZM158.518 284.87C158.298 284.619 158.08 284.367 157.863 284.113L157.103 284.763C157.322 285.02 157.544 285.276 157.767 285.53L158.518 284.87ZM157.219 283.348C157.006 283.091 156.794 282.833 156.585 282.574L155.807 283.202C156.019 283.465 156.233 283.727 156.449 283.987L157.219 283.348ZM155.962 281.791C155.756 281.528 155.552 281.265 155.349 280.999L154.554 281.606C154.759 281.875 154.966 282.142 155.175 282.408L155.962 281.791ZM154.748 280.199C154.549 279.931 154.353 279.662 154.158 279.391L153.346 279.976C153.544 280.25 153.743 280.523 153.945 280.795L154.748 280.199ZM153.579 278.575C153.388 278.302 153.199 278.027 153.011 277.751L152.184 278.313C152.374 278.592 152.566 278.871 152.759 279.148L153.579 278.575ZM152.455 276.919C152.272 276.641 152.09 276.361 151.91 276.08L151.068 276.618C151.25 276.903 151.434 277.187 151.62 277.469L152.455 276.919ZM151.378 275.233C151.202 274.949 151.028 274.665 150.856 274.379L149.999 274.894C150.173 275.184 150.349 275.472 150.528 275.76L151.378 275.233ZM150.347 273.517C150.179 273.229 150.013 272.94 149.85 272.649L148.978 273.14C149.145 273.435 149.313 273.728 149.483 274.02L150.347 273.517ZM149.364 271.774C149.204 271.481 149.047 271.187 148.891 270.892L148.007 271.359C148.165 271.658 148.324 271.956 148.486 272.253L149.364 271.774ZM148.43 270.004C148.354 269.855 148.279 269.707 148.204 269.557L147.31 270.006C147.386 270.157 147.462 270.308 147.539 270.459L148.43 270.004ZM148.204 269.557C148.129 269.408 148.055 269.259 147.981 269.109L147.084 269.551C147.159 269.703 147.234 269.855 147.31 270.006L148.204 269.557ZM147.545 268.209C147.402 267.907 147.26 267.605 147.121 267.302L146.212 267.72C146.353 268.027 146.497 268.333 146.642 268.639L147.545 268.209ZM146.71 266.39C146.575 266.085 146.442 265.779 146.311 265.472L145.391 265.864C145.524 266.175 145.659 266.485 145.795 266.795L146.71 266.39ZM145.925 264.549C145.799 264.24 145.675 263.931 145.552 263.62L144.622 263.987C144.746 264.301 144.872 264.615 145 264.928L145.925 264.549ZM145.192 262.687C145.074 262.375 144.959 262.062 144.845 261.748L143.905 262.089C144.02 262.407 144.137 262.724 144.257 263.04L145.192 262.687ZM144.511 260.805C144.402 260.49 144.294 260.174 144.19 259.857L143.24 260.172C143.347 260.493 143.455 260.813 143.566 261.132L144.511 260.805ZM143.882 258.905C143.781 258.587 143.683 258.268 143.587 257.949L142.629 258.237C142.726 258.561 142.826 258.884 142.928 259.206L143.882 258.905ZM143.305 256.989C143.213 256.668 143.124 256.347 143.037 256.025L142.072 256.286C142.16 256.613 142.251 256.938 142.344 257.264L143.305 256.989ZM142.782 255.057C142.699 254.734 142.619 254.41 142.54 254.086L141.568 254.321C141.648 254.649 141.729 254.978 141.813 255.305L142.782 255.057ZM142.312 253.112C142.238 252.786 142.167 252.461 142.097 252.134L141.119 252.342C141.19 252.673 141.262 253.003 141.337 253.333L142.312 253.112ZM141.896 251.154C141.832 250.827 141.769 250.499 141.709 250.171L140.725 250.352C140.786 250.684 140.85 251.017 140.915 251.348L141.896 251.154ZM141.535 249.186C141.479 248.857 141.426 248.528 141.374 248.198L140.386 248.351C140.438 248.685 140.492 249.019 140.549 249.353L141.535 249.186ZM141.228 247.208C141.181 246.878 141.137 246.547 141.095 246.216L140.103 246.342C140.145 246.678 140.19 247.013 140.238 247.348L141.228 247.208ZM140.976 245.223C140.938 244.891 140.903 244.56 140.87 244.228L139.875 244.326C139.908 244.663 139.944 244.999 139.982 245.335L140.976 245.223ZM140.778 243.231C140.75 242.899 140.724 242.566 140.7 242.234L139.703 242.305C139.727 242.642 139.753 242.979 139.782 243.316L140.778 243.231ZM140.636 241.235C140.617 240.902 140.6 240.569 140.586 240.236L139.587 240.279C139.602 240.617 139.619 240.955 139.638 241.292L140.636 241.235ZM140.549 239.236C140.539 238.902 140.532 238.569 140.527 238.235L139.527 238.251C139.532 238.589 139.54 238.927 139.55 239.265L140.549 239.236ZM140.518 237.234C140.517 236.901 140.519 236.568 140.523 236.234L139.523 236.222C139.519 236.56 139.517 236.898 139.518 237.236L140.518 237.234ZM140.541 235.233C140.55 234.9 140.561 234.567 140.574 234.233L139.575 234.194C139.561 234.532 139.55 234.87 139.542 235.208L140.541 235.233ZM140.62 233.234C140.638 232.901 140.658 232.568 140.681 232.235L139.683 232.168C139.66 232.505 139.64 232.843 139.622 233.18L140.62 233.234ZM140.755 231.237C140.768 231.071 140.782 230.904 140.797 230.738L139.801 230.65C139.786 230.819 139.772 230.987 139.758 231.156L140.755 231.237ZM140.797 230.738C140.812 230.572 140.827 230.406 140.843 230.24L139.847 230.145C139.831 230.313 139.816 230.482 139.801 230.65L140.797 230.738ZM140.944 229.244C140.98 228.913 141.019 228.581 141.059 228.25L140.067 228.128C140.026 228.464 139.987 228.8 139.95 229.136L140.944 229.244ZM141.188 227.258C141.234 226.927 141.281 226.597 141.331 226.267L140.342 226.118C140.292 226.452 140.244 226.787 140.198 227.122L141.188 227.258ZM141.488 225.279C141.542 224.95 141.599 224.621 141.658 224.293L140.673 224.116C140.614 224.449 140.556 224.782 140.501 225.116L141.488 225.279ZM141.841 223.309C141.905 222.982 141.971 222.655 142.039 222.328L141.06 222.124C140.991 222.455 140.924 222.787 140.86 223.119L141.841 223.309ZM142.249 221.35C142.322 221.024 142.397 220.699 142.474 220.375L141.501 220.144C141.423 220.473 141.347 220.803 141.273 221.133L142.249 221.35ZM142.711 219.403C142.793 219.079 142.877 218.756 142.962 218.434L141.996 218.177C141.909 218.503 141.824 218.831 141.742 219.159L142.711 219.403ZM143.227 217.469C143.317 217.148 143.41 216.828 143.505 216.508L142.546 216.224C142.45 216.548 142.356 216.873 142.264 217.198L143.227 217.469ZM143.796 215.55C143.895 215.232 143.997 214.914 144.1 214.597L143.15 214.286C143.045 214.608 142.942 214.93 142.841 215.253L143.796 215.55ZM144.418 213.648C144.526 213.333 144.636 213.018 144.748 212.704L143.807 212.367C143.693 212.685 143.581 213.004 143.471 213.324L144.418 213.648ZM145.092 211.764C145.208 211.451 145.327 211.14 145.448 210.829L144.516 210.466C144.394 210.781 144.273 211.097 144.155 211.414L145.092 211.764ZM145.818 209.899C145.943 209.59 146.07 209.281 146.2 208.974L145.278 208.586C145.147 208.897 145.018 209.21 144.891 209.523L145.818 209.899ZM146.595 208.054C146.728 207.749 146.864 207.444 147.002 207.141L146.092 206.727C145.952 207.035 145.814 207.344 145.679 207.653L146.595 208.054ZM147.422 206.232C147.565 205.931 147.709 205.63 147.855 205.33L146.957 204.892C146.808 205.195 146.662 205.5 146.518 205.806L147.422 206.232ZM148.3 204.434C148.451 204.136 148.603 203.84 148.758 203.544L147.872 203.081C147.715 203.38 147.56 203.681 147.408 203.983L148.3 204.434ZM149.227 202.66C149.386 202.367 149.547 202.075 149.709 201.783L148.836 201.296C148.671 201.591 148.509 201.887 148.348 202.185L149.227 202.66ZM150.203 200.913C150.37 200.624 150.539 200.336 150.709 200.05L149.85 199.538C149.677 199.829 149.506 200.121 149.337 200.413L150.203 200.913ZM151.227 199.194C151.402 198.909 151.578 198.626 151.757 198.345L150.912 197.809C150.731 198.095 150.552 198.382 150.375 198.67L151.227 199.194ZM152.298 197.503C152.48 197.224 152.665 196.946 152.851 196.669L152.021 196.111C151.832 196.391 151.646 196.673 151.461 196.956L152.298 197.503ZM153.415 195.842C153.605 195.568 153.797 195.296 153.991 195.024L153.177 194.443C152.981 194.718 152.786 194.995 152.594 195.273L153.415 195.842ZM154.578 194.214C154.677 194.079 154.776 193.945 154.876 193.811L154.074 193.214C153.973 193.349 153.872 193.485 153.772 193.621L154.578 194.214ZM154.876 193.811C154.976 193.678 155.076 193.544 155.176 193.411L154.379 192.808C154.277 192.943 154.175 193.078 154.074 193.214L154.876 193.811ZM155.785 192.617C155.99 192.354 156.197 192.092 156.405 191.832L155.625 191.207C155.414 191.471 155.204 191.736 154.996 192.003L155.785 192.617ZM157.036 191.055C157.248 190.797 157.462 190.541 157.678 190.287L156.915 189.641C156.696 189.899 156.48 190.158 156.264 190.419L157.036 191.055ZM158.33 189.528C158.549 189.276 158.77 189.026 158.992 188.778L158.248 188.111C158.022 188.363 157.798 188.616 157.576 188.871L158.33 189.528ZM159.665 188.037C159.891 187.792 160.119 187.548 160.348 187.306L159.622 186.618C159.39 186.864 159.159 187.111 158.93 187.36L159.665 188.037ZM161.041 186.584C161.274 186.345 161.508 186.108 161.744 185.872L161.037 185.165C160.798 185.404 160.561 185.644 160.325 185.887L161.041 186.584ZM162.457 185.17C162.696 184.937 162.937 184.706 163.179 184.477L162.492 183.75C162.247 183.983 162.002 184.217 161.76 184.452L162.457 185.17ZM163.911 183.795C164.157 183.569 164.404 183.345 164.652 183.122L163.986 182.377C163.734 182.602 163.483 182.83 163.234 183.059L163.911 183.795ZM165.403 182.46C165.654 182.241 165.908 182.024 166.162 181.809L165.516 181.045C165.258 181.264 165.002 181.484 164.746 181.706L165.403 182.46ZM166.931 181.168C167.188 180.956 167.447 180.746 167.708 180.538L167.083 179.757C166.819 179.968 166.557 180.181 166.295 180.396L166.931 181.168ZM168.494 179.918C168.757 179.713 169.022 179.511 169.288 179.31L168.685 178.512C168.416 178.715 168.147 178.921 167.88 179.129L168.494 179.918ZM170.091 178.712C170.36 178.515 170.63 178.319 170.902 178.126L170.321 177.311C170.046 177.508 169.772 177.706 169.499 177.906L170.091 178.712ZM171.721 177.55C171.995 177.361 172.27 177.173 172.547 176.987L171.99 176.157C171.709 176.345 171.429 176.536 171.151 176.728L171.721 177.55ZM173.382 176.434C173.661 176.252 173.942 176.072 174.224 175.894L173.689 175.049C173.403 175.229 173.119 175.412 172.836 175.597L173.382 176.434ZM175.073 175.365C175.357 175.19 175.643 175.018 175.93 174.848L175.419 173.988C175.128 174.161 174.839 174.335 174.55 174.512L175.073 175.365ZM176.793 174.342C177.082 174.176 177.373 174.011 177.664 173.849L177.177 172.975C176.882 173.14 176.587 173.307 176.294 173.476L176.793 174.342ZM178.541 173.368C178.835 173.209 179.13 173.053 179.425 172.898L178.963 172.012C178.663 172.168 178.364 172.327 178.067 172.488L178.541 173.368ZM180.316 172.442C180.613 172.291 180.912 172.143 181.212 171.997L180.774 171.098C180.47 171.246 180.167 171.397 179.865 171.549L180.316 172.442ZM182.115 171.565C182.417 171.423 182.719 171.283 183.023 171.146L182.61 170.235C182.302 170.375 181.995 170.516 181.689 170.66L182.115 171.565ZM183.938 170.739C184.243 170.605 184.55 170.474 184.857 170.344L184.47 169.423C184.158 169.554 183.847 169.687 183.537 169.822L183.938 170.739ZM185.782 169.963C185.937 169.9 186.092 169.838 186.247 169.777L185.878 168.847C185.721 168.91 185.564 168.972 185.407 169.036L185.782 169.963ZM186.247 169.777C186.402 169.715 186.557 169.654 186.713 169.594L186.351 168.662C186.193 168.723 186.036 168.785 185.878 168.847L186.247 169.777ZM187.648 169.238C187.961 169.122 188.274 169.007 188.588 168.895L188.252 167.954C187.934 168.067 187.616 168.183 187.299 168.301L187.648 169.238ZM189.533 168.566C189.849 168.458 190.165 168.352 190.482 168.249L190.172 167.298C189.851 167.403 189.53 167.51 189.21 167.619L189.533 168.566ZM191.436 167.945C191.754 167.846 192.073 167.749 192.393 167.655L192.11 166.696C191.785 166.792 191.462 166.89 191.139 166.99L191.436 167.945ZM193.355 167.378C193.676 167.288 193.998 167.2 194.32 167.114L194.063 166.147C193.736 166.234 193.41 166.323 193.084 166.415L193.355 167.378ZM195.289 166.863C195.612 166.782 195.937 166.703 196.261 166.626L196.031 165.653C195.702 165.731 195.373 165.811 195.045 165.894L195.289 166.863ZM197.236 166.403C197.562 166.331 197.888 166.261 198.215 166.193L198.012 165.214C197.681 165.282 197.35 165.353 197.02 165.427L197.236 166.403ZM199.196 165.996C199.524 165.933 199.851 165.872 200.18 165.813L200.004 164.829C199.671 164.888 199.338 164.95 199.006 165.014L199.196 165.996ZM201.166 165.644C201.495 165.59 201.825 165.538 202.155 165.488L202.006 164.499C201.671 164.55 201.337 164.602 201.004 164.657L201.166 165.644ZM203.145 165.346C203.476 165.301 203.806 165.258 204.137 165.218L204.016 164.225C203.68 164.266 203.345 164.31 203.01 164.355L203.145 165.346ZM205.132 165.103C205.463 165.067 205.795 165.034 206.127 165.002L206.033 164.007C205.697 164.039 205.36 164.073 205.024 164.109L205.132 165.103ZM207.124 164.915C207.456 164.889 207.789 164.864 208.122 164.842L208.056 163.844C207.718 163.867 207.381 163.891 207.044 163.919L207.124 164.915ZM209.121 164.783C209.454 164.765 209.787 164.75 210.12 164.737L210.082 163.738C209.744 163.751 209.406 163.766 209.068 163.784L209.121 164.783ZM211.121 164.705C211.454 164.697 211.788 164.691 212.121 164.687L212.11 163.687C211.772 163.691 211.434 163.697 211.096 163.705L211.121 164.705ZM213.122 164.683C213.455 164.684 213.789 164.687 214.122 164.692L214.139 163.693C213.801 163.687 213.463 163.684 213.125 163.683L213.122 164.683ZM215.123 164.716C215.456 164.726 215.789 164.738 216.123 164.753L216.167 163.754C215.829 163.739 215.491 163.727 215.153 163.716L215.123 164.716ZM217.122 164.804C217.455 164.823 217.788 164.845 218.121 164.869L218.193 163.872C217.855 163.847 217.518 163.825 217.18 163.806L217.122 164.804ZM219.118 164.948C219.451 164.976 219.783 165.007 220.115 165.04L220.214 164.045C219.877 164.012 219.541 163.98 219.204 163.951L219.118 164.948ZM221.11 165.146C221.441 165.184 221.772 165.224 222.103 165.266L222.23 164.274C221.894 164.232 221.559 164.191 221.223 164.153L221.11 165.146ZM223.095 165.4C223.425 165.447 223.755 165.496 224.085 165.547L224.239 164.559C223.905 164.507 223.57 164.457 223.235 164.41L223.095 165.4ZM225.072 165.708C225.237 165.736 225.401 165.765 225.565 165.794L225.74 164.809C225.573 164.78 225.407 164.751 225.24 164.723L225.072 165.708ZM225.565 165.794C225.73 165.823 225.894 165.853 226.058 165.883L226.239 164.9C226.073 164.869 225.907 164.839 225.74 164.809L225.565 165.794ZM227.041 166.071C227.368 166.136 227.695 166.204 228.021 166.273L228.229 165.295C227.899 165.225 227.567 165.157 227.236 165.091L227.041 166.071ZM228.998 166.489C229.323 166.563 229.648 166.639 229.972 166.717L230.208 165.746C229.879 165.666 229.55 165.589 229.22 165.514L228.998 166.489ZM230.943 166.96C231.266 167.043 231.589 167.128 231.91 167.215L232.173 166.25C231.846 166.162 231.52 166.075 231.192 165.991L230.943 166.96ZM232.874 167.484C233.195 167.576 233.515 167.67 233.834 167.767L234.123 166.809C233.799 166.712 233.475 166.616 233.15 166.523L232.874 167.484ZM234.79 168.062C235.108 168.163 235.426 168.266 235.742 168.371L236.057 167.422C235.736 167.315 235.415 167.211 235.092 167.109L234.79 168.062ZM236.69 168.693C237.005 168.802 237.319 168.914 237.633 169.028L237.974 168.088C237.656 167.972 237.337 167.859 237.018 167.748L236.69 168.693ZM238.571 169.376C238.883 169.494 239.194 169.614 239.504 169.737L239.871 168.806C239.557 168.682 239.241 168.56 238.925 168.441L238.571 169.376ZM240.433 170.11C240.741 170.237 241.049 170.366 241.355 170.497L241.748 169.577C241.437 169.444 241.125 169.314 240.812 169.185L240.433 170.11ZM242.273 170.896C242.578 171.031 242.882 171.169 243.185 171.308L243.603 170.4C243.296 170.258 242.988 170.119 242.678 169.982L242.273 170.896ZM244.091 171.732C244.392 171.876 244.692 172.022 244.991 172.169L245.434 171.273C245.131 171.123 244.827 170.975 244.522 170.83L244.091 171.732ZM245.886 172.619C246.183 172.771 246.479 172.924 246.773 173.08L247.241 172.196C246.942 172.038 246.642 171.882 246.341 171.728L245.886 172.619ZM247.655 173.554C247.947 173.714 248.239 173.876 248.53 174.04L249.021 173.169C248.727 173.003 248.431 172.839 248.134 172.677L247.655 173.554ZM249.397 174.538C249.686 174.706 249.973 174.876 250.258 175.048L250.774 174.191C250.484 174.017 250.193 173.845 249.901 173.674L249.397 174.538ZM251.112 175.57C251.396 175.746 251.678 175.924 251.959 176.104L252.498 175.261C252.213 175.079 251.927 174.899 251.64 174.72L251.112 175.57ZM252.798 176.649C253.076 176.832 253.353 177.018 253.629 177.206L254.191 176.379C253.912 176.188 253.631 176 253.349 175.814L252.798 176.649ZM254.453 177.774C254.726 177.965 254.998 178.158 255.269 178.353L255.854 177.542C255.579 177.344 255.304 177.148 255.027 176.955L254.453 177.774ZM256.077 178.944C256.344 179.143 256.611 179.343 256.876 179.546L257.483 178.751C257.214 178.546 256.944 178.342 256.672 178.141L256.077 178.944ZM257.667 180.159C257.929 180.365 258.19 180.573 258.449 180.783L259.078 180.005C258.815 179.792 258.551 179.581 258.285 179.373L257.667 180.159ZM259.223 181.417C259.48 181.63 259.735 181.845 259.988 182.062L260.638 181.302C260.381 181.082 260.123 180.864 259.863 180.648L259.223 181.417ZM260.744 182.718C260.869 182.828 260.994 182.938 261.119 183.05L261.784 182.303C261.658 182.191 261.532 182.078 261.405 181.967L260.744 182.718ZM261.119 183.05C261.246 183.163 261.372 183.276 261.498 183.39L262.169 182.648C262.041 182.533 261.913 182.418 261.784 182.303L261.119 183.05ZM262.248 184.078C262.497 184.31 262.744 184.543 262.989 184.777L263.681 184.055C263.432 183.817 263.182 183.581 262.93 183.346L262.248 184.078ZM263.72 185.487C263.962 185.725 264.202 185.965 264.441 186.206L265.152 185.504C264.911 185.259 264.667 185.016 264.422 184.774L263.72 185.487ZM265.152 186.936C265.387 187.181 265.62 187.427 265.852 187.676L266.583 186.993C266.348 186.742 266.111 186.492 265.873 186.243L265.152 186.936ZM266.542 188.425C266.77 188.676 266.996 188.929 267.221 189.184L267.971 188.522C267.743 188.264 267.514 188.008 267.282 187.753L266.542 188.425ZM267.889 189.952C268.111 190.21 268.33 190.469 268.547 190.73L269.315 190.09C269.095 189.825 268.873 189.563 268.649 189.301L267.889 189.952ZM269.194 191.517C269.407 191.781 269.619 192.046 269.829 192.313L270.615 191.695C270.402 191.424 270.188 191.155 269.971 190.888L269.194 191.517ZM270.453 193.118C270.66 193.388 270.864 193.659 271.066 193.931L271.869 193.335C271.664 193.059 271.457 192.784 271.248 192.511L270.453 193.118ZM271.668 194.753C271.866 195.029 272.063 195.306 272.257 195.584L273.077 195.011C272.879 194.729 272.68 194.448 272.479 194.169L271.668 194.753ZM272.835 196.422C273.026 196.703 273.215 196.986 273.401 197.269L274.237 196.719C274.047 196.432 273.856 196.146 273.663 195.861L272.835 196.422ZM273.956 198.124C274.138 198.41 274.319 198.697 274.498 198.986L275.348 198.46C275.167 198.167 274.984 197.876 274.798 197.586L273.956 198.124ZM275.028 199.856C275.202 200.147 275.375 200.439 275.545 200.733L276.41 200.231C276.237 199.933 276.062 199.637 275.885 199.342L275.028 199.856ZM276.05 201.617C276.217 201.913 276.381 202.211 276.543 202.509L277.422 202.031C277.257 201.729 277.091 201.428 276.922 201.128L276.05 201.617ZM277.023 203.407C277.181 203.708 277.337 204.009 277.491 204.312L278.382 203.859C278.227 203.552 278.069 203.247 277.908 202.942L277.023 203.407ZM277.945 205.223C278.095 205.528 278.242 205.834 278.387 206.141L279.291 205.714C279.144 205.402 278.995 205.092 278.843 204.783L277.945 205.223ZM278.816 207.065C278.957 207.374 279.095 207.684 279.232 207.995L280.148 207.593C280.009 207.278 279.869 206.963 279.726 206.65L278.816 207.065ZM279.635 208.93C279.767 209.243 279.896 209.557 280.024 209.871L280.951 209.495C280.821 209.176 280.69 208.858 280.556 208.541L279.635 208.93ZM280.4 210.818C280.524 211.134 280.644 211.451 280.763 211.77L281.7 211.42C281.58 211.097 281.457 210.776 281.332 210.455L280.4 210.818ZM281.113 212.726C281.227 213.046 281.339 213.366 281.449 213.688L282.395 213.365C282.284 213.039 282.17 212.714 282.054 212.39L281.113 212.726ZM281.771 214.654C281.824 214.815 281.876 214.977 281.927 215.139L282.88 214.836C282.828 214.672 282.775 214.508 282.722 214.344L281.771 214.654ZM282.404 215.487H282.908V214.487H282.404V215.487ZM283.917 215.487H284.926V214.487H283.917V215.487ZM285.935 215.487H286.944V214.487H285.935V215.487ZM287.953 215.487H288.962V214.487H287.953V215.487ZM289.972 215.487H290.981V214.487H289.972V215.487ZM291.99 215.487H292.494V214.487H291.99V215.487ZM292.494 215.487C292.656 215.487 292.818 215.488 292.98 215.49L292.991 214.49C292.825 214.488 292.66 214.487 292.494 214.487V215.487ZM293.952 215.51C294.275 215.52 294.599 215.533 294.922 215.55L294.974 214.551C294.644 214.534 294.313 214.52 293.982 214.51L293.952 215.51ZM295.892 215.61C296.215 215.633 296.538 215.66 296.86 215.69L296.953 214.695C296.624 214.664 296.294 214.637 295.964 214.613L295.892 215.61ZM297.826 215.79C298.148 215.827 298.47 215.867 298.79 215.911L298.924 214.92C298.597 214.875 298.269 214.834 297.94 214.797L297.826 215.79ZM299.752 216.051C300.072 216.101 300.391 216.154 300.71 216.211L300.885 215.226C300.559 215.168 300.233 215.114 299.906 215.063L299.752 216.051ZM301.665 216.39C301.982 216.453 302.299 216.52 302.616 216.59L302.831 215.613C302.508 215.542 302.184 215.474 301.86 215.409L301.665 216.39ZM303.562 216.809C303.877 216.885 304.191 216.964 304.504 217.047L304.759 216.08C304.44 215.996 304.119 215.915 303.798 215.837L303.562 216.809ZM305.441 217.305C305.752 217.394 306.062 217.487 306.372 217.582L306.667 216.627C306.351 216.529 306.034 216.435 305.716 216.344L305.441 217.305ZM307.297 217.879C307.604 217.981 307.911 218.086 308.216 218.194L308.55 217.252C308.239 217.141 307.926 217.034 307.612 216.93L307.297 217.879ZM309.128 218.529C309.431 218.643 309.733 218.761 310.033 218.882L310.406 217.954C310.099 217.831 309.791 217.71 309.482 217.593L309.128 218.529ZM310.931 219.254C311.228 219.381 311.525 219.511 311.82 219.644L312.231 218.732C311.93 218.596 311.627 218.463 311.323 218.334L310.931 219.254ZM312.702 220.052C312.994 220.192 313.285 220.334 313.575 220.479L314.023 219.585C313.727 219.437 313.43 219.292 313.132 219.149L312.702 220.052ZM314.438 220.924C314.725 221.075 315.009 221.229 315.293 221.386L315.778 220.511C315.488 220.351 315.198 220.194 314.905 220.039L314.438 220.924ZM316.137 221.866C316.417 222.029 316.695 222.194 316.972 222.363L317.493 221.509C317.21 221.337 316.926 221.168 316.64 221.002L316.137 221.866ZM317.796 222.878C318.069 223.052 318.34 223.229 318.61 223.409L319.165 222.578C318.89 222.394 318.613 222.213 318.334 222.035L317.796 222.878ZM319.412 223.957C319.677 224.142 319.941 224.331 320.202 224.522L320.792 223.714C320.524 223.519 320.255 223.327 319.984 223.137L319.412 223.957ZM320.981 225.102C321.239 225.298 321.494 225.497 321.748 225.699L322.37 224.916C322.111 224.71 321.85 224.507 321.587 224.307L320.981 225.102ZM322.502 226.311C322.751 226.518 322.998 226.727 323.243 226.939L323.898 226.183C323.647 225.967 323.395 225.753 323.14 225.542L322.502 226.311ZM323.972 227.583C324.212 227.799 324.45 228.019 324.686 228.241L325.371 227.512C325.13 227.285 324.887 227.061 324.641 226.84L323.972 227.583ZM325.387 228.913C325.503 229.026 325.618 229.14 325.733 229.255L326.44 228.548C326.323 228.431 326.205 228.314 326.087 228.199L325.387 228.913ZM325.733 229.255C325.847 229.37 325.961 229.485 326.075 229.601L326.789 228.901C326.673 228.783 326.557 228.665 326.44 228.548L325.733 229.255ZM326.747 230.302C326.969 230.538 327.189 230.776 327.405 231.016L328.148 230.346C327.927 230.101 327.703 229.858 327.476 229.617L326.747 230.302ZM328.048 231.744C328.26 231.99 328.47 232.237 328.676 232.486L329.446 231.847C329.235 231.593 329.021 231.341 328.805 231.09L328.048 231.744ZM329.289 233.24C329.49 233.494 329.689 233.749 329.885 234.007L330.681 233.401C330.481 233.138 330.277 232.877 330.071 232.618L329.289 233.24ZM330.466 234.785C330.657 235.047 330.845 235.311 331.031 235.576L331.85 235.003C331.661 234.732 331.469 234.463 331.274 234.196L330.466 234.785ZM331.579 236.378C331.759 236.648 331.936 236.919 332.11 237.192L332.953 236.653C332.775 236.375 332.594 236.098 332.41 235.823L331.579 236.378ZM332.625 238.016C332.793 238.292 332.959 238.571 333.122 238.85L333.986 238.347C333.82 238.062 333.651 237.777 333.478 237.495L332.625 238.016ZM333.602 239.695C333.759 239.978 333.913 240.263 334.064 240.549L334.948 240.083C334.794 239.79 334.637 239.499 334.476 239.21L333.602 239.695ZM334.509 241.413C334.654 241.703 334.796 241.994 334.935 242.286L335.838 241.856C335.696 241.558 335.551 241.26 335.403 240.965L334.509 241.413ZM335.344 243.168C335.477 243.463 335.607 243.759 335.734 244.057L336.654 243.665C336.524 243.361 336.391 243.058 336.256 242.756L335.344 243.168ZM336.106 244.955C336.227 245.255 336.345 245.557 336.459 245.86L337.394 245.506C337.277 245.197 337.157 244.888 337.034 244.582L336.106 244.955ZM336.794 246.772C336.902 247.077 337.007 247.383 337.109 247.691L338.058 247.376C337.954 247.062 337.847 246.749 337.736 246.438L336.794 246.772ZM337.405 248.616C337.501 248.925 337.593 249.236 337.683 249.547L338.644 249.272C338.553 248.954 338.458 248.637 338.361 248.321L337.405 248.616ZM337.941 250.484C338.023 250.797 338.103 251.111 338.179 251.426L339.151 251.19C339.073 250.869 338.992 250.548 338.907 250.228L337.941 250.484ZM338.398 252.372C338.468 252.688 338.534 253.005 338.598 253.323L339.578 253.128C339.514 252.803 339.446 252.48 339.375 252.157L338.398 252.372ZM338.777 254.278C338.834 254.596 338.887 254.916 338.937 255.236L339.925 255.082C339.874 254.755 339.82 254.428 339.762 254.103L338.777 254.278ZM339.077 256.197C339.12 256.518 339.161 256.839 339.197 257.161L340.191 257.048C340.153 256.719 340.112 256.391 340.068 256.063L339.077 256.197ZM339.297 258.128C339.328 258.45 339.354 258.773 339.378 259.096L340.375 259.024C340.351 258.694 340.324 258.364 340.293 258.035L339.297 258.128ZM339.438 260.066C339.455 260.389 339.468 260.712 339.478 261.036L340.477 261.005C340.467 260.674 340.454 260.344 340.437 260.014L339.438 260.066ZM339.498 262.007C339.5 262.169 339.501 262.331 339.501 262.494H340.501C340.501 262.328 340.5 262.163 340.498 261.997L339.498 262.007ZM339.501 262.494C339.501 262.656 339.5 262.818 339.498 262.98L340.498 262.99C340.5 262.825 340.501 262.659 340.501 262.494H339.501ZM339.478 263.951C339.468 264.275 339.455 264.598 339.438 264.922L340.437 264.973C340.454 264.643 340.467 264.313 340.477 263.982L339.478 263.951ZM339.378 265.891C339.354 266.214 339.328 266.537 339.297 266.859L340.293 266.952C340.324 266.623 340.351 266.294 340.375 265.963L339.378 265.891ZM339.197 267.826C339.161 268.148 339.12 268.469 339.077 268.79L340.068 268.924C340.112 268.596 340.153 268.268 340.191 267.939L339.197 267.826ZM338.937 269.751C338.887 270.071 338.834 270.391 338.777 270.709L339.762 270.884C339.82 270.559 339.874 270.233 339.925 269.906L338.937 269.751ZM338.598 271.664C338.534 271.982 338.468 272.299 338.398 272.615L339.375 272.83C339.446 272.508 339.514 272.184 339.578 271.859L338.598 271.664ZM338.179 273.562C338.103 273.876 338.023 274.19 337.941 274.503L338.907 274.759C338.992 274.439 339.073 274.119 339.151 273.797L338.179 273.562ZM337.683 275.44C337.593 275.751 337.501 276.062 337.405 276.371L338.361 276.666C338.458 276.35 338.553 276.033 338.644 275.715L337.683 275.44ZM337.109 277.296C337.007 277.604 336.902 277.91 336.794 278.215L337.736 278.55C337.847 278.238 337.954 277.925 338.058 277.611L337.109 277.296ZM336.459 279.127C336.345 279.43 336.227 279.732 336.106 280.032L337.034 280.406C337.157 280.099 337.277 279.791 337.394 279.481L336.459 279.127ZM335.734 280.93C335.607 281.228 335.477 281.524 335.344 281.82L336.256 282.231C336.392 281.929 336.524 281.626 336.654 281.322L335.734 280.93ZM334.935 282.701C334.796 282.994 334.654 283.284 334.509 283.574L335.403 284.022C335.551 283.727 335.696 283.43 335.838 283.131L334.935 282.701ZM334.064 284.438C333.913 284.724 333.759 285.009 333.602 285.292L334.476 285.777C334.637 285.488 334.794 285.197 334.948 284.905L334.064 284.438ZM333.122 286.137C332.959 286.417 332.793 286.695 332.625 286.971L333.478 287.492C333.651 287.21 333.82 286.926 333.986 286.64L333.122 286.137ZM332.11 287.796C331.936 288.068 331.759 288.34 331.579 288.609L332.41 289.165C332.594 288.889 332.775 288.613 332.953 288.334L332.11 287.796ZM331.031 289.411C330.845 289.677 330.657 289.94 330.466 290.202L331.274 290.791C331.469 290.524 331.661 290.255 331.85 289.984L331.031 289.411ZM329.885 290.981C329.689 291.238 329.49 291.494 329.289 291.747L330.071 292.37C330.277 292.111 330.481 291.85 330.681 291.587L329.885 290.981ZM328.676 292.501C328.47 292.751 328.26 292.998 328.048 293.243L328.805 293.897C329.021 293.647 329.235 293.394 329.446 293.14L328.676 292.501ZM327.405 293.971C327.189 294.211 326.969 294.45 326.747 294.686L327.476 295.371C327.703 295.129 327.927 294.886 328.148 294.641L327.405 293.971ZM326.075 295.387C325.961 295.502 325.847 295.618 325.733 295.732L326.44 296.439C326.557 296.322 326.673 296.205 326.789 296.086L326.075 295.387ZM325.733 295.732C325.618 295.847 325.503 295.961 325.387 296.074L326.087 296.788C326.205 296.673 326.323 296.556 326.44 296.439L325.733 295.732ZM324.686 296.747C324.45 296.969 324.212 297.188 323.972 297.405L324.641 298.147C324.887 297.926 325.13 297.702 325.371 297.475L324.686 296.747ZM323.243 298.048C322.998 298.26 322.751 298.469 322.502 298.676L323.14 299.445C323.395 299.234 323.647 299.021 323.898 298.804L323.243 298.048ZM321.748 299.288C321.494 299.49 321.239 299.689 320.981 299.885L321.587 300.68C321.85 300.48 322.111 300.277 322.37 300.071L321.748 299.288ZM320.202 300.466C319.941 300.657 319.677 300.845 319.412 301.03L319.984 301.85C320.255 301.661 320.524 301.469 320.792 301.273L320.202 300.466ZM318.61 301.578C318.34 301.758 318.069 301.935 317.796 302.11L318.334 302.952C318.613 302.774 318.89 302.593 319.165 302.41L318.61 301.578ZM316.972 302.624C316.695 302.793 316.417 302.958 316.137 303.121L316.64 303.986C316.926 303.819 317.21 303.65 317.493 303.478L316.972 302.624ZM315.293 303.601C315.009 303.758 314.725 303.912 314.438 304.064L314.905 304.948C315.198 304.794 315.488 304.636 315.778 304.476L315.293 303.601ZM313.575 304.508C313.285 304.653 312.994 304.796 312.702 304.935L313.132 305.838C313.43 305.696 313.727 305.55 314.023 305.402L313.575 304.508ZM311.82 305.343C311.525 305.477 311.228 305.607 310.931 305.734L311.323 306.654C311.627 306.524 311.93 306.391 312.231 306.255L311.82 305.343ZM310.033 306.105C309.733 306.226 309.431 306.344 309.128 306.459L309.482 307.394C309.791 307.277 310.099 307.157 310.406 307.033L310.033 306.105ZM308.216 306.793C307.911 306.901 307.604 307.006 307.297 307.108L307.612 308.058C307.926 307.953 308.239 307.846 308.55 307.735L308.216 306.793ZM306.372 307.405C306.062 307.5 305.752 307.593 305.441 307.682L305.716 308.643C306.034 308.552 306.351 308.458 306.667 308.36L306.372 307.405ZM304.504 307.94C304.191 308.023 303.877 308.102 303.562 308.179L303.798 309.15C304.119 309.073 304.44 308.991 304.759 308.907L304.504 307.94ZM302.616 308.398C302.299 308.467 301.982 308.534 301.665 308.597L301.86 309.578C302.184 309.513 302.508 309.445 302.831 309.374L302.616 308.398ZM300.71 308.777C300.391 308.833 300.072 308.887 299.752 308.937L299.906 309.925C300.233 309.873 300.559 309.819 300.885 309.761L300.71 308.777ZM298.79 309.077C298.47 309.12 298.148 309.16 297.826 309.197L297.94 310.19C298.269 310.153 298.597 310.112 298.924 310.068L298.79 309.077ZM296.86 309.297C296.538 309.327 296.215 309.354 295.892 309.377L295.964 310.375C296.294 310.351 296.624 310.323 296.953 310.293L296.86 309.297ZM294.922 309.437C294.599 309.454 294.275 309.467 293.952 309.477L293.982 310.477C294.313 310.467 294.644 310.453 294.974 310.436L294.922 309.437ZM292.98 309.498C292.818 309.499 292.656 309.5 292.494 309.5V310.5C292.66 310.5 292.825 310.499 292.991 310.497L292.98 309.498ZM292.494 309.5L291.997 309.5L291.997 310.5L292.494 310.5L292.494 309.5ZM291.002 309.5L290.007 309.5L290.007 310.5L291.002 310.5L291.002 309.5ZM289.012 309.5L288.017 309.5L288.017 310.5L289.012 310.5L289.012 309.5ZM287.023 309.5L286.028 309.5L286.028 310.5L287.023 310.5L287.023 309.5ZM285.033 309.5L284.038 309.5L284.038 310.5L285.033 310.5L285.033 309.5ZM283.043 309.5L282.048 309.5L282.048 310.5L283.043 310.5L283.043 309.5ZM281.054 309.5L280.059 309.5L280.059 310.5L281.054 310.5L281.054 309.5ZM279.064 309.5L278.069 309.5L278.069 310.5L279.064 310.5L279.064 309.5ZM277.074 309.5L276.079 309.5L276.079 310.5L277.074 310.5L277.074 309.5ZM275.085 309.5L274.09 309.5L274.09 310.5L275.085 310.5L275.085 309.5ZM273.095 309.5L272.1 309.5L272.1 310.5L273.095 310.5L273.095 309.5ZM271.105 309.5L270.11 309.5L270.11 310.5L271.105 310.5L271.105 309.5ZM269.116 309.5L268.121 309.5L268.121 310.5L269.116 310.5L269.116 309.5ZM267.126 309.5L266.131 309.5L266.131 310.5L267.126 310.5L267.126 309.5ZM265.136 309.5L264.141 309.5L264.141 310.5L265.136 310.5L265.136 309.5ZM263.147 309.5L262.152 309.5L262.152 310.5L263.147 310.5L263.147 309.5ZM261.157 309.5L260.162 309.5L260.162 310.5L261.157 310.5L261.157 309.5ZM259.167 309.5L258.172 309.5L258.172 310.5L259.167 310.5L259.167 309.5ZM257.178 309.5L256.183 309.5L256.183 310.5L257.178 310.5L257.178 309.5ZM255.188 309.5L254.193 309.5L254.193 310.5L255.188 310.5L255.188 309.5ZM253.198 309.5L252.203 309.5L252.203 310.5L253.198 310.5L253.198 309.5ZM251.209 309.5L250.214 309.5L250.214 310.5L251.209 310.5L251.209 309.5ZM249.219 309.5L248.224 309.5L248.224 310.5L249.219 310.5L249.219 309.5ZM247.229 309.5L246.235 309.5L246.235 310.5L247.229 310.5L247.229 309.5ZM245.24 309.5L244.245 309.5L244.245 310.5L245.24 310.5L245.24 309.5ZM243.25 309.5L242.255 309.5L242.255 310.5L243.25 310.5L243.25 309.5ZM241.26 309.5L240.266 309.5L240.266 310.5L241.26 310.5L241.26 309.5ZM239.271 309.5L238.276 309.5L238.276 310.5L239.271 310.5L239.271 309.5ZM237.281 309.5L236.286 309.5L236.286 310.5L237.281 310.5L237.281 309.5ZM235.291 309.5L234.297 309.5L234.297 310.5L235.291 310.5L235.291 309.5ZM233.302 309.5L232.307 309.5L232.307 310.5L233.302 310.5L233.302 309.5ZM231.312 309.5L230.317 309.5L230.317 310.5L231.312 310.5L231.312 309.5ZM229.322 309.5L228.328 309.5L228.328 310.5L229.322 310.5L229.322 309.5ZM227.333 309.5L226.338 309.5L226.338 310.5L227.333 310.5L227.333 309.5ZM225.343 309.5L224.348 309.5L224.348 310.5L225.343 310.5L225.343 309.5ZM223.353 309.5L222.359 309.5L222.359 310.5L223.353 310.5L223.353 309.5ZM221.364 309.5L220.369 309.5L220.369 310.5L221.364 310.5L221.364 309.5ZM219.374 309.5L218.379 309.5L218.379 310.5L219.374 310.5L219.374 309.5ZM217.384 309.5L216.39 309.5L216.39 310.5L217.384 310.5L217.384 309.5ZM215.395 309.5L214.4 309.5L214.4 310.5L215.395 310.5L215.395 309.5ZM213.405 309.5L212.908 309.5L212.908 310.5L213.405 310.5L213.405 309.5Z" fill="#F56565"/>
<defs>
<linearGradient id="paint0_linear_1612_16633" x1="206.923" y1="273.626" x2="251.736" y2="183.045" gradientUnits="userSpaceOnUse">
<stop offset="0.00676514" stop-color="#3C3C43"/>
<stop offset="0.0782446" stop-color="#DD0031"/>
</linearGradient>
<clipPath id="clip0_1612_16633">
<rect x="120" y="120" width="240" height="240" rx="8" fill="white"/>
</clipPath>
</defs>
</svg>
