<svg width="480" height="480" fill="none" xmlns="http://www.w3.org/2000/svg">
  <path fill="#3C3C43" d="M0 0h480v480H0z"/>
  <g clip-path="url(#a)">
    <rect x="120" y="120" width="240" height="240" rx="8" fill="#F5F5F5"/>
    <path d="M120 130h240" stroke="#D8D8D9" stroke-width=".5"/>
    <path d="M130 120v240" stroke="#D8D8D9" stroke-width=".5"/>
    <path d="M120 140h240" stroke="#D8D8D9" stroke-width=".5"/>
    <path d="M140 120v240" stroke="#D8D8D9" stroke-width=".5"/>
    <path d="M120 150h240" stroke="#D8D8D9" stroke-width=".5"/>
    <path d="M150 120v240" stroke="#D8D8D9" stroke-width=".5"/>
    <path d="M120 160h240" stroke="#D8D8D9" stroke-width=".5"/>
    <path d="M160 120v240" stroke="#D8D8D9" stroke-width=".5"/>
    <path d="M120 170h240" stroke="#D8D8D9" stroke-width=".5"/>
    <path d="M170 120v240" stroke="#D8D8D9" stroke-width=".5"/>
    <path d="M120 180h240" stroke="#D8D8D9" stroke-width=".5"/>
    <path d="M180 120v240" stroke="#D8D8D9" stroke-width=".5"/>
    <path d="M120 190h240" stroke="#D8D8D9" stroke-width=".5"/>
    <path d="M190 120v240" stroke="#D8D8D9" stroke-width=".5"/>
    <path d="M120 200h240" stroke="#D8D8D9" stroke-width=".5"/>
    <path d="M200 120v240" stroke="#D8D8D9" stroke-width=".5"/>
    <path d="M120 210h240" stroke="#D8D8D9" stroke-width=".5"/>
    <path d="M210 120v240" stroke="#D8D8D9" stroke-width=".5"/>
    <path d="M120 220h240" stroke="#D8D8D9" stroke-width=".5"/>
    <path d="M220 120v240" stroke="#D8D8D9" stroke-width=".5"/>
    <path d="M120 230h240" stroke="#D8D8D9" stroke-width=".5"/>
    <path d="M230 120v240" stroke="#D8D8D9" stroke-width=".5"/>
    <path d="M120 240h240" stroke="#D8D8D9" stroke-width=".5"/>
    <path d="M240 120v240" stroke="#D8D8D9" stroke-width=".5"/>
    <path d="M120 250h240" stroke="#D8D8D9" stroke-width=".5"/>
    <path d="M250 120v240" stroke="#D8D8D9" stroke-width=".5"/>
    <path d="M120 260h240" stroke="#D8D8D9" stroke-width=".5"/>
    <path d="M260 120v240" stroke="#D8D8D9" stroke-width=".5"/>
    <path d="M120 270h240" stroke="#D8D8D9" stroke-width=".5"/>
    <path d="M270 120v240" stroke="#D8D8D9" stroke-width=".5"/>
    <path d="M120 280h240" stroke="#D8D8D9" stroke-width=".5"/>
    <path d="M280 120v240" stroke="#D8D8D9" stroke-width=".5"/>
    <path d="M120 290h240" stroke="#D8D8D9" stroke-width=".5"/>
    <path d="M290 120v240" stroke="#D8D8D9" stroke-width=".5"/>
    <path d="M120 300h240" stroke="#D8D8D9" stroke-width=".5"/>
    <path d="M300 120v240" stroke="#D8D8D9" stroke-width=".5"/>
    <path d="M120 310h240" stroke="#D8D8D9" stroke-width=".5"/>
    <path d="M310 120v240" stroke="#D8D8D9" stroke-width=".5"/>
    <path d="M120 320h240" stroke="#D8D8D9" stroke-width=".5"/>
    <path d="M320 120v240" stroke="#D8D8D9" stroke-width=".5"/>
    <path d="M120 330h240" stroke="#D8D8D9" stroke-width=".5"/>
    <path d="M330 120v240" stroke="#D8D8D9" stroke-width=".5"/>
    <path d="M120 340h240" stroke="#D8D8D9" stroke-width=".5"/>
    <path d="M340 120v240" stroke="#D8D8D9" stroke-width=".5"/>
    <path d="M120 350h240" stroke="#D8D8D9" stroke-width=".5"/>
    <path d="M350 120v240" stroke="#D8D8D9" stroke-width=".5"/>
  </g>
<g id="embed-lucide-activity" stroke="#3C3C43" stroke-width="2" stroke-linecap="round" stroke-linejoin="round" transform="translate(120 120), scale(10)">
  <path d="M22 12h-2.48a2 2 0 0 0-1.93 1.46l-2.35 8.36a.25.25 0 0 1-.48 0L9.24 2.18a.25.25 0 0 0-.48 0l-2.35 8.36A2 2 0 0 1 4.49 12H2" />
</g>
  <path d="M340 240h-40m-120 0h-40" stroke="url(#b)" stroke-linecap="round" stroke-linejoin="round"/>
  <path d="M125.651 86V69.09h4.547v2.951h.176c.308-1.05.826-1.842 1.552-2.378.727-.543 1.563-.814 2.51-.814a6.941 6.941 0 0 1 1.475.164v4.162a6.123 6.123 0 0 0-.914-.176 8.196 8.196 0 0 0-1.067-.077c-.69 0-1.307.15-1.85.451a3.325 3.325 0 0 0-1.277 1.233c-.308.529-.462 1.138-.462 1.828V86h-4.69Zm19.538.33c-1.71 0-3.189-.363-4.437-1.09a7.458 7.458 0 0 1-2.873-3.06c-.675-1.314-1.013-2.837-1.013-4.569 0-1.746.338-3.273 1.013-4.579.675-1.314 1.633-2.334 2.873-3.06 1.248-.734 2.727-1.101 4.437-1.101 1.71 0 3.185.367 4.425 1.1 1.248.727 2.209 1.747 2.884 3.061.675 1.306 1.013 2.833 1.013 4.58 0 1.732-.338 3.254-1.013 4.568a7.432 7.432 0 0 1-2.884 3.06c-1.24.727-2.715 1.09-4.425 1.09Zm.022-3.633c.778 0 1.427-.22 1.948-.66.521-.448.914-1.057 1.178-1.828.272-.77.407-1.647.407-2.63 0-.984-.135-1.861-.407-2.632-.264-.77-.657-1.38-1.178-1.827-.521-.448-1.17-.672-1.948-.672-.786 0-1.446.224-1.982.672-.528.448-.928 1.057-1.2 1.827-.264.771-.396 1.648-.396 2.632 0 .983.132 1.86.396 2.63.272.771.672 1.38 1.2 1.828.536.44 1.196.66 1.982.66Zm22.193-3.897v-9.71h4.689V86h-4.502v-3.071h-.176a4.996 4.996 0 0 1-1.905 2.388c-.88.602-1.956.903-3.225.903-1.13 0-2.125-.257-2.983-.77-.859-.514-1.531-1.244-2.015-2.191-.477-.947-.719-2.08-.727-3.402V69.091h4.69v9.93c.007.998.275 1.787.804 2.366.528.58 1.236.87 2.124.87.565 0 1.094-.128 1.586-.385a3.022 3.022 0 0 0 1.188-1.167c.309-.514.459-1.149.452-1.905Zm13.13-2.576V86h-4.689V69.09h4.469v2.984h.198a4.715 4.715 0 0 1 1.883-2.334c.88-.58 1.948-.87 3.203-.87 1.174 0 2.198.258 3.072.771.873.514 1.552 1.248 2.036 2.202.484.947.727 2.077.727 3.39V86h-4.69v-9.93c.007-1.034-.257-1.842-.793-2.422-.535-.587-1.273-.88-2.212-.88-.631 0-1.189.135-1.674.407a2.833 2.833 0 0 0-1.122 1.189c-.265.514-.4 1.134-.408 1.86Zm20.826 10.051c-1.285 0-2.448-.33-3.49-.99-1.035-.668-1.857-1.648-2.466-2.94-.602-1.299-.903-2.891-.903-4.778 0-1.937.312-3.548.936-4.832.624-1.292 1.453-2.257 2.488-2.895a6.374 6.374 0 0 1 3.424-.97c.946 0 1.735.162 2.366.485.639.316 1.153.712 1.542 1.189.396.47.697.932.902 1.387h.143v-8.476h4.679V86h-4.624v-2.708h-.198c-.22.47-.532.936-.935 1.398-.397.455-.914.833-1.553 1.134-.631.3-1.401.451-2.311.451Zm1.486-3.732c.756 0 1.394-.205 1.915-.616.529-.419.932-1.002 1.211-1.75.286-.75.43-1.626.43-2.632 0-1.005-.14-1.878-.419-2.62-.279-.74-.682-1.313-1.211-1.717-.528-.403-1.17-.605-1.926-.605-.771 0-1.42.209-1.949.627-.528.418-.928.998-1.2 1.74-.271.74-.407 1.6-.407 2.576 0 .983.136 1.853.407 2.608.279.75.679 1.336 1.2 1.762.529.418 1.178.627 1.949.627Zm23.855-19.089V86h-4.689V63.455h4.689ZM230.458 86V69.09h4.69V86h-4.69Zm2.356-19.089a2.548 2.548 0 0 1-1.795-.693c-.491-.47-.737-1.031-.737-1.685 0-.645.246-1.2.737-1.662a2.526 2.526 0 0 1 1.795-.705c.697 0 1.291.235 1.783.705.499.462.749 1.017.749 1.662 0 .654-.25 1.215-.749 1.685-.492.462-1.086.693-1.783.693Zm10.78 9.313V86h-4.69V69.09h4.47v2.984h.198a4.719 4.719 0 0 1 1.882-2.334c.881-.58 1.949-.87 3.204-.87 1.174 0 2.198.258 3.071.771.873.514 1.552 1.248 2.037 2.202.484.947.726 2.077.726 3.39V86h-4.689v-9.93c.007-1.034-.257-1.842-.793-2.422-.536-.587-1.273-.88-2.213-.88-.631 0-1.189.135-1.673.407a2.842 2.842 0 0 0-1.123 1.189c-.264.514-.4 1.134-.407 1.86Zm22.3 10.106c-1.739 0-3.236-.352-4.491-1.057a7.233 7.233 0 0 1-2.884-3.016c-.676-1.306-1.013-2.851-1.013-4.635 0-1.739.337-3.265 1.013-4.579.675-1.314 1.625-2.338 2.851-3.071 1.233-.734 2.679-1.101 4.337-1.101 1.116 0 2.154.18 3.116.54a6.923 6.923 0 0 1 2.532 1.595c.726.712 1.291 1.608 1.695 2.686.403 1.072.605 2.327.605 3.765v1.288h-14.278V75.84h9.864c0-.675-.147-1.273-.44-1.794a3.158 3.158 0 0 0-1.222-1.222c-.514-.301-1.112-.452-1.795-.452-.712 0-1.343.166-1.893.496-.543.323-.969.76-1.277 1.31a3.71 3.71 0 0 0-.474 1.816v2.763c0 .837.155 1.56.463 2.17a3.38 3.38 0 0 0 1.332 1.408c.572.33 1.251.495 2.036.495.521 0 .998-.073 1.431-.22a2.97 2.97 0 0 0 1.112-.66 2.87 2.87 0 0 0 .705-1.079l4.337.286a5.917 5.917 0 0 1-1.354 2.73c-.675.771-1.548 1.373-2.62 1.806-1.064.425-2.293.638-3.688.638Zm25.636 0c-1.732 0-3.221-.367-4.469-1.1a7.444 7.444 0 0 1-2.862-3.083c-.661-1.314-.991-2.826-.991-4.535 0-1.733.334-3.252 1.002-4.558.675-1.314 1.633-2.338 2.873-3.071 1.24-.742 2.715-1.112 4.425-1.112 1.476 0 2.767.268 3.875.803 1.109.536 1.986 1.288 2.631 2.257.646.969 1.002 2.106 1.068 3.413h-4.425c-.125-.844-.455-1.523-.991-2.037-.528-.52-1.222-.781-2.081-.781-.726 0-1.361.198-1.904.594-.536.389-.954.958-1.255 1.706-.301.749-.451 1.655-.451 2.72 0 1.078.146 1.996.44 2.752.301.755.723 1.332 1.266 1.728.543.396 1.178.594 1.904.594.536 0 1.017-.11 1.443-.33.433-.22.789-.54 1.067-.958.287-.425.474-.935.562-1.53h4.425c-.073 1.292-.425 2.43-1.057 3.413-.623.976-1.486 1.74-2.587 2.29-1.1.55-2.403.825-3.908.825Zm15.377-.01c-1.079 0-2.041-.188-2.885-.562a4.638 4.638 0 0 1-2.003-1.684c-.485-.75-.727-1.681-.727-2.797 0-.94.173-1.728.518-2.367a4.185 4.185 0 0 1 1.409-1.54 6.828 6.828 0 0 1 2.025-.881 15.453 15.453 0 0 1 2.4-.419 60.52 60.52 0 0 0 2.378-.286c.602-.095 1.038-.235 1.31-.418.272-.184.407-.455.407-.815v-.066c0-.697-.22-1.236-.66-1.618-.433-.382-1.05-.573-1.85-.573-.844 0-1.515.188-2.014.562-.499.367-.83.83-.991 1.387l-4.337-.352c.22-1.028.653-1.916 1.299-2.664.646-.756 1.478-1.336 2.499-1.74 1.027-.41 2.216-.616 3.566-.616.94 0 1.839.11 2.697.33.866.22 1.633.561 2.301 1.024a4.967 4.967 0 0 1 1.596 1.783c.389.72.584 1.582.584 2.587V86h-4.448v-2.345h-.132a4.762 4.762 0 0 1-1.089 1.398 5.043 5.043 0 0 1-1.641.936c-.638.22-1.376.33-2.212.33Zm1.343-3.237c.689 0 1.299-.136 1.827-.408a3.24 3.24 0 0 0 1.244-1.122c.301-.47.451-1.002.451-1.597v-1.794a2.49 2.49 0 0 1-.605.264 11.7 11.7 0 0 1-.848.21c-.315.058-.631.113-.947.164l-.858.121a5.81 5.81 0 0 0-1.442.386c-.411.176-.731.415-.958.715-.228.294-.341.66-.341 1.101 0 .639.231 1.127.693 1.464.47.33 1.064.496 1.784.496Zm11.817 9.258V69.09h4.624v2.84h.209c.205-.455.503-.917.892-1.387.396-.477.91-.873 1.541-1.189.638-.323 1.431-.484 2.378-.484 1.233 0 2.37.323 3.412.969 1.042.638 1.875 1.603 2.499 2.895.624 1.284.936 2.895.936 4.832 0 1.887-.305 3.48-.914 4.778-.601 1.292-1.423 2.272-2.466 2.94-1.034.66-2.194.99-3.478.99-.91 0-1.685-.15-2.323-.451-.631-.301-1.149-.679-1.552-1.134a5.755 5.755 0 0 1-.925-1.398h-.143v9.049h-4.69Zm4.591-14.795c0 1.005.139 1.882.418 2.63.279.75.683 1.332 1.211 1.75.528.412 1.171.617 1.927.617.763 0 1.409-.209 1.937-.627.528-.426.928-1.013 1.2-1.761.279-.756.418-1.626.418-2.61 0-.976-.135-1.834-.407-2.576-.272-.74-.672-1.32-1.2-1.739-.528-.418-1.178-.627-1.948-.627-.764 0-1.41.202-1.938.605-.521.404-.921.976-1.2 1.717-.279.742-.418 1.615-.418 2.62Zm29.095-3.633-4.293.264a2.216 2.216 0 0 0-.473-.99 2.51 2.51 0 0 0-.958-.716c-.389-.184-.855-.276-1.398-.276-.727 0-1.34.154-1.839.463-.499.3-.748.704-.748 1.21 0 .404.161.746.484 1.024.323.28.877.503 1.662.672l3.061.616c1.644.338 2.869.881 3.677 1.63.807.748 1.211 1.732 1.211 2.95 0 1.108-.327 2.08-.98 2.917-.646.837-1.534 1.49-2.664 1.96-1.123.462-2.418.693-3.886.693-2.239 0-4.022-.466-5.35-1.398-1.321-.94-2.096-2.216-2.323-3.83l4.612-.243c.14.683.477 1.204 1.013 1.563.536.353 1.222.529 2.059.529.822 0 1.482-.158 1.981-.474.507-.323.764-.737.771-1.244-.007-.425-.187-.774-.539-1.046-.353-.278-.896-.491-1.63-.638l-2.928-.583c-1.651-.33-2.881-.903-3.688-1.718-.8-.814-1.2-1.853-1.2-3.115 0-1.086.294-2.022.881-2.807.594-.786 1.427-1.391 2.499-1.817 1.079-.425 2.341-.638 3.787-.638 2.135 0 3.816.451 5.042 1.354 1.233.903 1.952 2.132 2.157 3.688Z" fill="#fff"/>
  <path opacity=".5" d="M130 240c0 5.523 4.477 10 10 10v-20c-5.523 0-10 4.477-10 10Z" fill="#F56565"/>
  <path opacity=".5" d="M340 250c5.523 0 10-4.477 10-10s-4.477-10-10-10v20Z" fill="#F56565"/>
  <circle opacity=".5" cx="340" cy="240" r="20" stroke="#F56565" stroke-dasharray="1 1"/>
  <circle opacity=".5" cx="140" cy="240" r="20" stroke="#F56565" stroke-dasharray="1 1"/>
  <circle cx="340" cy="240" r="2" fill="#F56565"/>
  <circle cx="140" cy="240" r="2" fill="#F56565"/>
  <defs>
    <linearGradient id="b" x1="140" y1="219.501" x2="340" y2="219.501" gradientUnits="userSpaceOnUse">
      <stop stop-color="#F56565"/>
      <stop offset=".202" stop-color="#F56565" stop-opacity="0"/>
      <stop offset=".801" stop-color="#F56565" stop-opacity="0"/>
      <stop offset="1" stop-color="#F56565"/>
    </linearGradient>
    <clipPath id="a">
      <rect x="120" y="120" width="240" height="240" rx="8" fill="#fff"/>
    </clipPath>
  </defs>
</svg>
