<svg fill="none" xmlns="http://www.w3.org/2000/svg" style="margin-bottom:32px" viewBox="0 0 688 296">
  <path
    d="m122 259-11.1-2.1a6 6 0 0 1-4.8-4.8L104 241l-2.1 11.1a6 6 0 0 1-4.8 4.8L86 259l11.1 2.1a6 6 0 0 1 4.8 4.8L104 277l2.1-11.1a6 6 0 0 1 4.8-4.8L122 259Zm4 0a4 4 0 0 1-3.3 4l-11 2a2 2 0 0 0-1.7 1.6l-2 11.1a4 4 0 0 1-8 0l-2-11a2 2 0 0 0-1.6-1.7l-11.1-2a4 4 0 0 1-.4-7.9h.4l11-2.1a2 2 0 0 0 1.7-1.6l2-11.1.1-.4a4 4 0 0 1 7.8.4l2.1 11a2 2 0 0 0 1.6 1.7l11.1 2a4 4 0 0 1 3.3 4ZM118 247v-8a2 2 0 1 1 4 0v8a2 2 0 1 1-4 0Z"
    fill="#F56565" />
  <path
    d="M124 241a2 2 0 1 1 0 4h-8a2 2 0 1 1 0-4h8ZM90 275a2 2 0 1 0-4 0 2 2 0 0 0 4 0Zm4 0a6 6 0 1 1-12 0 6 6 0 0 1 12 0Z"
    fill="#F56565" />
  <path
    d="M53.3 102a2.3 2.3 0 1 0-4.6 0 2.3 2.3 0 0 0 4.6 0Zm4.7 0a7 7 0 1 1-14 0 7 7 0 0 1 14 0ZM309.3 215a2.3 2.3 0 1 0-4.6 0 2.3 2.3 0 0 0 4.6 0Zm4.7 0a7 7 0 1 1-14 0 7 7 0 0 1 14 0ZM490.3 266a2.3 2.3 0 1 0-4.6 0 2.3 2.3 0 0 0 4.6 0Zm4.7 0a7 7 0 1 1-14 0 7 7 0 0 1 14 0ZM617.3 124a2.3 2.3 0 1 0-4.6 0 2.3 2.3 0 0 0 4.6 0Zm4.7 0a7 7 0 1 1-14 0 7 7 0 0 1 14 0ZM416.3 60a2.3 2.3 0 1 0-4.6 0 2.3 2.3 0 0 0 4.6 0Zm4.7 0a7 7 0 1 1-14 0 7 7 0 0 1 14 0ZM159.7 39.7v-9.4a2.3 2.3 0 0 1 4.6 0v9.4a2.3 2.3 0 0 1-4.6 0ZM192.7 258.7v-9.4a2.3 2.3 0 0 1 4.6 0v9.4a2.3 2.3 0 0 1-4.6 0ZM16.7 228.7v-9.4a2.3 2.3 0 0 1 4.6 0v9.4a2.3 2.3 0 0 1-4.6 0ZM673.7 189.7v-9.4a2.3 2.3 0 0 1 4.6 0v9.4a2.3 2.3 0 0 1-4.6 0ZM519.7 38.7v-9.4a2.3 2.3 0 0 1 4.6 0v9.4a2.3 2.3 0 0 1-4.6 0Z"
    fill="currentColor" />
  <path
    d="M166.7 32.7a2.3 2.3 0 0 1 0 4.6h-9.4a2.3 2.3 0 0 1 0-4.6h9.4ZM199.7 251.7a2.3 2.3 0 0 1 0 4.6h-9.4a2.3 2.3 0 0 1 0-4.6h9.4ZM23.7 221.7a2.3 2.3 0 0 1 0 4.6h-9.4a2.3 2.3 0 0 1 0-4.6h9.4ZM680.7 182.7a2.3 2.3 0 0 1 0 4.6h-9.4a2.3 2.3 0 0 1 0-4.6h9.4ZM526.7 31.7a2.3 2.3 0 0 1 0 4.6h-9.4a2.3 2.3 0 0 1 0-4.6h9.4Z"
    fill="currentColor" />
  <path
    d="M294 54a2.5 2.5 0 0 1 4.6 1.6L291 77l21.4-7.5A2.5 2.5 0 1 1 314 74l-26.3 9.3a2.5 2.5 0 0 1-3.1-3.1l9.3-26.3ZM291.9 32a2.5 2.5 0 1 1 0 4.8 2.5 2.5 0 0 1 0-4.9ZM336.1 44.2a2.5 2.5 0 1 1 0 5 2.5 2.5 0 0 1 0-5ZM318.9 29.5a2.5 2.5 0 1 1 0 4.9 2.5 2.5 0 1 1 0-5ZM336.1 73.7a2.5 2.5 0 1 1 0 5 2.5 2.5 0 0 1 0-5ZM335.3 29.6a2.5 2.5 0 0 1 1.6 4.6l-5.5 1.9a4.7 4.7 0 0 0-3.2 4.6v.4a6 6 0 0 1-6 6.8h-1a2 2 0 0 0-1.9 1.5l-.5 2.7a2.5 2.5 0 1 1-4.8-1l.5-2.6a6.8 6.8 0 0 1 6.8-5.5h.9c.7 0 1.2-.6 1.1-1.3a9.6 9.6 0 0 1 6.5-10.3l5.5-1.8ZM326.8 60.4a6 6 0 0 1 7.8-4.7l.4.2 2 .8a2.5 2.5 0 0 1-1.8 4.5l-2-.8c-.7-.2-1.5.2-1.6.9a6 6 0 0 1-6 5h-1.8a2.5 2.5 0 0 1 0-4.9h1.9c.5 0 1-.4 1-1ZM301.7 44.2v-1.9a6 6 0 0 1 5-6h.3c.5-.2.8-.9.6-1.4l-.8-2a2.5 2.5 0 1 1 4.5-1.9l.8 2a6 6 0 0 1-4.6 8.2 1 1 0 0 0-1 1.1v2a2.5 2.5 0 1 1-4.8 0Z"
    fill="#F56565" />
  <path
    d="M298.8 50.8c1.3 0 2.7.4 4 .9 2.6 1 5.4 3 8 5.5a25 25 0 0 1 5.5 8c.5 1.3.9 2.7.9 4 0 1.3-.4 2.7-1.5 3.8a5.4 5.4 0 0 1-3.8 1.5c-1.3 0-2.7-.4-4-.9a25 25 0 0 1-8-5.5 25 25 0 0 1-5.5-8c-.5-1.3-.9-2.7-.9-4 0-1.3.4-2.7 1.5-3.8l.4-.4c1-.8 2.3-1 3.4-1Zm0 5h-.3v.4c0 .4 0 1.1.4 2 .8 2 2.3 4.2 4.5 6.4s4.5 3.7 6.3 4.5l2.1.5.4-.1v-.4c0-.4 0-1.1-.4-2-.8-2-2.3-4.2-4.5-6.4a20.2 20.2 0 0 0-6.3-4.5l-2.1-.5ZM37.3 53.3V51a2.3 2.3 0 0 0-2.3-2.3h-2.3a7 7 0 0 1-7-7v-2.4a2.3 2.3 0 0 1 4.6 0v2.4a2.3 2.3 0 0 0 2.4 2.3H35a7 7 0 0 1 7 7v2.3a2.3 2.3 0 1 1-4.7 0ZM30.3 20.7a2.3 2.3 0 0 0-2.3-2.4 2.3 2.3 0 0 1 0-4.6 7 7 0 0 1 7 7 2.3 2.3 0 1 1-4.7 0Z"
    fill="#F56565" />
  <path
    d="M39.7 20.7a11.7 11.7 0 0 0-23.4 0 19 19 0 0 0 8.3 15c1.4 1 2.5 1.3 3.4 1.3.9 0 2-.4 3.4-1.2a19 19 0 0 0 8.3-15.1Zm4.6 0a23.7 23.7 0 0 1-10.4 19c-1.8 1.2-3.8 2-5.9 2-2 0-4.1-.8-6-2a23.7 23.7 0 0 1-10.4-19 16.3 16.3 0 1 1 32.7 0ZM411.3 280v-18.7a2.3 2.3 0 0 0-2.3-2.3h-28a2.3 2.3 0 0 0-2.3 2.3V280a2.3 2.3 0 0 1-4.7 0v-18.7a7 7 0 0 1 7-7h28a7 7 0 0 1 7 7V280a2.3 2.3 0 0 1-4.7 0Z"
    fill="#F56565" />
  <path
    d="m378.4 269.4-.1.2a2.3 2.3 0 0 1-4-2.3l1.7.9-1.8-1h.1a4.4 4.4 0 0 1 .4-.6l1.2-1.3a8 8 0 0 1 5.1-1.6c2.7 0 4.8 1.8 6.1 2.8 1.7 1.3 2.5 1.8 3.2 1.8.8 0 1.6-.5 3.2-1.8 1.3-1 3.4-2.8 6.2-2.8 2.7 0 4.8 1.8 6 2.8 1.7 1.3 2.5 1.8 3.3 1.8 1.2 0 1.8-.3 2.2-.6l.4-.4a2.3 2.3 0 0 1 4.2 2l-2.1-1 2 1v.1l-.1.2c0 .2-.2.3-.3.5l-1.2 1.2a8 8 0 0 1-5.1 1.7c-2.7 0-4.8-1.8-6.1-2.8-1.7-1.3-2.5-1.9-3.2-1.9-.8 0-1.6.6-3.2 1.9-1.3 1-3.4 2.8-6.2 2.8-2.7 0-4.8-1.8-6-2.8-1.7-1.3-2.5-1.9-3.3-1.9-1.2 0-1.8.4-2.2.7l-.4.4ZM418.3 277.7a2.3 2.3 0 1 1 0 4.6h-46.6a2.3 2.3 0 0 1 0-4.6h46.6ZM381 256.7v-7a2.3 2.3 0 0 1 4.7 0v7a2.3 2.3 0 0 1-4.7 0ZM392.7 256.7v-7a2.3 2.3 0 1 1 4.6 0v7a2.3 2.3 0 1 1-4.6 0ZM404.3 256.7v-7a2.3 2.3 0 0 1 4.7 0v7a2.3 2.3 0 1 1-4.7 0ZM383.4 238a2.3 2.3 0 1 1 0 4.7 2.3 2.3 0 0 1 0-4.7ZM395 238a2.3 2.3 0 0 1 0 4.7 2.3 2.3 0 0 1 0-4.7ZM406.7 238a2.3 2.3 0 0 1 0 4.7 2.3 2.3 0 0 1 0-4.7Z"
    fill="#F56565" />
  <path
    d="M385 170.1c-3.3 0-6-.6-8.4-2a13.8 13.8 0 0 1-5.5-5.8 19.7 19.7 0 0 1-1.9-9c0-3.3.7-6.3 2-8.8a14.5 14.5 0 0 1 13.4-8.2c2 0 3.9.4 5.7 1 1.7.7 3.3 1.7 4.7 3a14 14 0 0 1 3.2 5.2c.8 2 1.2 4.5 1.2 7.4v2.3h-26.6V150h19.3c0-1.4-.3-2.7-1-3.9a7 7 0 0 0-6.4-3.7c-1.6 0-3 .3-4.1 1.1a7.9 7.9 0 0 0-2.8 3c-.6 1.2-1 2.6-1 4v4.6c0 1.9.4 3.5 1 4.9a7.4 7.4 0 0 0 3 3c1.2.8 2.6 1.1 4.3 1.1 1.1 0 2.1-.1 3-.4 1-.4 1.7-.8 2.4-1.5a6 6 0 0 0 1.5-2.3l7.1.8c-.4 2-1.3 3.6-2.6 5a12.6 12.6 0 0 1-4.8 3.3c-2 .8-4.2 1.1-6.7 1.1ZM345.2 170c-2.6 0-4.8-.6-6.9-2-2-1.2-3.6-3.1-4.7-5.7a21.6 21.6 0 0 1-1.8-9.1c0-3.7.6-6.7 1.8-9.2a12.4 12.4 0 0 1 16.3-6.6c1.2.6 2.2 1.3 3 2.3l1.6 2.5h.3v-16.3h7.7v43.6h-7.6v-5.2h-.4c-.4.8-1 1.7-1.7 2.6a9.4 9.4 0 0 1-7.6 3.2Zm2.1-6.3c1.6 0 3-.4 4.2-1.3 1.1-.9 2-2.1 2.6-3.7.6-1.6.8-3.4.8-5.6 0-2-.2-4-.8-5.5a7.9 7.9 0 0 0-2.6-3.6 6.6 6.6 0 0 0-4.2-1.3c-1.7 0-3.1.4-4.3 1.3-1 1-2 2.1-2.5 3.7-.6 1.6-.9 3.4-.9 5.4 0 2 .3 4 .9 5.5a8.6 8.6 0 0 0 2.6 3.8c1.1.9 2.5 1.3 4.2 1.3ZM317.6 169.5v-32.7h7.7v32.7h-7.7Zm3.9-37.4c-1.2 0-2.3-.4-3.2-1.2a4 4 0 0 1-1.3-3c0-1.1.5-2.1 1.3-3 1-.7 2-1.1 3.2-1.1 1.2 0 2.2.4 3.1 1.2.9.8 1.3 1.8 1.3 3a4 4 0 0 1-1.3 3c-.9.7-2 1.1-3.1 1.1ZM297.4 170.1c-3.2 0-6-.7-8.3-2.1-2.3-1.4-4.1-3.4-5.4-6a19.8 19.8 0 0 1-1.8-8.7c0-3.4.6-6.3 1.9-8.8a14.3 14.3 0 0 1 13.6-8.2c2.6 0 5 .5 7 1.5a12 12 0 0 1 7 10.3H304a7 7 0 0 0-2-4 6 6 0 0 0-4.5-1.5c-1.6 0-3 .4-4.1 1.2-1.2.9-2.1 2-2.8 3.7-.6 1.5-1 3.4-1 5.6 0 2.3.4 4.2 1 5.8a8.4 8.4 0 0 0 2.7 3.7 7 7 0 0 0 4.2 1.3c1.1 0 2.1-.3 3-.7 1-.4 1.7-1 2.3-1.9.6-.8 1-1.8 1.2-3h7.3a12 12 0 0 1-6.8 10.3c-2 1-4.3 1.5-7 1.5ZM267.8 155.7v-19h7.6v32.8H268v-5.8h-.4c-.7 1.8-1.9 3.3-3.6 4.5a10.5 10.5 0 0 1-6.1 1.7c-2.1 0-4-.5-5.7-1.4a9.9 9.9 0 0 1-3.8-4.2 15 15 0 0 1-1.3-6.7v-20.8h7.6v19.6a7 7 0 0 0 1.7 5 5.8 5.8 0 0 0 4.4 1.8 7 7 0 0 0 6-3.3c.6-1.1 1-2.5 1-4.2ZM213.7 169.5v-43.6h7.8v37h19.1v6.6h-26.9ZM157.4 147c0-6.2-5-11.3-11.2-11.3-6.2 0-11.2 5-11.2 11.3a26.1 26.1 0 0 0 26 26.2c14.5 0 26.1-11.7 26.1-26.2 0-12.2-5.3-23.2-13.6-30.7a3.8 3.8 0 0 1-.3-5.3 3.7 3.7 0 0 1 5.2-.3c10 8.9 16.1 21.9 16.1 36.3v1.7a33.6 33.6 0 0 1-33.4 32 33.6 33.6 0 0 1-33.5-33.7c0-10.4 8.3-18.8 18.6-18.8s18.6 8.4 18.6 18.8c0 2-1.7 3.7-3.7 3.7s-3.7-1.6-3.7-3.7Z"
    fill="currentColor" />
  <path
    d="M142.5 147c0-2 1.6-3.8 3.7-3.8 2 0 3.7 1.7 3.7 3.8 0 6.2 5 11.3 11.2 11.3 6 0 10.8-4.8 11.1-10.7v-.6a26.1 26.1 0 0 0-26-26.3c-14.4 0-26 11.8-26 26.3 0 12.3 5.3 23.4 13.8 31a3.8 3.8 0 0 1 .3 5.2 3.7 3.7 0 0 1-5.2.4 48.8 48.8 0 0 1-16.4-35.2V147c0-18.6 15-33.8 33.5-33.8a33.6 33.6 0 0 1 33.5 33.8v1c-.6 9.9-8.7 17.8-18.6 17.8a18.7 18.7 0 0 1-18.6-18.8Z"
    fill="#F56565" />
  <rect x="430" y="98" width="149" height="100" rx="25" style="fill: var(--vp-c-bg-soft)" />
  <path
    d="M473.8 172c-1.8 0-2.7-.9-2.7-2.7v-33l1.5-1-7 6.6c-.6.5-1.1.8-1.7.9-.6 0-1.2-.2-1.8-.8-1.2-1.1-1-2.3.2-3.6l8.6-8.4c.9-1 2-1.4 3.3-1.4 1.5 0 2.3.9 2.3 2.7v38c0 1.8-.9 2.7-2.7 2.7Zm20.2 0c-1.7 0-2.5-.9-2.5-2.6v-1.6c0-1.6.8-2.5 2.5-2.5h1.5c1.7 0 2.5.9 2.5 2.5v1.6c0 1.7-.8 2.6-2.5 2.6H494Zm32.5 0c-4.9 0-8.5-1.2-10.9-3.6-2.3-2.3-3.4-6-3.4-10.8v-14.8c0-5 1.1-8.5 3.4-10.9 2.4-2.3 6-3.4 10.9-3.4h3.8c5 0 8.6 1.2 10.9 3.5 2.3 2.3 3.5 6 3.5 10.9v14.7c0 4.9-1.2 8.5-3.5 10.8-2.3 2.4-6 3.5-10.9 3.5h-3.8Zm0-5.4h3.8c2.3 0 4.1-.3 5.4-.9a5 5 0 0 0 2.8-2.8c.5-1.3.8-3 .8-5.3v-14.7c0-2.3-.3-4-.8-5.4a4.9 4.9 0 0 0-2.8-2.7 14 14 0 0 0-5.4-.9h-3.8c-2.3 0-4 .2-5.4.8a4.8 4.8 0 0 0-2.7 2.7c-.6 1.3-.9 3.1-.9 5.4v14.8c0 2.3.3 4 .8 5.3a5.1 5.1 0 0 0 2.8 2.8c1.3.6 3.1.9 5.4.9Zm1.1-13.2c-1.7 0-2.5-.9-2.5-2.6v-1.6c0-1.6.8-2.5 2.5-2.5h1.6c1.6 0 2.4.9 2.4 2.5v1.6c0 1.7-.8 2.6-2.4 2.6h-1.6Z"
    fill="currentColor" />
  <path
    d="M645.6 45.5a7.1 7.1 0 1 0-14.2 0 7.1 7.1 0 0 0 14.2 0Zm4.8 0a11.9 11.9 0 1 1-23.8 0 11.9 11.9 0 0 1 23.8 0ZM636.1 26.5v-4.8a2.4 2.4 0 1 1 4.8 0v4.8a2.4 2.4 0 1 1-4.8 0ZM636.1 69.3v-4.8a2.4 2.4 0 1 1 4.8 0v4.8a2.4 2.4 0 1 1-4.8 0ZM620 27c1-.9 2.5-.9 3.4 0l3.3 3.4a2.4 2.4 0 0 1-3.3 3.3l-3.4-3.3c-.9-1-.9-2.4 0-3.4ZM650.3 57.3c.9-1 2.4-1 3.3 0l3.4 3.3a2.4 2.4 0 0 1-3.4 3.4l-3.3-3.4c-1-1-1-2.4 0-3.3ZM619.5 43.1a2.4 2.4 0 1 1 0 4.8h-4.8a2.4 2.4 0 1 1 0-4.8h4.8ZM662.3 43.1a2.4 2.4 0 1 1 0 4.8h-4.8a2.4 2.4 0 1 1 0-4.8h4.8ZM623.4 57.3a2.4 2.4 0 1 1 3.3 3.3l-3.3 3.4a2.4 2.4 0 1 1-3.4-3.4l3.4-3.3ZM653.6 27a2.4 2.4 0 1 1 3.4 3.4l-3.4 3.3a2.4 2.4 0 0 1-3.3-3.3l3.3-3.4ZM592 227c1-.9 2.4-.9 3.3 0l18.7 18.7a2.3 2.3 0 0 1-3.3 3.3L592 230.3c-.9-.9-.9-2.4 0-3.3ZM638.7 227a2.3 2.3 0 1 1 3.3 3.3L623.3 249a2.3 2.3 0 1 1-3.3-3.3l18.7-18.7Z"
    fill="#F56565" />
  <path
    d="M638 245c0-1.9-1.6-4.2-5.5-6.2-3.9-1.9-9.3-3.1-15.5-3.1-6.2 0-11.6 1.2-15.5 3.1-4 2-5.5 4.3-5.5 6.2 0 1.9 1.6 4.2 5.5 6.2 3.9 1.9 9.3 3.1 15.5 3.1 6.2 0 11.6-1.2 15.5-3.1 4-2 5.5-4.3 5.5-6.2Zm4.7 0c0 4.6-3.7 8.1-8.2 10.3A40.1 40.1 0 0 1 617 259c-6.7 0-13-1.4-17.5-3.7-4.5-2.2-8.2-5.7-8.2-10.3 0-4.6 3.7-8.1 8.2-10.3A40.1 40.1 0 0 1 617 231c6.7 0 13 1.4 17.5 3.7 4.5 2.2 8.2 5.7 8.2 10.3Z"
    fill="#F56565" />
  <path
    d="M603 273.7v-18.4a2.3 2.3 0 1 1 4.7 0v18.4a2.3 2.3 0 0 1-4.7 0ZM614.7 275.3v-18.6a2.3 2.3 0 1 1 4.6 0v18.6a2.3 2.3 0 1 1-4.6 0ZM626.3 273.7v-18.4a2.3 2.3 0 0 1 4.7 0v18.4a2.3 2.3 0 0 1-4.7 0Z"
    fill="#F56565" />
  <path
    d="M591.3 263.7V245a2.3 2.3 0 0 1 4.7 0v18.7c0 1.7 1.5 4 5.5 6.1 4 2 9.6 3.2 15.5 3.2 6 0 11.5-1.2 15.5-3.2s5.5-4.4 5.5-6.1V245a2.3 2.3 0 0 1 4.7 0v18.7c0 4.4-3.5 8-8.2 10.3-4.7 2.4-11 3.7-17.5 3.7s-12.8-1.3-17.5-3.7c-4.7-2.3-8.2-6-8.2-10.3Z"
    fill="#F56565" />
</svg>
