<svg width="480" height="480" viewBox="0 0 480 480" fill="none" xmlns="http://www.w3.org/2000/svg">
<rect width="480" height="480" fill="#3C3C43"/>
<path d="M219 396.5L208 407.5L203 402.5" stroke="#36EA83" stroke-width="3" stroke-linecap="round" stroke-linejoin="round"/>
<path d="M241.052 414H233.06V391.455H241.118C243.386 391.455 245.338 391.906 246.975 392.809C248.611 393.704 249.87 394.992 250.751 396.673C251.639 398.353 252.083 400.364 252.083 402.705C252.083 405.054 251.639 407.072 250.751 408.76C249.87 410.448 248.604 411.743 246.953 412.646C245.309 413.549 243.342 414 241.052 414ZM237.827 409.916H240.854C242.263 409.916 243.448 409.666 244.41 409.167C245.379 408.661 246.105 407.879 246.59 406.822C247.081 405.758 247.327 404.386 247.327 402.705C247.327 401.039 247.081 399.678 246.59 398.621C246.105 397.564 245.382 396.786 244.421 396.287C243.459 395.788 242.274 395.539 240.865 395.539H237.827V409.916ZM263.166 414.33C261.456 414.33 259.977 413.967 258.729 413.24C257.489 412.507 256.531 411.486 255.856 410.18C255.181 408.866 254.843 407.344 254.843 405.612C254.843 403.865 255.181 402.338 255.856 401.032C256.531 399.718 257.489 398.698 258.729 397.972C259.977 397.238 261.456 396.871 263.166 396.871C264.876 396.871 266.351 397.238 267.591 397.972C268.839 398.698 269.8 399.718 270.475 401.032C271.151 402.338 271.488 403.865 271.488 405.612C271.488 407.344 271.151 408.866 270.475 410.18C269.8 411.486 268.839 412.507 267.591 413.24C266.351 413.967 264.876 414.33 263.166 414.33ZM263.188 410.697C263.966 410.697 264.615 410.477 265.136 410.037C265.657 409.589 266.05 408.98 266.314 408.21C266.586 407.439 266.721 406.562 266.721 405.578C266.721 404.595 266.586 403.718 266.314 402.947C266.05 402.177 265.657 401.568 265.136 401.12C264.615 400.672 263.966 400.449 263.188 400.449C262.402 400.449 261.742 400.672 261.206 401.12C260.678 401.568 260.278 402.177 260.006 402.947C259.742 403.718 259.61 404.595 259.61 405.578C259.61 406.562 259.742 407.439 260.006 408.21C260.278 408.98 260.678 409.589 261.206 410.037C261.742 410.477 262.402 410.697 263.188 410.697ZM277.279 414.286C276.552 414.286 275.928 414.029 275.407 413.516C274.893 412.995 274.637 412.371 274.637 411.644C274.637 410.925 274.893 410.308 275.407 409.795C275.928 409.281 276.552 409.024 277.279 409.024C277.983 409.024 278.6 409.281 279.128 409.795C279.656 410.308 279.921 410.925 279.921 411.644C279.921 412.129 279.796 412.573 279.546 412.976C279.304 413.373 278.985 413.692 278.589 413.934C278.192 414.169 277.756 414.286 277.279 414.286Z" fill="#36EA83"/>
<path d="M113.496 63.4545L118.945 80.5838H119.154L124.614 63.4545H129.898L122.126 86H115.983L108.2 63.4545H113.496ZM132.524 86V69.0909H137.213V86H132.524ZM134.88 66.9112C134.182 66.9112 133.584 66.68 133.085 66.2177C132.594 65.748 132.348 65.1866 132.348 64.5334C132.348 63.8875 132.594 63.3335 133.085 62.8711C133.584 62.4014 134.182 62.1665 134.88 62.1665C135.577 62.1665 136.171 62.4014 136.663 62.8711C137.162 63.3335 137.412 63.8875 137.412 64.5334C137.412 65.1866 137.162 65.748 136.663 66.2177C136.171 66.68 135.577 66.9112 134.88 66.9112ZM155.039 73.9126L150.746 74.1768C150.672 73.8099 150.514 73.4796 150.272 73.1861C150.03 72.8852 149.711 72.6467 149.315 72.4705C148.926 72.287 148.46 72.1953 147.916 72.1953C147.19 72.1953 146.577 72.3494 146.078 72.6577C145.579 72.9586 145.329 73.3622 145.329 73.8686C145.329 74.2723 145.491 74.6135 145.814 74.8924C146.137 75.1713 146.691 75.3951 147.476 75.5639L150.536 76.1804C152.18 76.518 153.406 77.0611 154.213 77.8097C155.021 78.5582 155.424 79.5417 155.424 80.7599C155.424 81.8681 155.098 82.8406 154.445 83.6772C153.799 84.5138 152.911 85.167 151.78 85.6367C150.658 86.0991 149.362 86.3303 147.894 86.3303C145.656 86.3303 143.873 85.8642 142.544 84.9322C141.223 83.9928 140.449 82.7158 140.222 81.1012L144.834 80.859C144.974 81.5415 145.311 82.0626 145.847 82.4222C146.383 82.7745 147.069 82.9506 147.905 82.9506C148.727 82.9506 149.388 82.7929 149.887 82.4773C150.393 82.1544 150.65 81.7397 150.658 81.2333C150.65 80.8076 150.47 80.459 150.118 80.1875C149.766 79.9086 149.223 79.6958 148.489 79.549L145.561 78.9656C143.909 78.6353 142.68 78.0629 141.873 77.2482C141.073 76.4336 140.673 75.3951 140.673 74.1328C140.673 73.0466 140.966 72.1109 141.554 71.3256C142.148 70.5404 142.981 69.9349 144.052 69.5092C145.131 69.0836 146.394 68.8707 147.839 68.8707C149.975 68.8707 151.656 69.3221 152.881 70.2248C154.114 71.1275 154.833 72.3568 155.039 73.9126ZM169.221 78.8004V69.0909H173.91V86H169.408V82.9286H169.232C168.85 83.9194 168.215 84.7157 167.327 85.3175C166.447 85.9193 165.371 86.2202 164.102 86.2202C162.972 86.2202 161.977 85.9633 161.118 85.4496C160.26 84.9358 159.588 84.2056 159.104 83.2589C158.627 82.3121 158.385 81.1783 158.377 79.8572V69.0909H163.067V79.0206C163.074 80.0187 163.342 80.8076 163.871 81.3874C164.399 81.9672 165.107 82.2571 165.995 82.2571C166.56 82.2571 167.089 82.1287 167.58 81.8718C168.072 81.6076 168.468 81.2186 168.769 80.7049C169.078 80.1912 169.228 79.5563 169.221 78.8004ZM182.483 86.3192C181.404 86.3192 180.443 86.1321 179.599 85.7578C178.755 85.3762 178.087 84.8147 177.595 84.0735C177.111 83.3249 176.869 82.3929 176.869 81.2773C176.869 80.3379 177.041 79.549 177.386 78.9105C177.731 78.272 178.201 77.7583 178.795 77.3693C179.39 76.9804 180.065 76.6868 180.821 76.4886C181.584 76.2905 182.384 76.151 183.221 76.0703C184.204 75.9676 184.997 75.8722 185.599 75.7841C186.2 75.6887 186.637 75.5492 186.909 75.3658C187.18 75.1823 187.316 74.9107 187.316 74.5511V74.4851C187.316 73.7879 187.096 73.2485 186.655 72.8668C186.222 72.4852 185.606 72.2944 184.806 72.2944C183.962 72.2944 183.291 72.4815 182.791 72.8558C182.292 73.2228 181.962 73.6851 181.801 74.2429L177.463 73.8906C177.684 72.8632 178.117 71.9751 178.762 71.2266C179.408 70.4706 180.241 69.8909 181.261 69.4872C182.289 69.0762 183.478 68.8707 184.828 68.8707C185.767 68.8707 186.666 68.9808 187.525 69.201C188.391 69.4212 189.158 69.7624 189.826 70.2248C190.501 70.6871 191.033 71.2816 191.422 72.0082C191.811 72.7274 192.006 73.5897 192.006 74.5952V86H187.558V83.6552H187.426C187.155 84.1836 186.791 84.6496 186.336 85.0533C185.881 85.4496 185.334 85.7615 184.696 85.989C184.057 86.2092 183.32 86.3192 182.483 86.3192ZM183.826 83.0827C184.516 83.0827 185.125 82.947 185.654 82.6754C186.182 82.3965 186.597 82.0223 186.898 81.5526C187.199 81.0829 187.349 80.5508 187.349 79.9563V78.1619C187.202 78.2573 187 78.3454 186.744 78.4261C186.494 78.4995 186.211 78.5692 185.896 78.6353C185.58 78.694 185.265 78.7491 184.949 78.8004C184.634 78.8445 184.347 78.8848 184.09 78.9215C183.54 79.0022 183.059 79.1307 182.648 79.3068C182.237 79.483 181.918 79.7215 181.691 80.0224C181.463 80.3159 181.349 80.6829 181.349 81.1232C181.349 81.7617 181.581 82.2498 182.043 82.5874C182.513 82.9176 183.107 83.0827 183.826 83.0827ZM200.334 63.4545V86H195.644V63.4545H200.334ZM208.78 63.4545V86H204.09V63.4545H208.78ZM215.432 92.3409C214.837 92.3409 214.28 92.2932 213.758 92.1978C213.245 92.1097 212.819 91.996 212.481 91.8565L213.538 88.3558C214.089 88.5246 214.584 88.6164 215.024 88.631C215.472 88.6457 215.857 88.543 216.18 88.3228C216.511 88.1026 216.778 87.7283 216.984 87.1999L217.259 86.4844L211.193 69.0909H216.125L219.626 81.5085H219.802L223.336 69.0909H228.301L221.729 87.8274C221.413 88.7375 220.984 89.5301 220.441 90.2053C219.905 90.8878 219.226 91.4125 218.404 91.7795C217.582 92.1538 216.591 92.3409 215.432 92.3409ZM245.515 86.3303C243.783 86.3303 242.293 85.9633 241.046 85.2294C239.806 84.4882 238.851 83.4607 238.184 82.147C237.523 80.8333 237.193 79.3215 237.193 77.6115C237.193 75.8795 237.527 74.3603 238.195 73.054C238.87 71.7403 239.828 70.7165 241.068 69.9826C242.308 69.2414 243.783 68.8707 245.493 68.8707C246.968 68.8707 248.26 69.1386 249.368 69.6744C250.476 70.2101 251.353 70.9624 251.999 71.9311C252.645 72.8999 253.001 74.0374 253.067 75.3438H248.642C248.517 74.4998 248.187 73.8209 247.651 73.3072C247.123 72.7861 246.429 72.5256 245.57 72.5256C244.844 72.5256 244.209 72.7237 243.666 73.12C243.13 73.509 242.712 74.0778 242.411 74.8263C242.11 75.5749 241.96 76.4813 241.96 77.5455C241.96 78.6243 242.106 79.5417 242.4 80.2976C242.701 81.0535 243.123 81.6296 243.666 82.0259C244.209 82.4222 244.844 82.6204 245.57 82.6204C246.106 82.6204 246.587 82.5103 247.012 82.2901C247.445 82.07 247.801 81.7507 248.08 81.3324C248.366 80.9067 248.554 80.3967 248.642 79.8022H253.067C252.994 81.0939 252.641 82.2314 252.01 83.2148C251.386 84.1909 250.524 84.9542 249.423 85.5046C248.322 86.055 247.02 86.3303 245.515 86.3303ZM263.776 86.3303C262.036 86.3303 260.539 85.978 259.284 85.2734C258.037 84.5616 257.075 83.5561 256.4 82.2571C255.725 80.9508 255.387 79.4059 255.387 77.6225C255.387 75.8832 255.725 74.3567 256.4 73.043C257.075 71.7293 258.026 70.7055 259.251 69.9716C260.484 69.2377 261.93 68.8707 263.589 68.8707C264.704 68.8707 265.743 69.0505 266.704 69.4102C267.673 69.7624 268.517 70.2945 269.236 71.0064C269.962 71.7183 270.528 72.6136 270.931 73.6925C271.335 74.764 271.537 76.0189 271.537 77.4574V78.7454H257.259V75.8391H267.122C267.122 75.1639 266.975 74.5658 266.682 74.0447C266.388 73.5237 265.981 73.1164 265.46 72.8228C264.946 72.5219 264.348 72.3714 263.666 72.3714C262.954 72.3714 262.323 72.5366 261.772 72.8668C261.229 73.1897 260.803 73.6264 260.495 74.1768C260.187 74.7199 260.029 75.3254 260.022 75.9933V78.7564C260.022 79.593 260.176 80.3159 260.484 80.9251C260.8 81.5342 261.244 82.0039 261.816 82.3342C262.389 82.6644 263.067 82.8295 263.853 82.8295C264.374 82.8295 264.851 82.7562 265.284 82.6094C265.717 82.4626 266.087 82.2424 266.396 81.9489C266.704 81.6553 266.939 81.2957 267.1 80.87L271.438 81.1562C271.217 82.1984 270.766 83.1084 270.084 83.8864C269.408 84.657 268.535 85.2588 267.464 85.6918C266.399 86.1174 265.17 86.3303 263.776 86.3303ZM279.287 76.2244V86H274.597V69.0909H279.066V72.0742H279.265C279.639 71.0908 280.266 70.3129 281.147 69.7404C282.028 69.1606 283.096 68.8707 284.351 68.8707C285.525 68.8707 286.549 69.1276 287.422 69.6413C288.295 70.1551 288.974 70.889 289.459 71.843C289.943 72.7898 290.185 73.92 290.185 75.2337V86H285.495V76.0703C285.503 75.0355 285.239 74.2282 284.703 73.6484C284.167 73.0613 283.43 72.7678 282.49 72.7678C281.859 72.7678 281.301 72.9035 280.817 73.1751C280.34 73.4466 279.966 73.8429 279.694 74.364C279.43 74.8777 279.294 75.4979 279.287 76.2244ZM302.875 69.0909V72.6136H292.692V69.0909H302.875ZM295.004 65.0398H299.694V80.804C299.694 81.237 299.76 81.5746 299.892 81.8168C300.024 82.0516 300.207 82.2167 300.442 82.3121C300.684 82.4076 300.963 82.4553 301.279 82.4553C301.499 82.4553 301.719 82.4369 301.939 82.4002C302.16 82.3562 302.328 82.3232 302.446 82.3011L303.183 85.7908C302.949 85.8642 302.618 85.9486 302.193 86.044C301.767 86.1468 301.25 86.2092 300.64 86.2312C299.51 86.2752 298.519 86.1248 297.668 85.7798C296.824 85.4349 296.167 84.8991 295.698 84.1726C295.228 83.446 294.997 82.5286 295.004 81.4205V65.0398ZM313.454 86.3303C311.715 86.3303 310.218 85.978 308.963 85.2734C307.715 84.5616 306.754 83.5561 306.079 82.2571C305.403 80.9508 305.066 79.4059 305.066 77.6225C305.066 75.8832 305.403 74.3567 306.079 73.043C306.754 71.7293 307.704 70.7055 308.93 69.9716C310.163 69.2377 311.609 68.8707 313.267 68.8707C314.383 68.8707 315.421 69.0505 316.383 69.4102C317.351 69.7624 318.195 70.2945 318.915 71.0064C319.641 71.7183 320.206 72.6136 320.61 73.6925C321.014 74.764 321.215 76.0189 321.215 77.4574V78.7454H306.937V75.8391H316.801C316.801 75.1639 316.654 74.5658 316.361 74.0447C316.067 73.5237 315.66 73.1164 315.139 72.8228C314.625 72.5219 314.027 72.3714 313.344 72.3714C312.632 72.3714 312.001 72.5366 311.451 72.8668C310.908 73.1897 310.482 73.6264 310.174 74.1768C309.866 74.7199 309.708 75.3254 309.7 75.9933V78.7564C309.7 79.593 309.855 80.3159 310.163 80.9251C310.478 81.5342 310.922 82.0039 311.495 82.3342C312.067 82.6644 312.746 82.8295 313.531 82.8295C314.052 82.8295 314.53 82.7562 314.963 82.6094C315.396 82.4626 315.766 82.2424 316.074 81.9489C316.383 81.6553 316.617 81.2957 316.779 80.87L321.116 81.1562C320.896 82.1984 320.445 83.1084 319.762 83.8864C319.087 84.657 318.214 85.2588 317.142 85.6918C316.078 86.1174 314.849 86.3303 313.454 86.3303ZM324.276 86V69.0909H328.822V72.0412H328.998C329.307 70.9917 329.824 70.1991 330.551 69.6634C331.277 69.1203 332.114 68.8487 333.061 68.8487C333.295 68.8487 333.549 68.8634 333.82 68.8928C334.092 68.9221 334.33 68.9625 334.536 69.0138V73.1751C334.316 73.109 334.011 73.0503 333.622 72.9989C333.233 72.9476 332.877 72.9219 332.554 72.9219C331.864 72.9219 331.248 73.0723 330.705 73.3732C330.169 73.6668 329.743 74.0778 329.428 74.6062C329.119 75.1346 328.965 75.7437 328.965 76.4336V86H324.276ZM343.879 86.3303C342.14 86.3303 340.643 85.978 339.388 85.2734C338.14 84.5616 337.179 83.5561 336.503 82.2571C335.828 80.9508 335.491 79.4059 335.491 77.6225C335.491 75.8832 335.828 74.3567 336.503 73.043C337.179 71.7293 338.129 70.7055 339.355 69.9716C340.588 69.2377 342.033 68.8707 343.692 68.8707C344.808 68.8707 345.846 69.0505 346.807 69.4102C347.776 69.7624 348.62 70.2945 349.339 71.0064C350.066 71.7183 350.631 72.6136 351.035 73.6925C351.438 74.764 351.64 76.0189 351.64 77.4574V78.7454H337.362V75.8391H347.226C347.226 75.1639 347.079 74.5658 346.785 74.0447C346.492 73.5237 346.085 73.1164 345.563 72.8228C345.05 72.5219 344.452 72.3714 343.769 72.3714C343.057 72.3714 342.426 72.5366 341.876 72.8668C341.333 73.1897 340.907 73.6264 340.599 74.1768C340.29 74.7199 340.133 75.3254 340.125 75.9933V78.7564C340.125 79.593 340.279 80.3159 340.588 80.9251C340.903 81.5342 341.347 82.0039 341.92 82.3342C342.492 82.6644 343.171 82.8295 343.956 82.8295C344.477 82.8295 344.954 82.7562 345.387 82.6094C345.82 82.4626 346.191 82.2424 346.499 81.9489C346.807 81.6553 347.042 81.2957 347.204 80.87L351.541 81.1562C351.321 82.1984 350.87 83.1084 350.187 83.8864C349.512 84.657 348.639 85.2588 347.567 85.6918C346.503 86.1174 345.274 86.3303 343.879 86.3303ZM360.931 86.2752C359.647 86.2752 358.484 85.945 357.442 85.2844C356.407 84.6166 355.585 83.6368 354.976 82.3452C354.374 81.0462 354.073 79.4536 354.073 77.5675C354.073 75.63 354.385 74.0191 355.009 72.7347C355.633 71.4431 356.462 70.478 357.497 69.8395C358.539 69.1937 359.68 68.8707 360.92 68.8707C361.867 68.8707 362.656 69.0322 363.287 69.3551C363.926 69.6707 364.439 70.067 364.828 70.544C365.225 71.0137 365.526 71.4761 365.731 71.9311H365.874V63.4545H370.553V86H365.929V83.2919H365.731C365.511 83.7616 365.199 84.2276 364.795 84.69C364.399 85.145 363.882 85.523 363.243 85.8239C362.612 86.1248 361.841 86.2752 360.931 86.2752ZM362.418 82.5433C363.173 82.5433 363.812 82.3378 364.333 81.9268C364.861 81.5085 365.265 80.9251 365.544 80.1765C365.83 79.4279 365.973 78.5509 365.973 77.5455C365.973 76.54 365.834 75.6667 365.555 74.9254C365.276 74.1842 364.872 73.6117 364.344 73.2081C363.816 72.8045 363.173 72.6026 362.418 72.6026C361.647 72.6026 360.997 72.8118 360.469 73.2301C359.941 73.6484 359.541 74.2282 359.269 74.9695C358.998 75.7107 358.862 76.5694 358.862 77.5455C358.862 78.5289 358.998 79.3986 359.269 80.1545C359.548 80.9031 359.948 81.4902 360.469 81.9158C360.997 82.3342 361.647 82.5433 362.418 82.5433Z" fill="white"/>
<g clip-path="url(#clip0_1612_14933)">
<g clip-path="url(#clip1_1612_14933)">
<rect x="120" y="120" width="240" height="240" rx="8" fill="#F5F5F5"/>
<path d="M120 130H360" stroke="#D8D8D9" stroke-width="0.5"/>
<path d="M130 120V360" stroke="#D8D8D9" stroke-width="0.5"/>
<path d="M120 140H360" stroke="#D8D8D9" stroke-width="0.5"/>
<path d="M140 120V360" stroke="#D8D8D9" stroke-width="0.5"/>
<path d="M120 150H360" stroke="#D8D8D9" stroke-width="0.5"/>
<path d="M150 120V360" stroke="#D8D8D9" stroke-width="0.5"/>
<path d="M120 160H360" stroke="#D8D8D9" stroke-width="0.5"/>
<path d="M160 120V360" stroke="#D8D8D9" stroke-width="0.5"/>
<path d="M120 170H360" stroke="#D8D8D9" stroke-width="0.5"/>
<path d="M170 120V360" stroke="#D8D8D9" stroke-width="0.5"/>
<path d="M120 180H360" stroke="#D8D8D9" stroke-width="0.5"/>
<path d="M180 120V360" stroke="#D8D8D9" stroke-width="0.5"/>
<path d="M120 190H360" stroke="#D8D8D9" stroke-width="0.5"/>
<path d="M190 120V360" stroke="#D8D8D9" stroke-width="0.5"/>
<path d="M120 200H360" stroke="#D8D8D9" stroke-width="0.5"/>
<path d="M200 120V360" stroke="#D8D8D9" stroke-width="0.5"/>
<path d="M120 210H360" stroke="#D8D8D9" stroke-width="0.5"/>
<path d="M210 120V360" stroke="#D8D8D9" stroke-width="0.5"/>
<path d="M120 220H360" stroke="#D8D8D9" stroke-width="0.5"/>
<path d="M220 120V360" stroke="#D8D8D9" stroke-width="0.5"/>
<path d="M120 230H360" stroke="#D8D8D9" stroke-width="0.5"/>
<path d="M230 120V360" stroke="#D8D8D9" stroke-width="0.5"/>
<path d="M120 240H360" stroke="#D8D8D9" stroke-width="0.5"/>
<path d="M240 120V360" stroke="#D8D8D9" stroke-width="0.5"/>
<path d="M120 250H360" stroke="#D8D8D9" stroke-width="0.5"/>
<path d="M250 120V360" stroke="#D8D8D9" stroke-width="0.5"/>
<path d="M120 260H360" stroke="#D8D8D9" stroke-width="0.5"/>
<path d="M260 120V360" stroke="#D8D8D9" stroke-width="0.5"/>
<path d="M120 270H360" stroke="#D8D8D9" stroke-width="0.5"/>
<path d="M270 120V360" stroke="#D8D8D9" stroke-width="0.5"/>
<path d="M120 280H360" stroke="#D8D8D9" stroke-width="0.5"/>
<path d="M280 120V360" stroke="#D8D8D9" stroke-width="0.5"/>
<path d="M120 290H360" stroke="#D8D8D9" stroke-width="0.5"/>
<path d="M290 120V360" stroke="#D8D8D9" stroke-width="0.5"/>
<path d="M120 300H360" stroke="#D8D8D9" stroke-width="0.5"/>
<path d="M300 120V360" stroke="#D8D8D9" stroke-width="0.5"/>
<path d="M120 310H360" stroke="#D8D8D9" stroke-width="0.5"/>
<path d="M310 120V360" stroke="#D8D8D9" stroke-width="0.5"/>
<path d="M120 320H360" stroke="#D8D8D9" stroke-width="0.5"/>
<path d="M320 120V360" stroke="#D8D8D9" stroke-width="0.5"/>
<path d="M120 330H360" stroke="#D8D8D9" stroke-width="0.5"/>
<path d="M330 120V360" stroke="#D8D8D9" stroke-width="0.5"/>
<path d="M120 340H360" stroke="#D8D8D9" stroke-width="0.5"/>
<path d="M340 120V360" stroke="#D8D8D9" stroke-width="0.5"/>
<path d="M120 350H360" stroke="#D8D8D9" stroke-width="0.5"/>
<path d="M350 120V360" stroke="#D8D8D9" stroke-width="0.5"/>
</g>
<g id="embed-lucide-mouse-pointer-2" stroke="#3C3C43" stroke-width="2" stroke-linecap="round" stroke-linejoin="round" transform="translate(120 120), scale(10)">
  <path d="M4.037 4.688a.495.495 0 0 1 .651-.651l16 6.5a.5.5 0 0 1-.063.947l-6.124 1.58a2 2 0 0 0-1.438 1.435l-1.579 6.126a.5.5 0 0 1-.947.063z" />
</g>
<path opacity="0.5" d="M240 120V360M360 240H120" stroke="#F56565" stroke-dasharray="1 1"/>
</g>
<defs>
<clipPath id="clip0_1612_14933">
<rect width="240" height="240" fill="white" transform="translate(120 120)"/>
</clipPath>
<clipPath id="clip1_1612_14933">
<rect x="120" y="120" width="240" height="240" rx="8" fill="white"/>
</clipPath>
</defs>
</svg>
