<svg width="480" height="480" viewBox="0 0 480 480" fill="none" xmlns="http://www.w3.org/2000/svg">
<rect width="480" height="480" fill="#3C3C43"/>
<path d="M197 392.5L185 404.5" stroke="#F45F7A" stroke-width="3" stroke-linecap="round" stroke-linejoin="round"/>
<path d="M185 392.5L197 404.5" stroke="#F45F7A" stroke-width="3" stroke-linecap="round" stroke-linejoin="round"/>
<path d="M221.071 410H213.079V387.455H221.137C223.405 387.455 225.357 387.906 226.994 388.809C228.631 389.704 229.889 390.992 230.77 392.673C231.658 394.353 232.102 396.364 232.102 398.705C232.102 401.054 231.658 403.072 230.77 404.76C229.889 406.448 228.623 407.743 226.972 408.646C225.328 409.549 223.361 410 221.071 410ZM217.846 405.916H220.873C222.282 405.916 223.468 405.666 224.429 405.167C225.398 404.661 226.124 403.879 226.609 402.822C227.1 401.758 227.346 400.386 227.346 398.705C227.346 397.039 227.1 395.678 226.609 394.621C226.124 393.564 225.401 392.786 224.44 392.287C223.479 391.788 222.293 391.539 220.884 391.539H217.846V405.916ZM243.185 410.33C241.475 410.33 239.996 409.967 238.748 409.24C237.508 408.507 236.55 407.486 235.875 406.18C235.2 404.866 234.862 403.344 234.862 401.612C234.862 399.865 235.2 398.338 235.875 397.032C236.55 395.718 237.508 394.698 238.748 393.972C239.996 393.238 241.475 392.871 243.185 392.871C244.895 392.871 246.37 393.238 247.61 393.972C248.858 394.698 249.819 395.718 250.494 397.032C251.17 398.338 251.507 399.865 251.507 401.612C251.507 403.344 251.17 404.866 250.494 406.18C249.819 407.486 248.858 408.507 247.61 409.24C246.37 409.967 244.895 410.33 243.185 410.33ZM243.207 406.697C243.985 406.697 244.634 406.477 245.155 406.037C245.676 405.589 246.069 404.98 246.333 404.21C246.605 403.439 246.74 402.562 246.74 401.578C246.74 400.595 246.605 399.718 246.333 398.947C246.069 398.177 245.676 397.568 245.155 397.12C244.634 396.672 243.985 396.449 243.207 396.449C242.421 396.449 241.761 396.672 241.225 397.12C240.697 397.568 240.297 398.177 240.025 398.947C239.761 399.718 239.629 400.595 239.629 401.578C239.629 402.562 239.761 403.439 240.025 404.21C240.297 404.98 240.697 405.589 241.225 406.037C241.761 406.477 242.421 406.697 243.207 406.697ZM259.246 400.224V410H254.557V393.091H259.026V396.074H259.224C259.598 395.091 260.226 394.313 261.107 393.74C261.987 393.161 263.055 392.871 264.31 392.871C265.484 392.871 266.508 393.128 267.381 393.641C268.255 394.155 268.934 394.889 269.418 395.843C269.902 396.79 270.145 397.92 270.145 399.234V410H265.455V400.07C265.462 399.036 265.198 398.228 264.662 397.648C264.127 397.061 263.389 396.768 262.45 396.768C261.818 396.768 261.261 396.904 260.776 397.175C260.299 397.447 259.925 397.843 259.653 398.364C259.389 398.878 259.253 399.498 259.246 400.224ZM277.771 387.455V389.832C277.771 390.508 277.639 391.197 277.374 391.902C277.118 392.599 276.773 393.26 276.34 393.884C275.907 394.5 275.433 395.025 274.92 395.458L272.85 394.236C273.217 393.656 273.54 393.014 273.819 392.309C274.105 391.605 274.248 390.786 274.248 389.854V387.455H277.771ZM290.464 393.091V396.614H280.281V393.091H290.464ZM282.592 389.04H287.282V404.804C287.282 405.237 287.348 405.575 287.48 405.817C287.612 406.052 287.796 406.217 288.031 406.312C288.273 406.408 288.552 406.455 288.867 406.455C289.087 406.455 289.308 406.437 289.528 406.4C289.748 406.356 289.917 406.323 290.034 406.301L290.772 409.791C290.537 409.864 290.207 409.949 289.781 410.044C289.355 410.147 288.838 410.209 288.229 410.231C287.099 410.275 286.108 410.125 285.257 409.78C284.413 409.435 283.756 408.899 283.286 408.173C282.816 407.446 282.585 406.529 282.592 405.42V389.04ZM296.26 410.286C295.533 410.286 294.909 410.029 294.388 409.516C293.874 408.995 293.617 408.371 293.617 407.644C293.617 406.925 293.874 406.308 294.388 405.795C294.909 405.281 295.533 405.024 296.26 405.024C296.964 405.024 297.581 405.281 298.109 405.795C298.637 406.308 298.902 406.925 298.902 407.644C298.902 408.129 298.777 408.573 298.527 408.976C298.285 409.373 297.966 409.692 297.57 409.934C297.173 410.169 296.737 410.286 296.26 410.286Z" fill="#F45F7A"/>
<path d="M100.277 63.4545V86H96.1599L86.3513 71.81H86.1862V86H81.4195V63.4545H85.6027L95.3343 77.6335H95.5324V63.4545H100.277ZM111.767 86.3303C110.057 86.3303 108.578 85.967 107.331 85.2404C106.09 84.5065 105.133 83.4864 104.458 82.18C103.782 80.8664 103.445 79.3435 103.445 77.6115C103.445 75.8648 103.782 74.3383 104.458 73.032C105.133 71.7183 106.09 70.6982 107.331 69.9716C108.578 69.2377 110.057 68.8707 111.767 68.8707C113.477 68.8707 114.952 69.2377 116.193 69.9716C117.44 70.6982 118.402 71.7183 119.077 73.032C119.752 74.3383 120.09 75.8648 120.09 77.6115C120.09 79.3435 119.752 80.8664 119.077 82.18C118.402 83.4864 117.44 84.5065 116.193 85.2404C114.952 85.967 113.477 86.3303 111.767 86.3303ZM111.789 82.6974C112.567 82.6974 113.217 82.4773 113.738 82.0369C114.259 81.5893 114.651 80.9801 114.916 80.2095C115.187 79.4389 115.323 78.5619 115.323 77.5785C115.323 76.5951 115.187 75.718 114.916 74.9474C114.651 74.1768 114.259 73.5677 113.738 73.12C113.217 72.6723 112.567 72.4485 111.789 72.4485C111.004 72.4485 110.343 72.6723 109.808 73.12C109.279 73.5677 108.879 74.1768 108.608 74.9474C108.344 75.718 108.211 76.5951 108.211 77.5785C108.211 78.5619 108.344 79.4389 108.608 80.2095C108.879 80.9801 109.279 81.5893 109.808 82.0369C110.343 82.4773 111.004 82.6974 111.789 82.6974ZM132.133 69.0909V72.6136H121.95V69.0909H132.133ZM124.262 65.0398H128.952V80.804C128.952 81.237 129.018 81.5746 129.15 81.8168C129.282 82.0516 129.465 82.2167 129.7 82.3121C129.942 82.4076 130.221 82.4553 130.537 82.4553C130.757 82.4553 130.977 82.4369 131.197 82.4002C131.417 82.3562 131.586 82.3232 131.704 82.3011L132.441 85.7908C132.206 85.8642 131.876 85.9486 131.45 86.044C131.025 86.1468 130.507 86.2092 129.898 86.2312C128.768 86.2752 127.777 86.1248 126.926 85.7798C126.082 85.4349 125.425 84.8991 124.955 84.1726C124.486 83.446 124.255 82.5286 124.262 81.4205V65.0398ZM158.127 69.0909L152.215 86H146.931L141.02 69.0909H145.973L149.485 81.1893H149.661L153.162 69.0909H158.127ZM160.527 86V69.0909H165.216V86H160.527ZM162.883 66.9112C162.185 66.9112 161.587 66.68 161.088 66.2177C160.596 65.748 160.351 65.1866 160.351 64.5334C160.351 63.8875 160.596 63.3335 161.088 62.8711C161.587 62.4014 162.185 62.1665 162.883 62.1665C163.58 62.1665 164.174 62.4014 164.666 62.8711C165.165 63.3335 165.415 63.8875 165.415 64.5334C165.415 65.1866 165.165 65.748 164.666 66.2177C164.174 66.68 163.58 66.9112 162.883 66.9112ZM183.042 73.9126L178.749 74.1768C178.675 73.8099 178.517 73.4796 178.275 73.1861C178.033 72.8852 177.714 72.6467 177.317 72.4705C176.929 72.287 176.462 72.1953 175.919 72.1953C175.193 72.1953 174.58 72.3494 174.081 72.6577C173.582 72.9586 173.332 73.3622 173.332 73.8686C173.332 74.2723 173.494 74.6135 173.817 74.8924C174.14 75.1713 174.694 75.3951 175.479 75.5639L178.539 76.1804C180.183 76.518 181.409 77.0611 182.216 77.8097C183.024 78.5582 183.427 79.5417 183.427 80.7599C183.427 81.8681 183.101 82.8406 182.447 83.6772C181.802 84.5138 180.914 85.167 179.783 85.6367C178.661 86.0991 177.365 86.3303 175.897 86.3303C173.659 86.3303 171.876 85.8642 170.547 84.9322C169.226 83.9928 168.452 82.7158 168.224 81.1012L172.837 80.859C172.976 81.5415 173.314 82.0626 173.85 82.4222C174.386 82.7745 175.072 82.9506 175.908 82.9506C176.73 82.9506 177.391 82.7929 177.89 82.4773C178.396 82.1544 178.653 81.7397 178.661 81.2333C178.653 80.8076 178.473 80.459 178.121 80.1875C177.769 79.9086 177.226 79.6958 176.492 79.549L173.564 78.9656C171.912 78.6353 170.683 78.0629 169.876 77.2482C169.076 76.4336 168.676 75.3951 168.676 74.1328C168.676 73.0466 168.969 72.1109 169.556 71.3256C170.151 70.5404 170.984 69.9349 172.055 69.5092C173.134 69.0836 174.397 68.8707 175.842 68.8707C177.978 68.8707 179.659 69.3221 180.884 70.2248C182.117 71.1275 182.836 72.3568 183.042 73.9126ZM197.224 78.8004V69.0909H201.913V86H197.411V82.9286H197.235C196.853 83.9194 196.218 84.7157 195.33 85.3175C194.449 85.9193 193.374 86.2202 192.105 86.2202C190.974 86.2202 189.98 85.9633 189.121 85.4496C188.263 84.9358 187.591 84.2056 187.107 83.2589C186.63 82.3121 186.388 81.1783 186.38 79.8572V69.0909H191.07V79.0206C191.077 80.0187 191.345 80.8076 191.873 81.3874C192.402 81.9672 193.11 82.2571 193.998 82.2571C194.563 82.2571 195.092 82.1287 195.583 81.8718C196.075 81.6076 196.471 81.2186 196.772 80.7049C197.081 80.1912 197.231 79.5563 197.224 78.8004ZM210.486 86.3192C209.407 86.3192 208.446 86.1321 207.602 85.7578C206.758 85.3762 206.09 84.8147 205.598 84.0735C205.114 83.3249 204.872 82.3929 204.872 81.2773C204.872 80.3379 205.044 79.549 205.389 78.9105C205.734 78.272 206.204 77.7583 206.798 77.3693C207.393 76.9804 208.068 76.6868 208.824 76.4886C209.587 76.2905 210.387 76.151 211.224 76.0703C212.207 75.9676 213 75.8722 213.602 75.7841C214.203 75.6887 214.64 75.5492 214.912 75.3658C215.183 75.1823 215.319 74.9107 215.319 74.5511V74.4851C215.319 73.7879 215.099 73.2485 214.658 72.8668C214.225 72.4852 213.609 72.2944 212.809 72.2944C211.965 72.2944 211.293 72.4815 210.794 72.8558C210.295 73.2228 209.965 73.6851 209.804 74.2429L205.466 73.8906C205.686 72.8632 206.119 71.9751 206.765 71.2266C207.411 70.4706 208.244 69.8909 209.264 69.4872C210.292 69.0762 211.481 68.8707 212.831 68.8707C213.77 68.8707 214.669 68.9808 215.528 69.201C216.394 69.4212 217.161 69.7624 217.829 70.2248C218.504 70.6871 219.036 71.2816 219.425 72.0082C219.814 72.7274 220.009 73.5897 220.009 74.5952V86H215.561V83.6552H215.429C215.157 84.1836 214.794 84.6496 214.339 85.0533C213.884 85.4496 213.337 85.7615 212.699 85.989C212.06 86.2092 211.323 86.3192 210.486 86.3192ZM211.829 83.0827C212.519 83.0827 213.128 82.947 213.657 82.6754C214.185 82.3965 214.6 82.0223 214.901 81.5526C215.201 81.0829 215.352 80.5508 215.352 79.9563V78.1619C215.205 78.2573 215.003 78.3454 214.746 78.4261C214.497 78.4995 214.214 78.5692 213.899 78.6353C213.583 78.694 213.268 78.7491 212.952 78.8004C212.636 78.8445 212.35 78.8848 212.093 78.9215C211.543 79.0022 211.062 79.1307 210.651 79.3068C210.24 79.483 209.921 79.7215 209.694 80.0224C209.466 80.3159 209.352 80.6829 209.352 81.1232C209.352 81.7617 209.583 82.2498 210.046 82.5874C210.516 82.9176 211.11 83.0827 211.829 83.0827ZM228.336 63.4545V86H223.647V63.4545H228.336ZM236.783 63.4545V86H232.093V63.4545H236.783ZM243.435 92.3409C242.84 92.3409 242.282 92.2932 241.761 92.1978C241.248 92.1097 240.822 91.996 240.484 91.8565L241.541 88.3558C242.092 88.5246 242.587 88.6164 243.027 88.631C243.475 88.6457 243.86 88.543 244.183 88.3228C244.513 88.1026 244.781 87.7283 244.987 87.1999L245.262 86.4844L239.196 69.0909H244.128L247.629 81.5085H247.805L251.339 69.0909H256.304L249.732 87.8274C249.416 88.7375 248.987 89.5301 248.444 90.2053C247.908 90.8878 247.229 91.4125 246.407 91.7795C245.585 92.1538 244.594 92.3409 243.435 92.3409ZM273.518 86.3303C271.786 86.3303 270.296 85.9633 269.049 85.2294C267.808 84.4882 266.854 83.4607 266.187 82.147C265.526 80.8333 265.196 79.3215 265.196 77.6115C265.196 75.8795 265.53 74.3603 266.198 73.054C266.873 71.7403 267.83 70.7165 269.071 69.9826C270.311 69.2414 271.786 68.8707 273.496 68.8707C274.971 68.8707 276.263 69.1386 277.371 69.6744C278.479 70.2101 279.356 70.9624 280.002 71.9311C280.648 72.8999 281.004 74.0374 281.07 75.3438H276.645C276.52 74.4998 276.19 73.8209 275.654 73.3072C275.125 72.7861 274.432 72.5256 273.573 72.5256C272.847 72.5256 272.212 72.7237 271.669 73.12C271.133 73.509 270.715 74.0778 270.414 74.8263C270.113 75.5749 269.962 76.4813 269.962 77.5455C269.962 78.6243 270.109 79.5417 270.403 80.2976C270.704 81.0535 271.126 81.6296 271.669 82.0259C272.212 82.4222 272.847 82.6204 273.573 82.6204C274.109 82.6204 274.59 82.5103 275.015 82.2901C275.448 82.07 275.804 81.7507 276.083 81.3324C276.369 80.9067 276.557 80.3967 276.645 79.8022H281.07C280.997 81.0939 280.644 82.2314 280.013 83.2148C279.389 84.1909 278.527 84.9542 277.426 85.5046C276.325 86.055 275.023 86.3303 273.518 86.3303ZM291.779 86.3303C290.039 86.3303 288.542 85.978 287.287 85.2734C286.039 84.5616 285.078 83.5561 284.403 82.2571C283.728 80.9508 283.39 79.4059 283.39 77.6225C283.39 75.8832 283.728 74.3567 284.403 73.043C285.078 71.7293 286.028 70.7055 287.254 69.9716C288.487 69.2377 289.933 68.8707 291.591 68.8707C292.707 68.8707 293.745 69.0505 294.707 69.4102C295.676 69.7624 296.52 70.2945 297.239 71.0064C297.965 71.7183 298.53 72.6136 298.934 73.6925C299.338 74.764 299.54 76.0189 299.54 77.4574V78.7454H285.262V75.8391H295.125C295.125 75.1639 294.978 74.5658 294.685 74.0447C294.391 73.5237 293.984 73.1164 293.463 72.8228C292.949 72.5219 292.351 72.3714 291.669 72.3714C290.957 72.3714 290.325 72.5366 289.775 72.8668C289.232 73.1897 288.806 73.6264 288.498 74.1768C288.19 74.7199 288.032 75.3254 288.025 75.9933V78.7564C288.025 79.593 288.179 80.3159 288.487 80.9251C288.803 81.5342 289.247 82.0039 289.819 82.3342C290.392 82.6644 291.07 82.8295 291.856 82.8295C292.377 82.8295 292.854 82.7562 293.287 82.6094C293.72 82.4626 294.09 82.2424 294.399 81.9489C294.707 81.6553 294.942 81.2957 295.103 80.87L299.441 81.1562C299.22 82.1984 298.769 83.1084 298.086 83.8864C297.411 84.657 296.538 85.2588 295.466 85.6918C294.402 86.1174 293.173 86.3303 291.779 86.3303ZM307.29 76.2244V86H302.6V69.0909H307.069V72.0742H307.268C307.642 71.0908 308.269 70.3129 309.15 69.7404C310.031 69.1606 311.099 68.8707 312.354 68.8707C313.528 68.8707 314.552 69.1276 315.425 69.6413C316.298 70.1551 316.977 70.889 317.461 71.843C317.946 72.7898 318.188 73.92 318.188 75.2337V86H313.498V76.0703C313.506 75.0355 313.242 74.2282 312.706 73.6484C312.17 73.0613 311.432 72.7678 310.493 72.7678C309.862 72.7678 309.304 72.9035 308.82 73.1751C308.343 73.4466 307.968 73.8429 307.697 74.364C307.433 74.8777 307.297 75.4979 307.29 76.2244ZM330.878 69.0909V72.6136H320.695V69.0909H330.878ZM323.007 65.0398H327.697V80.804C327.697 81.237 327.763 81.5746 327.895 81.8168C328.027 82.0516 328.21 82.2167 328.445 82.3121C328.687 82.4076 328.966 82.4553 329.282 82.4553C329.502 82.4553 329.722 82.4369 329.942 82.4002C330.163 82.3562 330.331 82.3232 330.449 82.3011L331.186 85.7908C330.951 85.8642 330.621 85.9486 330.196 86.044C329.77 86.1468 329.253 86.2092 328.643 86.2312C327.513 86.2752 326.522 86.1248 325.671 85.7798C324.827 85.4349 324.17 84.8991 323.701 84.1726C323.231 83.446 323 82.5286 323.007 81.4205V65.0398ZM341.457 86.3303C339.718 86.3303 338.221 85.978 336.966 85.2734C335.718 84.5616 334.757 83.5561 334.082 82.2571C333.406 80.9508 333.069 79.4059 333.069 77.6225C333.069 75.8832 333.406 74.3567 334.082 73.043C334.757 71.7293 335.707 70.7055 336.933 69.9716C338.166 69.2377 339.612 68.8707 341.27 68.8707C342.386 68.8707 343.424 69.0505 344.386 69.4102C345.354 69.7624 346.198 70.2945 346.918 71.0064C347.644 71.7183 348.209 72.6136 348.613 73.6925C349.016 74.764 349.218 76.0189 349.218 77.4574V78.7454H334.94V75.8391H344.804C344.804 75.1639 344.657 74.5658 344.364 74.0447C344.07 73.5237 343.663 73.1164 343.142 72.8228C342.628 72.5219 342.03 72.3714 341.347 72.3714C340.635 72.3714 340.004 72.5366 339.454 72.8668C338.911 73.1897 338.485 73.6264 338.177 74.1768C337.869 74.7199 337.711 75.3254 337.703 75.9933V78.7564C337.703 79.593 337.858 80.3159 338.166 80.9251C338.481 81.5342 338.925 82.0039 339.498 82.3342C340.07 82.6644 340.749 82.8295 341.534 82.8295C342.055 82.8295 342.532 82.7562 342.965 82.6094C343.398 82.4626 343.769 82.2424 344.077 81.9489C344.386 81.6553 344.62 81.2957 344.782 80.87L349.119 81.1562C348.899 82.1984 348.448 83.1084 347.765 83.8864C347.09 84.657 346.217 85.2588 345.145 85.6918C344.081 86.1174 342.852 86.3303 341.457 86.3303ZM352.279 86V69.0909H356.825V72.0412H357.001C357.31 70.9917 357.827 70.1991 358.554 69.6634C359.28 69.1203 360.117 68.8487 361.063 68.8487C361.298 68.8487 361.552 68.8634 361.823 68.8928C362.095 68.9221 362.333 68.9625 362.539 69.0138V73.1751C362.318 73.109 362.014 73.0503 361.625 72.9989C361.236 72.9476 360.88 72.9219 360.557 72.9219C359.867 72.9219 359.251 73.0723 358.708 73.3732C358.172 73.6668 357.746 74.0778 357.431 74.6062C357.122 75.1346 356.968 75.7437 356.968 76.4336V86H352.279ZM371.882 86.3303C370.143 86.3303 368.646 85.978 367.391 85.2734C366.143 84.5616 365.182 83.5561 364.506 82.2571C363.831 80.9508 363.494 79.4059 363.494 77.6225C363.494 75.8832 363.831 74.3567 364.506 73.043C365.182 71.7293 366.132 70.7055 367.358 69.9716C368.591 69.2377 370.036 68.8707 371.695 68.8707C372.81 68.8707 373.849 69.0505 374.81 69.4102C375.779 69.7624 376.623 70.2945 377.342 71.0064C378.069 71.7183 378.634 72.6136 379.038 73.6925C379.441 74.764 379.643 76.0189 379.643 77.4574V78.7454H365.365V75.8391H375.229C375.229 75.1639 375.082 74.5658 374.788 74.0447C374.495 73.5237 374.087 73.1164 373.566 72.8228C373.053 72.5219 372.455 72.3714 371.772 72.3714C371.06 72.3714 370.429 72.5366 369.879 72.8668C369.335 73.1897 368.91 73.6264 368.602 74.1768C368.293 74.7199 368.136 75.3254 368.128 75.9933V78.7564C368.128 79.593 368.282 80.3159 368.591 80.9251C368.906 81.5342 369.35 82.0039 369.923 82.3342C370.495 82.6644 371.174 82.8295 371.959 82.8295C372.48 82.8295 372.957 82.7562 373.39 82.6094C373.823 82.4626 374.194 82.2424 374.502 81.9489C374.81 81.6553 375.045 81.2957 375.207 80.87L379.544 81.1562C379.324 82.1984 378.873 83.1084 378.19 83.8864C377.515 84.657 376.641 85.2588 375.57 85.6918C374.506 86.1174 373.277 86.3303 371.882 86.3303ZM388.934 86.2752C387.65 86.2752 386.487 85.945 385.445 85.2844C384.41 84.6166 383.588 83.6368 382.979 82.3452C382.377 81.0462 382.076 79.4536 382.076 77.5675C382.076 75.63 382.388 74.0191 383.012 72.7347C383.636 71.4431 384.465 70.478 385.5 69.8395C386.542 69.1937 387.683 68.8707 388.923 68.8707C389.87 68.8707 390.659 69.0322 391.29 69.3551C391.929 69.6707 392.442 70.067 392.831 70.544C393.228 71.0137 393.529 71.4761 393.734 71.9311H393.877V63.4545H398.556V86H393.932V83.2919H393.734C393.514 83.7616 393.202 84.2276 392.798 84.69C392.402 85.145 391.885 85.523 391.246 85.8239C390.615 86.1248 389.844 86.2752 388.934 86.2752ZM390.42 82.5433C391.176 82.5433 391.815 82.3378 392.336 81.9268C392.864 81.5085 393.268 80.9251 393.547 80.1765C393.833 79.4279 393.976 78.5509 393.976 77.5455C393.976 76.54 393.837 75.6667 393.558 74.9254C393.279 74.1842 392.875 73.6117 392.347 73.2081C391.819 72.8045 391.176 72.6026 390.42 72.6026C389.65 72.6026 389 72.8118 388.472 73.2301C387.944 73.6484 387.544 74.2282 387.272 74.9695C387 75.7107 386.865 76.5694 386.865 77.5455C386.865 78.5289 387 79.3986 387.272 80.1545C387.551 80.9031 387.951 81.4902 388.472 81.9158C389 82.3342 389.65 82.5433 390.42 82.5433Z" fill="white"/>
<g clip-path="url(#clip0_1612_14994)">
<g clip-path="url(#clip1_1612_14994)">
<rect x="120" y="120" width="240" height="240" rx="8" fill="#F5F5F5"/>
<path d="M120 130H360" stroke="#D8D8D9" stroke-width="0.5"/>
<path d="M130 120V360" stroke="#D8D8D9" stroke-width="0.5"/>
<path d="M120 140H360" stroke="#D8D8D9" stroke-width="0.5"/>
<path d="M140 120V360" stroke="#D8D8D9" stroke-width="0.5"/>
<path d="M120 150H360" stroke="#D8D8D9" stroke-width="0.5"/>
<path d="M150 120V360" stroke="#D8D8D9" stroke-width="0.5"/>
<path d="M120 160H360" stroke="#D8D8D9" stroke-width="0.5"/>
<path d="M160 120V360" stroke="#D8D8D9" stroke-width="0.5"/>
<path d="M120 170H360" stroke="#D8D8D9" stroke-width="0.5"/>
<path d="M170 120V360" stroke="#D8D8D9" stroke-width="0.5"/>
<path d="M120 180H360" stroke="#D8D8D9" stroke-width="0.5"/>
<path d="M180 120V360" stroke="#D8D8D9" stroke-width="0.5"/>
<path d="M120 190H360" stroke="#D8D8D9" stroke-width="0.5"/>
<path d="M190 120V360" stroke="#D8D8D9" stroke-width="0.5"/>
<path d="M120 200H360" stroke="#D8D8D9" stroke-width="0.5"/>
<path d="M200 120V360" stroke="#D8D8D9" stroke-width="0.5"/>
<path d="M120 210H360" stroke="#D8D8D9" stroke-width="0.5"/>
<path d="M210 120V360" stroke="#D8D8D9" stroke-width="0.5"/>
<path d="M120 220H360" stroke="#D8D8D9" stroke-width="0.5"/>
<path d="M220 120V360" stroke="#D8D8D9" stroke-width="0.5"/>
<path d="M120 230H360" stroke="#D8D8D9" stroke-width="0.5"/>
<path d="M230 120V360" stroke="#D8D8D9" stroke-width="0.5"/>
<path d="M120 240H360" stroke="#D8D8D9" stroke-width="0.5"/>
<path d="M240 120V360" stroke="#D8D8D9" stroke-width="0.5"/>
<path d="M120 250H360" stroke="#D8D8D9" stroke-width="0.5"/>
<path d="M250 120V360" stroke="#D8D8D9" stroke-width="0.5"/>
<path d="M120 260H360" stroke="#D8D8D9" stroke-width="0.5"/>
<path d="M260 120V360" stroke="#D8D8D9" stroke-width="0.5"/>
<path d="M120 270H360" stroke="#D8D8D9" stroke-width="0.5"/>
<path d="M270 120V360" stroke="#D8D8D9" stroke-width="0.5"/>
<path d="M120 280H360" stroke="#D8D8D9" stroke-width="0.5"/>
<path d="M280 120V360" stroke="#D8D8D9" stroke-width="0.5"/>
<path d="M120 290H360" stroke="#D8D8D9" stroke-width="0.5"/>
<path d="M290 120V360" stroke="#D8D8D9" stroke-width="0.5"/>
<path d="M120 300H360" stroke="#D8D8D9" stroke-width="0.5"/>
<path d="M300 120V360" stroke="#D8D8D9" stroke-width="0.5"/>
<path d="M120 310H360" stroke="#D8D8D9" stroke-width="0.5"/>
<path d="M310 120V360" stroke="#D8D8D9" stroke-width="0.5"/>
<path d="M120 320H360" stroke="#D8D8D9" stroke-width="0.5"/>
<path d="M320 120V360" stroke="#D8D8D9" stroke-width="0.5"/>
<path d="M120 330H360" stroke="#D8D8D9" stroke-width="0.5"/>
<path d="M330 120V360" stroke="#D8D8D9" stroke-width="0.5"/>
<path d="M120 340H360" stroke="#D8D8D9" stroke-width="0.5"/>
<path d="M340 120V360" stroke="#D8D8D9" stroke-width="0.5"/>
<path d="M120 350H360" stroke="#D8D8D9" stroke-width="0.5"/>
<path d="M350 120V360" stroke="#D8D8D9" stroke-width="0.5"/>
</g>
<g id="embed-lucide-mouse-pointer-2" stroke="#3C3C43" stroke-width="2" stroke-linecap="round" stroke-linejoin="round" transform="translate(110 110), scale(10)">
  <path d="M4.037 4.688a.495.495 0 0 1 .651-.651l16 6.5a.5.5 0 0 1-.063.947l-6.124 1.58a2 2 0 0 0-1.438 1.435l-1.579 6.126a.5.5 0 0 1-.947.063z" />
</g>
<path opacity="0.5" d="M240 120V360M360 240H120" stroke="#F56565" stroke-dasharray="1 1"/>
</g>
<defs>
<clipPath id="clip0_1612_14994">
<rect width="240" height="240" fill="white" transform="translate(120 120)"/>
</clipPath>
<clipPath id="clip1_1612_14994">
<rect x="120" y="120" width="240" height="240" rx="8" fill="white"/>
</clipPath>
</defs>
</svg>
