<svg fill="none" height="32" viewBox="0 0 32 32" width="32" xmlns="http://www.w3.org/2000/svg"><path clip-rule="evenodd" d="m18.3972 18.6046c-.7793.625-1.7687.9988-2.8455.9988-2.5138 0-4.5517-2.0378-4.5517-4.5517 0-2.5138 2.0379-4.5517 4.5517-4.5517 2.5139 0 4.5517 2.0379 4.5517 4.5517 0 1.0769-.3739 2.0664-.999 2.8458l3.2491 3.2492-.7071.7071zm.7062-3.5529c0 1.9616-1.5901 3.5517-3.5517 3.5517-1.9615 0-3.5517-1.5901-3.5517-3.5517 0-1.9615 1.5902-3.5517 3.5517-3.5517 1.9616 0 3.5517 1.5902 3.5517 3.5517z" fill="#000" fill-rule="evenodd"/></svg>