<svg width="22" height="22" viewBox="0 0 22 22" fill="none" xmlns="http://www.w3.org/2000/svg">
  <path d="M8.9587 3.95689C9.10594 3.95689 9.2236 4.04014 9.28622 4.17569C9.33026 4.27065 9.34952 4.39106 9.3509 4.54312V15.3954C9.35021 15.5963 9.32888 15.7532 9.28278 15.8716C9.21879 16.036 9.097 16.142 8.93117 16.144H8.92498L7.67338 16.1427C7.50411 16.1427 7.38232 16.0346 7.31971 15.8674C7.27567 15.7498 7.25572 15.5943 7.25503 15.394V6.33143L6.91787 6.41675L6.7837 6.45046L6.74448 6.4601L6.72452 6.46491L6.71489 6.46698L6.71145 6.46767H6.70732L6.70938 6.4656C6.71007 6.46491 6.71076 6.46423 6.70938 6.46354H6.70457C6.56283 6.46904 6.44448 6.39267 6.3798 6.26262C6.3337 6.16973 6.31374 6.05069 6.31306 5.90069V5.10184C6.31306 4.96079 6.33576 4.84312 6.38737 4.74679C6.44585 4.6367 6.53943 4.56101 6.65778 4.53074L6.66466 4.52868L6.67292 4.52661L8.83691 3.96996C8.86787 3.96239 8.90159 3.95826 8.93874 3.95689H8.9587ZM12.5718 3.63762C12.7266 3.63762 12.8504 3.72432 12.9179 3.86744C12.9667 3.97065 12.9887 4.10413 12.9894 4.27202V7.47707H13.9204C14.0663 7.47707 14.1867 7.55276 14.2576 7.68074L14.261 7.68693L14.2644 7.69313C14.3153 7.7929 14.3381 7.92088 14.3387 8.07982V8.53326C14.3387 8.69565 14.316 8.82501 14.2631 8.92615C14.1942 9.05826 14.0738 9.13601 13.9273 9.13808H12.9881V13.3814L12.9887 13.4138L12.9894 13.4454V13.4612L12.9901 13.5005L12.9915 13.539L12.9929 13.5768L12.9956 13.6147L12.9963 13.6291L12.9977 13.658L12.9998 13.6862L13.0018 13.7138L13.0039 13.7413L13.0053 13.7551L13.0073 13.7819L13.0087 13.795L13.0101 13.808L13.0128 13.8342C13.0135 13.8424 13.0149 13.8514 13.0156 13.8596L13.017 13.872L13.0197 13.8968C13.0259 13.9484 13.0335 13.9966 13.0417 14.042L13.0445 14.0571L13.0465 14.0674L13.0507 14.0874L13.0548 14.1067L13.0569 14.1163L13.061 14.1349L13.0651 14.1528L13.0672 14.1617L13.0713 14.1789C13.0768 14.2009 13.083 14.2223 13.0892 14.2422L13.0947 14.2587C13.1209 14.3385 13.1504 14.3977 13.1814 14.4356C13.2392 14.5071 13.2901 14.5498 13.3293 14.567L13.341 14.5718C13.3871 14.5904 13.4518 14.6007 13.5344 14.6014H14.1241C14.2631 14.6014 14.3835 14.6564 14.4619 14.7651C14.5273 14.8553 14.5562 14.9702 14.5576 15.1071V15.608C14.5576 15.7601 14.528 15.8853 14.4592 15.9823C14.3793 16.0959 14.2569 16.1551 14.1151 16.1564H14.1076L13.2736 16.1578C13.0424 16.1578 12.8408 16.1413 12.6653 16.1083C12.4775 16.0732 12.2869 15.9947 12.0908 15.8757C11.8864 15.7512 11.7192 15.5812 11.5892 15.3665C11.4626 15.158 11.3635 14.8766 11.2892 14.5216C11.2163 14.1762 11.1798 13.7729 11.1784 13.314V9.13808H10.7938C10.6486 9.13808 10.5289 9.06445 10.458 8.93785L10.4546 8.93166L10.4511 8.92546C10.3995 8.82638 10.3768 8.70046 10.3754 8.54358V8.09014C10.3754 7.92569 10.3981 7.79427 10.4504 7.69244C10.5192 7.55826 10.6397 7.47845 10.7869 7.47638H11.1784V7.464L11.3264 4.2734L11.327 4.25895C11.3374 4.09381 11.3642 3.96446 11.4131 3.86468C11.4805 3.72638 11.5968 3.63968 11.7447 3.63693H12.5718V3.63762ZM19.4546 7.47432C19.5922 7.47432 19.6988 7.55551 19.7546 7.68143C19.7917 7.76675 19.8076 7.8734 19.8076 8.00689V8.02959L19.8069 8.04542L19.8062 8.05368L19.8055 8.07019L19.8048 8.07845L19.8034 8.09565C19.802 8.1101 19.8007 8.12455 19.7993 8.14037L19.7979 8.15207L19.7959 8.17202L19.7931 8.19267L19.7903 8.214L19.7883 8.23051L18.3289 15.8275L18.3254 15.8461L18.3179 15.886L18.3103 15.9252L18.2993 15.983L18.2917 16.0216L18.2807 16.078L18.2731 16.1151L18.2656 16.1523L18.258 16.1888L18.2504 16.2252L18.2429 16.261L18.2312 16.314L18.2236 16.3491L18.216 16.3835L18.2085 16.4179L18.2009 16.4516L18.1933 16.4853L18.1851 16.5184L18.1768 16.5507L18.1686 16.583L18.1603 16.6147L18.152 16.6463L18.1438 16.6773L18.1355 16.7083L18.1273 16.7385L18.119 16.7688L18.1108 16.7984L18.1025 16.828L18.0942 16.8569L18.086 16.8851L18.0777 16.9133L18.0695 16.9408L18.0612 16.9684L18.053 16.9952L18.0447 17.022L18.0365 17.0482L18.0275 17.0743L18.0234 17.0874L18.0144 17.1128L18.0103 17.1252L18.0062 17.1376L17.9952 17.1679L17.9842 17.1982L17.98 17.2099L17.9711 17.2333L17.9621 17.256C17.958 17.2663 17.9539 17.2759 17.9504 17.2862L17.9401 17.3117L17.9291 17.3378C17.9098 17.3833 17.8906 17.4266 17.8706 17.4686L17.8624 17.4865L17.8507 17.5099L17.839 17.5333C17.7124 17.7851 17.5699 17.9688 17.4069 18.0837C17.2032 18.2282 16.9438 18.3025 16.63 18.3115L16.6163 18.3122H16.5296C16.0376 18.3122 15.6784 18.1773 15.4713 17.8917L15.4651 17.8828L15.4596 17.8752L15.4569 17.8718C15.3977 17.7968 15.3688 17.6936 15.3571 17.5498L15.3564 17.5401L15.355 17.5216L15.3543 17.5119L15.3537 17.5023L15.353 17.483L15.3523 17.4734L15.3516 17.4638L15.3509 17.4383L15.3502 17.4122V17.2917L15.3509 17.267L15.3516 17.2546L15.3523 17.2422L15.353 17.2181L15.3543 17.1947L15.3557 17.1713C15.3564 17.1638 15.3564 17.1562 15.3571 17.1486L15.3578 17.1376L15.3598 17.1156L15.3619 17.0943C15.3715 16.9986 15.3874 16.9174 15.4094 16.8493C15.4665 16.6718 15.5807 16.5528 15.7527 16.55H15.7713L15.7768 16.5507L15.783 16.5514L15.7913 16.5528L15.8002 16.5541L15.8119 16.5562L15.8229 16.5583L15.8326 16.5603L15.8518 16.5651L15.878 16.572L15.9131 16.5817L15.9495 16.592L15.9984 16.6064L16.1147 16.6408L16.1477 16.6512L16.1773 16.6601L16.2055 16.6684L16.2323 16.6759L16.2578 16.6828L16.2757 16.6876L16.2929 16.6917L16.3142 16.6973L16.3335 16.7021L16.3472 16.7055L16.3596 16.7083L16.3713 16.711L16.3851 16.7138L16.394 16.7151L16.4016 16.7165L16.4064 16.7172L16.4105 16.7179H16.4181C16.4202 16.7179 16.4209 16.7179 16.4236 16.7165C16.4298 16.7138 16.4381 16.7083 16.4477 16.6986C16.4793 16.669 16.5151 16.6147 16.5509 16.5356C16.5963 16.4351 16.6293 16.3057 16.6493 16.1475L16.6507 16.1337L16.6534 16.1103L16.6562 16.0862L16.6576 16.0739L16.6589 16.0615L16.661 16.0367C16.6679 15.9548 16.6713 15.8661 16.672 15.7711V15.7388L16.6713 15.7298L16.6699 15.7161L16.6679 15.7002L16.6658 15.6823L16.6644 15.6727L16.661 15.6514L16.6576 15.628L16.652 15.5956L16.6459 15.5599L16.639 15.5206L16.6314 15.4787L16.6211 15.4236L16.6101 15.3645L16.5956 15.2895L16.577 15.1959L16.5592 15.1078L16.5371 14.9998L16.5137 14.8869L14.9064 8.20505L14.9037 8.1851L14.9009 8.16583L14.8988 8.14725L14.8968 8.12936L14.894 8.10803L14.892 8.08808L14.8913 8.08051L14.8899 8.06537L14.8885 8.05092L14.8878 8.04404L14.8871 8.03028L14.8865 8.01652V7.97248C14.8871 7.85413 14.9016 7.75849 14.9339 7.68074C14.9842 7.55964 15.0846 7.47845 15.2167 7.47569H16.2144C16.3472 7.47569 16.4649 7.52455 16.5557 7.61812C16.6397 7.70413 16.6892 7.83418 16.7215 8.01583L16.7236 8.02615L16.7264 8.04404L17.5988 12.661L18.28 8.07638L18.2814 8.06744C18.3062 7.88372 18.3481 7.74748 18.4176 7.65322L18.4218 7.64771L18.4259 7.64221C18.5098 7.53556 18.6282 7.47638 18.7624 7.47432H19.4546ZM4.8392 3.97065C4.98645 3.97065 5.10411 4.0539 5.16672 4.18946C5.21076 4.28441 5.23003 4.40482 5.2314 4.55689V15.3961C5.2314 15.6032 5.21076 15.7642 5.16328 15.8853C5.09929 16.0498 4.9775 16.1557 4.81168 16.1578H3.5525C3.38324 16.1578 3.26145 16.0498 3.19883 15.8826C3.1548 15.7649 3.13484 15.6094 3.13416 15.4092V6.34657L2.89264 6.4078L2.70205 6.45528L2.65663 6.46629L2.63668 6.47111L2.62154 6.47455L2.6126 6.47592H2.60572L2.59746 6.47661C2.44952 6.48693 2.32636 6.41056 2.25961 6.27638C2.21351 6.18349 2.19356 6.06514 2.19287 5.91445V5.11698C2.19287 4.97592 2.21558 4.85826 2.26718 4.76193C2.32567 4.65184 2.41925 4.57615 2.5376 4.54588L2.54448 4.54381L2.55273 4.54175L4.7181 3.98303C4.74906 3.97546 4.78278 3.97134 4.81993 3.96996H4.8392V3.97065Z" fill="black"/>
</svg>
