<?xml version="1.0" encoding="utf-8"?>
<svg width="30" height="30" viewBox="0 0 400 400" fill="none" xmlns="http://www.w3.org/2000/svg">
  <rect width="400" height="400" fill="#F6F7FF"/>
  <path d="M222.131 112.458L237.41 66.8783H290.403L275.043 112.458H222.131Z" fill="#14FFAF"/>
  <path fill-rule="evenodd" clip-rule="evenodd" d="M158.026 174.716C172.966 162.84 191.165 155.37 211.659 155.37C253.609 155.37 294.409 182.196 294.409 250.953V336H240.776V250.953C240.776 215.516 223.929 202.107 200.933 202.107C181.969 202.107 168.181 213.026 160.516 224.517V336H106.692V115.336H74L91.2077 64H158.026V174.716ZM272.988 109.567L286.407 69.7565H239.485L226.132 109.567H272.988ZM235.338 64H294.409L277.112 115.336H218.13L235.338 64Z" fill="#0A23B9"/>
</svg>
