<svg width="340" height="340" viewBox="0 0 340 340" fill="none" xmlns="http://www.w3.org/2000/svg">
  <path d="M192.131 82.458L207.41 36.8783H260.403L245.043 82.458H192.131Z" fill="#0A23B9"/>
  <path fill-rule="evenodd" clip-rule="evenodd" d="M128.026 144.716C142.966 132.84 161.165 125.37 181.659 125.37C223.609 125.37 264.409 152.196 264.409 220.953V306H210.776V220.953C210.776 185.516 193.929 172.107 170.933 172.107C151.969 172.107 138.181 183.026 130.516 194.517V306H76.692V85.336H44L61.2077 34H128.026V144.716ZM242.988 79.567L256.407 39.7565H209.485L196.132 79.567H242.988ZM205.338 34H264.409L247.112 85.336H188.13L205.338 34Z" fill="#14FFAF"/>
</svg>
