<svg width="30" height="36" viewBox="0 0 20 24" fill="none" xmlns="http://www.w3.org/2000/svg">
  <path d="m10 0 10 5.77v11.55l-10 5.77-10-5.77V5.77L10 0Z" fill="#673AB8"/>
  <path d="M2.72 17.22c1.33 1.7 5.56.41 9.55-2.7 3.99-3.12 6.27-6.9 4.94-8.61-1.33-1.7-5.56-.4-9.55 2.71-3.99 3.12-6.27 6.9-4.94 8.6Zm.57-.44c-.44-.56-.25-1.67.6-3.07A17.8 17.8 0 0 1 8.1 9.2a17.8 17.8 0 0 1 5.41-3c1.56-.48 2.68-.4 3.12.16.44.57.25 1.68-.6 3.07a17.8 17.8 0 0 1-4.22 4.53 17.8 17.8 0 0 1-5.4 3c-1.57.48-2.69.4-3.13-.17Z" fill="#fff"/>
  <path d="M17.2 17.22c1.34-1.7-.94-5.48-4.93-8.6-4-3.12-8.22-4.41-9.55-2.71-1.33 1.7.95 5.49 4.94 8.6 4 3.12 8.22 4.42 9.55 2.71Zm-.56-.44c-.44.57-1.56.65-3.12.17a17.8 17.8 0 0 1-5.41-3 17.8 17.8 0 0 1-4.23-4.53c-.84-1.4-1.03-2.5-.59-3.07.44-.56 1.56-.64 3.12-.16a17.8 17.8 0 0 1 5.41 3 17.8 17.8 0 0 1 4.23 4.52c.84 1.4 1.03 2.5.59 3.07Z" fill="#fff"/>
  <path d="M9.96 13.1a1.53 1.53 0 1 0 0-3.06 1.53 1.53 0 0 0 0 3.06Z" fill="#fff"/>
</svg>
