<?xml version="1.0" encoding="UTF-8"?>
<!-- Uploaded to: SVG Repo, www.svgrepo.com, Generator: SVG Repo Mixer Tools -->
<svg width="800px" height="800px" viewBox="0 -166 512 512" version="1.1" xmlns="http://www.w3.org/2000/svg" xmlns:xlink="http://www.w3.org/1999/xlink" preserveAspectRatio="xMidYMid">
	<g fill="#CC0000">
		<path d="M219.115365,150.633753 C219.115365,150.633753 241.684635,148.699244 241.684635,119.552645 C241.684635,90.4060453 214.343577,87.697733 214.343577,87.697733 L165.078086,87.697733 L165.078086,179.651385 L189.839798,179.651385 L189.839798,157.469018 L211.248363,179.651385 L247.875063,179.651385 L219.115365,150.633753 Z M209.571788,131.804534 L189.839798,131.804534 L189.839798,110.782872 L209.700756,110.782872 C209.700756,110.782872 215.246348,112.846348 215.246348,121.229219 C215.246348,129.612091 209.571788,131.804534 209.571788,131.804534 Z M302.815113,88.3425693 L277.666499,88.3425693 C259.74005,88.3425693 253.678589,104.592443 253.678589,112.330479 L253.678589,179.651385 L278.827204,179.651385 L278.827204,163.530479 L302.428212,163.530479 L302.428212,179.651385 L326.803023,179.651385 L326.803023,112.330479 C326.803023,92.7274559 309.005542,88.3425693 302.815113,88.3425693 Z M302.428212,137.479093 L278.698237,137.479093 L278.698237,115.167758 C278.698237,115.167758 278.698237,110.138035 286.565239,110.138035 L295.206045,110.138035 C302.170277,110.138035 302.299244,115.167758 302.299244,115.167758 L302.299244,137.479093 L302.428212,137.479093 Z M338.281108,88.3425693 L364.461461,88.3425693 L364.461461,179.651385 L338.281108,179.651385 L338.281108,88.3425693 Z M401.217128,156.050378 L401.217128,88.3425693 L375.165743,88.3425693 L375.165743,156.050378 L375.165743,179.651385 L401.217128,179.651385 L436.425189,179.651385 L436.425189,156.050378 L401.217128,156.050378 Z M445.065995,156.308312 L445.065995,179.651385 L487.238287,179.651385 C495.879093,179.651385 510.710327,173.33199 511.226196,155.663476 L511.226196,146.635768 C511.226196,131.546599 498.84534,122.647859 487.238287,122.647859 L466.216625,122.647859 L466.216625,111.81461 L507.873048,111.81461 L507.873048,88.3425693 L467.893199,88.3425693 C457.575819,88.3425693 443.776322,96.8544081 443.776322,112.71738 L443.776322,120.842317 C443.776322,136.70529 457.446851,144.830227 467.893199,144.830227 C496.910831,144.959194 460.928967,144.830227 487.754156,144.830227 L487.754156,156.179345 L445.065995,156.308312 Z">
</path>
		<path d="M9.02770781,179.522418 L110.911839,179.522418 C110.911839,179.522418 91.4377834,90.6639798 155.921411,54.6821159 C169.978841,47.8468514 214.730479,22.311335 287.983879,76.4775819 C290.30529,74.543073 292.497733,72.995466 292.497733,72.995466 C292.497733,72.995466 225.434761,6.06146096 150.76272,13.5415617 C113.233249,16.8947103 67.0629723,51.0710327 39.9798489,96.2095718 C12.8967254,141.348111 9.02770781,179.522418 9.02770781,179.522418 Z M221.307809,20.763728 L221.823678,12.1229219 C220.662972,11.4780856 217.438791,9.93047859 209.313854,7.60906801 L208.797985,16.1209068 C213.053904,17.5395466 217.180856,19.0871537 221.307809,20.763728 Z M209.055919,48.1047859 L208.54005,56.2297229 C212.79597,56.3586902 217.051889,56.8745592 221.307809,57.77733 L221.823678,49.7813602 C217.438791,48.8785894 213.182872,48.3627204 209.055919,48.1047859 Z M161.338035,7.86700252 L162.627708,7.86700252 L160.048363,-7.10542736e-15 C156.050378,-7.10542736e-15 151.923426,0.257934509 147.667506,0.773803526 L150.117884,8.38287154 C153.857935,7.99596977 157.597985,7.86700252 161.338035,7.86700252 Z M167.528463,55.3269521 L170.49471,64.2256927 C174.234761,62.4201511 177.974811,60.8725441 181.714861,59.7118388 L178.877582,51.2 C174.492695,52.4896725 170.752645,53.9083123 167.528463,55.3269521 Z M108.97733,21.4085642 L103.173804,12.5098237 C99.9496222,14.186398 96.5964736,15.9919395 93.1143577,18.0554156 L99.0468514,27.0831234 C102.4,25.0196474 105.624181,23.0851385 108.97733,21.4085642 Z M135.415617,79.4438287 L141.606045,88.729471 C143.798489,85.5052897 146.377834,82.5390428 149.215113,79.572796 L143.411587,70.8030227 C140.44534,73.511335 137.737028,76.4775819 135.415617,79.4438287 Z M116.715365,120.971285 L127.161713,129.225189 C127.677582,124.195466 128.580353,119.165743 129.870025,114.13602 L120.584383,106.784887 C118.907809,111.556675 117.747103,116.328463 116.715365,120.971285 Z M60.2277078,59.7118388 L51.0710327,51.715869 C47.7178841,54.9400504 44.4937028,58.1642317 41.5274559,61.3884131 L51.4579345,69.9002519 C54.1662469,66.418136 57.1324937,62.9360202 60.2277078,59.7118388 Z M21.279597,117.360202 L6.44836272,111.943577 C3.99798489,117.489169 1.28967254,123.937531 0,127.419647 L14.8312343,132.836272 C16.5078086,128.451385 19.2161209,122.13199 21.279597,117.360202 Z M114.780856,153.728967 C115.038791,160.564232 115.683627,166.109824 116.328463,169.978841 L131.804534,175.524433 C130.643829,170.49471 129.483123,164.820151 128.70932,158.75869 L114.780856,153.728967 Z">
</path>
	</g>
</svg>