<svg width="200" height="200" fill="none" xmlns="http://www.w3.org/2000/svg">
  <path d="M150 50.74a99.14 99.14 0 0 0-5-1.57c.28-1.14.54-2.27.78-3.41 3.78-18.35 1.3-33.14-7.14-38-8.09-4.67-21.33.19-34.7 11.83-1.32 1.15-2.6 2.33-3.87 3.55-.84-.81-1.7-1.6-2.57-2.38C83.49 8.3 69.44 3.06 61 7.99c-8.09 4.68-10.48 18.58-7.08 36 .34 1.73.73 3.44 1.15 5.15-2 .56-3.92 1.16-5.75 1.8-16.43 5.73-26.92 14.7-26.92 24 0 9.62 11.26 19.27 28.38 25.12 1.38.47 2.78.9 4.2 1.3-.46 1.85-.87 3.7-1.22 5.55-3.25 17.1-.71 30.67 7.36 35.33 8.33 4.8 22.31-.14 35.93-12a76.4 76.4 0 0 0 3.23-3c1.37 1.32 2.77 2.59 4.2 3.83 13.18 11.35 26.21 15.93 34.27 11.26 8.33-4.81 11-19.4 7.52-37.14-.27-1.36-.59-2.74-.93-4.15 1-.3 2-.6 2.88-.9C166 94.19 177.6 84.66 177.6 74.9c0-9.36-10.83-18.4-27.6-24.17Zm-41.71-26.15c11.46-10 22.17-13.91 27-11.1 5.2 3 7.22 15.09 4 30.94-.21 1-.45 2.06-.7 3.08a160.1 160.1 0 0 0-20.75-3.27 157.2 157.2 0 0 0-13.11-16.38 92.18 92.18 0 0 1 3.56-3.27ZM68.23 82.85a217.96 217.96 0 0 0 9.28 16c-4.8-.53-9.58-1.3-14.31-2.3a149.9 149.9 0 0 1 5.03-13.7Zm0-15.6a148.6 148.6 0 0 1-4.93-13.42c4.43-1 9.15-1.8 14.07-2.41a200.55 200.55 0 0 0-9.15 15.84h.01Zm3.53 7.8a186.5 186.5 0 0 1 14.13-24.51c9.4-.73 18.85-.74 28.26-.01a202.4 202.4 0 0 1 14.18 24.46 209.24 209.24 0 0 1-14.12 24.56c-9.4.65-18.82.67-28.21.05a190.84 190.84 0 0 1-14.25-24.54h.01Zm55.64 15.78c1.56-2.71 3.06-5.45 4.5-8.22a135.5 135.5 0 0 1 5.21 13.65 138.8 138.8 0 0 1-14.47 2.47c1.64-2.6 3.23-5.23 4.76-7.9Zm4.44-23.57a243.43 243.43 0 0 0-4.47-8.07 196.38 196.38 0 0 0-4.72-7.76c4.95.63 9.7 1.46 14.15 2.48a140.95 140.95 0 0 1-4.96 13.35ZM100.08 32.6c3.23 3.5 6.28 7.18 9.13 11-6.12-.28-12.24-.28-18.35 0a169.9 169.9 0 0 1 9.22-11ZM64.33 13.68c5.19-3 16.67 1.28 28.77 12 .77.69 1.55 1.4 2.33 2.15a159.75 159.75 0 0 0-13.22 16.39c-6.96.63-13.88 1.7-20.71 3.22-.39-1.58-.75-3.18-1.07-4.78-2.91-14.91-.98-26.15 3.9-28.98Zm-7.56 81.25c-1.3-.36-2.57-.76-3.84-1.2-7.56-2.6-13.81-5.95-18.1-9.61C31 80.82 29 77.55 29 74.89c0-5.65 8.46-12.9 22.51-17.76a94.2 94.2 0 0 1 5.34-1.68c2.09 6.7 4.61 13.24 7.56 19.6a163.27 163.27 0 0 0-7.64 19.88Zm35.92 30.22c-6 5.27-12 9-17.37 10.88-4.78 1.69-8.58 1.73-10.88.4-4.9-2.81-6.93-13.72-4.16-28.34.33-1.73.71-3.44 1.14-5.15a155.3 155.3 0 0 0 20.91 3 160.95 160.95 0 0 0 13.32 16.46c-.97.96-1.95 1.88-2.96 2.75Zm7.57-7.5a148.7 148.7 0 0 1-9.34-11.16c6.15.24 12.3.22 18.45-.04-2.84 3.9-5.88 7.63-9.11 11.2Zm40.26 9.23c-.92 5-2.79 8.3-5.08 9.64-4.89 2.83-15.35-.85-26.63-10.56-1.3-1.1-2.6-2.3-3.9-3.56 4.7-5.2 9.04-10.73 13-16.52 7.07-.6 14.08-1.68 21-3.24.31 1.28.59 2.53.83 3.76 1.59 7.85 1.81 14.94.78 20.48Zm5.63-33.11c-.85.28-1.72.56-2.61.82a155.03 155.03 0 0 0-7.85-19.66 155.7 155.7 0 0 0 7.55-19.38c1.59.46 3.12.95 4.61 1.46C162.22 61.99 171 69.26 171 74.89c0 6-9.49 13.8-24.85 18.88Z" fill="#54C1DE"/>
  <path d="M100 88.76a13.86 13.86 0 1 0 .02-27.72 13.86 13.86 0 0 0-.02 27.72Z" fill="#54C1DE"/>
  <path d="M50 158v36.96h-5.69l-20.48-25V195H17v-37h5.67l20.48 25.03V158H50Z" fill="#54C1DE"/>
  <path d="M83 178.02v16.62h-6.31v-3.45c-1.62 2.43-4.71 3.81-9.02 3.81-6.53 0-10.67-3.64-10.67-8.5 0-4.84 3.22-8.43 11.9-8.43h7.37v-.42c0-3.86-2.36-6.15-7.13-6.15a14.4 14.4 0 0 0-8.68 2.8l-2.61-4.79a20.39 20.39 0 0 1 12.12-3.5c8.28-.03 13.03 3.85 13.03 12Zm-6.68 7.74v-3.3H69.4c-4.54 0-5.78 1.72-5.78 3.78 0 2.38 2.03 3.91 5.52 3.91a7.3 7.3 0 0 0 7.18-4.39Z" fill="#54C1DE"/>
  <path d="M108 193.17a10.65 10.65 0 0 1-6.42 1.82c-6.28 0-9.87-3.28-9.87-9.56v-13.65H87v-5.3h4.71V160h6.7v6.48h7.62v5.3h-7.67v13.5c0 2.76 1.4 4.26 3.97 4.26 1.32.01 2.61-.4 3.68-1.17l1.99 4.8Z" fill="#54C1DE"/>
  <path d="M112 158a3.85 3.85 0 0 1 1.35-2.9 4.33 4.33 0 0 1 3.16-1.09 4.42 4.42 0 0 1 3.12 1 3.75 3.75 0 0 1 1.37 2.82 4.14 4.14 0 0 1-1.36 2.86 4.68 4.68 0 0 1-6.17.11A4.16 4.16 0 0 1 112 158Zm.95 8.66h7.04V195h-7.04v-28.34Z" fill="#54C1DE"/>
  <path d="m155 167-12.12 28h-6.83L124 167h6.89l8.77 20.76 9.09-20.76H155Z" fill="#54C1DE"/>
  <path d="M183.99 182.6h-21.5c.76 4.13 4.1 6.78 8.81 6.78a9.55 9.55 0 0 0 7.44-3.07l3.43 4.07a13.88 13.88 0 0 1-5.01 3.58 13.5 13.5 0 0 1-6.02 1.01c-9.18 0-15.13-6.06-15.13-14.52a14.45 14.45 0 0 1 4.02-10.36A13.28 13.28 0 0 1 170.1 166c8 0 13.84 5.75 13.84 14.53.05.69.06 1.38.04 2.07Zm-21.55-4.39H178a7.78 7.78 0 0 0-2.56-5.02 7.34 7.34 0 0 0-5.2-1.86c-1.9-.07-3.75.6-5.2 1.87a7.9 7.9 0 0 0-2.6 5.01Z" fill="#54C1DE"/>
</svg>
