<svg width="1493" height="438" viewBox="0 0 1493 438" fill="none" xmlns="http://www.w3.org/2000/svg">
<path d="M19.92 233V65H92.64C107.68 65 120.64 67.48 131.52 72.44C142.4 77.24 150.8 84.2 156.72 93.32C162.64 102.44 165.6 113.32 165.6 125.96C165.6 138.44 162.64 149.24 156.72 158.36C150.8 167.32 142.4 174.2 131.52 179C120.64 183.8 107.68 186.2 92.64 186.2H41.52L58.8 169.16V233H19.92ZM126.72 233L84.72 172.04H126.24L168.72 233H126.72ZM58.8 173.48L41.52 155.24H90.48C102.48 155.24 111.44 152.68 117.36 147.56C123.28 142.28 126.24 135.08 126.24 125.96C126.24 116.68 123.28 109.48 117.36 104.36C111.44 99.24 102.48 96.68 90.48 96.68H41.52L58.8 78.2V173.48ZM257.844 234.92C243.124 234.92 230.164 232.04 218.964 226.28C207.924 220.52 199.364 212.68 193.284 202.76C187.204 192.68 184.164 181.24 184.164 168.44C184.164 155.48 187.124 144.04 193.044 134.12C199.124 124.04 207.364 116.2 217.764 110.6C228.164 104.84 239.924 101.96 253.044 101.96C265.684 101.96 277.044 104.68 287.124 110.12C297.364 115.4 305.444 123.08 311.364 133.16C317.284 143.08 320.244 155 320.244 168.92C320.244 170.36 320.164 172.04 320.004 173.96C319.844 175.72 319.684 177.4 319.524 179H214.644V157.16H299.844L285.444 163.64C285.444 156.92 284.084 151.08 281.364 146.12C278.644 141.16 274.884 137.32 270.084 134.6C265.284 131.72 259.684 130.28 253.284 130.28C246.884 130.28 241.204 131.72 236.244 134.6C231.444 137.32 227.684 141.24 224.964 146.36C222.244 151.32 220.884 157.24 220.884 164.12V169.88C220.884 176.92 222.404 183.16 225.444 188.6C228.644 193.88 233.044 197.96 238.644 200.84C244.404 203.56 251.124 204.92 258.804 204.92C265.684 204.92 271.684 203.88 276.804 201.8C282.084 199.72 286.884 196.6 291.204 192.44L311.124 214.04C305.204 220.76 297.764 225.96 288.804 229.64C279.844 233.16 269.524 234.92 257.844 234.92Z" fill="#0095FF"/>
<path d="M430.611 233V205.16L429.891 200.6V154.04C429.891 143.32 426.851 135.08 420.771 129.32C414.851 123.56 405.971 120.68 394.131 120.68C385.971 120.68 378.211 122.04 370.851 124.76C363.491 127.48 357.251 131.08 352.131 135.56L344.451 122.84C350.851 117.4 358.531 113.24 367.491 110.36C376.451 107.32 385.891 105.8 395.811 105.8C412.131 105.8 424.691 109.88 433.491 118.04C442.451 126.04 446.931 138.28 446.931 154.76V233H430.611ZM387.171 234.2C377.731 234.2 369.491 232.68 362.451 229.64C355.571 226.44 350.291 222.12 346.611 216.68C342.931 211.08 341.091 204.68 341.091 197.48C341.091 190.92 342.611 185 345.651 179.72C348.851 174.28 353.971 169.96 361.011 166.76C368.211 163.4 377.811 161.72 389.811 161.72H433.251V174.44H390.291C378.131 174.44 369.651 176.6 364.851 180.92C360.211 185.24 357.891 190.6 357.891 197C357.891 204.2 360.691 209.96 366.291 214.28C371.891 218.6 379.731 220.76 389.811 220.76C399.411 220.76 407.651 218.6 414.531 214.28C421.571 209.8 426.691 203.4 429.891 195.08L433.731 206.84C430.531 215.16 424.931 221.8 416.931 226.76C409.091 231.72 399.171 234.2 387.171 234.2ZM557.533 105.8C567.773 105.8 576.733 107.8 584.413 111.8C592.253 115.64 598.333 121.56 602.653 129.56C607.133 137.56 609.373 147.64 609.373 159.8V233H592.333V161.48C592.333 148.2 588.973 138.2 582.253 131.48C575.693 124.6 566.413 121.16 554.413 121.16C545.453 121.16 537.613 123 530.893 126.68C524.333 130.2 519.213 135.4 515.533 142.28C512.013 149 510.253 157.16 510.253 166.76V233H493.213V107H509.533V141.56L506.893 135.08C510.893 125.96 517.293 118.84 526.093 113.72C534.893 108.44 545.373 105.8 557.533 105.8ZM655.401 233V107H672.441V233H655.401ZM664.041 79.16C660.521 79.16 657.561 77.96 655.161 75.56C652.761 73.16 651.561 70.28 651.561 66.92C651.561 63.56 652.761 60.76 655.161 58.52C657.561 56.12 660.521 54.92 664.041 54.92C667.561 54.92 670.521 56.04 672.921 58.28C675.321 60.52 676.521 63.32 676.521 66.68C676.521 70.2 675.321 73.16 672.921 75.56C670.681 77.96 667.721 79.16 664.041 79.16ZM877.294 105.8C887.534 105.8 896.414 107.8 903.934 111.8C911.614 115.64 917.534 121.56 921.694 129.56C926.014 137.56 928.174 147.64 928.174 159.8V233H911.134V161.48C911.134 148.2 907.934 138.2 901.534 131.48C895.294 124.6 886.414 121.16 874.894 121.16C866.254 121.16 858.734 123 852.334 126.68C846.094 130.2 841.214 135.4 837.694 142.28C834.334 149 832.654 157.16 832.654 166.76V233H815.614V161.48C815.614 148.2 812.414 138.2 806.014 131.48C799.614 124.6 790.654 121.16 779.134 121.16C770.654 121.16 763.214 123 756.814 126.68C750.414 130.2 745.454 135.4 741.934 142.28C738.574 149 736.894 157.16 736.894 166.76V233H719.854V107H736.174V141.08L733.534 135.08C737.374 125.96 743.534 118.84 752.014 113.72C760.654 108.44 770.814 105.8 782.494 105.8C794.814 105.8 805.294 108.92 813.934 115.16C822.574 121.24 828.174 130.44 830.734 142.76L824.014 140.12C827.694 129.88 834.174 121.64 843.454 115.4C852.894 109 864.174 105.8 877.294 105.8Z" fill="#23B978"/>
<path d="M1053.35 233V205.16L1052.63 200.6V154.04C1052.63 143.32 1049.59 135.08 1043.51 129.32C1037.59 123.56 1028.71 120.68 1016.87 120.68C1008.71 120.68 1000.95 122.04 993.585 124.76C986.225 127.48 979.985 131.08 974.865 135.56L967.185 122.84C973.585 117.4 981.265 113.24 990.225 110.36C999.185 107.32 1008.63 105.8 1018.55 105.8C1034.87 105.8 1047.43 109.88 1056.23 118.04C1065.19 126.04 1069.67 138.28 1069.67 154.76V233H1053.35ZM1009.91 234.2C1000.47 234.2 992.225 232.68 985.185 229.64C978.305 226.44 973.025 222.12 969.345 216.68C965.665 211.08 963.825 204.68 963.825 197.48C963.825 190.92 965.345 185 968.385 179.72C971.585 174.28 976.705 169.96 983.745 166.76C990.945 163.4 1000.55 161.72 1012.55 161.72H1055.99V174.44H1013.03C1000.87 174.44 992.385 176.6 987.585 180.92C982.945 185.24 980.625 190.6 980.625 197C980.625 204.2 983.425 209.96 989.025 214.28C994.625 218.6 1002.47 220.76 1012.55 220.76C1022.15 220.76 1030.39 218.6 1037.27 214.28C1044.31 209.8 1049.43 203.4 1052.63 195.08L1056.47 206.84C1053.27 215.16 1047.67 221.8 1039.67 226.76C1031.83 231.72 1021.91 234.2 1009.91 234.2ZM1155.79 234.2C1143.95 234.2 1134.83 231 1128.43 224.6C1122.03 218.2 1118.83 209.16 1118.83 197.48V79.16H1135.87V196.52C1135.87 203.88 1137.71 209.56 1141.39 213.56C1145.23 217.56 1150.67 219.56 1157.71 219.56C1165.23 219.56 1171.47 217.4 1176.43 213.08L1182.43 225.32C1179.07 228.36 1174.99 230.6 1170.19 232.04C1165.55 233.48 1160.75 234.2 1155.79 234.2ZM1096.27 121.16V107H1174.27V121.16H1096.27ZM1262.51 234.2C1249.39 234.2 1237.87 231.48 1227.95 226.04C1218.03 220.44 1210.27 212.84 1204.67 203.24C1199.07 193.48 1196.27 182.36 1196.27 169.88C1196.27 157.4 1198.91 146.36 1204.19 136.76C1209.63 127.16 1216.99 119.64 1226.27 114.2C1235.71 108.6 1246.27 105.8 1257.95 105.8C1269.79 105.8 1280.27 108.52 1289.39 113.96C1298.67 119.24 1305.95 126.76 1311.23 136.52C1316.51 146.12 1319.15 157.24 1319.15 169.88C1319.15 170.68 1319.07 171.56 1318.91 172.52C1318.91 173.32 1318.91 174.2 1318.91 175.16H1209.23V162.44H1309.79L1303.07 167.48C1303.07 158.36 1301.07 150.28 1297.07 143.24C1293.23 136.04 1287.95 130.44 1281.23 126.44C1274.51 122.44 1266.75 120.44 1257.95 120.44C1249.31 120.44 1241.55 122.44 1234.67 126.44C1227.79 130.44 1222.43 136.04 1218.59 143.24C1214.75 150.44 1212.83 158.68 1212.83 167.96V170.6C1212.83 180.2 1214.91 188.68 1219.07 196.04C1223.39 203.24 1229.31 208.92 1236.83 213.08C1244.51 217.08 1253.23 219.08 1262.99 219.08C1270.67 219.08 1277.79 217.72 1284.35 215C1291.07 212.28 1296.83 208.12 1301.63 202.52L1311.23 213.56C1305.63 220.28 1298.59 225.4 1290.11 228.92C1281.79 232.44 1272.59 234.2 1262.51 234.2ZM1404 234.2C1392 234.2 1381.2 231.48 1371.6 226.04C1362.16 220.6 1354.72 213.08 1349.28 203.48C1343.84 193.72 1341.12 182.52 1341.12 169.88C1341.12 157.08 1343.84 145.88 1349.28 136.28C1354.72 126.68 1362.16 119.24 1371.6 113.96C1381.2 108.52 1392 105.8 1404 105.8C1415.04 105.8 1424.88 108.28 1433.52 113.24C1442.32 118.2 1449.28 125.48 1454.4 135.08C1459.68 144.52 1462.32 156.12 1462.32 169.88C1462.32 183.48 1459.76 195.08 1454.64 204.68C1449.52 214.28 1442.56 221.64 1433.76 226.76C1425.12 231.72 1415.2 234.2 1404 234.2ZM1405.2 219.08C1414.16 219.08 1422.16 217.08 1429.2 213.08C1436.4 208.92 1442 203.16 1446 195.8C1450.16 188.28 1452.24 179.64 1452.24 169.88C1452.24 159.96 1450.16 151.32 1446 143.96C1442 136.6 1436.4 130.92 1429.2 126.92C1422.16 122.76 1414.16 120.68 1405.2 120.68C1396.4 120.68 1388.48 122.76 1381.44 126.92C1374.4 130.92 1368.8 136.6 1364.64 143.96C1360.48 151.32 1358.4 159.96 1358.4 169.88C1358.4 179.64 1360.48 188.28 1364.64 195.8C1368.8 203.16 1374.4 208.92 1381.44 213.08C1388.48 217.08 1396.4 219.08 1405.2 219.08ZM1452.72 233V195.08L1454.4 169.64L1452 144.2V54.92H1469.04V233H1452.72Z" fill="#ABD5FF"/>
<path d="M26.64 396V278.4H43.44V381.384H107.112V396H26.64ZM160.354 397.008C152.738 397.008 146.018 395.608 140.194 392.808C134.482 390.008 130.002 385.752 126.754 380.04C123.618 374.216 122.05 366.936 122.05 358.2V306.96H138.178V356.352C138.178 365.088 140.25 371.64 144.394 376.008C148.65 380.376 154.586 382.56 162.202 382.56C167.802 382.56 172.674 381.44 176.818 379.2C180.962 376.848 184.154 373.488 186.394 369.12C188.634 364.64 189.754 359.264 189.754 352.992V306.96H205.882V396H190.594V371.976L193.114 378.36C190.202 384.296 185.834 388.888 180.01 392.136C174.186 395.384 167.634 397.008 160.354 397.008ZM275.393 397.008C266.321 397.008 258.201 395.048 251.033 391.128C243.977 387.208 238.433 381.832 234.401 375C230.369 368.168 228.353 360.328 228.353 351.48C228.353 342.632 230.369 334.792 234.401 327.96C238.433 321.128 243.977 315.808 251.033 312C258.201 308.08 266.321 306.12 275.393 306.12C283.457 306.12 290.625 307.744 296.897 310.992C303.281 314.128 308.209 318.832 311.681 325.104L299.417 333C296.505 328.632 292.921 325.44 288.665 323.424C284.521 321.296 280.041 320.232 275.225 320.232C269.401 320.232 264.193 321.52 259.601 324.096C255.009 326.672 251.369 330.312 248.681 335.016C245.993 339.608 244.649 345.096 244.649 351.48C244.649 357.864 245.993 363.408 248.681 368.112C251.369 372.816 255.009 376.456 259.601 379.032C264.193 381.608 269.401 382.896 275.225 382.896C280.041 382.896 284.521 381.888 288.665 379.872C292.921 377.744 296.505 374.496 299.417 370.128L311.681 377.856C308.209 384.016 303.281 388.776 296.897 392.136C290.625 395.384 283.457 397.008 275.393 397.008ZM331.413 396V306.96H347.541V396H331.413ZM339.477 289.824C336.341 289.824 333.709 288.816 331.581 286.8C329.565 284.784 328.557 282.32 328.557 279.408C328.557 276.384 329.565 273.864 331.581 271.848C333.709 269.832 336.341 268.824 339.477 268.824C342.613 268.824 345.189 269.832 347.205 271.848C349.333 273.752 350.397 276.16 350.397 279.072C350.397 282.096 349.389 284.672 347.373 286.8C345.357 288.816 342.725 289.824 339.477 289.824ZM415.127 397.008C406.503 397.008 398.775 395.104 391.943 391.296C385.223 387.488 379.903 382.168 375.983 375.336C372.063 368.504 370.103 360.552 370.103 351.48C370.103 342.408 372.063 334.512 375.983 327.792C379.903 320.96 385.223 315.64 391.943 311.832C398.775 308.024 406.503 306.12 415.127 306.12C422.631 306.12 429.407 307.8 435.455 311.16C441.503 314.52 446.319 319.56 449.903 326.28C453.599 333 455.447 341.4 455.447 351.48C455.447 361.56 453.655 369.96 450.071 376.68C446.599 383.4 441.839 388.496 435.791 391.968C429.743 395.328 422.855 397.008 415.127 397.008ZM416.471 382.896C422.071 382.896 427.111 381.608 431.591 379.032C436.183 376.456 439.767 372.816 442.343 368.112C445.031 363.296 446.375 357.752 446.375 351.48C446.375 345.096 445.031 339.608 442.343 335.016C439.767 330.312 436.183 326.672 431.591 324.096C427.111 321.52 422.071 320.232 416.471 320.232C410.759 320.232 405.663 321.52 401.183 324.096C396.703 326.672 393.119 330.312 390.431 335.016C387.743 339.608 386.399 345.096 386.399 351.48C386.399 357.752 387.743 363.296 390.431 368.112C393.119 372.816 396.703 376.456 401.183 379.032C405.663 381.608 410.759 382.896 416.471 382.896ZM446.879 396V371.976L447.887 351.312L446.207 330.648V271.344H462.335V396H446.879ZM532.499 397.008C522.979 397.008 514.579 395.048 507.299 391.128C500.131 387.208 494.531 381.832 490.499 375C486.579 368.168 484.619 360.328 484.619 351.48C484.619 342.632 486.523 334.792 490.331 327.96C494.251 321.128 499.571 315.808 506.291 312C513.123 308.08 520.795 306.12 529.307 306.12C537.931 306.12 545.547 308.024 552.155 311.832C558.763 315.64 563.915 321.016 567.611 327.96C571.419 334.792 573.323 342.8 573.323 351.984C573.323 352.656 573.267 353.44 573.155 354.336C573.155 355.232 573.099 356.072 572.987 356.856H497.219V345.264H564.587L558.035 349.296C558.147 343.584 556.971 338.488 554.507 334.008C552.043 329.528 548.627 326.056 544.259 323.592C540.003 321.016 535.019 319.728 529.307 319.728C523.707 319.728 518.723 321.016 514.355 323.592C509.987 326.056 506.571 329.584 504.107 334.176C501.643 338.656 500.411 343.808 500.411 349.632V352.32C500.411 358.256 501.755 363.576 504.443 368.28C507.243 372.872 511.107 376.456 516.035 379.032C520.963 381.608 526.619 382.896 533.003 382.896C538.267 382.896 543.027 382 547.283 380.208C551.651 378.416 555.459 375.728 558.707 372.144L567.611 382.56C563.579 387.264 558.539 390.848 552.491 393.312C546.555 395.776 539.891 397.008 532.499 397.008Z" fill="#0095FF"/>
</svg>
