<svg width="35" height="35" xmlns="http://www.w3.org/2000/svg">
    <defs />
    <path fill="#2379f4" stroke="none"
        d="M 10.65 32.39 L 27.6 20.64 C 27.6 20.64 28.36 20.2 28.36 19.51 C 28.36 18.59 27.390001 18.29 27.390001 18.29 L 18.06 14.6 C 17.73 14.47 17.27 14.84 17.7 15.3 L 20.79 18.39 C 20.79 18.39 21.65 19.23 21.65 19.79 C 21.65 20.35 21.12 20.84 21.12 20.84 L 9.89 31.7 C 9.49 32.09 10.03 32.79 10.64 32.41 Z" />
    <path fill="#2379f4" stroke="none"
        d="M 24.35 2.61 L 7.4 14.35 C 7.4 14.35 6.64 14.789999 6.64 15.48 C 6.64 16.4 7.61 16.7 7.61 16.7 L 16.94 20.39 C 17.27 20.52 17.73 20.15 17.3 19.69 L 14.210001 16.59 C 14.210001 16.59 13.35 15.750001 13.35 15.19 C 13.35 14.630001 13.88 14.14 13.88 14.14 L 25.09 3.32 C 25.500002 2.93 24.96 2.23 24.340002 2.61 Z" />
</svg>