<svg width="800" height="800" viewBox="0 0 800 800" fill="none" xmlns="http://www.w3.org/2000/svg">
  <path d="M39 282C39 164 39 105.1 75.6 68.5C112.2 32 171.1 32 288.9 32H510.1C627.9 32 686.8 32 723.4 68.6C760 105.2 760 164.1 760 281.9V503.1C760 620.9 760 679.8 723.4 716.4C686.8 753 627.9 753 510.1 753H288.9C171.1 753 112.2 753 75.6 716.4C39 679.8 39 620.9 39 503.1V281.9Z" fill="#4945FF"/>
  <path fill-rule="evenodd" clip-rule="evenodd" d="M536.4 250.7H293.7V374.5H417.5V498.2H541.3V255.5C541.3 252.9 539.1 250.7 536.4 250.7Z" fill="white"/>
  <path d="M412.7 374.5H417.5V379.3H412.7V374.5Z" fill="white"/>
  <path d="M293.8 374.5H412.8C415.4 374.5 417.6 376.6 417.6 379.3V498.3H298.6C295.9 498.3 293.8 496.1 293.8 493.4V374.5Z" fill="#9593FF"/>
  <path d="M417.5 498.2H541.3L421.6 618C420 619.6 417.5 618.5 417.5 616.3V498.2ZM293.8 374.5H175.8C173.6 374.5 172.5 371.9 174.1 370.4L293.8 250.7V374.5Z" fill="#9593FF"/>
</svg>
