<svg xmlns="http://www.w3.org/2000/svg" width="24" height="24" fill="none" viewBox="0 0 24 24">
  <path fill="#3178C6" d="M24 0H0v24h24V0Z"/>
  <path fill="#fff" fill-rule="evenodd" d="M14.11 18.797v2.588c.421.215.918.375 1.49.487a9.45 9.45 0 0 0 1.819.16 8.35 8.35 0 0 0 1.772-.179 4.407 4.407 0 0 0 1.472-.59c.421-.272.75-.628 1.003-1.07.243-.44.365-.983.365-1.63 0-.47-.065-.882-.206-1.238a2.98 2.98 0 0 0-.61-.947 4.48 4.48 0 0 0-.946-.74 11.05 11.05 0 0 0-1.247-.62c-.338-.14-.647-.27-.919-.412a4.124 4.124 0 0 1-.684-.403 1.784 1.784 0 0 1-.44-.44.928.928 0 0 1-.15-.525c0-.178.046-.338.14-.478.093-.141.225-.263.384-.366.169-.103.375-.178.619-.234.244-.057.515-.085.806-.085.216 0 .44.019.684.047.244.028.479.084.722.15.244.066.479.15.713.253.225.103.44.225.637.356v-2.418a6.524 6.524 0 0 0-1.293-.338 10.228 10.228 0 0 0-1.604-.112c-.618 0-1.2.065-1.753.197a4.42 4.42 0 0 0-1.453.618c-.422.282-.75.638-.993 1.07-.244.43-.366.955-.366 1.555 0 .77.225 1.425.666 1.978.45.544 1.125 1.004 2.024 1.388.357.15.685.29.994.431.31.14.572.281.797.44.225.16.403.32.534.498.132.178.197.384.197.61a.921.921 0 0 1-.121.468c-.085.14-.207.262-.366.375-.16.112-.366.187-.619.244a3.957 3.957 0 0 1-.862.084 4.938 4.938 0 0 1-1.67-.3 4.752 4.752 0 0 1-1.537-.872Zm-4.313-6.45h3.328V10.22H3.844v2.128h3.31v9.497h2.633v-9.497h.01Z" clip-rule="evenodd"/>
</svg>
