<svg xmlns="http://www.w3.org/2000/svg" xml:space="preserve" viewBox="0 0 361 104.2">
  <g style="fill:#0F5DBD"><path d="M40.3 0 11.7 92.1H0L28.5 0h11.8zM50.7 0v92.1H40.3V0h10.4zM101.4 0v92.1H91V0h10.4zM91 0 62.5 92.1H50.8L79.3 0H91zM294 95.4h67v8.8h-67v-8.8z"/></g>
  <g style="fill:#000"><path d="M198.7 72.8h-17.1v-5.5h3.8V51.5c0-3.7-.7-6.3-2.1-7.9-1.4-1.6-3.3-2.3-5.7-2.3-3.2 0-5.6 1.1-7.2 3.4s-2.4 4.6-2.5 6.9v15.6h6v5.5h-17.1v-5.5h3.8V51.5c0-3.8-.7-6.4-2.1-7.9-1.4-1.5-3.3-2.3-5.6-2.3-3.2 0-5.5 1.1-7.2 3.3-1.6 2.2-2.4 4.5-2.5 6.9v15.8h6.9v5.5h-20.2v-5.5h6V42h-6.1v-5.6h13.4v6.4c1.2-2.1 2.7-3.8 4.7-5.2 2-1.3 4.4-2 7.3-2 2.8 0 5.3.7 7.5 2.1 2.2 1.4 3.7 3.5 4.5 6.4 1.1-2.5 2.7-4.5 4.9-6.1 2.2-1.6 4.8-2.4 7.9-2.4 3.5 0 6.5 1.1 8.9 3.3 2.4 2.2 3.7 5.6 3.7 10.2v18.2h6.1v5.5zM241.2 72.8H228v-7.2c-1.2 2.2-2.8 4.1-4.9 5.6-2.1 1.6-4.8 2.4-8.3 2.4-4.8 0-8.7-1.6-11.6-4.9-2.9-3.2-4.3-7.7-4.3-13.3 0-5 1.3-9.6 4-13.7 2.6-4.1 6.9-6.2 12.8-6.2 5.7 0 9.8 2.2 12.3 6.5V22.3h-8.6v-5.6h15.8v50.6h6v5.5zM227.9 56v-4.4c-.1-3-1.2-5.5-3.2-7.3-2-1.8-4.4-2.8-7.2-2.8-3.6 0-6.3 1.3-8.2 3.9-1.9 2.6-2.8 5.8-2.8 9.6 0 4.1 1 7.3 3 9.5s4.5 3.3 7.4 3.3c3.2 0 5.8-1.3 7.8-3.8 2.1-2.6 3.1-5.3 3.2-8zM286.4 72.8h-19.3v-5.5h6V51.5c0-3.7-.7-6.3-2.2-7.9-1.4-1.6-3.4-2.3-5.7-2.3-3.1 0-5.6 1-7.4 3-1.8 2-2.8 4.4-2.9 7v15.9h6v5.5h-19.3v-5.5h6V42h-6.2v-5.6H255v6.2c2.6-4.6 6.8-6.9 12.7-6.9 3.6 0 6.7 1.1 9.2 3.3 2.5 2.2 3.7 5.6 3.7 10.2v18.2h6v5.4z"/></g>
</svg>
