<svg xmlns="http://www.w3.org/2000/svg" fill="none" viewBox="10 -10 304 120">
  <g clip-path="url(#a)">
    <g clip-path="url(#b)">
      <path fill="url(#c)" d="M72 0H28A28 28 0 0 0 0 28v44a28 28 0 0 0 28 28h44a28 28 0 0 0 28-28V28A28 28 0 0 0 72 0Z"/>
      <path stroke="#161616" stroke-linecap="round" stroke-linejoin="round" stroke-width="4" d="m47.81 54.34 26.63-6.66-19.73-19.1-26.63 6.67 19.73 19.1Z"/>
      <path stroke="#161616" stroke-linecap="round" stroke-linejoin="round" stroke-width="4" d="m47.81 54.34 18.23-4.56c.67 5.86-.29 11.8-2.76 17.15a31.87 31.87 0 0 0-19.65 3.01 31.87 31.87 0 0 0-15.5-12.43 32.2 32.2 0 0 1 6.18-16.23l13.5 13.06Z"/>
      <path stroke="#161616" stroke-linecap="round" stroke-linejoin="round" stroke-width="4" d="m33.37 67.04 5.17-19.32 11.84-2.96m-2.57 9.58 26.63-6.66-19.73-19.1-26.63 6.67 19.73 19.1Zm0 0 18.23-4.56c.67 5.86-.29 11.8-2.76 17.15a31.87 31.87 0 0 0-19.65 3.01 31.87 31.87 0 0 0-15.5-12.43 32.2 32.2 0 0 1 6.18-16.23l13.5 13.06Z"/>
    </g>
    <path fill="#fff" d="M281.5 67.51c-2.63 0-4.9-.54-6.8-1.64a11.08 11.08 0 0 1-4.39-4.67 15.64 15.64 0 0 1-1.53-7.14c0-2.7.51-5.05 1.53-7.09a11.6 11.6 0 0 1 4.33-4.77 12.14 12.14 0 0 1 6.53-1.72c1.62 0 3.14.26 4.57.78 1.44.51 2.72 1.3 3.82 2.39a11.18 11.18 0 0 1 2.62 4.12c.64 1.66.96 3.64.96 5.93v1.9h-21.46v-4.16h15.54a6.63 6.63 0 0 0-.76-3.16 5.58 5.58 0 0 0-2.1-2.2 5.9 5.9 0 0 0-3.1-.8c-1.26 0-2.37.31-3.33.92-.95.6-1.7 1.4-2.23 2.4a6.88 6.88 0 0 0-.8 3.21v3.63c0 1.53.28 2.83.83 3.92a5.96 5.96 0 0 0 2.34 2.5c1 .56 2.17.84 3.51.84.9 0 1.71-.12 2.44-.37a5.4 5.4 0 0 0 1.89-1.14c.53-.5.94-1.12 1.21-1.86l5.76.65a9 9 0 0 1-2.08 3.99c-1 1.12-2.3 2-3.88 2.62-1.58.61-3.39.92-5.42.92Z"/>
    <path fill="#fff" d="M263.56 32.1V67h-6.17V32.1h6.17Z"/>
    <path fill="#fff" d="M236.87 67.46a9.9 9.9 0 0 1-5.52-1.58 10.77 10.77 0 0 1-3.85-4.6 17.18 17.18 0 0 1-1.42-7.34c0-2.9.48-5.36 1.43-7.36a10.6 10.6 0 0 1 3.9-4.55 10.03 10.03 0 0 1 5.48-1.55c1.53 0 2.8.26 3.78.78a7.13 7.13 0 0 1 2.35 1.86c.58.72 1.03 1.4 1.35 2.03h.26V32.09h6.18V67h-6.06v-4.13h-.38c-.32.64-.78 1.32-1.38 2.03a7.6 7.6 0 0 1-6.12 2.56Zm1.72-5.06c1.3 0 2.42-.35 3.34-1.06a6.6 6.6 0 0 0 2.1-2.98c.48-1.27.72-2.76.72-4.45 0-1.7-.24-3.17-.72-4.42a6.28 6.28 0 0 0-2.08-2.91 5.38 5.38 0 0 0-3.36-1.04c-1.37 0-2.52.36-3.44 1.07a6.5 6.5 0 0 0-2.08 2.97c-.47 1.26-.7 2.7-.7 4.33 0 1.64.23 3.1.7 4.38a6.84 6.84 0 0 0 2.1 3.02 5.4 5.4 0 0 0 3.42 1.09Z"/>
    <path fill="#fff" d="M209.37 67.51c-2.56 0-4.77-.56-6.65-1.69a11.46 11.46 0 0 1-4.36-4.72 15.52 15.52 0 0 1-1.53-7.09c0-2.7.5-5.07 1.53-7.1a11.43 11.43 0 0 1 4.36-4.75 12.68 12.68 0 0 1 6.65-1.68c2.56 0 4.78.56 6.65 1.68a11.32 11.32 0 0 1 4.35 4.74 15.47 15.47 0 0 1 1.55 7.11c0 2.7-.52 5.07-1.55 7.1a11.34 11.34 0 0 1-4.35 4.71 12.68 12.68 0 0 1-6.65 1.7Zm.04-4.94c1.38 0 2.54-.38 3.47-1.14a6.89 6.89 0 0 0 2.08-3.1c.47-1.3.7-2.74.7-4.34 0-1.6-.23-3.05-.7-4.34a6.88 6.88 0 0 0-2.08-3.12 5.27 5.27 0 0 0-3.47-1.16c-1.42 0-2.6.39-3.55 1.16a7 7 0 0 0-2.1 3.12c-.45 1.3-.68 2.74-.68 4.34 0 1.6.23 3.04.68 4.33a7 7 0 0 0 2.1 3.1 5.46 5.46 0 0 0 3.55 1.15Z"/>
    <path fill="#fff" d="M180.17 67.51c-2.56 0-4.77-.56-6.65-1.69a11.46 11.46 0 0 1-4.36-4.72 15.52 15.52 0 0 1-1.54-7.09c0-2.7.51-5.07 1.54-7.1a11.43 11.43 0 0 1 4.36-4.75 12.68 12.68 0 0 1 6.65-1.68c2.56 0 4.77.56 6.65 1.68a11.32 11.32 0 0 1 4.34 4.74 15.49 15.49 0 0 1 1.55 7.11c0 2.7-.51 5.07-1.55 7.1a11.34 11.34 0 0 1-4.34 4.71 12.68 12.68 0 0 1-6.65 1.7Zm.03-4.94c1.39 0 2.55-.38 3.48-1.14a6.89 6.89 0 0 0 2.08-3.1c.47-1.3.7-2.74.7-4.34 0-1.6-.23-3.05-.7-4.34a6.88 6.88 0 0 0-2.08-3.12 5.26 5.26 0 0 0-3.48-1.16c-1.42 0-2.6.39-3.54 1.16a7 7 0 0 0-2.1 3.12c-.45 1.3-.68 2.74-.68 4.34 0 1.6.23 3.04.68 4.33a7 7 0 0 0 2.1 3.1 5.46 5.46 0 0 0 3.54 1.15Z"/>
    <path fill="#fff" d="M162.13 32.1V67h-5.62l-16.45-23.78h-.3V67h-6.32V32.1h5.66l16.43 23.79h.31v-23.8h6.3Z"/>
  </g>
  <defs>
    <clipPath id="a">
      <path fill="#fff" d="M0 0h293.14v100H0z"/>
    </clipPath>
    <clipPath id="b">
      <path fill="#fff" d="M0 0h100v100H0z"/>
    </clipPath>
    <linearGradient id="c" x1="0" x2="100" y1="50" y2="50" gradientUnits="userSpaceOnUse">
      <stop stop-color="#F77062"/>
      <stop offset="1" stop-color="#FE5196"/>
    </linearGradient>
  </defs>
</svg>
