<svg xmlns="http://www.w3.org/2000/svg" width="800" height="200" fill="none" class="text-highlighted block w-auto h-6" viewBox="0 0 800 200">
  <path fill="#fff" d="M377 200c2.16 0 4-1.791 4-4v-93s5 9 14 24l39 67c1.785 3.74 5.744 6 9 6h27V50h-27c-1.798 0-4 1.494-4 4v94l-18-32-36-61c-1.752-3.109-5.521-5-9-5h-26v150h27ZM726 92h13a6 6 0 0 0 6-6V60h28v32h27v24h-27v43c0 10.5 5.057 15 14 15h13v26h-17c-23.052 0-38-14.929-38-40v-44h-19V92ZM591 92v62c0 14.004-5.258 25.809-13 34-7.742 8.191-18.434 12-33 12-14.566 0-26.258-3.809-34-12-7.611-8.191-13-19.996-13-34V92h16c3.412 0 6.769.622 9 3 2.231 2.246 3 3.565 3 7v52c0 8.059.457 13.037 4 17 3.543 3.831 7.914 5 15 5 7.217 0 10.457-1.169 14-5 3.543-3.963 4-8.941 4-17v-52c0-3.435.769-5.622 3-8 1.96-2.09 4.028-2.04 7-2 .411.005 1.586 0 2 0h16ZM676 144l34-52h-26c-3.277 0-6.188 1.176-8 4l-16 24-15-23c-1.812-2.824-5.723-5-9-5h-25l34 51-37 57h26c3.25 0 6.182-3.213 8-6l18-27 19 28c1.818 2.787 4.75 5 8 5h26l-37-56Z"/>
  <path fill="#00DC82" d="M168 200h111c3.542 0 6.932-1.244 10-3 3.068-1.756 6.23-3.959 8-7 1.77-3.041 3.002-6.49 3-10.001-.002-3.511-1.227-6.959-3-9.998L222 41c-1.77-3.04-3.933-5.245-7-7s-7.458-3-11-3-6.933 1.245-10 3-5.23 3.96-7 7l-19 33-38-64.002c-1.772-3.04-3.932-6.243-7-7.998s-6.458-2-10-2-6.932.245-10 2c-3.068 1.755-6.228 4.958-8 7.998L2 170c-1.773 3.039-1.998 6.487-2 9.998-.002 3.511.23 6.96 2 10.001 1.77 3.04 4.932 5.244 8 7 3.068 1.756 6.458 3 10 3h70c27.737 0 47.925-12.442 62-36l34-59 18-31 55 94h-73l-18 32Zm-79-32H40l73-126 37 63-24.509 42.725C116.144 163.01 105.488 168 89 168Z"/>
</svg>
