<svg alt="Obsidian" height="22" viewBox="0 0 143 25" width="126" xmlns="http://www.w3.org/2000/svg">
  <path fill="#A88BFA" d="m6.91927 14.5955c.64053-.1907 1.67255-.4839 2.85923-.5565-.71191-1.7968-.88376-3.3691-.74554-4.76905.15962-1.61678.72977-2.9662 1.28554-4.11442.1186-.24501.2326-.47313.3419-.69198.1549-.30984.3004-.60109.4365-.8953.2266-.48978.3948-.92231.4798-1.32416.0836-.39515.0841-.74806-.0148-1.08657-.099-.338982-.3093-.703864-.7093-1.1038132-.5222-.1353116-1.1017-.0165173-1.53613.3742922l-5.15591 4.638241c-.28758.25871-.47636.60929-.53406.99179l-.44455 2.94723c.69903.6179 2.42435 2.41414 3.47374 4.90644.09364.2224.1819.4505.26358.6838z"></path>
  <path fill="#A88BFA" d="m2.97347 10.3512c-.02431.1037-.05852.205-.10221.3024l-2.724986 6.0735c-.279882.6238-.15095061 1.3552.325357 1.8457l4.288349 4.4163c2.1899-3.2306 1.87062-6.2699.87032-8.6457-.75846-1.8013-1.90801-3.2112-2.65683-3.9922z"></path>
  <path fill="#A88BFA" d="m5.7507 23.5094c.07515.012.15135.0192.2281.0215.81383.0244 2.18251.0952 3.29249.2997.90551.1669 2.70051.6687 4.17761 1.1005 1.1271.3294 2.2886-.5707 2.4522-1.7336.1192-.8481.343-1.8075.7553-2.6869l-.0095.0033c-.6982-1.9471-1.5865-3.2044-2.5178-4.0073-.9284-.8004-1.928-1.1738-2.8932-1.3095-1.60474-.2257-3.07497.1961-4.00103.4682.55465 2.3107.38396 5.0295-1.48417 7.8441z"></path>
  <path fill="#A88BFA" d="m17.3708 19.3102c.9267-1.3985 1.5868-2.4862 1.9352-3.0758.1742-.295.1427-.6648-.0638-.9383-.5377-.7126-1.5666-2.1607-2.1272-3.5015-.5764-1.3785-.6624-3.51876-.6673-4.56119-.0019-.39626-.1275-.78328-.3726-1.09465l-3.3311-4.23183c-.0117.19075-.0392.37998-.0788.56747-.1109.52394-.32 1.04552-.5585 1.56101-.1398.30214-.3014.62583-.4646.95284-.1086.21764-.218.4368-.3222.652-.5385 1.11265-1.0397 2.32011-1.1797 3.73901-.1299 1.31514.0478 2.84484.8484 4.67094.1333.0113.2675.0262.4023.0452 1.1488.1615 2.3546.6115 3.4647 1.5685.9541.8226 1.8163 2.0012 2.5152 3.6463z"></path>
  <path fill="#151515" d="m39.752 4.5038c-5.952 0-10.248 3.744-10.248 8.88s4.296 8.88 10.248 8.88c5.928 0 10.224-3.744 10.224-8.88s-4.296-8.88-10.224-8.88zm0 3.47999c3.576 0 6.144 2.13601 6.144 5.40001s-2.568 5.4-6.144 5.4c-3.6 0-6.168-2.136-6.168-5.4s2.568-5.40001 6.168-5.40001z"></path>
  <path fill="#151515" d="m55.4847 20.5598c.864.936 2.472 1.704 4.584 1.704 4.32 0 6.8401-2.976 6.8401-6.576 0-3.624-2.5201-6.60001-6.8401-6.60001-2.112 0-3.72.79201-4.584 1.70401v-6.02401h-3.84v17.23201h3.84zm-.12-4.944c0-1.992 1.704-3.432 3.912-3.432 2.112 0 3.888 1.248 3.888 3.504s-1.776 3.48-3.888 3.48c-2.208 0-3.912-1.416-3.912-3.408z"></path>
  <path fill="#151515" d="m67.3181 19.9118c1.464 1.488 4.272 2.352 7.2 2.352 3.96 0 6.936-1.44 6.936-4.392 0-2.88-2.832-3.432-6.072-3.816-2.736-.312-3.576-.384-3.576-1.08 0-.648.864-1.056 2.496-1.056 1.968 0 3.672.6 4.824 1.656l1.992-2.304c-1.272-1.224-3.648-2.18401-6.624-2.18401-4.008 0-6.48 1.72801-6.48 4.32001 0 2.712 2.52 3.312 5.544 3.696 2.832.336 4.032.336 4.032 1.176 0 .792-1.056 1.128-2.784 1.128-2.16 0-4.152-.672-5.664-2.064z"></path>
  <path fill="#151515" d="m82.8395 8.05579h3.912v-3.288h-3.912zm3.864 1.29601h-3.84v12.648h3.84z"></path>
  <path fill="#151515" d="m99.8264 20.5598v1.44h3.8396v-17.23201h-3.8396v6.02401c-.864-.912-2.472-1.70401-4.584-1.70401-4.32 0-6.84 2.97601-6.84 6.60001 0 3.6 2.52 6.576 6.84 6.576 2.112 0 3.72-.768 4.584-1.704zm.12-4.944v.144c0 1.992-1.704 3.408-3.912 3.408-2.112 0-3.888-1.224-3.888-3.48s1.776-3.504 3.888-3.504c2.208 0 3.912 1.44 3.912 3.432z"></path>
  <path fill="#151515" d="m105.996 8.05579h3.912v-3.288h-3.912zm3.864 1.29601h-3.84v12.648h3.84z"></path>
  <path fill="#151515" d="m116.863 22.2638c2.232 0 4.056-.648 5.208-1.656.648 1.2 2.184 1.92 4.992 1.392v-2.832c-1.344.288-1.632-.024-1.632-.696v-4.608c0-3.168-2.376-4.77601-6.408-4.77601-3.48 0-6.264 1.51201-7.056 3.79201l3.456.936c.384-.984 1.704-1.704 3.432-1.704 2.04 0 2.856.768 2.856 1.728v.072l-5.04.456c-2.976.288-5.16 1.512-5.16 3.984 0 2.496 2.232 3.912 5.352 3.912zm4.848-5.112c0 1.464-2.184 2.304-4.152 2.304-1.488 0-2.328-.432-2.328-1.248 0-.84.672-1.152 1.992-1.272l4.488-.456z"></path>
  <path fill="#151515" d="m128.379 21.9998h3.84v-6.048c0-2.184 1.2-3.456 3.288-3.456 1.968 0 3 1.296 3 3.432v6.072h3.84v-7.2c0-3.504-2.232-5.71201-5.52-5.71201-2.04 0-3.624.76801-4.608 1.80001v-1.536h-3.84z"></path>
</svg>
