<svg xmlns="http://www.w3.org/2000/svg" viewBox="0 0 581 113" fill="#fff">
  <path d="M151.4 66.76c.6 5.6 5.7 15.2 20.48 15.2 12.88 0 19.08-8.2 19.08-16.2 0-7.2-4.9-13.1-14.59-15.1l-7-1.5c-2.69-.5-4.49-2-4.49-4.4 0-2.8 2.8-4.9 6.3-4.9 5.6 0 7.69 3.7 8.09 6.6l11.09-2.5c-.6-5.3-5.3-14.2-19.28-14.2-10.6 0-18.38 7.3-18.38 16.1 0 6.9 4.3 12.6 13.78 14.7l6.5 1.5c3.8.8 5.3 2.6 5.3 4.8 0 2.6-2.1 4.9-6.5 4.9-5.8 0-8.7-3.6-9-7.5l-11.38 2.5Z"/>
  <path d="M233.42 80.46h12.69c-.2-1.7-.5-5.1-.5-8.9v-40.3h-13.29v28.6c0 5.7-3.4 9.7-9.29 9.7-6.2 0-9-4.4-9-9.9v-28.4h-13.28v31.1c0 10.7 6.8 19.4 18.68 19.4 5.2 0 10.9-2 13.6-6.6 0 2 .2 4.3.4 5.3Z"/>
  <path d="M273.08 99.47v-23.8c2.4 3.3 7.39 6 14.18 6 13.89 0 23.18-11 23.18-25.91 0-14.6-8.3-25.6-22.68-25.6-7.39 0-12.88 3.3-15.08 7.1v-6h-12.89v68.2h13.29Zm24.27-43.61c0 8.8-5.4 13.9-12.19 13.9-6.79 0-12.28-5.2-12.28-13.9s5.5-13.8 12.28-13.8c6.8 0 12.2 5.1 12.2 13.8Z"/>
  <path d="M317.96 67.06c0 7.7 6.4 14.8 16.89 14.8 7.29 0 11.98-3.4 14.48-7.3 0 1.9.2 4.6.5 5.9h12.19c-.3-1.7-.6-5.2-.6-7.8v-24.2c0-9.9-5.8-18.7-21.38-18.7-13.19 0-20.28 8.5-21.08 16.2l11.8 2.5c.4-4.3 3.59-8 9.38-8 5.6 0 8.3 2.9 8.3 6.4 0 1.7-.9 3.1-3.7 3.5l-12.09 1.8c-8.2 1.2-14.69 6.1-14.69 14.9Zm19.68 4.9c-4.3 0-6.39-2.8-6.39-5.7 0-3.8 2.7-5.7 6.1-6.2l11.08-1.7v2.2c0 8.7-5.2 11.4-10.79 11.4Z"/>
  <path d="M387.7 80.46v-6c2.6 4.2 7.8 7.2 14.59 7.2 13.99 0 23.18-11.1 23.18-26 0-14.6-8.3-25.7-22.68-25.7-7.3 0-12.69 3.2-14.89 6.7V8.04h-13.08v72.41h12.88Zm24.48-24.7c0 9-5.4 14-12.19 14-6.7 0-12.29-5.1-12.29-14 0-9 5.6-13.9 12.29-13.9 6.8 0 12.19 4.9 12.19 13.9Z"/>
  <path d="M432.99 67.06c0 7.7 6.4 14.8 16.88 14.8 7.3 0 12-3.4 14.49-7.3 0 1.9.2 4.6.5 5.9h12.19c-.3-1.7-.6-5.2-.6-7.8v-24.2c0-9.9-5.8-18.7-21.38-18.7-13.19 0-20.28 8.5-21.08 16.2l11.79 2.5c.4-4.3 3.6-8 9.39-8 5.6 0 8.29 2.9 8.29 6.4 0 1.7-.9 3.1-3.7 3.5l-12.08 1.8c-8.2 1.2-14.69 6.1-14.69 14.9Zm19.68 4.9c-4.3 0-6.4-2.8-6.4-5.7 0-3.8 2.7-5.7 6.1-6.2l11.09-1.7v2.2c0 8.7-5.2 11.4-10.79 11.4Z"/>
  <path d="M485.64 66.76c.6 5.6 5.7 15.2 20.48 15.2 12.9 0 19.09-8.2 19.09-16.2 0-7.2-4.9-13.1-14.59-15.1l-7-1.5c-2.7-.5-4.49-2-4.49-4.4 0-2.8 2.8-4.9 6.3-4.9 5.6 0 7.69 3.7 8.09 6.6l11.09-2.5c-.6-5.3-5.3-14.2-19.28-14.2-10.6 0-18.39 7.3-18.39 16.1 0 6.9 4.3 12.6 13.79 14.7l6.5 1.5c3.8.8 5.29 2.6 5.29 4.8 0 2.6-2.1 4.9-6.5 4.9-5.79 0-8.69-3.6-8.99-7.5l-11.38 2.5Z"/>
  <path d="M545.38 50.26c.3-4.5 4.1-9.7 11-9.7 7.59 0 10.78 4.8 10.99 9.7h-21.99Zm23.28 12.8c-1.6 4.4-5 7.5-11.19 7.5-6.59 0-12.09-4.7-12.38-11.2h35.16c0-.2.2-2.2.2-4.1 0-15.8-9.09-25.5-24.28-25.5-12.58 0-24.17 10.2-24.17 25.9 0 16.6 11.89 26.3 25.37 26.3 12.1 0 19.88-7.1 22.38-15.6l-11.09-3.3Z"/>
  <path fill="url(#a)" d="M63.7 110.28a4.9 4.9 0 0 1-8.72-2.97l-1-67.25h45.21a9.79 9.79 0 0 1 7.67 15.88L63.7 110.28Z"/>
  <path fill="url(#b)" fill-opacity=".2" d="M63.7 110.28a4.9 4.9 0 0 1-8.72-2.97l-1-67.25h45.21a9.79 9.79 0 0 1 7.67 15.88L63.7 110.28Z"/>
  <path fill="#3ECF8E" d="M45.32 2.07a4.9 4.9 0 0 1 8.72 2.97l.44 67.25H9.83a9.79 9.79 0 0 1-7.66-15.87L45.32 2.07Z"/>
  <defs>
    <linearGradient id="a" x1="53.97" x2="94.16" y1="54.97" y2="71.83" gradientUnits="userSpaceOnUse">
      <stop stop-color="#249361"/>
      <stop offset="1" stop-color="#3ECF8E"/>
    </linearGradient>
    <linearGradient id="b" x1="36.16" x2="54.48" y1="30.58" y2="65.08" gradientUnits="userSpaceOnUse">
      <stop/>
      <stop offset="1" stop-opacity="0"/>
    </linearGradient>
  </defs>
</svg>
