<svg xmlns="http://www.w3.org/2000/svg" fill="none" viewBox="0 0 151 31">
  <path fill="#111" d="M49.37 7.6c-8.39 0-10.49 1.8-11.13 5.39-.62 3.58.93 5.06 8.1 5.06 4.2 0 5.39 0 5.2 1.04-.2 1.06-1.4 1.06-4.4 1.06-3 0-4.19 0-3.96-1.2H36.9c-.74 4.2 1.13 5.4 9.53 5.4 8.39 0 10.68-1.2 11.42-5.4.65-3.58-1.2-5.1-8.39-5.1-4.2 0-5.39-.02-5.2-1.03.2-1.06 1.4-1.06 4.4-1.06 2.38 0 4.19 0 3.96 1.2h5.97c.65-3.69-.83-5.36-9.23-5.36Z"/>
  <path fill="#FFC158" d="M.84 15.81C.84 4.45 4.63.66 16 .66c11.37 0 15.15 3.79 15.15 15.15S27.36 30.96 16 30.96C4.63 30.96.84 27.17.84 15.81Z"/>
  <path fill="#fff" fill-rule="evenodd" d="m16.16 8.37-5.8 8.87c-.18.28.02.65.36.65h5.32l-.99 5.37c-.08.46.52.7.77.31l5.8-8.86a.42.42 0 0 0-.36-.66H15.94l1-5.37c.08-.46-.52-.7-.78-.31Z" clip-rule="evenodd"/>
  <path fill="#111" d="m77.04 8.18-1.38 7.78c-.53 3-2.9 4.2-5.33 4.2s-4.37-1.2-3.82-4.2l1.39-7.78h-6.71l-1.42 7.78c-1.08 5.97 2.14 8.39 7.63 8.39 4.28 0 7.04-1.81 7.04-1.81l.4 1.2h6.08l2.8-15.56h-6.68Z"/>
  <path fill="#111" d="M98.83 7.6c-4.27 0-6.41 1.8-6.41 1.8l.23-1.19h-6.7l-4.09 22.75h6.71l1.51-8.39s1.52 1.8 5.8 1.8c5.48 0 10.05-1.8 11.24-8.38 1.15-6.62-2.8-8.4-8.29-8.4Zm1.55 8.36c-.53 3-2.9 4.2-5.33 4.2s-4.37-1.2-3.82-4.2c.53-3 2.9-4.2 5.33-4.2s4.34 1.2 3.82 4.2Z"/>
  <path fill="#111" d="M121.08 7.6c-7.3 0-11.67 2.26-12.76 8.23-1.08 5.97 2.47 8.52 9.77 8.52 5.13 0 7.92-.9 10.55-3.23l-3.91-2.49c-.86.52-1.78 1.52-5.89 1.52-2.76 0-4-1.03-3.94-3.13h15.72c.1-.39.2-.77.26-1.2 1.05-6-2.5-8.22-9.8-8.22Zm-5.52 6.42c.78-1.68 2-2.26 4.76-2.26 2.73 0 3.78.55 3.95 2.26h-8.71Z"/>
  <path fill="#111" d="m140.33 9.37.23-1.2h-6.7l-2.8 15.56h6.7l1.19-6.58c.76-4.2 3.91-4.78 6.35-4.78 2.4 0 3.19.26 4.76.62l.86-4.78c-.86-.26-2.9-.61-4.77-.61-4.27 0-5.82 1.77-5.82 1.77Z"/>
</svg>
